<?xml version="1.0" encoding="UTF-8" standalone="no"?>
<!-- Created with Inkscape (http://www.inkscape.org/) -->

<svg
   width="512px"
   height="512px"
   viewBox="0 0 512 512"
   version="1.1"
   id="SVGRoot"
   sodipodi:docname="Count Dooku Beard.svg"
   xml:space="preserve"
   inkscape:version="1.2.2 (b0a8486541, 2022-12-01)"
   xmlns:inkscape="http://www.inkscape.org/namespaces/inkscape"
   xmlns:sodipodi="http://sodipodi.sourceforge.net/DTD/sodipodi-0.dtd"
   xmlns="http://www.w3.org/2000/svg"
   xmlns:svg="http://www.w3.org/2000/svg"><sodipodi:namedview
     id="namedview31631"
     pagecolor="#ffffff"
     bordercolor="#000000"
     borderopacity="0.25"
     inkscape:showpageshadow="2"
     inkscape:pageopacity="0.0"
     inkscape:pagecheckerboard="0"
     inkscape:deskcolor="#d1d1d1"
     inkscape:document-units="px"
     showgrid="false"
     inkscape:zoom="1.0645786"
     inkscape:cx="237.65272"
     inkscape:cy="389.82561"
     inkscape:window-width="1912"
     inkscape:window-height="1011"
     inkscape:window-x="1924"
     inkscape:window-y="28"
     inkscape:window-maximized="0"
     inkscape:current-layer="layer1"
     showguides="false" /><defs
     id="defs31626" /><g
     inkscape:label="Layer 1"
     inkscape:groupmode="layer"
     id="layer1"><path
       style="fill:#a8a8a0;fill-opacity:1;fill-rule:nonzero;stroke:none;stroke-width:0.618086;stroke-opacity:1"
       d="M 79.999998,384 68,342 C 60.29422,315.02977 59.56408,184.85027 41.999998,126 c -1.278978,-4.28535 -12,-6 -12,-6 -10.733125,-5.36656 -5.899563,-24.076517 -4,-36 8.720625,-23.123581 15.592901,-42 40.000001,-42 l -8,72 29.999999,208 10.000001,2 -2,14 6.000001,-2 2,14 4,-6 4,12 6,-6 4,10 6,-5.5 8,14.5 6,-3 10,10 c -3.34726,-55.72637 54.01004,-89.43541 94,-104 67.15005,-0.19577 98.90984,73.88851 108,102 l 14,-8 10,4 2,-18 6,14 4,-16 6,10 4,-20 6,12 2,-12 6,4 2,-18 h 8 L 456,108 444,42 c 25.80727,-3.959427 28.98255,19.968279 40,40 4.67789,8.505261 8.73268,28.47206 2,40 -3.00719,5.14902 -12.98476,2.85569 -16,8 -23.61706,40.29319 -8.9632,150.88961 -26,202 l -18,54 -96,70 H 144 Z M 318,374 c 4.47926,-4.77756 5.21093,-12.45444 5,-19 -0.16975,-5.26773 -2.75427,-10.23193 -5,-15 -2.67987,-5.6898 -5.86556,-11.26059 -10,-16 -3.42284,-3.92368 -7.49899,-7.38237 -12,-10 -4.92387,-2.86355 -10.53976,-4.3782 -16,-6 -5.89196,-1.75002 -12.38647,-1.49679 -18,-4 -5.23772,-2.33563 -10.41745,-14.47819 -14,-10 l -8,10 c -4.24711,5.30889 -13.48316,2.06273 -20,4 -6.88255,2.04598 -14.50745,3.37534 -20,8 -7.78436,6.55433 -12.8813,16.31345 -16,26 -2.86766,8.90685 -6.63247,19.87007 -2,28 2.95205,5.18082 10.19666,6.63002 16,8 9.08366,2.14436 19.11191,2.84832 28,0 5.4613,-1.75016 12.71716,-4.41044 14,-10 1.86856,-8.14164 -19.5951,-21.6962 -12,-22 l 50,-2 c 8.53068,-0.34123 -11.89399,10.78968 -12,18 -0.0925,6.28864 4.63055,12.72516 10,16 6.8536,4.18003 16.02933,2.95548 24,2 6.2796,-0.75276 13.67422,-1.38615 18,-6 z"
       id="path23700-6"
       sodipodi:nodetypes="cssscccccccccccccccccccccccccccccccccassccccaaaaaaassaaaaaaassaaaa" /><path
       style="display:inline;fill:#212221;stroke-linejoin:round"
       d="m 94,288 c 6.48999,2.41543 20.3842,16.98934 24,22 4.66018,6.0726 15.02517,28.47644 10,32 -4.22747,-9.59835 -8.37374,-19.99829 -14,-28 -2.79736,-4.34875 -21.417715,-24.11951 -20,-26 z"
       id="path31980"
       sodipodi:nodetypes="ccccc" /><path
       style="fill:#212221;stroke-linejoin:round"
       d="m 156,300 c 1.84776,-0.76537 4.94854,-1.7013 6,0 -1.95763,3.80331 -7.74331,16.2857 -14,24 -1.37445,4.12448 -3.81609,11.872 -8,20 -1.48783,-0.0926 -1.76121,-2.52854 -2,-4 -0.19317,-7.1669 1.48795,-13.89964 4,-20 3.35328,-7.16908 7.01791,-16.91875 14,-20 z"
       id="path31982"
       sodipodi:nodetypes="ccccccc" /><path
       style="fill:#212221;stroke-linejoin:round"
       d="m 362,350 c 1.47146,-0.23879 1.6575,-2.54917 2,-4 2.14436,-9.08366 2.14436,-18.91634 0,-28 -1.02749,-4.3525 -3.58973,-8.23296 -6,-12 -2.30066,-3.59572 -4.57168,-7.45661 -8,-10 -2.88329,-2.13904 -10,-6.74874 -10,-4 v 6 c 0,3.77124 3.81599,5.48182 6,8 2.47092,2.849 6.0875,4.74968 8,8 2.4613,4.18301 3.32683,9.19351 4,14 0.46234,3.30111 0.36567,8.31182 0,10 -0.44629,2.0604 -1.02049,5.53632 0,8 0.72159,1.74208 2.13873,4.30204 4,4 z"
       id="path31984"
       sodipodi:nodetypes="aaaaassaaasaa" /><path
       style="fill:#212221;stroke-linejoin:round"
       d="m 422,272 c -10.93266,7.70729 -21.44003,15.05755 -31.49292,22.66657 -2.97347,2.27489 -6.09553,4.46968 -8.50708,7.33343 -2.50393,2.97345 -6,6.11269 -6,10 v 18 c 0,1.88561 2.18958,4.5272 4,4 5.90125,-1.71845 1.34479,-12.45675 4,-18 1.84408,-3.84988 5.09007,-6.87677 8,-10 8.04012,-8.62946 19.3117,-14.28518 26,-24 2.03584,-2.95707 7.37224,-11.23162 4,-10 z"
       id="path31986"
       sodipodi:nodetypes="ccassaaaac" /></g></svg>
