<?xml version="1.0" encoding="UTF-8" standalone="no"?>
<!-- Created with Inkscape (http://www.inkscape.org/) -->

<svg
   width="512px"
   height="512px"
   viewBox="0 0 512 512"
   version="1.1"
   id="SVGRoot"
   sodipodi:docname="Count Dooku (The Clone Wars) Beard.svg"
   xml:space="preserve"
   inkscape:version="1.2.2 (b0a8486541, 2022-12-01)"
   xmlns:inkscape="http://www.inkscape.org/namespaces/inkscape"
   xmlns:sodipodi="http://sodipodi.sourceforge.net/DTD/sodipodi-0.dtd"
   xmlns="http://www.w3.org/2000/svg"
   xmlns:svg="http://www.w3.org/2000/svg"><sodipodi:namedview
     id="namedview31631"
     pagecolor="#ffffff"
     bordercolor="#000000"
     borderopacity="0.25"
     inkscape:showpageshadow="2"
     inkscape:pageopacity="0.0"
     inkscape:pagecheckerboard="0"
     inkscape:deskcolor="#d1d1d1"
     inkscape:document-units="px"
     showgrid="false"
     inkscape:zoom="2"
     inkscape:cx="229"
     inkscape:cy="355"
     inkscape:window-width="1912"
     inkscape:window-height="1011"
     inkscape:window-x="1924"
     inkscape:window-y="28"
     inkscape:window-maximized="0"
     inkscape:current-layer="layer1"
     showguides="false" /><defs
     id="defs31626" /><g
     inkscape:label="Layer 1"
     inkscape:groupmode="layer"
     id="layer1"><path
       style="fill:#a8a8a0;fill-opacity:1;fill-rule:nonzero;stroke:none;stroke-width:0.618086;stroke-opacity:1"
       d="m 32,124 c 0,-28.411656 38.791085,45.06992 44,73 3.536609,18.96321 -9.433004,37.71815 -10.000001,57 -0.51286,17.4408 1.022949,35.27656 6.000001,52 4.252183,14.2878 5.628657,36.03935 20,40 19.07657,5.25738 33.18098,-21.57522 50,-32 13.21637,-8.19178 25.71921,-17.84883 40,-24 15.89581,-6.84681 32.7244,-15.05323 50,-14 8.6506,0.5274 15.33333,10 24,10 8.66667,0 15.3494,-9.4726 24,-10 17.2756,-1.05323 34.10419,7.15319 50,14 14.28079,6.15117 26.48437,16.31199 40,24 17.11177,9.73359 33.16385,33.72321 52,28 12.26972,-3.72806 14.22534,-21.74454 18,-34 5.33096,-17.30841 6.7852,-35.90626 6,-54 -0.7369,-16.98075 -12.67609,-33.21526 -10,-50 4.70004,-29.47916 44,-107.851484 44,-78 v 278 c 0,9.6148 -8.8436,16.4315 -16,22 -11.33359,8.81884 -26.2349,11.90804 -40,16 -13.03368,3.87453 -26.54617,6.02941 -40,8 -42.40134,6.21054 -85.14624,12 -128,12 -42.85376,0 -85.46052,-6.81954 -128,-12 -13.38362,-1.62986 -26.98708,-2.47274 -40,-6 -13.860287,-3.75695 -28.666407,-7.18116 -40,-16 -7.156398,-5.5685 -16,-11.82377 -16,-22 z m 290,254 c 12.2219,-0.26378 30.81149,4.06905 36,-7 8.23116,-17.56016 -12.84117,-38.90368 -28,-51 -7.58725,-6.05441 -18.56646,-5.71296 -28,-8 -6.60729,-1.60185 -13.30517,-2.81614 -20,-4 -8.63467,-1.52688 -17.23137,-4 -26,-4 -8.76863,0 -17.36533,2.47312 -26,4 -6.69483,1.18386 -13.39271,2.39815 -20,4 -9.43354,2.28704 -21.13625,1.13625 -28,8 -13.72751,13.72751 -27.20147,40.1439 -16,56 6.16657,8.72901 21.3327,2.65649 32,2 10.83205,-0.66663 21.37707,-3.77937 32,-6 8.70625,-1.81996 17.10556,-6 26,-6 8.89444,0 17.26202,4.33904 26,6 13.24533,2.51774 26.52064,6.29092 40,6 z"
       id="path23700-6"
       sodipodi:nodetypes="saaaaaaaaaaaaaaassaaaaaaassaaaaaaaaaaaaaaa" /><path
       style="fill:none;fill-opacity:0.5;stroke:#63635a;stroke-width:5;stroke-linecap:round;stroke-linejoin:round;stroke-dasharray:none;stroke-opacity:1"
       d="m 32,120 v 286 c 0,10.17623 8.542786,16.8413 16,22 22.744751,15.7342 52.79478,17.02357 80,22 42.15431,7.71094 85.14624,12 128,12 42.85376,0 85.93752,-3.8029 128,-12 27.32675,-5.32541 57.28816,-7.89772 80,-24 7.39716,-5.24445 16,-12.3852 16,-22 V 122"
       id="path35312"
       sodipodi:nodetypes="csaaaaasc" /><path
       style="fill:none;fill-opacity:0.5;stroke:#63635a;stroke-width:2.5;stroke-linecap:round;stroke-linejoin:round;stroke-dasharray:none;stroke-opacity:1"
       d="M 74,206 32,184"
       id="path35629"
       sodipodi:nodetypes="cc" /><path
       style="fill:none;fill-opacity:0.5;stroke:#63635a;stroke-width:2.5;stroke-linecap:round;stroke-linejoin:round;stroke-dasharray:none;stroke-opacity:1"
       d="M 64,248 32,228"
       id="path35631"
       sodipodi:nodetypes="cc" /><path
       style="fill:none;fill-opacity:0.5;stroke:#63635a;stroke-width:2.5;stroke-linecap:round;stroke-linejoin:round;stroke-dasharray:none;stroke-opacity:1"
       d="m 32,284 32,-8"
       id="path35633"
       sodipodi:nodetypes="cc" /><path
       style="fill:none;fill-opacity:0.5;stroke:#63635a;stroke-width:2.5;stroke-linecap:round;stroke-linejoin:round;stroke-dasharray:none;stroke-opacity:1"
       d="M 32,332 70,310"
       id="path35635"
       sodipodi:nodetypes="cc" /><path
       style="fill:none;fill-opacity:0.5;stroke:#63635a;stroke-width:5;stroke-linecap:round;stroke-linejoin:round;stroke-dasharray:none;stroke-opacity:1"
       d="M 32,400 78,338"
       id="path35637"
       sodipodi:nodetypes="cc" /><path
       style="fill:none;fill-opacity:0.5;stroke:#63635a;stroke-width:5;stroke-linecap:round;stroke-linejoin:round;stroke-dasharray:none;stroke-opacity:1"
       d="M 60,434 94,350"
       id="path35639"
       sodipodi:nodetypes="cc" /><path
       style="fill:none;fill-opacity:0.5;stroke:#63635a;stroke-width:5;stroke-linecap:round;stroke-linejoin:round;stroke-dasharray:none;stroke-opacity:1"
       d="M 90,442 134,324"
       id="path35641"
       sodipodi:nodetypes="cc" /><path
       style="fill:#a8a8a0;fill-opacity:0.5;stroke:#63635a;stroke-width:5;stroke-linecap:round;stroke-linejoin:round;stroke-dasharray:none;stroke-opacity:1"
       d="m 170,456 14,-72"
       id="path35657"
       sodipodi:nodetypes="cc" /><path
       style="fill:#a8a8a0;fill-opacity:0.5;stroke:#63635a;stroke-width:5;stroke-linecap:round;stroke-linejoin:round;stroke-dasharray:none;stroke-opacity:1"
       d="m 214,460 6,-82"
       id="path35659"
       sodipodi:nodetypes="cc" /><path
       style="fill:#a8a8a0;fill-opacity:0.5;stroke:#63635a;stroke-width:5;stroke-linecap:round;stroke-linejoin:round;stroke-dasharray:none;stroke-opacity:1"
       d="M 256,462 V 370"
       id="path35661"
       sodipodi:nodetypes="cc" /><path
       style="fill:none;fill-opacity:0.5;stroke:#63635a;stroke-width:2.5;stroke-linecap:round;stroke-linejoin:round;stroke-dasharray:none;stroke-opacity:1"
       d="m 438,206 42,-22"
       id="path35663"
       sodipodi:nodetypes="cc" /><path
       style="fill:none;fill-opacity:0.5;stroke:#63635a;stroke-width:2.5;stroke-linecap:round;stroke-linejoin:round;stroke-dasharray:none;stroke-opacity:1"
       d="m 448,248 32,-20"
       id="path35665"
       sodipodi:nodetypes="cc" /><path
       style="fill:none;fill-opacity:0.5;stroke:#63635a;stroke-width:2.5;stroke-linecap:round;stroke-linejoin:round;stroke-dasharray:none;stroke-opacity:1"
       d="M 480,332 442,310"
       id="path35667"
       sodipodi:nodetypes="cc" /><path
       style="fill:none;fill-opacity:0.5;stroke:#63635a;stroke-width:5;stroke-linecap:round;stroke-linejoin:round;stroke-dasharray:none;stroke-opacity:1"
       d="M 480,400 434,336"
       id="path35669"
       sodipodi:nodetypes="cc" /><path
       style="fill:none;fill-opacity:0.5;stroke:#63635a;stroke-width:5;stroke-linecap:round;stroke-linejoin:round;stroke-dasharray:none;stroke-opacity:1"
       d="M 452,432 418,346"
       id="path35671"
       sodipodi:nodetypes="cc" /><path
       style="fill:none;fill-opacity:0.5;stroke:#63635a;stroke-width:5;stroke-linecap:round;stroke-linejoin:round;stroke-dasharray:none;stroke-opacity:1"
       d="M 422,442 378,324"
       id="path35673"
       sodipodi:nodetypes="cc" /><path
       style="fill:none;fill-opacity:0.5;stroke:#63635a;stroke-width:2.5;stroke-linecap:round;stroke-linejoin:round;stroke-dasharray:none;stroke-opacity:1"
       d="m 480,284 -32,-8"
       id="path35675"
       sodipodi:nodetypes="cc" /><path
       style="fill:#a8a8a0;fill-opacity:0.5;stroke:#63635a;stroke-width:5;stroke-linecap:round;stroke-linejoin:round;stroke-dasharray:none;stroke-opacity:1"
       d="M 344,456 330,382"
       id="path35681"
       sodipodi:nodetypes="cc" /><path
       style="fill:#a8a8a0;fill-opacity:0.5;stroke:#63635a;stroke-width:5;stroke-linecap:round;stroke-linejoin:round;stroke-dasharray:none;stroke-opacity:1"
       d="m 300,460 -6,-82"
       id="path35683"
       sodipodi:nodetypes="cc" /><path
       style="fill:none;fill-opacity:0.5;stroke:#63635a;stroke-width:7.5;stroke-linecap:round;stroke-linejoin:round;stroke-dasharray:none;stroke-opacity:1"
       d="m 132,448 4,-40 20,-36 v -16"
       id="path36411"
       sodipodi:nodetypes="cccc" /><path
       style="fill:none;fill-opacity:0.5;stroke:#63635a;stroke-width:5;stroke-linecap:round;stroke-linejoin:round;stroke-dasharray:none;stroke-opacity:1"
       d="m 172,298 -16,56"
       id="path36413"
       sodipodi:nodetypes="cc" /><path
       style="fill:none;fill-opacity:0.5;stroke:#63635a;stroke-width:7.5;stroke-linecap:round;stroke-linejoin:round;stroke-dasharray:none;stroke-opacity:1"
       d="m 388.75,446 -4,-38 -20,-36 v -16"
       id="path36415"
       sodipodi:nodetypes="cccc" /><path
       style="fill:none;fill-opacity:0.5;stroke:#63635a;stroke-width:5;stroke-linecap:round;stroke-linejoin:round;stroke-dasharray:none;stroke-opacity:1"
       d="m 348.75,304 16,50"
       id="path36417"
       sodipodi:nodetypes="cc" /><path
       style="fill:none;fill-opacity:0.5;stroke:#63635a;stroke-width:2.5;stroke-linecap:round;stroke-linejoin:round;stroke-dasharray:none;stroke-opacity:1"
       d="m 196,312 4,-28"
       id="path36419"
       sodipodi:nodetypes="cc" /><path
       style="fill:none;fill-opacity:0.5;stroke:#63635a;stroke-width:2.5;stroke-linecap:round;stroke-linejoin:round;stroke-dasharray:none;stroke-opacity:1"
       d="m 228,306 4,-28"
       id="path37147"
       sodipodi:nodetypes="cc" /><path
       style="fill:none;fill-opacity:0.5;stroke:#63635a;stroke-width:2.5;stroke-linecap:round;stroke-linejoin:round;stroke-dasharray:none;stroke-opacity:1"
       d="M 256,302 V 288"
       id="path37149"
       sodipodi:nodetypes="cc" /><path
       style="fill:none;fill-opacity:0.5;stroke:#63635a;stroke-width:2.5;stroke-linecap:round;stroke-linejoin:round;stroke-dasharray:none;stroke-opacity:1"
       d="m 316,312 -4,-28"
       id="path37151"
       sodipodi:nodetypes="cc" /><path
       style="fill:none;fill-opacity:0.5;stroke:#63635a;stroke-width:2.5;stroke-linecap:round;stroke-linejoin:round;stroke-dasharray:none;stroke-opacity:1"
       d="m 284,306 -4,-28"
       id="path37153"
       sodipodi:nodetypes="cc" /></g></svg>
