<?xml version="1.0" encoding="UTF-8" standalone="no"?>
<!-- Created with Inkscape (http://www.inkscape.org/) -->

<svg
   width="512"
   height="384"
   viewBox="0 0 512 384"
   version="1.1"
   id="svg5"
   inkscape:version="1.4 (e7c3feb100, 2024-10-09)"
   sodipodi:docname="Eyes and Eyebrows Count Dooku.svg"
   xml:space="preserve"
   xmlns:inkscape="http://www.inkscape.org/namespaces/inkscape"
   xmlns:sodipodi="http://sodipodi.sourceforge.net/DTD/sodipodi-0.dtd"
   xmlns="http://www.w3.org/2000/svg"
   xmlns:svg="http://www.w3.org/2000/svg"><sodipodi:namedview
     id="namedview7"
     pagecolor="#ffffff"
     bordercolor="#666666"
     borderopacity="1.0"
     inkscape:pageshadow="2"
     inkscape:pageopacity="0.0"
     inkscape:pagecheckerboard="0"
     inkscape:document-units="px"
     showgrid="false"
     height="384px"
     inkscape:zoom="1.4142136"
     inkscape:cx="272.94322"
     inkscape:cy="185.61553"
     inkscape:window-width="1920"
     inkscape:window-height="992"
     inkscape:window-x="1920"
     inkscape:window-y="0"
     inkscape:window-maximized="1"
     inkscape:current-layer="layer1"
     inkscape:showpageshadow="2"
     inkscape:deskcolor="#d1d1d1" /><defs
     id="defs2" /><g
     inkscape:label="Layer 1"
     inkscape:groupmode="layer"
     id="layer1"><path
       id="path152"
       style="display:inline;fill:#212321;fill-opacity:1;stroke:none;stroke-width:7.99999;stroke-linecap:square;stroke-linejoin:round;stroke-dasharray:none;stroke-opacity:1"
       d="M 137.92578,160.74609 C 131.72201,160.68271 125.54327,161.7039 120,164 c -8.71041,3.60797 -18.10433,10.76446 -20,20 -0.721848,3.51679 1.29534,7.63913 4,10 2.0708,1.80758 8,2 8,2 l 4,24 c 3.6318,21.79081 14.32689,40 32,40 17.67311,0 26.64205,-18.5682 32,-40 l 4,-16 8,4 c 0,0 -6.44677,-16.98848 -12,-24 -6.46553,-8.1634 -14.20834,-16.45492 -24,-20 -5.64162,-2.04255 -11.87045,-3.19052 -18.07422,-3.25391 z"
       sodipodi:nodetypes="sssscsssccsss" /><path
       id="path155"
       style="display:inline;fill:#212321;fill-opacity:1;stroke:none;stroke-width:7.99999;stroke-linecap:square;stroke-linejoin:round;stroke-dasharray:none;stroke-opacity:1"
       d="M 356.07422,160.74609 C 349.87045,160.80948 343.64162,161.95745 338,164 c -9.79167,3.54508 -17.53447,11.83661 -24,20 -5.55323,7.01153 -12,24 -12,24 l 8,-4 4,16 c 5.35795,21.4318 14.32689,40 32,40 17.67311,0 28.3682,-18.20919 32,-40 l 4,-24 c 0,0 5.9292,-0.1924 8,-2 2.70466,-2.36088 4.72184,-6.4832 4,-10 -1.89566,-9.23553 -11.28959,-16.39202 -20,-20 -5.54327,-2.2961 -11.72201,-3.31729 -17.92578,-3.25391 z"
       sodipodi:nodetypes="sssccssscssss" /><path
       style="fill:#212321;fill-opacity:1;stroke-width:4;stroke-linecap:square;stroke-linejoin:round"
       d="m 336,260 c 0,0 28.02109,35.08186 48,36 10.1655,0.46716 20.45859,-7.46488 26,-16 5.49364,-8.46154 9.02912,-21.25439 4,-30 -2.59396,-4.51088 -14.41144,-6 -14.41144,-6 0,0 6.02879,7.48104 6.41144,12 0.53363,6.302 -1.32066,13.74514 -6,18 -6.58071,5.98376 -17.17928,7.14279 -26,6 -14.1953,-1.8391 -38,-20 -38,-20 z"
       id="path1"
       sodipodi:nodetypes="caaacaaac" /><path
       style="fill:#212321;fill-opacity:1;stroke-width:4;stroke-linecap:square;stroke-linejoin:round"
       d="m 158,260 c 0,0 -28.02109,35.08186 -48,36 -10.165496,0.46716 -20.458588,-7.46488 -26,-16 -5.49364,-8.46154 -9.029117,-21.25439 -4,-30 2.593956,-4.51088 14.41144,-6 14.41144,-6 0,0 -6.028793,7.48104 -6.41144,12 -0.533627,6.302 1.320664,13.74514 6,18 6.58071,5.98376 17.17928,7.14279 26,6 14.1953,-1.8391 38,-20 38,-20 z"
       id="path2"
       sodipodi:nodetypes="caaacaaac" /><path
       style="fill:#a8a8a0;fill-opacity:1;stroke-width:4;stroke-linecap:square;stroke-linejoin:round"
       d="m 60,140 c 0,0 25.908497,-14.10034 40,-18 10.99812,-3.0436 22.59336,-3.6671 34,-4 11.34809,-0.33119 23.47256,-2.24992 34,2 11.39891,4.60173 28,24 28,24 0,0 10.07426,-6.68102 12,-12 2.50675,-6.92376 0.28513,-14.99997 -2,-22 -1.20634,-3.69538 -3.31743,-7.18665 -6,-10 -3.31752,-3.47925 -7.39887,-6.60689 -12,-8 -15.95153,-4.829736 -33.35884,-0.921673 -50,0 -18.08306,1.00153 -37.6767,-1.845382 -54,6 -8.497568,4.08414 -15.62436,11.64879 -20,20 -3.459247,6.60221 -4,22 -4,22 z"
       id="path3"
       sodipodi:nodetypes="caaacaaaaaaac" /><path
       style="fill:#a8a8a0;fill-opacity:1;stroke-width:4;stroke-linecap:square;stroke-linejoin:round"
       d="m 434,140 c 0,0 -30.28936,-11.90959 -46,-16 -11.13716,-2.89966 -22.50967,-5.35441 -34,-6 -10.67065,-0.59954 -22.03029,-1.8506 -32,2 -11.94618,4.61398 -30,24 -30,24 0,0 -10.31331,-6.60046 -12,-12 -2.22241,-7.11452 1.37335,-15.0246 4,-22 1.36989,-3.63793 3.1478,-7.35877 6,-10 3.28131,-3.03859 7.6475,-4.97251 12,-6 15.57198,-3.676047 32.00886,-0.53245 48,0 20.03329,0.66704 41.74691,-4.28267 60,4 8.58553,3.89584 15.62436,11.64879 20,20 3.45925,6.60221 4,22 4,22 z"
       id="path4"
       sodipodi:nodetypes="caaacaaaaaaac" /></g></svg>
