<?xml version="1.0" encoding="UTF-8" standalone="no"?>
<!-- Created with Inkscape (http://www.inkscape.org/) -->

<svg
   version="1.1"
   id="svg3457"
   width="512"
   height="512"
   viewBox="0 0 512 512"
   sodipodi:docname="Face Chancellor Palpatine.svg"
   xml:space="preserve"
   inkscape:version="1.3.2 (091e20ef0f, 2023-11-25)"
   xmlns:inkscape="http://www.inkscape.org/namespaces/inkscape"
   xmlns:sodipodi="http://sodipodi.sourceforge.net/DTD/sodipodi-0.dtd"
   xmlns="http://www.w3.org/2000/svg"
   xmlns:svg="http://www.w3.org/2000/svg"><defs
     id="defs3461"><clipPath
       clipPathUnits="userSpaceOnUse"
       id="clipPath19508"><g
         inkscape:label="Clip"
         id="use19510"
         style="fill:none;fill-opacity:1;fill-rule:nonzero;stroke:#000000;stroke-opacity:1"><path
           id="path23702"
           style="fill:none;fill-opacity:1;fill-rule:nonzero;stroke:#000000;stroke-opacity:1"
           d="m 364.49755,441.60547 c 6.56925,0.0355 11.9845,-6.70773 18.55356,-6.64621 6.72165,0.063 12.19401,7.19673 18.91299,6.9971 3.5849,-0.10651 6.76052,-4.25684 7.43233,-7.77984 1.41306,-7.41012 5.16868,-19.33292 -1.6446,-22.5711 -7.07323,-3.36172 -15.28336,-5.1787 -23.49332,-5.31446 -8.20996,-0.13576 -16.41975,1.4097 -23.49227,4.77289 -7.17564,3.41222 -2.81491,15.87791 -1.85135,23.7649 0.35492,2.9051 2.65601,6.76089 5.58266,6.77672 z M 278.32893,319.15642 c -2.2098,-0.19295 -5.4791,1.53078 -5.49814,3.74891 l -0.42404,49.41198 c 1.64446,26.00116 8.90298,50.84748 20.36776,70.55482 3.81114,12.27935 20.07817,27.32862 33.27997,27.37629 l 117.68418,0.42487 c 11.27395,0.0407 19.20257,-10.06433 26.60889,-18.56433 10.82544,-12.42403 13.75705,-30.10819 18.0925,-46.00632 3.32297,-12.18537 5.98425,-24.79009 5.95341,-37.4204 l -0.10979,-44.97096 c -0.006,-2.48515 -3.79961,-4.21115 -6.27755,-4.02197 -2.90678,0.22193 -6.65872,2.86761 -6.56236,5.78126 l 0.88366,26.71825 c 0.48221,14.58003 -4.05889,28.95891 -7.7487,43.07255 -0.91322,3.4931 -1.81381,7.06656 -3.545,10.23495 -3.40584,6.2333 -7.71204,12.20958 -13.17775,16.74607 -6.14666,5.10167 -13.61838,13.48816 -21.24003,11.09673 -9.91688,-3.11161 -9.13025,-18.70022 -14.43387,-27.6388 -4.35789,-7.61763 -10.70466,-15.78392 -18.50278,-18.43627 -13.06316,-4.18718 -28.02376,-3.41344 -41.14947,0.57333 -8.64523,2.89144 -13.13803,10.43955 -17.06648,17.40227 -4.99239,8.80057 -3.78026,23.73129 -13.24321,27.31271 -6.81257,2.57833 -14.03538,-4.48609 -20.16378,-8.4233 -5.02526,-3.22849 -9.38792,-7.53165 -13.15504,-12.16687 -4.9555,-5.73652 -6.88338,-11.94882 -8.20054,-18.68122 -2.03713,-10.24138 -4.71712,-20.46381 -5.1738,-30.89584 l -1.65593,-37.82635 c -0.11283,-2.57738 -2.97204,-5.17795 -5.54211,-5.40236 z" /></g></clipPath></defs><sodipodi:namedview
     id="namedview3459"
     pagecolor="#ffffff"
     bordercolor="#000000"
     borderopacity="0.25"
     inkscape:showpageshadow="2"
     inkscape:pageopacity="0.0"
     inkscape:pagecheckerboard="0"
     inkscape:deskcolor="#d1d1d1"
     showgrid="false"
     inkscape:zoom="1.3195079"
     inkscape:cx="216.36854"
     inkscape:cy="292.91222"
     inkscape:window-width="1920"
     inkscape:window-height="980"
     inkscape:window-x="0"
     inkscape:window-y="0"
     inkscape:window-maximized="1"
     inkscape:current-layer="g3463"
     showguides="false"
     inkscape:pageshadow="2" /><g
     inkscape:groupmode="layer"
     inkscape:label="Image"
     id="g3463"><path
       style="display:inline;fill:none;fill-opacity:1;stroke:#212221;stroke-width:14;stroke-linecap:round;stroke-linejoin:round;stroke-dasharray:none;stroke-opacity:1"
       d="m 188,352 c 0,0 17.84416,11.60253 28,14 20.11381,4.74823 41.96041,5.05233 62,0 9.54455,-2.40635 26,-14 26,-14"
       id="path7"
       sodipodi:nodetypes="caac" /><path
       style="fill:#212221;fill-opacity:1;stroke:none;stroke-width:5;stroke-linecap:round;stroke-linejoin:round;stroke-dasharray:none;stroke-opacity:1"
       d="m 203.5,244.25 c 0,0 8.41155,-3.67347 8.75,-7.5 0.52176,-5.89893 -6.49978,-10.21378 -11.25,-13.75 -4.34491,-3.2345 -9.58333,-6.25 -15,-6.25 h -20 c -7.12,0 -15.94449,1.64788 -20,7.5 -3.0853,4.4521 -2.66878,11.53642 0,16.25 1.19703,2.11421 6.25,3.75 6.25,3.75 z"
       id="path1-5"
       sodipodi:nodetypes="caassaacc" /><circle
       style="fill:#212221;fill-opacity:1;stroke:none;stroke-width:5;stroke-dasharray:none;stroke-opacity:1"
       id="path4547-3"
       cy="244.875"
       cx="177.875"
       r="25.625" /><path
       style="fill:none;stroke:#de8c5f;stroke-width:7.99999;stroke-linecap:round;stroke-linejoin:round;stroke-dasharray:none;stroke-opacity:1"
       d="m 210,405 c 0,0 22.95379,-9 35,-9 12.0462,0 35,9 35,9"
       id="path5-5"
       sodipodi:nodetypes="cac" /><path
       style="display:inline;fill:none;stroke:#d6ba84;stroke-width:15.6525;stroke-linecap:round;stroke-linejoin:round;stroke-dasharray:none;stroke-opacity:1"
       d="m 126.5,168 c 0,0 14.0424,-9.50598 22.5,-12 3.71579,-1.09574 7.83878,-1.20816 11.79751,-1.12181 6.93622,0.15128 13.85242,1.28927 20.50629,2.86366 C 194.833,160.94303 220.25,171 220.25,171"
       id="path6"
       sodipodi:nodetypes="caaac" /><path
       style="display:inline;fill:none;stroke:#d6ba84;stroke-width:15.6525;stroke-linecap:round;stroke-linejoin:round;stroke-dasharray:none;stroke-opacity:1"
       d="m 370.25,168 c 0,0 -14.0424,-9.50598 -22.5,-12 -3.71578,-1.09574 -7.8388,-1.20816 -11.79752,-1.12181 -6.93621,0.15128 -13.85242,1.28927 -20.50628,2.86366 C 301.917,160.94303 276.5,171 276.5,171"
       id="path8"
       sodipodi:nodetypes="caaac" /><path
       style="fill:#212221;fill-opacity:1;stroke:none;stroke-width:5;stroke-linecap:round;stroke-linejoin:round;stroke-dasharray:none;stroke-opacity:1"
       d="m 292.5,244.25 c 0,0 -8.41155,-3.67347 -8.75,-7.5 -0.52176,-5.89893 6.49978,-10.21378 11.25,-13.75 4.34491,-3.2345 9.58333,-6.25 15,-6.25 h 20 c 7.12,0 15.94449,1.64788 20,7.5 3.0853,4.4521 2.66878,11.53642 0,16.25 -1.19703,2.11421 -6.25,3.75 -6.25,3.75 z"
       id="path2"
       sodipodi:nodetypes="caassaacc" /><circle
       style="fill:#212221;fill-opacity:1;stroke:none;stroke-width:5;stroke-dasharray:none;stroke-opacity:1"
       id="circle2"
       cy="244.875"
       cx="-318.125"
       r="25.625"
       transform="scale(-1,1)" /></g></svg>
