<?xml version="1.0" encoding="UTF-8" standalone="no"?>
<!-- Created with Inkscape (http://www.inkscape.org/) -->

<svg
   version="1.1"
   id="svg3457"
   width="512"
   height="512"
   viewBox="0 0 512 512"
   sodipodi:docname="Face Kylo Ren.svg"
   xml:space="preserve"
   inkscape:version="1.4 (e7c3feb100, 2024-10-09)"
   xmlns:inkscape="http://www.inkscape.org/namespaces/inkscape"
   xmlns:sodipodi="http://sodipodi.sourceforge.net/DTD/sodipodi-0.dtd"
   xmlns:xlink="http://www.w3.org/1999/xlink"
   xmlns="http://www.w3.org/2000/svg"
   xmlns:svg="http://www.w3.org/2000/svg"><defs
     id="defs3461"><linearGradient
       inkscape:collect="always"
       id="linearGradient4563"><stop
         style="stop-color:#212221;stop-opacity:1;"
         offset="0"
         id="stop4559" /><stop
         style="stop-color:#212221;stop-opacity:0;"
         offset="1"
         id="stop4561" /></linearGradient><linearGradient
       inkscape:collect="always"
       xlink:href="#linearGradient4563"
       id="linearGradient4565"
       x1="307.20004"
       y1="180.45972"
       x2="307.31732"
       y2="153.02477"
       gradientUnits="userSpaceOnUse"
       gradientTransform="matrix(1.007874,0,0,1,-2.019685,0)" /><clipPath
       clipPathUnits="userSpaceOnUse"
       id="clipPath19508"><g
         inkscape:label="Clip"
         id="use19510"
         style="fill:none;fill-opacity:1;fill-rule:nonzero;stroke:#000000;stroke-opacity:1"><path
           id="path23702"
           style="fill:none;fill-opacity:1;fill-rule:nonzero;stroke:#000000;stroke-opacity:1"
           d="m 364.49755,441.60547 c 6.56925,0.0355 11.9845,-6.70773 18.55356,-6.64621 6.72165,0.063 12.19401,7.19673 18.91299,6.9971 3.5849,-0.10651 6.76052,-4.25684 7.43233,-7.77984 1.41306,-7.41012 5.16868,-19.33292 -1.6446,-22.5711 -7.07323,-3.36172 -15.28336,-5.1787 -23.49332,-5.31446 -8.20996,-0.13576 -16.41975,1.4097 -23.49227,4.77289 -7.17564,3.41222 -2.81491,15.87791 -1.85135,23.7649 0.35492,2.9051 2.65601,6.76089 5.58266,6.77672 z M 278.32893,319.15642 c -2.2098,-0.19295 -5.4791,1.53078 -5.49814,3.74891 l -0.42404,49.41198 c 1.64446,26.00116 8.90298,50.84748 20.36776,70.55482 3.81114,12.27935 20.07817,27.32862 33.27997,27.37629 l 117.68418,0.42487 c 11.27395,0.0407 19.20257,-10.06433 26.60889,-18.56433 10.82544,-12.42403 13.75705,-30.10819 18.0925,-46.00632 3.32297,-12.18537 5.98425,-24.79009 5.95341,-37.4204 l -0.10979,-44.97096 c -0.006,-2.48515 -3.79961,-4.21115 -6.27755,-4.02197 -2.90678,0.22193 -6.65872,2.86761 -6.56236,5.78126 l 0.88366,26.71825 c 0.48221,14.58003 -4.05889,28.95891 -7.7487,43.07255 -0.91322,3.4931 -1.81381,7.06656 -3.545,10.23495 -3.40584,6.2333 -7.71204,12.20958 -13.17775,16.74607 -6.14666,5.10167 -13.61838,13.48816 -21.24003,11.09673 -9.91688,-3.11161 -9.13025,-18.70022 -14.43387,-27.6388 -4.35789,-7.61763 -10.70466,-15.78392 -18.50278,-18.43627 -13.06316,-4.18718 -28.02376,-3.41344 -41.14947,0.57333 -8.64523,2.89144 -13.13803,10.43955 -17.06648,17.40227 -4.99239,8.80057 -3.78026,23.73129 -13.24321,27.31271 -6.81257,2.57833 -14.03538,-4.48609 -20.16378,-8.4233 -5.02526,-3.22849 -9.38792,-7.53165 -13.15504,-12.16687 -4.9555,-5.73652 -6.88338,-11.94882 -8.20054,-18.68122 -2.03713,-10.24138 -4.71712,-20.46381 -5.1738,-30.89584 l -1.65593,-37.82635 c -0.11283,-2.57738 -2.97204,-5.17795 -5.54211,-5.40236 z" /></g></clipPath></defs><sodipodi:namedview
     id="namedview3459"
     pagecolor="#ffffff"
     bordercolor="#000000"
     borderopacity="0.25"
     inkscape:showpageshadow="2"
     inkscape:pageopacity="0.0"
     inkscape:pagecheckerboard="0"
     inkscape:deskcolor="#d1d1d1"
     showgrid="false"
     inkscape:zoom="1.3195079"
     inkscape:cx="299.35402"
     inkscape:cy="264.87147"
     inkscape:window-width="1920"
     inkscape:window-height="992"
     inkscape:window-x="1920"
     inkscape:window-y="0"
     inkscape:window-maximized="1"
     inkscape:current-layer="g3463"
     showguides="true" /><g
     inkscape:groupmode="layer"
     inkscape:label="Image"
     id="g3463"><path
       style="fill:#212321;fill-opacity:1;stroke-width:0.174847"
       d="M 50,83 C 50,83 55.692755,67.021818 62,62 72.827752,53.378962 87.910049,50.135135 101.75,50 146.15016,49.566472 230,86 230,86 230,86 156.8175,75.834159 120,76 96.550528,76.105626 50,83 50,83 Z"
       id="path4225"
       sodipodi:nodetypes="caacac" /><path
       style="fill:#918a6f;fill-opacity:1;stroke-width:0.029123"
       d=""
       id="path4216" /><circle
       style="fill:#212221;fill-opacity:1;stroke-width:1.00805"
       id="path4547"
       cy="384"
       cx="130"
       r="80" /><rect
       style="fill:url(#linearGradient4565);fill-opacity:1;stroke-width:1.1237"
       id="rect4549"
       width="128"
       height="125"
       x="256.5"
       y="130" /><path
       style="fill:#212321;fill-opacity:1;stroke-width:0.175684"
       d="M 484,82 C 484,82 477.95141,67.002514 472,62 463.47973,54.838208 451.95078,50.652685 440.83951,50 392.46699,47.158557 300,86 300,86 300,86 375.2769,76.069901 413.1358,76 436.84168,75.95623 484,82 484,82 Z"
       id="path11902"
       sodipodi:nodetypes="caacac" /></g></svg>
