<?xml version="1.0" encoding="UTF-8" standalone="no"?>
<!-- Created with Inkscape (http://www.inkscape.org/) -->

<svg
   width="512px"
   height="512px"
   viewBox="0 0 512 512"
   version="1.1"
   id="SVGRoot"
   sodipodi:docname="Legs Front Luke Skywalker (Tatooine).svg"
   inkscape:version="1.1.2 (0a00cf5339, 2022-02-04)"
   xmlns:inkscape="http://www.inkscape.org/namespaces/inkscape"
   xmlns:sodipodi="http://sodipodi.sourceforge.net/DTD/sodipodi-0.dtd"
   xmlns="http://www.w3.org/2000/svg"
   xmlns:svg="http://www.w3.org/2000/svg">
  <sodipodi:namedview
     id="namedview40566"
     pagecolor="#ffffff"
     bordercolor="#666666"
     borderopacity="1.0"
     inkscape:pageshadow="2"
     inkscape:pageopacity="0.0"
     inkscape:pagecheckerboard="0"
     inkscape:document-units="px"
     showgrid="false"
     inkscape:zoom="1.808156"
     inkscape:cx="50.880565"
     inkscape:cy="101.20808"
     inkscape:window-width="1920"
     inkscape:window-height="996"
     inkscape:window-x="1920"
     inkscape:window-y="0"
     inkscape:window-maximized="1"
     inkscape:current-layer="layer1"
     showguides="false" />
  <defs
     id="defs40561" />
  <g
     inkscape:label="Layer 1"
     inkscape:groupmode="layer"
     id="layer1">
    <rect
       style="display:inline;fill:#d6ba84;fill-opacity:1;stroke:none;stroke-width:18.7937;stroke-linecap:round;stroke-linejoin:round"
       id="rect40685"
       width="512"
       height="512"
       x="0"
       y="0" />
    <path
       style="display:inline;fill:#ffffff;stroke:none;stroke-width:1px;stroke-linecap:butt;stroke-linejoin:miter;stroke-opacity:1"
       d="M 0,0 H 512 V 256 H 0 Z"
       id="path6870"
       sodipodi:nodetypes="ccccc" />
    <path
       style="display:inline;fill:#212321;fill-opacity:1;stroke:none;stroke-width:1px;stroke-linecap:butt;stroke-linejoin:miter;stroke-opacity:1"
       d="m 230,336 -130,8 -82,-2 v -20 l 4,-26 -4,-6 v -46 h 208 v 8 l 4,4 z"
       id="path5630"
       sodipodi:nodetypes="ccccccccccc" />
    <path
       style="fill:#212321;fill-opacity:1;stroke:none;stroke-width:1px;stroke-linecap:butt;stroke-linejoin:miter;stroke-opacity:1"
       d="m 26,24 c 0,0 -3.279534,51.315381 -3,77 0.30263,27.80682 0.360393,55.86349 5.061404,83.27173 2.430053,14.16791 6.410821,28.16167 11.877192,41.45654 C 45.759157,239.88457 62,266 62,266 c 1.990811,3.6341 13.81562,-0.4883 11.743543,-4.07669 0,0 -15.249215,-23.23434 -20.743543,-35.92331 -5.949941,-13.74119 -10.365199,-28.25958 -13,-43 -4.87699,-27.28438 -4.348561,-55.29083 -5,-83 -0.595471,-25.328527 1,-76 1,-76 0.04386,-3.333045 -9.870228,-3.330806 -10,0 z"
       id="path7478"
       sodipodi:nodetypes="saaassaaass" />
    <path
       style="display:inline;fill:#d6ba84;fill-opacity:1;stroke:none;stroke-width:1px;stroke-linecap:butt;stroke-linejoin:miter;stroke-opacity:1"
       d="m 24,336 v -12 l 74,14 z"
       id="path6166"
       sodipodi:nodetypes="cccc" />
    <path
       style="display:inline;fill:#d6ba84;fill-opacity:1;stroke:none;stroke-width:1px;stroke-linecap:butt;stroke-linejoin:miter;stroke-opacity:1"
       d="m 224,330 v -42 l -132,44 17.41521,5.42583 z"
       id="path6779"
       sodipodi:nodetypes="ccccc" />
    <path
       style="display:inline;fill:#d6ba84;fill-opacity:1;stroke:none;stroke-width:1px;stroke-linecap:butt;stroke-linejoin:miter;stroke-opacity:1"
       d="M 24,317.65509 28,298 119.48106,316.40099 82,330 Z"
       id="path7682"
       sodipodi:nodetypes="ccccc" />
    <path
       style="fill:#d6ba84;fill-opacity:1;stroke:none;stroke-width:1px;stroke-linecap:butt;stroke-linejoin:miter;stroke-opacity:1"
       d="M 130,314 94,306 182.40477,276.13781 224,276 Z"
       id="path8725"
       sodipodi:nodetypes="ccccc" />
    <path
       style="fill:#d6ba84;fill-opacity:1;stroke:none;stroke-width:1px;stroke-linecap:butt;stroke-linejoin:miter;stroke-opacity:1"
       d="m 22,276 v 12 l 64,16 38,-14 -18,-14 z"
       id="path9224"
       sodipodi:nodetypes="cccccc" />
    <path
       style="fill:#d6ba84;fill-opacity:1;stroke:none;stroke-width:1px;stroke-linecap:butt;stroke-linejoin:miter;stroke-opacity:1"
       d="M 24,270 H 84 L 24,250 Z"
       id="path9994"
       sodipodi:nodetypes="cccc" />
    <path
       style="fill:#d6ba84;fill-opacity:1;stroke:none;stroke-width:1px;stroke-linecap:butt;stroke-linejoin:miter;stroke-opacity:1"
       d="m 46,250 h 174 v 2 l -46,18 h -64 z"
       id="path10711"
       sodipodi:nodetypes="cccccc" />
    <path
       style="fill:#d6ba84;fill-opacity:1;stroke:none;stroke-width:1px;stroke-linecap:butt;stroke-linejoin:miter;stroke-opacity:1"
       d="m 222,258 -34,12 h 34 z"
       id="path11107"
       sodipodi:nodetypes="cccc" />
    <path
       style="display:inline;fill:#212321;fill-opacity:1;stroke:none;stroke-width:1px;stroke-linecap:butt;stroke-linejoin:miter;stroke-opacity:1"
       d="m 282,336 130,8 82,-2 v -20 l -4,-26 4,-6 V 244 H 286 v 8 l -4,4 z"
       id="path6252"
       sodipodi:nodetypes="ccccccccccc" />
    <path
       style="display:inline;fill:#d6ba84;fill-opacity:1;stroke:none;stroke-width:1px;stroke-linecap:butt;stroke-linejoin:miter;stroke-opacity:1"
       d="m 488,336 v -12 l -74,14 z"
       id="path6254"
       sodipodi:nodetypes="cccc" />
    <path
       style="display:inline;fill:#d6ba84;fill-opacity:1;stroke:none;stroke-width:1px;stroke-linecap:butt;stroke-linejoin:miter;stroke-opacity:1"
       d="m 288,330 v -42 l 132,44 -17.41521,5.42583 z"
       id="path6256"
       sodipodi:nodetypes="ccccc" />
    <path
       style="display:inline;fill:#d6ba84;fill-opacity:1;stroke:none;stroke-width:1px;stroke-linecap:butt;stroke-linejoin:miter;stroke-opacity:1"
       d="M 488,317.65509 484,298 392.51894,316.40099 430,330 Z"
       id="path6258"
       sodipodi:nodetypes="ccccc" />
    <path
       style="fill:#d6ba84;fill-opacity:1;stroke:none;stroke-width:1px;stroke-linecap:butt;stroke-linejoin:miter;stroke-opacity:1"
       d="M 382,314 418,306 329.59523,276.13781 288,276 Z"
       id="path6260"
       sodipodi:nodetypes="ccccc" />
    <path
       style="fill:#d6ba84;fill-opacity:1;stroke:none;stroke-width:1px;stroke-linecap:butt;stroke-linejoin:miter;stroke-opacity:1"
       d="m 490,276 v 12 l -64,16 -38,-14 18,-14 z"
       id="path6262"
       sodipodi:nodetypes="cccccc" />
    <path
       style="fill:#d6ba84;fill-opacity:1;stroke:none;stroke-width:1px;stroke-linecap:butt;stroke-linejoin:miter;stroke-opacity:1"
       d="m 488,270 h -60 l 60,-20 z"
       id="path6264"
       sodipodi:nodetypes="cccc" />
    <path
       style="fill:#d6ba84;fill-opacity:1;stroke:none;stroke-width:1px;stroke-linecap:butt;stroke-linejoin:miter;stroke-opacity:1"
       d="M 466,250 H 292 v 2 l 46,18 h 64 z"
       id="path6266"
       sodipodi:nodetypes="cccccc" />
    <path
       style="fill:#d6ba84;fill-opacity:1;stroke:none;stroke-width:1px;stroke-linecap:butt;stroke-linejoin:miter;stroke-opacity:1"
       d="m 290,258 34,12 h -34 z"
       id="path6268"
       sodipodi:nodetypes="cccc" />
    <path
       style="fill:none;stroke:#a9a8a1;stroke-width:6;stroke-linecap:round;stroke-linejoin:miter;stroke-miterlimit:4;stroke-dasharray:none;stroke-opacity:1"
       d="m 67,221 h 2"
       id="path38645"
       sodipodi:nodetypes="cc" />
    <path
       style="fill:none;stroke:#a9a8a1;stroke-width:6;stroke-linecap:round;stroke-linejoin:miter;stroke-miterlimit:4;stroke-dasharray:none;stroke-opacity:1"
       d="m 55,185 v 4"
       id="path8980"
       sodipodi:nodetypes="cc" />
    <path
       style="fill:none;stroke:#a9a8a1;stroke-width:6;stroke-linecap:round;stroke-linejoin:miter;stroke-miterlimit:4;stroke-dasharray:none;stroke-opacity:1"
       d="m 45,145 v 4"
       id="path9119"
       sodipodi:nodetypes="cc" />
    <path
       style="fill:none;stroke:#a9a8a1;stroke-width:6;stroke-linecap:round;stroke-linejoin:miter;stroke-miterlimit:4;stroke-dasharray:none;stroke-opacity:1"
       d="m 43,99 v 4"
       id="path9121"
       sodipodi:nodetypes="cc" />
    <path
       style="fill:#a9a8a1;fill-opacity:1;stroke:none;stroke-width:1px;stroke-linecap:butt;stroke-linejoin:miter;stroke-opacity:1"
       d="m 83,160 c 0,0 8.504335,-14.77977 15,-20 6.27899,-5.0461 14.20489,-7.96897 22,-10 7.76837,-2.02406 24,-2 24,-2 1.8791,-0.15659 3.17155,2.30612 4,4 1.18072,2.41415 3.68008,7.80148 1,8 l -27,2 c 0,0 14.81682,4.95192 22,8 13.99789,5.9398 41,20 41,20 2.84216,1.38642 0.0679,9.76697 -3,9 0,0 -8.133,-1.5695 -12,-3 -8.3887,-3.10318 -15.88596,-8.23672 -24,-12 -9.21181,-4.27243 -17.9185,-10.78569 -28,-12 -4.02608,-0.48494 -8.26017,0.43216 -12,2 -4.18125,1.7529 -11,8 -11,8 -3.279566,2.38514 -14.433105,1.24414 -12,-2 z"
       id="path10662"
       sodipodi:nodetypes="saasascassaaaass" />
    <path
       style="fill:#a9a8a1;fill-opacity:1;stroke:none;stroke-width:1px;stroke-linecap:butt;stroke-linejoin:miter;stroke-opacity:1"
       d="m 470,133 c 2.01841,-2.31743 -3.777,-9.12196 -6,-7 0,0 -26.24099,32.2159 -44,42 -2.40753,1.3264 -8,2 -8,2 -2.58705,0.64676 -2.66392,7.87891 0,8 0,0 14.7038,1.8089 22,1 7.55488,-0.83757 14.72498,-3.7973 22,-6 4.03545,-1.22184 8.48,-1.67893 12,-4 3.35094,-2.2096 8,-9 8,-9 2.21455,-2.49136 -5.43926,-8.13395 -8,-6 0,0 -7.10416,8.22746 -12,10 -4.07451,1.47518 -13,0 -13,0 z"
       id="path12693"
       sodipodi:nodetypes="ssassaaassacs" />
  </g>
</svg>
