<?xml version="1.0" encoding="UTF-8" standalone="no"?>
<!-- Created with Inkscape (http://www.inkscape.org/) -->

<svg
   width="512"
   height="512"
   viewBox="0 0 512 512"
   version="1.1"
   id="svg1"
   xml:space="preserve"
   inkscape:version="1.3.2 (091e20ef0f, 2023-11-25)"
   sodipodi:docname="Torso Front Death Star Trooper.svg"
   xmlns:inkscape="http://www.inkscape.org/namespaces/inkscape"
   xmlns:sodipodi="http://sodipodi.sourceforge.net/DTD/sodipodi-0.dtd"
   xmlns="http://www.w3.org/2000/svg"
   xmlns:svg="http://www.w3.org/2000/svg"><sodipodi:namedview
     id="namedview1"
     pagecolor="#ffffff"
     bordercolor="#000000"
     borderopacity="0.25"
     inkscape:showpageshadow="2"
     inkscape:pageopacity="0.0"
     inkscape:pagecheckerboard="0"
     inkscape:deskcolor="#d1d1d1"
     inkscape:document-units="px"
     inkscape:zoom="2.2124708"
     inkscape:cx="223.05379"
     inkscape:cy="138.08092"
     inkscape:window-width="1920"
     inkscape:window-height="980"
     inkscape:window-x="1920"
     inkscape:window-y="0"
     inkscape:window-maximized="1"
     inkscape:current-layer="layer1"
     showguides="false" /><defs
     id="defs1" /><g
     inkscape:label="Layer 1"
     inkscape:groupmode="layer"
     id="layer1"><rect
       style="display:inline;fill:#212321;fill-opacity:1;stroke:none;stroke-width:33.3649;stroke-linejoin:round"
       id="rect1"
       width="512"
       height="512"
       x="0"
       y="0" /><path
       style="display:inline;fill:#5f5f63;fill-opacity:1;stroke:none;stroke-width:12;stroke-linejoin:round"
       d="m 39,408 h 442 v 12 H 39 Z"
       id="path1"
       sodipodi:nodetypes="ccccc" /><path
       style="fill:none;fill-opacity:1;stroke:#5f5f63;stroke-width:8;stroke-linecap:round;stroke-linejoin:round;stroke-dasharray:none;stroke-opacity:1"
       d="m 89,126 c 0,0 16.54299,-4.16259 25,-5 2.65369,-0.26277 5.34631,-0.26277 8,0 3.3828,0.33496 6.71453,1.1275 10,2 2.03756,0.5411 6,2 6,2"
       id="path2"
       sodipodi:nodetypes="caaac" /><path
       style="fill:none;fill-opacity:1;stroke:#5f5f63;stroke-width:7.9;stroke-linecap:round;stroke-linejoin:round;stroke-dasharray:none;stroke-opacity:1"
       d="m 434,126 c 0,0 -5.23224,-2.32872 -8,-3 -5.54499,-1.34485 -11.30403,-1.66609 -17,-2 -2.6621,-0.15606 -5.34631,-0.26277 -8,0 -3.3828,0.33496 -6.71453,1.1275 -10,2 -2.03756,0.5411 -6,2 -6,2"
       id="path3"
       sodipodi:nodetypes="caaaac" /><path
       style="fill:none;fill-opacity:1;stroke:#5f5f63;stroke-width:8;stroke-linecap:round;stroke-linejoin:round;stroke-dasharray:none;stroke-opacity:1"
       d="m 200,39 c 0,0 17.52267,15.461833 27.11822,22.080686 C 233.1031,65.208959 239.30705,69.159964 246,72 c 4.46781,1.895837 9.14659,4 14,4 4.85341,0 9.57471,-2.006932 14,-4 7.2874,-3.282104 13.72875,-8.224944 20.21171,-12.899296 C 302.84061,52.879085 319,39 319,39"
       id="path4"
       sodipodi:nodetypes="caaaaac" /><path
       style="fill:none;fill-opacity:1;stroke:#5f5f63;stroke-width:9;stroke-linecap:round;stroke-linejoin:round;stroke-dasharray:none;stroke-opacity:1"
       d="M 260,74 V 40"
       id="path5"
       sodipodi:nodetypes="cc" /><path
       style="display:inline;fill:#c2c1c2;fill-opacity:1;stroke:#c2c1c2;stroke-width:8;stroke-linecap:round;stroke-linejoin:round;stroke-dasharray:none;stroke-opacity:1"
       d="m 204,484 v -72 h 112 v 72 z"
       id="path6"
       sodipodi:nodetypes="ccccc" /><circle
       style="display:inline;fill:#212321;fill-opacity:1;stroke:none;stroke-width:9.9994;stroke-linecap:round;stroke-linejoin:round;stroke-dasharray:none;stroke-opacity:1"
       id="path7"
       cx="260"
       cy="448"
       r="28" /><circle
       style="display:inline;fill:#c2c1c2;fill-opacity:1;stroke:none;stroke-width:7.85668;stroke-linecap:round;stroke-linejoin:round;stroke-dasharray:none;stroke-opacity:1"
       id="circle7"
       cx="260"
       cy="448"
       r="22" /><circle
       style="fill:#212321;fill-opacity:1;stroke:none;stroke-width:3.57122;stroke-linecap:round;stroke-linejoin:round;stroke-dasharray:none;stroke-opacity:1"
       id="circle8"
       cx="260"
       cy="448"
       r="10" /><path
       style="fill:none;fill-opacity:1;stroke:#5f5f63;stroke-width:8;stroke-linecap:round;stroke-linejoin:round;stroke-dasharray:none;stroke-opacity:1"
       d="m 200,39 -81.00012,19 c 0,0 25.60383,77.75105 32,118 12.46685,78.4497 12,238 12,238"
       id="path15"
       sodipodi:nodetypes="ccac" /><path
       style="fill:none;fill-opacity:1;stroke:#5f5f63;stroke-width:8;stroke-linecap:round;stroke-linejoin:round;stroke-dasharray:none;stroke-opacity:1"
       d="m 320,39 82.99997,19 c 0,0 -23.78029,77.89481 -30,118 -12.17908,78.53168 -14,238 -14,238"
       id="path16"
       sodipodi:nodetypes="ccac" /><path
       style="display:inline;fill:#c2c1c2;fill-opacity:1;stroke:#c2c1c2;stroke-width:8;stroke-linecap:round;stroke-linejoin:round;stroke-dasharray:none;stroke-opacity:1"
       d="m 82,472 v -48 h 88 v 48 z"
       id="path17"
       sodipodi:nodetypes="ccccc" /><path
       style="display:inline;fill:#c2c1c2;fill-opacity:1;stroke:#c2c1c2;stroke-width:8;stroke-linecap:round;stroke-linejoin:round;stroke-dasharray:none;stroke-opacity:1"
       d="m 346,472 v -48 h 88 v 48 z"
       id="path18"
       sodipodi:nodetypes="ccccc" /></g></svg>
