<?xml version="1.0" encoding="UTF-8" standalone="no"?>
<!-- Created with Inkscape (http://www.inkscape.org/) -->

<svg
   width="512px"
   height="512px"
   viewBox="0 0 512 512"
   version="1.1"
   id="SVGRoot"
   sodipodi:docname="Torso Front Rebel Commando.svg"
   xml:space="preserve"
   inkscape:version="1.3.2 (091e20ef0f, 2023-11-25)"
   xmlns:inkscape="http://www.inkscape.org/namespaces/inkscape"
   xmlns:sodipodi="http://sodipodi.sourceforge.net/DTD/sodipodi-0.dtd"
   xmlns:xlink="http://www.w3.org/1999/xlink"
   xmlns="http://www.w3.org/2000/svg"
   xmlns:svg="http://www.w3.org/2000/svg"><sodipodi:namedview
     id="namedview3248"
     pagecolor="#ffffff"
     bordercolor="#000000"
     borderopacity="0.25"
     inkscape:showpageshadow="2"
     inkscape:pageopacity="0.0"
     inkscape:pagecheckerboard="0"
     inkscape:deskcolor="#d1d1d1"
     inkscape:document-units="px"
     showgrid="false"
     inkscape:zoom="1.4142136"
     inkscape:cx="317.8445"
     inkscape:cy="215.31401"
     inkscape:window-width="1920"
     inkscape:window-height="992"
     inkscape:window-x="1920"
     inkscape:window-y="0"
     inkscape:window-maximized="1"
     inkscape:current-layer="layer1"
     showguides="true" /><defs
     id="defs3243"><linearGradient
       id="linearGradient8"
       inkscape:collect="always"><stop
         style="stop-color:#212221;stop-opacity:1;"
         offset="0.15000001"
         id="stop7" /><stop
         style="stop-color:#212221;stop-opacity:0;"
         offset="0.85356188"
         id="stop8" /></linearGradient><linearGradient
       id="linearGradient3"
       inkscape:collect="always"><stop
         style="stop-color:#212221;stop-opacity:1;"
         offset="0.15000001"
         id="stop3" /><stop
         style="stop-color:#212221;stop-opacity:0;"
         offset="0.85356188"
         id="stop4" /></linearGradient><linearGradient
       inkscape:collect="always"
       id="linearGradient17188"><stop
         style="stop-color:#93bf97;stop-opacity:1;"
         offset="0.5"
         id="stop17184" /><stop
         style="stop-color:#93bf97;stop-opacity:0.66000003;"
         offset="1"
         id="stop17186" /></linearGradient><linearGradient
       inkscape:collect="always"
       id="linearGradient17180"><stop
         style="stop-color:#93bf97;stop-opacity:1;"
         offset="0.5"
         id="stop17176" /><stop
         style="stop-color:#93bf97;stop-opacity:0.66000003;"
         offset="1"
         id="stop17178" /></linearGradient><linearGradient
       inkscape:collect="always"
       id="linearGradient17172"><stop
         style="stop-color:#93bf97;stop-opacity:1;"
         offset="0.5"
         id="stop17168" /><stop
         style="stop-color:#93bf97;stop-opacity:0.66000003;"
         offset="1"
         id="stop17170" /></linearGradient><linearGradient
       inkscape:collect="always"
       id="linearGradient17164"><stop
         style="stop-color:#93bf97;stop-opacity:1;"
         offset="0.5"
         id="stop17160" /><stop
         style="stop-color:#93bf97;stop-opacity:0.66000003;"
         offset="1"
         id="stop17162" /></linearGradient><linearGradient
       inkscape:collect="always"
       id="linearGradient17153"><stop
         style="stop-color:#93bf97;stop-opacity:1;"
         offset="0.5"
         id="stop17149" /><stop
         style="stop-color:#93bf97;stop-opacity:0.66000003;"
         offset="1"
         id="stop17151" /></linearGradient><linearGradient
       inkscape:collect="always"
       id="linearGradient16419"><stop
         style="stop-color:#93bf97;stop-opacity:1;"
         offset="0.5"
         id="stop16415" /><stop
         style="stop-color:#93bf97;stop-opacity:0.66000003;"
         offset="1"
         id="stop16417" /></linearGradient><linearGradient
       inkscape:collect="always"
       id="linearGradient16411"><stop
         style="stop-color:#93bf97;stop-opacity:1;"
         offset="0.5"
         id="stop16407" /><stop
         style="stop-color:#93bf97;stop-opacity:0.66000003;"
         offset="1"
         id="stop16409" /></linearGradient><linearGradient
       inkscape:collect="always"
       id="linearGradient10926"><stop
         style="stop-color:#628066;stop-opacity:1;"
         offset="0.5"
         id="stop10922" /><stop
         style="stop-color:#628066;stop-opacity:0.66000003;"
         offset="1"
         id="stop10924" /></linearGradient><linearGradient
       inkscape:collect="always"
       id="linearGradient10918"><stop
         style="stop-color:#628066;stop-opacity:1;"
         offset="0.5"
         id="stop10914" /><stop
         style="stop-color:#628066;stop-opacity:0.66000003;"
         offset="1"
         id="stop10916" /></linearGradient><linearGradient
       inkscape:collect="always"
       id="linearGradient10910"><stop
         style="stop-color:#628066;stop-opacity:1;"
         offset="0"
         id="stop10906" /><stop
         style="stop-color:#628066;stop-opacity:0.66000003;"
         offset="0.5"
         id="stop10908" /></linearGradient><linearGradient
       inkscape:collect="always"
       id="linearGradient10902"><stop
         style="stop-color:#638066;stop-opacity:1;"
         offset="0.5"
         id="stop10898" /><stop
         style="stop-color:#638066;stop-opacity:0.66000003;"
         offset="1"
         id="stop10900" /></linearGradient><linearGradient
       inkscape:collect="always"
       id="linearGradient10894"><stop
         style="stop-color:#628066;stop-opacity:1;"
         offset="0.5"
         id="stop10890" /><stop
         style="stop-color:#628066;stop-opacity:0.66000003;"
         offset="1"
         id="stop10892" /></linearGradient><linearGradient
       inkscape:collect="always"
       id="linearGradient10886"><stop
         style="stop-color:#628066;stop-opacity:1;"
         offset="0.5"
         id="stop10882" /><stop
         style="stop-color:#628066;stop-opacity:0.66000003;"
         offset="1"
         id="stop10884" /></linearGradient><linearGradient
       inkscape:collect="always"
       id="linearGradient10878"><stop
         style="stop-color:#628066;stop-opacity:1;"
         offset="0.5"
         id="stop10874" /><stop
         style="stop-color:#628066;stop-opacity:0.66000003;"
         offset="1"
         id="stop10876" /></linearGradient><linearGradient
       inkscape:collect="always"
       id="linearGradient10870"><stop
         style="stop-color:#628066;stop-opacity:1;"
         offset="0.5"
         id="stop10866" /><stop
         style="stop-color:#628066;stop-opacity:0.66000003;"
         offset="1"
         id="stop10868" /></linearGradient><linearGradient
       inkscape:collect="always"
       id="linearGradient10862"><stop
         style="stop-color:#628066;stop-opacity:1;"
         offset="0.5"
         id="stop10858" /><stop
         style="stop-color:#628066;stop-opacity:0.66000003;"
         offset="1"
         id="stop10860" /></linearGradient><linearGradient
       inkscape:collect="always"
       id="linearGradient10854"><stop
         style="stop-color:#628066;stop-opacity:1;"
         offset="0.5"
         id="stop10850" /><stop
         style="stop-color:#628066;stop-opacity:0.66000003;"
         offset="1"
         id="stop10852" /></linearGradient><linearGradient
       inkscape:collect="always"
       id="linearGradient10846"><stop
         style="stop-color:#628066;stop-opacity:1;"
         offset="0.5"
         id="stop10842" /><stop
         style="stop-color:#628066;stop-opacity:0.66000003;"
         offset="1"
         id="stop10844" /></linearGradient><linearGradient
       inkscape:collect="always"
       id="linearGradient10838"><stop
         style="stop-color:#628066;stop-opacity:1;"
         offset="0"
         id="stop10834" /><stop
         style="stop-color:#628066;stop-opacity:0.66000003;"
         offset="1"
         id="stop10836" /></linearGradient><linearGradient
       inkscape:collect="always"
       id="linearGradient10830"><stop
         style="stop-color:#628066;stop-opacity:1;"
         offset="0.5"
         id="stop10826" /><stop
         style="stop-color:#628066;stop-opacity:0.66000003;"
         offset="1"
         id="stop10828" /></linearGradient><linearGradient
       inkscape:collect="always"
       id="linearGradient10822"><stop
         style="stop-color:#628066;stop-opacity:1;"
         offset="0.5"
         id="stop10818" /><stop
         style="stop-color:#628066;stop-opacity:0.66000003;"
         offset="1"
         id="stop10820" /></linearGradient><linearGradient
       inkscape:collect="always"
       id="linearGradient10814"><stop
         style="stop-color:#628066;stop-opacity:1;"
         offset="0.5"
         id="stop10810" /><stop
         style="stop-color:#628066;stop-opacity:0.66000003;"
         offset="1"
         id="stop10812" /></linearGradient><radialGradient
       inkscape:collect="always"
       xlink:href="#linearGradient10814"
       id="radialGradient10816"
       cx="61.006363"
       cy="99.997795"
       fx="61.006363"
       fy="99.997795"
       r="56.972704"
       gradientTransform="matrix(1,0,0,1.0531359,0,-5.5261342)"
       gradientUnits="userSpaceOnUse" /><radialGradient
       inkscape:collect="always"
       xlink:href="#linearGradient10822"
       id="radialGradient10824"
       cx="164.89978"
       cy="93"
       fx="164.89978"
       fy="93"
       r="9.1002207"
       gradientTransform="matrix(1,0,0,2.966961,0,-182.92737)"
       gradientUnits="userSpaceOnUse" /><radialGradient
       inkscape:collect="always"
       xlink:href="#linearGradient10830"
       id="radialGradient10832"
       cx="155.37582"
       cy="201.8439"
       fx="155.37582"
       fy="201.8439"
       r="35.006767"
       gradientTransform="matrix(1,0,0,1.0135481,0,-2.7299615)"
       gradientUnits="userSpaceOnUse" /><radialGradient
       inkscape:collect="always"
       xlink:href="#linearGradient10838"
       id="radialGradient10840"
       cx="49.491863"
       cy="293.79409"
       fx="49.491863"
       fy="293.79409"
       r="24.283202"
       gradientTransform="matrix(1,0,0,1.0967147,0,-28.414212)"
       gradientUnits="userSpaceOnUse" /><radialGradient
       inkscape:collect="always"
       xlink:href="#linearGradient10846"
       id="radialGradient10848"
       cx="144.30536"
       cy="307.61172"
       fx="144.30536"
       fy="307.61172"
       r="24.731556"
       gradientTransform="matrix(1,0,0,0.48521008,0,158.5553)"
       gradientUnits="userSpaceOnUse" /><radialGradient
       inkscape:collect="always"
       xlink:href="#linearGradient10854"
       id="radialGradient10856"
       cx="51.221001"
       cy="446.3743"
       fx="51.221001"
       fy="446.3743"
       r="27.296927"
       gradientTransform="matrix(1,0,0,1.4630165,0,-200.97886)"
       gradientUnits="userSpaceOnUse" /><radialGradient
       inkscape:collect="always"
       xlink:href="#linearGradient10862"
       id="radialGradient10864"
       cx="125.11053"
       cy="471.8204"
       fx="125.11053"
       fy="471.8204"
       r="15.125"
       gradientTransform="matrix(1,0,0,0.72727273,0,126.27273)"
       gradientUnits="userSpaceOnUse" /><radialGradient
       inkscape:collect="always"
       xlink:href="#linearGradient10870"
       id="radialGradient10872"
       cx="450.76221"
       cy="465.70038"
       fx="450.76221"
       fy="465.70038"
       r="11.354204"
       gradientTransform="matrix(1,0,0,1.1769523,0,-81.510697)"
       gradientUnits="userSpaceOnUse" /><radialGradient
       inkscape:collect="always"
       xlink:href="#linearGradient10878"
       id="radialGradient10880"
       cx="376.9996"
       cy="442.94751"
       fx="376.9996"
       fy="442.94751"
       r="13.669099"
       gradientTransform="matrix(1,0,0,2.1947313,0,-528.07124)"
       gradientUnits="userSpaceOnUse" /><radialGradient
       inkscape:collect="always"
       xlink:href="#linearGradient10886"
       id="radialGradient10888"
       cx="409.48389"
       cy="371.87842"
       fx="409.48389"
       fy="371.87842"
       r="16.518048"
       gradientTransform="matrix(1,0,0,0.98513945,0,5.5263174)"
       gradientUnits="userSpaceOnUse" /><radialGradient
       inkscape:collect="always"
       xlink:href="#linearGradient10894"
       id="radialGradient10896"
       cx="355.56189"
       cy="275.31738"
       fx="355.56189"
       fy="275.31738"
       r="23.149307"
       gradientTransform="matrix(1,0,0,1.7711113,0,-212.05561)"
       gradientUnits="userSpaceOnUse" /><radialGradient
       inkscape:collect="always"
       xlink:href="#linearGradient10902"
       id="radialGradient10904"
       cx="343.18896"
       cy="193.88237"
       fx="343.18896"
       fy="193.88237"
       r="32.838355"
       gradientTransform="matrix(1,0,0,0.76130488,0,46.545549)"
       gradientUnits="userSpaceOnUse" /><radialGradient
       inkscape:collect="always"
       xlink:href="#linearGradient10910"
       id="radialGradient10912"
       cx="383.78089"
       cy="101.98614"
       fx="383.78089"
       fy="101.98614"
       r="12.896408"
       gradientTransform="matrix(1,0,0,0.9906406,0,0.95452934)"
       gradientUnits="userSpaceOnUse" /><radialGradient
       inkscape:collect="always"
       xlink:href="#linearGradient10918"
       id="radialGradient10920"
       cx="444.20327"
       cy="94.008614"
       fx="444.20327"
       fy="94.008614"
       r="33.59119"
       gradientTransform="matrix(1,0,0,1.488742,0,-45.945954)"
       gradientUnits="userSpaceOnUse" /><radialGradient
       inkscape:collect="always"
       xlink:href="#linearGradient10926"
       id="radialGradient10928"
       cx="451"
       cy="241"
       fx="451"
       fy="241"
       r="21.354583"
       gradientTransform="matrix(1,0,0,0.81966107,0,43.461683)"
       gradientUnits="userSpaceOnUse" /><radialGradient
       inkscape:collect="always"
       xlink:href="#linearGradient16411"
       id="radialGradient16413"
       cx="102.29034"
       cy="45.801514"
       fx="102.29034"
       fy="45.801514"
       r="42"
       gradientTransform="matrix(1,0,0,0.48116285,0,33.313931)"
       gradientUnits="userSpaceOnUse" /><radialGradient
       inkscape:collect="always"
       xlink:href="#linearGradient16419"
       id="radialGradient16421"
       cx="98.272438"
       cy="223.09262"
       fx="98.272438"
       fy="223.09262"
       r="64.312819"
       gradientTransform="matrix(1,0,0,1.3488131,0,-73.346705)"
       gradientUnits="userSpaceOnUse" /><radialGradient
       inkscape:collect="always"
       xlink:href="#linearGradient17153"
       id="radialGradient17155"
       cx="102.97236"
       cy="383.7626"
       fx="102.97236"
       fy="383.7626"
       r="43.027645"
       gradientTransform="matrix(1,0,0,1.3070062,0,-117.81751)"
       gradientUnits="userSpaceOnUse" /><radialGradient
       inkscape:collect="always"
       xlink:href="#linearGradient17164"
       id="radialGradient17166"
       cx="421.13771"
       cy="414.67602"
       fx="421.13771"
       fy="414.67602"
       r="21.140033"
       gradientTransform="matrix(1,0,0,1.6716708,0,-278.52576)"
       gradientUnits="userSpaceOnUse" /><radialGradient
       inkscape:collect="always"
       xlink:href="#linearGradient17172"
       id="radialGradient17174"
       cx="388.85913"
       cy="341.59656"
       fx="388.85913"
       fy="341.59656"
       r="61.606683"
       gradientTransform="matrix(1,0,0,0.81688995,0,64.034749)"
       gradientUnits="userSpaceOnUse" /><radialGradient
       inkscape:collect="always"
       xlink:href="#linearGradient17180"
       id="radialGradient17182"
       cx="413.356"
       cy="253.18709"
       fx="413.356"
       fy="253.18709"
       r="36.920701"
       gradientTransform="matrix(1,0,0,0.95570842,0,11.214057)"
       gradientUnits="userSpaceOnUse" /><radialGradient
       inkscape:collect="always"
       xlink:href="#linearGradient17188"
       id="radialGradient17190"
       cx="361.23422"
       cy="105.56354"
       fx="361.23422"
       fy="105.56354"
       r="80.001011"
       gradientTransform="matrix(1,0,0,1.1061917,0,-14.07002)"
       gradientUnits="userSpaceOnUse" /><linearGradient
       inkscape:collect="always"
       xlink:href="#linearGradient8"
       id="linearGradient4"
       x1="308.0002"
       y1="88.000104"
       x2="427.99984"
       y2="88.000104"
       gradientUnits="userSpaceOnUse" /><linearGradient
       inkscape:collect="always"
       xlink:href="#linearGradient3"
       id="linearGradient7"
       gradientUnits="userSpaceOnUse"
       x1="308.0002"
       y1="88.000104"
       x2="427.99984"
       y2="88.000104"
       gradientTransform="matrix(-1,0,0,1,505.99982,0)" /></defs><g
     inkscape:label="Layer 1"
     inkscape:groupmode="layer"
     id="layer1"><rect
       style="fill:#a8a8a0;fill-opacity:1;stroke:none;stroke-width:36.3664;stroke-linecap:square;stroke-linejoin:round;stroke-dasharray:none;stroke-opacity:1"
       id="rect6"
       width="512"
       height="512"
       x="0"
       y="0" /><path
       style="display:inline;fill:#84ac88;stroke:#212221;stroke-width:16;stroke-linecap:round;stroke-linejoin:round;stroke-dasharray:none;stroke-opacity:1"
       d="m 170,-98 12,206 -44,346 v 28 H -8 V 34 Z"
       id="path12884"
       sodipodi:nodetypes="ccccccc" /><path
       style="display:inline;fill:#84ac88;stroke:#212221;stroke-width:16;stroke-linecap:round;stroke-linejoin:round;stroke-dasharray:none;stroke-opacity:1"
       d="m 344,-104 -22,212 44,346 v 28 H 520 V 28 Z"
       id="path13076"
       sodipodi:nodetypes="ccccccc" /><path
       style="display:inline;fill:url(#radialGradient10816);fill-opacity:1;stroke:none;stroke-width:5;stroke-linecap:round;stroke-linejoin:round;stroke-dasharray:none;stroke-opacity:1"
       d="M 52,44 H 32 C 24.683235,44 9.9828092,66.60704 8,92 c -0.9283919,11.8895 45.614213,-2.742772 50,14 2.628,10.03241 -18.031229,12.41854 -22,22 -4.592201,11.08655 -3.227763,36 0,36 h 46 c 7.181362,0 -2.259475,-20.94962 4,-28 6.871182,-7.73938 23.69474,0.207 30,-8 7.31083,-9.51587 8.48528,-27.51472 0,-36 C 104.68629,80.686292 80.979875,101.35536 68,92 54.31801,82.13858 63.506618,44 52,44 Z"
       id="path14623"
       sodipodi:nodetypes="sssaassaaaas" /><path
       style="fill:url(#radialGradient10824);fill-opacity:1;stroke:none;stroke-width:5;stroke-linecap:round;stroke-linejoin:round;stroke-dasharray:none;stroke-opacity:1"
       d="m 174,66 c 0,0 -16.4991,9.648515 -18,18 -2.33491,12.992235 16.5,36 16.5,36 l 1.5,-12 z"
       id="path14690"
       sodipodi:nodetypes="caccc" /><path
       style="fill:url(#radialGradient10832);fill-opacity:1;stroke:none;stroke-width:5;stroke-linecap:round;stroke-linejoin:round;stroke-dasharray:none;stroke-opacity:1"
       d="m 166,170 -8.5,66 c 0,0 -17.49981,-11.84524 -27.5,-12 -10.76904,-0.16666 -29.47622,17.2378 -30,12 l -4,-40 c -0.589852,-5.89852 18.25682,0.11485 26,-4 10.20982,-5.42566 12.6102,-21.73355 23.55468,-25.46135 C 152.09764,164.31006 166,170 166,170 Z"
       id="path14692"
       sodipodi:nodetypes="ccassaac" /><path
       style="fill:url(#radialGradient10840);fill-opacity:1;stroke:none;stroke-width:5;stroke-linecap:round;stroke-linejoin:round;stroke-dasharray:none;stroke-opacity:1"
       d="m 28,272 c 5.653096,-13.68041 44,6 44,6 5.681136,0.7747 -3.907744,14.69245 -6,22 -1.915828,6.69134 2.761338,23.2855 -6,20 0,0 -29.693819,-0.84387 -32,-12 -2.466836,-11.9333 -4.798343,-24.38808 0,-36 z"
       id="path14694"
       sodipodi:nodetypes="ssasss" /><path
       style="fill:url(#radialGradient10848);fill-opacity:1;stroke:none;stroke-width:5;stroke-linecap:round;stroke-linejoin:round;stroke-dasharray:none;stroke-opacity:1"
       d="m 150,296 -44,4 c -2.0634,0.18758 -8.260973,13.57034 -4,18 5.16719,5.37175 14.55173,-4.28067 22,-4 7.91762,0.29835 23,6 23,6 z"
       id="path14696"
       sodipodi:nodetypes="csaacc" /><path
       style="fill:url(#radialGradient10856);fill-opacity:1;stroke:none;stroke-width:5;stroke-linecap:round;stroke-linejoin:round;stroke-dasharray:none;stroke-opacity:1"
       d="m 32,396 c -13.675226,20.0679 0,78 0,78 h 40 c 0,0 10.991302,-18.76559 8,-28 C 76.342184,434.708 60.199077,432.58277 52,424 44.077154,415.70638 38.458944,386.52173 32,396 Z"
       id="path14698"
       sodipodi:nodetypes="sccaas" /><path
       style="fill:url(#radialGradient10864);fill-opacity:1;stroke:none;stroke-width:5;stroke-linecap:round;stroke-linejoin:round;stroke-dasharray:none;stroke-opacity:1"
       d="m 130,474 h -30 c 0,0 7.06141,-10.34102 12,-14 5.33694,-3.95412 18.25,-8 18.25,-8 l -0.25,2 z"
       id="path14700"
       sodipodi:nodetypes="ccaccc" /><path
       style="fill:url(#radialGradient16413);fill-opacity:1;stroke:none;stroke-width:5;stroke-linecap:round;stroke-linejoin:round;stroke-dasharray:none;stroke-opacity:1"
       d="m 66,44 h 84 c 0,0 -19.83451,20.727469 -32,28 C 108.22196,77.845314 97.133802,86.411684 86,84 78.62848,82.403261 73.451296,74.706522 70,68 66.288853,60.788539 66,44 66,44 Z"
       id="path14765"
       sodipodi:nodetypes="ccaaac" /><path
       style="fill:url(#radialGradient16421);fill-opacity:1;stroke:none;stroke-width:5;stroke-linecap:round;stroke-linejoin:round;stroke-dasharray:none;stroke-opacity:1"
       d="m 148,160 c 7.2667,-9.64224 7.14509,-40.64379 -4,-36 l -48,20 c -8.702855,3.62619 3.122488,21.8227 -4,28 -11.079991,9.60963 -30.449767,-5.61269 -44,0 -8.71042,3.60797 -17.93159,10.8016 -20,20 -2.174291,9.66926 4.411859,19.81496 10,28 11.457214,16.78157 35.154877,22.81651 46,40 6.647209,10.53213 -1.878377,32.2563 10,36 16.41741,5.17426 57.5,-11 57.5,-11 l 4.7,-37 c 0,0 -44.83562,5.20645 -64.2,-4 -10.651956,-5.06428 -22.793176,-14.26737 -24,-26 -1.193253,-11.6007 9.28877,-22.24665 18,-30 16.93891,-15.07633 48.5774,-10.18944 62,-28 z"
       id="path14767"
       sodipodi:nodetypes="sssaaaaasccaaas" /><path
       style="fill:url(#radialGradient17155);fill-opacity:1;stroke:none;stroke-width:5;stroke-linecap:round;stroke-linejoin:round;stroke-dasharray:none;stroke-opacity:1"
       d="m 146,328 c 0,0 -18.24817,-1.93251 -26,2 -27.406871,13.90352 -61.617828,39.3108 -60,70 0.868927,16.483 21.221293,26.6492 36,34 10.81893,5.38124 35.75,6 35.75,6 z"
       id="path14769"
       sodipodi:nodetypes="caaacc" /><path
       style="fill:url(#radialGradient10920);fill-opacity:1;stroke:none;stroke-width:5;stroke-linecap:round;stroke-linejoin:round;stroke-dasharray:none;stroke-opacity:1"
       d="m 436,44 h 30 c 0,0 21.9148,63.27828 6,88 -6.16642,9.57878 -20.61102,12.26268 -32,12 -10.15166,-0.23414 -23.48778,-2.90324 -28,-12 -3.66431,-7.38734 0.47937,-17.87443 6,-24 5.224,-5.79644 17.75403,-1.45319 22,-8 10.18308,-15.70118 -4,-56 -4,-56 z"
       id="path14772"
       sodipodi:nodetypes="ccaaaaac" /><path
       style="fill:url(#radialGradient10912);fill-opacity:1;stroke:none;stroke-width:5;stroke-linecap:round;stroke-linejoin:round;stroke-dasharray:none;stroke-opacity:1"
       d="m 372,106 c -4.49159,-2.36714 5.89181,-1.89181 8,-4 3.16228,-3.162278 3.37492,-16.082221 6,-12 10.80949,16.80968 13.28536,16.25946 8,22 -5.14856,5.59196 -6.36199,2.24148 -22,-6 z"
       id="path14774"
       sodipodi:nodetypes="sasas" /><path
       style="fill:url(#radialGradient10904);fill-opacity:1;stroke:none;stroke-width:5;stroke-linecap:round;stroke-linejoin:round;stroke-dasharray:none;stroke-opacity:1"
       d="m 344.25,220 -6.37,-50 c 0,0 45.87189,2.68357 60.12,18 4.18636,4.50025 7.69447,13.0879 4,18 -6.42405,8.5413 -21.64281,-0.63643 -32,2 -9.17697,2.336 -25.75,12 -25.75,12 z"
       id="path14776"
       sodipodi:nodetypes="ccaaac" /><path
       style="fill:url(#radialGradient10928);fill-opacity:1;stroke:none;stroke-width:5;stroke-linecap:round;stroke-linejoin:round;stroke-dasharray:none;stroke-opacity:1"
       d="m 430,250 c -2.74289,-11.0166 10.9834,-23.25711 22,-26 6.96751,-1.73476 18.26524,1.03249 20,8 2.74289,11.0166 -10.9834,23.25711 -22,26 -6.96751,1.73476 -18.26524,-1.03249 -20,-8 z"
       id="path14778"
       sodipodi:nodetypes="aaaaa" /><path
       style="fill:url(#radialGradient10896);fill-opacity:1;stroke:none;stroke-width:5;stroke-linecap:round;stroke-linejoin:round;stroke-dasharray:none;stroke-opacity:1"
       d="m 346,234 10.5,82 c 0,0 39.60659,-31.41826 35.5,-52 -3.58192,-17.95218 -46,-30 -46,-30 z"
       id="path14780"
       sodipodi:nodetypes="ccac" /><path
       style="fill:url(#radialGradient10880);fill-opacity:1;stroke:none;stroke-width:5;stroke-linecap:round;stroke-linejoin:round;stroke-dasharray:none;stroke-opacity:1"
       d="m 374,472 v -18 l -5.25,-42 c 0,0 29.14091,23.97785 27.25,40 -1.16159,9.84241 -22,20 -22,20 z"
       id="path14782"
       sodipodi:nodetypes="cccac" /><path
       style="fill:url(#radialGradient10872);fill-opacity:1;stroke:none;stroke-width:5;stroke-linecap:round;stroke-linejoin:round;stroke-dasharray:none;stroke-opacity:1"
       d="m 440,474 h 19.38602 c 0,0 6.19986,-18.26939 0.61398,-24 -3.7227,-3.81915 -11.93056,-3.44733 -16,0 -6.18836,5.24233 -4,24 -4,24 z"
       id="path14784"
       sodipodi:nodetypes="ccaac" /><path
       style="fill:url(#radialGradient10888);fill-opacity:1;stroke:none;stroke-width:5;stroke-linecap:round;stroke-linejoin:round;stroke-dasharray:none;stroke-opacity:1"
       d="m 408,356 c -10.28564,3.19462 -20.19972,23.01684 -12,30 8.8785,7.56123 29.72257,-6.3414 30,-18 0.17155,-7.20906 -11.11341,-14.1389 -18,-12 z"
       id="path14786"
       sodipodi:nodetypes="aaaa" /><path
       style="fill:url(#radialGradient17190);fill-opacity:1;stroke:none;stroke-width:5;stroke-linecap:round;stroke-linejoin:round;stroke-dasharray:none;stroke-opacity:1"
       d="m 330,44 v 56 c 0,0 24.58804,16.93437 30,30 1.27561,3.0796 2.73304,8.0917 0,10 -7.93316,5.53922 -27.25,-10 -27.25,-10 l 4.75,38 c 0,0 43.53922,-12.73466 62.5,-4 6.05506,2.78938 8.90596,10.0948 12,16 1.95685,3.73477 4.41547,7.80415 4,12 -1.05925,10.69736 -23.68159,20.48011 -16,28 5.55564,5.43869 12.33462,-13.29861 20,-12 5.13368,0.86971 4.95218,10.72303 10,12 17.40234,4.40234 36.79051,-7.84551 50,-20 5.48494,-5.04688 10.11289,-12.5473 10,-20 -0.14909,-9.84209 -5.54944,-20.95253 -14,-26 -7.44047,-4.44415 -20.40018,-6.61461 -26,0 -2.39662,2.83093 4.24877,8.15752 1.8363,10.97495 -4.34248,5.07142 -13.91939,2.4689 -20.02841,-0.22486 C 413.12947,156.51386 407.832,129.93673 390,120 c -5.93887,-3.30939 -15.07959,0.69168 -20,-4 -3.97868,-3.79372 -5.83934,-10.81936 -4,-16 3.34579,-9.423678 14.01328,-17.48482 24,-18 11.64642,-0.600798 18.71702,20.94861 30,18 5.2002,-1.358979 8.05717,-8.625466 8,-14 -0.0414,-3.887081 -5.19714,-6.196512 -6,-10 -2.22018,-10.517906 4,-32 4,-32 z"
       id="path14788"
       sodipodi:nodetypes="ccaaccaaaaaaaaaaaaaaaaaaacc" /><path
       style="fill:url(#radialGradient17182);fill-opacity:1;stroke:none;stroke-width:5;stroke-linecap:round;stroke-linejoin:round;stroke-dasharray:none;stroke-opacity:1"
       d="m 380,220 c 12.68075,-7.83714 31.24117,7.93745 40,20 5.22206,7.19175 -2.47586,20.23457 3.95633,26.36793 3.89034,3.7096 11.29746,-0.89169 16.04367,1.63207 4.5973,2.44458 11.77613,7.10546 10,12 -2.54252,7.00651 -14.71396,2.42862 -22,4 -5.37392,1.15899 -10.87239,5.98237 -16,4 -6.72595,-2.6003 -9.91034,-11.09831 -12,-18 -2.12508,-7.01867 4.11128,-15.92751 0,-22 -4.02544,-5.9457 -15.97456,-2.0543 -20,-8 -3.73753,-5.52045 -5.67101,-16.49513 0,-20 z"
       id="path14790"
       sodipodi:nodetypes="aaaaaaaaaaa" /><path
       style="fill:url(#radialGradient17174);fill-opacity:1;stroke:none;stroke-width:5;stroke-linecap:round;stroke-linejoin:round;stroke-dasharray:none;stroke-opacity:1"
       d="m 367,400 -10,-80 c 0,0 21.65406,-18.43749 35,-20 23.46644,-2.7474 50.99785,3.59423 68,20 15.17082,14.63867 21.49447,38.97119 20,60 -0.52838,7.43481 -2.56084,19.53685 -10,20 -23.99056,1.4936 -18.44148,-49.36948 -40,-60 -8.9888,-4.43238 -21.50885,-3.32398 -30,2 -18.84555,11.81622 -33,58 -33,58 z"
       id="path14792"
       sodipodi:nodetypes="ccaaaaaac" /><path
       style="fill:url(#radialGradient17166);fill-opacity:1;stroke:none;stroke-width:5;stroke-linecap:round;stroke-linejoin:round;stroke-dasharray:none;stroke-opacity:1"
       d="m 400,420 c 0.17669,12.01721 7.99759,30.62183 20,30 14.29477,-0.74059 17.43652,-23.91748 20,-38 1.92516,-10.57588 5.47772,-26.92768 -4,-32 -5.25729,-2.81362 -11.58828,3.98848 -16,8 -9.30653,8.46231 -20.18492,19.42272 -20,32 z"
       id="path14794"
       sodipodi:nodetypes="aaaaaa" /><path
       style="display:inline;fill:#ffc99c;fill-opacity:1;stroke:#212221;stroke-width:16;stroke-linecap:butt;stroke-linejoin:miter;stroke-dasharray:none;stroke-opacity:1"
       d="m 180,28 h 148 v 20 c 0,0 -29.59569,26.426432 -48,31.998608 -15.31352,4.636393 -32.60476,4.357342 -48,0 C 212.41705,74.456012 180,48 180,48 Z"
       id="path5234"
       sodipodi:nodetypes="cccaacc" /><path
       style="display:inline;fill:url(#linearGradient4);fill-opacity:1;stroke:#212221;stroke-width:16;stroke-linecap:butt;stroke-linejoin:round;stroke-miterlimit:4;stroke-dasharray:none;stroke-opacity:1"
       d="M 423.99988,96 344,-104 322,108 344,280 Z"
       id="path4416"
       sodipodi:nodetypes="ccccc" /><path
       style="display:inline;fill:url(#linearGradient7);fill-opacity:1;stroke:#212221;stroke-width:16;stroke-linecap:butt;stroke-linejoin:round;stroke-miterlimit:4;stroke-dasharray:none;stroke-opacity:1"
       d="m 81.99994,96 79.99988,-200 22,212 -22,172 z"
       id="path7"
       sodipodi:nodetypes="ccccc" /><path
       style="fill:#675921;fill-opacity:1;stroke:#212221;stroke-width:8;stroke-linecap:square;stroke-linejoin:round;stroke-dasharray:none;stroke-opacity:1"
       d="M 404,40 C 404,40 305.52456,174.58985 244,230 169.80581,296.82065 -4,398 -4,398 v 80 H 18 C 18,478 192.88861,379.27215 272,318 360.36713,249.55923 516,88 516,88 V 40 Z"
       id="path6"
       sodipodi:nodetypes="cacccaccc" /><path
       style="fill:#c2c1c2;fill-opacity:1;stroke:#212221;stroke-width:8;stroke-linecap:square;stroke-linejoin:round;stroke-dasharray:none;stroke-opacity:1"
       d="m 347.58918,116.51095 c 1.59078,-5.93693 16.62878,-7.96764 16.62878,-7.96764 l 90.79702,24.32899 -6.21165,23.18221 -90.79703,-24.32899 c 0,0 -12.00793,-9.27764 -10.41712,-15.21457 z"
       id="path8"
       sodipodi:nodetypes="acccca" /><path
       style="fill:#c2c1c2;fill-opacity:1;stroke:#212221;stroke-width:8;stroke-linecap:square;stroke-linejoin:round;stroke-dasharray:none;stroke-opacity:1"
       d="m 285.84001,182.02377 c 1.59079,-5.93693 16.62879,-7.96764 16.62879,-7.96764 l 90.79702,24.32899 -6.21165,23.18222 -90.79703,-24.32899 c 0,0 -12.00793,-9.27765 -10.41713,-15.21458 z"
       id="path9"
       sodipodi:nodetypes="acccca" /><path
       style="fill:#c2c1c2;fill-opacity:1;stroke:#212221;stroke-width:8;stroke-linecap:square;stroke-linejoin:round;stroke-dasharray:none;stroke-opacity:1"
       d="m 217.84001,246.02377 c 1.59079,-5.93693 16.62879,-7.96764 16.62879,-7.96764 l 90.79702,24.32899 -6.21165,23.18222 -90.79703,-24.32899 c 0,0 -12.00793,-9.27765 -10.41713,-15.21458 z"
       id="path10"
       sodipodi:nodetypes="acccca" /><circle
       style="fill:#c2c1c2;fill-opacity:1;stroke:#212221;stroke-width:8;stroke-linecap:square;stroke-linejoin:round;stroke-dasharray:none;stroke-opacity:1"
       id="path11"
       cx="107.99999"
       cy="378"
       r="32" /><path
       style="fill:none;fill-opacity:1;stroke:#212221;stroke-width:8;stroke-linecap:round;stroke-linejoin:round;stroke-dasharray:none;stroke-opacity:1"
       d="m 78,378 c 0,0 19.977802,2 30,2 10.0222,0 30,-2 30,-2"
       id="path13"
       sodipodi:nodetypes="cac" /><circle
       style="fill:#c2c1c2;fill-opacity:1;stroke:#212221;stroke-width:8;stroke-linecap:square;stroke-linejoin:round;stroke-dasharray:none;stroke-opacity:1"
       id="circle13"
       cx="190"
       cy="328"
       r="32" /><rect
       style="fill:#84ac88;stroke:none;stroke-width:13.7236;stroke-linecap:round;stroke-linejoin:round;stroke-dasharray:none;stroke-opacity:1"
       id="rect13074"
       width="512"
       height="38"
       x="0"
       y="474" /><path
       style="fill:none;fill-opacity:1;stroke:#212221;stroke-width:8;stroke-linecap:round;stroke-linejoin:round;stroke-dasharray:none;stroke-opacity:1"
       d="m 160,328 c 0,0 19.9778,2 30,2 10.0222,0 30,-2 30,-2"
       id="path14"
       sodipodi:nodetypes="cac" /><rect
       style="fill:#84ac88;fill-opacity:1;stroke:none;stroke-width:22.4715;stroke-linecap:round;stroke-linejoin:round;stroke-miterlimit:4;stroke-dasharray:none"
       id="rect5910"
       width="512"
       height="44"
       x="0"
       y="0" /><rect
       style="fill:#84ac88;stroke:none;stroke-width:14.7674;stroke-linecap:round;stroke-linejoin:round;stroke-dasharray:none;stroke-opacity:1"
       id="rect13072"
       width="512"
       height="44"
       x="0"
       y="0" /></g></svg>
