<?xml version="1.0" encoding="UTF-8" standalone="no"?>
<!-- Created with Inkscape (http://www.inkscape.org/) -->

<svg
   width="512"
   height="512"
   viewBox="0 0 512 512"
   version="1.1"
   id="svg1"
   xml:space="preserve"
   inkscape:version="1.4 (e7c3feb100, 2024-10-09)"
   sodipodi:docname="Torso Front Luke Skywalker (Jedi, Death Star).svg"
   xmlns:inkscape="http://www.inkscape.org/namespaces/inkscape"
   xmlns:sodipodi="http://sodipodi.sourceforge.net/DTD/sodipodi-0.dtd"
   xmlns="http://www.w3.org/2000/svg"
   xmlns:svg="http://www.w3.org/2000/svg"><sodipodi:namedview
     id="namedview1"
     pagecolor="#ffffff"
     bordercolor="#000000"
     borderopacity="0.25"
     inkscape:showpageshadow="2"
     inkscape:pageopacity="0.0"
     inkscape:pagecheckerboard="0"
     inkscape:deskcolor="#d1d1d1"
     inkscape:document-units="px"
     inkscape:zoom="1.5644531"
     inkscape:cx="274.21723"
     inkscape:cy="267.50562"
     inkscape:window-width="1920"
     inkscape:window-height="996"
     inkscape:window-x="1920"
     inkscape:window-y="0"
     inkscape:window-maximized="1"
     inkscape:current-layer="layer1"
     showguides="false" /><defs
     id="defs1" /><g
     inkscape:label="Layer 1"
     inkscape:groupmode="layer"
     id="layer1"><rect
       style="display:inline;fill:#212321;fill-opacity:1;stroke:none;stroke-width:33.3649;stroke-linejoin:round"
       id="rect1"
       width="512"
       height="512"
       x="0"
       y="0"
       inkscape:label="Background" /><path
       style="fill:none;fill-opacity:1;stroke:#5f5f63;stroke-width:8;stroke-linecap:round;stroke-linejoin:round;stroke-dasharray:none;stroke-opacity:1"
       d="m 110,372 c 0,0 25.07256,24.39339 32,40 10.13816,22.83993 12,74 12,74"
       id="path5"
       sodipodi:nodetypes="cac"
       inkscape:label="SeamBottom" /><path
       style="fill:#212321;fill-opacity:1;stroke:#5f5f63;stroke-width:8;stroke-linecap:round;stroke-linejoin:round;stroke-dasharray:none;stroke-opacity:1"
       d="m 110,70 c 0,0 93.31905,-3.333265 140,-4 6.66599,-0.09521 13.33398,-0.09257 20,0 48.01389,0.666731 144,4 144,4 0,0 5.56632,71.27994 6,107 0.76521,63.02709 -6,189 -6,189 0,0 -101.30374,4.99981 -152,6 -50.65681,0.99942 -152,0 -152,0 0,0 -5.54099,-70.61308 -6,-106 -0.84777,-65.35844 6,-196 6,-196 z"
       id="path2"
       sodipodi:nodetypes="caacacacac"
       inkscape:label="Seam" /><path
       style="fill:#a5a2a5;fill-opacity:1;stroke:none;stroke-width:8;stroke-linecap:round;stroke-linejoin:round;stroke-dasharray:none;stroke-opacity:1"
       d="m 104,266 c 0,0 67.4997,-59.45277 96,-94 26.9454,-32.66243 70,-106 70,-106 0,0 2.55046,61.33103 2,92 -0.62314,34.71872 -6,104 -6,104 0,0 -51.93233,5.30948 -78,6 -27.99811,0.74166 -84,-2 -84,-2 z"
       id="path3"
       sodipodi:nodetypes="cacacac"
       inkscape:label="Flap" /><path
       style="fill:none;fill-opacity:1;stroke:#5f5f63;stroke-width:8;stroke-linecap:round;stroke-linejoin:round;stroke-dasharray:none;stroke-opacity:1"
       d="m 270,66 c 0,0 -43.0546,73.33757 -70,106 -28.5003,34.54723 -96,94 -96,94"
       id="path6"
       sodipodi:nodetypes="cac"
       inkscape:label="FlapOutline" /><path
       style="fill:none;fill-opacity:1;stroke:#5f5f63;stroke-width:8;stroke-linecap:round;stroke-linejoin:round;stroke-dasharray:none;stroke-opacity:1"
       d="m 200,39 c 0,0 38.0684,27.069354 60,27 21.62806,-0.06839 59,-27 59,-27"
       id="path4"
       sodipodi:nodetypes="cac"
       inkscape:label="Collar" /><path
       id="path30213"
       style="fill:#5f5f63;fill-opacity:1;stroke:none;stroke-width:1px;stroke-linecap:butt;stroke-linejoin:miter;stroke-opacity:1"
       d="M 476.43359 387.91016 C 476.29878 387.90717 476.15385 387.9359 476 388 C 476 388 460.36714 395.74123 452 398 C 432.52033 403.25866 392 406 392 406 C 386.96736 406.67102 393.09739 421.31993 398 420 C 398 420 432.93315 411.56281 450 406 C 458.82846 403.12243 476 396 476 396 C 478.33336 395.10255 478.45573 387.95498 476.43359 387.91016 z M 478 412 C 478 412 472.6093 413.13564 470 414 C 461.77298 416.7253 446 424 446 424 C 443.53846 425.02564 444.11438 430.11438 446 432 C 446.4714 432.4714 447.35117 432.15317 448 432 C 458.15584 429.60253 469.16298 425.88315 476 418 C 477.38129 416.40736 478 412 478 412 z "
       inkscape:label="WrinklesL" /><path
       id="path27509"
       style="fill:#5f5f63;fill-opacity:1;stroke:none;stroke-width:1px;stroke-linecap:butt;stroke-linejoin:miter;stroke-opacity:1"
       d="M 39.587891 373.87891 C 37.736186 373.70455 38.917028 379.74674 40 382 C 41.849174 385.84744 46.219768 388.01706 50 390 C 62.327353 396.46639 76.296926 399.54979 90 402 C 100.52062 403.88117 122 404 122 404 C 124.97562 404.18598 120.96663 396.29666 118 396 C 118 396 104.60068 395.14885 98 394 C 87.167898 392.11467 76.370322 389.65312 66 386 C 56.997053 382.82856 40 374 40 374 C 39.848673 373.93016 39.711338 373.89053 39.587891 373.87891 z M 59.669922 407.9668 C 58.192332 408.08814 59.187772 412.31005 60 414 C 61.849174 417.84744 66.219768 420.01706 70 422 C 82.327353 428.46639 96.379363 431.12667 110 434 C 115.25909 435.10943 126 436 126 436 C 129.3731 436.42164 131.34451 426.60809 128 426 C 128 426 113.23482 423.79247 106 422 C 93.106588 418.80557 80.782576 413.6125 68 410 C 65.354866 409.25245 60 408 60 408 C 59.878732 407.96968 59.768428 407.95871 59.669922 407.9668 z "
       inkscape:label="WrinklesR" /></g></svg>
