<?xml version="1.0" encoding="UTF-8" standalone="no"?>
<!-- Created with Inkscape (http://www.inkscape.org/) -->

<svg
   version="1.1"
   id="svg3457"
   width="512"
   height="512"
   viewBox="0 0 512 512"
   sodipodi:docname="Face Rebel General.svg"
   xml:space="preserve"
   inkscape:version="1.4 (e7c3feb100, 2024-10-09)"
   xmlns:inkscape="http://www.inkscape.org/namespaces/inkscape"
   xmlns:sodipodi="http://sodipodi.sourceforge.net/DTD/sodipodi-0.dtd"
   xmlns:xlink="http://www.w3.org/1999/xlink"
   xmlns="http://www.w3.org/2000/svg"
   xmlns:svg="http://www.w3.org/2000/svg"><defs
     id="defs3461"><linearGradient
       inkscape:collect="always"
       id="linearGradient4563"><stop
         style="stop-color:#212221;stop-opacity:1;"
         offset="0"
         id="stop4559" /><stop
         style="stop-color:#212221;stop-opacity:0;"
         offset="1"
         id="stop4561" /></linearGradient><linearGradient
       inkscape:collect="always"
       xlink:href="#linearGradient4563"
       id="linearGradient4565"
       x1="307.20004"
       y1="180.45972"
       x2="307.31732"
       y2="153.02477"
       gradientUnits="userSpaceOnUse" /><clipPath
       clipPathUnits="userSpaceOnUse"
       id="clipPath19508"><g
         inkscape:label="Clip"
         id="use19510"
         style="fill:none;fill-opacity:1;fill-rule:nonzero;stroke:#000000;stroke-opacity:1"><path
           id="path23702"
           style="fill:none;fill-opacity:1;fill-rule:nonzero;stroke:#000000;stroke-opacity:1"
           d="m 364.49755,441.60547 c 6.56925,0.0355 11.9845,-6.70773 18.55356,-6.64621 6.72165,0.063 12.19401,7.19673 18.91299,6.9971 3.5849,-0.10651 6.76052,-4.25684 7.43233,-7.77984 1.41306,-7.41012 5.16868,-19.33292 -1.6446,-22.5711 -7.07323,-3.36172 -15.28336,-5.1787 -23.49332,-5.31446 -8.20996,-0.13576 -16.41975,1.4097 -23.49227,4.77289 -7.17564,3.41222 -2.81491,15.87791 -1.85135,23.7649 0.35492,2.9051 2.65601,6.76089 5.58266,6.77672 z M 278.32893,319.15642 c -2.2098,-0.19295 -5.4791,1.53078 -5.49814,3.74891 l -0.42404,49.41198 c 1.64446,26.00116 8.90298,50.84748 20.36776,70.55482 3.81114,12.27935 20.07817,27.32862 33.27997,27.37629 l 117.68418,0.42487 c 11.27395,0.0407 19.20257,-10.06433 26.60889,-18.56433 10.82544,-12.42403 13.75705,-30.10819 18.0925,-46.00632 3.32297,-12.18537 5.98425,-24.79009 5.95341,-37.4204 l -0.10979,-44.97096 c -0.006,-2.48515 -3.79961,-4.21115 -6.27755,-4.02197 -2.90678,0.22193 -6.65872,2.86761 -6.56236,5.78126 l 0.88366,26.71825 c 0.48221,14.58003 -4.05889,28.95891 -7.7487,43.07255 -0.91322,3.4931 -1.81381,7.06656 -3.545,10.23495 -3.40584,6.2333 -7.71204,12.20958 -13.17775,16.74607 -6.14666,5.10167 -13.61838,13.48816 -21.24003,11.09673 -9.91688,-3.11161 -9.13025,-18.70022 -14.43387,-27.6388 -4.35789,-7.61763 -10.70466,-15.78392 -18.50278,-18.43627 -13.06316,-4.18718 -28.02376,-3.41344 -41.14947,0.57333 -8.64523,2.89144 -13.13803,10.43955 -17.06648,17.40227 -4.99239,8.80057 -3.78026,23.73129 -13.24321,27.31271 -6.81257,2.57833 -14.03538,-4.48609 -20.16378,-8.4233 -5.02526,-3.22849 -9.38792,-7.53165 -13.15504,-12.16687 -4.9555,-5.73652 -6.88338,-11.94882 -8.20054,-18.68122 -2.03713,-10.24138 -4.71712,-20.46381 -5.1738,-30.89584 l -1.65593,-37.82635 c -0.11283,-2.57738 -2.97204,-5.17795 -5.54211,-5.40236 z" /></g></clipPath></defs><sodipodi:namedview
     id="namedview3459"
     pagecolor="#ffffff"
     bordercolor="#000000"
     borderopacity="0.25"
     inkscape:showpageshadow="2"
     inkscape:pageopacity="0.0"
     inkscape:pagecheckerboard="0"
     inkscape:deskcolor="#d1d1d1"
     showgrid="false"
     inkscape:zoom="1.866066"
     inkscape:cx="331.71388"
     inkscape:cy="188.90007"
     inkscape:window-width="1920"
     inkscape:window-height="1044"
     inkscape:window-x="0"
     inkscape:window-y="0"
     inkscape:window-maximized="1"
     inkscape:current-layer="g3463"
     showguides="true"
     inkscape:pageshadow="2" /><g
     inkscape:groupmode="layer"
     inkscape:label="Image"
     id="g3463"><path
       style="fill:#ffffff;fill-opacity:1;stroke-width:0.164847"
       d="M 64.046398,85.225881 C 49.069676,86.206553 46.029714,85.99431 46.934281,78.119584 48.42809,65.115189 52.452137,43.413123 84.044519,44.996615 113.61521,45.170704 216.18168,62.113883 219.45617,79.173127 c -0.77063,8.795585 -30.32846,3.331486 -35.17857,3.272778 -28.17742,-0.341078 -54.68462,1.054484 -90.11288,-6.825768 -8.09959,1.276016 -17.935549,4.110868 -30.118322,9.605744 z"
       id="path4225"
       sodipodi:nodetypes="csccscc" /><path
       style="fill:#918a6f;fill-opacity:1;stroke-width:0.029123"
       d=""
       id="path4216" /><path
       style="fill:#ffffff;fill-opacity:1"
       d="m 289.49882,80.94912 c 22.40111,-26.867076 123.51272,-32.988404 141.70371,-34.104489 24.16732,-2.185971 41.78252,21.308526 37.13885,29.470088 -2.09545,3.682901 -10.47899,3.2242 -14.7066,2.937898 -10.95615,-0.741971 -43.09182,-3.60702 -48.72076,-3.691216 -45.95216,7.823493 -69.02141,3.253124 -79.69314,6.240014 -15.3914,4.307872 -33.18643,4.64376 -35.72206,-0.852295 z"
       id="path4281"
       sodipodi:nodetypes="ccsscsc" /><circle
       style="fill:#212221;fill-opacity:1;stroke-width:1.00805"
       id="path4547"
       cy="384.30002"
       cx="130.77292"
       r="80" /><rect
       style="fill:url(#linearGradient4565);fill-opacity:1;stroke-width:1.1193"
       id="rect4549"
       width="127"
       height="125"
       x="256.5"
       y="130" /><path
       style="fill:#ffffff;fill-opacity:1;fill-rule:nonzero;stroke:none;stroke-width:0.306221;stroke-opacity:1"
       d="m 365.01542,469.74344 c -41.08751,-0.162 -41.6748,-0.17278 -43.7896,-0.80307 -6.88679,-2.05253 -12.3476,-5.55987 -18.37925,-11.80448 -3.95383,-4.09344 -6.05919,-7.04337 -7.97691,-11.17688 -1.50503,-3.24397 -1.61439,-3.46179 -4.74019,-9.44099 -7.41164,-14.17739 -13.01549,-32.22921 -15.58994,-50.22024 -1.40642,-9.82849 -1.50023,-12.25413 -1.35673,-35.07972 0.0746,-11.86414 0.21638,-23.2873 0.31507,-25.38479 0.174,-3.69769 0.20606,-3.83848 1.05474,-4.63127 0.48141,-0.4497 1.51855,-0.97961 2.30476,-1.17758 1.31183,-0.33032 1.56136,-0.29543 3.03176,0.42397 1.00333,0.49089 1.91521,1.23549 2.43943,1.99193 l 0.83714,1.208 0.86573,19.84144 c 0.94204,21.59046 1.19484,25.02561 2.31649,31.47784 1.085,6.24145 4.31853,21.51232 5.2087,24.59898 1.07646,3.7326 3.36074,8.3394 5.61014,11.3142 2.57216,3.40166 7.79784,8.81426 10.51779,10.89404 5.09296,3.89426 12.51278,8.88054 15.22548,10.23185 2.88572,1.43749 2.93372,1.44914 5.97131,1.44914 2.63027,0 3.27819,-0.10594 4.59332,-0.75105 3.83317,-1.88028 6.08554,-5.71926 8.28388,-14.11922 2.58876,-9.89171 3.70022,-12.5645 7.79133,-18.73621 4.85072,-7.31764 8.99533,-10.40087 16.53732,-12.30236 5.87111,-1.48023 10.18007,-2.05622 16.71281,-2.23405 8.06305,-0.21948 12.67576,0.3149 19.3743,2.24452 6.13023,1.76591 11.50236,6.39406 17.05683,14.69462 2.93459,4.38544 4.18178,7.2355 6.236,14.25045 2.16472,7.3923 2.38997,8.04408 3.73761,10.8149 2.45346,5.04448 7.17525,7.76191 11.97477,6.89159 2.28171,-0.41375 4.02622,-1.16632 6.67379,-2.87902 1.9885,-1.28636 9.37426,-7.43992 12.66285,-10.55026 3.75163,-3.54828 8.61602,-10.14824 11.21432,-15.2155 1.49204,-2.90981 2.31154,-5.5294 5.30877,-16.96978 2.79614,-10.67286 3.97859,-15.82514 4.77889,-20.82303 1.25075,-7.81099 1.32909,-10.62025 0.76636,-27.48123 l -0.52371,-15.69173 0.7905,-1.19452 c 0.86605,-1.30869 3.98252,-3.0981 5.39044,-3.09507 1.49241,0.003 3.14753,0.65535 4.2671,1.68127 l 1.11941,1.02578 0.0927,23.8323 c 0.11343,29.17287 -0.10772,32.93035 -2.6817,45.56348 -0.99436,4.88037 -5.81836,23.81887 -8.27167,32.4737 -3.61697,12.75998 -7.4905,20.44063 -14.2804,28.31592 -9.21614,10.68938 -14.84649,15.06164 -21.09826,16.38391 -2.34114,0.49515 1.30455,0.48815 -82.37345,0.15822 z m 39.60503,-27.84074 c 1.5663,-0.79907 3.62533,-3.102 4.51924,-5.05457 0.40653,-0.88796 1.23638,-4.01258 1.84411,-6.9436 1.26057,-6.07951 1.55742,-11.7181 0.76127,-14.45995 -0.74018,-2.5491 -2.38862,-3.99319 -6.3708,-5.58109 -7.76891,-3.09787 -14.78451,-4.27485 -23.97603,-4.02237 -6.61245,0.18163 -11.12464,0.92638 -15.95792,2.63389 -7.00583,2.47503 -8.50445,3.91353 -9.21172,8.84216 -0.37276,2.59762 -0.0815,5.46391 1.4534,14.30131 1.35019,7.77406 3.22811,10.56463 7.10952,10.56463 2.29374,0 4.37642,-0.7592 9.89731,-3.60785 4.99785,-2.57877 5.12178,-2.62334 7.65552,-2.75333 3.12619,-0.16037 4.19857,0.19744 9.57425,3.19451 2.04541,1.14037 4.54571,2.3811 5.55624,2.75719 2.40501,0.89506 5.53337,0.95157 7.14561,0.12907 z"
       id="path23700" /></g></svg>
