<?xml version="1.0" encoding="UTF-8" standalone="no"?>
<!-- Created with Inkscape (http://www.inkscape.org/) -->

<svg
   width="512px"
   height="384px"
   viewBox="0 0 512 384"
   version="1.1"
   id="SVGRoot"
   sodipodi:docname="Head Front Rebel Trooper.svg"
   xml:space="preserve"
   inkscape:version="1.3.2 (091e20ef0f, 2023-11-25)"
   xmlns:inkscape="http://www.inkscape.org/namespaces/inkscape"
   xmlns:sodipodi="http://sodipodi.sourceforge.net/DTD/sodipodi-0.dtd"
   xmlns="http://www.w3.org/2000/svg"
   xmlns:svg="http://www.w3.org/2000/svg"><sodipodi:namedview
     id="namedview3537"
     pagecolor="#ffffff"
     bordercolor="#000000"
     borderopacity="0.25"
     inkscape:showpageshadow="2"
     inkscape:pageopacity="0.0"
     inkscape:pagecheckerboard="0"
     inkscape:deskcolor="#d1d1d1"
     inkscape:document-units="px"
     showgrid="false"
     inkscape:zoom="1.5055415"
     inkscape:cx="325.7964"
     inkscape:cy="165.7211"
     inkscape:window-width="1912"
     inkscape:window-height="980"
     inkscape:window-x="8"
     inkscape:window-y="0"
     inkscape:window-maximized="0"
     inkscape:current-layer="layer1" /><defs
     id="defs3532" /><g
     inkscape:label="Layer 1"
     inkscape:groupmode="layer"
     id="layer1"><rect
       style="display:inline;fill:#ffc99c;stroke-width:11.3443;stroke-linecap:round;stroke-linejoin:round;fill-opacity:1"
       id="rect3728"
       width="512"
       height="384"
       x="0"
       y="0" /><path
       style="display:inline;fill:#212221;stroke-width:5;stroke-linecap:round;stroke-linejoin:round"
       d="M 0,104 176,312 162,340 2,158 H 0"
       id="path3730"
       sodipodi:nodetypes="ccccc" /><path
       style="display:inline;fill:#212221;stroke-width:5;stroke-linecap:round;stroke-linejoin:round"
       d="m 512,104 -176,208 14,28 160,-182 h 2"
       id="path3732"
       sodipodi:nodetypes="ccccc" /><path
       style="fill:#ffffff;stroke:#212221;stroke-width:5;stroke-linecap:round;stroke-linejoin:round;stroke-opacity:1"
       d="m 164,338 v -24 c 0,0 10.74598,-12.56145 18,-16 15.25189,-7.22971 33.17443,-6.66246 50,-8 16.61425,-1.32074 33.40709,-1.5662 50,0 14.18864,1.33926 28.6526,3.0042 42,8 8.67396,3.24657 24,14 24,14 v 26 c 0,0 -7.49899,7.38237 -12,10 -4.92387,2.86355 -10.48651,4.56966 -16,6 -13.05049,3.38564 -26.55484,4.99722 -40,6 -15.29086,1.14044 -30.72511,1.33745 -46,0 -11.46459,-1.00383 -22.8027,-3.34201 -34,-6 -6.77202,-1.60753 -13.65906,-3.12999 -20,-6 -5.72974,-2.59338 -16,-10 -16,-10 z"
       id="path3736"
       sodipodi:nodetypes="ccaaaaccaaaaaac" /><path
       style="fill:#212221;stroke-width:5;stroke-linecap:round;stroke-linejoin:round"
       d="m 182,314 c 0,0 35.77063,8.32632 54,10 13.27749,1.21903 26.72251,1.21903 40,0 18.22937,-1.67368 54,-10 54,-10 v 22 c 0,0 -34.42864,8.32579 -52,10 -14.60054,1.39115 -29.37603,1.11834 -44,0 -17.48621,-1.33723 -52,-8 -52,-8 z"
       id="path3734"
       sodipodi:nodetypes="caaccaacc" /></g></svg>
