<?xml version="1.0" encoding="UTF-8" standalone="no"?>
<!-- Created with Inkscape (http://www.inkscape.org/) -->

<svg
   width="512"
   height="512"
   viewBox="0 0 512 512"
   version="1.1"
   id="svg5"
   inkscape:version="1.2.2 (b0a8486541, 2022-12-01)"
   sodipodi:docname="Torso Front Rebel Trooper.svg"
   xmlns:inkscape="http://www.inkscape.org/namespaces/inkscape"
   xmlns:sodipodi="http://sodipodi.sourceforge.net/DTD/sodipodi-0.dtd"
   xmlns="http://www.w3.org/2000/svg"
   xmlns:svg="http://www.w3.org/2000/svg">
  <sodipodi:namedview
     id="namedview7"
     pagecolor="#ffffff"
     bordercolor="#666666"
     borderopacity="1.0"
     inkscape:pageshadow="2"
     inkscape:pageopacity="0.0"
     inkscape:pagecheckerboard="0"
     inkscape:document-units="px"
     showgrid="false"
     inkscape:zoom="1.6210937"
     inkscape:cx="282.52531"
     inkscape:cy="226.08193"
     inkscape:window-width="1920"
     inkscape:window-height="1039"
     inkscape:window-x="0"
     inkscape:window-y="0"
     inkscape:window-maximized="1"
     inkscape:current-layer="layer1"
     inkscape:showpageshadow="2"
     inkscape:deskcolor="#d1d1d1" />
  <defs
     id="defs2" />
  <g
     inkscape:label="Layer 1"
     inkscape:groupmode="layer"
     id="layer1">
    <rect
       style="fill:#212221;fill-opacity:1;stroke:none;stroke-width:7.91269;stroke-linecap:round;stroke-linejoin:round"
       id="rect6252"
       width="512"
       height="512"
       x="0"
       y="0"
       inkscape:label="background" />
    <path
       id="path887"
       style="fill:#4eb4e7;fill-opacity:1;stroke:none;stroke-width:1px;stroke-linecap:round;stroke-linejoin:round;stroke-opacity:1"
       d="m 170,40 -18,108 64,-32 z m 188,0 -46,76 62,32 z m -141.9082,93.50195 c -1.52411,0.0554 -2.96321,0.20241 -4.0918,0.49805 -11.83893,3.10122 -23.22573,9.46829 -32,18 -2.78699,2.70994 -5.64607,6.12884 -6,10 L 142,512 H 388 L 354,162 c -0.4324,-4.45118 -2.83772,-8.83772 -6,-12 -8.43274,-8.43274 -20.39333,-13.26004 -32,-16 -3.893,-0.91901 -12,0 -12,0 l -34,58 c -2.36002,4.02592 -11.85603,4.14502 -14,0 l -30,-58 c 0,0 -5.33587,-0.66434 -9.9082,-0.49805 z"
       inkscape:label="shirt" />
    <path
       style="fill:#ffc99c;fill-opacity:1;stroke:none;stroke-width:1px;stroke-linecap:butt;stroke-linejoin:miter;stroke-opacity:1"
       d="m 184,34 h 162 l -74,128 c -2.66935,4.61725 -13.38527,4.6484 -16,0 z"
       id="path4997"
       sodipodi:nodetypes="ccssc"
       inkscape:label="skin" />
  </g>
</svg>
