<?xml version="1.0" encoding="UTF-8" standalone="no"?>
<!-- Created with Inkscape (http://www.inkscape.org/) -->

<svg
   width="512px"
   height="512px"
   viewBox="0 0 512 512"
   version="1.1"
   id="SVGRoot"
   sodipodi:docname="Torso Front Rebel Engineer.svg"
   xml:space="preserve"
   inkscape:version="1.2.2 (b0a8486541, 2022-12-01)"
   xmlns:inkscape="http://www.inkscape.org/namespaces/inkscape"
   xmlns:sodipodi="http://sodipodi.sourceforge.net/DTD/sodipodi-0.dtd"
   xmlns="http://www.w3.org/2000/svg"
   xmlns:svg="http://www.w3.org/2000/svg"><sodipodi:namedview
     id="namedview7815"
     pagecolor="#ffffff"
     bordercolor="#000000"
     borderopacity="0.25"
     inkscape:showpageshadow="2"
     inkscape:pageopacity="0.0"
     inkscape:pagecheckerboard="0"
     inkscape:deskcolor="#d1d1d1"
     inkscape:document-units="px"
     showgrid="false"
     inkscape:zoom="3.3889032"
     inkscape:cx="236.94982"
     inkscape:cy="169.22879"
     inkscape:window-width="1920"
     inkscape:window-height="1039"
     inkscape:window-x="0"
     inkscape:window-y="0"
     inkscape:window-maximized="1"
     inkscape:current-layer="layer1"
     showguides="true"><sodipodi:guide
       position="-95.25,409.5"
       orientation="1,0"
       id="guide8856"
       inkscape:locked="false" /></sodipodi:namedview><defs
     id="defs7810" /><g
     inkscape:label="Layer 1"
     inkscape:groupmode="layer"
     id="layer1"><rect
       style="display:inline;fill:#d6ba84;stroke:none;stroke-width:15.0944;stroke-linecap:round;stroke-linejoin:round"
       id="rect8058"
       width="512"
       height="512"
       x="0"
       y="0" /><path
       style="fill:none;stroke:#212221;stroke-width:10;stroke-linecap:round;stroke-linejoin:round;stroke-dasharray:none;stroke-opacity:1"
       d="m 262,42 h -82 c -8.1377,0 -13.821,11.864265 -14,20 -0.1912,8.690167 5.30773,22 14,22 h 142 c 9.42809,0 20,-10.57191 20,-20 V 42"
       id="path8538"
       sodipodi:nodetypes="csasssc"
       inkscape:label="collar" /><path
       style="fill:#212221;stroke:none;stroke-width:10;stroke-linecap:round;stroke-linejoin:round;stroke-dasharray:none;stroke-opacity:1"
       d="m 230,88 h 31 V 392 H 249 V 106 Z"
       id="path8781"
       sodipodi:nodetypes="cccccc"
       inkscape:label="zipper" /><path
       id="path8846"
       style="display:inline;fill:#63635a;stroke:none;stroke-width:10;stroke-linecap:round;stroke-linejoin:round;stroke-dasharray:none;stroke-opacity:1"
       d="M 119 123 L 119 217 L 132 228 L 216 228 L 230 217 L 230 123 L 119 123 z M 126 135 L 222 135 L 222 160 L 126 160 L 126 135 z M 126 169 L 152 169 L 152 220 L 137 220 L 126 211 L 126 169 z M 160 169 L 189 169 L 189 220 L 160 220 L 160 169 z M 197 169 L 223 169 L 223 211 L 212 220 L 197 220 L 197 169 z "
       inkscape:label="pocketR" /><path
       id="path8858"
       style="display:inline;fill:#63635a;stroke:none;stroke-width:10;stroke-linecap:round;stroke-linejoin:round;stroke-dasharray:none;stroke-opacity:1"
       d="M 304 123 L 304 217 L 317 228 L 401 228 L 415 217 L 415 123 L 304 123 z M 311 135 L 407 135 L 407 160 L 311 160 L 311 135 z M 311 169 L 337 169 L 337 220 L 322 220 L 311 211 L 311 169 z M 345 169 L 374 169 L 374 220 L 345 220 L 345 169 z M 382 169 L 408 169 L 408 211 L 397 220 L 382 220 L 382 169 z "
       inkscape:label="pocketL" /><g
       id="g3185"
       inkscape:label="jacketdetail"><path
         style="fill:none;stroke:#63635a;stroke-width:6;stroke-linecap:round;stroke-linejoin:round;stroke-dasharray:none;stroke-opacity:1"
         d="m 102.5,291 v 89 H 115"
         id="path8868"
         sodipodi:nodetypes="ccc"
         inkscape:label="jacketdetail1" /><path
         style="fill:none;stroke:#63635a;stroke-width:6;stroke-linecap:round;stroke-linejoin:round;stroke-dasharray:none;stroke-opacity:1"
         d="m 152.5,291 v 89 H 165"
         id="path9059"
         sodipodi:nodetypes="ccc"
         inkscape:label="jacketdetail2" /><path
         style="fill:none;stroke:#63635a;stroke-width:6;stroke-linecap:round;stroke-linejoin:round;stroke-dasharray:none;stroke-opacity:1"
         d="m 202.5,291 v 89 H 215"
         id="path9061"
         sodipodi:nodetypes="ccc"
         inkscape:label="jacketdetail3" /><path
         style="fill:none;stroke:#63635a;stroke-width:6;stroke-linecap:round;stroke-linejoin:round;stroke-dasharray:none;stroke-opacity:1"
         d="m 316.5,291 v 89 H 329"
         id="path9063"
         sodipodi:nodetypes="ccc"
         inkscape:label="jacketdetail4" /><path
         style="fill:none;stroke:#63635a;stroke-width:6;stroke-linecap:round;stroke-linejoin:round;stroke-dasharray:none;stroke-opacity:1"
         d="m 366.5,291 v 89 H 379"
         id="path9065"
         sodipodi:nodetypes="ccc"
         inkscape:label="jacketdetail5" /><path
         style="fill:none;stroke:#63635a;stroke-width:6;stroke-linecap:round;stroke-linejoin:round;stroke-dasharray:none;stroke-opacity:1"
         d="m 416.5,291 v 89 H 429"
         id="path9067"
         sodipodi:nodetypes="ccc"
         inkscape:label="jacketdetail6" /></g><path
       id="path9184"
       style="fill:#980000;stroke:none;stroke-width:6;stroke-linecap:round;stroke-linejoin:round;stroke-dasharray:none;stroke-opacity:1"
       d="M 45.5 419.5 L 45.5 455.5 L 125.62695 455.64648 L 126 419.5 L 45.5 419.5 z M 155.5 419.5 L 155.5 455.5 L 351.62695 455.64648 L 352 419.5 L 155.5 419.5 z M 375.5 419.5 L 375.5 455.5 L 455.62695 455.64648 L 456 419.5 L 375.5 419.5 z "
       inkscape:label="belt" /></g></svg>
