<?xml version="1.0" encoding="UTF-8" standalone="no"?>
<!-- Created with Inkscape (http://www.inkscape.org/) -->

<svg
   width="512px"
   height="512px"
   viewBox="0 0 512 512"
   version="1.1"
   id="SVGRoot"
   sodipodi:docname="Torso Front Luke Skywalker.svg"
   inkscape:version="1.1.2 (0a00cf5339, 2022-02-04)"
   xmlns:inkscape="http://www.inkscape.org/namespaces/inkscape"
   xmlns:sodipodi="http://sodipodi.sourceforge.net/DTD/sodipodi-0.dtd"
   xmlns="http://www.w3.org/2000/svg"
   xmlns:svg="http://www.w3.org/2000/svg">
  <sodipodi:namedview
     id="namedview829"
     pagecolor="#ffffff"
     bordercolor="#666666"
     borderopacity="1.0"
     inkscape:pageshadow="2"
     inkscape:pageopacity="0.0"
     inkscape:pagecheckerboard="0"
     inkscape:document-units="px"
     showgrid="false"
     inkscape:zoom="1.4574355"
     inkscape:cx="275.82696"
     inkscape:cy="274.45469"
     inkscape:window-width="1920"
     inkscape:window-height="996"
     inkscape:window-x="1920"
     inkscape:window-y="0"
     inkscape:window-maximized="1"
     inkscape:current-layer="layer1" />
  <defs
     id="defs824" />
  <g
     inkscape:label="Layer 1"
     inkscape:groupmode="layer"
     id="layer1">
    <rect
       style="display:inline;fill:#ffffff;stroke-width:26.8723;stroke-linecap:round"
       id="rect948"
       width="512"
       height="512"
       x="0"
       y="0" />
    <path
       style="display:inline;fill:#a9a8a1;fill-opacity:1;stroke:none;stroke-width:1px;stroke-linecap:butt;stroke-linejoin:miter;stroke-opacity:1"
       d="m 116,73 c 0,0 -1.51379,1.900891 -2,3 -2.78003,6.284398 -3.98137,13.204074 -5,20 -1.88021,12.54407 -2,38 -2,38 -0.11753,2.23298 5,5 6,3 0,0 1.51621,-2.58998 2,-4 1.65482,-4.82303 1.34518,-10.17697 3,-15 1.45137,-4.23007 3.66934,-8.18319 6,-12 6.46264,-10.583577 15.53736,-19.416423 22,-30 1.16533,-1.908406 3,-6 3,-6 1.05409,-2.108185 -3.64074,-6.925612 -5,-5 l -24,34 h -3 c 0,0 -0.45787,-3.39746 0,-5 l 6,-21 c 0.64102,-2.243556 -5.7057,-1.941451 -7,0 z"
       id="path1198"
       sodipodi:nodetypes="saassaaaassccsss" />
    <path
       style="display:inline;fill:#a9a8a1;fill-opacity:1;stroke:none;stroke-width:1px;stroke-linecap:butt;stroke-linejoin:miter;stroke-opacity:1"
       d="m 407,52 c 1.50923,-1.509231 5.0286,3.129827 4,5 0,0 -6.61182,13.784471 -11,20 -11.57495,16.395069 -26.23181,30.39812 -40,45 -8.08496,8.57452 -16.40259,16.93939 -25,25 -10.68295,10.01594 -21.89747,19.45126 -33,29 -5.72154,4.92082 -17.32118,14.57845 -17.32118,14.57845 C 282.45956,192.4463 276.36594,187.39662 278,185 c 0,0 9.95497,-14.69757 15,-22 9.25111,-13.39051 19.04645,-26.40872 28,-40 4.52905,-6.87499 9.58904,-13.50713 13,-21 1.40165,-3.079006 3,-9.695566 3,-9.695566 0.64811,-2.094588 6.47563,0.555212 6,2.695566 0,0 -0.85985,6.14614 -2,9 -2.37563,5.9463 -6.53612,11.01385 -9.90126,16.4616 C 325.17885,130.04515 319.66143,139.91624 313,149 l -11,15 c -0.62335,0.85003 2.2165,1.70515 3,1 l 10,-9 c 5.78413,-5.20571 11.41476,-10.58145 17,-16 9.47363,-9.1909 18.93423,-18.40656 28,-28 8.59384,-9.09404 17.29265,-18.143411 25,-28 5.4673,-6.991885 10.50514,-14.346637 15,-22 1.1324,-1.928126 1.69255,-4.186007 3,-6 1.10254,-1.529693 4,-4 4,-4 z"
       id="path9423"
       sodipodi:nodetypes="ssaaaassaaassaassssaaaaas" />
    <path
       style="fill:#a9a8a1;fill-opacity:1;stroke:none;stroke-width:1px;stroke-linecap:butt;stroke-linejoin:miter;stroke-opacity:1"
       d="m 437,198 c 1.23184,-0.51024 2.94906,-0.82055 4,0 1.08328,0.8458 1.28031,2.65452 1,4 0,0 -2.7646,16.13993 -5,24 -2.13456,7.5055 -5.10138,14.75522 -8,22 -2.16248,5.40487 -4.6231,10.68594 -7,16 -5.23768,11.70992 -10.35517,23.48082 -16,35 -3.47729,7.09598 -11,21 -11,21 -0.77334,1.47639 -3.58225,0.87622 -5,0 -1.26808,-0.78371 -2.1849,-2.5208 -2,-4 0,0 0.53057,-5.3539 1,-8 1.55365,-8.7577 4.22654,-17.28416 6,-26 1.14734,-5.63868 1.65985,-11.40401 3,-17 1.86642,-7.7935 7,-23 7,-23 0.69987,-2.29956 6.53271,1.65607 6,4 0,0 -3.7902,14.57761 -5,22 -0.53891,3.30633 -1,10 -1,10 -0.0995,0.99504 2.75746,0.97014 3,0 0,0 0.52317,-2.711 1,-4 1.29299,-3.49529 3.3856,-6.64104 5,-10 2.06744,-4.30157 4.091,-8.62582 6,-13 2.45125,-5.61667 4.91738,-11.23647 7,-17 1.89891,-5.25513 3.83521,-10.53507 5,-16 1.1894,-5.5804 2,-17 2,-17 0,0 1.69344,-2.4588 3,-3 z"
       id="path15177"
       sodipodi:nodetypes="aasaaaasasaaassassaaaaaca" />
    <path
       style="display:inline;fill:#a9a8a1;fill-opacity:1;stroke:none;stroke-width:1px;stroke-linecap:butt;stroke-linejoin:miter;stroke-opacity:1"
       d="m 165,291 c 0.13036,-1.69467 5,-0.69967 5,1 0,0 0.42715,5.36777 0,8 -0.84423,5.20241 -3.52644,9.93972 -5,15 -1.53703,5.27824 -2.09267,10.844 -4,16 -2.06879,5.59247 -5.02774,10.83074 -8,16 -5.76055,10.01856 -13.39663,18.89268 -19,29 -2.31406,4.17408 -6,13 -6,13 -0.50364,1.09123 -1.84972,1.65172 -3,2 -0.95709,0.28978 -2.07612,0.38268 -3,0 -0.87104,-0.3608 -1.6392,-1.12896 -2,-2 -0.38268,-0.92388 -0.51449,-2.14251 0,-3 0,0 2,-3.33333 3,-5 2,-3.33333 3.92127,-6.71519 6,-10 1.28538,-2.03115 2.74864,-3.94771 4,-6 1.78663,-2.93014 3.13276,-6.12056 5,-9 1.81362,-2.79676 4.14004,-5.23384 6,-8 2.16907,-3.22587 4.20726,-6.55077 6,-10 1.51402,-2.91299 2.72348,-5.97539 4,-9 0.69798,-1.6538 1.35149,-3.32619 2,-5 1.02892,-2.65564 2.04953,-5.31528 3,-8 0.70357,-1.98732 1.19323,-4.05229 2,-6 0.85571,-2.06586 2.40312,-3.84507 3,-6 1.16013,-4.18844 1,-13 1,-13 z"
       id="path18820"
       sodipodi:nodetypes="ssaaaaasaaasaaaaaaaaaaas" />
    <path
       style="display:inline;fill:#ad5500;fill-opacity:1;stroke:none;stroke-width:1px;stroke-linecap:butt;stroke-linejoin:miter;stroke-opacity:1"
       d="m 37,426 -6,29 h 456 l -2,-29 z"
       id="path23781"
       sodipodi:nodetypes="ccccc" />
    <path
       style="display:inline;fill:none;stroke:#212321;stroke-width:10;stroke-linecap:round;stroke-linejoin:miter;stroke-miterlimit:4;stroke-dasharray:none;stroke-opacity:1"
       d="M 42,426 H 480"
       id="path21475"
       sodipodi:nodetypes="cc" />
    <path
       style="display:inline;fill:#212321;fill-opacity:1;stroke:none;stroke-width:1px;stroke-linecap:butt;stroke-linejoin:miter;stroke-opacity:1"
       d="m 100,478 c 0,0 -7.61998,-2.6884 -8,-6 l -7,-61 c 0,0 0.891661,-4.20667 2,-6 2.230488,-3.60901 9,-9 9,-9 h 44 c 0,0 6.76951,5.39099 9,9 1.10834,1.79333 2,6 2,6 l -7,61 c -0.38002,3.3116 -8,6 -8,6 z"
       id="path27320"
       sodipodi:nodetypes="cscaccacscc" />
    <path
       style="display:inline;fill:none;stroke:#212321;stroke-width:6;stroke-linecap:round;stroke-linejoin:miter;stroke-miterlimit:4;stroke-dasharray:none;stroke-opacity:1"
       d="M 34,455 H 484"
       id="path22963"
       sodipodi:nodetypes="cc" />
    <path
       style="display:inline;fill:#a9a8a1;fill-opacity:1;stroke:#212321;stroke-width:10;stroke-linecap:butt;stroke-linejoin:round;stroke-miterlimit:4;stroke-dasharray:none;stroke-opacity:1"
       d="m 207.08577,422.91423 28,-16 h 62 l 28,16 v 34 l -24.69755,16 h -65.30245 l -28,-14 z"
       id="path24390"
       sodipodi:nodetypes="ccccccccc" />
    <circle
       style="fill:#a9a8a1;fill-opacity:1;stroke:none;stroke-width:9.7284;stroke-linecap:round;stroke-linejoin:round;stroke-miterlimit:4;stroke-dasharray:none;stroke-opacity:1"
       id="path30020"
       cx="100.5"
       cy="416.5"
       r="4.5" />
    <circle
       style="fill:#a9a8a1;fill-opacity:1;stroke:none;stroke-width:9.7284;stroke-linecap:round;stroke-linejoin:round;stroke-miterlimit:4;stroke-dasharray:none;stroke-opacity:1"
       id="circle30120"
       cx="136.5"
       cy="416.5"
       r="4.5" />
    <circle
       style="fill:#a9a8a1;fill-opacity:1;stroke:none;stroke-width:9.7284;stroke-linecap:round;stroke-linejoin:round;stroke-miterlimit:4;stroke-dasharray:none;stroke-opacity:1"
       id="circle30122"
       cx="119.5"
       cy="452.5"
       r="4.5" />
    <path
       style="display:inline;fill:#212321;fill-opacity:1;stroke:none;stroke-width:1px;stroke-linecap:butt;stroke-linejoin:miter;stroke-opacity:1"
       d="m 368,468 v -57 c 0,-1.88562 2.11438,-4 4,-4 h 90 c 1.88562,0 4,2.11438 4,4 v 57 c 0,1.88562 -2.11438,4 -4,4 h -90 c -1.88562,0 -4,-2.11438 -4,-4 z"
       id="path30256"
       sodipodi:nodetypes="sssssssss" />
    <path
       style="fill:#a9a8a1;fill-opacity:1;stroke:none;stroke-width:1px;stroke-linecap:butt;stroke-linejoin:miter;stroke-opacity:1"
       d="m 387.5,457 c 2.35702,0 5,-2.64298 5,-5 v -26 c 0,-2.24227 -2.75773,-4.5 -5,-4.5 -2.24227,0 -5,2.25773 -5,4.5 v 26 c 0,2.35702 2.64298,5 5,5 z"
       id="path31661"
       sodipodi:nodetypes="assassa" />
    <path
       style="fill:#a9a8a1;fill-opacity:1;stroke:none;stroke-width:1px;stroke-linecap:butt;stroke-linejoin:miter;stroke-opacity:1"
       d="m 417.5,457 c 2.35702,0 5,-2.64298 5,-5 v -26 c 0,-2.24227 -2.75773,-4.5 -5,-4.5 -2.24227,0 -5,2.25773 -5,4.5 v 26 c 0,2.35702 2.64298,5 5,5 z"
       id="path32541"
       sodipodi:nodetypes="assassa" />
    <path
       style="fill:#a9a8a1;fill-opacity:1;stroke:none;stroke-width:1px;stroke-linecap:butt;stroke-linejoin:miter;stroke-opacity:1"
       d="m 447.5,457 c 2.35702,0 5,-2.64298 5,-5 v -26 c 0,-2.24227 -2.75773,-4.5 -5,-4.5 -2.24227,0 -5,2.25773 -5,4.5 v 26 c 0,2.35702 2.64298,5 5,5 z"
       id="path32543"
       sodipodi:nodetypes="assassa" />
    <path
       style="fill:#ffc99c;fill-opacity:1;stroke:none;stroke-width:1px;stroke-linecap:butt;stroke-linejoin:miter;stroke-opacity:1"
       d="M 186,47 H 334 L 288,70 234,100 206,66 Z"
       id="path37443"
       sodipodi:nodetypes="cccccc" />
    <path
       style="fill:none;stroke:#212321;stroke-width:10;stroke-linecap:round;stroke-linejoin:miter;stroke-miterlimit:4;stroke-dasharray:none;stroke-opacity:1"
       d="m 49,339 c 0,0 6.001386,-16.80049 9.5,-25 2.896515,-6.7884 6.013944,-13.49465 9.5,-20 11.934613,-22.27127 24.803215,-44.09795 39,-65 8.01623,-11.80236 16.89771,-23.01347 26,-34 8.28287,-9.99748 16.88151,-19.75832 26,-29 12.09496,-12.25836 24.93517,-23.78101 38,-35 11.33494,-9.73351 22.73327,-19.47066 35,-28 12.76639,-8.876768 26.42928,-16.409647 40,-24 8.19754,-4.585036 16.555,-8.888539 25,-13 10.86394,-5.289123 21.77381,-10.530926 33,-15 10.47943,-4.171792 32,-11 32,-11"
       id="path32600"
       sodipodi:nodetypes="caaaaaaaaaac" />
    <path
       style="display:inline;fill:none;stroke:#212321;stroke-width:10;stroke-linecap:round;stroke-linejoin:miter;stroke-miterlimit:4;stroke-dasharray:none;stroke-opacity:1"
       d="m 232,102 c 0,0 -2.99144,-6.860801 -5,-10 -3.45099,-5.393579 -7.79112,-10.17451 -12,-15 -6.04429,-6.929798 -11.96411,-14.079545 -19,-20 -5.51759,-4.642861 -11.61801,-8.642881 -18,-12 -3.17733,-1.671371 -10,-4 -10,-4"
       id="path33414"
       sodipodi:nodetypes="caaaac" />
    <path
       style="fill:none;stroke:#a9a8a1;stroke-width:6;stroke-linecap:round;stroke-linejoin:miter;stroke-miterlimit:4;stroke-dasharray:none;stroke-opacity:1"
       d="m 44,392 2,-2"
       id="path37849"
       sodipodi:nodetypes="cc" />
    <path
       style="fill:none;stroke:#a9a8a1;stroke-width:6;stroke-linecap:round;stroke-linejoin:miter;stroke-miterlimit:4;stroke-dasharray:none;stroke-opacity:1"
       d="m 55,360 1,-2"
       id="path38332"
       sodipodi:nodetypes="cc" />
    <path
       style="fill:none;stroke:#a9a8a1;stroke-width:6;stroke-linecap:round;stroke-linejoin:miter;stroke-miterlimit:4;stroke-dasharray:none;stroke-opacity:1"
       d="m 66,326 1,-2"
       id="path38623"
       sodipodi:nodetypes="cc" />
    <path
       style="fill:none;stroke:#a9a8a1;stroke-width:6;stroke-linecap:round;stroke-linejoin:miter;stroke-miterlimit:4;stroke-dasharray:none;stroke-opacity:1"
       d="m 82,296 2,-2"
       id="path38625"
       sodipodi:nodetypes="cc" />
    <path
       style="fill:none;stroke:#a9a8a1;stroke-width:6;stroke-linecap:round;stroke-linejoin:miter;stroke-miterlimit:4;stroke-dasharray:none;stroke-opacity:1"
       d="m 99,265 2,-2"
       id="path38627"
       sodipodi:nodetypes="cc" />
    <path
       style="fill:none;stroke:#a9a8a1;stroke-width:6;stroke-linecap:round;stroke-linejoin:miter;stroke-miterlimit:4;stroke-dasharray:none;stroke-opacity:1"
       d="m 118,237 2,-2"
       id="path38629"
       sodipodi:nodetypes="cc" />
    <path
       style="fill:none;stroke:#a9a8a1;stroke-width:6;stroke-linecap:round;stroke-linejoin:miter;stroke-miterlimit:4;stroke-dasharray:none;stroke-opacity:1"
       d="m 139,211 2,-2"
       id="path38631"
       sodipodi:nodetypes="cc" />
    <path
       style="fill:none;stroke:#a9a8a1;stroke-width:6;stroke-linecap:round;stroke-linejoin:miter;stroke-miterlimit:4;stroke-dasharray:none;stroke-opacity:1"
       d="m 162,186 2,-2"
       id="path38633"
       sodipodi:nodetypes="cc" />
    <path
       style="fill:none;stroke:#a9a8a1;stroke-width:6;stroke-linecap:round;stroke-linejoin:miter;stroke-miterlimit:4;stroke-dasharray:none;stroke-opacity:1"
       d="m 186,162 2,-2"
       id="path38635"
       sodipodi:nodetypes="cc" />
    <path
       style="fill:none;stroke:#a9a8a1;stroke-width:6;stroke-linecap:round;stroke-linejoin:miter;stroke-miterlimit:4;stroke-dasharray:none;stroke-opacity:1"
       d="m 212,140 2,-2"
       id="path38637"
       sodipodi:nodetypes="cc" />
    <path
       style="fill:none;stroke:#a9a8a1;stroke-width:6;stroke-linecap:round;stroke-linejoin:miter;stroke-miterlimit:4;stroke-dasharray:none;stroke-opacity:1"
       d="m 238,122 2,-2"
       id="path38639"
       sodipodi:nodetypes="cc" />
    <path
       style="fill:none;stroke:#a9a8a1;stroke-width:6;stroke-linecap:round;stroke-linejoin:miter;stroke-miterlimit:4;stroke-dasharray:none;stroke-opacity:1"
       d="m 266,104 2,-2"
       id="path38641"
       sodipodi:nodetypes="cc" />
    <path
       style="fill:none;stroke:#a9a8a1;stroke-width:6;stroke-linecap:round;stroke-linejoin:miter;stroke-miterlimit:4;stroke-dasharray:none;stroke-opacity:1"
       d="m 294,88 2,-2"
       id="path38643"
       sodipodi:nodetypes="cc" />
    <path
       style="fill:none;stroke:#a9a8a1;stroke-width:6;stroke-linecap:round;stroke-linejoin:miter;stroke-miterlimit:4;stroke-dasharray:none;stroke-opacity:1"
       d="m 322,72 h 2"
       id="path38645"
       sodipodi:nodetypes="cc" />
    <path
       style="fill:none;stroke:#a9a8a1;stroke-width:6;stroke-linecap:round;stroke-linejoin:miter;stroke-miterlimit:4;stroke-dasharray:none;stroke-opacity:1"
       d="m 352,60 h 2"
       id="path38647"
       sodipodi:nodetypes="cc" />
    <path
       style="fill:none;stroke:#a9a8a1;stroke-width:6;stroke-linecap:round;stroke-linejoin:miter;stroke-miterlimit:4;stroke-dasharray:none;stroke-opacity:1"
       d="m 382,52 2,-2"
       id="path38649"
       sodipodi:nodetypes="cc" />
  </g>
</svg>
