<?xml version="1.0" encoding="UTF-8" standalone="no"?>
<!-- Created with Inkscape (http://www.inkscape.org/) -->

<svg
   width="512px"
   height="512px"
   viewBox="0 0 512 512"
   version="1.1"
   id="SVGRoot"
   sodipodi:docname="Torso Front Medic.svg"
   xml:space="preserve"
   inkscape:version="1.2.2 (b0a8486541, 2022-12-01)"
   xmlns:inkscape="http://www.inkscape.org/namespaces/inkscape"
   xmlns:sodipodi="http://sodipodi.sourceforge.net/DTD/sodipodi-0.dtd"
   xmlns="http://www.w3.org/2000/svg"
   xmlns:svg="http://www.w3.org/2000/svg"><sodipodi:namedview
     id="namedview577"
     pagecolor="#ffffff"
     bordercolor="#000000"
     borderopacity="0.25"
     inkscape:showpageshadow="2"
     inkscape:pageopacity="0.0"
     inkscape:pagecheckerboard="0"
     inkscape:deskcolor="#d1d1d1"
     inkscape:document-units="px"
     showgrid="false"
     inkscape:zoom="1.5055415"
     inkscape:cx="222.5113"
     inkscape:cy="243.76611"
     inkscape:window-width="1912"
     inkscape:window-height="1011"
     inkscape:window-x="1924"
     inkscape:window-y="28"
     inkscape:window-maximized="0"
     inkscape:current-layer="layer1"
     showguides="false" /><defs
     id="defs572" /><g
     inkscape:label="Layer 1"
     inkscape:groupmode="layer"
     id="layer1"><rect
       style="display:inline;fill:#007f35;stroke-width:41.2163;stroke-linejoin:round"
       id="rect725"
       width="512"
       height="512"
       x="0"
       y="0" /><path
       style="fill:#212221;stroke:none;stroke-width:5;stroke-linecap:round;stroke-linejoin:round;stroke-dasharray:none;stroke-opacity:1"
       d="m 200,28 h 106 c 5.33333,0 1.12887,10.787485 10e-5,16 -0.75699,3.495653 -2.46479,6.78632 -4.43909,9.768729 C 299.50449,56.87534 297.12696,59.974553 294,62 c -8.84711,5.7306 -19.59518,8.311531 -30,10 -7.23864,1.17467 -14.76136,1.17467 -22,0 -10.40482,-1.688469 -21.03335,-4.458307 -30,-10 -3.20801,-1.982656 -5.92397,-4.851617 -8,-8 -1.97632,-2.997171 -3.32108,-6.474669 -4,-10 -1.00857,-5.237101 -5.33333,-16 0,-16 z"
       id="path1507"
       sodipodi:nodetypes="ssaaaaaaaas" /><path
       style="fill:#004465;stroke:none;stroke-width:5;stroke-linecap:round;stroke-linejoin:round;stroke-dasharray:none;stroke-opacity:1"
       d="M 28,476 V 300 L 46,268 90,228 58,476 Z"
       id="path1572"
       sodipodi:nodetypes="cccccc" /><path
       style="fill:#004465;stroke:none;stroke-width:5;stroke-linecap:round;stroke-linejoin:round;stroke-dasharray:none;stroke-opacity:1"
       d="M 472,476 V 300 l -18,-32 -44,-40 32,248 z"
       id="path3026"
       sodipodi:nodetypes="cccccc" /><path
       style="fill:#004465;stroke:none;stroke-width:5;stroke-linecap:round;stroke-linejoin:round;stroke-dasharray:none;stroke-opacity:1"
       d="m 136,200 -24,168 c 0,0 38.47989,-24.88223 60,-32 25.60102,-8.46753 53.03505,-11.95173 80,-12 27.62442,-0.0494 55.81934,3.18612 82,12 20.9266,7.04507 58,32 58,32 L 367,200 c 0,0 -29.49698,-12.3805 -45,-16 -22.22529,-5.18895 -45.17704,-8.04011 -68,-8 -22.16099,0.0389 -44.32381,3.38982 -66,8 -17.73853,3.7727 -52,16 -52,16 z"
       id="path3082"
       sodipodi:nodetypes="ccaaaccaaac" /><path
       style="fill:none;stroke:#212221;stroke-width:7.5;stroke-linecap:round;stroke-linejoin:round;stroke-dasharray:none;stroke-opacity:1"
       d="m 388,31 c 0,0 -2.28904,17.979972 -2,27 0.77605,24.217945 3.58642,48.67906 10,72 8.80785,32.02695 26.3779,59.74726 42,92 11.90632,24.58129 22.56096,49.68034 33,75"
       id="path1442"
       sodipodi:nodetypes="cassc" /><path
       style="fill:none;stroke:#212221;stroke-width:7.5;stroke-linecap:round;stroke-linejoin:round;stroke-dasharray:none;stroke-opacity:1"
       d="m 118,31 c 0,0 2.28904,17.979972 2,27 -0.77605,24.217945 -3.58642,48.67906 -10,72 -8.80785,32.02695 -26.377898,59.74726 -42,92 -11.906316,24.58129 -24.560957,49.68034 -35,75"
       id="path790"
       sodipodi:nodetypes="cassc" /><path
       style="fill:none;stroke:#212221;stroke-width:5;stroke-linecap:round;stroke-linejoin:round;stroke-dasharray:none;stroke-opacity:1"
       d="m 132,30 c 0.17465,25.546896 -0.55934,51.317387 -5,78 l 13,-6 c 24.93537,-28.463007 30.22371,-50.864582 30,-70"
       id="path3086"
       sodipodi:nodetypes="cccc" /><path
       style="fill:none;stroke:#212221;stroke-width:5;stroke-linecap:round;stroke-linejoin:round;stroke-dasharray:none;stroke-opacity:1"
       d="m 375,30 c -0.17465,25.546896 0.55934,51.317387 5,78 l -14.49672,-6 C 340.56792,73.536993 336.273,51.135418 336.49671,32"
       id="path3151"
       sodipodi:nodetypes="cccc" /><path
       style="fill:none;stroke:#212221;stroke-width:5;stroke-linecap:round;stroke-linejoin:round;stroke-dasharray:none;stroke-opacity:1"
       d="m 182,31 c 0,0 -1.56835,22.943649 3,33 4.19304,9.230179 12.33827,16.73196 21,22 9.14141,5.559783 20.11117,9 30.81054,9 H 270 c 10.4403,0 21.03683,-3.646351 30,-9 8.90358,-5.318058 17.60113,-12.608223 22,-22 4.68495,-10.002562 3,-33 3,-33"
       id="path3153"
       sodipodi:nodetypes="caassaac" /><path
       style="fill:none;stroke:#212221;stroke-width:5;stroke-linecap:square;stroke-linejoin:round;stroke-dasharray:none;stroke-opacity:1"
       d="m 238,96 v 45 h 31 V 96"
       id="path3155"
       sodipodi:nodetypes="cccc" /><path
       style="fill:none;stroke:#212221;stroke-width:5;stroke-linecap:square;stroke-linejoin:round;stroke-dasharray:none;stroke-opacity:1"
       d="m 110,132 c 0,0 28.14003,-10.96875 40,-20 7.13572,-5.43378 12.74508,-12.731554 18,-20 6.29815,-8.71142 16,-28 16,-28"
       id="path3157"
       sodipodi:nodetypes="caac" /><path
       style="fill:none;stroke:#212221;stroke-width:5;stroke-linecap:square;stroke-linejoin:round;stroke-dasharray:none;stroke-opacity:1"
       d="m 396.02825,132 c 0,0 -28.14003,-10.96875 -40,-20 -7.13572,-5.43378 -12.94878,-12.588551 -18,-20 -5.87679,-8.622771 -14,-28 -14,-28"
       id="path3159"
       sodipodi:nodetypes="caac" /><path
       style="fill:none;stroke:#212221;stroke-width:7.5;stroke-linecap:square;stroke-linejoin:round;stroke-dasharray:none;stroke-opacity:1"
       d="m 68,224 c 0,0 31.976807,-26.15407 50,-36 23.90159,-13.05725 49.63411,-23.17228 76,-30 12.36788,-3.20279 25.25148,-4.16488 38,-5 13.97006,-0.91514 28.02705,-0.86992 42,0 13.41113,0.83495 26.98116,1.67355 40,5 26.38784,6.74236 52.22671,16.71059 76,30 17.45752,9.75885 48,36 48,36"
       id="path3161"
       sodipodi:nodetypes="caaaaaac" /><path
       style="fill:none;stroke:#212221;stroke-width:7.5;stroke-linecap:square;stroke-linejoin:round;stroke-dasharray:none;stroke-opacity:1"
       d="m 46,268 c 0,0 44.948651,-44.37232 72,-60 23.37732,-13.50518 49.78817,-21.53247 76,-28 12.40384,-3.06054 25.25148,-4.16488 38,-5 13.97006,-0.91514 28.02705,-0.86992 42,0 13.41113,0.83495 26.94381,1.82329 40,5 26.23262,6.38267 52.92921,13.97761 76,28 26.21205,15.93164 68,62 68,62"
       id="path3891"
       sodipodi:nodetypes="caaaaaac" /><path
       style="fill:none;stroke:#212221;stroke-width:7.5;stroke-linecap:round;stroke-linejoin:round;stroke-dasharray:none;stroke-opacity:1"
       d="m 64,430 c 0,0 29.219338,-45.47569 50,-62 19.13678,-15.21714 42.60475,-24.89788 66,-32 23.18558,-7.03847 47.76967,-9.95536 72,-10 24.89083,-0.0459 50.21338,2.6684 74,10 22.79325,7.02543 45.48326,16.96607 64,32 19.15666,15.55349 46,58 46,58"
       id="path3960"
       sodipodi:nodetypes="caaaaac" /><path
       style="fill:none;stroke:#212221;stroke-width:7.5;stroke-linecap:butt;stroke-linejoin:round;stroke-dasharray:none;stroke-opacity:1"
       d="M 62,438 92,228"
       id="path5414"
       sodipodi:nodetypes="cc" /><path
       style="fill:none;stroke:#212221;stroke-width:7.5;stroke-linecap:butt;stroke-linejoin:round;stroke-dasharray:none;stroke-opacity:1"
       d="M 438,438 408,222"
       id="path5416"
       sodipodi:nodetypes="cc" /><path
       style="fill:none;stroke:#212221;stroke-width:7.5;stroke-linecap:butt;stroke-linejoin:round;stroke-dasharray:none;stroke-opacity:1"
       d="M 136,200 112,370"
       id="path5418"
       sodipodi:nodetypes="cc" /><path
       style="fill:none;stroke:#212221;stroke-width:7.5;stroke-linecap:butt;stroke-linejoin:round;stroke-dasharray:none;stroke-opacity:1"
       d="m 368,200 24,170"
       id="path5420"
       sodipodi:nodetypes="cc" /><path
       style="fill:none;stroke:#212221;stroke-width:7.5;stroke-linecap:round;stroke-linejoin:round;stroke-dasharray:none;stroke-opacity:1"
       d="m 64,474 c 0,0 31.530807,-29.30213 50,-40 20.46097,-11.85157 43.12889,-19.99804 66,-26 23.4368,-6.15041 47.76967,-9.95536 72,-10 24.89083,-0.0459 50.03338,3.28011 74,10 22.42101,6.28652 44.0065,16.0634 64,28 16.71796,9.98102 46,36 46,36"
       id="path5422"
       sodipodi:nodetypes="caaaaac" /></g></svg>
