<?xml version="1.0" encoding="UTF-8" standalone="no"?>
<!-- Created with Inkscape (http://www.inkscape.org/) -->

<svg
   width="512px"
   height="512px"
   viewBox="0 0 512 512"
   version="1.1"
   id="SVGRoot"
   sodipodi:docname="Face Mos Eisley Citizen (Smile).svg"
   xml:space="preserve"
   inkscape:version="1.1.2 (0a00cf5339, 2022-02-04)"
   xmlns:inkscape="http://www.inkscape.org/namespaces/inkscape"
   xmlns:sodipodi="http://sodipodi.sourceforge.net/DTD/sodipodi-0.dtd"
   xmlns="http://www.w3.org/2000/svg"
   xmlns:svg="http://www.w3.org/2000/svg"><sodipodi:namedview
     id="namedview618"
     pagecolor="#ffffff"
     bordercolor="#000000"
     borderopacity="0.25"
     inkscape:showpageshadow="2"
     inkscape:pageopacity="0.0"
     inkscape:pagecheckerboard="0"
     inkscape:deskcolor="#d1d1d1"
     inkscape:document-units="px"
     showgrid="false"
     inkscape:zoom="2.1291572"
     inkscape:cx="229.66834"
     inkscape:cy="257.8485"
     inkscape:window-width="1912"
     inkscape:window-height="996"
     inkscape:window-x="1924"
     inkscape:window-y="0"
     inkscape:window-maximized="0"
     inkscape:current-layer="layer1"
     inkscape:pageshadow="2" /><defs
     id="defs613" /><g
     inkscape:label="Layer 1"
     inkscape:groupmode="layer"
     id="layer1"><rect
       style="display:inline;fill:#ffc99c;stroke-width:84.8634;stroke-linecap:round;stroke-linejoin:round;fill-opacity:1"
       id="rect825"
       width="512"
       height="512"
       x="0"
       y="0" /><ellipse
       style="fill:#212221;stroke-width:17.3302;stroke-linecap:round;stroke-linejoin:round"
       id="path769"
       cx="182"
       cy="217"
       rx="36"
       ry="41" /><ellipse
       style="fill:#212221;stroke-width:17.3302;stroke-linecap:round;stroke-linejoin:round"
       id="ellipse771"
       cx="332"
       cy="217"
       rx="36"
       ry="41" /><path
       style="fill:#212221;stroke-width:16;stroke-linecap:round;stroke-linejoin:round"
       d="m 182,340 c -1.27561,3.0796 -1.44396,6.99566 0,10 1.84917,3.84744 6.40428,5.69934 10,8 10.04544,6.4274 20.7198,12.12968 32,16 6.4307,2.20642 13.23439,3.33007 20,4 8.62449,0.85399 17.37551,0.85399 26,0 6.76561,-0.66993 13.5693,-1.79358 20,-4 11.2802,-3.87032 21.95456,-9.5726 32,-16 3.59572,-2.30066 8.15083,-4.15256 10,-8 1.44396,-3.00434 1.27561,-6.9204 0,-10 -0.72159,-1.74208 -2.1828,-3.49667 -4,-4 -2.649,-0.73373 -5.3889,1.1411 -8,2 -11.6428,3.8298 -22.30783,10.32368 -34,14 -5.86336,1.84359 -11.89034,3.32933 -18,4 -7.28955,0.80019 -14.71045,0.80019 -22,0 -6.10966,-0.67067 -12.13664,-2.15641 -18,-4 -11.69217,-3.67632 -22.3572,-10.1702 -34,-14 -2.6111,-0.8589 -5.351,-2.73373 -8,-2 -1.8172,0.50333 -3.27841,2.25792 -4,4 z"
       id="path891"
       sodipodi:nodetypes="aaaaaaaaaaaaaaaaaaa" /></g></svg>
