<?xml version="1.0" encoding="UTF-8" standalone="no"?>
<!-- Created with Inkscape (http://www.inkscape.org/) -->

<svg
   width="512px"
   height="512px"
   viewBox="0 0 512 512"
   version="1.1"
   id="SVGRoot"
   sodipodi:docname="Face Mos Eisley Citizen (Blackbeard).svg"
   xml:space="preserve"
   inkscape:version="1.1.2 (0a00cf5339, 2022-02-04)"
   xmlns:inkscape="http://www.inkscape.org/namespaces/inkscape"
   xmlns:sodipodi="http://sodipodi.sourceforge.net/DTD/sodipodi-0.dtd"
   xmlns="http://www.w3.org/2000/svg"
   xmlns:svg="http://www.w3.org/2000/svg"><sodipodi:namedview
     id="namedview618"
     pagecolor="#ffffff"
     bordercolor="#000000"
     borderopacity="0.25"
     inkscape:showpageshadow="2"
     inkscape:pageopacity="0.0"
     inkscape:pagecheckerboard="0"
     inkscape:deskcolor="#d1d1d1"
     inkscape:document-units="px"
     showgrid="false"
     inkscape:zoom="2.1291572"
     inkscape:cx="252.21247"
     inkscape:cy="263.48454"
     inkscape:window-width="1920"
     inkscape:window-height="996"
     inkscape:window-x="1920"
     inkscape:window-y="0"
     inkscape:window-maximized="1"
     inkscape:current-layer="layer1"
     showguides="false"
     inkscape:pageshadow="2" /><defs
     id="defs613" /><g
     inkscape:label="Layer 1"
     inkscape:groupmode="layer"
     id="layer1"><rect
       style="display:inline;fill:#ffc99c;fill-opacity:1;stroke-width:84.8634;stroke-linecap:round;stroke-linejoin:round"
       id="rect825"
       width="512"
       height="512"
       x="0"
       y="0" /><ellipse
       style="fill:#212221;stroke-width:17.3302;stroke-linecap:round;stroke-linejoin:round"
       id="path769"
       cx="182"
       cy="217"
       rx="36"
       ry="41" /><ellipse
       style="fill:#212221;stroke-width:17.3302;stroke-linecap:round;stroke-linejoin:round"
       id="ellipse771"
       cx="332"
       cy="217"
       rx="36"
       ry="41" /><path
       style="fill:#212221;fill-opacity:1;fill-rule:nonzero;stroke:none;stroke-width:0.618086;stroke-opacity:1"
       d="M 44,478 C 35.030917,478 26,466.96908 26,458 V 224 c 0,-14 29.143519,-5.54174 42,0 15.157691,6.53367 25.600011,21.79139 34,36 9.9783,16.87833 15.83474,36.51267 18,56 l 8,72 h 18 c 20.88061,0 19.83082,-40.87701 32,-60 5.36875,-8.43661 9.33277,-19.0121 18,-24 9.8906,-5.69194 22.60566,-4.62555 34,-4 8.88107,0.48757 17.10556,6 26,6 8.89444,0 17.11357,-5.62254 26,-6 9.4196,-0.40011 19.95346,-0.91345 28,4 8.36705,5.10916 11.49414,15.88849 17,24 13.3966,19.73654 17.33333,60 39,60 h 14 l 8,-72 c 2.16526,-19.48733 7.78167,-39.2659 18,-56 8.35287,-13.67913 19.34239,-27.51591 34,-34 12.81771,-5.67017 42,-16.01586 42,-2 v 234 c 0,8.1377 -5.8623,20 -14,20 z m 256,-74 c 10.4525,-4.32957 21.40064,-12.98894 24,-24 2.90617,-12.31073 -5.34997,-25.24002 -12,-36 -2.47832,-4.01001 -5.64479,-8.19601 -10,-10 -9.2388,-3.82683 -20.26751,2.29753 -30,0 -5.80334,-1.36998 -10.03715,-8 -16,-8 -5.96285,0 -10.17715,6.71548 -16,8 -11.07203,2.44249 -23.56471,-5.43399 -34,-1 -4.56073,1.93787 -7.70888,6.6061 -10,11 -6.95409,13.33652 -16.59277,30.48121 -10,44 5.4903,11.25813 21.77615,13.26752 34,16 3.25305,0.72718 6.88426,1.1846 10,0 7.50369,-2.8529 10.49631,-13.1471 18,-16 6.23148,-2.3692 13.8408,-2.55122 20,0 6.96834,2.88638 9.03166,13.11362 16,16 4.92736,2.04098 11.07264,2.04098 16,0 z"
       id="path23700-6"
       sodipodi:nodetypes="sssaascsaaaaaaascsaassssaaaaaaaaaaaaaaaa" /><path
       style="display:inline;fill:#212221;stroke-width:16;stroke-linecap:round;stroke-linejoin:round"
       d="m 202,346 h 98 c 3.33333,0 1.6159,7.08453 0,10 -3.04886,5.50091 -9.71068,10 -16,10 h -72 c -4.48454,0 -7.18678,-5.89837 -9,-10 -1.35448,-3.06392 -4.34996,-10 -1,-10 z"
       id="path1360"
       sodipodi:nodetypes="ssassas" /><path
       style="display:inline;fill:#222222;stroke-width:3.02102"
       d="m 206.98824,170 c 1.10384,0.21088 3.06248,-0.39249 3.01176,-1.51515 l -1.50588,-33.33333 c -0.0643,-1.42269 -1.61232,-3.29432 -3.01177,-3.03031 L 181.38824,136.66667 119.64706,120 c -2.90769,-0.78491 -6.79694,-2.01507 -9.0353,0 L 82,145.75758 c -0.838295,0.75467 0.436477,3.38896 1.505882,3.0303 0,0 2.932936,-1.40816 4.517647,-1.51515 C 128.30389,144.55315 206.98824,170 206.98824,170 Z"
       id="path8412"
       sodipodi:nodetypes="sssscssssas" /><path
       style="display:inline;fill:#222222;stroke-width:3.0034"
       d="m 292.97674,170 c -1.09411,0.20626 -3.0264,-0.40287 -2.97674,-1.51515 l 1.48837,-33.33333 c 0.0632,-1.41452 1.57368,-3.22075 2.97675,-3.03031 L 316.7907,135.15152 376.32558,120 c 2.88479,-0.73417 6.48481,-1.69733 8.93023,0 L 418,142.72727 v 4.54546 c 0,0 -2.9832,-0.13846 -4.46512,0 C 372.81833,151.07711 292.97674,170 292.97674,170 Z"
       id="path8510"
       sodipodi:nodetypes="sssscssccas" /></g></svg>
