<?xml version="1.0" encoding="UTF-8" standalone="no"?>
<!-- Created with Inkscape (http://www.inkscape.org/) -->

<svg
   width="512px"
   height="512px"
   viewBox="0 0 512 512"
   version="1.1"
   id="SVGRoot"
   sodipodi:docname="Torso Front Mos Eisley Citizen (Waistcoat).svg"
   inkscape:version="1.1.2 (0a00cf5339, 2022-02-04)"
   xmlns:inkscape="http://www.inkscape.org/namespaces/inkscape"
   xmlns:sodipodi="http://sodipodi.sourceforge.net/DTD/sodipodi-0.dtd"
   xmlns="http://www.w3.org/2000/svg"
   xmlns:svg="http://www.w3.org/2000/svg">
  <sodipodi:namedview
     id="namedview1304"
     pagecolor="#ffffff"
     bordercolor="#666666"
     borderopacity="1.0"
     inkscape:pageshadow="2"
     inkscape:pageopacity="0.0"
     inkscape:pagecheckerboard="0"
     inkscape:document-units="px"
     showgrid="false"
     inkscape:zoom="1"
     inkscape:cx="310"
     inkscape:cy="246"
     inkscape:window-width="1920"
     inkscape:window-height="996"
     inkscape:window-x="1920"
     inkscape:window-y="0"
     inkscape:window-maximized="1"
     inkscape:current-layer="layer1"
     showguides="false" />
  <defs
     id="defs1299" />
  <g
     inkscape:label="Layer 1"
     inkscape:groupmode="layer"
     id="layer1">
    <rect
       style="display:inline;fill:#673400;fill-opacity:1;stroke-width:66.2453;stroke-linecap:round;stroke-linejoin:round"
       id="rect1423"
       width="512"
       height="512"
       x="0"
       y="0" />
    <path
       style="fill:#d6ba84;fill-opacity:1;stroke:#000000;stroke-width:4;stroke-linecap:butt;stroke-linejoin:round;stroke-miterlimit:4;stroke-dasharray:none;stroke-opacity:1"
       d="m 177,114 31,-6 c 0,0 8.64323,25.1479 12,38 10.75483,41.17713 26,125 26,125 0,0 14.54143,-81.12551 30,-119 6.99973,-17.14978 28,-48 28,-48 l 34,4 c 0,0 -8.24295,20.58543 -14,30 -3.96548,6.48481 -8.87831,12.38341 -14,18 -4.92589,5.40186 -16,15 -16,15 l 41,300 c 0,0 19.39779,1.11445 29,0 11.5652,-1.34228 22.86338,-4.60423 34,-8 9.03084,-2.75368 17.89249,-6.12061 26.5,-10 9.10796,-4.10494 17.88117,-8.94813 26.5,-14 11.64586,-6.82614 34,-22 34,-22 0.27986,-0.18108 0.86031,-0.30265 1,0 0,0 4.6323,8.42757 6,13 1.93187,6.45851 2.49861,13.27742 3,20 0.39667,5.31856 0.39667,10.68144 0,16 -0.50139,6.72258 0.0358,13.98102 -3,20 -0.42458,0.84179 -1.05719,2 -2,2 H 24 c -1.414214,0 -2.38327,-1.72735 -3,-3 -2.488241,-5.13461 -1.666094,-11.30403 -2,-17 -0.312112,-5.32419 -0.493554,-10.68955 0,-16 0.502155,-5.40299 1.178405,-10.88862 3,-16 1.402099,-3.93428 6,-11 6,-11 0,0 13.178555,8.91465 20,13 6.527383,3.90924 13.128336,7.73364 20,11 13.640728,6.48395 27.501055,12.77014 42,17 8.78674,2.5634 17.88532,4.16316 27,5 7.96649,0.73142 24,0 24,0 l 41,-299 c 0,0 -8.38557,-13.11666 -12,-20 -3.74495,-7.13192 -7.57344,-14.31881 -10,-22 -1.63458,-5.17422 -3,-16 -3,-16 z"
       id="path16279"
       sodipodi:nodetypes="ccacaccaaccaaaassaaaassaaaacaaaaccaac" />
    <path
       style="fill:#d6ba84;fill-opacity:1;stroke:#000000;stroke-width:4;stroke-linecap:butt;stroke-linejoin:round;stroke-miterlimit:4;stroke-dasharray:none;stroke-opacity:1"
       d="m 206,106 c 0,0 -1.3679,3.66232 -3,4 0,0 -19.51685,3.25876 -29,6 -5.47197,1.58175 -10.77883,3.72321 -16,6 -2.73289,1.19173 -5.41115,2.52124 -8,4 -5.86076,3.34769 -17,11 -17,11 -1.63183,1.05589 -3.17597,-3.06433 -3,-5 0,0 0.38549,-14.8156 2,-22 4.67061,-20.783723 11.83452,-41.279935 22,-60 0.79534,-1.464652 1.78924,-2.854641 3,-4 0.87309,-0.82593 1.84972,-1.651723 3,-2 5.10449,-1.545515 16,0 16,0"
       id="path6269"
       sodipodi:nodetypes="csaaassaaaac" />
    <path
       style="fill:#d6ba84;fill-opacity:1;stroke:#000000;stroke-width:5;stroke-linecap:butt;stroke-linejoin:round;stroke-miterlimit:4;stroke-dasharray:none;stroke-opacity:1"
       d="m 340,46 c 0,0 3.91904,-1.662306 6,-2 2.96126,-0.480547 7.96288,-2.815029 9,0 0,0 10.19392,25.048708 14,38 2.59948,8.84549 4.99399,17.835506 6,27 0.40009,3.64477 0.69339,7.39949 0,11 -0.33946,1.76267 -0.22582,5.27295 -2,5 0,0 -8.74444,-0.94529 -13,-2 -8.90188,-2.20626 -17.1497,-6.59514 -26,-9 -8.201,-2.22842 -25,-5 -25,-5 -2.35702,-0.4714 -6,-4 -6,-4"
       id="path13688"
       sodipodi:nodetypes="casaaasaasc" />
    <path
       style="fill:#ffc99c;fill-opacity:1;stroke:#000000;stroke-width:5;stroke-linecap:butt;stroke-linejoin:round;stroke-miterlimit:4;stroke-dasharray:none;stroke-opacity:1"
       d="m 175,39 c 0,0 9.79726,22.094429 15,33 5.77686,12.108998 12.67279,23.686561 18,36 5.36,12.38922 10.33189,25.00896 14,38 11.08456,39.25726 24,120 24,120 0,0 14.96293,-77.69729 30,-114 7.08854,-17.11326 18.28788,-32.22705 28,-48 11.87687,-19.288623 37,-57 37,-57 1.64346,-2.531824 1,-9 1,-9 z"
       id="path1556"
       sodipodi:nodetypes="caaacaascc" />
  </g>
</svg>
