<?xml version="1.0" encoding="UTF-8" standalone="no"?>
<!-- Created with Inkscape (http://www.inkscape.org/) -->

<svg
   width="512"
   height="512"
   viewBox="0 0 512 512"
   version="1.1"
   id="svg1"
   xml:space="preserve"
   inkscape:version="1.2.2 (b0a8486541, 2022-12-01)"
   sodipodi:docname="Torso Front Cantina Aliens (Hammerhead).svg"
   xmlns:inkscape="http://www.inkscape.org/namespaces/inkscape"
   xmlns:sodipodi="http://sodipodi.sourceforge.net/DTD/sodipodi-0.dtd"
   xmlns="http://www.w3.org/2000/svg"
   xmlns:svg="http://www.w3.org/2000/svg"><sodipodi:namedview
     id="namedview1"
     pagecolor="#ffffff"
     bordercolor="#000000"
     borderopacity="0.25"
     inkscape:showpageshadow="2"
     inkscape:pageopacity="0.0"
     inkscape:pagecheckerboard="0"
     inkscape:deskcolor="#d1d1d1"
     inkscape:document-units="px"
     inkscape:zoom="1.1062354"
     inkscape:cx="329.49587"
     inkscape:cy="283.39356"
     inkscape:window-width="1920"
     inkscape:window-height="1039"
     inkscape:window-x="1920"
     inkscape:window-y="0"
     inkscape:window-maximized="1"
     inkscape:current-layer="layer1"
     showgrid="false" /><defs
     id="defs1" /><g
     inkscape:label="Layer 1"
     inkscape:groupmode="layer"
     id="layer1"><rect
       style="display:inline;fill:#673400;fill-opacity:1;stroke:none;stroke-width:6.96996;stroke-linecap:round;stroke-linejoin:round"
       id="rect1"
       width="512"
       height="512"
       x="0"
       y="0"
       inkscape:label="background" /><g
       id="g4986"
       inkscape:label="undershirt"><path
         style="display:inline;fill:#a55500;fill-opacity:1;stroke:none;stroke-width:12;stroke-linecap:round;stroke-linejoin:round;stroke-dasharray:none;stroke-opacity:1"
         d="m 212,44 c 0,0 -32.95827,31.296466 -40,52 -10.08953,29.66444 -2.33046,62.75345 0,94 1.00278,13.44516 5.10228,26.54742 6,40 2.84126,42.57718 1.95927,85.5122 -2,128 -4.01684,43.10554 -4.24928,88.51413 -22,128 -1.75027,3.89343 -8,10 -8,10 h 200 c 0,0 -29.95815,-98.93635 -36,-150 -1.80167,-15.22712 -1.59534,-30.74989 0,-46 3.68668,-35.24151 18.31332,-68.75849 22,-104 3.74558,-35.80462 7.62119,-72.81595 0,-108 -3.41064,-15.745574 -20,-44 -20,-44 z"
         id="path2099"
         sodipodi:nodetypes="caaaaaccaaaacc"
         inkscape:label="undershirtmain" /><path
         style="fill:#523416;fill-opacity:1;stroke:none;stroke-width:8;stroke-linecap:round;stroke-linejoin:round;stroke-dasharray:none;stroke-opacity:1"
         d="m 176,318 v 16 h 134 v -18 z"
         id="path3020"
         sodipodi:nodetypes="ccccc"
         inkscape:label="undershirtseam1shadow" /><path
         style="fill:none;fill-opacity:1;stroke:#001421;stroke-width:8;stroke-linecap:round;stroke-linejoin:round;stroke-dasharray:none;stroke-opacity:1"
         d="M 178,316 H 308"
         id="path2292"
         sodipodi:nodetypes="cc"
         inkscape:label="undershirtseam1" /><path
         style="fill:none;fill-opacity:1;stroke:#001421;stroke-width:6;stroke-linecap:round;stroke-linejoin:round;stroke-dasharray:none;stroke-opacity:1"
         d="M 176,346 H 310"
         id="path3873"
         sodipodi:nodetypes="cc"
         inkscape:label="undershirtseam2" /><path
         style="fill:none;fill-opacity:1;stroke:#001421;stroke-width:6;stroke-linecap:round;stroke-linejoin:round;stroke-dasharray:none;stroke-opacity:1"
         d="M 176,362 H 310"
         id="path3875"
         sodipodi:nodetypes="cc"
         inkscape:label="undershirtseam3" /><path
         style="fill:none;fill-opacity:1;stroke:#001421;stroke-width:6;stroke-linecap:round;stroke-linejoin:round;stroke-dasharray:none;stroke-opacity:1"
         d="M 176,380 H 310"
         id="path3877"
         sodipodi:nodetypes="cc"
         inkscape:label="undershirtseam4" /><path
         style="fill:none;fill-opacity:1;stroke:#001421;stroke-width:6;stroke-linecap:round;stroke-linejoin:round;stroke-dasharray:none;stroke-opacity:1"
         d="m 212,380 c 0,0 -9.14066,33.10024 -12,50 -2.2354,13.21206 -4,40 -4,40"
         id="path3879"
         sodipodi:nodetypes="cac"
         inkscape:label="undershirtwrinkle1" /><path
         style="fill:none;fill-opacity:1;stroke:#001421;stroke-width:6;stroke-linecap:round;stroke-linejoin:round;stroke-dasharray:none;stroke-opacity:1"
         d="m 240,380 c 0,0 -9.9583,18.05301 -12,28 -3.3511,16.3263 3.82922,33.77918 0,50 -1.02749,4.3525 -6,12 -6,12"
         id="path3881"
         sodipodi:nodetypes="caac"
         inkscape:label="undershirtwrinkle2" /><path
         style="fill:none;fill-opacity:1;stroke:#001421;stroke-width:6;stroke-linecap:round;stroke-linejoin:round;stroke-dasharray:none;stroke-opacity:1"
         d="m 268,380 c 0,0 -2.90426,40.21199 0,60 1.01071,6.88643 4.6475,13.17247 6,20 1.30192,6.57221 2,20 2,20"
         id="path3883"
         sodipodi:nodetypes="caac"
         inkscape:label="undershirtwrinkle3" /><path
         style="fill:none;fill-opacity:1;stroke:#001421;stroke-width:6;stroke-linecap:round;stroke-linejoin:round;stroke-dasharray:none;stroke-opacity:1"
         d="m 292,380 c 0,0 0.003,18.8584 2,28 1.21544,5.56481 4.98369,10.3954 6,16 2.49795,13.77535 -5.35757,29.06569 0,42 1.44319,3.48417 8,8 8,8"
         id="path3885"
         sodipodi:nodetypes="caaac"
         inkscape:label="undershirtwrinkle4" /></g><path
       style="display:inline;fill:none;fill-opacity:1;stroke:#001421;stroke-width:12;stroke-linecap:round;stroke-linejoin:round;stroke-dasharray:none;stroke-opacity:1"
       d="m 212,44 c 0,0 -32.95827,31.296466 -40,52 -10.08953,29.66444 -2.38918,62.75789 0,94 0.66861,8.7431 3.33139,17.2569 4,26 3.71086,48.52498 4.26726,97.52078 0,146 -3.68084,41.81714 -2.59662,86.77459 -22,124 -1.74313,3.3442 -8,8 -8,8"
       id="path6"
       sodipodi:nodetypes="caaaaac"
       inkscape:label="overshirtoutlineR" /><path
       style="fill:none;fill-opacity:1;stroke:#001421;stroke-width:12;stroke-linecap:round;stroke-linejoin:round;stroke-dasharray:none;stroke-opacity:1"
       d="m 312,44 c 0,0 0.16786,10.947066 2,16 3.78218,10.431022 14.87328,17.35412 18,28 10.33264,35.18069 3.88727,73.53997 0,110 -3.68745,34.58584 -18.31255,67.41416 -22,102 -1.62558,15.24692 -1.77365,30.76959 0,46 5.70496,48.98875 34,144 34,144"
       id="path1029"
       sodipodi:nodetypes="caaaaac"
       inkscape:label="overshirtoutlineL" /><path
       style="display:inline;fill:#653200;fill-opacity:1;stroke:#001421;stroke-width:6;stroke-linecap:round;stroke-linejoin:round;stroke-dasharray:none;stroke-opacity:1"
       d="m 230,46 c 0,0 -8.3723,31.669135 -16,46 -3.13232,5.884981 -9.35578,9.88015 -12,16 -6.17299,14.28693 -11.86969,30.92526 -8,46 2.12276,8.26939 13.17403,11.94377 16,20 6.1788,17.6144 1.96655,37.43721 0,56 -1.0056,9.4921 -9.05274,18.95611 -6,28 1.96572,5.82355 7.85816,12.23588 14,12 4.71057,-0.18091 7.56847,-5.96145 10,-10 4.67715,-7.7683 6.65168,-17.03316 8,-26 3.96523,-26.37021 6.12674,-54.04669 0,-80 -1.71248,-7.25417 -9.86204,-12.54772 -10,-20 -0.1491,-8.05398 7.47477,-14.35068 10,-22 2.99228,-9.06407 3.67094,-18.743295 6,-28 3.2177,-12.788555 11.00486,-38 11.00486,-38"
       id="path4872"
       sodipodi:nodetypes="caaaaaaaaaaaaac"
       inkscape:label="danglyR" /><path
       style="display:inline;fill:#653200;fill-opacity:1;stroke:#001421;stroke-width:6;stroke-linecap:round;stroke-linejoin:round;stroke-dasharray:none;stroke-opacity:1"
       d="m 252,44 c 0,0 -6.57655,29.49999 -4,44 2.45211,13.7997 14.92509,24.32559 18,38 2.19388,9.75638 2.56668,20.335 0,30 -1.37955,5.19478 -6.62045,8.80522 -8,14 -4.44891,16.75266 -5.6253,35.60486 0,52 2.46686,7.18974 11.53314,10.81026 14,18 2.16358,6.30582 2.10819,13.67544 0,20 -2.10819,6.32456 -9.89181,9.67544 -12,16 -2.52982,7.58947 -5.65685,18.34315 0,24 4.71405,4.71405 14.19867,3.28466 20,0 6.76546,-3.83054 9.02479,-12.8172 12,-20 3.15569,-7.61851 4.99245,-15.81557 6,-24 1.62911,-13.23343 4.21637,-27.35089 0,-40 -2.10819,-6.32456 -9.89181,-9.67544 -12,-16 -1.89737,-5.6921 -1.2995,-12.14242 0,-18 2.39006,-10.77336 11.60994,-19.22664 14,-30 3.03217,-13.6677 2.90628,-28.30498 0,-42 -1.36303,-6.42287 -4.62629,-12.36713 -8,-18 -3.90565,-6.52102 -12.25361,-10.602169 -14,-18 -2.34303,-9.925231 6,-30 6,-30"
       id="path4898"
       sodipodi:nodetypes="caaaaaaaaaaaaaaaaaaac"
       inkscape:label="danglyL" /><path
       style="fill:none;fill-opacity:1;stroke:#001421;stroke-width:12;stroke-linecap:round;stroke-linejoin:round;stroke-dasharray:none;stroke-opacity:1"
       d="m 102,22 c 0,0 15.65598,7.65727 24,10 16.88438,4.740585 34.63068,5.57881 52,8 10.64674,1.484098 21.2711,3.332043 32,4 33.9343,2.112673 68.02505,1.304802 102,0 8.68587,-0.333579 17.38392,-0.85167 26,-2 14.12679,-1.882784 28.30158,-4.067537 42,-8 12.37562,-3.55272 36,-14 36,-14"
       id="path1"
       sodipodi:nodetypes="caaaaaac"
       inkscape:label="collar" /><path
       style="fill:none;fill-opacity:1;stroke:#001421;stroke-width:12;stroke-linecap:round;stroke-linejoin:round;stroke-dasharray:none;stroke-opacity:1"
       d="m 126,32 c 0,0 -19.66508,26.801977 -26,42 -6.594425,15.820599 -8.694035,33.1819 -12,50 -3.3826,17.20795 -6.662774,34.51379 -8,52 -0.711672,9.30616 -1.408066,18.77349 0,28 3.371927,22.09492 14.149545,42.42854 20,64 4.65636,17.16866 9.98707,34.32537 12,52 1.73507,15.23485 0.80369,30.68774 0,46 -0.66758,12.71914 -4,38 -4,38"
       id="path2"
       sodipodi:nodetypes="caaaaaaac"
       inkscape:label="wrinkle1" /><path
       style="fill:none;fill-opacity:1;stroke:#001421;stroke-width:12;stroke-linecap:round;stroke-linejoin:round;stroke-dasharray:none;stroke-opacity:1"
       d="m 178,40 c 0,0 -17.46767,20.376472 -24,32 -8.79442,15.648653 -14.88505,32.79362 -20,50 -3.87453,13.03368 -6.66015,26.46879 -8,40 -2.75905,27.86373 -8.11396,57.20142 0,84 0.69655,2.30056 4,6 4,6"
       id="path3"
       sodipodi:nodetypes="caaaac"
       inkscape:label="wrinkle2" /><path
       style="fill:none;fill-opacity:1;stroke:#001421;stroke-width:12;stroke-linecap:round;stroke-linejoin:round;stroke-dasharray:none;stroke-opacity:1"
       d="m 338,42 c 0,0 4.53188,12.424765 8,18 2.75026,4.421221 7.80718,7.277432 10,12 9.69341,20.876197 9.99235,45.07082 12,68 0.40705,4.64888 0.38491,9.34923 0,14 -1.67236,20.20679 -6.57147,40.0161 -10,60 -1.94601,11.34273 -4.99617,22.53541 -6,34 -1.45375,16.60314 -0.97535,33.3619 0,50 0.66781,11.39194 1.0553,22.97499 4,34 1.31015,4.90523 6,14 6,14"
       id="path4"
       sodipodi:nodetypes="caaaaaaaac"
       inkscape:label="wrinkle3" /><path
       style="fill:none;fill-opacity:1;stroke:#001421;stroke-width:12;stroke-linecap:round;stroke-linejoin:round;stroke-dasharray:none;stroke-opacity:1"
       d="m 380,34 c 0,0 9.80853,11.658916 14,18 3.78484,5.725913 7.89241,11.467836 10,18 3.50403,10.860203 3.33219,22.608062 4,34 0.78028,13.31048 -2.13576,26.83883 0,40 0.33769,2.08096 2,6 2,6"
       id="path5"
       sodipodi:nodetypes="caaaac"
       inkscape:label="wrinkle4" /></g></svg>
