<?xml version="1.0" encoding="UTF-8" standalone="no"?>
<!-- Created with Inkscape (http://www.inkscape.org/) -->

<svg
   width="512px"
   height="512px"
   viewBox="0 0 512 512"
   version="1.1"
   id="SVGRoot"
   sodipodi:docname="Torso Front Mos Eisley Citizen (Shirt).svg"
   inkscape:version="1.3.2 (091e20ef0f, 2023-11-25)"
   xml:space="preserve"
   xmlns:inkscape="http://www.inkscape.org/namespaces/inkscape"
   xmlns:sodipodi="http://sodipodi.sourceforge.net/DTD/sodipodi-0.dtd"
   xmlns="http://www.w3.org/2000/svg"
   xmlns:svg="http://www.w3.org/2000/svg"><sodipodi:namedview
     id="namedview829"
     pagecolor="#ffffff"
     bordercolor="#666666"
     borderopacity="1.0"
     inkscape:pageshadow="2"
     inkscape:pageopacity="0.0"
     inkscape:pagecheckerboard="0"
     inkscape:document-units="px"
     showgrid="false"
     inkscape:zoom="1.0305625"
     inkscape:cx="288.67729"
     inkscape:cy="294.49936"
     inkscape:window-width="1920"
     inkscape:window-height="980"
     inkscape:window-x="0"
     inkscape:window-y="0"
     inkscape:window-maximized="1"
     inkscape:current-layer="layer1"
     inkscape:showpageshadow="2"
     inkscape:deskcolor="#d1d1d1" /><defs
     id="defs824" /><g
     inkscape:label="Layer 1"
     inkscape:groupmode="layer"
     id="layer1"><rect
       style="display:inline;fill:#a9a8a1;fill-opacity:1;stroke-width:26.8723;stroke-linecap:round"
       id="rect948"
       width="512"
       height="512"
       x="0"
       y="0" /><path
       style="display:inline;fill:#5f3000;fill-opacity:1;stroke:none;stroke-width:1px;stroke-linecap:butt;stroke-linejoin:miter;stroke-opacity:1"
       d="m 21,440 -9,27 h 493 l -13,-27 z"
       id="path23781"
       sodipodi:nodetypes="ccccc" /><path
       style="display:inline;fill:none;stroke:#212321;stroke-width:4;stroke-linecap:round;stroke-linejoin:miter;stroke-miterlimit:4;stroke-dasharray:none;stroke-opacity:1"
       d="M 22,440 H 492"
       id="path21475"
       sodipodi:nodetypes="cc" /><path
       style="display:inline;fill:#212321;fill-opacity:1;stroke:none;stroke-width:1px;stroke-linecap:butt;stroke-linejoin:miter;stroke-opacity:1"
       d="m 88,490 c -1.885618,0 -3.672307,-2.14307 -4,-4 l -6,-34 c 0,0 -2.491846,-5.1977 -3,-8 -1.130024,-6.23171 -1.340765,-12.81021 0,-19 0.852659,-3.93639 2.390814,-7.93172 5,-11 1.55715,-1.83114 6,-4 6,-4 h 46 c 0,0 4.39872,3.66849 6,6 1.8586,2.70618 3.31849,5.78856 4,9 1.31475,6.19537 1.4551,12.83609 0,19 -0.68499,2.90167 -4,8 -4,8 l -4,34 c -0.28085,2.38724 -3.5963,4 -6,4 z"
       id="path27320"
       sodipodi:nodetypes="sscaaaccaaacsss" /><path
       style="display:inline;fill:none;stroke:#212321;stroke-width:4;stroke-linecap:round;stroke-linejoin:miter;stroke-miterlimit:4;stroke-dasharray:none;stroke-opacity:1"
       d="M 14,467 H 504"
       id="path22963"
       sodipodi:nodetypes="cc" /><path
       style="display:inline;fill:#bd825a;fill-opacity:1;stroke:#212321;stroke-width:4;stroke-linecap:butt;stroke-linejoin:round;stroke-miterlimit:4;stroke-dasharray:none;stroke-opacity:1"
       d="m 204,432 28,-14 h 66 l 27,14 v 42 l -27,14 h -68 l -26,-14 z"
       id="path24390"
       sodipodi:nodetypes="ccccccccc" /><path
       style="display:inline;fill:#212321;fill-opacity:1;stroke:none;stroke-width:1px;stroke-linecap:butt;stroke-linejoin:miter;stroke-opacity:1"
       d="m 376,480 v -57 c 0,-1.88562 2.11438,-4 4,-4 h 90 c 1.88562,0 4,2.11438 4,4 v 57 c 0,1.88562 -2.11438,4 -4,4 h -90 c -1.88562,0 -4,-2.11438 -4,-4 z"
       id="path30256"
       sodipodi:nodetypes="sssssssss" /><path
       style="fill:#987b67;fill-opacity:1;stroke:#987b67;stroke-width:2;stroke-linecap:butt;stroke-linejoin:round;stroke-dasharray:none;stroke-opacity:1"
       d="m 404,472 v -42 h -17.5 v 42 z"
       id="path31661"
       sodipodi:nodetypes="ccccc" /><path
       style="display:inline;fill:#ffc99c;fill-opacity:1;stroke:none;stroke-width:1px;stroke-linecap:butt;stroke-linejoin:miter;stroke-opacity:1"
       d="M 176,25 H 342 L 286,52 233.5,88 200,50 Z"
       id="path37443"
       sodipodi:nodetypes="cccccc" /><path
       style="display:inline;fill:none;stroke:#212321;stroke-width:6;stroke-linecap:round;stroke-linejoin:miter;stroke-miterlimit:4;stroke-dasharray:none;stroke-opacity:1"
       d="m 34,346 c 0,0 10.579447,-29.49799 16.5,-44 3.58188,-8.77358 7.22685,-17.54153 11.5,-26 4.847211,-9.5948 10.036187,-19.05637 16,-28 8.174659,-12.25912 17.644109,-23.61675 27,-35 8.99958,-10.94973 18.31687,-21.64984 28,-32 8.69551,-9.29452 17.81199,-18.19202 27,-27 12.09131,-11.5912 24.44762,-22.90977 37,-34 11.96248,-10.56904 24.03743,-21.025542 36.5,-31 11.24261,-8.998052 22.55946,-17.951114 34.5,-26 8.0584,-5.432007 16.40503,-10.46449 25,-15 12.00404,-6.334451 24.52837,-11.644566 37,-17 9.89649,-4.249645 30,-12 30,-12"
       id="path32600"
       sodipodi:nodetypes="caaaaaaaaaaac" /><path
       style="display:inline;fill:none;stroke:#212321;stroke-width:6;stroke-linecap:round;stroke-linejoin:miter;stroke-miterlimit:4;stroke-dasharray:none;stroke-opacity:1"
       d="m 232.5,90 c 0,0 -4.97972,-6.681972 -7.5,-10 -3.30685,-4.353577 -6.54525,-8.76283 -10,-13 C 208.87694,59.490204 202.78116,51.921325 196,45 189.7231,38.593362 182.89301,32.738539 176,27 171.79839,23.502094 163,17 163,17"
       id="path33414"
       sodipodi:nodetypes="caaaac" /><path
       style="fill:none;stroke:#212321;stroke-width:6;stroke-linecap:round;stroke-linejoin:miter;stroke-miterlimit:4;stroke-dasharray:none;stroke-opacity:1"
       d="m 46,373 v -2"
       id="path37849"
       sodipodi:nodetypes="cc" /><path
       style="fill:none;stroke:#212321;stroke-width:6;stroke-linecap:round;stroke-linejoin:miter;stroke-miterlimit:4;stroke-dasharray:none;stroke-opacity:1"
       d="m 57,341 2,-2"
       id="path38332"
       sodipodi:nodetypes="cc" /><path
       style="fill:none;stroke:#212321;stroke-width:6;stroke-linecap:round;stroke-linejoin:miter;stroke-miterlimit:4;stroke-dasharray:none;stroke-opacity:1"
       d="m 70,309 1,-4"
       id="path38623"
       sodipodi:nodetypes="cc" /><path
       style="fill:none;stroke:#212321;stroke-width:6;stroke-linecap:round;stroke-linejoin:miter;stroke-miterlimit:4;stroke-dasharray:none;stroke-opacity:1"
       d="m 87,277 3,-3"
       id="path38625"
       sodipodi:nodetypes="cc" /><path
       style="fill:none;stroke:#212321;stroke-width:6;stroke-linecap:round;stroke-linejoin:miter;stroke-miterlimit:4;stroke-dasharray:none;stroke-opacity:1"
       d="m 106,247 2,-2"
       id="path38627"
       sodipodi:nodetypes="cc" /><path
       style="fill:none;stroke:#212321;stroke-width:6;stroke-linecap:round;stroke-linejoin:miter;stroke-miterlimit:4;stroke-dasharray:none;stroke-opacity:1"
       d="m 126,219 2,-2"
       id="path38629"
       sodipodi:nodetypes="cc" /><path
       style="fill:none;stroke:#212321;stroke-width:6;stroke-linecap:round;stroke-linejoin:miter;stroke-miterlimit:4;stroke-dasharray:none;stroke-opacity:1"
       d="m 148,192 3,-3"
       id="path38631"
       sodipodi:nodetypes="cc" /><path
       style="fill:none;stroke:#212321;stroke-width:6;stroke-linecap:round;stroke-linejoin:miter;stroke-miterlimit:4;stroke-dasharray:none;stroke-opacity:1"
       d="m 172,167 2,-2"
       id="path38633"
       sodipodi:nodetypes="cc" /><path
       style="fill:none;stroke:#212321;stroke-width:6;stroke-linecap:round;stroke-linejoin:miter;stroke-miterlimit:4;stroke-dasharray:none;stroke-opacity:1"
       d="m 196,144 2,-2"
       id="path38635"
       sodipodi:nodetypes="cc" /><path
       style="fill:none;stroke:#212321;stroke-width:6;stroke-linecap:round;stroke-linejoin:miter;stroke-miterlimit:4;stroke-dasharray:none;stroke-opacity:1"
       d="m 223,122 2,-2"
       id="path38637"
       sodipodi:nodetypes="cc" /><path
       style="fill:none;stroke:#212321;stroke-width:6;stroke-linecap:round;stroke-linejoin:miter;stroke-miterlimit:4;stroke-dasharray:none;stroke-opacity:1"
       d="m 250,102 2,-2"
       id="path38639"
       sodipodi:nodetypes="cc" /><path
       style="fill:none;stroke:#212321;stroke-width:6;stroke-linecap:round;stroke-linejoin:miter;stroke-miterlimit:4;stroke-dasharray:none;stroke-opacity:1"
       d="m 277,83 2,-2"
       id="path38641"
       sodipodi:nodetypes="cc" /><path
       style="fill:none;stroke:#212321;stroke-width:6;stroke-linecap:round;stroke-linejoin:miter;stroke-miterlimit:4;stroke-dasharray:none;stroke-opacity:1"
       d="m 306,66 2,-2"
       id="path38643"
       sodipodi:nodetypes="cc" /><path
       style="fill:none;stroke:#212321;stroke-width:6;stroke-linecap:round;stroke-linejoin:miter;stroke-miterlimit:4;stroke-dasharray:none;stroke-opacity:1"
       d="m 334,51 4,-3"
       id="path38645"
       sodipodi:nodetypes="cc" /><path
       style="fill:none;fill-opacity:1;stroke:#212321;stroke-width:4;stroke-linecap:round;stroke-linejoin:round;stroke-dasharray:none;stroke-opacity:1"
       d="m 341,82 c 0,0 -1.8616,5.389413 -3,8 -2.97932,6.832218 -6.25886,13.55334 -10,20 -7.23889,12.47391 -15.82573,24.11803 -24,36 -7.18175,10.43925 -22,31 -22,31 0,0 20.88352,-16.4047 31,-25 6.47641,-5.50257 12.82633,-11.15979 19,-17 10.27361,-9.71869 20.32374,-19.68642 30,-30 7.59516,-8.095415 15.2395,-16.195573 22,-25 4.39173,-5.719502 8.14387,-11.906541 12,-18 4.15746,-6.569623 8.25879,-13.184738 12,-20 1.43469,-2.613534 4,-8 4,-8"
       id="path7"
       sodipodi:nodetypes="caaacaaaaaac" /><path
       style="fill:none;stroke:#212321;stroke-width:6;stroke-linecap:round;stroke-linejoin:miter;stroke-miterlimit:4;stroke-dasharray:none;stroke-opacity:1"
       d="m 364,38 2,-2"
       id="path38647"
       sodipodi:nodetypes="cc" /><path
       style="fill:none;stroke:#212321;stroke-width:6;stroke-linecap:round;stroke-linejoin:miter;stroke-miterlimit:4;stroke-dasharray:none;stroke-opacity:1"
       d="m 394,28 2,-2"
       id="path38649"
       sodipodi:nodetypes="cc" /><path
       style="fill:#5f3000;fill-opacity:1;stroke-width:4;stroke-linecap:round;stroke-linejoin:round;stroke-dasharray:none"
       d="m 82.378355,426.60547 h 15.87185"
       id="path1" /><path
       style="fill:#987b67;fill-opacity:1;stroke:#987b67;stroke-width:2;stroke-linecap:round;stroke-linejoin:round;stroke-dasharray:none;stroke-opacity:1"
       d="m 82,427 h 16 v 9 H 82 Z"
       id="path2"
       sodipodi:nodetypes="ccccc" /><path
       style="fill:#987b67;fill-opacity:1;stroke:#987b67;stroke-width:2;stroke-linecap:round;stroke-linejoin:round;stroke-dasharray:none;stroke-opacity:1"
       d="m 118,427 h 16 v 9 h -16 z"
       id="path3"
       sodipodi:nodetypes="ccccc" /><path
       style="fill:#987b67;fill-opacity:1;stroke:#987b67;stroke-width:2;stroke-linecap:round;stroke-linejoin:round;stroke-dasharray:none;stroke-opacity:1"
       d="m 104,463 h 9 v 17 h -9 z"
       id="path4"
       sodipodi:nodetypes="ccccc" /><path
       style="fill:none;fill-opacity:1;stroke:#212321;stroke-width:4;stroke-linecap:round;stroke-linejoin:round;stroke-dasharray:none;stroke-opacity:1"
       d="m 136,51 c 0,0 -8.67658,10.971744 -12.52174,16.803502 C 117.81601,76.391154 112.40087,85.202624 108,94.5 c -3.04619,6.43546 -7.5,20 -7.5,20 0,0 2.84935,-13.60136 3.57,-20.5 0.90102,-8.625275 -0.28329,-17.413084 0.93,-26 0.57685,-4.082554 3,-12 3,-12"
       id="path6"
       sodipodi:nodetypes="caacaac" /><path
       style="fill:none;fill-opacity:1;stroke:#212321;stroke-width:4;stroke-linecap:round;stroke-linejoin:round;stroke-dasharray:none;stroke-opacity:1"
       d="m 412,241 c 0,0 0.83115,1.95952 1,3 0.74752,4.60641 0.49164,9.3593 0,14 -0.5028,4.74605 -1.81334,9.37727 -3,14 -2.59587,10.11244 -6.06585,19.98048 -9,30 -1.364,4.65779 -4,14 -4,14 0,0 8.85918,-13.21208 13,-20 2.79909,-4.58846 5.46384,-9.26114 8,-14 2.11021,-3.94297 4.11836,-7.94298 6,-12 2.13621,-4.60591 4.10814,-9.28846 6,-14 2.12245,-5.2858 4.21615,-10.59053 6,-16 1.51997,-4.60926 2.8979,-9.27338 4,-14 1.69254,-7.25885 2.96167,-14.61912 4,-22 0.46667,-3.31729 1,-10 1,-10"
       id="path8"
       sodipodi:nodetypes="caaaacaaaaaaac" /><path
       style="fill:none;fill-opacity:1;stroke:#212321;stroke-width:4;stroke-linecap:round;stroke-linejoin:round;stroke-dasharray:none;stroke-opacity:1"
       d="m 157,287 c 0,0 1.66466,5.94517 2,9 0.50921,4.6388 0.57019,9.3683 0,14 -0.50377,4.09221 -1.68371,8.09265 -3,12 -1.62088,4.8115 -3.64761,9.50066 -6,14 -2.91401,5.57352 -6.54241,10.74637 -10,16 -5.79494,8.8051 -12.28534,17.14259 -18,26 -2.10746,3.26645 -4.2303,6.53889 -6,10 -2.3114,4.52053 -4.19567,9.25425 -6,14 -1.49842,3.94113 -4,12 -4,12"
       id="path9"
       sodipodi:nodetypes="caaaaaaaac" /><path
       style="fill:#987b67;fill-opacity:1;stroke:#987b67;stroke-width:2;stroke-linecap:butt;stroke-linejoin:round;stroke-dasharray:none;stroke-opacity:1"
       d="m 434,472 v -42 h -17.5 v 42 z"
       id="path10"
       sodipodi:nodetypes="ccccc" /><path
       style="fill:#987b67;fill-opacity:1;stroke:#987b67;stroke-width:2;stroke-linecap:butt;stroke-linejoin:round;stroke-dasharray:none;stroke-opacity:1"
       d="m 462,472 v -42 h -17.5 v 42 z"
       id="path11"
       sodipodi:nodetypes="ccccc" /></g></svg>
