<?xml version="1.0" encoding="UTF-8" standalone="no"?>
<!-- Created with Inkscape (http://www.inkscape.org/) -->

<svg
   width="512px"
   height="512px"
   viewBox="0 0 512 512"
   version="1.1"
   id="SVGRoot"
   sodipodi:docname="Torso Front Cantina Aliens (Snaggletooth).svg"
   xml:space="preserve"
   inkscape:version="1.3.2 (091e20ef0f, 2023-11-25)"
   xmlns:inkscape="http://www.inkscape.org/namespaces/inkscape"
   xmlns:sodipodi="http://sodipodi.sourceforge.net/DTD/sodipodi-0.dtd"
   xmlns="http://www.w3.org/2000/svg"
   xmlns:svg="http://www.w3.org/2000/svg"><sodipodi:namedview
     id="namedview11852"
     pagecolor="#ffffff"
     bordercolor="#111111"
     borderopacity="1"
     inkscape:showpageshadow="0"
     inkscape:pageopacity="0"
     inkscape:pagecheckerboard="1"
     inkscape:deskcolor="#d1d1d1"
     inkscape:document-units="px"
     showgrid="false"
     inkscape:zoom="1.4770342"
     inkscape:cx="223.75921"
     inkscape:cy="148.60861"
     inkscape:window-width="1920"
     inkscape:window-height="980"
     inkscape:window-x="1920"
     inkscape:window-y="0"
     inkscape:window-maximized="1"
     inkscape:current-layer="layer1" /><defs
     id="defs11847" /><g
     inkscape:label="Layer 1"
     inkscape:groupmode="layer"
     id="layer1"><rect
       style="display:inline;fill:#d60000;fill-opacity:1;stroke:none;stroke-width:48.9499;stroke-linecap:round;stroke-linejoin:round"
       id="rect12043"
       width="512"
       height="512"
       x="0"
       y="0" /><path
       style="fill:#001421;fill-opacity:0.25098041;stroke:none;stroke-width:10;stroke-linecap:round;stroke-linejoin:round"
       d="m 64,320 c 0,0 -6.578462,35.26899 -2,52 7.955954,29.07333 49,76 49,76 0,0 -21.032532,-54.53114 -31,-82 -5.537583,-15.26076 -16,-46 -16,-46 z"
       id="path13400"
       sodipodi:nodetypes="cacac" /><path
       style="fill:#001421;fill-opacity:0.25098041;stroke:none;stroke-width:10;stroke-linecap:round;stroke-linejoin:round"
       d="m 190,346 c -3.09745,-8.72832 -11.27658,-15.14784 -14,-24 -5.69855,-18.52248 -4,-58 -4,-58 0,0 13.54176,0.23106 18,-4 9.03372,-8.57339 10,-36 10,-36 0,0 1.63462,69.81856 8,104 3.82274,20.52771 17.44832,39.12668 18,60 0.67071,25.37705 -18,74 -18,74 0,0 -4.91361,-79.12375 -18,-116 z"
       id="path13402"
       sodipodi:nodetypes="aacacaaca" /><path
       style="fill:#001421;fill-opacity:0.25098041;stroke:none;stroke-width:10;stroke-linecap:round;stroke-linejoin:round"
       d="m 322,300 -10,52 c -6.92898,36.0307 -4,110 -4,110 0,0 13.31193,-40.8262 16,-62 2.35091,-18.51804 0.42391,-37.33815 0,-56 -0.33342,-14.67802 0.77262,-58.41763 -2,-44 z"
       id="path14130"
       sodipodi:nodetypes="sscaas" /><path
       style="fill:#001421;fill-opacity:0.25098041;stroke:none;stroke-width:10;stroke-linecap:round;stroke-linejoin:round"
       d="m 440,378 -38,88 c 0,0 50.59212,-38.02747 52,-66 0.43694,-8.68128 -10.55407,-29.98005 -14,-22 z"
       id="path14132"
       sodipodi:nodetypes="scas" /><path
       id="path12670"
       style="display:inline;fill:#001421;fill-opacity:1;stroke:none;stroke-width:10;stroke-linecap:round;stroke-linejoin:round"
       d="M 100 12 C 100 12 92.183994 16.332255 90 20 C 72.6718 49.100555 72 120 72 120 L 122 416 L 26 416 L 16 484 L 496 484 L 484 418 L 390 416 L 440 120 C 440 120 438.41768 47.34674 420 18 C 418.22808 15.176632 412 12 412 12 L 340 416 L 274 416 L 274 50.234375 C 274 38.83206 290 20 290 20 L 224 20 C 224 20 240 38.666678 240 50 L 240 416 L 172 416 L 100 12 z " /><path
       style="fill:none;fill-opacity:1;stroke:#001421;stroke-width:10;stroke-linecap:round;stroke-linejoin:round;stroke-dasharray:none;stroke-opacity:1"
       d="m 164,20 h 186 c 0,0 15.95794,40.664178 20,62 1.98935,10.5007 2,32 2,32 0,0 -51.20059,-31.507734 -80,-38 -23.41247,-5.277886 -48.58753,-5.277886 -72,0 -28.79941,6.492266 -80,38 -80,38 0,0 1.673,-21.505209 4,-32 4.70074,-21.200438 20,-62 20,-62 z"
       id="path14466"
       sodipodi:nodetypes="ccacaacac" /><path
       id="path14535"
       style="fill:#5f5f63;fill-opacity:1;stroke:none;stroke-width:10;stroke-linecap:round;stroke-linejoin:round;stroke-dasharray:none;stroke-opacity:1"
       d="M 254 419.37109 A 24 26 0 0 0 231.70703 435.91211 L 226 436 L 216 420 L 200 420 L 200 472 L 216 472 L 226 456 L 232.10938 456 A 24 26 0 0 0 254 471.37109 A 24 26 0 0 0 275.89062 456 L 280 456 L 290 472 L 306 472 L 306 420 L 290 420.32812 L 280 435.16992 L 276.0957 435.23047 A 24 26 0 0 0 254 419.37109 z " /></g></svg>
