<?xml version="1.0" encoding="UTF-8" standalone="no"?>
<!-- Created with Inkscape (http://www.inkscape.org/) -->

<svg
   version="1.1"
   id="svg3457"
   width="512"
   height="512"
   viewBox="0 0 512 512"
   sodipodi:docname="Face Two-Face.svg"
   xml:space="preserve"
   inkscape:version="1.1.2 (0a00cf5339, 2022-02-04)"
   xmlns:inkscape="http://www.inkscape.org/namespaces/inkscape"
   xmlns:sodipodi="http://sodipodi.sourceforge.net/DTD/sodipodi-0.dtd"
   xmlns:xlink="http://www.w3.org/1999/xlink"
   xmlns="http://www.w3.org/2000/svg"
   xmlns:svg="http://www.w3.org/2000/svg"><defs
     id="defs3461"><linearGradient
       inkscape:collect="always"
       id="linearGradient4563"><stop
         style="stop-color:#212221;stop-opacity:1;"
         offset="0"
         id="stop4559" /><stop
         style="stop-color:#000000;stop-opacity:0;"
         offset="1"
         id="stop4561" /></linearGradient><linearGradient
       inkscape:collect="always"
       xlink:href="#linearGradient4563"
       id="linearGradient4565"
       x1="307.20004"
       y1="180.45972"
       x2="307.31732"
       y2="153.02477"
       gradientUnits="userSpaceOnUse"
       gradientTransform="matrix(1.007874,0,0,1.024,-2.519685,-5.12)" /><clipPath
       clipPathUnits="userSpaceOnUse"
       id="clipPath19508"><g
         inkscape:label="Clip"
         id="use19510"
         style="fill:none;fill-opacity:1;fill-rule:nonzero;stroke:#000000;stroke-opacity:1"><path
           id="path23702"
           style="fill:none;fill-opacity:1;fill-rule:nonzero;stroke:#000000;stroke-opacity:1"
           d="m 364.49755,441.60547 c 6.56925,0.0355 11.9845,-6.70773 18.55356,-6.64621 6.72165,0.063 12.19401,7.19673 18.91299,6.9971 3.5849,-0.10651 6.76052,-4.25684 7.43233,-7.77984 1.41306,-7.41012 5.16868,-19.33292 -1.6446,-22.5711 -7.07323,-3.36172 -15.28336,-5.1787 -23.49332,-5.31446 -8.20996,-0.13576 -16.41975,1.4097 -23.49227,4.77289 -7.17564,3.41222 -2.81491,15.87791 -1.85135,23.7649 0.35492,2.9051 2.65601,6.76089 5.58266,6.77672 z M 278.32893,319.15642 c -2.2098,-0.19295 -5.4791,1.53078 -5.49814,3.74891 l -0.42404,49.41198 c 1.64446,26.00116 8.90298,50.84748 20.36776,70.55482 3.81114,12.27935 20.07817,27.32862 33.27997,27.37629 l 117.68418,0.42487 c 11.27395,0.0407 19.20257,-10.06433 26.60889,-18.56433 10.82544,-12.42403 13.75705,-30.10819 18.0925,-46.00632 3.32297,-12.18537 5.98425,-24.79009 5.95341,-37.4204 l -0.10979,-44.97096 c -0.006,-2.48515 -3.79961,-4.21115 -6.27755,-4.02197 -2.90678,0.22193 -6.65872,2.86761 -6.56236,5.78126 l 0.88366,26.71825 c 0.48221,14.58003 -4.05889,28.95891 -7.7487,43.07255 -0.91322,3.4931 -1.81381,7.06656 -3.545,10.23495 -3.40584,6.2333 -7.71204,12.20958 -13.17775,16.74607 -6.14666,5.10167 -13.61838,13.48816 -21.24003,11.09673 -9.91688,-3.11161 -9.13025,-18.70022 -14.43387,-27.6388 -4.35789,-7.61763 -10.70466,-15.78392 -18.50278,-18.43627 -13.06316,-4.18718 -28.02376,-3.41344 -41.14947,0.57333 -8.64523,2.89144 -13.13803,10.43955 -17.06648,17.40227 -4.99239,8.80057 -3.78026,23.73129 -13.24321,27.31271 -6.81257,2.57833 -14.03538,-4.48609 -20.16378,-8.4233 -5.02526,-3.22849 -9.38792,-7.53165 -13.15504,-12.16687 -4.9555,-5.73652 -6.88338,-11.94882 -8.20054,-18.68122 -2.03713,-10.24138 -4.71712,-20.46381 -5.1738,-30.89584 l -1.65593,-37.82635 c -0.11283,-2.57738 -2.97204,-5.17795 -5.54211,-5.40236 z" /></g></clipPath></defs><sodipodi:namedview
     id="namedview3459"
     pagecolor="#000000"
     bordercolor="#000000"
     borderopacity="0.25"
     inkscape:showpageshadow="2"
     inkscape:pageopacity="0"
     inkscape:pagecheckerboard="true"
     inkscape:deskcolor="#d1d1d1"
     showgrid="false"
     inkscape:zoom="1.866066"
     inkscape:cx="353.14936"
     inkscape:cy="415.84811"
     inkscape:window-width="1920"
     inkscape:window-height="1012"
     inkscape:window-x="0"
     inkscape:window-y="0"
     inkscape:window-maximized="1"
     inkscape:current-layer="g3463"
     showguides="true"
     inkscape:pageshadow="2" /><g
     inkscape:groupmode="layer"
     inkscape:label="Image"
     id="g3463"><path
       style="fill:#918a6f;fill-opacity:1;stroke-width:0.029123"
       d=""
       id="path4216" /><circle
       style="display:inline;fill:#212221;fill-opacity:1;stroke-width:1.00805"
       id="path4547"
       cy="384"
       cx="130"
       r="80" /><path
       style="fill:#212221;fill-opacity:1;stroke:none;stroke-width:1px;stroke-linecap:butt;stroke-linejoin:miter;stroke-opacity:1"
       d="m 46,330 c 1.915269,3.38273 6.227101,5.06387 10,6 47.95136,11.89772 101.83821,9.60618 148,-8 3.9885,-1.52122 8.63477,-3.95545 10,-8 0.8791,-2.60437 -0.41659,-5.75314 -2,-8 -1.38465,-1.96482 -3.81829,-2.99109 -6,-4 -4.40518,-2.03713 -9.24114,-3.0467 -14,-4 -11.1892,-2.24143 -22.60806,-3.33219 -34,-4 -17.30363,-1.01436 -34.69319,-0.95854 -52,0 -12.055371,0.66769 -24.139922,1.73807 -36,4 -7.46659,1.42401 -16.121695,1.18094 -22,6 -1.15283,0.94509 -1.657505,2.54917 -2,4 -1.225349,5.19066 -2.627727,11.35893 0,16 z"
       id="path88182"
       sodipodi:nodetypes="aaaaaaaaaaaaa" /><rect
       style="fill:url(#linearGradient4565);fill-opacity:1;stroke-width:1.1371"
       id="rect4549"
       width="128"
       height="128"
       x="256"
       y="128" /><circle
       style="fill:#ffffff;stroke:none;stroke-width:4.18059;stroke-linecap:round;stroke-linejoin:round"
       id="path88031"
       cx="130"
       cy="358"
       r="38" /><path
       style="fill:#212221;fill-opacity:1;stroke:none;stroke-width:1px;stroke-linecap:butt;stroke-linejoin:miter;stroke-opacity:1"
       d="m 196,202 -4,-4 c 0,0 -13.36578,0.65692 -20,0 -3.3828,-0.33496 -6.82936,-0.77421 -10,-2 -3.62577,-1.40175 -6.25375,-4.96235 -10,-6 -2.56991,-0.71182 -5.40467,0.61267 -8,0 -2.90167,-0.68499 -5.76489,-2.02689 -8,-4 -1.802,-1.59078 -1.98149,-4.69486 -4,-6 -3.40534,-2.20184 -8.09481,-0.90731 -12,-2 -3.45732,-0.96737 -10,-4 -10,-4 H 68 v 10 h 36 c 1.49071,0 2.94591,0.94591 4,2 1.05409,1.05409 1.09688,2.814 2,4 5.43378,7.13572 11.98366,13.97721 20,18 3.03825,1.52466 6.67683,1.2844 10,2 8.69513,1.87237 17.11558,6.42211 26,6 6.31743,-0.30015 12.31856,-3.2213 18,-6 4.31856,-2.11214 12,-8 12,-8 z"
       id="path92133"
       sodipodi:nodetypes="ccaaaaaaacccsaaaaaac" /><path
       style="fill:#212221;fill-opacity:1;stroke:none;stroke-width:1px;stroke-linecap:butt;stroke-linejoin:miter;stroke-opacity:1"
       d="m 234,52 c 0,0 -0.6628,21.353946 0,32 0.33398,5.364452 2,16 2,16 H 208 C 170.45754,95.296857 135.54246,76.703143 98,72 c -4.630473,-0.580084 -9.417537,-0.882502 -14,0 -7.050663,1.357834 -13.740539,4.482231 -20,8 -5.811764,3.266167 -9.511097,10.470756 -16,12 -5.127783,1.208468 -15.547711,-2.838948 -15.547711,-2.838948 0,0 1.165857,-24.256132 7.095422,-34.322104 4.948053,-8.399767 13.567668,-14.495055 22.180016,-19.063072 6.746324,-3.578273 14.487025,-5.515773 22.107655,-6.008655 8.653481,-0.559684 17.368018,1.401722 25.773748,3.532393 30.51998,7.73616 57.07604,30.029399 88.39087,33.300294 10.06213,1.051009 21.60059,1.03932 30,-4.599908 3.22739,-2.166815 6,-10 6,-10 z"
       id="path95847"
       sodipodi:nodetypes="caccaaaacaaaaaac" /><path
       style="fill:#ffffff;fill-opacity:1;stroke:none;stroke-width:1px;stroke-linecap:butt;stroke-linejoin:miter;stroke-opacity:1"
       d="m 366,459 c 9.24782,1.26055 18.7656,1.35532 28,0 3.44321,-0.50536 6.84439,-1.53261 10,-3 18.77863,-8.73224 37.29085,-19.4216 52,-34 5.12173,-5.07621 8.93027,-11.47491 12,-18 2.96292,-6.29806 4.98929,-13.11357 6,-20 1.35532,-9.2344 1.49503,-18.78718 0,-28 -0.67539,-4.16193 -2.27901,-8.15085 -4,-12 -2.19385,-4.90672 -4.73751,-9.72858 -8,-14 -2.8614,-3.74628 -6.35443,-7.01135 -10,-10 -1.85888,-1.52392 -3.89415,-2.84104 -6,-4 -5.7523,-3.16579 -11.73083,-6.04844 -18,-8 -5.18104,-1.61283 -10.59701,-2.49785 -16,-3 -6.63806,-0.61694 -13.38328,-0.81456 -20,0 -6.82036,0.83962 -13.7156,2.21997 -20,5 -15.38753,6.80698 -29.59764,16.62931 -42,28 -3.14649,2.88476 -5.63553,6.44592 -8,10 -4.62692,6.95481 -9.27541,14.10352 -12,22 -1.32267,3.8334 -1.66553,7.95864 -2,12 -0.65984,7.97274 -1.10961,16.07733 0,24 0.67317,4.80649 2.02785,9.56534 4,14 2.55563,5.74668 5.89857,11.232 10,16 4.0082,4.65963 8.87957,8.60016 14,12 3.72566,2.47375 7.82615,4.39408 12,6 5.81184,2.23614 11.82988,4.15896 18,5 z"
       id="path104306"
       sodipodi:nodetypes="aaaaaaaaaaaaaaaaaaaaaaaaa" /><ellipse
       style="display:inline;fill:#212221;fill-opacity:1;stroke-width:0.510286"
       id="circle104036"
       cy="400"
       cx="375"
       rx="41"
       ry="40" /><circle
       style="fill:#ffffff;stroke:none;stroke-width:1.98029;stroke-linecap:round;stroke-linejoin:round"
       id="circle104038"
       cx="378"
       cy="386"
       r="18" /></g></svg>
