<?xml version="1.0" encoding="UTF-8" standalone="no"?>
<!-- Created with Inkscape (http://www.inkscape.org/) -->

<svg
   width="512px"
   height="512px"
   viewBox="0 0 512 512"
   version="1.1"
   id="SVGRoot"
   sodipodi:docname="Danju Face.svg"
   xml:space="preserve"
   inkscape:version="1.2.2 (b0a8486541, 2022-12-01)"
   xmlns:inkscape="http://www.inkscape.org/namespaces/inkscape"
   xmlns:sodipodi="http://sodipodi.sourceforge.net/DTD/sodipodi-0.dtd"
   xmlns="http://www.w3.org/2000/svg"
   xmlns:svg="http://www.w3.org/2000/svg"><sodipodi:namedview
     id="namedview28674"
     pagecolor="#ffffff"
     bordercolor="#000000"
     borderopacity="0.25"
     inkscape:showpageshadow="2"
     inkscape:pageopacity="0.0"
     inkscape:pagecheckerboard="0"
     inkscape:deskcolor="#d1d1d1"
     inkscape:document-units="px"
     showgrid="false"
     inkscape:zoom="1.5055415"
     inkscape:cx="227.16079"
     inkscape:cy="184.65117"
     inkscape:window-width="1912"
     inkscape:window-height="1011"
     inkscape:window-x="1924"
     inkscape:window-y="28"
     inkscape:window-maximized="0"
     inkscape:current-layer="layer1" /><defs
     id="defs28669" /><g
     inkscape:label="Layer 1"
     inkscape:groupmode="layer"
     id="layer1"><rect
       style="display:inline;fill:#ffd40c;stroke-width:3.25433;stroke-linejoin:round"
       id="rect29049"
       width="512"
       height="512"
       x="0"
       y="0" /><path
       style="fill:#887763;stroke-linejoin:round"
       d="m 0,52 h 512 l -112,28 -34,94 -6,-46 -24,56 4,-24 c 0,0 -14.94627,40.89179 -32,52 -12.40324,8.07904 -29.19839,5.84716 -44,6 -17.44741,0.18016 -38.45419,4.99798 -52,-6 -16.36664,-13.28824 -20,-60 -20,-60 l -8,32 -16,-40 -18,34 -38,-98 z"
       id="path28813"
       sodipodi:nodetypes="cccccccaaacccccc" /><path
       style="fill:#887763;stroke-linejoin:round"
       d="M 0,190 V 52 H 68 L 88,120 67.760553,112.28039 86,158 68,148 96,190 Z"
       id="path28941"
       sodipodi:nodetypes="ccccccccc" /><path
       style="fill:#887763;stroke-linejoin:round"
       d="m 32,204 h 44 c 0,0 -6.243571,40.99953 0,60 7.79626,23.72562 34.41294,37.44576 44.43978,60.31821 8.13579,18.55872 9.62467,39.51075 11.56022,59.68179 2.29244,23.89026 0,72 0,72 L 96,424 88,324 56,316 V 230 H 32 Z"
       id="path29052"
       sodipodi:nodetypes="ccaaaccccccc" /><path
       style="fill:#887763;stroke-linejoin:round"
       d="m 240,358 4,-24 -98,28 z"
       id="path29119"
       sodipodi:nodetypes="cccc" /><path
       style="fill:#887763;stroke-linejoin:round"
       d="m 226,412 30,-6 30,6 -20,40 h -20 z"
       id="path29123"
       sodipodi:nodetypes="cccccc" /><path
       style="fill:#887763;stroke-linejoin:round"
       d="M 512,190 V 52 h -68 l -20,68 20.23945,-7.71961 L 426,158 l 18,-10 -28,42 z"
       id="path29129"
       sodipodi:nodetypes="ccccccccc" /><path
       style="fill:#887763;stroke-linejoin:round"
       d="m 480,204 h -44 c 0,0 6.24357,40.99953 0,60 -7.79626,23.72562 -34.41294,37.44576 -44.43978,60.31821 C 383.42443,342.87693 381.93555,363.82896 380,384 c -2.29244,23.89026 0,72 0,72 l 36,-32 8,-100 32,-8 v -86 h 24 z"
       id="path29131"
       sodipodi:nodetypes="ccaaaccccccc" /><path
       style="fill:#887763;stroke-linejoin:round"
       d="m 272,358 -4,-24 98,28 z"
       id="path29133"
       sodipodi:nodetypes="cccc" /></g></svg>
