<?xml version="1.0" encoding="UTF-8" standalone="no"?>
<!-- Created with Inkscape (http://www.inkscape.org/) -->

<svg
   width="512px"
   height="512px"
   viewBox="0 0 512 512"
   version="1.1"
   id="SVGRoot"
   sodipodi:docname="Danju Torso Front.svg"
   xml:space="preserve"
   inkscape:version="1.2.2 (b0a8486541, 2022-12-01)"
   xmlns:inkscape="http://www.inkscape.org/namespaces/inkscape"
   xmlns:sodipodi="http://sodipodi.sourceforge.net/DTD/sodipodi-0.dtd"
   xmlns="http://www.w3.org/2000/svg"
   xmlns:svg="http://www.w3.org/2000/svg"><sodipodi:namedview
     id="namedview10952"
     pagecolor="#ffffff"
     bordercolor="#000000"
     borderopacity="0.25"
     inkscape:showpageshadow="2"
     inkscape:pageopacity="0.0"
     inkscape:pagecheckerboard="0"
     inkscape:deskcolor="#d1d1d1"
     inkscape:document-units="px"
     showgrid="false"
     inkscape:zoom="1.0645786"
     inkscape:cx="252.68214"
     inkscape:cy="323.13255"
     inkscape:window-width="1912"
     inkscape:window-height="1011"
     inkscape:window-x="1924"
     inkscape:window-y="28"
     inkscape:window-maximized="0"
     inkscape:current-layer="layer1" /><defs
     id="defs10947" /><g
     inkscape:label="Layer 1"
     inkscape:groupmode="layer"
     id="layer1"><rect
       style="display:inline;fill:#8c31a4;stroke:none;stroke-width:1.3827;stroke-linejoin:round"
       id="rect12587"
       width="512"
       height="512"
       x="0"
       y="0" /><path
       style="fill:#ffd40c;stroke:none;stroke-width:0.75;stroke-linejoin:round"
       d="m 211,82 36,81 c 0,0 2.05869,16.91355 8.33635,16.88764 C 261.58874,179.86184 263.5,163 263.5,163 L 301,82 c 6.35762,-13.732466 -29.86726,6 -45,6 -15.13274,0 -51.14599,-19.828478 -45,-6 z"
       id="path26262"
       sodipodi:nodetypes="scacsas" /><path
       style="fill:#ffd40c;stroke:none;stroke-width:0.75;stroke-linejoin:round"
       d="m 232,166 -7.5,-24 h -114 l -4.5,24 z"
       id="path26327"
       sodipodi:nodetypes="ccccc" /><path
       style="fill:#ffd40c;stroke:none;stroke-width:0.75;stroke-linejoin:round"
       d="m 248.5,205 -9,-24 H 97 l -6,24 z"
       id="path26329"
       sodipodi:nodetypes="ccccc" /><path
       style="fill:#ffd40c;stroke:none;stroke-width:0.75;stroke-linejoin:round"
       d="m 94,229 h 31.5 l 49.5,36 v 99 l -30,-45 v -45 z"
       id="path26396"
       sodipodi:nodetypes="ccccccc" /><path
       style="fill:#ffd40c;stroke:none;stroke-width:0.75;stroke-linejoin:round"
       d="m 160,229 h 31.5 L 241,265 V 434.5 L 211,403 V 274 Z"
       id="path26400"
       sodipodi:nodetypes="ccccccc" /><path
       style="fill:#ffd40c;stroke:none;stroke-width:0.75;stroke-linejoin:round"
       d="m 280,166 7.5,-24 h 114 l 4.5,24 z"
       id="path26404"
       sodipodi:nodetypes="ccccc" /><path
       style="fill:#ffd40c;stroke:none;stroke-width:0.75;stroke-linejoin:round"
       d="m 263.5,205 9,-24 H 415 l 6,24 z"
       id="path26406"
       sodipodi:nodetypes="ccccc" /><path
       style="fill:#ffd40c;stroke:none;stroke-width:0.75;stroke-linejoin:round"
       d="M 418,229 H 386.5 L 337,265 v 99 l 30,-45 v -45 z"
       id="path26408"
       sodipodi:nodetypes="ccccccc" /><path
       style="fill:#ffd40c;stroke:none;stroke-width:0.75;stroke-linejoin:round"
       d="M 352,229 H 320.5 L 271,265 V 434.5 L 301,403 V 274 Z"
       id="path26410"
       sodipodi:nodetypes="ccccccc" /></g></svg>
