<?xml version="1.0" encoding="UTF-8" standalone="no"?>
<!-- Created with Inkscape (http://www.inkscape.org/) -->

<svg
   width="256"
   height="256"
   viewBox="0 0 256 256"
   version="1.1"
   id="svg1"
   xml:space="preserve"
   inkscape:version="1.3.2 (091e20ef0f, 2023-11-25)"
   sodipodi:docname="Head Front Vampire.svg"
   xmlns:inkscape="http://www.inkscape.org/namespaces/inkscape"
   xmlns:sodipodi="http://sodipodi.sourceforge.net/DTD/sodipodi-0.dtd"
   xmlns="http://www.w3.org/2000/svg"
   xmlns:svg="http://www.w3.org/2000/svg"><sodipodi:namedview
     id="namedview1"
     pagecolor="#ffffff"
     bordercolor="#000000"
     borderopacity="0.25"
     inkscape:showpageshadow="2"
     inkscape:pageopacity="0.0"
     inkscape:pagecheckerboard="0"
     inkscape:deskcolor="#d1d1d1"
     inkscape:document-units="px"
     inkscape:zoom="2"
     inkscape:cx="133.25"
     inkscape:cy="174.75"
     inkscape:window-width="1920"
     inkscape:window-height="980"
     inkscape:window-x="1920"
     inkscape:window-y="0"
     inkscape:window-maximized="1"
     inkscape:current-layer="layer1" /><defs
     id="defs1" /><g
     inkscape:label="Head"
     inkscape:groupmode="layer"
     id="layer1"><rect
       style="fill:#ffffff;fill-opacity:1;stroke:none;stroke-width:10.0995;stroke-linecap:round;stroke-linejoin:round;stroke-dasharray:none;stroke-opacity:1"
       id="rect19"
       width="256"
       height="256"
       x="-256"
       y="-256"
       inkscape:label="Background"
       transform="scale(-1)" /><g
       id="g17"
       inkscape:label="FaceDetailR"><path
         style="display:inline;fill:#6788a0;fill-opacity:1;stroke:none;stroke-width:4;stroke-linecap:round;stroke-linejoin:round;stroke-dasharray:none;stroke-opacity:1"
         d="m 47,140 c 0,0 -1.355834,-13.3345 -1,-20 0.27706,-5.18992 0.766964,-10.47773 2.432125,-15.40106 C 49.233281,102.23018 52,98 52,98 c 0,0 16.043016,-0.828497 24,0 12.874723,1.340541 38,8 38,8 0,0 0.32582,5.35331 0,8 -0.25189,2.04611 -0.85807,4.04094 -1.5,6 -1.23358,3.76467 -2.86299,7.39242 -4.5,11 -1.23197,2.71498 -2.32853,5.53118 -4,8 -1.12514,1.66187 -2.57535,3.08644 -4,4.5 -1.257659,1.24787 -2.43008,2.67888 -4,3.5 -1.217847,0.63698 -2.635929,0.83208 -4,1 -2.646687,0.32582 -5.359109,0.36987 -8,0 -4.806495,-0.67317 -9.390743,-2.48003 -14,-4 -5.409466,-1.78385 -10.395398,-4.98369 -16,-6 -1.311938,-0.2379 -2.723877,-0.38638 -4,0 -1.150281,0.34828 -3,2 -3,2 z"
         id="path4"
         sodipodi:nodetypes="caacacaaaaaaaaaaac"
         inkscape:label="EyeSinkR" /><path
         style="fill:#212321;fill-opacity:1;stroke:none;stroke-width:4;stroke-linecap:round;stroke-linejoin:round;stroke-dasharray:none;stroke-opacity:1"
         d="m 40.5,131 c 1.480631,0.24027 3.014499,0.20805 4.5,0 1.201624,-0.16829 2.369187,-0.56013 3.5,-1 0.694653,-0.27021 2,-1 2,-1 0,0 0.292355,-1.09438 0,-1.5 -0.308169,-0.42756 -0.979759,-0.41558 -1.5,-0.5 -0.987087,-0.16018 -2.012913,-0.16018 -3,0 -2.080963,0.33769 -4.324611,0.72035 -6,2 -0.477559,0.36476 -1,1.5 -1,1.5 0,0 0.979759,0.41558 1.5,0.5 z"
         id="path13"
         sodipodi:nodetypes="aaacaaaaca"
         inkscape:label="WrinkleBottomR" /><path
         style="fill:#212321;fill-opacity:1;stroke:none;stroke-width:4;stroke-linecap:round;stroke-linejoin:round;stroke-dasharray:none;stroke-opacity:1"
         d="m 39,118.5 c 0,0 5.298506,-1.24892 8,-1.5 0.663806,-0.0617 1.38408,-0.25512 2,0 0.653281,0.2706 1.386734,0.80202 1.5,1.5 0.0597,0.36787 -0.236477,0.73648 -0.5,1 -0.263523,0.26352 -0.637292,0.41438 -1,0.5 -2.919747,0.68926 -6.354976,1.41557 -9,0 -0.52982,-0.28355 -1,-1.5 -1,-1.5 z"
         id="path14"
         sodipodi:nodetypes="caaaaaac"
         inkscape:label="WrinkleMiddleR" /><path
         style="fill:#212321;fill-opacity:1;stroke:none;stroke-width:4;stroke-linecap:round;stroke-linejoin:round;stroke-dasharray:none;stroke-opacity:1"
         d="m 40.5,105.5 c 1.510465,-0.28215 3.010604,0.6221 4.5,1 1.176085,0.29841 2.327942,0.68615 3.5,1 0.663798,0.17775 2,0.5 2,0.5 0,0 0.235929,1.05916 0,1.5 -0.283551,0.52982 -0.91515,0.86194 -1.5,1 -1.307764,0.30872 -2.727155,-0.0694 -4,-0.5 -2.193298,-0.74199 -6,-3.5 -6,-3.5 0,0 0.909292,-0.88966 1.5,-1 z"
         id="path12"
         sodipodi:nodetypes="aaacaaaca"
         inkscape:label="WrinkleTopR" /></g><g
       id="g18"
       inkscape:label="FaceDetailL"><path
         style="display:inline;fill:#6788a0;fill-opacity:1;stroke:none;stroke-width:4;stroke-linecap:round;stroke-linejoin:round;stroke-dasharray:none;stroke-opacity:1"
         d="m 206,140 c 0,0 1.35583,-13.3345 1,-20 -0.27706,-5.18992 -0.76696,-10.47773 -2.43212,-15.40106 C 203.76672,102.23018 201,98 201,98 c 0,0 -16.04302,-0.828497 -24,0 -12.87472,1.340541 -38,8 -38,8 0,0 -0.32582,5.35331 0,8 0.25189,2.04611 0.85807,4.04094 1.5,6 1.23358,3.76467 2.86299,7.39242 4.5,11 1.23197,2.71498 2.32853,5.53118 4,8 1.12514,1.66187 2.57535,3.08644 4,4.5 1.25766,1.24787 2.43008,2.67888 4,3.5 1.21785,0.63698 2.63593,0.83208 4,1 2.64669,0.32582 5.35911,0.36987 8,0 4.80649,-0.67317 9.39074,-2.48003 14,-4 5.40947,-1.78385 10.3954,-4.98369 16,-6 1.31194,-0.2379 2.72388,-0.38638 4,0 1.15028,0.34828 3,2 3,2 z"
         id="path6"
         sodipodi:nodetypes="caacacaaaaaaaaaaac"
         inkscape:label="EyeSinkL" /><path
         style="fill:#212321;fill-opacity:1;stroke:none;stroke-width:4;stroke-linecap:round;stroke-linejoin:round;stroke-dasharray:none;stroke-opacity:1"
         d="m 212.60486,131 c -1.48063,0.24027 -3.0145,0.20805 -4.5,0 -1.20162,-0.16829 -2.36919,-0.56013 -3.5,-1 -0.69465,-0.27021 -2,-1 -2,-1 0,0 -0.29236,-1.09438 0,-1.5 0.30817,-0.42756 0.97976,-0.41558 1.5,-0.5 0.98709,-0.16018 2.01291,-0.16018 3,0 2.08096,0.33769 4.32461,0.72035 6,2 0.47756,0.36476 1,1.5 1,1.5 0,0 -0.97976,0.41558 -1.5,0.5 z"
         id="path16"
         sodipodi:nodetypes="aaacaaaaca"
         inkscape:label="WrinkleBottomL" /><path
         style="fill:#212321;fill-opacity:1;stroke:none;stroke-width:4;stroke-linecap:round;stroke-linejoin:round;stroke-dasharray:none;stroke-opacity:1"
         d="m 214.10486,118.5 c 0,0 -5.29851,-1.24892 -8,-1.5 -0.66381,-0.0617 -1.38408,-0.25512 -2,0 -0.65328,0.2706 -1.38673,0.80202 -1.5,1.5 -0.0597,0.36787 0.23648,0.73648 0.5,1 0.26352,0.26352 0.63729,0.41438 1,0.5 2.91975,0.68926 6.35498,1.41557 9,0 0.52982,-0.28355 1,-1.5 1,-1.5 z"
         id="path17"
         sodipodi:nodetypes="caaaaaac"
         inkscape:label="WrinkleMiddleL" /><path
         style="fill:#212321;fill-opacity:1;stroke:none;stroke-width:4;stroke-linecap:round;stroke-linejoin:round;stroke-dasharray:none;stroke-opacity:1"
         d="m 212.60486,105.5 c -1.51046,-0.28215 -3.0106,0.6221 -4.5,1 -1.17609,0.29841 -2.32794,0.68615 -3.5,1 -0.6638,0.17775 -2,0.5 -2,0.5 0,0 -0.23593,1.05916 0,1.5 0.28355,0.52982 0.91515,0.86194 1.5,1 1.30776,0.30872 2.72715,-0.0694 4,-0.5 2.1933,-0.74199 6,-3.5 6,-3.5 0,0 -0.90929,-0.88966 -1.5,-1 z"
         id="path15"
         sodipodi:nodetypes="aaacaaaca"
         inkscape:label="WrinkleTopL" /></g><g
       id="g19"
       inkscape:label="Mouth"><path
         style="fill:#212321;fill-opacity:1;stroke:none;stroke-width:4;stroke-linecap:round;stroke-linejoin:round;stroke-dasharray:none;stroke-opacity:1"
         d="m 61,166 c 0.567101,-0.35049 1.344343,-0.12066 2,0 7.36703,1.35572 13.853814,5.75431 21,8 5.244609,1.64812 10.587314,3.03821 16,4 4.62099,0.82112 9.31331,1.24964 14,1.5 7.98861,0.42674 16.01139,0.42674 24,0 4.68669,-0.25036 9.37901,-0.67888 14,-1.5 5.41269,-0.96179 10.74301,-2.39181 16,-4 7.46179,-2.28268 22,-8 22,-8 0,0 2.29289,-0.70711 3,0 0.70711,0.70711 0.43319,2.0987 0,3 -0.92459,1.92372 -3.16361,2.91224 -5,4 -3.72835,2.20844 -7.88649,3.63735 -12,5 -5.2186,1.72872 -10.63646,2.79392 -16,4 -3.31653,0.74578 -6.64455,1.45549 -10,2 -2.65272,0.43048 -5.31777,0.83301 -8,1 -10.64605,0.6628 -21.36439,0.81334 -32,0 -8.7431,-0.66861 -17.579017,-1.55543 -26,-4 -5.590616,-1.62293 -10.798726,-4.3855 -16,-7 -2.401135,-1.20697 -5.153164,-2.04771 -7,-4 -0.51222,-0.54147 -1,-1.25464 -1,-2 0,-0.74536 0.365962,-1.60814 1,-2 z"
         id="path7"
         sodipodi:nodetypes="aaaaaaaacaaaaaaaaaaaaa"
         inkscape:label="Smile" /><path
         style="fill:#212321;fill-opacity:1;stroke:none;stroke-width:4;stroke-linecap:round;stroke-linejoin:round;stroke-dasharray:none;stroke-opacity:1"
         d="m 70,174 c 0,0 -0.256138,14.76737 1,22 0.775805,4.46695 1.661425,9.11585 4,13 0.72946,1.21156 1.592669,2.86065 3,3 1.196001,0.11843 3,-2 3,-2 0,0 1.786948,-9.38413 3,-14 1.42022,-5.40418 5,-16 5,-16 h -5 c 0,0 -1.846133,7.61786 -2.828735,11.4117 C 79.994898,195.95367 77.5,205 77.5,205 c 0,0 -2.609135,-8.15254 -3.184158,-12.3719 C 73.567255,187.13518 74,176 74,176 Z"
         id="path8"
         sodipodi:nodetypes="caaacaccacacc"
         inkscape:label="ToothR" /><path
         style="fill:#212321;fill-opacity:1;stroke:none;stroke-width:4;stroke-linecap:round;stroke-linejoin:round;stroke-dasharray:none;stroke-opacity:1"
         d="m 182.97851,174 c 0,0 0.25614,14.76737 -1,22 -0.7758,4.46695 -1.66143,9.11585 -4,13 -0.72946,1.21156 -1.59267,2.86065 -3,3 -1.196,0.11843 -3,-2 -3,-2 0,0 -1.78695,-9.38413 -3,-14 -1.42022,-5.40418 -5,-16 -5,-16 h 5 c 0,0 1.84613,7.61786 2.82873,11.4117 1.17637,4.54197 3.67127,13.5883 3.67127,13.5883 0,0 2.60914,-8.15254 3.18416,-12.3719 C 179.41126,187.13518 178.97851,176 178.97851,176 Z"
         id="path9"
         sodipodi:nodetypes="caaacaccacacc"
         inkscape:label="ToothL" /></g><path
       style="fill:#212321;fill-opacity:1;stroke:none;stroke-width:4;stroke-linecap:round;stroke-linejoin:round;stroke-dasharray:none;stroke-opacity:1"
       d="m 65,155.5 c 0,0 -1.225182,-2.84396 -2.5,-3.5 -1.333751,-0.68637 -3.13164,-0.61448 -4.5,0 -3.661608,1.6443 -6.172678,5.42621 -8,9 -0.699537,1.36812 -1.079162,2.96545 -1,4.5 0.02715,0.52635 0.5,1.5 0.5,1.5 0,0 4.556766,-5.22916 7.232933,-7.40844 C 57.735607,158.77505 58.850067,158.09135 60,157.5 c 1.596347,-0.82091 5,-2 5,-2 z"
       id="path10"
       sodipodi:nodetypes="caaaacaac"
       inkscape:label="DimpleR" /><path
       style="fill:#212321;fill-opacity:1;stroke:none;stroke-width:4;stroke-linecap:round;stroke-linejoin:round;stroke-dasharray:none;stroke-opacity:1"
       d="m 188,155.5 c 0,0 1.22518,-2.84396 2.5,-3.5 1.33375,-0.68637 3.13164,-0.61448 4.5,0 3.66161,1.6443 6.17268,5.42621 8,9 0.69954,1.36812 1.07916,2.96545 1,4.5 -0.0272,0.52635 -0.5,1.5 -0.5,1.5 0,0 -4.55676,-5.22916 -7.23293,-7.40844 C 195.2644,158.77505 194.14993,158.09135 193,157.5 c -1.59635,-0.82091 -5,-2 -5,-2 z"
       id="path11"
       sodipodi:nodetypes="caaaacaac"
       inkscape:label="DimpleL" /></g><g
     inkscape:groupmode="layer"
     id="layer2"
     inkscape:label="Face"><path
       style="display:inline;fill:#212321;fill-opacity:1;stroke-width:20;stroke-linecap:round;stroke-linejoin:round"
       d="m 52,59 c 0,0 -1.520226,0.429586 -2,1 -2.240087,2.663291 -2.494643,6.556786 -3,10 -0.677661,4.617202 -0.747517,9.393592 0,14 0.337694,2.080963 1.662306,3.919037 2,6 0.533941,3.290292 0,10 0,10 0,0 16.711475,-0.863017 25,0 12.874723,1.34054 25.125277,6.65946 38,8 1.6577,0.1726 5,0 5,0 0,0 0.92588,-2.62763 1,-4 0.26313,-4.871993 -2,-14.5 -2,-14.5 0,0 -1.49001,1.562559 -2,2.5 -1.00747,1.851877 -0.28975,4.767322 -2,6 -1.62248,1.169421 -4.00681,0.164961 -6,0 C 101.95864,97.665527 97.922032,97.030588 94,96 86.453066,94.016901 79.111982,91.210702 72,88 68.193287,86.28146 64.437713,84.37204 61,82 58.470532,80.254654 55.714801,78.550275 54,76 52.823656,74.250526 52.337694,72.080963 52,70 51.412665,66.380679 52,59 52,59 Z"
       id="path1"
       sodipodi:nodetypes="caaaacaacacaaaaaaaac"
       inkscape:label="EyebrowR" /><circle
       style="display:inline;fill:#ff0000;fill-opacity:1;stroke:#212321;stroke-width:4;stroke-linecap:round;stroke-linejoin:round;stroke-dasharray:none;stroke-opacity:1"
       id="path2"
       cx="85"
       cy="118"
       r="18"
       inkscape:label="EyeR" /><path
       style="fill:#212321;fill-opacity:1;stroke-width:20;stroke-linecap:round;stroke-linejoin:round"
       d="m 201,59 c 0,0 1.52023,0.429586 2,1 2.24009,2.663291 2.49464,6.556786 3,10 0.67766,4.617202 0.74752,9.393592 0,14 -0.33769,2.080963 -1.66231,3.919037 -2,6 -0.53394,3.290292 0,10 0,10 0,0 -16.71148,-0.863017 -25,0 -12.87472,1.34054 -25.12528,6.65946 -38,8 -1.6577,0.1726 -5,0 -5,0 0,0 -0.92588,-2.62763 -1,-4 -0.26313,-4.871993 2,-14.5 2,-14.5 0,0 1.49001,1.562559 2,2.5 1.00747,1.851877 0.28975,4.767322 2,6 1.62248,1.169421 4.00681,0.164961 6,0 4.04136,-0.334473 8.07797,-0.969412 12,-2 7.54693,-1.983099 14.88802,-4.789298 22,-8 3.80671,-1.71854 7.56229,-3.62796 11,-6 2.52947,-1.745346 5.2852,-3.449725 7,-6 1.17634,-1.749474 1.66231,-3.919037 2,-6 0.58733,-3.619321 0,-11 0,-11 z"
       id="path3"
       sodipodi:nodetypes="caaaacaacacaaaaaaaac"
       inkscape:label="EyebrowL" /><circle
       style="display:inline;fill:#ff0000;fill-opacity:1;stroke:#212321;stroke-width:4;stroke-linecap:round;stroke-linejoin:round;stroke-dasharray:none;stroke-opacity:1"
       id="circle3"
       cx="168"
       cy="118"
       r="18"
       inkscape:label="EyeL" /></g></svg>
