<?xml version="1.0" encoding="UTF-8" standalone="no"?>
<!-- Created with Inkscape (http://www.inkscape.org/) -->

<svg
   width="256px"
   height="512px"
   viewBox="0 0 256 512"
   version="1.1"
   id="SVGRoot"
   sodipodi:docname="Jayko Shield.svg"
   xml:space="preserve"
   inkscape:version="1.2.2 (b0a8486541, 2022-12-01)"
   inkscape:export-filename="Jayko Shield.png"
   inkscape:export-xdpi="96"
   inkscape:export-ydpi="96"
   xmlns:inkscape="http://www.inkscape.org/namespaces/inkscape"
   xmlns:sodipodi="http://sodipodi.sourceforge.net/DTD/sodipodi-0.dtd"
   xmlns="http://www.w3.org/2000/svg"
   xmlns:svg="http://www.w3.org/2000/svg"><sodipodi:namedview
     id="namedview1054"
     pagecolor="#ffffff"
     bordercolor="#000000"
     borderopacity="0.25"
     inkscape:showpageshadow="2"
     inkscape:pageopacity="0.0"
     inkscape:pagecheckerboard="0"
     inkscape:deskcolor="#d1d1d1"
     inkscape:document-units="px"
     showgrid="false"
     inkscape:zoom="0.75277076"
     inkscape:cx="39.85277"
     inkscape:cy="278.96939"
     inkscape:window-width="1912"
     inkscape:window-height="1011"
     inkscape:window-x="1924"
     inkscape:window-y="28"
     inkscape:window-maximized="0"
     inkscape:current-layer="layer1" /><defs
     id="defs1049" /><g
     inkscape:label="Layer 1"
     inkscape:groupmode="layer"
     id="layer1"><rect
       style="display:inline;fill:#ffffff;stroke:none;stroke-width:3.52872;stroke-linecap:round;stroke-linejoin:round"
       id="rect3581"
       width="252.47128"
       height="508.47128"
       x="1.7643582"
       y="1.7643582" /><path
       style="display:inline;fill:#84b2ff;stroke:none;stroke-width:10;stroke-linecap:round;stroke-linejoin:round;stroke-dasharray:none;stroke-opacity:1"
       d="m 64,0 h 128 l 64,72 v 28 L 128,248 0,100 V 72 Z"
       id="path6048"
       sodipodi:nodetypes="cccccccc" /><circle
       style="display:inline;fill:#ffffff;stroke:none;stroke-width:13.7442;stroke-linecap:round;stroke-linejoin:round;stroke-dasharray:none;stroke-opacity:1"
       id="path6103"
       cx="128"
       cy="-248"
       transform="scale(1,-1)"
       r="56" /><path
       style="display:inline;fill:#84b2ff;stroke:none;stroke-width:10;stroke-linecap:round;stroke-linejoin:round;stroke-dasharray:none;stroke-opacity:1"
       d="m 72,512 h 120 l 64,-72 V 250 L 128,384 0,250 v 190 z"
       id="path6106"
       sodipodi:nodetypes="cccccccc" /><path
       style="display:inline;fill:#b56a3d;stroke:#212221;stroke-width:10;stroke-linecap:square;stroke-linejoin:round;stroke-dasharray:none;stroke-opacity:1"
       d="m 72,512 -16,-16 6,-108 22,-32 40,-10 c 14.18477,1.81545 28.39007,3.38812 42,12 l 6,8 10,6 20,18 2,24 -12,30 -2,-28 -6,-4 -16,-2 20,10 -8,15 -20,-7 4,84"
       id="path6298"
       sodipodi:nodetypes="cccccccccccccccccc" /><path
       style="fill:#b56a3d;stroke:#212221;stroke-width:10;stroke-linecap:square;stroke-linejoin:round;stroke-dasharray:none;stroke-opacity:1"
       d="M 236,462 C 225.72073,412.8315 221.20811,361.73051 204,334 l 18,10 c -4.50087,-14.13409 -5.38677,-21.08629 -10,-34 -5.96342,-15.61574 -17.50454,-36.32469 -22.27531,-43.88901 C 215.68861,275.22056 235.39916,306.98188 256,332 v 104 z"
       id="path6553"
       sodipodi:nodetypes="cccccccc" /><path
       style="fill:#212221;stroke:#212221;stroke-width:2.5;stroke-linecap:square;stroke-linejoin:round;stroke-dasharray:none;stroke-opacity:1"
       d="m 144,376 6,4 8,-4 -6,-6 -20,-4 12,6 z"
       id="path6630"
       sodipodi:nodetypes="ccccccc" /><path
       style="fill:#b56a3d;stroke:#212221;stroke-width:10;stroke-linecap:square;stroke-linejoin:round;stroke-dasharray:none;stroke-opacity:1"
       d="m 19.72538,462 c 10.27927,-49.1685 14.79189,-100.26949 32,-128 l -18,10 c 4.50087,-14.13409 5.38677,-21.08629 10,-34 C 49.6888,294.38426 61.22992,273.67531 66.00069,266.11099 40.03677,275.22056 20.32622,306.98188 -0.27462,332 v 104 z"
       id="path6561"
       sodipodi:nodetypes="cccccccc" /><path
       style="fill:#b56a3d;stroke:#212221;stroke-width:10;stroke-linecap:square;stroke-linejoin:round;stroke-dasharray:none;stroke-opacity:1"
       d="m 236,50.11077 c -10.27927,49.1685 -14.79189,100.26949 -32,128 l 18,-10 c -4.50087,14.13409 -5.38677,21.08629 -10,34 -5.96342,15.61574 -17.50454,36.32469 -22.27531,43.88901 25.96392,-9.10957 45.67447,-40.87089 66.27531,-65.88901 v -104 z"
       id="path6699"
       sodipodi:nodetypes="cccccccc" /><path
       style="fill:#b56a3d;stroke:#212221;stroke-width:10;stroke-linecap:square;stroke-linejoin:round;stroke-dasharray:none;stroke-opacity:1"
       d="m 19.72538,50.11077 c 10.27927,49.1685 14.79189,100.26949 32,128 l -18,-10 c 4.50087,14.13409 5.38677,21.08629 10,34 5.96342,15.61574 17.50454,36.32469 22.27531,43.88901 -25.96392,-9.10957 -45.67447,-40.87089 -66.27531,-65.88901 v -104 z"
       id="path6701"
       sodipodi:nodetypes="cccccccc" /><path
       style="display:inline;fill:#b56a3d;stroke:#212221;stroke-width:10;stroke-linecap:square;stroke-linejoin:round;stroke-dasharray:none;stroke-opacity:1"
       d="m 188,2.07108 16,16 -6,108 -22,32 -40,10 c -14.18477,-1.81545 -28.39007,-3.38812 -41.999996,-12 l -6,-8 -10,-6 -20,-18 -2,-24 12,-30 2,28 6,4 16,2 -20,-10 8,-15 19.999996,7 -3.999996,-84"
       id="path6705"
       sodipodi:nodetypes="cccccccccccccccccc" /><path
       style="fill:#212221;stroke:#212221;stroke-width:2.5;stroke-linecap:square;stroke-linejoin:round;stroke-dasharray:none;stroke-opacity:1"
       d="m 116,138.07108 -6,-4 -8,4 6,6 20,4 -12,-6 z"
       id="path6707"
       sodipodi:nodetypes="ccccccc" /><path
       style="display:inline;fill:none;stroke:#212221;stroke-width:10;stroke-linecap:round;stroke-linejoin:round;stroke-dasharray:none;stroke-opacity:1"
       d="M 0,72 64,0 h 128 l 64,72 v 368 l -64,72 H 72 L 0,440 Z"
       id="path3646"
       sodipodi:nodetypes="ccccccccc" /></g></svg>
