<?xml version="1.0" encoding="UTF-8" standalone="no"?>
<!-- Created with Inkscape (http://www.inkscape.org/) -->

<svg
   width="512"
   height="512"
   viewBox="0 0 512 512"
   version="1.1"
   id="svg1"
   xml:space="preserve"
   inkscape:version="1.3.2 (091e20ef0f, 2023-11-25)"
   sodipodi:docname="Torso Front Vampire.svg"
   xmlns:inkscape="http://www.inkscape.org/namespaces/inkscape"
   xmlns:sodipodi="http://sodipodi.sourceforge.net/DTD/sodipodi-0.dtd"
   xmlns="http://www.w3.org/2000/svg"
   xmlns:svg="http://www.w3.org/2000/svg"><sodipodi:namedview
     id="namedview1"
     pagecolor="#ffffff"
     bordercolor="#000000"
     borderopacity="0.25"
     inkscape:showpageshadow="2"
     inkscape:pageopacity="0.0"
     inkscape:pagecheckerboard="0"
     inkscape:deskcolor="#d1d1d1"
     inkscape:document-units="px"
     inkscape:zoom="1"
     inkscape:cx="205.5"
     inkscape:cy="265.5"
     inkscape:window-width="1920"
     inkscape:window-height="980"
     inkscape:window-x="1920"
     inkscape:window-y="0"
     inkscape:window-maximized="1"
     inkscape:current-layer="layer1" /><defs
     id="defs1" /><g
     inkscape:label="Layer 1"
     inkscape:groupmode="layer"
     id="layer1"><rect
       style="fill:#212321;fill-opacity:1;stroke-width:19.5987;stroke-linecap:round;stroke-linejoin:round"
       id="rect1"
       width="512"
       height="512"
       x="0"
       y="0" /><path
       style="display:inline;fill:#730200;fill-opacity:1;stroke-width:4;stroke-linecap:round;stroke-linejoin:round"
       d="m 188,474 h 133 c 0,0 0.92159,-54.72746 3,-82 2.85595,-37.47531 7.59171,-74.80718 13,-112 3.89561,-26.79017 8.72895,-53.44619 14,-80 4.78693,-24.11493 9.71321,-48.23194 16,-72 4.63741,-17.53235 16,-52 16,-52 H 126 c 0,0 11.36259,34.46765 16,52 6.28679,23.76806 11.21307,47.88507 16,72 5.27105,26.55381 10.10439,53.20983 14,80 5.40829,37.19282 10.14405,74.52469 13,112 2.07841,27.27254 3,82 3,82 z"
       id="path1"
       sodipodi:nodetypes="ccaaaaccaaaac" /><path
       style="fill:#a2a39c;fill-opacity:1;stroke-width:4;stroke-linecap:round;stroke-linejoin:round"
       d="m 103,76 c 0,0 -1.43874,17.416669 -3,26 -1.475729,8.11309 -3.571079,16.11962 -6,24 -3.976121,12.9001 -14,38 -14,38 v 8 c 0,0 7.645617,9.34195 12,13.5 3.256738,3.10989 6.78302,5.95798 10.5,8.5 3.32741,2.27559 10.5,6 10.5,6 h 4 c 0,0 7.42466,-4.87104 11,-7.5 4.11021,-3.02225 12,-9.5 12,-9.5 0,0 2.31058,-4.45291 1,-6 -0.64637,-0.76302 -3,0 -3,0 0,0 -5.7576,5.01726 -9,7 -4.70729,2.87852 -15,7 -15,7 0,0 -4.78584,-3.17799 -7,-5 -3.18635,-2.62201 -6.3029,-5.37695 -9,-8.5 -2.65944,-3.07944 -7,-10 -7,-10 0,0 6.478191,-15.4999 9,-23.5 3.30551,-10.4863 6.05519,-21.17842 8,-32 2.13565,-11.88347 4,-36 4,-36 z"
       id="path2"
       sodipodi:nodetypes="caaccaaccacacacaacaacc" /><path
       style="fill:#a2a39c;fill-opacity:1;stroke-width:4;stroke-linecap:round;stroke-linejoin:round"
       d="m 74.5,132 c 0,0 -3.874685,35.94844 -4.5,54 -0.830953,23.98793 -1.387109,48.11668 1,72 1.079322,10.79874 2.826581,21.62179 6,32 1.964587,6.4249 4.72804,12.63202 8,18.5 4.255678,7.63219 9.4708,14.73324 15,21.5 6.1165,7.48551 13.30942,14.02285 20,21 9.3002,9.69855 18.90641,19.10747 28,29 3.59699,3.91301 7.1531,7.87104 10.5,12 3.67324,4.53156 7.69296,8.88646 10.5,14 1.35897,2.47561 1.46702,5.54862 2.98902,7.92748 C 173.01588,415.53245 176,418 176,418 c 0,0 0.46267,-5.37378 0,-8 -0.67693,-3.84239 -2.27578,-7.5001 -4,-11 -1.92069,-3.8987 -4.48886,-7.45274 -7,-11 -2.5863,-3.65343 -5.41556,-7.13292 -8.28945,-10.56472 -13.79281,-16.47044 -29.21503,-31.53403 -42.93084,-48.06864 -4.85144,-5.84848 -9.69341,-11.73963 -13.904118,-18.06507 C 96.195862,305.77378 92.706091,300.06415 90,294 87.678087,288.79676 86.07813,283.28404 84.610229,277.77857 83.052329,271.93555 81.741221,266.00154 81,260 c -1.799604,-14.5711 -1.833366,-29.31914 -2,-44 -0.166505,-14.66951 -1.199745,-29.4954 1,-44 0.727739,-4.79854 4.17472,-9.14974 4,-14 -0.33217,-9.22109 -9.5,-26 -9.5,-26 z"
       id="path3"
       sodipodi:nodetypes="caaaaaaaaaacaaaaaaaaaaaac" /><path
       style="fill:#a2a39c;fill-opacity:1;stroke-width:4;stroke-linecap:round;stroke-linejoin:round"
       d="m 130,384 c -0.70711,-0.70711 -2.01291,-0.16018 -3,0 -1.04048,0.16885 -2.02615,0.59662 -3,1 -7.2305,2.99497 -14.13288,6.74598 -21,10.5 -7.147901,3.90751 -14.174963,8.05253 -21,12.5 -7.710377,5.02439 -15.234697,10.35112 -22.5,16 -5.694347,4.42744 -16.5,14 -16.5,14 0,0 -1.062167,1.60463 -1,2.5 0.09307,1.34048 0.837812,2.82556 2,3.5 1.297365,0.75289 4.5,0 4.5,0 0,0 10.785526,-10.2466 16.5,-15 8.046877,-6.69353 16.544313,-12.83097 25,-19 3.287029,-2.39812 6.559443,-4.82788 10,-7 9.71911,-6.13596 30,-17 30,-17 0,0 0.4714,-1.5286 0,-2 z"
       id="path4"
       sodipodi:nodetypes="aaaaaacaacaaaca" /><path
       style="fill:#a2a39c;fill-opacity:1;stroke-width:4;stroke-linecap:round;stroke-linejoin:round"
       d="m 406.493,76 c 0,0 1.43874,17.416669 3,26 1.47573,8.11309 3.57108,16.11962 6,24 3.97613,12.9001 14,38 14,38 v 8 c 0,0 -7.64561,9.34195 -12,13.5 -3.25673,3.10989 -6.78302,5.95798 -10.5,8.5 -3.32741,2.27559 -10.5,6 -10.5,6 h -4 c 0,0 -7.42466,-4.87104 -11,-7.5 -4.11021,-3.02225 -12,-9.5 -12,-9.5 0,0 -2.31058,-4.45291 -1,-6 0.64637,-0.76302 3,0 3,0 0,0 5.7576,5.01726 9,7 4.70729,2.87852 15,7 15,7 0,0 4.78584,-3.17799 7,-5 3.18635,-2.62201 6.3029,-5.37695 9,-8.5 2.65944,-3.07944 7,-10 7,-10 0,0 -6.47819,-15.4999 -9,-23.5 -3.30551,-10.4863 -6.05519,-21.17842 -8,-32 -2.13565,-11.88347 -4,-36 -4,-36 z"
       id="path6"
       sodipodi:nodetypes="caaccaaccacacacaacaacc" /><path
       style="fill:#a2a39c;fill-opacity:1;stroke-width:4;stroke-linecap:round;stroke-linejoin:round"
       d="m 434.993,132 c 0,0 3.87469,35.94844 4.5,54 0.83096,23.98793 1.38711,48.11668 -1,72 -1.07932,10.79874 -2.82658,21.62179 -6,32 -1.96458,6.4249 -4.72804,12.63202 -8,18.5 -4.25567,7.63219 -9.4708,14.73324 -15,21.5 -6.1165,7.48551 -13.30942,14.02285 -20,21 -9.3002,9.69855 -18.90641,19.10747 -28,29 -3.59699,3.91301 -7.1531,7.87104 -10.5,12 -3.67324,4.53156 -7.69296,8.88646 -10.5,14 -1.35897,2.47561 -1.46702,5.54862 -2.98902,7.92748 C 336.47712,415.53245 333.493,418 333.493,418 c 0,0 -0.46267,-5.37378 0,-8 0.67693,-3.84239 2.27578,-7.5001 4,-11 1.92069,-3.8987 4.48886,-7.45274 7,-11 2.5863,-3.65343 5.41556,-7.13292 8.28945,-10.56472 13.79281,-16.47044 29.21503,-31.53403 42.93084,-48.06864 4.85144,-5.84848 9.69341,-11.73963 13.90412,-18.06507 3.67973,-5.52779 7.1695,-11.23742 9.87559,-17.30157 2.32192,-5.20324 3.92187,-10.71596 5.38978,-16.22143 1.5579,-5.84302 2.869,-11.77703 3.61022,-17.77857 1.79961,-14.5711 1.83337,-29.31914 2,-44 0.16651,-14.66951 1.19975,-29.4954 -1,-44 -0.72773,-4.79854 -4.17472,-9.14974 -4,-14 0.33217,-9.22109 9.5,-26 9.5,-26 z"
       id="path7"
       sodipodi:nodetypes="caaaaaaaaaacaaaaaaaaaaaac" /><path
       style="display:inline;fill:#212321;fill-opacity:1;stroke-width:4;stroke-linecap:round;stroke-linejoin:round"
       d="m 172,76 c 0,0 30.03791,19.037739 44,30 7.05451,5.53881 13.67751,11.63836 20,18 5.65892,5.69395 16,18 16,18 1.10727,1.24568 3.89273,1.24568 5,0 0,0 10.34108,-12.30605 16,-18 6.32249,-6.36164 12.91674,-12.49801 20,-18 14.23727,-11.058943 45,-30 45,-30 z"
       id="path8"
       sodipodi:nodetypes="caassaacc" /><path
       style="fill:#212321;fill-opacity:1;stroke-width:4;stroke-linecap:round;stroke-linejoin:round"
       d="m 157,76 c 0,0 2.32375,6.586234 3,10 0.65096,3.286103 0.83313,6.6542 1,10 0.19925,3.995034 0.19925,8.00497 0,12 -0.16687,3.3458 -0.34904,6.7139 -1,10 -0.67625,3.41377 -1.59387,6.81662 -3,10 -0.78533,1.77793 -1.8904,3.4042 -3,5 -1.21848,1.75239 -4,5 -4,5 v 8 h 1 c 0,0 1.95786,-1.40134 3,-2 4.42743,-2.54338 9.00238,-4.8772 13.76047,-6.72962 3.50553,-1.36477 7.1361,-2.44859 10.82172,-3.20199 3.22375,-0.65899 6.51498,-1.15524 9.80535,-1.13857 4.90771,0.0249 9.80353,0.84033 14.6071,1.84631 3.98296,0.83413 7.82765,2.23254 11.70825,3.45758 4.5119,1.42433 13.45374,4.52441 13.45374,4.52441 0,0 1.52231,-1.69995 1.84337,-2.75812 0.38712,-1.2759 0.30634,-2.70233 0,-4 -0.3425,-1.45083 -1.21629,-2.73192 -2,-4 -0.87622,-1.41775 -1.77254,-2.87256 -3,-4 -2.31597,-2.12724 -5.1551,-3.66007 -8,-5 -4.76807,-2.24573 -9.85591,-3.85276 -15,-5 -5.56893,-1.24199 -11.29541,-1.88493 -17,-2 -4.34525,-0.0876 -13,1 -13,1 0,0 0.80435,-1.69212 1,-2.59976 0.94423,-4.38033 0.83483,-8.94017 0.77146,-13.42066 -0.085,-6.00784 -0.0463,-12.140093 -1.54292,-17.959155 C 171.77248,81.247194 171.03621,79.509502 170,78 c -0.53358,-0.777291 -2,-2 -2,-2 z"
       id="path9"
       sodipodi:nodetypes="caaaaaacccaaaaaacaaaaaaacaaaacc" /><path
       style="fill:#212321;fill-opacity:1;stroke-width:4;stroke-linecap:round;stroke-linejoin:round"
       d="m 352.26092,76 c 0,0 -2.32375,6.586234 -3,10 -0.65096,3.286103 -0.83313,6.6542 -1,10 -0.19925,3.995034 -0.19925,8.00497 0,12 0.16687,3.3458 0.34904,6.7139 1,10 0.67625,3.41377 1.59387,6.81662 3,10 0.78533,1.77793 1.8904,3.4042 3,5 1.21848,1.75239 4,5 4,5 v 8 h -1 c 0,0 -1.95786,-1.40134 -3,-2 -4.42743,-2.54338 -9.00238,-4.8772 -13.76047,-6.72962 -3.50553,-1.36477 -7.1361,-2.44859 -10.82172,-3.20199 -3.22375,-0.65899 -6.51498,-1.15524 -9.80535,-1.13857 -4.90771,0.0249 -9.80353,0.84033 -14.6071,1.84631 -3.98296,0.83413 -7.82765,2.23254 -11.70825,3.45758 -4.5119,1.42433 -13.45374,4.52441 -13.45374,4.52441 0,0 -1.52231,-1.69995 -1.84337,-2.75812 -0.38712,-1.2759 -0.30634,-2.70233 0,-4 0.3425,-1.45083 1.21629,-2.73192 2,-4 0.87622,-1.41775 1.77254,-2.87256 3,-4 2.31597,-2.12724 5.1551,-3.66007 8,-5 4.76807,-2.24573 9.85591,-3.85276 15,-5 5.56893,-1.24199 11.29541,-1.88493 17,-2 4.34525,-0.0876 13,1 13,1 0,0 -0.80435,-1.69212 -1,-2.59976 -0.94423,-4.38033 -0.83483,-8.94017 -0.77146,-13.42066 0.085,-6.00784 0.0463,-12.140093 1.54292,-17.959155 0.45606,-1.773231 1.19233,-3.510923 2.22854,-5.020425 0.53358,-0.777291 2,-2 2,-2 z"
       id="path10"
       sodipodi:nodetypes="caaaaaacccaaaaaacaaaaaaacaaaacc" /><path
       style="fill:#c98621;fill-opacity:1;stroke:#212321;stroke-width:6;stroke-linecap:round;stroke-linejoin:round;stroke-dasharray:none;stroke-opacity:1"
       d="m 194,166 h 121 v 12 H 194 Z"
       id="path12"
       sodipodi:nodetypes="ccccc" /><circle
       style="display:inline;fill:#c98621;fill-opacity:1;stroke:#212321;stroke-width:6;stroke-linecap:round;stroke-linejoin:round;stroke-dasharray:none;stroke-opacity:1"
       id="circle11"
       cx="329"
       cy="172"
       r="16" /><circle
       style="display:inline;fill:#c98621;fill-opacity:1;stroke:#212321;stroke-width:6;stroke-linecap:round;stroke-linejoin:round;stroke-dasharray:none;stroke-opacity:1"
       id="path11"
       cx="180"
       cy="172"
       r="16" /><path
       style="fill:#c98621;fill-opacity:1;stroke:#212321;stroke-width:6;stroke-linecap:round;stroke-linejoin:round;stroke-dasharray:none;stroke-opacity:1"
       d="m 208,234 h 93 v 12 h -93 z"
       id="path16"
       sodipodi:nodetypes="ccccc" /><circle
       style="display:inline;fill:#c98621;fill-opacity:1;stroke:#212321;stroke-width:6;stroke-linecap:round;stroke-linejoin:round;stroke-dasharray:none;stroke-opacity:1"
       id="circle16"
       cx="315"
       cy="240"
       r="16" /><circle
       style="display:inline;fill:#c98621;fill-opacity:1;stroke:#212321;stroke-width:6;stroke-linecap:round;stroke-linejoin:round;stroke-dasharray:none;stroke-opacity:1"
       id="circle17"
       cx="194"
       cy="240"
       r="16" /><path
       style="fill:#c98621;fill-opacity:1;stroke:#212321;stroke-width:6;stroke-linecap:round;stroke-linejoin:round;stroke-dasharray:none;stroke-opacity:1"
       d="m 220,300 h 69 v 12 h -69 z"
       id="path17"
       sodipodi:nodetypes="ccccc" /><circle
       style="display:inline;fill:#c98621;fill-opacity:1;stroke:#212321;stroke-width:6;stroke-linecap:round;stroke-linejoin:round;stroke-dasharray:none;stroke-opacity:1"
       id="circle18"
       cx="303"
       cy="306"
       r="16" /><circle
       style="display:inline;fill:#c98621;fill-opacity:1;stroke:#212321;stroke-width:6;stroke-linecap:round;stroke-linejoin:round;stroke-dasharray:none;stroke-opacity:1"
       id="circle19"
       cx="206"
       cy="306"
       r="16" /><path
       style="fill:#c98621;fill-opacity:1;stroke:#212321;stroke-width:6;stroke-linecap:round;stroke-linejoin:round;stroke-dasharray:none;stroke-opacity:1"
       d="m 226,368 h 57 v 12 h -57 z"
       id="path19"
       sodipodi:nodetypes="ccccc" /><circle
       style="display:inline;fill:#c98621;fill-opacity:1;stroke:#212321;stroke-width:6;stroke-linecap:round;stroke-linejoin:round;stroke-dasharray:none;stroke-opacity:1"
       id="circle20"
       cx="297"
       cy="374"
       r="16" /><circle
       style="display:inline;fill:#c98621;fill-opacity:1;stroke:#212321;stroke-width:6;stroke-linecap:round;stroke-linejoin:round;stroke-dasharray:none;stroke-opacity:1"
       id="circle21"
       cx="212"
       cy="374"
       r="16" /><path
       style="fill:#c98621;fill-opacity:1;stroke:#212321;stroke-width:6;stroke-linecap:round;stroke-linejoin:round;stroke-dasharray:none;stroke-opacity:1"
       d="m 232,434 h 45 v 12 h -45 z"
       id="path21"
       sodipodi:nodetypes="ccccc" /><circle
       style="display:inline;fill:#c98621;fill-opacity:1;stroke:#212321;stroke-width:6;stroke-linecap:round;stroke-linejoin:round;stroke-dasharray:none;stroke-opacity:1"
       id="circle22"
       cx="293"
       cy="440"
       r="16" /><circle
       style="display:inline;fill:#c98621;fill-opacity:1;stroke:#212321;stroke-width:6;stroke-linecap:round;stroke-linejoin:round;stroke-dasharray:none;stroke-opacity:1"
       id="circle23"
       cx="218"
       cy="440"
       r="16" /><path
       id="path23"
       style="display:inline;opacity:1;fill:#ffffff;fill-opacity:1;stroke:none;stroke-width:6;stroke-linecap:round;stroke-linejoin:round;stroke-dasharray:none;stroke-opacity:1"
       d="m 432.5,367.63867 c -1.50968,0 -3.01937,0.12106 -4.5,0.36133 -8.32384,1.35078 -15.72236,6.39014 -24,8 -5.24545,1.0202 -10.77433,-0.11706 -16,1 -2.78508,0.59535 -5.6944,1.32807 -8,3 -1.72788,1.25299 -3.29351,2.98594 -4,5 -0.33101,0.94363 -0.49562,2.13146 0,3 2.11082,3.6991 7.46883,4.11889 11,6.5 2.9573,1.99414 8.5,6.5 8.5,6.5 0,0 10.36383,-9.06862 16,-13 5.08727,-3.54851 16,-9.5 16,-9.5 0,0 -1.5,-0.79289 -1.5,-1.5 0,-0.4714 0.56448,-0.8196 1,-1 0.26946,-0.11161 0.56146,-0.15571 0.85938,-0.15625 0.38302,-6.9e-4 0.77565,0.0701 1.14062,0.15625 0.72542,0.17125 1.60814,0.36596 2,1 0.35049,0.5671 0.4714,1.5286 0,2 -0.4714,0.4714 -2,0 -2,0 0,0 -11.2758,6.95004 -16.5,11 -5.13036,3.97722 -10.48462,7.89945 -14.5,13 -3.04434,3.86707 -5.04793,8.48208 -7,13 -1.25426,2.9029 -2.49346,5.87856 -3,9 -0.37376,2.3032 -0.41632,4.70411 0,7 0.50815,2.8023 3,8 3,8 0,0 8.67092,1.30626 13,2 2.00204,0.32083 4.10373,0.28218 6,1 2.941,1.1133 5.47527,3.12527 8,5 5.68969,4.22487 16,14 16,14 0,0 3.99318,-0.4792 6,-0.5 2.67173,-0.0277 5.38172,1.03243 8,0.5 0.73041,-0.14853 1.25652,-0.9472 2,-1 1.05144,-0.0747 1.94668,0.9595 3,1 0.68668,0.0264 1.39332,-0.17726 2,-0.5 1.97959,-1.05309 3.03425,-3.4213 5,-4.5 5.45923,-2.99574 12.33835,-2.40704 18,-5 1.0927,-0.50044 2.4329,-0.94036 3,-2 0.47186,-0.88167 0.22975,-2.02675 0,-3 -0.17125,-0.72542 -0.49357,-1.45312 -1,-2 -1.32061,-1.4261 -3.15843,-2.37838 -5,-3 -2.85993,-0.9654 -6.10513,-0.1451 -9,-1 -0.71484,-0.2111 -1.39534,-0.56418 -2,-1 -2.29454,-1.65381 -4.56563,-3.56226 -6,-6 -2.4613,-4.18301 -3.32683,-9.19351 -4,-14 -0.32364,-2.31078 -0.10768,-4.66915 0,-7 0.41711,-9.02886 2.5332,-17.96157 2.5,-27 -0.006,-1.67497 0.29988,-3.52835 -0.5,-5 -0.50963,-0.93764 -2.5,-2 -2.5,-2 0,0 -4.75126,3.31282 -7.5,4 -0.97014,0.24254 -2.11833,0.47186 -3,0 -1.05964,-0.5671 -1.71587,-1.83222 -2,-3 0,0 -1.00835,2.32979 -1.5,3.5 -1.18687,2.82493 -2.46501,5.61596 -3.5,8.5 -1.53142,4.26735 -3.1401,8.54847 -4,13 -0.76129,3.94101 -1.13947,7.98856 -1,12 0.15234,4.38167 0.84503,8.77055 2,13 0.47287,1.73165 1.33333,3.33333 2,5 0.66667,1.66667 2,5 2,5 0,0 -2.17776,-0.34043 -3,-1 -1.51613,-1.2162 -2.2562,-3.2043 -3,-5 -1.0519,-2.5395 -1.66415,-5.27186 -2,-8 -0.61092,-4.96254 -0.44903,-10.0202 0,-15 0.33469,-3.71172 1.0264,-7.40264 2,-11 1.01927,-3.76607 2.23865,-7.51864 4,-11 1.08514,-2.14482 2.66667,-4 4,-6 0.66667,-1 2,-3 2,-3 -0.7136,-2.9329 1,-9 1,-9 0,0 -1.198,-1.50434 -2,-2 -0.89666,-0.55417 -1.95952,-0.83115 -3,-1 -1.48063,-0.24027 -2.99032,-0.36133 -4.5,-0.36133 z"
       sodipodi:nodetypes="sssssssscacsssssscaassscssscsssssssssssssssssscsscsssssscsssssssccsss" /></g></svg>
