<?xml version="1.0" encoding="UTF-8" standalone="no"?>
<!-- Created with Inkscape (http://www.inkscape.org/) -->

<svg
   width="512px"
   height="512px"
   viewBox="0 0 512 512"
   version="1.1"
   id="SVGRoot"
   sodipodi:docname="Head Front Anakin Skywalker (Dark Side).svg"
   xml:space="preserve"
   inkscape:version="1.2.2 (b0a8486541, 2022-12-01)"
   xmlns:inkscape="http://www.inkscape.org/namespaces/inkscape"
   xmlns:sodipodi="http://sodipodi.sourceforge.net/DTD/sodipodi-0.dtd"
   xmlns="http://www.w3.org/2000/svg"
   xmlns:svg="http://www.w3.org/2000/svg"><sodipodi:namedview
     id="namedview429"
     pagecolor="#ffffff"
     bordercolor="#000000"
     borderopacity="0.25"
     inkscape:showpageshadow="2"
     inkscape:pageopacity="0.0"
     inkscape:pagecheckerboard="0"
     inkscape:deskcolor="#d1d1d1"
     inkscape:document-units="px"
     showgrid="false"
     inkscape:zoom="1"
     inkscape:cx="358"
     inkscape:cy="239.5"
     inkscape:window-width="1920"
     inkscape:window-height="1039"
     inkscape:window-x="1920"
     inkscape:window-y="0"
     inkscape:window-maximized="1"
     inkscape:current-layer="layer1" /><defs
     id="defs424" /><g
     inkscape:label="Layer 1"
     inkscape:groupmode="layer"
     id="layer1"><rect
       style="display:inline;fill:#f5c798;stroke:none;stroke-width:93.0098;stroke-linejoin:bevel"
       id="rect5084"
       width="512"
       height="512"
       x="0"
       y="0"
       inkscape:label="background" /><path
       id="path729"
       style="fill:#980000;stroke-width:8.5;stroke-linecap:round;stroke-linejoin:round"
       d="M 354.43164 75.976562 C 352.20739 75.907479 350.00557 76.180176 348 77 C 345.18361 78.151259 343.40211 81.030794 341.48633 83.394531 C 339.34431 86.037409 337.24184 88.832843 336 92 C 334.63957 95.469597 334.07072 99.273894 334 103 C 333.9105 107.7132 335.15473 112.36236 336 117 C 336.55105 120.02337 337.09302 123.0637 338 126 C 339.5893 131.14529 342.58138 135.80506 344 141 C 345.15497 145.22945 344.19747 150.00336 346 154 C 347.07034 156.37321 348.42581 160.38898 351 160 C 354.59039 155.78673 356.80182 149.54287 359 144 C 360.28293 140.765 360.87455 137.2931 362 134 C 363.50146 129.60669 364.75241 125.0625 367 121 C 367.80684 119.54165 369.05749 118.37457 370 117 C 371.77833 114.40647 373.77023 111.89423 375 109 C 376.07494 106.47016 376.89031 103.74655 377 101 C 377.16182 96.948054 376.55185 92.746486 375 89 C 373.90268 86.350833 372.13899 83.909688 370 82 C 367.43996 79.714402 364.32215 77.860859 361 77 C 358.90261 76.456511 356.6559 76.045646 354.43164 75.976562 z M 392.19141 85.96875 C 390.35858 85.951608 388.49554 86.057476 387 87 C 385.98323 87.640789 385.47171 88.894591 385 90 C 383.79381 92.826577 384.20431 96.172623 383 99 C 382.52808 100.10794 381.51205 100.91784 381 102.00781 C 379.52144 105.15514 378 108.52267 378 112 L 378 126 C 378 128.53859 379.76558 130.78175 381 133 C 382.97854 136.55541 386.46084 139.2335 388 143 C 388.767 144.87692 389 146.97241 389 149 C 389 151.02759 388.92779 153.19713 388 155 C 386.70576 157.51495 383.53127 158.62193 382 161 C 381.22907 162.19726 380.904 163.63451 380.5 165 C 378.07921 173.182 376.15707 181.54621 375 190 C 374.18511 195.95373 372.78216 202.11546 374 208 C 374.45316 210.18967 374.81599 213.52031 377 214 C 379.08468 214.45787 380.54388 211.56053 382 210 C 385.59564 206.14654 388.23422 201.48645 391 197 C 393.19179 193.44465 394.57102 189.39772 397 186 C 398.57786 183.79286 400.71438 182.04271 402.5 180 C 406.78352 175.09974 411.59909 170.54931 415 165 C 416.32649 162.83554 418.0169 160.53853 418 158 C 417.97812 154.71712 414.1583 152.27913 414 149 C 413.94917 147.94713 414.52168 146.93932 415 146 C 416.30118 143.44478 418.62432 141.5159 420 139 C 420.86119 137.42502 421.22925 135.62116 422 134 C 423.47357 130.90058 425.95674 128.26946 427 125 C 427.9176 122.12439 428.13087 119.01562 428 116 C 427.85262 112.60385 428.01553 108.73737 426 106 C 422.61017 101.39614 415.52927 101.20374 410.93945 97.794922 C 406.82696 94.740615 404.56263 89.328928 400 87 C 398.19407 86.078201 396.02745 86.0236 394 86 C 393.41079 85.99315 392.80235 85.974464 392.19141 85.96875 z M 108 143 C 105.86573 142.97866 104.17175 145.21603 103 147 C 100.91352 150.17664 100 158 100 158 L 100 200 C 100 200 101.25608 201.0463 102 201 C 103.19953 200.92532 104.17062 199.86981 105 199 C 106.34128 197.59333 106.73566 195.47622 108 194 C 109.69351 192.02268 112.20687 190.88745 114 189 C 116.29587 186.58337 118.94591 184.16228 120 181 C 121.1595 177.52149 120.27959 173.65599 120 170 C 119.66569 165.62845 119.23452 161.20692 118 157 C 117.0756 153.84988 115.97932 150.61917 114 148 C 112.43038 145.92297 110.60329 143.026 108 143 z M 108.75781 207.79688 C 107.30129 207.80388 105.84186 208.04574 104.5 208.5 C 101.12152 209.64373 98.072012 212.09673 96 215 C 95.387665 215.858 95.168847 216.95952 95 218 C 94.572847 220.63223 94.8343 223.33849 95 226 C 95.166989 228.68223 95.134148 231.45589 96 234 C 96.423636 235.24476 96.972968 236.57936 98 237.40039 C 99.366844 238.49307 101.27102 238.7301 103 239 C 103.98803 239.15423 105.1137 239.46311 106 239 C 110.13872 236.83746 111.85076 231.64564 114 227.5 C 114.89786 225.76812 115.66153 223.9212 116 222 C 116.63618 218.38894 117.55524 214.32049 116 211 C 115.44787 209.82119 114.22396 208.94313 113 208.5 C 111.66795 208.01773 110.21433 207.78987 108.75781 207.79688 z M 408 218 C 406.33333 218 404.89826 219.59611 404 221 C 401.42779 225.02014 401.76449 230.28902 401 235 C 400.5165 237.97949 400.0259 240.98165 400 244 C 399.90797 254.71303 400.48471 265.58603 403 276 C 403.42144 277.74488 403.86898 279.60608 405 281 C 405.75726 281.93328 406.804 283.11843 408 283 C 408.93822 282.9071 409.52188 281.81258 410 281 C 411.23065 278.9085 411.1557 276.27509 412 274 C 413.6605 269.52557 415.27022 264.91485 418 261 C 419.07851 259.45327 421.18317 258.69951 422 257 C 423.30756 254.27945 422.9834 251.01842 423 248 C 423.01841 244.65009 422.70066 241.27587 422 238 C 421.55906 235.93844 420.96467 233.87453 420 232 C 417.92541 227.96867 415.18224 224.22938 412 221 C 410.83019 219.81286 409.66667 218 408 218 z M 123 226 C 123 226 115.75635 232.17577 113 236 C 112.56418 236.60466 112 238 112 238 L 112 267 C 112 267 113.69344 269.4588 115 270 C 116.5398 270.63781 118.4602 270.63781 120 270 C 121.30656 269.4588 122.22149 268.18064 123 267 C 123.98816 265.50141 123.86898 263.39392 125 262 C 125.75726 261.06672 126.84972 260.34828 128 260 C 129.59515 259.51703 131.46809 259.34347 133 260 C 141.88506 263.80789 153 281 153 281 C 155.73701 284.01071 159.11938 286.77674 163 288 C 172.21946 290.90618 182.40577 289.1811 192 288 C 194.72814 287.66415 197.47596 287.08847 200 286 C 209.08509 282.08212 217.50099 276.45395 225 270 C 227.68569 267.68859 232 262 232 262 L 232 256 L 227 256 C 221.92283 256 217.55841 259.76423 213 262 C 206.83757 265.02249 201.6443 270.27829 195 272 C 186.28776 274.25757 176.85557 273.60582 168 272 C 165.1977 271.49185 162.39453 270.54187 160 269 C 154.84753 265.68225 151.33333 260.33333 147 256 C 144.33333 253.33333 141.81005 250.51512 139 248 C 137.40962 246.57654 135.10965 245.82325 134 244 C 133.11635 242.54809 133.29596 240.67371 133 239 C 132.23656 234.68267 131 226 131 226 L 123 226 z M 100 246 C 100 246 97.909089 247.21387 97 248 C 93.607859 250.93334 90.848199 254.53606 88 258 C 86.941475 259.28736 85 262 85 262 L 85 296 C 85 296 85.845378 302.15197 87 305 C 88.911649 309.71535 91.846236 314.00718 95 318 C 96.460953 319.84964 98.285098 321.38301 100 323 C 102.92038 325.75364 105.67625 328.74971 109 331 C 110.23441 331.83574 111.79067 332.12837 113 333 C 120.26603 338.23706 132 352 132 352 L 141 352 L 141 345 C 141 345 137.6238 341.70846 136 340 C 126.40723 329.90707 116.28771 320.18939 108 309 C 106.84315 307.43812 105.6567 305.82935 105 304 C 102.72232 297.6552 102.50139 290.72257 102 284 C 101.50416 277.35181 100.73928 270.54637 102 264 C 102.67892 260.47467 105.32108 257.52533 106 254 C 106.50429 251.38145 106 246 106 246 L 100 246 z M 293 263 C 293 263 288.95763 264.30864 288 266 C 286.85037 268.03047 288 273 288 273 C 288 273 311.42068 281.55624 322 288 C 333.33737 294.90549 353 313 353 313 L 351 274 C 351 274 348.04085 269.61638 346 268 C 344.24712 266.61169 340 265 340 265 L 293 263 z M 399.21484 280.9375 C 397.37461 280.93963 395.49647 281.92141 394 283 C 392.64793 283.97452 391.73873 285.50599 391 287 C 385.01313 299.10791 384.87533 313.40336 380 326 C 377.30969 332.95109 371.88777 338.73953 370 346 L 370 358 C 370 359.49071 372.50929 360 374 360 C 374.74536 360 375.45312 359.50643 376 359 C 379.18186 355.9603 382.73431 346.59001 387 341 C 391.72072 334.8137 398.54607 330.38106 403 324 C 403.85322 322.77761 404.4828 321.39812 405 320 C 405.47683 318.711 406 317.37437 406 316 L 406 288 C 406 286.50929 404.95517 285.1445 404 284 C 402.93209 282.72041 401.64515 281.26697 400 281 C 399.73988 280.95779 399.47773 280.9372 399.21484 280.9375 z "
       inkscape:label="scarring" /></g></svg>
