<?xml version="1.0" encoding="UTF-8" standalone="no"?>
<!-- Created with Inkscape (http://www.inkscape.org/) -->

<svg
   width="512px"
   height="512px"
   viewBox="0 0 512 512"
   version="1.1"
   id="SVGRoot"
   sodipodi:docname="Head Front Anakin Skywalker (Jedi).svg"
   xml:space="preserve"
   inkscape:version="1.2.2 (b0a8486541, 2022-12-01)"
   xmlns:inkscape="http://www.inkscape.org/namespaces/inkscape"
   xmlns:sodipodi="http://sodipodi.sourceforge.net/DTD/sodipodi-0.dtd"
   xmlns="http://www.w3.org/2000/svg"
   xmlns:svg="http://www.w3.org/2000/svg"><sodipodi:namedview
     id="namedview4893"
     pagecolor="#ffffff"
     bordercolor="#000000"
     borderopacity="0.25"
     inkscape:showpageshadow="2"
     inkscape:pageopacity="0.0"
     inkscape:pagecheckerboard="0"
     inkscape:deskcolor="#d1d1d1"
     inkscape:document-units="px"
     showgrid="false"
     inkscape:zoom="2"
     inkscape:cx="278.5"
     inkscape:cy="276.75"
     inkscape:window-width="1920"
     inkscape:window-height="1039"
     inkscape:window-x="1920"
     inkscape:window-y="0"
     inkscape:window-maximized="1"
     inkscape:current-layer="layer1" /><defs
     id="defs4888" /><g
     inkscape:label="Layer 1"
     inkscape:groupmode="layer"
     id="layer1"><rect
       style="display:inline;fill:#f5c798;stroke:none;stroke-width:93.0098;stroke-linejoin:bevel"
       id="rect5084"
       width="512"
       height="512"
       x="0"
       y="0"
       inkscape:label="background" /><path
       id="path5627"
       style="fill:#b56a3d;stroke:none;stroke-width:10;stroke-linejoin:bevel"
       d="M 120 138 L 115 160 C 115 160 118.02418 173.27171 119 180 C 119.52845 183.64367 120 191 120 191 L 132 181 C 132 181 132.5065 174.95693 132 172 C 129.97087 160.15404 120 138 120 138 z M 135 207 L 122 214 L 125 230 L 138 221 C 138 221 136.5061 216.37334 136 214 C 135.50843 211.69481 135 207 135 207 z M 140 227 L 129 238 C 129 238 129.47228 243.3649 130 246 C 131.22281 252.10593 132.60346 258.25246 135 264 C 137.06851 268.96086 139.73751 273.72858 143 278 C 145.28912 280.99703 151 286 151 286 L 151 260 C 151 260 145.84089 249.52267 144 244 C 142.15911 238.47733 140 227 140 227 z M 402.5 324 C 402.5 324 383.96558 355.27487 377 372 C 373.10865 381.34354 368 401 368 401 C 368 401 376.31154 393.97991 380 390 C 384.03415 385.64708 387.82336 381.01309 391 376 C 393.39373 372.22243 395.21241 368.09933 397 364 C 399.27679 358.77884 403 348 403 348 L 402.5 324 z "
       inkscape:label="scarring" /></g></svg>
