<?xml version="1.0" encoding="UTF-8" standalone="no"?>
<!-- Created with Inkscape (http://www.inkscape.org/) -->

<svg
   width="512px"
   height="512px"
   viewBox="0 0 512 512"
   version="1.1"
   id="SVGRoot"
   sodipodi:docname="Head Front Anakin Skywalker.svg"
   xml:space="preserve"
   inkscape:version="1.2.2 (b0a8486541, 2022-12-01)"
   xmlns:inkscape="http://www.inkscape.org/namespaces/inkscape"
   xmlns:sodipodi="http://sodipodi.sourceforge.net/DTD/sodipodi-0.dtd"
   xmlns="http://www.w3.org/2000/svg"
   xmlns:svg="http://www.w3.org/2000/svg"><sodipodi:namedview
     id="namedview4893"
     pagecolor="#ffffff"
     bordercolor="#000000"
     borderopacity="0.25"
     inkscape:showpageshadow="2"
     inkscape:pageopacity="0.0"
     inkscape:pagecheckerboard="0"
     inkscape:deskcolor="#d1d1d1"
     inkscape:document-units="px"
     showgrid="false"
     inkscape:zoom="1"
     inkscape:cx="273"
     inkscape:cy="271"
     inkscape:window-width="1912"
     inkscape:window-height="1011"
     inkscape:window-x="1924"
     inkscape:window-y="28"
     inkscape:window-maximized="0"
     inkscape:current-layer="layer1" /><defs
     id="defs4888" /><g
     inkscape:label="Layer 1"
     inkscape:groupmode="layer"
     id="layer1"><rect
       style="display:inline;fill:#f5c798;stroke:none;stroke-width:93.0098;stroke-linejoin:bevel"
       id="rect5084"
       width="512"
       height="512"
       x="0"
       y="0" /><path
       style="fill:#b56a3d;stroke:none;stroke-width:10;stroke-linejoin:bevel"
       d="m 132,181 c 0,0 0.5065,-6.04307 0,-9 -2.02913,-11.84597 -12,-34 -12,-34 l -5,22 c 0,0 3.02418,13.2717 4,20 0.52845,3.64367 1,11 1,11 z"
       id="path5627"
       sodipodi:nodetypes="caccacc" /><path
       style="fill:#b56a3d;stroke:none;stroke-width:10;stroke-linejoin:bevel"
       d="m 138,221 c 0,0 -1.4939,-4.62666 -2,-7 -0.49157,-2.30519 -1,-7 -1,-7 l -13,7 3,16 z"
       id="path5692"
       sodipodi:nodetypes="cacccc" /><path
       style="fill:#b56a3d;stroke:none;stroke-width:10;stroke-linejoin:bevel"
       d="m 140,227 c 0,0 2.15911,11.47732 4,17 1.84089,5.52268 7,16 7,16 v 26 c 0,0 -5.71088,-5.00297 -8,-8 -3.26249,-4.27142 -5.93149,-9.03914 -8,-14 -2.39654,-5.74755 -3.77719,-11.89406 -5,-18 -0.52772,-2.6351 -1,-8 -1,-8 z"
       id="path5694"
       sodipodi:nodetypes="caccaaacc" /><path
       style="fill:#b56a3d;stroke:none;stroke-width:10;stroke-linejoin:bevel"
       d="m 402.5,324 0.5,24 c 0,0 -3.72321,10.77883 -6,16 -1.78759,4.09933 -3.60627,8.22243 -6,12 -3.17664,5.0131 -6.96585,9.64708 -11,14 -3.68846,3.97991 -12,11 -12,11 0,0 5.10865,-19.65645 9,-29 6.96559,-16.72515 25.5,-48 25.5,-48 z"
       id="path5696"
       sodipodi:nodetypes="ccaaacac" /></g></svg>
