<?xml version="1.0" encoding="UTF-8" standalone="no"?>
<!-- Created with Inkscape (http://www.inkscape.org/) -->

<svg
   width="512px"
   height="512px"
   viewBox="0 0 512 512"
   version="1.1"
   id="SVGRoot"
   sodipodi:docname="Head Front Anakin Skywalker (Dark Side).svg"
   xml:space="preserve"
   inkscape:version="1.2.2 (b0a8486541, 2022-12-01)"
   xmlns:inkscape="http://www.inkscape.org/namespaces/inkscape"
   xmlns:sodipodi="http://sodipodi.sourceforge.net/DTD/sodipodi-0.dtd"
   xmlns="http://www.w3.org/2000/svg"
   xmlns:svg="http://www.w3.org/2000/svg"><sodipodi:namedview
     id="namedview429"
     pagecolor="#ffffff"
     bordercolor="#000000"
     borderopacity="0.25"
     inkscape:showpageshadow="2"
     inkscape:pageopacity="0.0"
     inkscape:pagecheckerboard="0"
     inkscape:deskcolor="#d1d1d1"
     inkscape:document-units="px"
     showgrid="false"
     inkscape:zoom="2"
     inkscape:cx="248.75"
     inkscape:cy="222.5"
     inkscape:window-width="1912"
     inkscape:window-height="1011"
     inkscape:window-x="1924"
     inkscape:window-y="28"
     inkscape:window-maximized="0"
     inkscape:current-layer="layer1" /><defs
     id="defs424" /><g
     inkscape:label="Layer 1"
     inkscape:groupmode="layer"
     id="layer1"><rect
       style="display:inline;fill:#f5c798;stroke:none;stroke-width:93.0098;stroke-linejoin:bevel"
       id="rect5084"
       width="512"
       height="512"
       x="0"
       y="0" /><path
       style="fill:#980000;stroke-width:8.5;stroke-linecap:round;stroke-linejoin:round"
       d="m 100,200 v -42 c 0,0 3,-2.33333 3,-4 v -7 c 0,-2.13438 2.86573,-4.02134 5,-4 2.60329,0.026 4.57941,2.81832 6,5 1.32416,2.03359 0.76935,4.9085 2,7 0.47812,0.81258 1.6392,1.12896 2,2 1.14805,2.77164 -0.68926,6.08025 0,9 0.3425,1.45083 2,4 2,4 v 11 c 0,0 -3.70413,5.58337 -6,8 -1.79313,1.88745 -4.30649,3.02268 -6,5 -1.26434,1.47622 -1.65872,3.59333 -3,5 -0.82938,0.86981 -1.80047,1.92532 -3,2 -0.74392,0.0463 -2,-1 -2,-1 z"
       id="path729"
       sodipodi:nodetypes="ccssaaaaaccaaaac" /><path
       style="fill:#980000;stroke-width:8.5;stroke-linecap:round;stroke-linejoin:round"
       d="m 116,211 c -0.55213,-1.17881 -1.77604,-2.05687 -3,-2.5 -2.6641,-0.96454 -5.81628,-0.90853 -8.5,0 -3.37848,1.14373 -6.427986,3.59673 -8.5,6.5 -0.612336,0.858 -0.831153,1.95952 -1,3 -0.427153,2.63223 -0.1657,5.33849 0,8 0.166989,2.68223 0.134147,5.45589 1,8 0.423636,1.24476 0.972967,2.57897 2,3.4 1.366845,1.09268 3.27102,1.3301 5,1.6 0.98803,0.15423 2.1137,0.46311 3,0 4.13872,-2.16254 5.85076,-7.35436 8,-11.5 0.89786,-1.73188 1.66153,-3.5788 2,-5.5 0.63618,-3.61106 1.55524,-7.67951 0,-11 z"
       id="path827"
       sodipodi:nodetypes="aaaaaaaaaaaaa" /><path
       style="fill:#980000;stroke-width:8.5;stroke-linecap:round;stroke-linejoin:round"
       d="m 113,236 c 2.75635,-3.82423 10,-10 10,-10 h 8 c 0,0 1.23656,8.68267 2,13 0.29596,1.67371 0.11635,3.54809 1,5 1.10965,1.82325 3.40962,2.57654 5,4 2.81005,2.51512 5.33333,5.33333 8,8 4.33333,4.33333 7.84752,9.68225 13,13 2.39453,1.54187 5.01857,3 8,3 h 27 c 6.86375,0 11.83756,-6.97751 18,-10 4.55841,-2.23577 8.92282,-6 14,-6 h 5 v 6 c 0,0 -4.31431,5.68859 -7,8 -7.49902,6.45396 -15.9149,12.08212 -25,16 -2.52404,1.08847 -8,2 -8,2 h -29 c 0,0 -7.26299,-3.98929 -10,-7 l -20,-21 c -1.17851,-1.17851 -3.40485,-0.48297 -5,0 -1.15028,0.34828 -2.24274,1.06672 -3,2 -1.13102,1.39392 -1.01184,3.50141 -2,5 -0.77851,1.18064 -1.69344,2.4588 -3,3 -1.5398,0.63781 -3.4602,0.63781 -5,0 -1.30656,-0.5412 -3,-3 -3,-3 v -29 c 0,0 0.56418,-1.39534 1,-2 z"
       id="path829"
       sodipodi:nodetypes="accaaaaassasccaaccccaaaaacca" /><path
       style="fill:#980000;stroke-width:8.5;stroke-linecap:round;stroke-linejoin:round"
       d="m 100,246 c 0,0 -2.09091,1.21387 -3,2 -3.392144,2.93334 -6.151798,6.53606 -9,10 -1.058526,1.28736 -3,4 -3,4 v 34 c 0,0 0.845377,6.15197 2,9 1.911651,4.71535 4.846233,9.00718 8,13 1.460954,1.84964 3.285096,3.38301 5,5 2.92038,2.75364 5.67625,5.74971 9,8 1.23441,0.83574 2.79067,1.12837 4,2 7.26604,5.23707 19,19 19,19 h 9 v -7 c 0,0 -3.3762,-3.29154 -5,-5 -9.59278,-10.09294 -19.71228,-19.8106 -28,-31 -1.15685,-1.56188 -2.3433,-3.17065 -3,-5 -2.27768,-6.34481 -2.49861,-13.27742 -3,-20 -0.49584,-6.6482 -1.26072,-13.45362 0,-20 0.67892,-3.52533 3.32108,-6.47467 4,-10 0.50429,-2.61855 0,-8 0,-8 z"
       id="path865"
       sodipodi:nodetypes="caaccaaaaacccaaaaaacc" /><path
       style="fill:#980000;stroke-width:8.5;stroke-linecap:round;stroke-linejoin:round"
       d="m 288,266 5,-3 47,2 c 0,0 3.468,1.80385 5,3 2.22938,1.74065 6,6 6,6 l 2,39 c 0,0 -8.80472,-5.80979 -13,-9 -2.07231,-1.57585 -4.03989,-3.28659 -6,-5 -4.08543,-3.57124 -7.53009,-7.92358 -12,-11 -5.5259,-3.80321 -11.851,-6.31861 -18,-9 -5.22117,-2.27679 -16,-6 -16,-6 z"
       id="path877"
       sodipodi:nodetypes="cccaccaaaacc" /><path
       style="display:inline;fill:#980000;stroke-width:8.5;stroke-linecap:round;stroke-linejoin:round"
       d="m 375,89 c -1.09732,-2.64917 -2.86101,-5.09031 -5,-7 -2.56004,-2.2856 -5.67785,-4.13914 -9,-5 -4.19479,-1.086979 -8.98885,-1.63965 -13,0 -2.81639,1.15126 -4.59835,4.03027 -6.51413,6.39401 C 339.34385,86.03689 337.24184,88.83284 336,92 c -1.36043,3.4696 -1.92928,7.27389 -2,11 -0.0895,4.7132 1.15473,9.36236 2,14 0.55105,3.02337 1.09302,6.0637 2,9 1.5893,5.1453 4.58138,9.80505 6,15 1.15497,4.22945 0.19747,9.00336 2,13 1.07034,2.37321 2.42581,6.38898 5,6 4.28469,-0.64745 2.85006,-8.23761 5,-12 0.8269,-1.44707 2.24894,-2.51215 3,-4 1.56826,-3.10671 1.87455,-6.7069 3,-10 1.50146,-4.39331 2.75241,-8.9375 5,-13 0.80684,-1.45835 2.05749,-2.62543 3,-4 1.77833,-2.59353 3.77023,-5.10577 5,-8 1.07494,-2.52984 1.89031,-5.25345 2,-8 0.16182,-4.05195 -0.44815,-8.25351 -2,-12 z"
       id="path890"
       sodipodi:nodetypes="aaaaaaaaaaaaaaaaaaaa" /><path
       style="fill:#980000;stroke-width:8.5;stroke-linecap:round;stroke-linejoin:round"
       d="m 387,87 c 1.99406,-1.2567 4.64314,-1.0274 7,-1 2.02745,0.0236 4.19407,0.0782 6,1 4.56263,2.32893 6.82601,7.74023 10.93851,10.79454 4.58982,3.40882 11.67166,3.6016 15.06149,8.20546 2.01553,2.73737 1.85262,6.60385 2,10 0.13087,3.01562 -0.0824,6.12439 -1,9 -1.04326,3.26946 -3.52643,5.90058 -5,9 -0.77075,1.62116 -1.13881,3.42502 -2,5 -1.37568,2.5159 -3.69882,4.44478 -5,7 -0.47832,0.93932 -1.05083,1.94713 -1,3 0.1583,3.27913 3.97812,5.71712 4,9 0.0169,2.53853 -1.67351,4.83554 -3,7 -3.40091,5.54932 -8.21648,10.09974 -12.5,15 -1.78562,2.04271 -3.92214,3.79286 -5.5,6 -2.42898,3.39772 -3.80821,7.44465 -6,11 -2.76578,4.48645 -5.40436,9.14654 -9,13 -1.45612,1.56053 -2.91532,4.45787 -5,4 -2.18401,-0.47969 -2.54684,-3.81033 -3,-6 -1.21784,-5.88455 -0.41009,-12.15853 1,-18 0.77035,-3.19129 3.16919,-5.82391 4,-9 1.35562,-5.18235 0.29901,-10.77965 1.5,-16 0.31926,-1.38775 0.72907,-2.80274 1.5,-4 1.53127,-2.37807 4.70576,-3.48505 6,-6 0.92779,-1.80287 1,-3.97241 1,-6 0,-2.02759 -0.233,-4.12308 -1,-6 -1.53916,-3.7665 -5.02146,-6.44459 -7,-10 -1.23442,-2.21825 -3,-4.46141 -3,-7 v -14 c 0,-3.47733 1.52144,-6.844 3,-9.99133 0.51205,-1.08997 1.52808,-1.90073 2,-3.00867 1.20431,-2.82738 0.79381,-6.17342 2,-9 0.47171,-1.10541 0.98323,-2.35921 2,-3 z"
       id="path921"
       sodipodi:nodetypes="aaaaaaaaaaaaaaaaaaaaaaaaaaassaaaa" /><path
       style="display:inline;fill:#980000;stroke-width:8.5;stroke-linecap:round;stroke-linejoin:round"
       d="m 408,218 c 1.66667,0 2.83019,1.81286 4,3 3.18224,3.22938 5.92541,6.96867 8,11 0.96467,1.87453 1.55906,3.93844 2,6 0.70066,3.27587 1.01841,6.65009 1,10 -0.0166,3.01842 0.30756,6.27945 -1,9 -0.81683,1.69951 -2.92149,2.45327 -4,4 -2.72978,3.91485 -4.3395,8.52557 -6,13 -0.8443,2.27509 -0.76935,4.9085 -2,7 -0.47812,0.81258 -1.06178,1.9071 -2,2 -1.196,0.11843 -2.24274,-1.06672 -3,-2 -1.13102,-1.39392 -1.57856,-3.25512 -2,-5 -2.51529,-10.41398 -3.09203,-21.28696 -3,-32 0.0259,-3.01835 -0.11142,-6.1936 1,-9 0.61368,-1.54957 3,-2.33333 3,-4 v -10 c 0,-1.66667 2.33333,-3 4,-3 z"
       id="path923"
       sodipodi:nodetypes="aaaaaaaaaaaaaassa" /><path
       style="display:inline;fill:#980000;stroke-width:8.5;stroke-linecap:round;stroke-linejoin:round"
       d="m 404,284 c 0.95517,1.1445 2,2.50929 2,4 v 28 c 0,1.37437 -0.52317,2.711 -1,4 -0.5172,1.39812 -1.14678,2.77761 -2,4 -4.45393,6.38107 -11.15818,10.90801 -16,17 -1.49559,1.88175 -2.47608,4.14112 -4,6 -0.8966,1.09367 -2.30322,1.76935 -3,3 -0.67715,1.19598 -0.47405,2.73025 -1,4 -0.7438,1.7957 -1.5739,3.67939 -3,5 -0.54688,0.50643 -1.25464,1 -2,1 -1.49071,0 -4,-0.50929 -4,-2 v -12 c 0,-2.53859 1.89713,-4.71349 3,-7 2.13814,-4.4329 5.04793,-8.48208 7,-13 2.09044,-4.83817 3.52644,-9.93972 5,-15 2.30554,-7.91735 2.45601,-16.55419 6,-24 0.71629,-1.5049 1.64793,-3.02548 3,-4 1.71025,-1.23268 3.91904,-2.33769 6,-2 1.64515,0.26697 2.93209,1.72041 4,3 z"
       id="path925"
       sodipodi:nodetypes="assaaaaaaaassaaaaaaa" /></g></svg>
