<?xml version="1.0" encoding="UTF-8" standalone="no"?>
<!-- Created with Inkscape (http://www.inkscape.org/) -->

<svg
   width="512px"
   height="384px"
   viewBox="0 0 512 384"
   version="1.1"
   id="SVGRoot"
   sodipodi:docname="Legs Front Luke Skywalker (Bespin).svg"
   xml:space="preserve"
   inkscape:version="1.1.2 (0a00cf5339, 2022-02-04)"
   xmlns:inkscape="http://www.inkscape.org/namespaces/inkscape"
   xmlns:sodipodi="http://sodipodi.sourceforge.net/DTD/sodipodi-0.dtd"
   xmlns="http://www.w3.org/2000/svg"
   xmlns:svg="http://www.w3.org/2000/svg"><sodipodi:namedview
     id="namedview5052"
     pagecolor="#ffffff"
     bordercolor="#000000"
     borderopacity="0.25"
     inkscape:showpageshadow="2"
     inkscape:pageopacity="0.0"
     inkscape:pagecheckerboard="0"
     inkscape:deskcolor="#d1d1d1"
     inkscape:document-units="px"
     showgrid="false"
     inkscape:zoom="1.3349609"
     inkscape:cx="239.7074"
     inkscape:cy="138.95538"
     inkscape:window-width="1920"
     inkscape:window-height="980"
     inkscape:window-x="1920"
     inkscape:window-y="0"
     inkscape:window-maximized="1"
     inkscape:current-layer="layer1"
     inkscape:pageshadow="2" /><defs
     id="defs5047" /><g
     inkscape:label="Layer 1"
     inkscape:groupmode="layer"
     id="layer1"><rect
       style="display:inline;fill:#d6ba84;stroke-width:42.3146;stroke-linecap:round;stroke-linejoin:round"
       id="rect5118"
       width="512"
       height="384"
       x="0"
       y="0" /><path
       style="fill:none;stroke:#5f5f63;stroke-width:16;stroke-linecap:round;stroke-linejoin:round;stroke-dasharray:none;stroke-opacity:1"
       d="m 42,94 c 0,0 53.011149,10.87354 78,10 24.98885,-0.87354 70,-14 70,-14"
       id="path30171"
       sodipodi:nodetypes="czc" /><path
       style="fill:none;stroke:#212221;stroke-width:5;stroke-linecap:round;stroke-linejoin:round;stroke-dasharray:none"
       d="m 36,68 v 100 c 0,0 96.03457,3.93953 144,2 6.69121,-0.27057 20,-1.9 20,-1.9 V 68"
       id="path20097"
       sodipodi:nodetypes="ccacc" /><path
       style="fill:#d6ba84;stroke:#212221;stroke-width:5;stroke-linecap:round;stroke-linejoin:round;stroke-dasharray:none"
       d="m 30,56 h 10 c 0,0 53.331257,-1.018517 80,-1 24.00231,0.01667 72,1 72,1 h 10 l -4,34 c 0,0 -51.92319,6 -78,6 -26.07681,0 -78,-6 -78,-6 z"
       id="path21946"
       sodipodi:nodetypes="ccacccacc" /><path
       style="fill:none;stroke:#5f5f63;stroke-width:16;stroke-linecap:round;stroke-linejoin:round;stroke-dasharray:none;stroke-opacity:1"
       d="m 318,94 c 0,0 51.8032,10.91577 78,10 23.7809,-0.83131 70,-14 70,-14"
       id="path36547"
       sodipodi:nodetypes="cac" /><path
       style="fill:none;stroke:#212221;stroke-width:5;stroke-linecap:round;stroke-linejoin:round;stroke-dasharray:none"
       d="m 476,68 v 100 c 0,0 -96.03457,3.93953 -144,2 -6.69121,-0.27057 -20,-1.9 -20,-1.9 V 68"
       id="path36383"
       sodipodi:nodetypes="ccacc" /><path
       style="fill:#d6ba84;stroke:#212221;stroke-width:5;stroke-linecap:round;stroke-linejoin:round;stroke-dasharray:none"
       d="m 482,56 h -10 c 0,0 -53.33126,-1.018517 -80,-1 -24.00231,0.01667 -72,1 -72,1 h -10 l 4,34 c 0,0 51.92319,6 78,6 26.07681,0 78,-6 78,-6 z"
       id="path36385"
       sodipodi:nodetypes="ccacccacc" /></g></svg>
