<?xml version="1.0" encoding="UTF-8" standalone="no"?>
<!-- Created with Inkscape (http://www.inkscape.org/) -->

<svg
   width="512px"
   height="512px"
   viewBox="0 0 512 512"
   version="1.1"
   id="SVGRoot"
   sodipodi:docname="Torso Front Luke Skywalker (Dagobah).svg"
   inkscape:version="1.4 (e7c3feb100, 2024-10-09)"
   xmlns:inkscape="http://www.inkscape.org/namespaces/inkscape"
   xmlns:sodipodi="http://sodipodi.sourceforge.net/DTD/sodipodi-0.dtd"
   xmlns="http://www.w3.org/2000/svg"
   xmlns:svg="http://www.w3.org/2000/svg">
  <sodipodi:namedview
     id="namedview15699"
     pagecolor="#505050"
     bordercolor="#ffffff"
     borderopacity="1"
     inkscape:showpageshadow="0"
     inkscape:pageopacity="0"
     inkscape:pagecheckerboard="1"
     inkscape:deskcolor="#505050"
     inkscape:document-units="px"
     showgrid="false"
     inkscape:zoom="2.1240824"
     inkscape:cx="326.72931"
     inkscape:cy="232.33561"
     inkscape:window-width="1920"
     inkscape:window-height="996"
     inkscape:window-x="1920"
     inkscape:window-y="0"
     inkscape:window-maximized="1"
     inkscape:current-layer="layer1"
     inkscape:pageshadow="2" />
  <defs
     id="defs15694" />
  <g
     inkscape:label="Layer 1"
     inkscape:groupmode="layer"
     id="layer1">
    <rect
       style="display:inline;fill:#84ac88;fill-opacity:1;stroke:none;stroke-width:16.9257;stroke-linecap:round;stroke-dasharray:none;stroke-opacity:1"
       id="rect6795"
       width="512"
       height="512"
       x="0"
       y="0"
       inkscape:label="Background" />
    <path
       style="fill:#ffc99c;fill-opacity:1;stroke:none;stroke-width:10;stroke-linecap:round;stroke-linejoin:round;stroke-opacity:1"
       d="m 112,50 v -4 c 0,0 -4.15224,-0.765367 -6,0 -5.22625,2.164784 -9.003563,7.201942 -12,12 -5.974639,9.566918 -8.386099,21.027774 -11,32 -6.237972,26.18479 -6.391124,53.47994 -11,80 -2.216351,12.75317 -8,38 -8,38 -0.307102,1.45874 2.517584,2.15705 4,2 4.244994,-0.44972 7.115244,-4.85351 10,-8 4.873154,-5.3153 9.012744,-11.43675 12,-18 6.297689,-13.83655 8.83909,-29.1299 12,-44 5.46959,-25.73098 12.1644,-51.694621 12,-78 -0.0253,-4.055096 -2,-7.944825 -2,-12 z"
       id="path16773"
       sodipodi:nodetypes="scaaaasaaaaas"
       inkscape:label="SkinArmR" />
    <path
       style="fill:none;fill-opacity:1;stroke:#212221;stroke-width:10;stroke-linecap:round;stroke-linejoin:round;stroke-opacity:1"
       d="m 112,50 c 0,0 1.97466,7.944904 2,12 0.1644,26.305379 -6.53041,52.26902 -12,78 -3.16091,14.8701 -5.702311,30.16345 -12,44 -2.987256,6.56325 -7.126846,12.6847 -12,18 -2.884756,3.14649 -10,8 -10,8"
       id="path16312"
       sodipodi:nodetypes="caaaac"
       inkscape:label="SleeveR" />
    <path
       style="fill:#ffc99c;fill-opacity:1;stroke:none;stroke-width:10;stroke-linecap:round;stroke-linejoin:round;stroke-opacity:1"
       d="m 398,46 v -4 c 0,0 8.25559,-1.406907 12,0 6.63394,2.492604 15.35839,6.94234 16,14 0,0 3.0997,44.1005 6,66 3.82048,28.84756 15,86 15,86 0,0 -20.41342,-16.83183 -27,-28 -9.21269,-15.62099 -12.25848,-34.25486 -16,-52 -4.70865,-22.33198 -8.28286,-45.178763 -8,-68 0.0584,-4.713683 2,-9.285955 2,-14 z"
       id="path17772"
       sodipodi:nodetypes="scasacaaas"
       inkscape:label="SkinArmL" />
    <path
       style="fill:none;fill-opacity:1;stroke:#212221;stroke-width:10;stroke-linecap:round;stroke-linejoin:round;stroke-opacity:1"
       d="m 398,46 c 0,0 -1.94157,9.286317 -2,14 -0.28286,22.821237 3.29135,45.66802 8,68 3.74152,17.74514 7.58958,35.93284 16,52 5.50467,10.51606 22,28 22,28"
       id="path16771"
       sodipodi:nodetypes="caaac"
       inkscape:label="SleeveL" />
    <path
       style="display:inline;fill:#ffc99c;fill-opacity:1"
       d="m 156,48 h 196 v 2 c 0,0 -7.48948,16.240774 -14,22 -11.61421,10.273971 -27.05421,15.868691 -42,20 -13.55503,3.746874 -27.93665,4 -42,4 -14.06335,0 -28.44497,-0.253126 -42,-4 -14.94579,-4.131309 -30.38579,-9.726029 -42,-20 -6.51052,-5.759226 -14,-22 -14,-22 z"
       id="path370"
       sodipodi:nodetypes="cccaaaaacc"
       inkscape:label="SkinChest" />
    <path
       style="display:inline;fill:none;fill-opacity:1;stroke:#5f5f63;stroke-width:16;stroke-linecap:round;stroke-miterlimit:4;stroke-dasharray:none;stroke-opacity:1"
       d="m 150,54 c 0,0 6.16895,16.018639 12,22 10.21692,10.4803 24.18181,17.175075 38,22 17.17931,5.99854 35.80354,8 54,8 18.19646,0 36.82069,-2.00146 54,-8 13.81819,-4.824925 27.78308,-11.5197 38,-22 5.83105,-5.981361 12,-22 12,-22"
       id="path5585-3"
       sodipodi:nodetypes="caaaaac"
       inkscape:label="CollarShadow" />
    <path
       style="fill:none;fill-opacity:1;stroke:#212221;stroke-width:8;stroke-linecap:round;stroke-miterlimit:4;stroke-dasharray:none;stroke-opacity:1"
       d="m 156,50 c 0,0 7.48948,16.240774 14,22 11.61421,10.273971 27.05421,15.868691 42,20 13.55503,3.746874 27.93665,4 42,4 14.06335,0 28.44497,-0.253126 42,-4 14.94579,-4.131309 30.38579,-9.726029 42,-20 6.51052,-5.759226 14,-22 14,-22"
       id="path5585"
       sodipodi:nodetypes="caaaaac"
       inkscape:label="Collar" />
    <path
       id="path3399"
       style="display:inline;fill:#5f5f63;fill-opacity:1"
       d="M 434 218 C 434 218 423.6897 227.77513 418 232 C 412.95054 235.74947 406.40661 237.51254 402 242 C 399.27636 244.77361 396 252 396 252 C 396 252 408.36174 252.15743 414 250 C 419.35616 247.95051 428 240 428 240 C 428 240 429.27561 246.9204 428 250 C 424.03123 259.58146 409.96877 262.41854 406 272 C 403.19365 278.77512 406 294 406 294 C 406 295.33333 408.81166 294.60467 410 294 C 414.16538 291.88051 416.37326 286.94455 418.25391 282.66602 C 419.43966 279.9684 418.60767 276.59703 420 274 C 421.78191 270.6763 425.71088 268.99703 428 266 C 431.26249 261.72858 433.71571 256.86528 436 252 C 438.42078 246.84401 442.1693 241.69349 442 236 C 441.80485 229.437 434 218 434 218 z M 60.800781 221.77148 C 60.532237 221.7854 60.26491 221.85822 60 222 C 55.885519 224.202 59.429811 231.3683 60 236 C 60.33585 238.72814 61.66415 241.27186 62 244 C 63.221833 253.92508 59.924085 264.21784 62 274 C 63.363026 280.42287 70 292 70 292 L 76 275 L 93 293 C 93 293 94 288.35702 94 286 C 94 281.28595 92 272 92 272 C 92 272 97.447755 271.22724 100 272 C 102.30056 272.69655 103.80178 275.02757 106 276 C 108.51376 277.11201 114 278 114 278 C 114 278 113.10834 273.79333 112 272 C 111.00867 270.396 109.55434 269.06752 108 268 C 102.58765 264.2828 95.220465 263.98219 90 260 C 82.466462 254.25339 77.15042 245.95305 72 238 C 69.569066 234.24626 68.959671 229.35266 66 226 C 64.608072 224.42325 62.680593 221.67409 60.800781 221.77148 z M 252.97461 245.99023 C 242.44571 246.23554 234.21016 256.83169 224 260 C 220.12701 261.20183 215.9559 261.10822 212 262 C 207.26541 263.06732 198 266 198 266 C 198 266 219.33685 268.72073 230 268 C 236.78322 267.54152 244.59703 268.12676 250 264 C 251.18468 263.09515 250.6282 260.58344 252 260 C 262.2839 255.62617 273.24131 266.97685 284 270 C 286.64625 270.74358 292 272 292 272 C 294.33193 272.58298 300.25066 268.844 298 268 C 298 268 287.15599 264.42078 282 262 C 272.26945 257.43142 264.74053 246.4434 254 246 C 253.65544 245.98578 253.31425 245.98232 252.97461 245.99023 z M 241.21094 441.2793 C 239.45638 441.27638 237.71645 441.49311 236 442 C 230.28727 443.68705 224.07655 449.27997 218.78711 455.18359 C 217.31744 454.07404 215.14179 453.31493 214 454 C 214 454 201.2958 463.31378 194 466 C 190.19457 467.40111 186.05433 467.9173 182 468 C 176.62628 468.10962 170.8283 468.36144 166 466 C 161.7653 463.92888 160.35521 457.80399 156 456 C 149.22488 453.19365 141.06724 454.04249 134 456 C 126.5075 458.0753 121.63814 466.54975 114 468 C 110.016 468.75644 105.71406 467.62794 102 466 C 95.038223 462.94854 91.189743 454.46686 84 452 C 75.17185 448.97099 65.083657 449.85564 56 452 C 51.647498 453.02749 44 458 44 458 C 44 458 50.665279 460.65969 54 460 C 56.358004 459.53353 57.699437 456.69655 60 456 C 64.466429 454.64767 69.502664 454.75431 74 456 C 77.74625 457.03765 81.113304 459.39652 84 462 C 88.950643 466.46493 96 478 96 478 L 128 478 C 128 478 128.28975 473.23268 130 472 C 131.62248 470.83058 134.15224 471.23463 136 472 C 138.61313 473.08239 142 478 142 478 L 198 478 C 200.98142 478 203.6407 475.82279 206 474 C 206.04264 473.96706 206.09181 473.9166 206.13477 473.88281 C 207.63735 475.66161 212.22244 477.26969 214 476 C 214 476 231.07739 459.50031 242 456 C 242.63486 455.79655 243.36194 455.80681 244 456 C 246.30056 456.69655 247.80178 459.02757 250 460 C 252.51376 461.11201 255.60805 460.6457 258 462 C 259.64086 462.92904 260.45327 464.92149 262 466 C 269.82971 471.45956 278.45479 478 288 478 L 320 478 L 302 442 C 302 442 299.08373 453.21095 296 458 C 294.97915 459.58538 293.86127 461.69796 292 462 C 281.69976 463.6715 273.84675 451.45405 264 448 C 256.68171 445.43288 248.81402 441.29193 241.21094 441.2793 z M 398.05859 446.48242 C 394.64525 446.54366 391.21239 447.11022 388 448 C 384.25375 449.03765 381.62577 452.59825 378 454 C 371.65871 456.45159 363.64895 454.21694 358 458 C 356.00279 459.33751 356.35702 463.5286 354 464 C 351.64298 464.4714 350.33556 460.56827 348 460 C 342.13421 458.57279 335.86579 463.42721 330 462 C 327.66444 461.43173 326.19822 458.97243 324 458 C 321.48624 456.88799 316 456 316 456 C 316 456 317.88989 463.09546 320 466 C 323.06035 470.21253 327.10416 474.22746 332 476 C 336.38793 477.58865 341.41754 476.8825 346 476 C 353.05066 474.64217 359.35255 470.71421 366 468 C 374.0236 464.72389 382.79897 462.82248 390 458 C 392.35011 456.42615 396 452 396 452 L 424 478 L 456 478 C 456 478 461.66282 475.85108 464 474 C 468.0817 470.76723 472.22746 466.89584 474 462 C 474.9078 459.49261 474 454 474 454 C 474 454 468.56057 455.00047 466 456 C 458.21853 459.03752 452.0943 465.936 444 468 C 440.12403 468.98835 435.76109 469.3617 432 468 C 422.20833 464.45492 417.79167 451.54508 408 448 C 404.86576 446.86525 401.47194 446.42118 398.05859 446.48242 z M 332 448 C 328.66667 448 326 456 326 456 L 360 456 C 360 456 360.74874 448 358 448 L 332 448 z M 68 460.85156 C 65.923879 460.85156 63.847759 461.23464 62 462 C 61.128958 462.3608 60.94281 464 60 464 L 40 464 C 35.300525 464 37.5 477.875 37.5 477.875 L 82 478 C 82 478 83.020489 472.46368 82 470 C 80.55681 466.51583 77.484168 463.44319 74 462 C 72.152241 461.23464 70.076121 460.85156 68 460.85156 z M 386.98047 465.05664 C 383.94687 465.02616 380.91974 465.31074 378 466 C 373.6475 467.02749 368.35114 468.19577 366 472 C 364.94854 473.7013 366 478 366 478 L 412 478 C 412 478 408.64572 472.02762 406 470 C 403.15047 467.81618 399.52533 466.67892 396 466 C 393.05413 465.43268 390.01407 465.08712 386.98047 465.05664 z "
       inkscape:label="Wrinkles" />
  </g>
</svg>
