<?xml version="1.0" encoding="UTF-8" standalone="no"?>
<!-- Created with Inkscape (http://www.inkscape.org/) -->

<svg
   width="512px"
   height="512px"
   viewBox="0 0 512 512"
   version="1.1"
   id="SVGRoot"
   sodipodi:docname="Torso Front Luke Skywalker (Bespin).svg"
   inkscape:version="1.1.2 (0a00cf5339, 2022-02-04)"
   xmlns:inkscape="http://www.inkscape.org/namespaces/inkscape"
   xmlns:sodipodi="http://sodipodi.sourceforge.net/DTD/sodipodi-0.dtd"
   xmlns="http://www.w3.org/2000/svg"
   xmlns:svg="http://www.w3.org/2000/svg">
  <sodipodi:namedview
     id="namedview3331"
     pagecolor="#ffffff"
     bordercolor="#666666"
     borderopacity="1.0"
     inkscape:pageshadow="2"
     inkscape:pageopacity="0.0"
     inkscape:pagecheckerboard="0"
     inkscape:document-units="px"
     showgrid="false"
     inkscape:zoom="1.4142136"
     inkscape:cx="207.88939"
     inkscape:cy="243.59829"
     inkscape:window-width="1920"
     inkscape:window-height="980"
     inkscape:window-x="1920"
     inkscape:window-y="0"
     inkscape:window-maximized="1"
     inkscape:current-layer="layer1"
     showguides="false" />
  <defs
     id="defs3326" />
  <g
     inkscape:label="Layer 1"
     inkscape:groupmode="layer"
     id="layer1">
    <rect
       style="display:inline;fill:#d6ba84;fill-opacity:1;stroke:none;stroke-width:23.3817;stroke-linecap:round;stroke-linejoin:round"
       id="rect3450"
       width="512"
       height="512"
       x="0"
       y="0" />
    <path
       style="fill:none;stroke:#212221;stroke-width:8;stroke-linecap:butt;stroke-linejoin:round;stroke-miterlimit:4;stroke-dasharray:none;stroke-opacity:1"
       d="m 92,188 v -34 c 0,-2.82843 3.173143,-5.90577 6,-6 0,0 39.99131,-2.31122 60,-2 20.70713,0.32208 62,4 62,4 2.39871,0.15476 4,3.5963 4,6 v 34 c 0,1.88562 -2.11829,4.1214 -4,4 0,0 -41.29037,-4 -62,-4 -20.70963,0 -62,4 -62,4 -2.398714,0.15476 -4,-3.5963 -4,-6 z"
       id="path15567"
       sodipodi:nodetypes="sssassssass" />
    <path
       style="fill:#ffc99c;fill-opacity:1;stroke:none;stroke-width:1px;stroke-linecap:butt;stroke-linejoin:miter;stroke-opacity:1"
       d="m 158,34 h 194 c 0,0 -6.27215,5.920258 -10,8 -8.65492,4.828515 -18.41946,7.463183 -28,10 -11.12505,2.945786 -34,6 -34,6 0,0 -3.55218,8.257249 -6,12 -2.84995,4.357623 -5.28475,9.791494 -10,12 -4.82981,2.262162 -11.07264,2.040978 -16,0 -5.22625,-2.164784 -8.41362,-7.625316 -12,-12 -3.04784,-3.717766 -8,-12 -8,-12 0,0 -25.78815,-2.08653 -38,-6 -7.09799,-2.274658 -13.55334,-6.258858 -20,-10 -4.15797,-2.412964 -12,-8 -12,-8 z"
       id="path7687"
       sodipodi:nodetypes="ccaacaaaacaac" />
    <path
       style="fill:none;stroke:#212221;stroke-width:8;stroke-linecap:round;stroke-linejoin:round;stroke-miterlimit:4;stroke-dasharray:none;stroke-opacity:1"
       d="m 170,42 c 0,0 12.90201,7.725342 20,10 12.21185,3.91347 38,6 38,6 0,0 4.95216,8.282234 8,12 3.58638,4.374684 6.77375,9.835216 12,12 4.92736,2.040978 11.17019,2.262162 16,0 4.71525,-2.208506 7.15005,-7.642377 10,-12 2.44782,-3.742751 6,-12 6,-12 0,0 22.87495,-3.054214 34,-6 9.58054,-2.536817 28,-10 28,-10"
       id="path1017"
       sodipodi:nodetypes="cacaaaacac" />
    <path
       style="fill:none;stroke:#212221;stroke-width:6;stroke-linecap:round;stroke-linejoin:miter;stroke-miterlimit:4;stroke-dasharray:none;stroke-opacity:1"
       d="M 256,84 V 472"
       id="path2921"
       sodipodi:nodetypes="cc" />
    <path
       style="fill:none;stroke:#212221;stroke-width:8;stroke-linecap:round;stroke-linejoin:round;stroke-miterlimit:4;stroke-dasharray:none;stroke-opacity:1"
       d="m 100,196 c 0,0 -4,7.78363 -4,12 v 78 c 0,2.68237 2.680082,6 5.36245,6 H 210 c 3.33333,0 6,-4.66667 6,-8 v -90"
       id="path18289"
       sodipodi:nodetypes="csssssc" />
    <path
       style="fill:none;stroke:#212221;stroke-width:8;stroke-linecap:round;stroke-linejoin:miter;stroke-miterlimit:4;stroke-dasharray:none;stroke-opacity:1"
       d="m 132,194 v 98"
       id="path20052"
       sodipodi:nodetypes="cc" />
    <path
       style="fill:none;stroke:#212221;stroke-width:8;stroke-linecap:round;stroke-linejoin:miter;stroke-miterlimit:4;stroke-dasharray:none;stroke-opacity:1"
       d="m 180,194 v 98"
       id="path20514"
       sodipodi:nodetypes="cc" />
    <path
       style="fill:#212221;fill-opacity:1;stroke:#212221;stroke-width:2;stroke-linecap:butt;stroke-linejoin:round;stroke-miterlimit:4;stroke-dasharray:none;stroke-opacity:1"
       d="m 132,194 v 24 h 18 v 12 h 12 v -12 h 18 v -24 l -24,-4 z"
       id="path20744"
       sodipodi:nodetypes="cccccccccc" />
    <path
       style="fill:#fbd608;fill-opacity:1;stroke:#fbd608;stroke-width:2;stroke-linecap:butt;stroke-linejoin:round;stroke-miterlimit:4;stroke-dasharray:none;stroke-opacity:1"
       d="m 148,202 v 6 h 16 v -6 z"
       id="path22166"
       sodipodi:nodetypes="ccccc" />
    <path
       style="fill:none;stroke:#212221;stroke-width:8;stroke-linecap:butt;stroke-linejoin:round;stroke-miterlimit:4;stroke-dasharray:none;stroke-opacity:1"
       d="m 422,188 v -34 c 0,-2.82843 -3.17314,-5.90577 -6,-6 0,0 -39.99131,-2.31122 -60,-2 -20.70713,0.32208 -62,4 -62,4 -2.39871,0.15476 -4,3.5963 -4,6 v 34 c 0,1.88562 2.11829,4.1214 4,4 0,0 41.29037,-4 62,-4 20.70963,0 62,4 62,4 2.39871,0.15476 4,-3.5963 4,-6 z"
       id="path27230"
       sodipodi:nodetypes="sssassssass" />
    <path
       style="fill:none;stroke:#212221;stroke-width:8;stroke-linecap:round;stroke-linejoin:round;stroke-miterlimit:4;stroke-dasharray:none;stroke-opacity:1"
       d="m 414,196 c 0,0 4,7.78363 4,12 v 78 c 0,2.68237 -2.68008,6 -5.36245,6 H 304 c -3.33333,0 -6,-4.66667 -6,-8 v -90"
       id="path27232"
       sodipodi:nodetypes="csssssc" />
    <path
       style="fill:none;stroke:#212221;stroke-width:8;stroke-linecap:round;stroke-linejoin:miter;stroke-miterlimit:4;stroke-dasharray:none;stroke-opacity:1"
       d="m 382,194 v 98"
       id="path27234"
       sodipodi:nodetypes="cc" />
    <path
       style="fill:none;stroke:#212221;stroke-width:8;stroke-linecap:round;stroke-linejoin:miter;stroke-miterlimit:4;stroke-dasharray:none;stroke-opacity:1"
       d="m 334,194 v 98"
       id="path27236"
       sodipodi:nodetypes="cc" />
    <path
       style="fill:#212221;fill-opacity:1;stroke:#212221;stroke-width:2;stroke-linecap:butt;stroke-linejoin:round;stroke-miterlimit:4;stroke-dasharray:none;stroke-opacity:1"
       d="m 382,194 v 24 h -18 v 12 h -12 v -12 h -18 v -24 l 24,-4 z"
       id="path27238"
       sodipodi:nodetypes="cccccccccc" />
    <path
       style="fill:#fbd608;fill-opacity:1;stroke:#fbd608;stroke-width:2;stroke-linecap:butt;stroke-linejoin:round;stroke-miterlimit:4;stroke-dasharray:none;stroke-opacity:1"
       d="m 366,202 v 6 h -16 v -6 z"
       id="path27240"
       sodipodi:nodetypes="ccccc" />
    <path
       style="fill:#5f5f63;fill-opacity:1;stroke:none;stroke-width:1px;stroke-linecap:butt;stroke-linejoin:miter;stroke-opacity:1"
       d="m 40,374 c -2.421225,-1.11749 -1.15517,5.59652 0,8 1.849174,3.84744 6.219768,6.01706 10,8 12.327353,6.46639 26.296926,9.54979 40,12 10.52062,1.88117 32,2 32,2 2.97562,0.18598 -1.03337,-7.70334 -4,-8 0,0 -13.39932,-0.85115 -20,-2 -10.832102,-1.88533 -21.629678,-4.34688 -32,-8 -9.002947,-3.17144 -26,-12 -26,-12 z"
       id="path27509"
       sodipodi:nodetypes="saaassaas" />
    <path
       style="fill:#5f5f63;fill-opacity:1;stroke:none;stroke-width:1px;stroke-linecap:butt;stroke-linejoin:miter;stroke-opacity:1"
       d="m 126,436 c 3.3731,0.42164 5.34451,-9.39191 2,-10 0,0 -14.76518,-2.20753 -22,-4 -12.893412,-3.19443 -25.217424,-8.3875 -38,-12 -2.645134,-0.74755 -8,-2 -8,-2 -1.940285,-0.48507 -0.866377,4.19739 0,6 1.849174,3.84744 6.219768,6.01706 10,8 12.327353,6.46639 26.379363,9.12667 40,12 5.25909,1.10943 16,2 16,2 z"
       id="path28688"
       sodipodi:nodetypes="ssaasaaas" />
    <path
       style="fill:#5f5f63;fill-opacity:1;stroke:none;stroke-width:1px;stroke-linecap:butt;stroke-linejoin:miter;stroke-opacity:1"
       d="m 392,406 c -5.03264,0.67102 1.09739,15.31993 6,14 0,0 34.93315,-8.43719 52,-14 8.82846,-2.87757 26,-10 26,-10 2.48892,-0.95728 2.46154,-9.02564 0,-8 0,0 -15.63286,7.74123 -24,10 -19.47967,5.25866 -60,8 -60,8 z"
       id="path30213"
       sodipodi:nodetypes="ssassas" />
    <path
       style="fill:#5f5f63;fill-opacity:1;stroke:none;stroke-width:1px;stroke-linecap:butt;stroke-linejoin:miter;stroke-opacity:1"
       d="m 478,412 c 0,0 -5.3907,1.13564 -8,2 -8.22702,2.7253 -24,10 -24,10 -2.46154,1.02564 -1.88562,6.11438 0,8 0.4714,0.4714 1.35117,0.15317 2,0 10.15584,-2.39747 21.16298,-6.11685 28,-14 1.38129,-1.59264 2,-6 2,-6 z"
       id="path31373"
       sodipodi:nodetypes="casaaac" />
  </g>
</svg>
