<?xml version="1.0" encoding="UTF-8" standalone="no"?>
<!-- Created with Inkscape (http://www.inkscape.org/) -->

<svg
   version="1.1"
   id="svg3457"
   width="512"
   height="512"
   viewBox="0 0 512 512"
   sodipodi:docname="Face Anakin Skywalker (Boy).svg"
   xml:space="preserve"
   inkscape:version="1.4 (e7c3feb100, 2024-10-09)"
   xmlns:inkscape="http://www.inkscape.org/namespaces/inkscape"
   xmlns:sodipodi="http://sodipodi.sourceforge.net/DTD/sodipodi-0.dtd"
   xmlns:xlink="http://www.w3.org/1999/xlink"
   xmlns="http://www.w3.org/2000/svg"
   xmlns:svg="http://www.w3.org/2000/svg"><defs
     id="defs3461"><linearGradient
       inkscape:collect="always"
       id="linearGradient4563"><stop
         style="stop-color:#212221;stop-opacity:1;"
         offset="0"
         id="stop4559" /><stop
         style="stop-color:#212221;stop-opacity:0;"
         offset="1"
         id="stop4561" /></linearGradient><linearGradient
       inkscape:collect="always"
       xlink:href="#linearGradient4563"
       id="linearGradient4565"
       x1="307.20004"
       y1="180.45972"
       x2="307.31732"
       y2="153.02477"
       gradientUnits="userSpaceOnUse"
       gradientTransform="matrix(1.007874,0,0,1.024,-2.519685,-5.12)" /><clipPath
       clipPathUnits="userSpaceOnUse"
       id="clipPath19508"><g
         inkscape:label="Clip"
         id="use19510"
         style="fill:none;fill-opacity:1;fill-rule:nonzero;stroke:#000000;stroke-opacity:1"><path
           id="path23702"
           style="fill:none;fill-opacity:1;fill-rule:nonzero;stroke:#000000;stroke-opacity:1"
           d="m 364.49755,441.60547 c 6.56925,0.0355 11.9845,-6.70773 18.55356,-6.64621 6.72165,0.063 12.19401,7.19673 18.91299,6.9971 3.5849,-0.10651 6.76052,-4.25684 7.43233,-7.77984 1.41306,-7.41012 5.16868,-19.33292 -1.6446,-22.5711 -7.07323,-3.36172 -15.28336,-5.1787 -23.49332,-5.31446 -8.20996,-0.13576 -16.41975,1.4097 -23.49227,4.77289 -7.17564,3.41222 -2.81491,15.87791 -1.85135,23.7649 0.35492,2.9051 2.65601,6.76089 5.58266,6.77672 z M 278.32893,319.15642 c -2.2098,-0.19295 -5.4791,1.53078 -5.49814,3.74891 l -0.42404,49.41198 c 1.64446,26.00116 8.90298,50.84748 20.36776,70.55482 3.81114,12.27935 20.07817,27.32862 33.27997,27.37629 l 117.68418,0.42487 c 11.27395,0.0407 19.20257,-10.06433 26.60889,-18.56433 10.82544,-12.42403 13.75705,-30.10819 18.0925,-46.00632 3.32297,-12.18537 5.98425,-24.79009 5.95341,-37.4204 l -0.10979,-44.97096 c -0.006,-2.48515 -3.79961,-4.21115 -6.27755,-4.02197 -2.90678,0.22193 -6.65872,2.86761 -6.56236,5.78126 l 0.88366,26.71825 c 0.48221,14.58003 -4.05889,28.95891 -7.7487,43.07255 -0.91322,3.4931 -1.81381,7.06656 -3.545,10.23495 -3.40584,6.2333 -7.71204,12.20958 -13.17775,16.74607 -6.14666,5.10167 -13.61838,13.48816 -21.24003,11.09673 -9.91688,-3.11161 -9.13025,-18.70022 -14.43387,-27.6388 -4.35789,-7.61763 -10.70466,-15.78392 -18.50278,-18.43627 -13.06316,-4.18718 -28.02376,-3.41344 -41.14947,0.57333 -8.64523,2.89144 -13.13803,10.43955 -17.06648,17.40227 -4.99239,8.80057 -3.78026,23.73129 -13.24321,27.31271 -6.81257,2.57833 -14.03538,-4.48609 -20.16378,-8.4233 -5.02526,-3.22849 -9.38792,-7.53165 -13.15504,-12.16687 -4.9555,-5.73652 -6.88338,-11.94882 -8.20054,-18.68122 -2.03713,-10.24138 -4.71712,-20.46381 -5.1738,-30.89584 l -1.65593,-37.82635 c -0.11283,-2.57738 -2.97204,-5.17795 -5.54211,-5.40236 z" /></g></clipPath></defs><sodipodi:namedview
     id="namedview3459"
     pagecolor="#ffffff"
     bordercolor="#000000"
     borderopacity="0.25"
     inkscape:showpageshadow="2"
     inkscape:pageopacity="0.0"
     inkscape:pagecheckerboard="0"
     inkscape:deskcolor="#d1d1d1"
     showgrid="false"
     inkscape:zoom="1.866066"
     inkscape:cx="285.62763"
     inkscape:cy="268.21131"
     inkscape:window-width="1920"
     inkscape:window-height="1044"
     inkscape:window-x="0"
     inkscape:window-y="0"
     inkscape:window-maximized="1"
     inkscape:current-layer="g3463"
     showguides="true" /><g
     inkscape:groupmode="layer"
     inkscape:label="Image"
     id="g3463"><path
       style="fill:#918a6f;fill-opacity:1;stroke-width:0.029123"
       d=""
       id="path4216" /><circle
       style="fill:#212221;fill-opacity:1;stroke-width:1.00805"
       id="path4547"
       cy="384"
       cx="130"
       r="80" /><rect
       style="fill:url(#linearGradient4565);fill-opacity:1;stroke-width:1.1371"
       id="rect4549"
       width="128"
       height="128"
       x="256"
       y="128" /><path
       style="fill:#b56a3d;stroke-width:13.8564;stroke-linecap:round"
       d="M 52,90 C 50.114382,88.585787 51.07481,85.87577 52,84 54.132458,79.676563 59.466121,76.61243 64,73.5 68.23035,70.595938 78,66 78,66 h 118 c 0,0 10.30633,3.071572 14,6 3.07332,2.4366 5.85267,5.647719 6,9 0.0953,2.16817 -0.95207,4.799331 -3.36111,6 -2.39835,1.195342 -5.79644,0.345949 -8.63889,0 -4.16193,-0.506541 -12,-3 -12,-3 L 70,85.5 c 0,0 -7.647498,3.729386 -12,4.5 -1.946498,0.344629 -4.585786,1.06066 -6,0 z"
       id="path4004"
       sodipodi:nodetypes="aaaccaaaaccaa" /><path
       style="fill:#b56a3d;stroke-width:13.8564;stroke-linecap:round"
       d="m 308,90 c -1.96391,0.283661 -4.23665,0.707787 -6,0 -2.11928,-0.850654 -3.30345,-2.774578 -4,-4.5 -0.77276,-1.914184 -0.9078,-4.119457 0,-6 1.77254,-3.671878 5.8251,-6.66639 10,-9 4.07095,-2.275503 14,-4.5 14,-4.5 h 90 c 0,0 16.5145,5.328274 24,9 4.35762,2.137465 9.06471,4.274547 12,7.5 1.18846,1.305947 2.14945,2.922839 2,4.5 -0.10568,1.115222 -0.73192,2.412215 -2,3 -0.5671,0.262865 -1.34536,0.09455 -2,0 -3.52533,-0.509188 -10,-3 -10,-3 H 318 c 0,0 -6.47467,2.490812 -10,3 z"
       id="path4008"
       sodipodi:nodetypes="aaaaaccaaaaacca" /></g></svg>
