<?xml version="1.0" encoding="UTF-8" standalone="no"?>
<!-- Created with Inkscape (http://www.inkscape.org/) -->

<svg
   width="1024px"
   height="1024px"
   viewBox="0 0 1024 1024"
   version="1.1"
   id="SVGRoot"
   sodipodi:docname="Skeleton.svg"
   xml:space="preserve"
   inkscape:version="1.2.2 (b0a8486541, 2022-12-01)"
   xmlns:inkscape="http://www.inkscape.org/namespaces/inkscape"
   xmlns:sodipodi="http://sodipodi.sourceforge.net/DTD/sodipodi-0.dtd"
   xmlns:xlink="http://www.w3.org/1999/xlink"
   xmlns="http://www.w3.org/2000/svg"
   xmlns:svg="http://www.w3.org/2000/svg"><sodipodi:namedview
     id="namedview1054"
     pagecolor="#ffffff"
     bordercolor="#000000"
     borderopacity="0.25"
     inkscape:showpageshadow="2"
     inkscape:pageopacity="0.0"
     inkscape:pagecheckerboard="0"
     inkscape:deskcolor="#d1d1d1"
     inkscape:document-units="px"
     showgrid="false"
     inkscape:zoom="1.4734708"
     inkscape:cx="240.24907"
     inkscape:cy="214.12029"
     inkscape:window-width="1920"
     inkscape:window-height="1050"
     inkscape:window-x="0"
     inkscape:window-y="0"
     inkscape:window-maximized="1"
     inkscape:current-layer="layer1"
     showguides="false" /><defs
     id="defs1049"><linearGradient
       inkscape:collect="always"
       id="linearGradient3540"><stop
         style="stop-color:#585850;stop-opacity:1;"
         offset="0.8974359"
         id="stop3536" /><stop
         style="stop-color:#ffffff;stop-opacity:1;"
         offset="1"
         id="stop3538" /></linearGradient><radialGradient
       inkscape:collect="always"
       xlink:href="#linearGradient3540"
       id="radialGradient3542"
       cx="192"
       cy="576"
       fx="192"
       fy="576"
       r="46"
       gradientUnits="userSpaceOnUse" /></defs><g
     inkscape:label="Layer 1"
     inkscape:groupmode="layer"
     id="layer1"><rect
       style="display:inline;fill:#ffffff;stroke-width:54.4625;stroke-linejoin:round"
       id="rect3468"
       width="1024"
       height="1024"
       x="0"
       y="0" /><circle
       style="fill:#212221;stroke-width:5.03687;stroke-linejoin:round"
       id="path2957"
       cx="165"
       cy="200"
       r="67" /><circle
       style="fill:#212221;stroke-width:5.03687;stroke-linejoin:round"
       id="circle3013"
       cx="351"
       cy="200"
       r="67" /><path
       style="fill:#212221;stroke-width:5;stroke-linejoin:round"
       d="m 225.31834,317.95676 h 65.49163 c 6.47854,0 11.26383,-7.75768 13.74306,-13.74307 1.75308,-4.23231 2.29051,-9.77578 0,-13.74306 l -36.94214,-63.98566 c -2.46774,-4.27425 -12.0999,-4.12718 -14.80643,0 l -41.73818,63.64633 c -3.10143,4.72935 -2.51007,11.89869 0,16.96674 2.65071,5.35201 8.2796,10.85872 14.25206,10.85872 z"
       id="path3069"
       sodipodi:nodetypes="ssassssas" /><rect
       style="fill:#a8a8a0;stroke-width:5.6858;stroke-linejoin:round"
       id="rect3226"
       width="128"
       height="12"
       x="0"
       y="512" /><rect
       style="fill:#a8a8a0;stroke-width:5.6858;stroke-linejoin:round"
       id="rect3228"
       width="128"
       height="12"
       x="0"
       y="536" /><rect
       style="fill:#a8a8a0;stroke-width:5.6858;stroke-linejoin:round"
       id="rect3230"
       width="128"
       height="12"
       x="0"
       y="560" /><rect
       style="fill:#a8a8a0;stroke-width:5.6858;stroke-linejoin:round"
       id="rect3232"
       width="128"
       height="12"
       x="0"
       y="584" /><rect
       style="fill:#a8a8a0;stroke-width:5.6858;stroke-linejoin:round"
       id="rect3234"
       width="128"
       height="12"
       x="0"
       y="608" /><rect
       style="fill:#a8a8a0;stroke-width:5.6858;stroke-linejoin:round"
       id="rect3236"
       width="128"
       height="12"
       x="0"
       y="632" /><rect
       style="fill:#a8a8a0;stroke-width:5.6858;stroke-linejoin:round"
       id="rect3238"
       width="128"
       height="12"
       x="0"
       y="656" /><rect
       style="fill:#a8a8a0;stroke-width:5.6858;stroke-linejoin:round"
       id="rect3240"
       width="128"
       height="12"
       x="0"
       y="680" /><rect
       style="fill:#a8a8a0;stroke-width:5.6858;stroke-linejoin:round"
       id="rect3242"
       width="128"
       height="12"
       x="0"
       y="704" /><rect
       style="fill:#a8a8a0;stroke-width:5.6858;stroke-linejoin:round"
       id="rect3244"
       width="128"
       height="12"
       x="0"
       y="728" /><rect
       style="fill:#a8a8a0;stroke-width:5.6858;stroke-linejoin:round"
       id="rect3246"
       width="128"
       height="12"
       x="0"
       y="752" /><rect
       style="fill:#a8a8a0;stroke-width:5.6858;stroke-linejoin:round"
       id="rect3248"
       width="128"
       height="12"
       x="0"
       y="776" /><rect
       style="fill:#a8a8a0;stroke-width:5.6858;stroke-linejoin:round"
       id="rect3250"
       width="128"
       height="12"
       x="0"
       y="800" /><rect
       style="fill:#a8a8a0;stroke-width:5.6858;stroke-linejoin:round"
       id="rect3252"
       width="128"
       height="12"
       x="0"
       y="824" /><rect
       style="fill:#a8a8a0;stroke-width:5.6858;stroke-linejoin:round"
       id="rect3254"
       width="128"
       height="12"
       x="0"
       y="848" /><rect
       style="fill:#a8a8a0;stroke-width:5.6858;stroke-linejoin:round"
       id="rect3256"
       width="128"
       height="12"
       x="0"
       y="870" /><circle
       style="fill:url(#radialGradient3542);stroke-width:5.92611;stroke-linejoin:round;fill-opacity:1"
       id="path3362"
       cx="192"
       cy="576"
       r="46" /><path
       id="path6570"
       style="fill:#212221;stroke-width:5;stroke-linejoin:round"
       d="m 273.26621,386.33273 c 4.64268,-3.07876 12.02603,-3.01209 16.71224,0 4.8115,3.09262 2.31454,12.51678 7.12604,15.6094 2.16469,1.39137 5.44217,1.19747 7.71986,0 8.47705,-4.45672 7.81103,-19.21188 16.28808,-23.6686 4.33012,-2.27651 11.21701,-3.45922 14.67623,0 3.75915,3.75915 -3.75915,12.18958 0,15.94873 3.39923,3.39923 10.27272,2.42803 14.42173,0 14.16989,-8.29233 15.99886,-28.67504 24.12418,-42.94135 9.77426,-17.16149 12.52084,-41.43649 29.62463,-51.31137 5.03065,-2.90445 12.21972,2.57505 17.42668,0 5.26178,-2.60216 8.90831,-8.40165 10.68904,-13.99509 2.3949,-7.52258 4.83309,-18.18717 -0.84833,-23.66861 -2.04933,-1.97719 -5.76293,-0.61706 -8.54291,0 -14.82198,3.28996 -26.77234,14.76386 -41.27071,19.27076 -8.09252,2.51561 -17.95436,-0.39691 -25.07435,4.19906 -4.04433,2.61062 -6.67574,7.3804 -8.03819,11.99729 -2.76218,9.36006 -1.71837,19.7651 0.47989,29.27341 0.78582,3.39897 3.26557,5.50945 3.23927,8.99798 -0.0254,3.38027 -1.72372,6.57626 -3.23927,9.59784 -1.83636,3.66118 -2.14052,8.78706 -5.63873,10.91754 -5.19161,3.16179 -13.06853,3.20126 -18.2359,0 -7.1,-4.39856 -2.80601,-22.33361 -11.15748,-22.43495 -12.93272,-0.15693 -7.03933,27.63477 -18.11592,34.31227 -6.40454,3.86097 -21.40111,7.40651 -22.43495,0 -2.16578,-15.5158 -9.40717,-22.86647 -16.65178,-30.21198 -11.67404,-0.50695 -5.85902,19.7687 -16.05794,28.85464 -5.58387,4.97451 -15.01241,5.21831 -21.41695,1.35734 -11.07659,-6.6775 -5.1832,-34.4692 -18.11592,-34.31227 -8.35147,0.10134 -4.05748,18.03639 -11.15748,22.43495 -5.16737,3.20126 -13.04429,3.16179 -18.2359,0 -3.49821,-2.13048 -3.80237,-7.25636 -5.63873,-10.91754 -1.51555,-3.02158 -2.61401,-5.73768 -2.63941,-9.11795 -0.0263,-3.48853 1.85359,-6.0789 2.63941,-9.47787 2.19826,-9.50831 3.24207,-19.91335 0.47989,-29.27341 -1.36245,-4.61689 -3.99386,-9.38667 -8.03819,-11.99729 -7.11999,-4.59597 -16.98183,-1.68345 -25.07435,-4.19906 -14.49837,-4.5069 -26.44873,-15.9808 -41.270709,-19.27076 -2.779977,-0.61706 -6.49358,-1.97719 -8.542908,0 -5.681425,5.48144 -3.243229,16.14603 -0.848337,23.66861 1.78073,5.59344 5.427266,11.39293 10.689048,13.99509 5.206954,2.57505 12.396026,-2.90445 17.426676,0 17.10379,9.87488 19.85037,34.14988 29.62463,51.31137 8.12532,14.26631 9.95429,34.64902 24.12418,42.94135 4.14901,2.42803 11.0225,3.39923 14.42173,0 3.75915,-3.75915 -3.75915,-12.18958 0,-15.94873 3.45922,-3.45922 10.34611,-2.27651 14.67623,0 8.47705,4.45672 7.81103,19.21188 16.28808,23.6686 2.27769,1.19747 5.55517,1.39137 7.71986,0 4.8115,-3.09262 2.31454,-12.51678 7.12604,-15.6094 4.68621,-3.01209 12.23923,-9.86546 28.35293,12.27171 17.04687,9.41212 14.25347,-8.33576 20.18877,-12.27171 z"
       sodipodi:nodetypes="ssssssssssssssssssssssssscsssssssssssssssssssssssscs" /></g></svg>
