<?xml version="1.0" encoding="UTF-8" standalone="no"?>
<!-- Created with Inkscape (http://www.inkscape.org/) -->

<svg
   width="100"
   height="64"
   viewBox="0 0 26.458333 16.933333"
   version="1.1"
   id="svg1"
   xml:space="preserve"
   inkscape:version="1.2.2 (b0a8486541, 2022-12-01)"
   sodipodi:docname="Eye General Grievous.svg"
   xmlns:inkscape="http://www.inkscape.org/namespaces/inkscape"
   xmlns:sodipodi="http://sodipodi.sourceforge.net/DTD/sodipodi-0.dtd"
   xmlns:xlink="http://www.w3.org/1999/xlink"
   xmlns="http://www.w3.org/2000/svg"
   xmlns:svg="http://www.w3.org/2000/svg"><sodipodi:namedview
     id="namedview1"
     pagecolor="#ffffff"
     bordercolor="#111111"
     borderopacity="1"
     inkscape:showpageshadow="0"
     inkscape:pageopacity="0"
     inkscape:pagecheckerboard="1"
     inkscape:deskcolor="#d1d1d1"
     inkscape:document-units="mm"
     inkscape:zoom="10.688863"
     inkscape:cx="44.345222"
     inkscape:cy="34.100915"
     inkscape:window-width="1920"
     inkscape:window-height="1039"
     inkscape:window-x="0"
     inkscape:window-y="0"
     inkscape:window-maximized="1"
     inkscape:current-layer="layer1"
     showgrid="false" /><defs
     id="defs1"><linearGradient
       id="linearGradient13"
       inkscape:collect="always"><stop
         style="stop-color:#ffff00;stop-opacity:1;"
         offset="0.74999976"
         id="stop14" /><stop
         style="stop-color:#94cf08;stop-opacity:1;"
         offset="1"
         id="stop13" /></linearGradient><radialGradient
       inkscape:collect="always"
       xlink:href="#linearGradient13"
       id="radialGradient14"
       cx="13.965039"
       cy="7.6964369"
       fx="13.965039"
       fy="7.6964369"
       r="2.778125"
       gradientTransform="matrix(1,0,0,0.87648812,0,1.0717752)"
       gradientUnits="userSpaceOnUse" /></defs><g
     inkscape:label="Layer 1"
     inkscape:groupmode="layer"
     id="layer1"><rect
       style="display:inline;fill:#f1f0f1;fill-opacity:1;stroke-width:69.5612;stroke-linejoin:round"
       id="rect14"
       width="26.458334"
       height="16.933332"
       x="0"
       y="0"
       inkscape:label="background" /><path
       style="display:inline;fill:#222222;fill-opacity:1;stroke-width:4.23333;stroke-linejoin:round"
       d="M 5.2916667,4.2333333 C 5.4825887,3.7724069 5.8974063,3.3849125 6.35,3.175 7.3134241,2.7281649 8.4630344,2.9016407 9.5249998,2.9104167 10.411313,2.9177411 11.297617,3.0230169 12.170833,3.175 13.60383,3.424413 15.020182,3.7858159 16.404167,4.2333333 17.307974,4.5255832 18.256999,4.7687645 19.05,5.2916667 19.466505,5.5663084 19.993709,5.8644431 20.108333,6.35 c 0.128154,0.5428691 -0.315709,1.0721687 -0.529166,1.5875 -0.301874,0.7287888 -0.643619,1.4456437 -1.058334,2.116667 -0.463666,0.750227 -0.910386,1.551563 -1.5875,2.116666 -0.908444,0.758166 -2.065245,1.176975 -3.175,1.5875 -0.682095,0.252324 -1.394845,0.440307 -2.116666,0.529167 -0.350135,0.0431 -0.708199,0.0431 -1.058334,0 C 9.8615121,14.19864 9.0611484,14.177276 8.4666667,13.758333 7.4269482,13.025623 6.9088368,11.725953 6.35,10.583333 6.1049339,10.082261 5.9640003,9.5349377 5.8208333,8.9958333 5.5899835,8.1265535 5.3802924,7.2450332 5.2916667,6.35 c -0.069524,-0.7021219 -0.2700044,-1.4648184 0,-2.1166667 z"
       id="path1"
       sodipodi:nodetypes="aaaaaaaaaaaaaaaaaa"
       inkscape:label="eyeshadow" /><path
       style="display:inline;opacity:1;fill:url(#radialGradient14);stroke-width:4.23333;stroke-linejoin:round"
       d="M 14.155208,11.1125 C 13.876379,11.1064 13.614838,10.964455 13.361458,10.847917 13.127853,10.740474 12.90267,10.609282 12.7,10.451042 12.306762,10.144011 11.909665,9.8135185 11.641667,9.3927083 11.364407,8.9573553 11.202053,8.4458166 11.1125,7.9375 11.043641,7.5466443 10.958734,7.1127515 11.1125,6.746875 11.185746,6.5725922 11.345355,6.4278107 11.517648,6.35 11.963435,6.1486745 12.492033,6.2493341 12.981125,6.2425129 13.770098,6.2315094 14.613694,6.0557676 15.345833,6.35 c 0.43495,0.1747981 0.81393,0.5260384 1.058334,0.9260417 0.189594,0.3102977 0.268451,0.6947189 0.264583,1.0583333 -0.0053,0.5027572 -0.175975,1.0035482 -0.396875,1.4552083 -0.09687,0.198066 -0.236702,0.3776457 -0.396875,0.5291667 -0.231005,0.218527 -0.505127,0.395696 -0.79375,0.529167 -0.291385,0.134748 -0.605085,0.271557 -0.926042,0.264583 z"
       id="path13"
       sodipodi:nodetypes="aaaaaaaaaaaaaaa"
       inkscape:label="sclera" /><path
       style="display:inline;fill:#222222;fill-opacity:1;stroke-width:4.23333;stroke-linejoin:round"
       d="m 13.890625,8.73125 c 0,0 -0.304743,-0.3288522 -0.396875,-0.5291667 -0.169882,-0.3693616 -0.276703,-0.7842494 -0.264583,-1.190625 0.0096,-0.3208899 0.264583,-0.9260416 0.264583,-0.9260416 l 0.926042,-0.2645834 c 0,0 0.139929,1.6343369 -0.132292,2.38125 -0.0755,0.2071564 -0.264583,0.7055556 -0.396875,0.5291667 z"
       id="path14"
       sodipodi:nodetypes="saaccas"
       inkscape:label="pupil" /><path
       id="path2"
       style="fill:#673500;fill-opacity:1;stroke-width:4.23333;stroke-linejoin:round"
       d="M 10.451042 3.9305094 C 10.141835 3.9305094 9.8326282 3.94329 9.525 3.96875 C 8.9903626 4.012998 8.4476692 4.0674346 7.9375 4.2333333 C 7.5624162 4.3553045 7.0865241 4.4269887 6.8791667 4.7625 C 6.7864338 4.9125452 6.70414 5.3135446 6.8791667 5.2916667 L 8.9958333 5.0270833 C 9.1195959 5.011613 9.3161957 5.1801086 9.2604167 5.2916667 L 8.4666667 6.8791667 C 8.3784724 7.0555553 8.8011712 7.1753393 8.9958333 7.14375 C 9.3651788 7.0838135 9.4922224 6.5771231 9.7895833 6.35 C 10.354656 5.9183997 10.954441 5.4741693 11.641667 5.2916667 C 12.664545 5.0200267 13.786646 5.0485117 14.816667 5.2916667 C 15.200532 5.3822852 15.537101 5.6173905 15.875 5.8208333 C 16.524962 6.2121634 17.276352 6.5334785 17.727083 7.14375 C 17.892775 7.3680903 17.869134 7.6869643 17.991667 7.9375 C 18.131376 8.2231545 18.202845 8.7312499 18.520833 8.73125 C 18.838823 8.7312501 18.95785 8.241845 19.05 7.9375 C 19.152229 7.5998595 19.211425 7.192845 19.05 6.8791667 C 18.702843 6.2045761 17.86358 5.9202304 17.197917 5.55625 C 16.364489 5.1005371 15.466832 4.7538676 14.552083 4.4979167 C 13.518837 4.2088097 12.446358 4.0572459 11.377083 3.96875 C 11.069455 3.94329 10.760248 3.9305094 10.451042 3.9305094 z M 8.73125 5.55625 L 7.4083333 5.8208333 C 7.072255 5.888049 7.5910143 7.0436914 7.7995239 6.7716797 L 8.73125 5.55625 z M 14.315405 5.6880249 C 14.30735 5.6878584 14.297984 5.6880651 14.2875 5.6885417 L 11.377083 5.8208333 C 10.874817 5.8436637 10.186458 6.746875 10.186458 6.746875 C 10.186458 6.746875 10.969488 6.4442119 11.377083 6.35 C 12.027253 6.1997197 12.718096 6.2625873 13.361458 6.0854167 C 13.675122 5.9990393 14.565104 5.6931879 14.315405 5.6880249 z M 7.0569336 5.7918945 C 6.8788243 5.7955799 6.69662 6.1519459 6.6145833 6.35 C 6.4795813 6.6759239 6.4835651 7.0807878 6.6145833 7.4083333 L 7.14375 8.73125 C 7.2169909 8.9143536 7.569238 8.6344228 7.6729167 8.4666667 C 7.8120162 8.2415989 7.7741683 7.9173595 7.6729167 7.6729167 C 7.5774558 7.4424537 7.2392109 7.374213 7.14375 7.14375 C 7.1099995 7.0622691 7.1640129 6.9650017 7.14375 6.8791667 C 7.0984407 6.6872337 6.8791667 6.5472086 6.8791667 6.35 C 6.8791667 6.1527914 7.3037339 5.9361432 7.14375 5.8208333 C 7.1152924 5.8003222 7.0860787 5.7912915 7.0569336 5.7918945 z M 8.334375 7.6729167 C 8.1144438 7.6885467 8.0072237 7.992912 7.9375 8.2020833 C 7.770163 8.7040944 7.833722 9.2706933 7.9375 9.7895833 C 8.0499262 10.351714 8.3227346 10.874758 8.5989583 11.377083 C 8.8583231 11.84875 9.1790323 12.287633 9.525 12.7 C 9.8456617 13.082204 10.113469 13.59061 10.583333 13.758333 C 11.418086 14.05631 12.370881 13.714993 13.229167 13.49375 C 13.879574 13.326093 14.525064 13.076557 15.08125 12.7 C 15.391094 12.490225 15.627368 12.186763 15.875 11.90625 C 16.207745 11.529323 16.801042 10.715625 16.801042 10.715625 C 16.882262 10.6112 16.497711 10.622085 16.404167 10.715625 C 16.404167 10.715625 15.750564 11.482245 15.345833 11.773958 C 15.025866 12.004578 14.657418 12.166283 14.2875 12.303125 C 13.775929 12.492368 13.238127 12.610914 12.7 12.7 C 12.17613 12.786726 11.632043 12.941999 11.1125 12.832292 C 10.571886 12.718136 10.086665 12.386298 9.6572917 12.038542 C 9.3413588 11.782662 9.0203193 11.487612 8.8635417 11.1125 C 8.4540091 10.132639 8.5989583 7.9375 8.5989583 7.9375 C 8.5886004 7.8132052 8.4587869 7.664075 8.334375 7.6729167 z M 6.4151123 7.9225138 C 6.3932128 7.9236331 6.3716059 7.9285505 6.35 7.9375 C 6.1055571 8.0387516 6.2487484 8.4868071 6.35 8.73125 C 6.3977305 8.8464815 6.4914683 9.0158121 6.6145833 8.9958333 C 6.8092454 8.9642441 6.9107559 8.6613288 6.8791667 8.4666667 C 6.842955 8.2435205 6.6268073 7.9116941 6.4151123 7.9225138 z M 17.285767 8.3302409 C 16.997959 8.3343193 16.978083 8.9434685 16.933333 9.2604167 C 16.883628 9.6124477 16.712564 10.27698 17.065625 10.31875 C 17.360977 10.35369 17.332918 9.7773509 17.379818 9.4836589 C 17.440286 9.1050058 17.707404 8.4033549 17.330208 8.334375 C 17.314723 8.3315431 17.299921 8.3300403 17.285767 8.3302409 z M 9.3446493 9.1710164 C 9.2793575 9.1871115 9.4033022 10.315132 9.525 10.715625 C 9.685646 11.244292 9.9211368 11.787167 10.31875 12.170833 C 10.531622 12.376238 10.82236 12.510048 11.1125 12.567708 C 11.719562 12.688347 12.367659 12.599001 12.964583 12.435417 C 13.440074 12.305112 14.780522 11.773958 14.2875 11.773958 C 14.2875 11.773958 12.092552 12.173415 11.1125 11.773958 C 10.71454 11.611754 10.463176 11.204957 10.190592 10.872721 C 9.9840358 10.620962 9.7988199 10.347455 9.6572917 10.054167 C 9.5360836 9.8029872 9.3927083 9.2604167 9.3927083 9.2604167 C 9.3710486 9.1954374 9.3553334 9.1683827 9.3446493 9.1710164 z M 7.2212646 9.2547323 C 7.1942904 9.2545996 7.1680828 9.256468 7.14375 9.2604167 C 7.0206349 9.2803955 6.9268971 9.4097685 6.8791667 9.525 C 6.8116657 9.687962 6.8576147 9.8790994 6.8791667 10.054167 C 6.9680266 10.775987 7.0500088 11.537964 7.4083333 12.170833 C 7.5312377 12.387906 7.7070369 12.604539 7.9375 12.7 C 8.2634238 12.835002 8.8380665 13.015534 8.9958333 12.7 C 9.1930418 12.305583 8.3916004 12.039836 8.2020833 11.641667 C 8.0458034 11.313327 8.0846098 10.915883 7.9375 10.583333 C 7.8088563 10.292528 7.3769995 10.106025 7.4083333 9.7895833 C 7.4206235 9.6654647 7.6928954 9.6481152 7.6729167 9.525 C 7.6452761 9.3546707 7.4100847 9.255661 7.2212646 9.2547323 z M 9.8722656 9.4567871 C 9.815328 9.455996 9.7843085 9.4755112 9.8081868 9.525 C 9.8081868 9.525 10.074653 10.276998 10.31875 10.583333 C 10.670672 11.024988 11.641667 11.641667 11.641667 11.641667 C 11.744969 11.724307 11.735207 11.338336 11.641667 11.244792 C 11.641667 11.244792 11.181757 10.821254 10.980208 10.583333 C 10.735014 10.293891 10.31875 9.6572917 10.31875 9.6572917 C 10.248486 9.5589225 9.9975284 9.4585275 9.8722656 9.4567871 z "
       inkscape:label="wrinkles" /><path
       style="fill:#007f35;fill-opacity:1;stroke-width:4.23333;stroke-linejoin:round"
       d="m 10.054167,7.4083333 c 0,0 -0.1314836,0.9020027 0,1.3229167 0.207894,0.6655234 0.720073,1.20528 1.190625,1.719792 0.232435,0.25415 0.484638,0.509576 0.79375,0.661458 0.364888,0.179288 1.190625,0.264583 1.190625,0.264583 0.215235,0.04783 -0.240968,-0.373259 -0.396875,-0.529166 -0.311815,-0.311815 -0.755291,-0.473404 -1.058334,-0.79375 C 11.555431,9.8231619 11.384501,9.5460716 11.244792,9.2604167 10.999726,8.7593448 11.098287,8.0787496 10.715625,7.6729167 10.552713,7.5001396 10.054167,7.1708626 10.054167,7.4083333 Z"
       id="path12"
       sodipodi:nodetypes="saaasaaaas"
       inkscape:label="wrinklegreen" /></g></svg>
