<?xml version="1.0" encoding="UTF-8" standalone="no"?>
<!-- Created with Inkscape (http://www.inkscape.org/) -->

<svg
   width="512px"
   height="512px"
   viewBox="0 0 512 512"
   version="1.1"
   id="SVGRoot"
   sodipodi:docname="Torso Front Ben Kenobi.svg"
   inkscape:version="1.2.2 (b0a8486541, 2022-12-01)"
   xml:space="preserve"
   xmlns:inkscape="http://www.inkscape.org/namespaces/inkscape"
   xmlns:sodipodi="http://sodipodi.sourceforge.net/DTD/sodipodi-0.dtd"
   xmlns="http://www.w3.org/2000/svg"
   xmlns:svg="http://www.w3.org/2000/svg"><sodipodi:namedview
     id="namedview40227"
     pagecolor="#ffffff"
     bordercolor="#000000"
     borderopacity="0.25"
     inkscape:showpageshadow="2"
     inkscape:pageopacity="0.0"
     inkscape:pagecheckerboard="0"
     inkscape:deskcolor="#d1d1d1"
     inkscape:document-units="px"
     showgrid="false"
     inkscape:zoom="1.4790474"
     inkscape:cx="264.35934"
     inkscape:cy="239.6813"
     inkscape:window-width="1920"
     inkscape:window-height="1039"
     inkscape:window-x="1920"
     inkscape:window-y="0"
     inkscape:window-maximized="1"
     inkscape:current-layer="layer1" /><defs
     id="defs40222" /><g
     inkscape:label="Layer 1"
     inkscape:groupmode="layer"
     id="layer1"><rect
       style="display:inline;fill:#d6ba84;fill-opacity:1;stroke:none;stroke-width:4.37272;stroke-linecap:round;stroke-linejoin:round;stroke-dasharray:none;stroke-opacity:1"
       id="rect39572"
       width="512"
       height="512"
       x="0"
       y="0"
       inkscape:label="background" /><path
       style="display:inline;fill:#673500;fill-opacity:1;stroke:none;stroke-width:3.00294;stroke-linecap:round;stroke-linejoin:round;stroke-dasharray:none;stroke-opacity:1"
       d="M 171.56865,40.976766 352.6768,40.856826 C 340.02421,111.6285 308.24217,174.9286 271.26893,236.20113 229.01624,182.83899 190.81628,119.45752 171.56865,40.976766 Z"
       id="path38961"
       sodipodi:nodetypes="cccc"
       inkscape:label="undershirt" /><path
       style="fill:#fcc798;fill-opacity:1;stroke:none;stroke-width:3.00294;stroke-linecap:round;stroke-linejoin:round;stroke-dasharray:none;stroke-opacity:1"
       d="m 210.63825,37.951736 107.8174,0.10138 c -11.73777,13.67779 -23.55905,27.30368 -51.29151,31.03665 -26.14454,-1.70711 -41.82044,-15.84633 -56.52589,-31.13803 z"
       id="path38894"
       sodipodi:nodetypes="cccc"
       inkscape:label="skin" /><path
       style="fill:none;stroke:#000000;stroke-width:7.50733;stroke-linecap:round;stroke-linejoin:round;stroke-dasharray:none;stroke-opacity:1"
       d="m 210.22335,38.401836 c 37.46031,42.98432 73.32792,41.65353 108.48197,0.81103"
       id="path36704"
       sodipodi:nodetypes="cc"
       inkscape:label="skinoutline" /><g
       id="g681"
       inkscape:label="wrinkles"><path
         style="fill:none;stroke:#000000;stroke-width:7.50733;stroke-linecap:round;stroke-linejoin:round;stroke-dasharray:none;stroke-opacity:1"
         d="M 269.62198,235.27921 C 226.66205,182.66413 193.46849,119.88254 173.19298,43.653636"
         id="path36702"
         sodipodi:nodetypes="cc"
         inkscape:label="wrinkle1" /><path
         style="fill:none;stroke:#000000;stroke-width:7.50733;stroke-linecap:round;stroke-linejoin:round;stroke-dasharray:none;stroke-opacity:1"
         d="M 54.181989,478.64132 C 109.60472,430.90836 150.13808,411.53929 259.11675,255.10376 300.1919,191.77051 334.94202,123.42133 353.41832,42.166556"
         id="path36696"
         sodipodi:nodetypes="ccc"
         inkscape:label="wrinkle2" /><path
         style="fill:none;stroke:#000000;stroke-width:7.50733;stroke-linecap:round;stroke-linejoin:round;stroke-dasharray:none;stroke-opacity:1"
         d="M 242.07888,273.89838 C 202.6762,205.30678 168.52045,133.55171 145.76514,54.923096"
         id="path36700"
         sodipodi:nodetypes="cc"
         inkscape:label="wrinkle3" /><path
         style="fill:none;stroke:#000000;stroke-width:7.50733;stroke-linecap:round;stroke-linejoin:round;stroke-dasharray:none;stroke-opacity:1"
         d="m 256.96737,256.71816 c -6.03629,-8.58173 -11.17072,-17.03084 -13.95123,-25.13382"
         id="path36698"
         sodipodi:nodetypes="cc"
         inkscape:label="wrinkle4" /><path
         style="fill:none;stroke:#000000;stroke-width:7.50733;stroke-linecap:round;stroke-linejoin:round;stroke-dasharray:none;stroke-opacity:1"
         d="M 108.58865,476.62197 C 253.33605,363.81717 343.68671,218.8838 391.59162,48.880506"
         id="path36706"
         sodipodi:nodetypes="cc"
         inkscape:label="wrinkle5" /><path
         style="fill:none;stroke:#000000;stroke-width:7.50733;stroke-linecap:round;stroke-linejoin:round;stroke-dasharray:none;stroke-opacity:1"
         d="m 397.99168,200.99864 c -3.34265,44.2998 -27.35149,93.77694 -57.35541,130.70051 -23.57351,29.01015 -67.65088,35.82043 -91.29713,65.11935"
         id="path36708"
         sodipodi:nodetypes="cac"
         inkscape:label="wrinkle6" /><path
         style="fill:none;stroke:#000000;stroke-width:7.50733;stroke-linecap:round;stroke-linejoin:round;stroke-dasharray:none;stroke-opacity:1"
         d="m 434.47918,232.89361 c -3.62662,44.75755 -26.04507,89.21398 -54.61437,124.32119 -24.0319,29.53145 -69.99304,38.68922 -93.05916,66.23247"
         id="path36710"
         sodipodi:nodetypes="cac"
         inkscape:label="wrinkle7" /><path
         style="fill:none;stroke:#000000;stroke-width:7.50733;stroke-linecap:round;stroke-linejoin:round;stroke-dasharray:none;stroke-opacity:1"
         d="m 154.94701,192.90347 c 0,0 4.15726,53.68795 11.59772,79.36918 1.85797,6.41292 6.64073,11.7936 8.14744,18.29802 1.38725,5.98872 0.67021,18.42971 0.67021,18.42971"
         id="path36694"
         sodipodi:nodetypes="caac"
         inkscape:label="wrinkle8" /><path
         style="fill:none;stroke:#000000;stroke-width:7.50733;stroke-linecap:round;stroke-linejoin:round;stroke-dasharray:none;stroke-opacity:1"
         d="m 110.41497,185.84644 c 0,0 0.83459,76.17028 11.25722,112.32846 3.42946,11.89747 12.82047,21.45047 16.53742,33.26129 1.41369,4.49208 2.08869,13.97258 2.08869,13.97258"
         id="path36692"
         sodipodi:nodetypes="caac"
         inkscape:label="wrinkle9" /><path
         style="fill:none;stroke:#000000;stroke-width:7.50733;stroke-linecap:round;stroke-linejoin:round;stroke-dasharray:none;stroke-opacity:1"
         d="m 446.3016,402.39131 c 0,0 -7.17578,15.21036 -12.5413,21.5622 -8.24749,9.76359 -29.45486,24.54687 -29.45486,24.54687"
         id="path36712"
         sodipodi:nodetypes="cac"
         inkscape:label="wrinkle10" /><path
         style="fill:none;stroke:#000000;stroke-width:7.50733;stroke-linecap:round;stroke-linejoin:round;stroke-dasharray:none;stroke-opacity:1"
         d="m 478.64796,400.38968 c 0,0 -8.63805,17.23633 -14.84136,24.49191 -7.5286,8.80568 -26.56383,22.41296 -26.56383,22.41296"
         id="path36714"
         sodipodi:nodetypes="cac"
         inkscape:label="wrinkle11" /></g></g></svg>
