<?xml version="1.0" encoding="UTF-8" standalone="no"?>
<!-- Created with Inkscape (http://www.inkscape.org/) -->

<svg
   width="100"
   height="64"
   viewBox="0 0 26.458333 16.933333"
   version="1.1"
   id="svg1"
   xml:space="preserve"
   inkscape:version="1.4 (e7c3feb100, 2024-10-09)"
   sodipodi:docname="Eye General Grievous.svg"
   xmlns:inkscape="http://www.inkscape.org/namespaces/inkscape"
   xmlns:sodipodi="http://sodipodi.sourceforge.net/DTD/sodipodi-0.dtd"
   xmlns:xlink="http://www.w3.org/1999/xlink"
   xmlns="http://www.w3.org/2000/svg"
   xmlns:svg="http://www.w3.org/2000/svg"><sodipodi:namedview
     id="namedview1"
     pagecolor="#ffffff"
     bordercolor="#111111"
     borderopacity="1"
     inkscape:showpageshadow="0"
     inkscape:pageopacity="0"
     inkscape:pagecheckerboard="1"
     inkscape:deskcolor="#d1d1d1"
     inkscape:document-units="mm"
     inkscape:zoom="8"
     inkscape:cx="69.5"
     inkscape:cy="56.1875"
     inkscape:window-width="1920"
     inkscape:window-height="992"
     inkscape:window-x="1920"
     inkscape:window-y="0"
     inkscape:window-maximized="1"
     inkscape:current-layer="layer1" /><defs
     id="defs1"><linearGradient
       id="linearGradient13"
       inkscape:collect="always"><stop
         style="stop-color:#ffff00;stop-opacity:1;"
         offset="0.74999976"
         id="stop14" /><stop
         style="stop-color:#94cf08;stop-opacity:1;"
         offset="1"
         id="stop13" /></linearGradient><radialGradient
       inkscape:collect="always"
       xlink:href="#linearGradient13"
       id="radialGradient14"
       cx="13.965039"
       cy="7.6964369"
       fx="13.965039"
       fy="7.6964369"
       r="2.778125"
       gradientTransform="matrix(1,0,0,0.87648812,0,1.0717752)"
       gradientUnits="userSpaceOnUse" /></defs><g
     inkscape:label="Layer 1"
     inkscape:groupmode="layer"
     id="layer1"><rect
       style="display:inline;fill:#f1f0f1;fill-opacity:1;stroke-width:69.5612;stroke-linejoin:round"
       id="rect14"
       width="26.458334"
       height="16.933332"
       x="0"
       y="0"
       inkscape:label="Background" /><path
       style="display:inline;fill:#222222;fill-opacity:1;stroke-width:4.23333;stroke-linejoin:round"
       d="M 5.2916667,4.2333333 C 5.4825887,3.7724069 5.8974063,3.3849125 6.35,3.175 7.3134241,2.7281649 8.4630344,2.9016407 9.5249998,2.9104167 10.411313,2.9177411 11.297617,3.0230169 12.170833,3.175 13.60383,3.424413 15.020182,3.7858159 16.404167,4.2333333 17.307974,4.5255832 18.256999,4.7687645 19.05,5.2916667 19.466505,5.5663084 19.993709,5.8644431 20.108333,6.35 c 0.128154,0.5428691 -0.315709,1.0721687 -0.529166,1.5875 -0.301874,0.7287888 -0.643619,1.4456437 -1.058334,2.116667 -0.463666,0.750227 -0.910386,1.551563 -1.5875,2.116666 -0.908444,0.758166 -2.065245,1.176975 -3.175,1.5875 -0.682095,0.252324 -1.394845,0.440307 -2.116666,0.529167 -0.350135,0.0431 -0.708199,0.0431 -1.058334,0 C 9.8615121,14.19864 9.0611484,14.177276 8.4666667,13.758333 7.4269482,13.025623 6.9088368,11.725953 6.35,10.583333 6.1049339,10.082261 5.9640003,9.5349377 5.8208333,8.9958333 5.5899835,8.1265535 5.3802924,7.2450332 5.2916667,6.35 c -0.069524,-0.7021219 -0.2700044,-1.4648184 0,-2.1166667 z"
       id="path1"
       sodipodi:nodetypes="aaaaaaaaaaaaaaaaaa"
       inkscape:label="Socket" /><path
       id="path2"
       style="fill:#673500;fill-opacity:1;stroke-width:4.23333;stroke-linejoin:round"
       d="M 10.451042 3.9305094 C 10.141835 3.9305094 9.8326285 3.94329 9.525 3.96875 C 8.9903621 4.012998 8.4476697 4.0674344 7.9375 4.2333333 C 7.5624158 4.3553046 7.0865243 4.4269884 6.8791667 4.7625 C 6.7864337 4.9125454 6.7041399 5.3135447 6.8791667 5.2916667 L 8.9958333 5.0270833 C 9.119596 5.011613 9.3161958 5.1801085 9.2604167 5.2916667 L 8.4666667 6.8791667 C 8.3784723 7.0555555 8.801171 7.1753393 8.9958333 7.14375 C 9.3651791 7.0838134 9.4922221 6.5771233 9.7895833 6.35 C 10.354657 5.9183993 10.954441 5.4741695 11.641667 5.2916667 C 12.664546 5.0200265 13.786645 5.0485115 14.816667 5.2916667 C 15.200533 5.3822853 15.537101 5.6173903 15.875 5.8208333 C 16.524963 6.2121638 17.276351 6.5334779 17.727083 7.14375 C 17.892775 7.3680905 17.869134 7.686964 17.991667 7.9375 C 18.131376 8.2231548 18.202844 8.7312499 18.520833 8.73125 C 18.838823 8.7312501 18.95785 8.2418453 19.05 7.9375 C 19.152229 7.5998592 19.211425 7.1928453 19.05 6.8791667 C 18.702843 6.2045755 17.863581 5.9202308 17.197917 5.55625 C 16.364488 5.1005366 15.466833 4.7538679 14.552083 4.4979167 C 13.518836 4.2088094 12.446359 4.057246 11.377083 3.96875 C 11.069455 3.94329 10.760248 3.9305094 10.451042 3.9305094 z M 8.73125 5.55625 L 7.4083333 5.8208333 C 7.0722546 5.888049 7.5910141 7.0436917 7.7995239 6.7716797 L 8.73125 5.55625 z M 14.2875 5.6885417 L 11.377083 5.8208333 C 10.874816 5.8436637 10.186458 6.746875 10.186458 6.746875 C 10.186458 6.746875 10.969487 6.444212 11.377083 6.35 C 12.027253 6.1997195 12.718095 6.2625875 13.361458 6.0854167 C 13.68524 5.9962529 14.622988 5.6732917 14.2875 5.6885417 z M 7.0476318 5.7924113 C 6.872642 5.8084485 6.6951286 6.1555467 6.6145833 6.35 C 6.4795811 6.6759242 6.4835649 7.0807874 6.6145833 7.4083333 L 7.14375 8.73125 C 7.216991 8.9143538 7.5692379 8.634423 7.6729167 8.4666667 C 7.8120164 8.2415987 7.7741684 7.9173598 7.6729167 7.6729167 C 7.5774557 7.4424535 7.239211 7.3742132 7.14375 7.14375 C 7.1099995 7.062269 7.1640129 6.9650018 7.14375 6.8791667 C 7.0984407 6.6872335 6.8791667 6.5472088 6.8791667 6.35 C 6.8791667 6.1527912 7.3037341 5.9361433 7.14375 5.8208333 C 7.1121304 5.7980432 7.0800374 5.7894414 7.0476318 5.7924113 z M 8.334375 7.6729167 C 8.1144436 7.6885467 8.0072238 7.9929118 7.9375 8.2020833 C 7.7701628 8.7040949 7.8337219 9.2706927 7.9375 9.7895833 C 8.0499263 10.351715 8.3227343 10.874757 8.5989583 11.377083 C 8.8583233 11.84875 9.179032 12.287633 9.525 12.7 C 9.845662 13.082204 10.113468 13.590609 10.583333 13.758333 C 11.418087 14.05631 12.37088 13.714993 13.229167 13.49375 C 13.879575 13.326093 14.525063 13.076557 15.08125 12.7 C 15.391094 12.490225 15.627368 12.186763 15.875 11.90625 C 16.207745 11.529323 16.801042 10.715625 16.801042 10.715625 C 16.882262 10.6112 16.497711 10.622085 16.404167 10.715625 C 16.404167 10.715625 15.750564 11.482244 15.345833 11.773958 C 15.025865 12.004578 14.657418 12.166283 14.2875 12.303125 C 13.775928 12.492368 13.238128 12.610914 12.7 12.7 C 12.176129 12.786726 11.632044 12.941999 11.1125 12.832292 C 10.571885 12.718136 10.086665 12.386299 9.6572917 12.038542 C 9.3413585 11.782662 9.0203195 11.487612 8.8635417 11.1125 C 8.4540087 10.132638 8.5989583 7.9375 8.5989583 7.9375 C 8.5886004 7.8132051 8.458787 7.664075 8.334375 7.6729167 z M 6.4151123 7.9225138 C 6.3932128 7.9236331 6.3716059 7.9285505 6.35 7.9375 C 6.1055569 8.0387517 6.2487483 8.4868069 6.35 8.73125 C 6.3977305 8.8464816 6.4914681 9.0158121 6.6145833 8.9958333 C 6.8092456 8.964244 6.910756 8.661329 6.8791667 8.4666667 C 6.842955 8.2435203 6.6268075 7.9116941 6.4151123 7.9225138 z M 17.300236 8.3307576 C 16.998702 8.3145024 16.978816 8.9382723 16.933333 9.2604167 C 16.883628 9.6124481 16.712564 10.27698 17.065625 10.31875 C 17.360977 10.35369 17.332918 9.7773512 17.379818 9.4836589 C 17.440286 9.1050055 17.707404 8.403355 17.330208 8.334375 C 17.319885 8.3324871 17.309963 8.331282 17.300236 8.3307576 z M 9.3482666 9.1710164 C 9.2747154 9.145613 9.4010894 10.30785 9.525 10.715625 C 9.6856462 11.244293 9.9211364 11.787166 10.31875 12.170833 C 10.531622 12.376238 10.82236 12.510048 11.1125 12.567708 C 11.719563 12.688347 12.367658 12.599001 12.964583 12.435417 C 13.440074 12.305112 14.780522 11.773958 14.2875 11.773958 C 14.2875 11.773958 12.092553 12.173415 11.1125 11.773958 C 10.71454 11.611754 10.463176 11.204957 10.190592 10.872721 C 9.9840355 10.620961 9.7988201 10.347456 9.6572917 10.054167 C 9.5360835 9.802987 9.3927083 9.2604167 9.3927083 9.2604167 C 9.3734552 9.2026573 9.3587739 9.1746455 9.3482666 9.1710164 z M 7.2212646 9.2547323 C 7.1942903 9.2545996 7.1680828 9.256468 7.14375 9.2604167 C 7.0206348 9.2803956 6.9268972 9.4097684 6.8791667 9.525 C 6.8116657 9.6879622 6.8576147 9.8790993 6.8791667 10.054167 C 6.9680267 10.775988 7.0500084 11.537963 7.4083333 12.170833 C 7.5312378 12.387906 7.7070367 12.604539 7.9375 12.7 C 8.2634241 12.835002 8.8380663 13.015534 8.9958333 12.7 C 9.193042 12.305583 8.3916006 12.039837 8.2020833 11.641667 C 8.0458032 11.313327 8.0846099 10.915883 7.9375 10.583333 C 7.8088562 10.292527 7.3769994 10.106025 7.4083333 9.7895833 C 7.4206235 9.6654645 7.6928955 9.6481153 7.6729167 9.525 C 7.645276 9.3546705 7.4100849 9.255661 7.2212646 9.2547323 z M 9.8722656 9.4567871 C 9.8153279 9.455996 9.7843085 9.4755112 9.8081868 9.525 C 9.8081868 9.525 10.074653 10.276997 10.31875 10.583333 C 10.670672 11.024988 11.641667 11.641667 11.641667 11.641667 C 11.744969 11.724307 11.735207 11.338336 11.641667 11.244792 C 11.641667 11.244792 11.181757 10.821254 10.980208 10.583333 C 10.735013 10.29389 10.31875 9.6572917 10.31875 9.6572917 C 10.248486 9.5589224 9.9975285 9.4585275 9.8722656 9.4567871 z "
       inkscape:label="Flesh" /><path
       style="fill:#007f35;fill-opacity:1;stroke-width:4.23333;stroke-linejoin:round"
       d="m 10.054167,7.4083333 c 0,0 -0.1314836,0.9020027 0,1.3229167 0.207894,0.6655234 0.720073,1.20528 1.190625,1.719792 0.232435,0.25415 0.484638,0.509576 0.79375,0.661458 0.364888,0.179288 1.190625,0.264583 1.190625,0.264583 0.215235,0.04783 -0.240968,-0.373259 -0.396875,-0.529166 -0.311815,-0.311815 -0.755291,-0.473404 -1.058334,-0.79375 C 11.555431,9.8231619 11.384501,9.5460716 11.244792,9.2604167 10.999726,8.7593448 11.098287,8.0787496 10.715625,7.6729167 10.552713,7.5001396 10.054167,7.1708626 10.054167,7.4083333 Z"
       id="path12"
       sodipodi:nodetypes="saaasaaaas"
       inkscape:label="FleshGreen" /><path
       style="display:inline;opacity:1;fill:url(#radialGradient14);stroke-width:4.23333;stroke-linejoin:round"
       d="M 14.155208,11.1125 C 13.876379,11.1064 13.614838,10.964455 13.361458,10.847917 13.127853,10.740474 12.90267,10.609282 12.7,10.451042 12.306762,10.144011 11.909665,9.8135185 11.641667,9.3927083 11.364407,8.9573553 11.202053,8.4458166 11.1125,7.9375 11.043641,7.5466443 10.958734,7.1127515 11.1125,6.746875 11.185746,6.5725922 11.345355,6.4278107 11.517648,6.35 11.963435,6.1486745 12.492033,6.2493341 12.981125,6.2425129 13.770098,6.2315094 14.613694,6.0557676 15.345833,6.35 c 0.43495,0.1747981 0.81393,0.5260384 1.058334,0.9260417 0.189594,0.3102977 0.268451,0.6947189 0.264583,1.0583333 -0.0053,0.5027572 -0.175975,1.0035482 -0.396875,1.4552083 -0.09687,0.198066 -0.236702,0.3776457 -0.396875,0.5291667 -0.231005,0.218527 -0.505127,0.395696 -0.79375,0.529167 -0.291385,0.134748 -0.605085,0.271557 -0.926042,0.264583 z"
       id="path13"
       sodipodi:nodetypes="aaaaaaaaaaaaaaa"
       inkscape:label="Sclera" /><path
       style="display:inline;fill:#222222;fill-opacity:1;stroke-width:4.23333;stroke-linejoin:round"
       d="m 13.890625,8.73125 c 0,0 -0.304743,-0.3288522 -0.396875,-0.5291667 -0.169882,-0.3693616 -0.276703,-0.7842494 -0.264583,-1.190625 0.0096,-0.3208899 0.264583,-0.9260416 0.264583,-0.9260416 l 0.926042,-0.2645834 c 0,0 0.139929,1.6343369 -0.132292,2.38125 -0.0755,0.2071564 -0.264583,0.7055556 -0.396875,0.5291667 z"
       id="path14"
       sodipodi:nodetypes="saaccas"
       inkscape:label="Pupil" /></g></svg>
