<?xml version="1.0" encoding="UTF-8" standalone="no"?>
<!-- Created with Inkscape (http://www.inkscape.org/) -->

<svg
   width="512px"
   height="512px"
   viewBox="0 0 512 512"
   version="1.1"
   id="SVGRoot"
   sodipodi:docname="Head Back Lobot.svg"
   xml:space="preserve"
   inkscape:version="1.2.2 (b0a8486541, 2022-12-01)"
   xmlns:inkscape="http://www.inkscape.org/namespaces/inkscape"
   xmlns:sodipodi="http://sodipodi.sourceforge.net/DTD/sodipodi-0.dtd"
   xmlns:xlink="http://www.w3.org/1999/xlink"
   xmlns="http://www.w3.org/2000/svg"
   xmlns:svg="http://www.w3.org/2000/svg"><sodipodi:namedview
     id="namedview14120"
     pagecolor="#ffffff"
     bordercolor="#111111"
     borderopacity="1"
     inkscape:showpageshadow="0"
     inkscape:pageopacity="0"
     inkscape:pagecheckerboard="1"
     inkscape:deskcolor="#d1d1d1"
     inkscape:document-units="px"
     showgrid="false"
     inkscape:zoom="1.3512593"
     inkscape:cx="191.67305"
     inkscape:cy="263.08791"
     inkscape:window-width="1920"
     inkscape:window-height="1039"
     inkscape:window-x="0"
     inkscape:window-y="0"
     inkscape:window-maximized="1"
     inkscape:current-layer="g780"
     inkscape:pageshadow="2" /><defs
     id="defs14115"><linearGradient
       inkscape:collect="always"
       id="linearGradient18114"><stop
         style="stop-color:#ffffff;stop-opacity:1;"
         offset="0"
         id="stop18110" /><stop
         style="stop-color:#4eb6e6;stop-opacity:1;"
         offset="0.5"
         id="stop18844" /><stop
         style="stop-color:#ffffff;stop-opacity:1;"
         offset="1"
         id="stop18112" /></linearGradient><linearGradient
       inkscape:collect="always"
       id="linearGradient15000"><stop
         style="stop-color:#a8a8a0;stop-opacity:1;"
         offset="0"
         id="stop14996" /><stop
         style="stop-color:#ffffff;stop-opacity:1;"
         offset="0.5"
         id="stop15004" /><stop
         style="stop-color:#a8a8a0;stop-opacity:1;"
         offset="1"
         id="stop14998" /></linearGradient><linearGradient
       inkscape:collect="always"
       xlink:href="#linearGradient15000"
       id="linearGradient15002"
       x1="252.44957"
       y1="188.42116"
       x2="252.44957"
       y2="308.25589"
       gradientUnits="userSpaceOnUse"
       spreadMethod="reflect"
       gradientTransform="translate(2)" /><linearGradient
       inkscape:collect="always"
       xlink:href="#linearGradient18114"
       id="linearGradient18116"
       x1="88"
       y1="248"
       x2="145.81697"
       y2="248"
       gradientUnits="userSpaceOnUse" /><linearGradient
       inkscape:collect="always"
       xlink:href="#linearGradient18114"
       id="linearGradient19574"
       gradientUnits="userSpaceOnUse"
       x1="88"
       y1="248"
       x2="145.81697"
       y2="248"
       gradientTransform="matrix(-1,0,0,1,520,0)" /></defs><g
     inkscape:label="Layer 1"
     inkscape:groupmode="layer"
     id="layer1"><rect
       style="display:inline;fill:#ffc99c;fill-opacity:1;stroke-width:71.8753;stroke-linecap:round"
       id="rect14259"
       width="512"
       height="512"
       x="0"
       y="0"
       inkscape:label="background" /><g
       id="g780"
       inkscape:label="device"><path
         style="display:inline;fill:url(#linearGradient15002);fill-opacity:1;stroke:#222222;stroke-width:8;stroke-linecap:butt;stroke-opacity:1"
         d="M 138,188 H 382 V 308 H 138 Z"
         id="path14938"
         sodipodi:nodetypes="ccccc"
         inkscape:label="devicemain" /><path
         style="fill:url(#linearGradient18116);fill-opacity:1;stroke:#222222;stroke-width:8;stroke-linecap:butt;stroke-opacity:1"
         d="m 136,188 h -32 c -5.656854,0 -12,6.34315 -12,12 v 96 c 0,5.65685 6.343146,12 12,12 h 32"
         id="path15840"
         sodipodi:nodetypes="cssssc"
         inkscape:label="bluishlightL" /><path
         style="fill:none;fill-opacity:1;stroke:#222222;stroke-width:8;stroke-linecap:butt;stroke-dasharray:none;stroke-opacity:1"
         d="M 258,190 V 308"
         id="path16570"
         sodipodi:nodetypes="cc"
         inkscape:label="midline" /><path
         style="fill:#ffffff;fill-opacity:1;stroke:#222222;stroke-width:8;stroke-linecap:butt;stroke-dasharray:none;stroke-opacity:1"
         d="m 168,202 h 72 v 58 h -72 z"
         id="path16572"
         sodipodi:nodetypes="ccccc"
         inkscape:label="whitelightL" /><path
         style="fill:#ffffff;fill-opacity:1;stroke:#222222;stroke-width:8;stroke-linecap:butt;stroke-dasharray:none;stroke-opacity:1"
         d="m 278,202 h 72 v 58 h -72 z"
         id="path16574"
         sodipodi:nodetypes="ccccc"
         inkscape:label="whitelightR" /><path
         style="fill:url(#linearGradient19574);fill-opacity:1;stroke:#222222;stroke-width:8;stroke-linecap:butt;stroke-opacity:1"
         d="m 384,188 h 32 c 5.65685,0 12,6.34315 12,12 v 96 c 0,5.65685 -6.34315,12 -12,12 h -32"
         id="path19572"
         sodipodi:nodetypes="cssssc"
         inkscape:label="bluishlightR" /><path
         id="path16628"
         style="fill:#d60000;fill-opacity:1;stroke:#222222;stroke-width:4;stroke-linecap:butt;stroke-dasharray:none;stroke-opacity:1"
         inkscape:label="redlightL"
         d="M 176 270 A 10 14 0 0 0 166 284 A 10 14 0 0 0 176 298 A 10 14 0 0 0 186 284 A 10 14 0 0 0 176 270 z M 200 270 A 10 14 0 0 0 190 284 A 10 14 0 0 0 200 298 A 10 14 0 0 0 210 284 A 10 14 0 0 0 200 270 z " /><path
         id="ellipse21065"
         style="fill:#d60000;fill-opacity:1;stroke:#222222;stroke-width:4;stroke-linecap:butt;stroke-dasharray:none;stroke-opacity:1"
         inkscape:label="redlightR"
         d="M 318 270 A 10 14 0 0 0 308 284 A 10 14 0 0 0 318 298 A 10 14 0 0 0 328 284 A 10 14 0 0 0 318 270 z M 342 270 A 10 14 0 0 0 332 284 A 10 14 0 0 0 342 298 A 10 14 0 0 0 352 284 A 10 14 0 0 0 342 270 z " /></g></g></svg>
