<?xml version="1.0" encoding="UTF-8" standalone="no"?>
<!-- Created with Inkscape (http://www.inkscape.org/) -->

<svg
   width="512px"
   height="512px"
   viewBox="0 0 512 512"
   version="1.1"
   id="SVGRoot"
   sodipodi:docname="Torso Front Lobot.svg"
   xml:space="preserve"
   inkscape:version="1.2.2 (b0a8486541, 2022-12-01)"
   xmlns:inkscape="http://www.inkscape.org/namespaces/inkscape"
   xmlns:sodipodi="http://sodipodi.sourceforge.net/DTD/sodipodi-0.dtd"
   xmlns="http://www.w3.org/2000/svg"
   xmlns:svg="http://www.w3.org/2000/svg"><sodipodi:namedview
     id="namedview1546"
     pagecolor="#ffffff"
     bordercolor="#111111"
     borderopacity="1"
     inkscape:showpageshadow="0"
     inkscape:pageopacity="0"
     inkscape:pagecheckerboard="1"
     inkscape:deskcolor="#d1d1d1"
     inkscape:document-units="px"
     showgrid="false"
     inkscape:zoom="2.9079454"
     inkscape:cx="241.40756"
     inkscape:cy="245.01835"
     inkscape:window-width="1920"
     inkscape:window-height="1039"
     inkscape:window-x="0"
     inkscape:window-y="0"
     inkscape:window-maximized="1"
     inkscape:current-layer="layer1"
     inkscape:pageshadow="2" /><defs
     id="defs1541" /><g
     inkscape:label="Layer 1"
     inkscape:groupmode="layer"
     id="layer1"><rect
       style="display:inline;fill:#a9a8a1;fill-opacity:1;stroke-width:30.1532;stroke-linejoin:round"
       id="rect1685"
       width="512"
       height="512"
       x="0"
       y="0"
       inkscape:label="background" /><path
       style="display:inline;fill:none;fill-opacity:1;stroke:#212221;stroke-width:10;stroke-linecap:square;stroke-linejoin:round;stroke-miterlimit:4;stroke-dasharray:none;stroke-opacity:1"
       d="m 40,418 h 54 l 88,-30 h 150 l 88,24 h 52.90712"
       id="path7610"
       sodipodi:nodetypes="cccccc"
       inkscape:label="overbelt" /><g
       id="g991"
       inkscape:label="sleeves"><path
         style="display:inline;fill:none;fill-opacity:1;stroke:#212221;stroke-width:6;stroke-linecap:round;stroke-linejoin:round;stroke-miterlimit:4;stroke-dasharray:none;stroke-opacity:1"
         d="m 72,186 c 0,0 11.98068,-28.92019 16,-44 8.016606,-30.07695 16,-92 16,-92"
         id="path2468"
         sodipodi:nodetypes="cac"
         inkscape:label="sleeveR" /><path
         style="fill:none;fill-opacity:1;stroke:#212221;stroke-width:6;stroke-linecap:round;stroke-linejoin:round;stroke-miterlimit:4;stroke-dasharray:none;stroke-opacity:1"
         d="m 440,186 c 0,0 -11.98068,-28.92019 -16,-44 -8.01661,-30.07695 -16,-92 -16,-92"
         id="path7622"
         sodipodi:nodetypes="cac"
         inkscape:label="sleeveL" /></g><g
       id="g987"
       inkscape:label="belt"><path
         style="display:inline;fill:#212221;fill-opacity:1;stroke:none;stroke-width:12;stroke-linecap:round;stroke-linejoin:round;stroke-dasharray:none;stroke-opacity:1"
         d="m 26,476 4,-44 h 68 l 86,-30 h 148 l 84,26 h 66 l 4,48 z"
         id="path7628"
         sodipodi:nodetypes="ccccccccc"
         inkscape:label="beltmain" /><g
         id="g318"
         inkscape:label="buckle"><path
           style="fill:none;fill-opacity:1;stroke:#ffffff;stroke-width:8;stroke-linecap:round;stroke-linejoin:miter;stroke-dasharray:none;stroke-opacity:1"
           d="m 188,412 h 140 v 56 H 188 Z"
           id="path7954"
           sodipodi:nodetypes="ccccc"
           inkscape:label="buckleborder" /><circle
           style="fill:#ffffff;fill-opacity:1;stroke:none;stroke-width:6.0908;stroke-linecap:round;stroke-linejoin:round;stroke-dasharray:none;stroke-opacity:1"
           id="path9460"
           cx="200"
           cy="424"
           r="4"
           inkscape:label="bucklecircleNW" /><circle
           style="fill:#ffffff;fill-opacity:1;stroke:none;stroke-width:6.0908;stroke-linecap:round;stroke-linejoin:round;stroke-dasharray:none;stroke-opacity:1"
           id="circle10292"
           cx="200"
           cy="456"
           r="4"
           inkscape:label="bucklecircleSW" /><circle
           style="fill:#ffffff;fill-opacity:1;stroke:none;stroke-width:9.13622;stroke-linecap:round;stroke-linejoin:round;stroke-dasharray:none;stroke-opacity:1"
           id="circle10294"
           cx="276"
           cy="426"
           r="6"
           inkscape:label="bucklecircleNE" /><circle
           style="fill:#ffffff;fill-opacity:1;stroke:none;stroke-width:9.13624;stroke-linecap:round;stroke-linejoin:round;stroke-dasharray:none;stroke-opacity:1"
           id="circle10296"
           cx="276"
           cy="450"
           r="6"
           inkscape:label="bucklecircleSE" /><path
           style="fill:none;fill-opacity:1;stroke:#ffffff;stroke-width:6;stroke-linecap:round;stroke-linejoin:miter;stroke-dasharray:none;stroke-opacity:1;stroke-miterlimit:4"
           d="m 216,430 h 40 v 22 h -40 z"
           id="path11184"
           sodipodi:nodetypes="ccccc"
           inkscape:label="bucklecenter" /><path
           id="path12638"
           style="fill:#ffffff;fill-opacity:1;stroke:none;stroke-width:6.9282;stroke-linecap:round;stroke-linejoin:miter;stroke-dasharray:none;stroke-opacity:1"
           inkscape:label="bucklelines"
           d="M 308 420 L 308 426 L 314 426 L 314 420 L 308 420 z M 286 430 L 286 436 L 314 436 L 314 430 L 286 430 z M 286 454 L 286 460 L 314 460 L 314 454 L 286 454 z " /></g></g><g
       id="g952"
       inkscape:label="frontpocket"><path
         style="fill:none;fill-opacity:1;stroke:#212221;stroke-width:10;stroke-linecap:round;stroke-linejoin:round;stroke-miterlimit:4;stroke-dasharray:none;stroke-opacity:1"
         d="m 166,56 c 0,0 7.73022,10.134537 10,16 10.75978,27.804963 12.302,58.41599 16,88 2.4037,19.22961 2.64297,38.66832 4,58 0.65523,9.33414 1.26134,18.67209 2,28 1.21499,15.34316 3.33271,30.62328 4,46 1.35847,31.30387 0,94 0,94"
         id="path4702"
         sodipodi:nodetypes="caaaaac"
         inkscape:label="frontpocketR" /><path
         style="fill:none;fill-opacity:1;stroke:#212221;stroke-width:10;stroke-linecap:round;stroke-linejoin:round;stroke-miterlimit:4;stroke-dasharray:none;stroke-opacity:1"
         d="m 346,56 c 0,0 -7.84194,10.092519 -10,16 -16.17535,44.27844 -15.1926,93.10532 -20,140 -1.08991,10.63176 -1.6665,21.31772 -2,32 -0.7073,22.65563 0.30622,45.3354 0,68 -0.33336,24.67342 -2,74 -2,74"
         id="path7624"
         sodipodi:nodetypes="caaaac"
         inkscape:label="frontpocketL" /></g><g
       id="g962"
       inkscape:label="sidepocketR"><path
         style="fill:none;fill-opacity:1;stroke:#212221;stroke-width:6;stroke-linecap:round;stroke-linejoin:round;stroke-miterlimit:4;stroke-dasharray:none;stroke-opacity:1"
         d="M 196,218 H 66 l -4,50"
         id="path12035"
         sodipodi:nodetypes="ccc"
         inkscape:label="sidepockettopR" /><path
         style="fill:none;stroke:#212221;stroke-width:6;stroke-linecap:round;stroke-linejoin:miter;stroke-miterlimit:4;stroke-dasharray:none;stroke-opacity:1"
         d="m 68,274 c 0,0 -7.146618,1.27878 -9.274,-0.98818 C 54.842058,268.87306 58,256 58,256 Z"
         id="path12037"
         sodipodi:nodetypes="cacc"
         inkscape:label="sidepocketcreaseR" /><path
         style="fill:none;stroke:#212221;stroke-width:10;stroke-linecap:round;stroke-linejoin:miter;stroke-miterlimit:4;stroke-dasharray:none;stroke-opacity:1"
         d="m 62,270 c 0,0 44.96554,-13.61921 68,-18 22.42111,-4.26414 68,-8 68,-8"
         id="path12039"
         sodipodi:nodetypes="cac"
         inkscape:label="sidepocketbottomR" /></g><g
       id="g967"
       inkscape:label="sidepocketL"><path
         style="fill:none;fill-opacity:1;stroke:#212221;stroke-width:6;stroke-linecap:round;stroke-linejoin:round;stroke-miterlimit:4;stroke-dasharray:none;stroke-opacity:1"
         d="m 316,212 h 132 l 2,56"
         id="path7626"
         sodipodi:nodetypes="ccc"
         inkscape:label="sidepockettopL" /><path
         style="fill:none;stroke:#212221;stroke-width:6;stroke-linecap:round;stroke-linejoin:miter;stroke-miterlimit:4;stroke-dasharray:none;stroke-opacity:1"
         d="m 444,272 c 0,0 7.14662,1.27878 9.274,-0.98818 C 457.15794,266.87306 454,254 454,254 Z"
         id="path7698"
         sodipodi:nodetypes="cacc"
         inkscape:label="sidepocketcreaseL" /><path
         style="fill:none;stroke:#212221;stroke-width:10;stroke-linecap:round;stroke-linejoin:miter;stroke-miterlimit:4;stroke-dasharray:none;stroke-opacity:1"
         d="m 450,268 c 0,0 -49.12983,-11.71471 -74,-16 -20.53539,-3.53838 -62,-8 -62,-8"
         id="path9583"
         sodipodi:nodetypes="cac"
         inkscape:label="sidepocketbottomL" /></g></g></svg>
