<?xml version="1.0" encoding="UTF-8" standalone="no"?>
<!-- Created with Inkscape (http://www.inkscape.org/) -->

<svg
   width="512"
   height="384"
   viewBox="0 0 135.46666 101.6"
   version="1.1"
   id="svg5"
   inkscape:version="1.3.2 (091e20ef0f, 2023-11-25)"
   sodipodi:docname="Legs Front Han Solo.svg"
   xmlns:inkscape="http://www.inkscape.org/namespaces/inkscape"
   xmlns:sodipodi="http://sodipodi.sourceforge.net/DTD/sodipodi-0.dtd"
   xmlns="http://www.w3.org/2000/svg"
   xmlns:svg="http://www.w3.org/2000/svg">
  <sodipodi:namedview
     id="namedview7"
     pagecolor="#ffffff"
     bordercolor="#666666"
     borderopacity="1.0"
     inkscape:pageshadow="2"
     inkscape:pageopacity="0.0"
     inkscape:pagecheckerboard="0"
     inkscape:document-units="px"
     showgrid="false"
     units="px"
     width="512px"
     inkscape:zoom="5.6568545"
     inkscape:cx="178.83955"
     inkscape:cy="70.749039"
     inkscape:window-width="1920"
     inkscape:window-height="992"
     inkscape:window-x="1920"
     inkscape:window-y="0"
     inkscape:window-maximized="1"
     inkscape:current-layer="layer1"
     inkscape:rotation="-1"
     inkscape:showpageshadow="2"
     inkscape:deskcolor="#d1d1d1" />
  <defs
     id="defs2" />
  <g
     inkscape:label="Layer 1"
     inkscape:groupmode="layer"
     id="layer1">
    <rect
       style="display:inline;fill:#004567;fill-opacity:1;stroke-width:1.02177;stroke-linecap:round;stroke-linejoin:round"
       id="rect858"
       width="135.46666"
       height="101.6"
       x="0"
       y="0" />
    <path
       style="display:inline;fill:#212221;fill-opacity:1;stroke:#212221;stroke-width:0.264583;stroke-linecap:butt;stroke-linejoin:round;stroke-miterlimit:4;stroke-dasharray:none;stroke-opacity:1"
       d="m 7.4083332,48.683332 c 0,0 -0.7420344,0.67251 -1.0583334,1.058333 -0.6048057,0.737744 -1.5874999,2.38125 -1.5874999,2.38125 -0.3346744,0.111559 -0.7236589,0.111559 -1.0583333,0 C 3.2858236,51.983468 2.914071,51.679173 2.6458333,51.329165 L 3.4395832,21.166666 c 0.00938,-0.440872 0.3572101,-0.99597 0.79375,-1.058333 0,0 2.503232,-0.192406 3.7041666,-0.529167 3.8803382,-1.088109 7.5050162,-2.966096 11.1125002,-4.7625 3.818977,-1.90172 11.112499,-6.3499995 11.112499,-6.3499995 0,0 -0.220153,-0.6974228 -0.264583,-1.0583333 -0.0431,-0.3501346 0,-1.0583334 0,-1.0583334 l 4.497916,-3.1749999 h 23.8125 c 0.688821,0 1.440389,0.9087702 1.322917,1.5875 l -2.38125,13.7583331 -12.7,5.820833 -3.704167,-3.175 -25.399999,10.583333 c 0,0 -3.506063,5.02842 -4.233333,7.9375 -0.08556,0.342245 -0.309109,0.888323 0,1.058333 0,0 13.992392,7.985252 21.166666,11.641667 2.95268,1.504853 5.884324,3.092538 8.995833,4.233333 4.459157,1.634892 9.04992,3.08143 13.758333,3.704167 2.098393,0.277535 6.35,0 6.35,0 2.822222,0 2.822222,8.466666 0,8.466666 0,0 -5.318259,0.374177 -7.9375,0 -4.365402,-0.623629 -8.559155,-2.187903 -12.7,-3.704167 C 34.220618,62.698143 27.914194,59.722351 21.695833,56.620832 16.8205,54.189173 7.4083332,48.683332 7.4083332,48.683332 Z"
       id="path1024"
       sodipodi:nodetypes="cacaccsaacaccssccccasaaassaaac" />
    <path
       style="display:inline;fill:#b55900;fill-opacity:1;stroke:#b55900;stroke-width:0.529167;stroke-linecap:round;stroke-linejoin:round;stroke-miterlimit:4;stroke-dasharray:none;stroke-opacity:1"
       d="M 41.274999,18.25625 36.247916,9.7895831 7.8052081,22.489583 c 0,0 -0.2579499,1.497309 -0.6614583,2.116666 -0.5117627,0.785521 -2.1166666,1.852084 -2.1166666,1.852084 v 17.197916 c 0,0.264584 0.6561807,0.226007 0.79375,0 0,0 1.3732303,-1.907821 1.9843749,-2.910417 0.6264681,-1.027734 1.1806902,-2.098863 1.7197917,-3.175 C 10.656173,35.31282 11.255493,32.763277 12.7,30.691666 c 0.356696,-0.511548 0.745451,-1.087445 1.322916,-1.322917 z"
       id="path6634"
       sodipodi:nodetypes="cccacssaaasc" />
    <path
       style="fill:#c2c1c2;fill-opacity:1;stroke:#c8c8c8;stroke-width:0.529167;stroke-linecap:butt;stroke-linejoin:round;stroke-miterlimit:4;stroke-dasharray:none;stroke-opacity:1"
       d="m 34.395832,5.2916665 h 5.55625 c 0.842477,0 1.403012,1.0069796 1.852084,1.7197917 l 8.334374,13.2291668 -4.894791,2.248958 c -0.240421,0.110464 -0.606661,0.187089 -0.79375,0 L 42.730207,20.769791 44.449999,19.579166 37.306249,7.9374998 C 37.132948,7.6708835 36.830489,7.4083332 36.512499,7.4083332 h -1.058333 c 0,0 -0.874037,-0.9788093 -1.058334,-1.5875 -0.05111,-0.1688204 -0.176389,-0.5291667 0,-0.5291667 z"
       id="path16816"
       sodipodi:nodetypes="ssscsscccscas" />
    <path
       style="fill:#c2c1c2;fill-opacity:1;stroke:#c8c8c8;stroke-width:0.529167;stroke-linecap:butt;stroke-linejoin:round;stroke-miterlimit:4;stroke-dasharray:none;stroke-opacity:1"
       d="m 42.994791,5.8208332 c 0.122315,-0.2544919 0.379098,-0.5291667 0.661458,-0.5291667 h 10.847916 c 0.31799,0 0.797447,0.2111986 0.79375,0.5291667 L 55.165624,17.197916 c -0.0036,0.311793 -0.408501,0.479137 -0.661458,0.661459 -0.239977,0.172965 -0.497937,0.396875 -0.793751,0.396875 H 50.667707 L 42.994791,6.3358475 c -0.09292,-0.1443523 -0.07437,-0.3602863 0,-0.5150143 z"
       id="path22825"
       sodipodi:nodetypes="assssascsa" />
    <path
       style="display:inline;fill:#b55900;fill-opacity:1;stroke:#b55900;stroke-width:0.529167;stroke-linecap:butt;stroke-linejoin:round;stroke-miterlimit:4;stroke-dasharray:none;stroke-opacity:1"
       d="m 8.9958331,42.068749 -1.8520833,3.96875 c 0,0 0.6536021,0.766619 1.0583333,1.058333 2.5597449,1.84496 8.4666669,4.233333 8.4666669,4.233333 0.23665,0.118326 0.554146,0.112225 0.79375,0 1.247577,-0.584334 2.176849,-1.879643 2.645833,-3.175 0.04504,-0.12439 0.119831,-0.340825 0,-0.396875 0,0 -5.556327,-2.383785 -8.202083,-3.836458 -1.007975,-0.553436 -2.9104169,-1.852083 -2.9104169,-1.852083 z"
       id="path26848"
       sodipodi:nodetypes="ccasaasac" />
    <path
       style="display:inline;fill:#b55900;fill-opacity:1;stroke:#b55900;stroke-width:0.529167;stroke-linecap:butt;stroke-linejoin:round;stroke-miterlimit:4;stroke-dasharray:none;stroke-opacity:1"
       d="m 19.446875,52.255207 c -0.112483,-0.06963 -0.04183,-0.271372 0,-0.396875 0.06972,-0.209172 0.243971,-0.370313 0.396875,-0.529167 0.582413,-0.605074 1.164933,-1.306768 1.956457,-1.5875 0.133452,-0.04733 0.29965,-0.06625 0.424792,0 0,0 5.934668,3.299254 8.995834,4.7625 2.423985,1.158672 4.909483,2.188098 7.408333,3.175 2.529959,0.999188 5.074469,1.973674 7.672916,2.778125 2.523616,0.781284 5.056863,1.616536 7.672917,1.984375 1.659946,0.233402 5.027083,0.132292 5.027083,0.132292 1.102049,0.029 1.10243,3.307291 0,3.307291 h -1.322917 c -1.237868,0 -2.480839,-0.07541 -3.704166,-0.264583 -4.481674,-0.693053 -8.942104,-1.696213 -13.229167,-3.175 -6.417068,-2.213515 -12.536398,-5.26277 -18.520833,-8.466666 -0.960175,-0.51405 -2.778124,-1.719792 -2.778124,-1.719792 z"
       id="path32087"
       sodipodi:nodetypes="saaasaaaasssaaas" />
    <ellipse
       style="fill:#c2c1c2;fill-opacity:1;stroke:#212221;stroke-width:1.5875;stroke-linecap:round;stroke-linejoin:round;stroke-miterlimit:4;stroke-dasharray:none;stroke-opacity:1"
       id="path43629"
       cx="24.606251"
       cy="19.84375"
       rx="3.4395833"
       ry="3.175" />
    <ellipse
       style="fill:#c2c1c2;fill-opacity:1;stroke:#212221;stroke-width:1.5875;stroke-linecap:round;stroke-linejoin:round;stroke-miterlimit:4;stroke-dasharray:none;stroke-opacity:1"
       id="ellipse44049"
       cx="33.866665"
       cy="15.875001"
       rx="3.4395833"
       ry="2.9104166" />
    <ellipse
       style="fill:#c2c1c2;fill-opacity:1;stroke:#212221;stroke-width:1.50603;stroke-linecap:round;stroke-linejoin:round;stroke-miterlimit:4;stroke-dasharray:none;stroke-opacity:1"
       id="ellipse44286"
       cx="13.758333"
       cy="47.360416"
       rx="2.9104166"
       ry="2.3812499" />
  </g>
</svg>
