<?xml version="1.0" encoding="UTF-8" standalone="no"?>
<!-- Created with Inkscape (http://www.inkscape.org/) -->

<svg
   width="512px"
   height="512px"
   viewBox="0 0 512 512"
   version="1.1"
   id="SVGRoot"
   sodipodi:docname="Torso Front Han Solo.svg"
   inkscape:version="1.1.2 (0a00cf5339, 2022-02-04)"
   xmlns:inkscape="http://www.inkscape.org/namespaces/inkscape"
   xmlns:sodipodi="http://sodipodi.sourceforge.net/DTD/sodipodi-0.dtd"
   xmlns="http://www.w3.org/2000/svg"
   xmlns:svg="http://www.w3.org/2000/svg">
  <sodipodi:namedview
     id="namedview1304"
     pagecolor="#ffffff"
     bordercolor="#666666"
     borderopacity="1.0"
     inkscape:pageshadow="2"
     inkscape:pageopacity="0.0"
     inkscape:pagecheckerboard="0"
     inkscape:document-units="px"
     showgrid="false"
     inkscape:zoom="1.4142136"
     inkscape:cx="241.12341"
     inkscape:cy="241.47696"
     inkscape:window-width="1920"
     inkscape:window-height="980"
     inkscape:window-x="1920"
     inkscape:window-y="0"
     inkscape:window-maximized="1"
     inkscape:current-layer="layer1"
     showguides="false" />
  <defs
     id="defs1299" />
  <g
     inkscape:label="Layer 1"
     inkscape:groupmode="layer"
     id="layer1">
    <rect
       style="display:inline;fill:#212321;fill-opacity:1;stroke-width:66.2453;stroke-linecap:round;stroke-linejoin:round"
       id="rect1423"
       width="512"
       height="512"
       x="0"
       y="0" />
    <path
       style="fill:#d6ba84;fill-opacity:1;stroke:#212321;stroke-width:3.62285;stroke-linecap:butt;stroke-linejoin:round;stroke-miterlimit:4;stroke-dasharray:none;stroke-opacity:1"
       d="m 210.25,105.375 c 0,0 -0.58677,4.20919 -2.25,4.625 0,0 -16.266,3.13901 -24,6 -4.19435,1.55159 -8,4 -12,6 -2.66667,1.33333 -5.39962,2.54161 -8,4 -5.48552,3.07647 -16,10 -16,10 -1.26412,0.79008 -2.16462,-2.51841 -2,-4 0,0 1.03916,-12.04003 2,-18 3.57944,-22.202824 6.57779,-44.770573 14,-66 0.49198,-1.407188 2,-4 2,-4 0.66667,-1.333332 2.50929,-2 4,-2 h 14"
       id="path6269"
       sodipodi:nodetypes="csaaassaassc" />
    <path
       style="fill:#d6ba84;fill-opacity:1;stroke:#212321;stroke-width:6;stroke-linecap:butt;stroke-linejoin:round;stroke-miterlimit:4;stroke-dasharray:none;stroke-opacity:1"
       d="m 332,42 c 0,0 4.40497,-1.911883 6.75,-2 3.15236,-0.118454 8.51933,-1.068797 9.25,2 0,0 7.53404,27.821491 10,42 1.03443,5.947638 1.66616,11.972314 2,18 0.18433,3.32823 1.27561,6.9204 0,10 -0.72159,1.74208 -2.25792,3.27841 -4,4 -3.0796,1.27561 -6.70482,0.50288 -10,0 -5.52373,-0.84298 -10.53932,-3.81542 -16,-5 -5.25267,-1.13946 -10.63493,-2.32397 -16,-2 -2.74374,0.16568 -5.32047,2.61294 -8,2 -2.53786,-0.58053 -6,-5 -6,-5"
       id="path13688"
       sodipodi:nodetypes="casaaaaaaaac" />
    <path
       style="display:inline;fill:#d6ba84;fill-opacity:1;stroke:#212321;stroke-width:3.62285;stroke-linecap:butt;stroke-linejoin:round;stroke-miterlimit:4;stroke-dasharray:none;stroke-opacity:1"
       d="m 192,122 24,-4 8,14 24,136 32,-130 10,-16 c 0,0 12.94934,-6.64217 20,-8 4.58246,-0.8825 14,0 14,0 0,0 -4.72504,13.61015 -8,20 -3.96462,7.73546 -8.56101,15.21967 -14,22 -3.53965,4.41258 -12,12 -12,12 l 32,286 c 0,0 18.71861,0.98327 28,0 9.4921,-1.0056 18.88945,-3.15238 28,-6 8.27201,-2.58552 16.18511,-6.25319 24,-10 7.53233,-3.61134 14.78837,-7.78453 22,-12 10.85947,-6.34777 32,-20 32,-20 0,0 2.97701,6.55872 4,10 1.93727,6.51684 3.33007,13.23439 4,20 0.45984,4.64396 0.45984,9.35604 0,14 -0.66993,6.76561 -2.25499,13.42907 -4,20 -0.5411,2.03756 -2,6 -2,6 l -402.875,2 c 0,0 -2.421212,-5.22496 -3.125,-8 -1.321301,-5.2099 -1.666021,-10.63555 -2,-16 -0.289975,-4.65765 -0.330815,-9.34507 0,-14 0.334174,-4.70219 0.42278,-9.55764 2,-14 1.300609,-3.66327 6,-10 6,-10 0,0 11.843144,8.24592 18,12 5.860288,3.57325 11.827968,6.99715 18,10 12.35861,6.01279 24.82701,12.08066 38,16 7.14406,2.12556 14.61351,3.00233 22,4 7.46182,1.00785 22.5,2 22.5,2 L 212,168 c 0,0 -7.00693,-11.2142 -10,-17.1 -3.77557,-7.42455 -8.29738,-14.74647 -10,-22.9 -0.40882,-1.95777 0,-6 0,-6 z"
       id="path16279"
       sodipodi:nodetypes="ccccccacaaccaaaacaaaaccaaaacaaaaccaac" />
    <path
       style="fill:#ffc99c;fill-opacity:1;stroke:#212321;stroke-width:8;stroke-linecap:butt;stroke-linejoin:round;stroke-miterlimit:4;stroke-dasharray:none;stroke-opacity:1"
       d="m 184,42 c 0,0 16.65039,41.633189 26,62 4.35349,9.48346 14,28 14,28 l 24,136 32,-130 c 0,0 13.61018,-21.16522 20,-32 3.48671,-5.91219 6.85117,-11.901151 10,-18 7.79746,-15.102597 22,-46 22,-46 z"
       id="path1556"
       sodipodi:nodetypes="cacccaacc" />
  </g>
</svg>
