<?xml version="1.0" encoding="UTF-8" standalone="no"?>
<!-- Created with Inkscape (http://www.inkscape.org/) -->

<svg
   width="256px"
   height="256px"
   viewBox="0 0 256 256"
   version="1.1"
   id="SVGRoot"
   sodipodi:docname="Head Back Zam Wesell.svg"
   xml:space="preserve"
   inkscape:version="1.2.2 (b0a8486541, 2022-12-01)"
   xmlns:inkscape="http://www.inkscape.org/namespaces/inkscape"
   xmlns:sodipodi="http://sodipodi.sourceforge.net/DTD/sodipodi-0.dtd"
   xmlns="http://www.w3.org/2000/svg"
   xmlns:svg="http://www.w3.org/2000/svg"><sodipodi:namedview
     id="namedview27066"
     pagecolor="#ffffff"
     bordercolor="#000000"
     borderopacity="0.25"
     inkscape:showpageshadow="2"
     inkscape:pageopacity="0.0"
     inkscape:pagecheckerboard="0"
     inkscape:deskcolor="#d1d1d1"
     inkscape:document-units="px"
     showgrid="false"
     inkscape:zoom="3.4406212"
     inkscape:cx="67.429683"
     inkscape:cy="156.51243"
     inkscape:window-width="1920"
     inkscape:window-height="1039"
     inkscape:window-x="0"
     inkscape:window-y="0"
     inkscape:window-maximized="1"
     inkscape:current-layer="layer1"
     inkscape:pageshadow="2" /><defs
     id="defs27061" /><g
     inkscape:label="Layer 1"
     inkscape:groupmode="layer"
     id="layer1"><rect
       style="display:inline;fill:#ffc99c;fill-opacity:1;stroke-width:25.1935;stroke-linejoin:round"
       id="rect27205"
       width="256"
       height="256"
       x="0"
       y="0"
       inkscape:label="background" /><path
       style="display:inline;fill:#947552;stroke-width:4;stroke-linejoin:round;fill-opacity:1"
       d="m 12,66 c 0,-4.714045 5.286024,-10.025611 10,-10 l 213.39264,1.159369 C 239.50548,57.181714 244,61.887102 244,66 v 142 c 0,3.77124 -4.22876,8 -8,8 H 20 c -3.771236,0 -8,-4.22876 -8,-8 z"
       id="path27270"
       sodipodi:nodetypes="sssssssss"
       inkscape:label="face" /><g
       id="EyeR"
       style="display:inline"><path
         style="fill:#212221;stroke:none;stroke-width:4;stroke-linejoin:round;stroke-dasharray:none;stroke-opacity:1"
         d="m 80,86 c -0.894427,-0.298142 1.128958,-1.639203 2,-2 0.61592,-0.255122 1.361939,-0.193189 2,0 2.300563,0.696554 4.409225,2.197998 6,4 2.959671,3.352663 6,12 6,12 h -6 c 0,0 -1.018576,-9.018576 -4,-12 -1.490712,-1.490712 -6,-2 -6,-2 z"
         id="path28506"
         sodipodi:nodetypes="saaaccas"
         inkscape:label="browR" /><path
         style="display:inline;fill:#ffffff;stroke:#212221;stroke-width:4;stroke-linejoin:round;stroke-dasharray:none;stroke-opacity:1"
         d="m 46,128 c -0.651424,-5.65863 3.185821,-11.04774 6,-16 2.109028,-3.71136 4.93476,-7.02905 8,-10 2.39355,-2.31992 4.95698,-4.639434 8,-6 3.103284,-1.38751 6.617197,-1.665037 10,-2 2.653689,-0.262767 5.447755,-0.772758 8,0 2.300563,0.696554 4.300327,2.300327 6,4 l 18,18 v 12 c 0,0 -14.848979,12.57291 -24,14 -12.145919,1.89414 -36,-8 -36,-8 -2.346463,-0.52144 -3.7251,-3.61207 -4,-6 z"
         id="path27272"
         sodipodi:nodetypes="aaaaaasccasa"
         inkscape:label="scleraR" /><path
         style="fill:#212221;stroke-width:4;stroke-linejoin:round"
         d="m 82,142 v -20 c 0,-1.88562 2.152891,-4.37913 4,-4 3.516792,0.72185 3.321083,6.47467 4,10 0.882502,4.58246 0,14 0,14 z"
         id="path27639"
         sodipodi:nodetypes="csaacc"
         inkscape:label="pupilR" /></g><g
       id="g881"
       inkscape:label="EyeL"
       style="display:inline"><path
         style="fill:#212221;stroke:none;stroke-width:4;stroke-linejoin:round;stroke-dasharray:none;stroke-opacity:1"
         d="m 162,100 c -1.06667,0.8 -0.51024,-2.768161 0,-4 0.72159,-1.742084 2.89746,-2.470307 4,-4 0.87163,-1.209328 0.94591,-2.945907 2,-4 1.05409,-1.054093 2.54917,-1.657505 4,-2 0.64883,-0.153169 1.74488,-0.61592 2,0 0.72159,1.742084 -3.27841,2.257916 -4,4 -0.51024,1.231839 1.06667,3.200001 0,4 z"
         id="path28571"
         sodipodi:nodetypes="saaaaaass"
         inkscape:label="browL" /><path
         style="display:inline;fill:#ffffff;stroke:#222122;stroke-width:4;stroke-linejoin:round;stroke-opacity:1"
         d="m 212,128 c 0.65142,-5.65863 -3.18582,-11.04774 -6,-16 -2.10903,-3.71136 -4.93476,-7.02905 -8,-10 -2.39355,-2.31992 -4.95698,-4.639434 -8,-6 -3.10328,-1.38751 -6.6172,-1.665037 -10,-2 -2.65369,-0.262767 -5.44775,-0.772758 -8,0 -2.30056,0.696554 -4.30033,2.300328 -6,4 l -18,18 v 12 c 0,0 3.71224,3.14323 8.56837,6.46484 4.85612,3.32161 10.85612,6.82161 15.43163,7.53516 6.07296,0.94707 15.07296,-1.05293 22.55472,-3.2897 C 202.03648,136.47354 208,134 208,134 c 2.34646,-0.52144 3.7251,-3.61207 4,-6 z"
         id="path27641"
         sodipodi:nodetypes="aaaaaasccssssa"
         inkscape:label="scleraL" /><path
         style="fill:#212221;stroke-width:4;stroke-linejoin:round"
         d="m 176,142 v -20 c 0,-1.88562 -2.15289,-4.37913 -4,-4 -3.51679,0.72185 -4,6.40989 -4,10 v 14 z"
         id="path27643"
         sodipodi:nodetypes="csascc"
         inkscape:label="pupilL" /></g><g
       id="g572"
       inkscape:label="forehead"><path
         style="fill:#212221;stroke:none;stroke-width:4;stroke-linejoin:round;stroke-dasharray:none;stroke-opacity:1"
         d="m 34,130 c 1.054093,-1.05409 -1.401054,-2.6349 -2,-4 -2.214169,-5.04645 -5.655184,-9.94704 -5.87474,-15.45349 -0.24988,-6.26697 2.053279,-12.676863 5.264581,-18.064338 C 33.935352,88.211669 38.072092,85.047681 42,82 c 3.071236,-2.382986 6.63381,-4.05581 10,-6 5.943635,-3.432829 11.583234,-7.563562 18,-10 5.746094,-2.181785 11.986157,-2.730561 18,-4 3.326054,-0.702084 6.68347,-1.254224 10,-2 5.36354,-1.20608 11.2161,-1.291401 16,-4 0.82043,-0.464521 2.93553,-2.116941 2,-2 l -16,2 c -12.071582,1.508948 -24.193209,3.067476 -36,6 -2.046019,0.508182 -4.084687,1.11908 -6,2 -3.531663,1.624335 -6.684984,3.969783 -10,6 -5.363412,3.284717 -11.593387,5.512538 -16,10 -2.723638,2.773609 -4.375665,6.468337 -6,10 -1.761839,3.830627 -3.324612,7.838074 -4,12 -0.533941,3.29029 -0.533941,6.70971 0,10 0.337694,2.08096 1.193232,4.05229 2,6 0.570471,1.37724 1.251772,2.71067 2,4 1.206482,2.07899 2.197998,4.40922 4,6 1.117554,0.98656 2.945907,3.05409 4,2 z"
         id="path28581"
         sodipodi:nodetypes="aaaaaaaaaassaaaaaaaaaaa"
         inkscape:label="foreheadR" /><path
         style="fill:#212221;stroke:none;stroke-width:4;stroke-linejoin:round;stroke-dasharray:none;stroke-opacity:1"
         d="m 224,130 c -1.05409,-1.05409 1.40105,-2.6349 2,-4 2.21417,-5.04645 5.65518,-9.94704 5.87474,-15.45349 0.24988,-6.26697 -2.05328,-12.676863 -5.26458,-18.064338 C 224.06465,88.211668 219.92791,85.047681 216,82 c -3.07124,-2.382986 -6.63381,-4.05581 -10,-6 -5.94363,-3.432829 -11.58323,-7.563562 -18,-10 -5.74609,-2.181785 -11.98616,-2.730561 -18,-4 -3.32605,-0.702084 -6.68347,-1.254224 -10,-2 -8.04531,-1.80912 -16.82415,-1.937101 -24,-6 -0.82043,-0.464521 -2.92998,-2.154997 -2,-2 l 24,4 c 12,2 24.19321,3.067476 36,6 2.04602,0.508182 4.08469,1.11908 6,2 3.53166,1.624335 6.68498,3.969783 10,6 5.36341,3.284717 11.59339,5.512538 16,10 2.72364,2.773609 4.37566,6.468337 6,10 1.76184,3.830627 3.32461,7.838074 4,12 0.53394,3.29029 0.53394,6.70971 0,10 -0.33769,2.08096 -1.19323,4.05229 -2,6 -0.57047,1.37724 -1.25177,2.71067 -2,4 -1.20648,2.07899 -2.198,4.40922 -4,6 -1.11755,0.98656 -2.94591,3.05409 -4,2 z"
         id="path28583"
         sodipodi:nodetypes="aaaaaaaaaassaaaaaaaaaaa"
         inkscape:label="foreheadL" /></g><path
       style="fill:#212221;stroke:none;stroke-width:4;stroke-linejoin:round;stroke-dasharray:none;stroke-opacity:1"
       d="m 92,190 14,-2 h 48 l 6,2 c 1.26491,0.42164 3.29903,1.1342 4,0 0.78371,-1.26808 -0.83718,-3.06722 -2,-4 -6.43239,-5.15988 -15.81557,-4.99245 -24,-6 -7.27839,-0.89601 -14.69165,-0.60486 -22,0 -4.04136,0.33447 -8.27271,0.40259 -12,2 l -14,6 c -0.866578,0.37139 1.066667,2.13333 2,2 z"
       id="path27645"
       sodipodi:nodetypes="sccsaaaasss"
       inkscape:label="mouth" /><path
       style="fill:#212221;stroke:none;stroke-width:4;stroke-linejoin:round;stroke-dasharray:none;stroke-opacity:1"
       d="m 108,192 h 6 c 2.74874,0 5.25126,2 8,2 h 22 c 3.59011,0 -6.47467,3.32108 -10,4 -4.58246,0.8825 -9.41754,0.8825 -14,0 -3.52533,-0.67892 -7.00283,-2.02368 -10,-4 -0.7871,-0.51901 -2.94281,-2 -2,-2 z"
       id="path28436"
       sodipodi:nodetypes="ssssaaas"
       inkscape:label="chindimple" /><g
       id="g563"
       inkscape:label="nose"><path
         id="path28508"
         style="fill:#212221;stroke:none;stroke-width:4;stroke-linejoin:round;stroke-dasharray:none;stroke-opacity:1"
         d="M 106.58398 107.85352 C 104.24995 107.8246 101.04986 108.57478 102 110 L 108 119 L 108 131 L 108 134 C 108 135.9371 106.57111 137.61919 105.57617 139.28125 C 104.56257 140.97448 103.04163 142.32387 102 144 C 101.21316 145.26614 100.4714 146.58579 100 148 L 98 154 C 97.701857 154.89443 99.128959 155.6392 100 156 C 100.61592 156.25512 101.5286 156.4714 102 156 C 103.41421 154.58579 101.36754 151.89737 102 150 C 103.05409 146.83772 106.24756 144.8355 108 142 C 108.78371 140.73192 109.70765 139.46176 110 138 L 112 128 L 112 122.0293 C 113.64775 120.16838 115.26603 114.64987 116 112 C 116.17796 111.35752 116.4714 110.4714 116 110 C 115.5286 109.5286 114.29814 109.40372 114 110 L 112 114 C 112 114 112.4714 112.4714 112 112 C 111.5286 111.5286 110 112 110 112 L 110 110 C 110 109.05719 108.91759 108.21661 108 108 C 107.61529 107.90918 107.12261 107.86019 106.58398 107.85352 z "
         inkscape:label="noseR" /><path
         style="fill:#212221;stroke:none;stroke-width:4;stroke-linejoin:round;stroke-dasharray:none;stroke-opacity:1"
         d="m 154,110 c 0.0599,-0.66397 0.52547,-1.58973 0,-2 -2.16657,-1.69161 -8,-0.74874 -8,2 v 4 l -4,-4 c -0.4714,-0.4714 -1.5286,-0.4714 -2,0 -0.4714,0.4714 -0.0815,1.33833 0,2 0.6717,5.45628 2.66667,10.66667 4,16 0.66667,2.66667 1.04634,5.422 2,8 1.03439,2.79623 1.89181,5.89181 4,8 2.10819,2.10819 9.77463,6.39574 8,4 0,0 -6.01561,-6.19598 -7.5,-10.125 -0.69462,-1.83857 -0.59327,-3.9118 -0.5,-5.875 0.35373,-7.44516 3.33063,-14.57656 4,-22 z"
         id="path28515"
         sodipodi:nodetypes="aascsaaaaasaaa"
         inkscape:label="noseL" /><path
         id="path28518"
         style="fill:#212221;stroke:none;stroke-width:4;stroke-linejoin:round;stroke-dasharray:none;stroke-opacity:1"
         d="M 128 78 C 125.89181 78 126 81.891817 126 84 L 126 158 C 126 159.49071 124 162 124 162 L 132 162 C 132 162 130 159.49071 130 158 L 130 84 C 130 81.891817 130.10819 78 128 78 z M 116.2793 149.04688 C 115.31132 149.01675 114.46001 149.25568 114 150 C 113.21629 151.26808 116.4714 152.58579 116 154 C 115.5286 155.41421 113.20933 155.12837 112 156 C 110.47031 157.10254 109.33333 158.66667 108 160 L 104 164 C 104 164 106.66667 162.66667 108 162 C 110.66667 160.66667 113.09833 158.68499 116 158 C 117.29767 157.69366 118.8658 158.70097 120 158 C 121.26808 157.21629 121.6575 155.45083 122 154 C 122.15317 153.35117 122.25512 152.61592 122 152 C 121.6392 151.12896 120.87104 150.3608 120 150 C 118.96064 149.56948 117.52384 149.0856 116.2793 149.04688 z M 137 149.80859 C 136.65398 149.80859 136.30796 149.87244 136 150 C 135.12896 150.3608 134.3608 151.12896 134 152 C 133.48976 153.23184 133.48976 154.76816 134 156 C 134.3608 156.87104 135.12896 157.6392 136 158 C 137.23184 158.51024 138.80743 157.40372 140 158 L 148 162 C 148.59628 162.29814 148.5547 160.3698 148 160 L 142 156 C 140.75965 155.1731 140.87163 153.20933 140 152 C 139.44873 151.23515 138.87104 150.3608 138 150 C 137.69204 149.87244 137.34602 149.80859 137 149.80859 z "
         inkscape:label="nosemain" /></g><path
       id="path28610"
       style="fill:#212221;stroke:none;stroke-width:4;stroke-linejoin:round;stroke-dasharray:none;stroke-opacity:1"
       d="M 31.074219 141.67969 C 30.696418 141.70797 30.293891 141.84272 30 142 C 27.88072 143.13421 26.585578 145.66872 26 148 C 25.184862 151.2452 26.192141 154.7357 26.960938 157.99219 C 27.602241 160.70863 28.635026 163.35391 29.970703 165.80469 C 30.964329 167.62786 32.220557 169.32492 33.642578 170.83789 C 34.876897 172.15115 36.159128 173.53819 37.742188 174.38672 L 34 180 C 33.173104 181.24035 32.666666 182.66667 32 184 C 31.333334 185.33333 30.342495 186.54917 30 188 C 29.080989 191.893 29.359272 196.05165 30 200 C 30.337694 202.08096 30.891662 204.20667 32 206 C 32.991327 207.604 34.470309 208.89746 36 210 C 37.209327 210.87163 38.945908 210.94591 40 212 L 44 216 C 45.054092 217.05409 49.192569 214.89443 48 214 L 40 208 C 38.491508 206.86863 37.102539 205.52969 36 204 C 35.128366 202.79067 34.342495 201.45083 34 200 C 33.234158 196.75584 33.234158 193.24416 34 190 C 34.342495 188.54917 34.945907 187.05409 36 186 L 46.15625 175.84375 C 47.289013 176.03804 48.420405 176.24121 49.550781 176.44922 L 48 178 C 45.642979 180.35702 43.054092 182.83772 42 186 C 40.524271 190.42719 42 195.33333 42 200 L 42 204 C 42 204.94281 43.128959 205.6392 44 206 C 44.615919 206.25512 45.589725 206.52547 46 206 C 47.691604 203.83343 44.33585 200.72814 44 198 C 43.674178 195.35331 43.387327 192.59533 44 190 C 44.342495 188.54917 45.128366 187.20933 46 186 C 46.551269 185.23515 47.333334 184.66667 48 184 C 49.333332 182.66667 50.114384 180 52 180 C 52.942808 180 54 181.05719 54 182 C 54 182.94281 52.360797 183.12896 52 184 C 50.214146 188.31144 51.429812 193.3683 52 198 C 52.33585 200.72814 53.231488 203.36088 54 206 C 54.589422 208.02411 54.289753 210.76732 56 212 C 56.540827 212.38981 57.384081 211.74488 58 212 C 58.871041 212.3608 59.128959 214.3608 60 214 C 61.847757 213.23463 60.765366 209.84776 60 208 C 59.278406 206.25792 56.772423 205.72015 56 204 C 53.32461 198.04204 52.771218 190.63296 54.849609 184.44141 C 54.974059 184.07067 55.456261 183.90784 55.611328 183.54883 C 56.083088 182.45661 56 181.18975 56 180 L 56 177.63477 C 56.388233 177.706 56.775599 177.78164 57.164062 177.85156 C 57.725448 177.95261 58.296628 178.0165 58.865234 178.0918 L 61.707031 184.95898 C 64.405082 191.47817 62.493799 199.10722 64 206 C 64.450058 208.05959 64.891662 210.20667 66 212 C 66.495664 212.802 67.128959 213.6392 68 214 C 68.615919 214.25512 69.384081 214.25512 70 214 C 70.871041 213.6392 71.639203 212.87104 72 212 C 72.255122 211.38408 72.350487 210.5671 72 210 C 71.216287 208.73192 68.932778 209.16282 68 208 C 66.280042 205.85587 66 202.74873 66 200 L 66 179.18945 C 67.610697 181.43344 71.170343 185.66321 72 188 C 73.577218 192.44236 72.916935 197.41206 74 202 C 74.484362 204.05179 74.891662 206.20667 76 208 C 76.495664 208.802 77.057192 210 78 210 C 78.942808 210 80 208.94281 80 208 C 80 207.05719 78.399898 206.8538 78 206 C 75.181189 199.98173 80.700044 190.3942 77.398438 185.43555 C 77.600149 185.62248 77.80471 185.80734 78 186 C 79.711153 187.68811 81.303447 189.69944 82 192 C 82.579567 193.91418 81.679636 196.02583 82 198 C 82.337694 200.08096 82.99253 202.14812 84 204 C 86.039971 207.74976 88.181918 212.09096 92 214 L 104 220 C 105.19257 220.59628 104.94281 216.94281 104 216 L 96 208 C 94.300329 206.30033 93.056068 204.15928 92 202 C 89.2213 196.31857 89.325013 189.37998 86 184 C 84.513009 181.594 82.406002 179.48699 80 178 C 76.413345 175.78332 72.084452 175.04642 68 174 C 60.779641 172.15017 53.220359 171.84983 46 170 C 43.957774 169.47679 41.793327 169.10834 40 168 C 38.395999 167.00867 37.044314 165.57002 36 164 C 34.050677 161.06939 33.205667 157.53527 32 154.22852 C 31.253119 152.18006 29.987991 150.18034 30 148 C 30.01161 145.89185 33.232677 143.71025 32 142 C 31.805097 141.72959 31.45202 141.65141 31.074219 141.67969 z "
       inkscape:label="CheekR" /><path
       id="path28620"
       style="fill:#212221;stroke:none;stroke-width:4;stroke-linejoin:round;stroke-dasharray:none;stroke-opacity:1"
       d="M 224.91211 135.72852 C 224.57501 135.6675 224.26352 135.73648 224 136 C 221.89181 138.10819 227.31501 141.09833 228 144 C 228.63012 146.66925 228.52944 149.53749 228 152.22852 C 227.32055 155.68201 225.65106 158.89157 224 162 C 222.87244 164.12283 221.91024 166.54097 220 168 C 218.32461 169.27965 216.04916 169.50461 214 170 C 205.4769 172.06047 196.5231 171.93953 188 174 C 183.90169 174.99077 179.58666 175.78332 176 178 C 173.594 179.48699 171.48699 181.594 170 184 C 166.67498 189.37998 166.7787 196.31857 164 202 C 162.94393 204.15928 161.52392 206.14112 160 208 C 157.60908 210.91646 154.20508 212.94061 152 216 C 151.12837 217.20933 149.21629 218.73192 150 220 C 150.70097 221.1342 152.71505 220.35591 154 220 C 157.74625 218.96235 161.07299 216.55807 164 214 C 167.21423 211.19091 169.96003 207.74976 172 204 C 173.00747 202.14812 173.66231 200.08096 174 198 C 174.32036 196.02583 173.42043 193.91418 174 192 C 174.69655 189.69944 176.28885 187.68811 178 186 C 178.62647 185.38197 179.28963 184.79559 179.97852 184.23828 L 178 206 C 177.9146 206.93894 176 207.05719 176 208 C 176 208.94281 177.05719 210 178 210 C 178.94281 210 179.50434 208.802 180 208 C 181.10834 206.20667 181.51564 204.05179 182 202 C 183.08307 197.41206 181.57465 192.04226 184 188 L 189.21484 179.30664 C 189.4753 179.23516 189.73667 179.16692 190 179.10547 L 190 200 C 190 202.74873 189.71996 205.85587 188 208 C 187.06722 209.16282 184.78371 208.73192 184 210 C 183.64951 210.5671 183.74488 211.38408 184 212 C 184.3608 212.87104 185.12896 213.6392 186 214 C 186.61592 214.25512 187.38408 214.25512 188 214 C 188.87104 213.6392 189.50434 212.802 190 212 C 191.10834 210.20667 191.54994 208.05959 192 206 C 193.5062 199.10722 191.59492 191.47817 194.29297 184.95898 L 197.14258 178.07031 C 197.70841 178.00124 198.27616 177.93966 198.83594 177.85156 C 199.88877 177.68587 200.94486 177.53665 202 177.38672 L 202 180 C 202 182.51935 201.45672 185.20819 202.38867 187.54883 C 202.53333 187.91216 203.02873 188.06974 203.15039 188.44141 C 204.76826 193.38399 204.16602 199.27189 202 204 C 201.21466 205.71429 198.72159 206.25792 198 208 C 197.23463 209.84776 196.15224 213.23463 198 214 C 198.87104 214.3608 199.12896 212.3608 200 212 C 200.61592 211.74488 201.45917 212.38981 202 212 C 203.71025 210.76732 203.41058 208.02411 204 206 C 204.76851 203.36088 205.66415 200.72814 206 198 C 206.40728 194.69164 206.53394 191.29029 206 188 C 205.66231 185.91904 203.51564 184.05179 204 182 C 204.21661 181.08241 205.06937 179.84898 206 180 C 207.47146 180.23879 207.12837 182.79067 208 184 C 208.55127 184.76485 209.33333 185.33333 210 186 C 211.33333 187.33333 213.27841 188.25792 214 190 C 215.53073 193.69552 214.91901 198.107 214 202 C 213.31501 204.90167 208.43257 207.46385 210 210 C 210.35049 210.5671 211.38408 210.25512 212 210 C 212.87104 209.6392 213.44873 208.76485 214 208 C 214.87163 206.79067 215.6575 205.45083 216 204 C 217.37852 198.16052 217.89737 191.69209 216 186 C 214.94591 182.83772 212.35702 180.35702 210 178 L 208.50391 176.50391 C 209.68099 176.35114 210.85677 176.19054 212.0332 176.0332 L 222 186 C 223.05409 187.05409 223.6575 188.54917 224 190 C 224.76584 193.24416 224.76584 196.75584 224 200 C 223.6575 201.45083 222.87163 202.79067 222 204 C 220.89746 205.52969 219.4245 206.76454 218 208 C 215.48182 210.18401 209.70065 210.68014 210 214 C 210.13387 215.48469 212.52854 216.23879 214 216 C 215.86127 215.69796 216.47031 213.10254 218 212 C 219.20933 211.12837 220.79067 210.87163 222 210 C 223.52969 208.89746 225.00867 207.604 226 206 C 227.10834 204.20667 227.66231 202.08096 228 200 C 228.64073 196.05165 228.91901 191.893 228 188 C 227.6575 186.54917 226.66667 185.33333 226 184 C 225.33333 182.66667 224.8269 181.24035 224 180 L 220.66992 175.00586 C 221.04871 174.90608 221.42433 174.78998 221.78516 174.62891 C 223.59334 173.82175 225.11251 172.37778 226.35742 170.83789 C 228.01987 168.78151 228.94034 166.21438 230.0293 163.80469 C 231.17872 161.26123 232.64768 158.75573 233.03906 155.99219 C 233.60169 152.01951 233.32761 147.78631 232 144 C 231.20465 141.7317 229.802 139.59078 228 138 C 227.16184 137.26008 225.92341 135.91156 224.91211 135.72852 z "
       inkscape:label="CheekL" /></g></svg>
