<?xml version="1.0" encoding="UTF-8" standalone="no"?>
<!-- Created with Inkscape (http://www.inkscape.org/) -->

<svg
   width="512"
   height="512"
   viewBox="0 0 512 512"
   version="1.1"
   id="svg5"
   inkscape:version="1.1.2 (0a00cf5339, 2022-02-04)"
   sodipodi:docname="Head Front SWAT Officer.svg"
   xmlns:inkscape="http://www.inkscape.org/namespaces/inkscape"
   xmlns:sodipodi="http://sodipodi.sourceforge.net/DTD/sodipodi-0.dtd"
   xmlns="http://www.w3.org/2000/svg"
   xmlns:svg="http://www.w3.org/2000/svg">
  <sodipodi:namedview
     id="namedview7"
     pagecolor="#ffffff"
     bordercolor="#666666"
     borderopacity="1.0"
     inkscape:pageshadow="2"
     inkscape:pageopacity="0.0"
     inkscape:pagecheckerboard="0"
     inkscape:document-units="px"
     showgrid="false"
     inkscape:zoom="1.4142136"
     inkscape:cx="328.80464"
     inkscape:cy="267.28636"
     inkscape:window-width="1920"
     inkscape:window-height="1016"
     inkscape:window-x="0"
     inkscape:window-y="0"
     inkscape:window-maximized="1"
     inkscape:current-layer="layer1" />
  <defs
     id="defs2" />
  <g
     inkscape:label="Layer 1"
     inkscape:groupmode="layer"
     id="layer1"
     style="display:inline">
    <rect
       style="display:inline;fill:#ffc99c;fill-opacity:1;stroke:none;stroke-width:124.63;stroke-linecap:round;stroke-linejoin:round;stroke-miterlimit:4;stroke-dasharray:none;stroke-opacity:1"
       id="rect22467"
       width="512"
       height="512"
       x="0"
       y="0" />
    <path
       style="display:inline;fill:#676763;fill-opacity:1;stroke:none;stroke-width:1px;stroke-linecap:butt;stroke-linejoin:miter;stroke-opacity:1"
       d="m 12,52 h 488 l -2,268 c -0.26592,35.63295 -13.22589,71.71286 -32,102 -12.17238,19.63698 -28.56593,39.37686 -50,48 -98.95848,39.81202 -221.04152,39.81202 -320,0 C 74.565935,461.37686 58.172384,441.63698 46,422 27.225895,391.71286 14.265918,355.63295 14,320 Z"
       id="path902"
       sodipodi:nodetypes="ccsaaaasc" />
    <path
       style="display:inline;fill:#212221;fill-opacity:1;stroke:none;stroke-width:1px;stroke-linecap:butt;stroke-linejoin:miter;stroke-opacity:1"
       d="M 30,290 C 23.209915,210.06596 94,58 94,58 h 324 c 0,0 70.79008,152.06596 64,232 -5.04861,59.43307 -28.11765,126.43234 -76,162 -40.56744,30.13405 -99.46508,22 -150,22 -50.53492,0 -109.43256,8.13405 -150,-22 C 58.117652,416.43234 35.048607,349.43307 30,290 Z"
       id="path22744"
       sodipodi:nodetypes="accaaaaa" />
    <ellipse
       style="display:inline;fill:none;fill-opacity:1;stroke:#676763;stroke-width:12;stroke-linecap:round;stroke-linejoin:round;stroke-miterlimit:4;stroke-dasharray:none;stroke-opacity:1"
       id="path3142"
       cx="160"
       cy="369"
       rx="64"
       ry="75" />
    <path
       style="display:inline;fill:#ffffff;stroke:none;stroke-width:1px;stroke-linecap:butt;stroke-linejoin:miter;stroke-opacity:1"
       d="m 134,230 c 0,0 76.15837,-62.33763 112,-96 24.39915,-22.91562 70,-72 70,-72 l 58,-2 10,6 c 0,0 -60.15399,69.22117 -94,100 -30.58379,27.81224 -98,76 -98,76 l -34,2 z"
       id="path15847"
       sodipodi:nodetypes="cacccaccc" />
    <path
       style="display:inline;fill:#ffffff;stroke:none;stroke-width:1px;stroke-linecap:butt;stroke-linejoin:miter;stroke-opacity:1"
       d="m 260,214 c 0,0 37.21998,-19.50165 54,-32 28.37709,-21.13625 78,-72 78,-72 l 4,40 c 0,0 -34.41642,35.22633 -54,50 -17.43342,13.15161 -56,34 -56,34 z"
       id="path19281"
       sodipodi:nodetypes="caccacc" />
    <path
       style="display:inline;fill:none;fill-opacity:1;stroke:#676763;stroke-width:12;stroke-linecap:round;stroke-linejoin:round;stroke-miterlimit:4;stroke-dasharray:none;stroke-opacity:1"
       d="m 130,58 h 254 c 0,0 25.24151,108.93329 6,158 -4.13043,10.53278 -14.06179,18.59335 -24,24 -8.38473,4.56152 -18.4635,6.40771 -28,6 -25.07247,-1.0719 -51.62725,-7.34637 -72,-22 -4.65565,-3.3487 -10,-14 -10,-14 0,0 -5.31399,10.69391 -10,14 -19.82874,13.98964 -45.78938,18.34624 -70,20 -9.40617,0.64251 -19.56726,0.21637 -28,-4 -10.11929,-5.05964 -19.86957,-13.46722 -24,-24 -19.24151,-49.06671 6,-158 6,-158 z"
       id="path16166"
       sodipodi:nodetypes="ccaaaacaaaac" />
    <path
       style="fill:none;stroke:#676763;stroke-width:12;stroke-linecap:round;stroke-linejoin:round;stroke-miterlimit:4;stroke-dasharray:none;stroke-opacity:1"
       d="m 148,266 c 0,0 -33.68045,-10.1875 -42,-24 C 74.337858,189.43303 100,58 100,58"
       id="path26099"
       sodipodi:nodetypes="cac" />
    <path
       style="fill:none;stroke:#676763;stroke-width:12;stroke-linecap:butt;stroke-linejoin:round;stroke-miterlimit:4;stroke-dasharray:none;stroke-opacity:1"
       d="M 266,478 V 224 l -10,-14 -10,14 v 254"
       id="path30192"
       sodipodi:nodetypes="ccccc" />
    <ellipse
       style="display:inline;fill:none;fill-opacity:1;stroke:#676763;stroke-width:12;stroke-linecap:round;stroke-linejoin:round;stroke-miterlimit:4;stroke-dasharray:none;stroke-opacity:1"
       id="ellipse43313"
       cx="-352"
       cy="369"
       rx="64"
       ry="75"
       transform="scale(-1,1)" />
    <path
       style="fill:none;stroke:#676763;stroke-width:12;stroke-linecap:round;stroke-linejoin:round;stroke-miterlimit:4;stroke-dasharray:none;stroke-opacity:1"
       d="m 364,266 c 0,0 33.68045,-10.1875 42,-24 31.66214,-52.56697 6,-184 6,-184"
       id="path43315"
       sodipodi:nodetypes="cac" />
    <path
       style="fill:none;stroke:#676763;stroke-width:12;stroke-linecap:butt;stroke-linejoin:miter;stroke-miterlimit:4;stroke-dasharray:none;stroke-opacity:1"
       d="M 266,222 V 478"
       id="path43317"
       sodipodi:nodetypes="cc" />
  </g>
</svg>
