<?xml version="1.0" encoding="UTF-8" standalone="no"?>
<!-- Created with Inkscape (http://www.inkscape.org/) -->

<svg
   width="512px"
   height="512px"
   viewBox="0 0 512 512"
   version="1.1"
   id="SVGRoot"
   sodipodi:docname="Torso Back SWAT Officer.svg"
   inkscape:version="1.1.2 (0a00cf5339, 2022-02-04)"
   xmlns:inkscape="http://www.inkscape.org/namespaces/inkscape"
   xmlns:sodipodi="http://sodipodi.sourceforge.net/DTD/sodipodi-0.dtd"
   xmlns="http://www.w3.org/2000/svg"
   xmlns:svg="http://www.w3.org/2000/svg">
  <sodipodi:namedview
     id="namedview50331"
     pagecolor="#ffffff"
     bordercolor="#666666"
     borderopacity="1.0"
     inkscape:pageshadow="2"
     inkscape:pageopacity="0.0"
     inkscape:pagecheckerboard="0"
     inkscape:document-units="px"
     showgrid="false"
     inkscape:zoom="1.7705291"
     inkscape:cx="254.07865"
     inkscape:cy="296.59237"
     inkscape:window-width="1920"
     inkscape:window-height="1016"
     inkscape:window-x="0"
     inkscape:window-y="0"
     inkscape:window-maximized="1"
     inkscape:current-layer="layer1" />
  <defs
     id="defs50326" />
  <g
     inkscape:label="Layer 1"
     inkscape:groupmode="layer"
     id="layer1"
     style="display:inline">
    <rect
       style="display:inline;fill:#212221;fill-opacity:1;stroke-width:23.5949;stroke-linecap:round;stroke-linejoin:round"
       id="rect50472"
       width="512"
       height="512"
       x="0"
       y="0" />
    <path
       style="fill:none;stroke:#676763;stroke-width:8;stroke-linecap:butt;stroke-linejoin:round;stroke-miterlimit:4;stroke-dasharray:none;stroke-opacity:1"
       d="m 92,124 6,-52 c 0.764161,-6.622726 5.33333,-16 12,-16 h 62 c 0,0 -11.40265,21.601787 -20,30 -16.93482,16.54256 -60,38 -60,38 z"
       id="path79260"
       sodipodi:nodetypes="csscac" />
    <path
       style="fill:none;stroke:#676763;stroke-width:8;stroke-linecap:butt;stroke-linejoin:round;stroke-miterlimit:4;stroke-dasharray:none;stroke-opacity:1"
       d="m 360,56 h 48 c 5.20683,0 11.20826,4.853714 12,10 l 4,26 c 0,0 -17.94897,3.208115 -26,0 -16.2089,-6.4588 -38,-36 -38,-36 z"
       id="path81815"
       sodipodi:nodetypes="csscac" />
    <path
       style="display:inline;fill:none;stroke:#676763;stroke-width:8;stroke-linecap:butt;stroke-linejoin:round;stroke-miterlimit:4;stroke-dasharray:none;stroke-opacity:1"
       d="m 116,112 c 0,0 2.61657,44.4795 -2,66 -8.77716,40.91543 -39.04601,75.1229 -48,116 -10.9923,50.18247 -6,154 -6,154 h 402 c 0,0 -2.42261,-102.90093 -8,-154 -2.70898,-24.81916 -7.64961,-49.35419 -12.34198,-73.87583 C 433.4463,177.21098 414,92 414,92"
       id="path85949"
       sodipodi:nodetypes="caaccaac" />
    <text
       xml:space="preserve"
       style="font-size:128px;line-height:1.25;font-family:Impact;-inkscape-font-specification:Impact;fill:#ffffff"
       x="130.36264"
       y="305.32135"
       id="text90383"><tspan
         sodipodi:role="line"
         id="tspan90381"
         x="130.36264"
         y="305.32135">GCPD</tspan></text>
    <path
       style="fill:none;stroke:#676763;stroke-width:8;stroke-linecap:butt;stroke-linejoin:miter;stroke-miterlimit:4;stroke-dasharray:none;stroke-opacity:1"
       d="M 172,56 H 360"
       id="path96844" />
    <path
       style="fill:none;stroke:#676763;stroke-width:8;stroke-linecap:butt;stroke-linejoin:round;stroke-miterlimit:4;stroke-dasharray:none;stroke-opacity:1"
       d="m 152,86 c 0,0 33.76641,42.67503 58,52 27.39038,10.53969 60.4814,10.41117 88.04404,0.33056 C 330.08708,126.61131 376,72 376,72"
       id="path97157"
       sodipodi:nodetypes="caac" />
    <path
       style="fill:none;stroke:#676763;stroke-width:8;stroke-linecap:butt;stroke-linejoin:round;stroke-miterlimit:4;stroke-dasharray:none;stroke-opacity:1"
       d="m 170,106 c 0,0 -2.43967,40.74705 -17.82556,48.46441 -11.16014,5.59778 -35.9079,-10.65729 -35.9079,-10.65729"
       id="path99028"
       sodipodi:nodetypes="cac" />
    <path
       style="fill:none;stroke:#676763;stroke-width:8;stroke-linecap:butt;stroke-linejoin:round;stroke-miterlimit:4;stroke-dasharray:none;stroke-opacity:1"
       d="m 422,130 c 0,0 -36.76753,38.06117 -58,32 -18.36829,-5.24354 -28,-50 -28,-50"
       id="path101088"
       sodipodi:nodetypes="cac" />
    <path
       style="fill:none;stroke:#676763;stroke-width:8;stroke-linecap:butt;stroke-linejoin:miter;stroke-miterlimit:4;stroke-dasharray:none;stroke-opacity:1"
       d="M 62,418 H 460"
       id="path104189"
       sodipodi:nodetypes="cc" />
    <path
       style="fill:none;stroke:#676763;stroke-width:8;stroke-linecap:round;stroke-linejoin:miter;stroke-miterlimit:4;stroke-dasharray:none;stroke-opacity:1"
       d="m 134,386 v 62"
       id="path109142"
       sodipodi:nodetypes="cc" />
    <path
       style="fill:none;stroke:#676763;stroke-width:8;stroke-linecap:round;stroke-linejoin:miter;stroke-miterlimit:4;stroke-dasharray:none;stroke-opacity:1"
       d="m 292,386 v 62"
       id="path109935"
       sodipodi:nodetypes="cc" />
    <path
       style="fill:none;stroke:#676763;stroke-width:8;stroke-linecap:round;stroke-linejoin:miter;stroke-miterlimit:4;stroke-dasharray:none;stroke-opacity:1"
       d="m 394,386 v 62"
       id="path110017"
       sodipodi:nodetypes="cc" />
  </g>
</svg>
