<?xml version="1.0" encoding="UTF-8" standalone="no"?>
<!-- Created with Inkscape (http://www.inkscape.org/) -->

<svg
   width="512px"
   height="512px"
   viewBox="0 0 512 512"
   version="1.1"
   id="SVGRoot"
   sodipodi:docname="Torso Front Lucius Fox.svg"
   xml:space="preserve"
   inkscape:version="1.2.2 (b0a8486541, 2022-12-01)"
   inkscape:export-filename="Torso Front Lucius Fox.png"
   inkscape:export-xdpi="96"
   inkscape:export-ydpi="96"
   xmlns:inkscape="http://www.inkscape.org/namespaces/inkscape"
   xmlns:sodipodi="http://sodipodi.sourceforge.net/DTD/sodipodi-0.dtd"
   xmlns="http://www.w3.org/2000/svg"
   xmlns:svg="http://www.w3.org/2000/svg"><sodipodi:namedview
     id="namedview137"
     pagecolor="#ffffff"
     bordercolor="#000000"
     borderopacity="0.25"
     inkscape:showpageshadow="2"
     inkscape:pageopacity="0.0"
     inkscape:pagecheckerboard="0"
     inkscape:deskcolor="#d1d1d1"
     inkscape:document-units="px"
     showgrid="false"
     inkscape:zoom="1.4142136"
     inkscape:cx="252.43712"
     inkscape:cy="275.06454"
     inkscape:window-width="1912"
     inkscape:window-height="1011"
     inkscape:window-x="1924"
     inkscape:window-y="28"
     inkscape:window-maximized="0"
     inkscape:current-layer="layer1"
     showguides="true" /><defs
     id="defs132" /><g
     inkscape:label="Layer 1"
     inkscape:groupmode="layer"
     id="layer1"><rect
       style="display:inline;fill:#212221;stroke-width:34.1313;stroke-linecap:round"
       id="rect432"
       width="512"
       height="512"
       x="0"
       y="0" /><path
       style="fill:#000000;stroke-width:4;stroke-linecap:round"
       d="m 149,37 h 5 v 3 l -50,67 27.5,31 20.5,-8 -4,6 c -1.56893,2.35339 -3.70546,4.34619 -6,6 -4.83731,3.48654 -10.44278,5.83833 -16,8 -4.52325,1.75947 -9.17068,3.51707 -14,4 l -20,2 11,19 c 4.12489,7.12482 6.5679,15.13472 9,23 2.62758,8.49747 4.18004,17.29375 6,26 2.22063,10.62293 4.54748,21.2451 6,32 2.14889,15.911 3.15846,31.96661 4,48 0.80388,15.31587 1.23593,30.66486 1,46 l -1,65 -5,9 -2,-4 c -3.60555,-7.2111 -2.54009,-15.95087 -3,-24 -1.86356,-32.61517 2.10344,-65.35027 1,-98 -0.55914,-16.54448 -1.83684,-33.08163 -3.85833,-49.51166 C 113.88311,238.25919 112.18711,228.07155 110,218 c -2.19627,-10.11373 -4.51334,-20.25555 -8,-30 -1.3569,-3.79224 -3.223609,-7.38522 -5,-11 -2.827894,-5.75449 -5.367534,-11.71641 -9,-17 L 77,144 h 23 c 3.8422,0 7.85409,0.39702 11.49711,-0.824 l 6.78172,-2.27301 L 94.5,107.75 Z"
       id="path560"
       sodipodi:nodetypes="ccccccsaascsaaaasccsaaaaaascssccc" /><path
       style="display:inline;fill:#ffffff;stroke:none;stroke-width:6;stroke-linecap:round;stroke-linejoin:round;stroke-dasharray:none;stroke-opacity:1"
       d="m 392,232 21,-6 1,-16 c 0.95935,-3.01904 5.33551,-4.33651 8,-4 1.36354,0.1722 1.36687,2.6755 1,4 -0.3775,1.3629 -2.24375,1.80497 -3,3 -1.32494,2.09366 -2.24707,5.20493 -2.5,7 -0.21938,1.55695 0.96575,4 2.5,4 h 16 c 6.71855,0 16.03519,0.53634 20,-2.5 0.47709,-0.36537 0.89744,-0.90789 1,-1.5 0.008,-2.48879 -1.21725,-5.16729 -3,-6.5 L 441,204 c -2.10198,-1.53606 -5.85559,-5.40059 -6,-8 l -1,-18 c -0.26922,-4.84593 -1.5387,-9.81699 -4,-14 -1.19531,-2.03145 -2.94892,-3.8387 -5,-5 -1.19598,-0.67715 -4,-2.37437 -4,-1 v 10 c 0,3.39935 -0.29934,6.72413 -1,10 -0.44094,2.06156 -1.07377,4.10619 -2,6 -2.11214,4.31856 -4.78682,8.42416 -8,12 -3.48015,3.87294 -10.82919,4.92651 -12,10 z"
       id="path3055"
       sodipodi:nodetypes="cccsaassssccsssaassaaasc" /><path
       style="display:inline;fill:#000000;stroke-width:4;stroke-linecap:round"
       d="m 358,37 h -5 v 3 l 50,67 -27.5,31 -20.5,-8 4,6 c 1.56893,2.35339 3.70546,4.34619 6,6 4.83731,3.48654 10.44278,5.83833 16,8 4.52325,1.75947 9.17068,3.51707 14,4 l 20,2 -11,19 c -4.12489,7.12482 -6.5679,15.13472 -9,23 -2.62758,8.49747 -4.18004,17.29375 -6,26 -2.22063,10.62293 -4.54748,21.2451 -6,32 -2.14889,15.911 -3.15846,31.96661 -4,48 -0.80388,15.31587 -1.23593,30.66486 -1,46 l 1,65 5,9 2,-4 c 3.60555,-7.2111 2.54009,-15.95087 3,-24 1.86356,-32.61517 -2.10344,-65.35027 -1,-98 0.55914,-16.54448 1.83684,-33.08163 3.85833,-49.51166 C 393.11689,238.25919 394.81289,228.07155 397,218 c 2.19627,-10.11373 4.51334,-20.25555 8,-30 1.3569,-3.79224 3.22361,-7.38522 5,-11 2.82789,-5.75449 5.36753,-11.71641 9,-17 l 11,-16 h -23 c -3.8422,0 -7.85409,0.39702 -11.49711,-0.824 L 388.72117,140.90299 412.5,107.75 Z"
       id="path658"
       sodipodi:nodetypes="ccccccsaascsaaaasccsaaaaaascssccc" /><path
       style="display:inline;fill:#d60000;stroke:#000000;stroke-width:4;stroke-linecap:round;stroke-linejoin:round;stroke-dasharray:none;stroke-opacity:1"
       d="m 353.5,110 -11.5,15 -9,-6 -2,10.75 -6,-0.75 6.5,16 -8.5,12.5 7,3.5 -2,8 14,-4 5.5,16 7.5,-12 7,8 3,-17 12,-2 -5,-11 6,-9 -12,-10 0.5,-10.5 -10.5,2.5 z"
       id="path660"
       sodipodi:nodetypes="ccccccccccccccccccccc" /><path
       style="display:inline;fill:#ffffff;stroke:none;stroke-width:10;stroke-linecap:round;stroke-linejoin:round;stroke-dasharray:none;stroke-opacity:1"
       d="m 174,40 h 158 l -16,60 v 130 l 36,248 H 156 L 188,230 V 100 Z"
       id="path2928"
       sodipodi:nodetypes="ccccccccc" /><path
       style="fill:#000000;stroke:none;stroke-width:10;stroke-linecap:round;stroke-linejoin:round;stroke-dasharray:none;stroke-opacity:1"
       d="m 152,480 c -1.47414,-0.22166 -2.94591,-0.94591 -4,-2 -1.05409,-1.05409 -2.2418,-2.52903 -2,-4 l 24,-146 c 3.32644,-20.23587 5.73789,-40.61769 8,-61 0.40613,-3.65932 0.65714,-7.33421 1,-11 1.6216,-17.33761 3.62337,-34.64122 5,-52 0.84491,-10.65403 2,-21.31252 2,-32 0,-21.37496 -1.74584,-42.74423 -4,-64 -1.42184,-13.407317 -2.96833,-26.862772 -6,-40 l -6,-26 c -0.3352,-1.452537 0.50928,-4 2,-4 h 6 l 13,52 c 6.81454,27.25815 5.83232,55.92722 7,84 0.44329,10.65745 0.33285,21.33853 0,32 -0.66699,21.36455 -2.04647,42.7145 -4,64 -2.02537,22.06828 -4.61816,44.09853 -8,66 l -21,136 c -0.18341,1.18777 -1.18781,2.11412 -2,3 -1.44238,1.57325 -3.05108,3.12979 -5,4 -1.85141,0.82667 -3.99495,1.30149 -6,1 z"
       id="path2897"
       sodipodi:nodetypes="aassaaaaassscsaaassaaa" /><path
       style="fill:#000000;stroke:none;stroke-width:10;stroke-linecap:round;stroke-linejoin:round;stroke-dasharray:none;stroke-opacity:1"
       d="m 178,38 h 54 l -16,38 -6,-4 14,-30 h -46 z"
       id="path2909"
       sodipodi:nodetypes="ccccccc" /><path
       style="fill:#000000;stroke:none;stroke-width:10;stroke-linecap:round;stroke-linejoin:round;stroke-dasharray:none;stroke-opacity:1"
       d="m 329,38 h -54 l 16,38 6,-4 -14,-30 h 46 z"
       id="path2911"
       sodipodi:nodetypes="ccccccc" /><path
       style="fill:#000000;stroke:none;stroke-width:10;stroke-linecap:round;stroke-linejoin:round;stroke-dasharray:none;stroke-opacity:1"
       d="m 353.26051,480 c 1.47414,-0.22166 2.94591,-0.94591 4,-2 1.05409,-1.05409 2.2418,-2.52903 2,-4 l -24,-146 c -3.32644,-20.23587 -5.73789,-40.61769 -8,-61 -0.40613,-3.65932 -0.65714,-7.33421 -1,-11 -1.6216,-17.33761 -3.62337,-34.64122 -5,-52 -0.84491,-10.65403 -2,-21.31252 -2,-32 0,-21.37496 1.74584,-42.74423 4,-64 1.42184,-13.407317 2.96833,-26.862772 6,-40 l 6,-26 c 0.3352,-1.452537 -0.50928,-4 -2,-4 h -6 l -13,52 c -6.81454,27.25815 -5.83232,55.92722 -7,84 -0.44329,10.65745 -0.33285,21.33853 0,32 0.66699,21.36455 2.04647,42.7145 4,64 2.02537,22.06828 4.61816,44.09853 8,66 l 21,136 c 0.18341,1.18777 1.18781,2.11412 2,3 1.44238,1.57325 3.05108,3.12979 5,4 1.85141,0.82667 3.99495,1.30149 6,1 z"
       id="path2913"
       sodipodi:nodetypes="aassaaaaassscsaaassaaa" /><path
       style="display:inline;fill:#000000;stroke:none;stroke-width:6;stroke-linecap:round;stroke-linejoin:round;stroke-dasharray:none;stroke-opacity:1"
       d="m 202,40 16,16 -4,12 -18,8 c 0,0 -5.5434,-6.508966 -8,-10 -5.85627,-8.322237 -16,-26 -16,-26 z"
       id="path2932"
       sodipodi:nodetypes="ccccacc" /><path
       style="display:inline;fill:#000000;stroke:none;stroke-width:6;stroke-linecap:round;stroke-linejoin:round;stroke-dasharray:none;stroke-opacity:1"
       d="m 190,88 6,-18 24,-2 34,-6 34,6 22,4 10,28 -12,10 c -7.30433,1.90176 -5.57706,2.8028 -8,4 -2.578,1.21039 -5.15976,2.7899 -8,3 -4.7596,0.35208 -9.49643,-1.42023 -14,-3 -2.81336,-0.98687 -5.28023,-2.77864 -8,-4 -1.63752,-0.73536 -3.50141,-1.01184 -5,-2 -1.18064,-0.77851 -1.5864,-3.04158 -3,-3 l -17,0.5 c -2.77269,0.0815 -4.84026,2.75932 -7,4.5 -0.73407,0.59163 -1.23515,1.44873 -2,2 -3.02332,2.17909 -6.37292,4.14376 -10,5 -7.04109,1.66218 -14.51649,0.82546 -21.70386,0 -1.46073,-0.16776 -3.0108,-0.28601 -4.29614,-1 -2.06047,-1.14456 -4.09801,-2.8224 -5,-5 0.11985,-2.04486 -0.14884,-3.35559 -1,-5 z"
       id="path3096"
       sodipodi:nodetypes="cccccccccaaaassaaaaaccc" /><path
       style="display:inline;fill:#212221;stroke:none;stroke-width:6;stroke-linecap:round;stroke-linejoin:round;stroke-dasharray:none;stroke-opacity:1"
       d="m 211,70 h -9 v 6 l -5.5,12 c -1.13044,2.466417 -1.76433,5.29977 -1.5,8 0.17488,1.786516 0.7307,3.730704 2,5 1.2693,1.2693 3.24879,1.6057 5,2 2.60662,0.58689 5.32827,0.52768 8,0.5 2.00682,-0.0208 4.02002,-0.17222 6,-0.5 4.06774,-0.67341 8.133,-1.5695 12,-3 1.39812,-0.517197 2.77435,-1.151472 4,-2 l 6.5,-4.5 V 90 c 0,0 -2.78974,2.429912 -4.5,3 l -3,1 c -0.26696,-0.09489 0,-2 0,-2 l 3,-5.5 h -4 l -14,1.5 1,-6 c 0,0 1.8303,-1.723871 3,-2 2.61553,-0.617442 8,1 8,1 l 9.5,-1.5 v -4 c 0,-0.707107 -0.79309,-1.516654 -1.5,-1.5 l -4.85417,0.114357 -22.29167,5.771286 C 208.18616,80.058588 208.00446,78.690013 208,78 c -0.009,-1.455324 1.3159,-2.610894 1.75,-4 z"
       id="path3098"
       sodipodi:nodetypes="cccsaaaaaasccsccccccaccsscsasc" /><path
       style="fill:#212221;stroke-width:6;stroke-linecap:round;stroke-linejoin:round"
       d="m 296,70 h 6 c 0,0 1.97883,8.120936 3.5,12 0.40817,1.040862 1.09469,1.95802 1.5,3 0.87974,2.261626 2,7 2,7 v 5 c -0.18906,1.044711 -0.0966,2.176675 -1,3 -2.0845,2.28319 -6.55605,3.5 -8,3.5 h -12 c 0,0 -2.68958,-0.20276 -4,-0.5 -2.05596,-0.46635 -4.05229,-1.19323 -6,-2 -2.75448,-1.140942 -5.42134,-2.503543 -8,-4 -2.07899,-1.206482 -6,-4 -6,-4 l 2,-4 c 0,0 3.76823,3.373407 6,4.5 3.10671,1.568263 6.21568,1.948461 10,3 1.01061,0.280817 2.56179,-0.983629 2,-2 -0.93849,-1.697871 -2,-2.5 -2,-2.5 -4.4527,-2.794863 -6.83635,-3.38729 -10,-5.5 -0.88749,-0.59267 -1.82908,-1.170085 -2.5,-2 -0.46859,-0.579638 -1.19131,-1.279614 -1,-2 0.15424,-0.580794 0.9105,-0.883382 1.5,-1 1.66736,-0.329846 3.30294,0.905719 5,1 0,0 6.22447,0.963026 9,0.5 0.3676,-0.06132 0.5,-0.627322 0.5,-1 0,-0.372678 -0.25108,-0.722638 -0.5,-1 -0.70429,-0.78478 -1.30094,-0.741402 -2,-1 -4.5115,-1.668912 -14,-3.5 -14,-3.5 0,0 1.0846,-1.838924 2,-2.25 1.5204,-0.68276 3.34101,-0.159794 5,0 3.04211,0.293017 9,1.75 9,1.75 l 16,4 c 0,0 0.15317,-1.351167 0,-2 -0.68499,-2.901668 -4,-8 -4,-8 z"
       id="path407"
       sodipodi:nodetypes="ccaacccscaaaccasssaaaassasacaaccac" /><path
       style="display:inline;fill:#000000;stroke:none;stroke-width:6;stroke-linecap:round;stroke-linejoin:round;stroke-dasharray:none;stroke-opacity:1"
       d="m 301,40 -16,16 4,12 18,8 c 0,0 5.5434,-6.508966 8,-10 5.85627,-8.322237 16,-26 16,-26 z"
       id="path2934"
       sodipodi:nodetypes="ccccacc" /><path
       style="fill:#000000;stroke:none;stroke-width:6;stroke-linecap:round;stroke-linejoin:round;stroke-dasharray:none;stroke-opacity:1"
       d="m 249,38 h 9 v 28 h -9 z"
       id="path2936"
       sodipodi:nodetypes="ccccc" /><path
       style="display:inline;fill:#212221;stroke:none;stroke-width:6;stroke-linecap:round;stroke-linejoin:round;stroke-dasharray:none;stroke-opacity:1"
       d="M 212,62 198,42 h -15 c 0,0 7.95004,13.909183 13,20 0.47573,0.573788 2,1 2,1 0,0 -0.48957,-2.723931 -1,-4 l -2,-5 c -0.39148,-0.9787 2.14488,0.383661 3,1 2.70414,1.949034 6,8 6,8 h 6 z"
       id="path2938"
       sodipodi:nodetypes="cccscssaccc" /><path
       style="fill:#212221;stroke:none;stroke-width:6;stroke-linecap:round;stroke-linejoin:round;stroke-dasharray:none;stroke-opacity:1"
       d="m 293,60 c 0,0 4.91788,-6.504239 7,-10 1.52566,-2.561495 4,-8 4,-8 h 16 c 0,0 -3.75532,8.132004 -6,12 -2.41296,4.15797 -8,12 -8,12 l -5,-2 6,-10 c 0.52298,-0.915208 -2.14488,0.383661 -3,1 -2.70414,1.949034 -6,8 -6,8 h -5 z"
       id="path2940"
       sodipodi:nodetypes="caccacccaccc" /><path
       style="fill:#000000;stroke:none;stroke-width:6;stroke-linecap:round;stroke-linejoin:round;stroke-dasharray:none;stroke-opacity:1"
       d="m 239,108 h -3 l -2,367 h 6 z"
       id="path2942"
       sodipodi:nodetypes="ccccc" /><path
       style="fill:#000000;stroke:none;stroke-width:6;stroke-linecap:round;stroke-linejoin:round;stroke-dasharray:none;stroke-opacity:1"
       d="m 269,108 h -3 l -2,367 h 6 z"
       id="path2944"
       sodipodi:nodetypes="ccccc" /><ellipse
       style="display:inline;fill:#000000;stroke:none;stroke-width:7.09478;stroke-linecap:round;stroke-linejoin:round;stroke-dasharray:none;stroke-opacity:1"
       id="path2998"
       cx="253"
       cy="148.5"
       rx="11"
       ry="14.5" /><ellipse
       style="fill:#ffffff;stroke:none;stroke-width:4.70011;stroke-linecap:round;stroke-linejoin:round;stroke-dasharray:none;stroke-opacity:1"
       id="ellipse3000"
       cx="253"
       cy="148"
       rx="7"
       ry="10" /><ellipse
       style="display:inline;fill:#000000;stroke:none;stroke-width:7.09478;stroke-linecap:round;stroke-linejoin:round;stroke-dasharray:none;stroke-opacity:1"
       id="ellipse3002"
       cx="253"
       cy="206.5"
       rx="11"
       ry="14.5" /><ellipse
       style="fill:#ffffff;stroke:none;stroke-width:4.70011;stroke-linecap:round;stroke-linejoin:round;stroke-dasharray:none;stroke-opacity:1"
       id="ellipse3004"
       cx="253"
       cy="206"
       rx="7"
       ry="10" /><ellipse
       style="display:inline;fill:#000000;stroke:none;stroke-width:7.09478;stroke-linecap:round;stroke-linejoin:round;stroke-dasharray:none;stroke-opacity:1"
       id="ellipse3006"
       cx="253"
       cy="264.5"
       rx="11"
       ry="14.5" /><ellipse
       style="fill:#ffffff;stroke:none;stroke-width:4.70011;stroke-linecap:round;stroke-linejoin:round;stroke-dasharray:none;stroke-opacity:1"
       id="ellipse3008"
       cx="253"
       cy="264"
       rx="7"
       ry="10" /><ellipse
       style="display:inline;fill:#000000;stroke:none;stroke-width:7.09478;stroke-linecap:round;stroke-linejoin:round;stroke-dasharray:none;stroke-opacity:1"
       id="ellipse3010"
       cx="253"
       cy="326.5"
       rx="11"
       ry="14.5" /><ellipse
       style="fill:#ffffff;stroke:none;stroke-width:4.70011;stroke-linecap:round;stroke-linejoin:round;stroke-dasharray:none;stroke-opacity:1"
       id="ellipse3012"
       cx="253"
       cy="326"
       rx="7"
       ry="10" /><ellipse
       style="display:inline;fill:#000000;stroke:none;stroke-width:7.09478;stroke-linecap:round;stroke-linejoin:round;stroke-dasharray:none;stroke-opacity:1"
       id="ellipse3014"
       cx="253"
       cy="384.5"
       rx="11"
       ry="14.5" /><ellipse
       style="fill:#ffffff;stroke:none;stroke-width:4.70011;stroke-linecap:round;stroke-linejoin:round;stroke-dasharray:none;stroke-opacity:1"
       id="ellipse3016"
       cx="253"
       cy="384"
       rx="7"
       ry="10" /><ellipse
       style="display:inline;fill:#000000;stroke:none;stroke-width:7.09478;stroke-linecap:round;stroke-linejoin:round;stroke-dasharray:none;stroke-opacity:1"
       id="ellipse3018"
       cx="253"
       cy="446.5"
       rx="11"
       ry="14.5" /><ellipse
       style="fill:#ffffff;stroke:none;stroke-width:4.70011;stroke-linecap:round;stroke-linejoin:round;stroke-dasharray:none;stroke-opacity:1"
       id="ellipse3020"
       cx="253"
       cy="446"
       rx="7"
       ry="10" /><path
       style="display:inline;fill:#000000;stroke:none;stroke-width:6;stroke-linecap:round;stroke-linejoin:round;stroke-dasharray:none;stroke-opacity:1"
       d="m 392,230 13,-2 c 3.24478,-0.4992 5.8265,-3.15936 9,-4 6.47654,-1.7156 13.32024,-1.48072 20,-2 5.99118,-0.46575 11.99075,-1 18,-1 h 3 c 1.41421,0 -1.73509,2.36754 -3,3 -8.43274,4.21637 -18.72471,2.30947 -28,4 -3.02337,0.55105 -6.04968,1.13973 -9,2 -3.74558,1.09216 -7.51033,2.25517 -11,4 l -12,6 z"
       id="path3059"
       sodipodi:nodetypes="csaassaaascc" /><path
       style="fill:#212221;stroke:none;stroke-width:6;stroke-linecap:round;stroke-linejoin:round;stroke-dasharray:none;stroke-opacity:1"
       d="M 245.5,73.5 H 260 c 2.85287,0 1.65712,6.810259 1,8.5 l -3.5,9 c -0.57308,1.473629 -2.91886,1.5 -4.5,1.5 h -5 c -0.83333,0 -1.91708,-0.670802 -2,-1.5 l -0.5,-5 -0.84725,-7.817175 C 244.48182,76.605776 244.67523,73.5 245.5,73.5 Z"
       id="path3202"
       sodipodi:nodetypes="ssssssscss" /></g></svg>
