<?xml version="1.0" encoding="UTF-8" standalone="no"?>
<!-- Created with Inkscape (http://www.inkscape.org/) -->

<svg
   width="512px"
   height="512px"
   viewBox="0 0 512 512"
   version="1.1"
   id="SVGRoot"
   sodipodi:docname="Torso Front Polka Dot Man 2.svg"
   xml:space="preserve"
   inkscape:version="1.3.2 (091e20ef0f, 2023-11-25)"
   xmlns:inkscape="http://www.inkscape.org/namespaces/inkscape"
   xmlns:sodipodi="http://sodipodi.sourceforge.net/DTD/sodipodi-0.dtd"
   xmlns="http://www.w3.org/2000/svg"
   xmlns:svg="http://www.w3.org/2000/svg"><sodipodi:namedview
     id="namedview53787"
     pagecolor="#ffffff"
     bordercolor="#000000"
     borderopacity="0.25"
     inkscape:showpageshadow="2"
     inkscape:pageopacity="0.0"
     inkscape:pagecheckerboard="0"
     inkscape:deskcolor="#d1d1d1"
     inkscape:document-units="px"
     showgrid="false"
     inkscape:zoom="0.75277075"
     inkscape:cx="314.17267"
     inkscape:cy="292.25365"
     inkscape:window-width="1920"
     inkscape:window-height="984"
     inkscape:window-x="1920"
     inkscape:window-y="0"
     inkscape:window-maximized="1"
     inkscape:current-layer="layer1" /><defs
     id="defs53782" /><g
     inkscape:label="Layer 1"
     inkscape:groupmode="layer"
     id="layer1"><rect
       style="display:inline;fill:#ffffff;stroke:none;stroke-width:19.2238;stroke-linecap:square"
       id="rect54756"
       width="512"
       height="512"
       x="0"
       y="0" /><circle
       style="fill:#ee1c25;fill-opacity:1;stroke:none;stroke-width:4;stroke-linejoin:round;stroke-dasharray:none;stroke-opacity:1"
       id="circle1"
       cx="152"
       cy="112"
       r="32" /><circle
       style="fill:#0059c5;fill-opacity:1;stroke:none;stroke-width:8;stroke-linejoin:round;stroke-dasharray:none;stroke-opacity:1"
       id="circle3"
       cx="322"
       cy="160"
       r="32" /><circle
       style="fill:#ffa600;fill-opacity:1;stroke:none;stroke-width:8;stroke-linejoin:round;stroke-dasharray:none;stroke-opacity:1"
       id="circle4"
       cx="386"
       cy="106"
       r="32" /><circle
       style="fill:#ffd40c;fill-opacity:1;stroke:none;stroke-width:4;stroke-linejoin:round;stroke-dasharray:none;stroke-opacity:1"
       id="circle5"
       cx="208"
       cy="178"
       r="32" /><circle
       style="fill:#d600cd;fill-opacity:1;stroke:none;stroke-width:9.14285;stroke-linejoin:round;stroke-dasharray:none;stroke-opacity:1"
       id="circle6"
       cx="202"
       cy="314"
       r="32" /><circle
       style="fill:#ee1c25;fill-opacity:1;stroke:none;stroke-width:8;stroke-linejoin:round;stroke-dasharray:none;stroke-opacity:1"
       id="circle7"
       cx="320"
       cy="350"
       r="32" /><circle
       style="fill:#0059c5;fill-opacity:1;stroke:none;stroke-width:5.33333;stroke-linejoin:round;stroke-dasharray:none;stroke-opacity:1"
       id="circle8"
       cx="98"
       cy="372"
       r="32" /><circle
       style="fill:#00b056;fill-opacity:1;stroke:none;stroke-width:5.33333;stroke-linejoin:round;stroke-dasharray:none;stroke-opacity:1"
       id="circle10"
       cx="430"
       cy="360"
       r="32" /><path
       id="path55211"
       style="fill:#676763;fill-opacity:0.5;stroke:none;stroke-opacity:1;stroke-width:4;stroke-dasharray:none;stroke-linejoin:round"
       d="M 260 47 L 252 48 C 252 62.030886 253.57594 75.949314 252.96094 90 C 251.80794 116.32797 247.64506 142.86703 244.28906 169 C 242.08006 186.20598 241.21503 206.29643 224.99805 216.98242 C 215.06306 223.52942 199.65699 219.32153 189 216.89453 C 166.27902 211.71954 143.48098 207.07093 121 200.71094 C 111.99901 198.16394 102.03099 197.1691 94 192.03711 C 87.843706 188.10311 83.066686 182.73099 78.650391 177 C 75.685494 173.152 73.274296 168.401 69 166 C 68.6032 175.21699 62.877496 186.97295 65.433594 195.96094 C 66.596693 200.04993 70.809903 202.85594 74 205.33594 C 83.073891 212.38893 92.924911 217.038 104 220 C 98.588605 242.50798 72.572789 222.22199 62 215 C 61.334101 217.915 60.118375 220.971 60.421875 224 C 61.456074 234.31699 72.559708 237.34405 81 238.99805 C 83.658597 239.51905 88.404136 239.39052 90.302734 241.60352 C 94.35913 246.33151 84.487196 257.67097 80 258.66797 C 71.772408 260.49597 63.027193 251.916 56 249 C 56.0073 260.07199 59.909211 265.95541 71 268.94141 C 74.591996 269.90841 80.635518 268.3323 82.728516 272.2793 C 84.175814 275.00929 82.46598 278.54705 81.175781 280.99805 C 74.988987 292.75004 61.393291 285.853 52 282 L 51 283 C 53.293298 292.49599 56.281511 298.29949 67 299.52148 C 70.655796 299.93748 74.544803 298.35025 78 300.03125 C 85.071793 303.47125 90.711507 310.08547 98 313.73047 C 113.51498 321.48946 130.35502 325.596 147 330 C 148.586 321.45701 148.21222 311.45246 153.69922 304.10547 C 157.19622 299.42347 164.034 296.83795 169 294.00195 C 181.31399 286.96796 194.55201 280.87546 208 276.35547 C 212.792 274.74447 219.94201 271.92889 225 272.71289 C 240.72098 275.14989 248.21701 286.66901 256 299 L 258 299 C 259.501 294.67 261.48891 290.59795 264.37891 287.00195 C 269.8249 280.22396 279.97601 273.10295 289 272.50195 C 292.709 272.25495 296.481 273.89161 300 274.84961 C 310.79299 277.78561 320.86301 282.50774 331 287.17773 C 339.94899 291.30173 354.60988 296.68263 360.29688 305.01562 C 364.69987 311.46762 365.672 322.37201 366 330 C 382.57898 326.208 399.81802 321.73262 415 313.89062 C 422.48799 310.02363 428.65701 303.53272 436 299.88672 C 439.196 298.29972 442.628 299.63819 446 299.36719 C 454.94899 298.64719 463.073 292.69699 461 283 C 454.52801 284.497 445.67562 289.3425 439.01562 287.5625 C 433.82763 286.1775 427.66225 276.50635 431.03125 271.31836 C 433.51125 267.49836 440.215 269.43337 444 268.60938 C 454.47399 266.32738 456.999 258.39999 457 249 C 449.98801 251.949 441.2799 260.51897 433.00391 258.66797 C 428.29891 257.61497 419.23618 246.6396 422.95117 241.59961 C 425.32417 238.37961 433.416 238.96164 437 238.18164 C 449.01799 235.56364 454.979 226.75799 451 215 C 441.34201 221.72199 433.13899 228.56406 421 230.28906 C 416.92 230.86906 407.98927 226.68173 410.94727 221.30273 C 412.23226 218.96574 415.732 218.4215 418 217.5625 C 422.191 215.9745 426.16 213.84978 430 211.55078 C 435.57699 208.21078 443.85366 203.92893 446.97266 197.96094 C 448.86165 194.34694 447.718 189.769 447 186 C 445.733 179.34701 445.969 172.16099 443 166 C 435.37501 174.73599 430.08799 185.10165 420 191.55664 C 411.82401 196.78864 401.29099 198.63439 392 201.15039 C 373.13602 206.25939 354.03998 210.28739 335 214.65039 C 322.08001 217.61139 307.38999 222.33725 294 219.65625 C 284.83901 217.82125 277.21073 207.12699 273.80273 199 C 268.82174 187.12101 269.19884 172.57099 267.71484 160 C 264.97885 136.84402 260.81716 113.32298 260.03516 90 C 259.72516 80.720409 259.85869 71.235291 260.05469 62 C 260.16669 56.737305 262.364 52.041395 260 47 z M 255 209.43359 C 259.362 208.73459 263.499 211.44827 267 213.69727 C 272.60999 217.30226 277.99783 221.38272 283.42383 225.26172 C 286.30183 227.31872 289.394 230.04538 293 230.60938 C 300.29999 231.75037 309.65301 228.87192 317 228.16992 C 333.57898 226.58592 350.54102 225.81422 367 223.57422 C 376.53799 222.27522 391.1261 217.97785 399.99609 223.08984 C 404.23409 225.53184 406.85991 229.881 409.25391 234 C 415.5719 244.87299 418.31486 257.83701 420.88086 270 C 421.95086 275.06799 423.42165 283.1651 420.97266 287.99609 C 417.54866 294.75209 407.87799 297.98116 401 299.66016 C 394.21201 301.31815 385.55287 303.89648 379.17188 299.77148 C 373.07388 295.82949 370.40993 288.07825 363.96094 284.53125 C 359.32894 281.98425 353.94 280.75226 349 278.94727 C 339.03001 275.30327 329.06799 271.59895 319 268.25195 C 311.50001 265.75796 303.01799 261.20603 295 261.08203 C 281.34701 260.87003 270.11999 270.56345 257 271.43945 C 253.243 271.69045 249.452 269.57584 246 268.33984 C 238.50301 265.65785 231.00399 262.14159 223 261.18359 C 209.88101 259.6146 194.17099 268.23207 182 272.53906 C 171.59401 276.22206 158.3379 278.94376 149.00391 284.84375 C 138.60292 291.41774 136.70399 304.05978 122 301.67578 C 112.88701 300.19878 98.018095 297.66137 92.9375 288.98438 C 90.129403 284.18838 91.642138 278.20899 92.085938 273 C 93.136036 260.67501 97.26584 248.11499 102.55273 237 C 105.13473 231.57101 108.52363 225.51626 114.01562 222.57227 C 121.75862 218.42027 133.67701 222.33497 142 222.91797 C 160.05298 224.18397 177.99002 226.36892 196 228.16992 C 203.43599 228.91392 211.54201 230.96127 219 230.69727 C 223.214 230.54727 226.32218 227.48192 229.57617 225.16992 C 236.75916 220.06393 246.06601 210.86359 255 209.43359 z M 256 313 C 254.671 322.86899 252.96957 340.90565 244.89258 347.68164 C 239.31058 352.36464 228.78599 349.52392 222 350.16992 C 208.04001 351.49792 194.00499 352.68405 180 353.62305 C 174.51201 353.99105 168.47399 356.29497 163 354.91797 C 157.64701 353.57197 153.117 349.33 150 345 L 149 345 C 149.173 353.13499 151.95701 362.47417 161 364.45117 C 165.747 365.48917 172.128 364.24416 177 363.91016 C 193.05398 362.81016 208.85702 361.81191 225 362.00391 C 233.12899 362.10091 242.26579 362.78163 247.30078 370.01562 C 254.40277 380.22061 256.44703 400.70882 241.99805 406.25781 C 238.35705 407.65581 233.822 406.95791 230 407.00391 C 224.36601 407.07091 218.63299 407.52369 213 407.80469 C 200.96901 408.40569 189.01399 410.20884 177 411.08984 C 172.061 411.45184 166.896 412.88265 162 411.34766 C 156.86001 409.73666 153.289 405.019 149 402 C 149.828 408.51799 150.82097 416.10649 157.04297 419.77148 C 163.53796 423.59648 170.11801 420.61378 177 420.30078 C 191.96599 419.62178 207.01701 420 222 420 C 230.59299 420 241.45779 418.18276 247.30078 426.09375 C 254.46777 435.79874 256.49792 458.22024 242.96094 463.99023 C 239.30594 465.54823 234.875 464.98295 231 465.00195 C 225.34401 465.02895 219.65499 465.53714 214 465.74414 C 203.16001 466.14114 191.75099 467.01316 181 468.28516 C 175.41601 468.94716 168.10617 471.28814 162.57617 469.74414 C 157.67218 468.37414 154.047 463.839 150 461 C 150.023 463.707 150.02806 466.375 150.78906 469 C 155.60406 485.60698 177.23501 478.16809 190 477.99609 C 233.27696 477.41509 276.71704 476.06494 320 477.96094 C 325.31999 478.19394 330.69401 477.65592 336 478.16992 C 346.54199 479.18992 358.30394 482.45999 362.21094 469 C 362.97194 466.375 362.977 463.706 363 461 C 359.074 463.754 355.691 467.87766 351 469.34766 C 344.80601 471.28965 337.25899 469.02916 331 468.28516 C 320.21801 467.00516 308.85099 466.00375 298 465.59375 C 289.81001 465.28375 277.64605 467.23223 270.03906 463.99023 C 266.04807 462.28824 264.52478 458.74 262.92578 455 C 258.85379 445.47201 259.01344 434.79074 265.64844 426.09375 C 271.72843 418.12376 282.17401 420 291 420 C 305.56699 420 320.46801 419.08884 335 420.08984 C 342.22099 420.58684 349.18594 423.68781 355.96094 419.63281 C 362.32893 415.82082 363.146 408.72399 364 402 C 359.711 405.019 356.13999 409.73666 351 411.34766 C 346.104 412.88265 340.939 411.45184 336 411.08984 C 323.34901 410.16184 310.68099 408.07375 298 407.59375 C 290.03401 407.29275 278.48095 409.12981 271.00195 406.25781 C 256.84997 400.82282 258.43944 380.04061 265.64844 370.01562 C 271.52207 361.84697 281.29571 361.99629 290.41211 362.00586 A 32 32 0 0 1 288.01758 350.25977 C 287.01234 350.17398 286.01392 350.04048 285 350.01562 C 279.53901 349.88163 272.86812 351.12765 268.32812 347.34766 C 257.87714 338.64766 263.33199 322.62799 256 313 z M 288.01758 350.25977 C 291.33897 350.54321 294.6384 350.98116 298 350.99805 C 294.6384 350.98116 291.33898 350.54321 288.01758 350.25977 z M 298 350.99805 C 303.47149 351.02655 309.00688 351.27005 314.53125 351.66992 C 309.00688 351.26977 303.47149 351.02655 298 350.99805 z M 314.53125 351.66992 C 320.05562 352.0698 325.56901 352.62716 331 353.28516 C 325.56901 352.62716 320.05562 352.07007 314.53125 351.66992 z M 331 353.28516 C 333.69596 353.61218 336.70491 354.29163 339.71094 354.81641 C 336.69603 354.29092 333.70379 353.61313 331 353.28516 z M 339.71094 354.81641 C 341.61178 355.14772 343.52131 355.42248 345.375 355.49805 C 343.51279 355.42219 341.62043 355.14975 339.71094 354.81641 z M 345.375 355.49805 C 346.17397 355.53062 346.96173 355.52782 347.73438 355.47852 C 346.96173 355.52783 346.17397 355.53059 345.375 355.49805 z M 347.73438 355.47852 C 348.50702 355.42921 349.26425 355.33352 350 355.18164 C 349.26425 355.33352 348.50702 355.4292 347.73438 355.47852 z M 350 355.18164 C 350.56234 355.06564 351.09763 354.87582 351.63281 354.68555 C 351.09742 354.87528 350.56234 355.06564 350 355.18164 z M 365 345 C 360.71189 348.00855 356.74476 352.86882 351.64648 354.68164 A 32 32 0 0 1 348.45898 364.48242 C 351.73625 364.48799 354.93373 364.00511 357.89258 361.99414 C 362.98057 358.53514 364.234 350.68099 365 345 z M 348.45898 364.48242 C 346.73686 364.4795 344.98798 364.34749 343.24219 364.2168 C 344.98899 364.34448 346.73518 364.4795 348.45898 364.48242 z M 343.24219 364.2168 C 341.8248 364.11319 340.40707 364.01355 339 364 C 340.40877 364.01357 341.82253 364.11052 343.24219 364.2168 z M 339 364 C 334.999 363.9615 331.00471 363.81777 327.01172 363.62305 C 331.00472 363.81777 334.99901 363.9615 339 364 z M 327.01172 363.62305 C 323.01872 363.42833 319.0272 363.18178 315.0332 362.94141 C 319.0272 363.18178 323.01872 363.42833 327.01172 363.62305 z M 315.0332 362.94141 C 311.0392 362.70103 307.04306 362.46648 303.03906 362.29102 C 307.04306 362.46648 311.03921 362.70103 315.0332 362.94141 z M 303.03906 362.29102 C 299.03507 362.11555 295.02299 362 291 362 C 295.023 362 299.03507 362.11555 303.03906 362.29102 z " /><path
       id="rect12"
       style="fill:#ee1c25;fill-opacity:1;stroke:#212321;stroke-width:4;stroke-linejoin:round;stroke-dasharray:none;stroke-opacity:1"
       d="M 33.371094 412 C 29.856634 434.20818 27 456.47204 27 479 L 489 479 C 489 456.51904 486.22101 434.2264 482.71484 412 L 33.371094 412 z " /><circle
       style="fill:#ee1c25;fill-opacity:1;stroke:#212321;stroke-width:4;stroke-linejoin:round;stroke-dasharray:none;stroke-opacity:1"
       id="path12"
       cx="257"
       cy="444"
       r="32" /><circle
       style="fill:#212321;fill-opacity:1;stroke:none;stroke-width:6.27745;stroke-linejoin:round;stroke-dasharray:none;stroke-opacity:1"
       id="path13"
       cx="257"
       cy="422"
       r="6" /><circle
       style="fill:#212321;fill-opacity:1;stroke:none;stroke-width:6.27745;stroke-linejoin:round;stroke-dasharray:none;stroke-opacity:1"
       id="circle16"
       cx="279"
       cy="444"
       r="6" /><circle
       style="fill:#212321;fill-opacity:1;stroke:none;stroke-width:6.27745;stroke-linejoin:round;stroke-dasharray:none;stroke-opacity:1"
       id="circle17"
       cx="235"
       cy="444"
       r="6" /><circle
       style="fill:#212321;fill-opacity:1;stroke:none;stroke-width:6.27745;stroke-linejoin:round;stroke-dasharray:none;stroke-opacity:1"
       id="circle18"
       cx="257"
       cy="466"
       r="6" /><circle
       style="fill:#212321;fill-opacity:1;stroke:none;stroke-width:6.27745;stroke-linejoin:round;stroke-dasharray:none;stroke-opacity:1"
       id="circle19"
       cx="241"
       cy="460"
       r="6" /><circle
       style="fill:#212321;fill-opacity:1;stroke:none;stroke-width:6.27745;stroke-linejoin:round;stroke-dasharray:none;stroke-opacity:1"
       id="circle20"
       cx="273"
       cy="460"
       r="6" /><circle
       style="fill:#212321;fill-opacity:1;stroke:none;stroke-width:6.27745;stroke-linejoin:round;stroke-dasharray:none;stroke-opacity:1"
       id="circle21"
       cx="241"
       cy="428"
       r="6" /><circle
       style="fill:#212321;fill-opacity:1;stroke:none;stroke-width:6.27745;stroke-linejoin:round;stroke-dasharray:none;stroke-opacity:1"
       id="circle22"
       cx="273"
       cy="428"
       r="6" /><path
       id="path26"
       style="fill:#212321;fill-opacity:1;stroke:none;stroke-width:4;stroke-linejoin:round;stroke-dasharray:none;stroke-opacity:1"
       d="M 387.86914 45.203125 C 381.38955 45.51035 375.05225 46 370 46 L 247 46 L 138 46 C 133.86903 46 129.23045 45.677369 124.50195 45.501953 C 150.99115 61.017459 214.90793 95.90351 255 96 C 295.89777 96.09843 361.39553 60.579522 387.86914 45.203125 z " /><path
       id="path23"
       style="fill:#fbbe9c;fill-opacity:1;stroke:none;stroke-width:4;stroke-linejoin:round;stroke-dasharray:none;stroke-opacity:1"
       d="M 376.44922 45.699219 C 374.26201 45.819832 371.89711 46 370 46 L 247 46 L 138 46 C 137.32485 46 136.51825 45.934169 135.81836 45.917969 C 166.3976 63.0382 219.80008 89.915284 255 90 C 290.64184 90.08578 345.42799 62.87459 376.44922 45.699219 z " /><path
       id="circle23"
       style="fill:#212321;fill-opacity:0.5;stroke:none;stroke-width:8;stroke-linejoin:round;stroke-dasharray:none;stroke-opacity:1"
       d="M 288.01758 350.25977 A 32 32 0 0 0 290.41211 362.00586 C 290.60668 362.00606 290.80608 362 291 362 C 307.09198 362 322.99602 363.846 339 364 C 342.14117 364.03025 345.33645 364.47712 348.45898 364.48242 A 32 32 0 0 0 351.64648 354.68164 C 351.10684 354.87352 350.56703 355.06467 350 355.18164 C 344.11401 356.39664 336.87799 353.99816 331 353.28516 C 320.13801 351.96916 308.94299 351.05505 298 350.99805 C 294.6384 350.98116 291.33898 350.54321 288.01758 350.25977 z " /><path
       id="path25"
       style="fill:#de8c5f;fill-opacity:1;stroke:none;stroke-width:4;stroke-linejoin:round;stroke-dasharray:none;stroke-opacity:1"
       d="M 260 47 L 252 48 C 252 62.006136 253.56715 75.900345 252.96094 89.925781 C 253.63813 89.946384 254.3359 89.998402 255 90 C 256.63836 90.003943 258.31801 89.947671 260.0332 89.839844 C 259.72999 80.610944 259.85981 71.182533 260.05469 62 C 260.16669 56.737305 262.364 52.041395 260 47 z " /></g></svg>
