<?xml version="1.0" encoding="UTF-8" standalone="no"?>
<!-- Created with Inkscape (http://www.inkscape.org/) -->

<svg
   width="512px"
   height="512px"
   viewBox="0 0 512 512"
   version="1.1"
   id="SVGRoot"
   sodipodi:docname="Torso Front Shocker.svg"
   inkscape:version="1.2.2 (b0a8486541, 2022-12-01)"
   xmlns:inkscape="http://www.inkscape.org/namespaces/inkscape"
   xmlns:sodipodi="http://sodipodi.sourceforge.net/DTD/sodipodi-0.dtd"
   xmlns="http://www.w3.org/2000/svg"
   xmlns:svg="http://www.w3.org/2000/svg">
  <sodipodi:namedview
     id="namedview35957"
     pagecolor="#ffffff"
     bordercolor="#000000"
     borderopacity="0.25"
     inkscape:showpageshadow="2"
     inkscape:pageopacity="0.0"
     inkscape:pagecheckerboard="0"
     inkscape:deskcolor="#d1d1d1"
     inkscape:document-units="px"
     showgrid="false"
     inkscape:zoom="1.0645786"
     inkscape:cx="236.71338"
     inkscape:cy="222.62329"
     inkscape:window-width="1912"
     inkscape:window-height="1011"
     inkscape:window-x="1924"
     inkscape:window-y="28"
     inkscape:window-maximized="0"
     inkscape:current-layer="layer1" />
  <defs
     id="defs35952" />
  <g
     inkscape:label="Layer 1"
     inkscape:groupmode="layer"
     id="layer1">
    <rect
       style="fill:#ffd40c;stroke:none;stroke-width:32.612;stroke-linecap:square;stroke-linejoin:bevel"
       id="rect36188"
       width="512"
       height="512"
       x="0"
       y="0" />
    <path
       style="fill:#ad5500;fill-opacity:1;stroke:none;stroke-width:4;stroke-linecap:square;stroke-linejoin:miter;stroke-dasharray:none;stroke-opacity:1"
       d="M 72,14 46,34 6,512 H 506 L 466,34 450,14 Z"
       id="path59624"
       sodipodi:nodetypes="ccccccc" />
    <path
       style="fill:#ffd40c;fill-opacity:1;stroke:none;stroke-width:4;stroke-linecap:square;stroke-linejoin:miter;stroke-dasharray:none;stroke-opacity:1"
       d="M 121.37258,26 144,48.627417 166.62742,26 144,3.372583 Z"
       id="path60208"
       sodipodi:nodetypes="ccccc" />
    <path
       style="fill:#ffd40c;fill-opacity:1;stroke:none;stroke-width:4;stroke-linecap:square;stroke-linejoin:miter;stroke-dasharray:none;stroke-opacity:1"
       d="M 169.37258,26 192,48.627417 214.62742,26 192,3.372583 Z"
       id="path60210"
       sodipodi:nodetypes="ccccc" />
    <path
       style="fill:#ffd40c;fill-opacity:1;stroke:none;stroke-width:4;stroke-linecap:square;stroke-linejoin:miter;stroke-dasharray:none;stroke-opacity:1"
       d="M 145.37258,0 168,22.627417 190.62742,0 Z"
       id="path60212"
       sodipodi:nodetypes="cccc" />
    <path
       style="fill:#ffd40c;fill-opacity:1;stroke:none;stroke-width:4;stroke-linecap:square;stroke-linejoin:miter;stroke-dasharray:none;stroke-opacity:1"
       d="M 217.37258,26 240,48.627417 262.62742,26 240,3.372583 Z"
       id="path60214"
       sodipodi:nodetypes="ccccc" />
    <path
       style="fill:#ffd40c;fill-opacity:1;stroke:none;stroke-width:4;stroke-linecap:square;stroke-linejoin:miter;stroke-dasharray:none;stroke-opacity:1"
       d="M 193.37258,0 216,22.627417 238.62742,0 Z"
       id="path60216"
       sodipodi:nodetypes="cccc" />
    <path
       style="fill:#ffd40c;fill-opacity:1;stroke:none;stroke-width:4;stroke-linecap:square;stroke-linejoin:miter;stroke-dasharray:none;stroke-opacity:1"
       d="M 265.37258,26 288,48.627417 310.62742,26 288,3.372583 Z"
       id="path60218"
       sodipodi:nodetypes="ccccc" />
    <path
       style="fill:#ffd40c;fill-opacity:1;stroke:none;stroke-width:4;stroke-linecap:square;stroke-linejoin:miter;stroke-dasharray:none;stroke-opacity:1"
       d="M 241.37258,0 264,22.627417 286.62742,0 Z"
       id="path60220"
       sodipodi:nodetypes="cccc" />
    <path
       style="fill:#ffd40c;fill-opacity:1;stroke:none;stroke-width:4;stroke-linecap:square;stroke-linejoin:miter;stroke-dasharray:none;stroke-opacity:1"
       d="M 313.37258,26 336,48.627417 358.62742,26 336,3.372583 Z"
       id="path60222"
       sodipodi:nodetypes="ccccc" />
    <path
       style="fill:#ffd40c;fill-opacity:1;stroke:none;stroke-width:4;stroke-linecap:square;stroke-linejoin:miter;stroke-dasharray:none;stroke-opacity:1"
       d="M 289.37258,0 312,22.627417 334.62742,0 Z"
       id="path60224"
       sodipodi:nodetypes="cccc" />
    <path
       style="fill:#ffd40c;fill-opacity:1;stroke:none;stroke-width:4;stroke-linecap:square;stroke-linejoin:miter;stroke-dasharray:none;stroke-opacity:1"
       d="M 361.37258,26 384,48.627417 406.62742,26 384,3.372583 Z"
       id="path60226"
       sodipodi:nodetypes="ccccc" />
    <path
       style="fill:#ffd40c;fill-opacity:1;stroke:none;stroke-width:4;stroke-linecap:square;stroke-linejoin:miter;stroke-dasharray:none;stroke-opacity:1"
       d="M 337.37258,0 360,22.627417 382.62742,0 Z"
       id="path60228"
       sodipodi:nodetypes="cccc" />
    <path
       style="fill:#ffd40c;fill-opacity:1;stroke:none;stroke-width:4;stroke-linecap:square;stroke-linejoin:miter;stroke-dasharray:none;stroke-opacity:1"
       d="M 145.37258,52 168,74.627417 190.62742,52 168,29.372583 Z"
       id="path60230"
       sodipodi:nodetypes="ccccc" />
    <path
       style="fill:#ffd40c;fill-opacity:1;stroke:none;stroke-width:4;stroke-linecap:square;stroke-linejoin:miter;stroke-dasharray:none;stroke-opacity:1"
       d="M 193.37258,52 216,74.627417 238.62742,52 216,29.372583 Z"
       id="path60232"
       sodipodi:nodetypes="ccccc" />
    <path
       style="fill:#ffd40c;fill-opacity:1;stroke:none;stroke-width:4;stroke-linecap:square;stroke-linejoin:miter;stroke-dasharray:none;stroke-opacity:1"
       d="M 241.37258,52 264,74.627417 286.62742,52 264,29.372583 Z"
       id="path60234"
       sodipodi:nodetypes="ccccc" />
    <path
       style="fill:#ffd40c;fill-opacity:1;stroke:none;stroke-width:4;stroke-linecap:square;stroke-linejoin:miter;stroke-dasharray:none;stroke-opacity:1"
       d="M 289.37258,52 312,74.627417 334.62742,52 312,29.372583 Z"
       id="path60236"
       sodipodi:nodetypes="ccccc" />
    <path
       style="fill:#ffd40c;fill-opacity:1;stroke:none;stroke-width:4;stroke-linecap:square;stroke-linejoin:miter;stroke-dasharray:none;stroke-opacity:1"
       d="M 337.37258,52 360,74.627417 382.62742,52 360,29.372583 Z"
       id="path60238"
       sodipodi:nodetypes="ccccc" />
    <path
       style="fill:#ffd40c;fill-opacity:1;stroke:none;stroke-width:4;stroke-linecap:square;stroke-linejoin:miter;stroke-dasharray:none;stroke-opacity:1"
       d="M 97.37258,52 120,74.627417 142.62742,52 120,29.372583 Z"
       id="path60240"
       sodipodi:nodetypes="ccccc" />
    <path
       style="fill:#ffd40c;fill-opacity:1;stroke:none;stroke-width:4;stroke-linecap:square;stroke-linejoin:miter;stroke-dasharray:none;stroke-opacity:1"
       d="M 121.37258,78 144,100.62742 166.62742,78 144,55.372583 Z"
       id="path60242"
       sodipodi:nodetypes="ccccc" />
    <path
       style="fill:#ffd40c;fill-opacity:1;stroke:none;stroke-width:4;stroke-linecap:square;stroke-linejoin:miter;stroke-dasharray:none;stroke-opacity:1"
       d="M 169.37258,78 192,100.62742 214.62742,78 192,55.372583 Z"
       id="path60244"
       sodipodi:nodetypes="ccccc" />
    <path
       style="fill:#ffd40c;fill-opacity:1;stroke:none;stroke-width:4;stroke-linecap:square;stroke-linejoin:miter;stroke-dasharray:none;stroke-opacity:1"
       d="M 217.37258,78 240,100.62742 262.62742,78 240,55.372583 Z"
       id="path60246"
       sodipodi:nodetypes="ccccc" />
    <path
       style="fill:#ffd40c;fill-opacity:1;stroke:none;stroke-width:4;stroke-linecap:square;stroke-linejoin:miter;stroke-dasharray:none;stroke-opacity:1"
       d="M 265.37258,78 288,100.62742 310.62742,78 288,55.372583 Z"
       id="path60248"
       sodipodi:nodetypes="ccccc" />
    <path
       style="fill:#ffd40c;fill-opacity:1;stroke:none;stroke-width:4;stroke-linecap:square;stroke-linejoin:miter;stroke-dasharray:none;stroke-opacity:1"
       d="M 313.37258,78 336,100.62742 358.62742,78 336,55.372583 Z"
       id="path60250"
       sodipodi:nodetypes="ccccc" />
    <path
       style="fill:#ffd40c;fill-opacity:1;stroke:none;stroke-width:4;stroke-linecap:square;stroke-linejoin:miter;stroke-dasharray:none;stroke-opacity:1"
       d="M 361.37258,78 384,100.62742 406.62742,78 384,55.372583 Z"
       id="path60252"
       sodipodi:nodetypes="ccccc" />
    <path
       style="fill:#ffd40c;fill-opacity:1;stroke:none;stroke-width:4;stroke-linecap:square;stroke-linejoin:miter;stroke-dasharray:none;stroke-opacity:1"
       d="M 145.37258,104 168,126.62742 190.62742,104 168,81.372583 Z"
       id="path60254"
       sodipodi:nodetypes="ccccc" />
    <path
       style="fill:#ffd40c;fill-opacity:1;stroke:none;stroke-width:4;stroke-linecap:square;stroke-linejoin:miter;stroke-dasharray:none;stroke-opacity:1"
       d="M 193.37258,104 216,126.62742 238.62742,104 216,81.372583 Z"
       id="path60256"
       sodipodi:nodetypes="ccccc" />
    <path
       style="fill:#ffd40c;fill-opacity:1;stroke:none;stroke-width:4;stroke-linecap:square;stroke-linejoin:miter;stroke-dasharray:none;stroke-opacity:1"
       d="M 241.37258,104 264,126.62742 286.62742,104 264,81.372583 Z"
       id="path60258"
       sodipodi:nodetypes="ccccc" />
    <path
       style="fill:#ffd40c;fill-opacity:1;stroke:none;stroke-width:4;stroke-linecap:square;stroke-linejoin:miter;stroke-dasharray:none;stroke-opacity:1"
       d="M 289.37258,104 312,126.62742 334.62742,104 312,81.372583 Z"
       id="path60260"
       sodipodi:nodetypes="ccccc" />
    <path
       style="fill:#ffd40c;fill-opacity:1;stroke:none;stroke-width:4;stroke-linecap:square;stroke-linejoin:miter;stroke-dasharray:none;stroke-opacity:1"
       d="M 337.37258,104 360,126.62742 382.62742,104 360,81.372583 Z"
       id="path60262"
       sodipodi:nodetypes="ccccc" />
    <path
       style="fill:#ffd40c;fill-opacity:1;stroke:none;stroke-width:4;stroke-linecap:square;stroke-linejoin:miter;stroke-dasharray:none;stroke-opacity:1"
       d="M 121.37258,130 144,152.62742 166.62742,130 144,107.37258 Z"
       id="path60266"
       sodipodi:nodetypes="ccccc" />
    <path
       style="fill:#ffd40c;fill-opacity:1;stroke:none;stroke-width:4;stroke-linecap:square;stroke-linejoin:miter;stroke-dasharray:none;stroke-opacity:1"
       d="M 169.37258,130 192,152.62742 214.62742,130 192,107.37258 Z"
       id="path60268"
       sodipodi:nodetypes="ccccc" />
    <path
       style="fill:#ffd40c;fill-opacity:1;stroke:none;stroke-width:4;stroke-linecap:square;stroke-linejoin:miter;stroke-dasharray:none;stroke-opacity:1"
       d="M 217.37258,130 240,152.62742 262.62742,130 240,107.37258 Z"
       id="path60270"
       sodipodi:nodetypes="ccccc" />
    <path
       style="fill:#ffd40c;fill-opacity:1;stroke:none;stroke-width:4;stroke-linecap:square;stroke-linejoin:miter;stroke-dasharray:none;stroke-opacity:1"
       d="M 265.37258,130 288,152.62742 310.62742,130 288,107.37258 Z"
       id="path60272"
       sodipodi:nodetypes="ccccc" />
    <path
       style="fill:#ffd40c;fill-opacity:1;stroke:none;stroke-width:4;stroke-linecap:square;stroke-linejoin:miter;stroke-dasharray:none;stroke-opacity:1"
       d="M 313.37258,130 336,152.62742 358.62742,130 336,107.37258 Z"
       id="path60274"
       sodipodi:nodetypes="ccccc" />
    <path
       style="fill:#ffd40c;fill-opacity:1;stroke:none;stroke-width:4;stroke-linecap:square;stroke-linejoin:miter;stroke-dasharray:none;stroke-opacity:1"
       d="M 145.37258,156 168,178.62742 190.62742,156 168,133.37258 Z"
       id="path60278"
       sodipodi:nodetypes="ccccc" />
    <path
       style="fill:#ffd40c;fill-opacity:1;stroke:none;stroke-width:4;stroke-linecap:square;stroke-linejoin:miter;stroke-dasharray:none;stroke-opacity:1"
       d="M 193.37258,156 216,178.62742 238.62742,156 216,133.37258 Z"
       id="path60280"
       sodipodi:nodetypes="ccccc" />
    <path
       style="fill:#ffd40c;fill-opacity:1;stroke:none;stroke-width:4;stroke-linecap:square;stroke-linejoin:miter;stroke-dasharray:none;stroke-opacity:1"
       d="M 241.37258,156 264,178.62742 286.62742,156 264,133.37258 Z"
       id="path60282"
       sodipodi:nodetypes="ccccc" />
    <path
       style="fill:#ffd40c;fill-opacity:1;stroke:none;stroke-width:4;stroke-linecap:square;stroke-linejoin:miter;stroke-dasharray:none;stroke-opacity:1"
       d="M 289.37258,156 312,178.62742 334.62742,156 312,133.37258 Z"
       id="path60284"
       sodipodi:nodetypes="ccccc" />
    <path
       style="fill:#ffd40c;fill-opacity:1;stroke:none;stroke-width:4;stroke-linecap:square;stroke-linejoin:miter;stroke-dasharray:none;stroke-opacity:1"
       d="M 337.37258,156 360,178.62742 382.62742,156 360,133.37258 Z"
       id="path60286"
       sodipodi:nodetypes="ccccc" />
    <path
       style="fill:#ffd40c;fill-opacity:1;stroke:none;stroke-width:4;stroke-linecap:square;stroke-linejoin:miter;stroke-dasharray:none;stroke-opacity:1"
       d="M 169.37258,182 192,204.62742 214.62742,182 192,159.37258 Z"
       id="path60292"
       sodipodi:nodetypes="ccccc" />
    <path
       style="fill:#ffd40c;fill-opacity:1;stroke:none;stroke-width:4;stroke-linecap:square;stroke-linejoin:miter;stroke-dasharray:none;stroke-opacity:1"
       d="M 217.37258,182 240,204.62742 262.62742,182 240,159.37258 Z"
       id="path60294"
       sodipodi:nodetypes="ccccc" />
    <path
       style="fill:#ffd40c;fill-opacity:1;stroke:none;stroke-width:4;stroke-linecap:square;stroke-linejoin:miter;stroke-dasharray:none;stroke-opacity:1"
       d="M 265.37258,182 288,204.62742 310.62742,182 288,159.37258 Z"
       id="path60296"
       sodipodi:nodetypes="ccccc" />
    <path
       style="fill:#ffd40c;fill-opacity:1;stroke:none;stroke-width:4;stroke-linecap:square;stroke-linejoin:miter;stroke-dasharray:none;stroke-opacity:1"
       d="M 313.37258,182 336,204.62742 358.62742,182 336,159.37258 Z"
       id="path60298"
       sodipodi:nodetypes="ccccc" />
    <path
       style="fill:#ffd40c;fill-opacity:1;stroke:none;stroke-width:4;stroke-linecap:square;stroke-linejoin:miter;stroke-dasharray:none;stroke-opacity:1"
       d="M 145.37258,208 168,230.62742 190.62742,208 168,185.37258 Z"
       id="path60302"
       sodipodi:nodetypes="ccccc" />
    <path
       style="fill:#ffd40c;fill-opacity:1;stroke:none;stroke-width:4;stroke-linecap:square;stroke-linejoin:miter;stroke-dasharray:none;stroke-opacity:1"
       d="M 193.37258,208 216,230.62742 238.62742,208 216,185.37258 Z"
       id="path60304"
       sodipodi:nodetypes="ccccc" />
    <path
       style="fill:#ffd40c;fill-opacity:1;stroke:none;stroke-width:4;stroke-linecap:square;stroke-linejoin:miter;stroke-dasharray:none;stroke-opacity:1"
       d="M 241.37258,208 264,230.62742 286.62742,208 264,185.37258 Z"
       id="path60306"
       sodipodi:nodetypes="ccccc" />
    <path
       style="fill:#ffd40c;fill-opacity:1;stroke:none;stroke-width:4;stroke-linecap:square;stroke-linejoin:miter;stroke-dasharray:none;stroke-opacity:1"
       d="M 289.37258,208 312,230.62742 334.62742,208 312,185.37258 Z"
       id="path60308"
       sodipodi:nodetypes="ccccc" />
    <path
       style="fill:#ffd40c;fill-opacity:1;stroke:none;stroke-width:4;stroke-linecap:square;stroke-linejoin:miter;stroke-dasharray:none;stroke-opacity:1"
       d="M 169.37258,234 192,256.62742 214.62742,234 192,211.37258 Z"
       id="path60316"
       sodipodi:nodetypes="ccccc" />
    <path
       style="fill:#ffd40c;fill-opacity:1;stroke:none;stroke-width:4;stroke-linecap:square;stroke-linejoin:miter;stroke-dasharray:none;stroke-opacity:1"
       d="M 217.37258,234 240,256.62742 262.62742,234 240,211.37258 Z"
       id="path60318"
       sodipodi:nodetypes="ccccc" />
    <path
       style="fill:#ffd40c;fill-opacity:1;stroke:none;stroke-width:4;stroke-linecap:square;stroke-linejoin:miter;stroke-dasharray:none;stroke-opacity:1"
       d="M 265.37258,234 288,256.62742 310.62742,234 288,211.37258 Z"
       id="path60320"
       sodipodi:nodetypes="ccccc" />
    <path
       style="fill:#ffd40c;fill-opacity:1;stroke:none;stroke-width:4;stroke-linecap:square;stroke-linejoin:miter;stroke-dasharray:none;stroke-opacity:1"
       d="M 313.37258,234 336,256.62742 358.62742,234 336,211.37258 Z"
       id="path60322"
       sodipodi:nodetypes="ccccc" />
    <path
       style="fill:#ffd40c;fill-opacity:1;stroke:none;stroke-width:4;stroke-linecap:square;stroke-linejoin:miter;stroke-dasharray:none;stroke-opacity:1"
       d="M 193.37258,260 216,282.62742 238.62742,260 216,237.37258 Z"
       id="path60328"
       sodipodi:nodetypes="ccccc" />
    <path
       style="fill:#ffd40c;fill-opacity:1;stroke:none;stroke-width:4;stroke-linecap:square;stroke-linejoin:miter;stroke-dasharray:none;stroke-opacity:1"
       d="M 241.37258,260 264,282.62742 286.62742,260 264,237.37258 Z"
       id="path60330"
       sodipodi:nodetypes="ccccc" />
    <path
       style="fill:#ffd40c;fill-opacity:1;stroke:none;stroke-width:4;stroke-linecap:square;stroke-linejoin:miter;stroke-dasharray:none;stroke-opacity:1"
       d="M 289.37258,260 312,282.62742 334.62742,260 312,237.37258 Z"
       id="path60332"
       sodipodi:nodetypes="ccccc" />
    <path
       style="fill:#ffd40c;fill-opacity:1;stroke:none;stroke-width:4;stroke-linecap:square;stroke-linejoin:miter;stroke-dasharray:none;stroke-opacity:1"
       d="M 169.37258,286 192,308.62742 214.62742,286 192,263.37258 Z"
       id="path60340"
       sodipodi:nodetypes="ccccc" />
    <path
       style="fill:#ffd40c;fill-opacity:1;stroke:none;stroke-width:4;stroke-linecap:square;stroke-linejoin:miter;stroke-dasharray:none;stroke-opacity:1"
       d="M 217.37258,286 240,308.62742 262.62742,286 240,263.37258 Z"
       id="path60342"
       sodipodi:nodetypes="ccccc" />
    <path
       style="fill:#ffd40c;fill-opacity:1;stroke:none;stroke-width:4;stroke-linecap:square;stroke-linejoin:miter;stroke-dasharray:none;stroke-opacity:1"
       d="M 265.37258,286 288,308.62742 310.62742,286 288,263.37258 Z"
       id="path60344"
       sodipodi:nodetypes="ccccc" />
    <path
       style="fill:#ffd40c;fill-opacity:1;stroke:none;stroke-width:4;stroke-linecap:square;stroke-linejoin:miter;stroke-dasharray:none;stroke-opacity:1"
       d="M 313.37258,286 336,308.62742 358.62742,286 336,263.37258 Z"
       id="path60346"
       sodipodi:nodetypes="ccccc" />
    <path
       style="fill:#ffd40c;fill-opacity:1;stroke:none;stroke-width:4;stroke-linecap:square;stroke-linejoin:miter;stroke-dasharray:none;stroke-opacity:1"
       d="M 193.37258,312 216,334.62742 238.62742,312 216,289.37258 Z"
       id="path60352"
       sodipodi:nodetypes="ccccc" />
    <path
       style="fill:#ffd40c;fill-opacity:1;stroke:none;stroke-width:4;stroke-linecap:square;stroke-linejoin:miter;stroke-dasharray:none;stroke-opacity:1"
       d="M 241.37258,312 264,334.62742 286.62742,312 264,289.37258 Z"
       id="path60354"
       sodipodi:nodetypes="ccccc" />
    <path
       style="fill:#ffd40c;fill-opacity:1;stroke:none;stroke-width:4;stroke-linecap:square;stroke-linejoin:miter;stroke-dasharray:none;stroke-opacity:1"
       d="M 289.37258,312 312,334.62742 334.62742,312 312,289.37258 Z"
       id="path60356"
       sodipodi:nodetypes="ccccc" />
    <path
       style="fill:#ffd40c;fill-opacity:1;stroke:none;stroke-width:4;stroke-linecap:square;stroke-linejoin:miter;stroke-dasharray:none;stroke-opacity:1"
       d="M 169.37258,338 192,360.62742 214.62742,338 192,315.37258 Z"
       id="path60364"
       sodipodi:nodetypes="ccccc" />
    <path
       style="fill:#ffd40c;fill-opacity:1;stroke:none;stroke-width:4;stroke-linecap:square;stroke-linejoin:miter;stroke-dasharray:none;stroke-opacity:1"
       d="M 217.37258,338 240,360.62742 262.62742,338 240,315.37258 Z"
       id="path60366"
       sodipodi:nodetypes="ccccc" />
    <path
       style="fill:#ffd40c;fill-opacity:1;stroke:none;stroke-width:4;stroke-linecap:square;stroke-linejoin:miter;stroke-dasharray:none;stroke-opacity:1"
       d="M 265.37258,338 288,360.62742 310.62742,338 288,315.37258 Z"
       id="path60368"
       sodipodi:nodetypes="ccccc" />
    <path
       style="fill:#ffd40c;fill-opacity:1;stroke:none;stroke-width:4;stroke-linecap:square;stroke-linejoin:miter;stroke-dasharray:none;stroke-opacity:1"
       d="M 193.37258,364 216,386.62742 238.62742,364 216,341.37258 Z"
       id="path60376"
       sodipodi:nodetypes="ccccc" />
    <path
       style="fill:#ffd40c;fill-opacity:1;stroke:none;stroke-width:4;stroke-linecap:square;stroke-linejoin:miter;stroke-dasharray:none;stroke-opacity:1"
       d="M 241.37258,364 264,386.62742 286.62742,364 264,341.37258 Z"
       id="path60378"
       sodipodi:nodetypes="ccccc" />
    <path
       style="fill:#ffd40c;fill-opacity:1;stroke:none;stroke-width:4;stroke-linecap:square;stroke-linejoin:miter;stroke-dasharray:none;stroke-opacity:1"
       d="M 289.37258,364 312,386.62742 334.62742,364 312,341.37258 Z"
       id="path60380"
       sodipodi:nodetypes="ccccc" />
    <path
       style="fill:#ffd40c;fill-opacity:1;stroke:none;stroke-width:4;stroke-linecap:square;stroke-linejoin:miter;stroke-dasharray:none;stroke-opacity:1"
       d="M 241.37258,468 264,490.62742 286.62742,468 264,445.37258 Z"
       id="path60426"
       sodipodi:nodetypes="ccccc" />
    <path
       style="fill:#ffd40c;fill-opacity:1;stroke:none;stroke-width:4;stroke-linecap:square;stroke-linejoin:miter;stroke-dasharray:none;stroke-opacity:1"
       d="m 217.37258,494 17.31371,17.31371 h 10.62742 L 262.62742,494 240,471.37258 Z"
       id="path60434"
       sodipodi:nodetypes="cccccc" />
    <path
       style="fill:#6b0804;stroke:none;stroke-width:16;stroke-linecap:square;stroke-linejoin:bevel"
       d="m 72,14 h 56 L 256,512 384,14 h 66 c 0,0 15.28805,11.492238 16,20 l 40,478 H 6 L 46,34 C 46.911804,23.103938 72,14 72,14 Z"
       id="path37279"
       sodipodi:nodetypes="cccccsccsc" />
    <path
       style="fill:#372100;stroke:none;fill-opacity:0.5"
       d="m 260,47 -8,1 c 0,14.0309 1.576,27.9493 0.961,42 -1.153,26.328 -5.316,52.867 -8.672,79 -2.209,17.206 -3.073,37.296 -19.29,47.982 -9.935,6.547 -25.342,2.34 -35.999,-0.087 -22.721,-5.175 -45.519,-9.82499 -68,-16.185 -9.001,-2.547 -18.969,-3.54 -27.000001,-8.672 -6.1563,-3.934 -10.9325,-9.307 -15.3488,-15.038 -2.9649,-3.848 -5.3769,-8.599 -9.6512,-11 -0.3968,9.217 -6.1225,20.973 -3.5664,29.961 1.1631,4.089 5.3763,6.894 8.5664,9.374 9.0739,7.053 18.9249,11.703 30.000001,14.665 -5.411401,22.508 -31.427201,2.222 -42.000001,-5 -0.6659,2.915 -1.8807,5.971 -1.5772,9 1.0342,10.317 12.1369,13.345 20.5772,14.999 2.6586,0.521 7.4039,0.391 9.3025,2.604 4.0564,4.728 -5.8161,16.067 -10.3033,17.06401 -8.2276,1.82799 -16.972,-6.75101 -23.9992,-9.66701 0.007,11.072 3.9092,16.956 15,19.942 3.592,0.967 9.6346,-0.61 11.7276,3.337 1.4473,2.73 -0.2622,6.269 -1.5524,8.72001 -6.1868,11.75199 -19.7819,4.854 -29.1752,1.001 l -1,1 c 2.2933,9.49599 5.2815,15.3 16,16.522 3.6558,0.41599 7.5448,-1.171 11,0.50999 7.0718,3.44 12.7115,10.053 20,13.698 C 113.515,321.489 130.355,325.596 147,330 c 1.586,-8.543 1.212,-18.548 6.699,-25.895 3.497,-4.682 10.335,-7.268 15.301,-10.104 12.314,-7.034 25.552,-13.125 39,-17.645 4.792,-1.611 11.942,-4.428 17,-3.644 15.721,2.437 23.217,13.957 31,26.28801 h 2 c 1.501,-4.33 3.489,-8.40301 6.379,-11.99901 5.446,-6.778 15.597,-13.898 24.621,-14.499 3.709,-0.247 7.481,1.389 11,2.347 10.793,2.936 20.863,7.658 31,12.328 8.949,4.124 23.61,9.505 29.297,17.838 4.403,6.452 5.375,17.357 5.703,24.985 16.579,-3.792 33.818,-8.267 49,-16.109 7.488,-3.867 13.657,-10.359 21,-14.005 3.196,-1.587 6.628,-0.248 10,-0.519 8.949,-0.72 17.073,-6.67 15,-16.367 -6.472,1.497 -15.325,6.342 -21.985,4.562 -5.188,-1.385 -11.352,-11.056 -7.983,-16.244 2.48,-3.82 9.183,-1.884 12.968,-2.708 10.474,-2.282 12.999,-10.21 13,-19.61 -7.012,2.949 -15.72,11.518 -23.996,9.667 -4.705,-1.053 -13.767,-12.027 -10.052,-17.067 2.373,-3.22 10.464,-2.639 14.048,-3.419 12.018,-2.618 17.979,-11.423 14,-23.181 -9.658,6.722 -17.861,13.565 -30,15.29 -4.08,0.58 -13.01,-3.608 -10.052,-8.987 1.285,-2.337 4.784,-2.882 7.052,-3.741 4.191,-1.588 8.16,-3.712 12,-6.011 5.577,-3.34 13.853,-7.622 16.972,-13.59 1.889,-3.614 0.746,-8.192 0.028,-11.961 -1.267,-6.653 -1.031,-13.839 -4,-20 -7.625,8.736 -12.912,19.102 -23,25.557 -8.176,5.232 -18.709,7.078 -28,9.594 -18.864,5.109 -37.96,9.137 -57,13.5 -12.92,2.961 -27.61,7.687 -41,5.006 -9.161,-1.835 -16.789,-12.53 -20.197,-20.657 -4.981,-11.879 -4.604,-26.429 -6.088,-39 -2.736,-23.156 -6.898,-46.677 -7.68,-70 -0.31,-9.2796 -0.177,-18.7647 0.019,-28 0.112,-5.2627 2.31,-9.9586 -0.054,-15 m -5,162.434 c 4.362,-0.699 8.499,2.015 12,4.264 5.61,3.605 10.998,7.684 16.424,11.563 2.878,2.057 5.97,4.784 9.576,5.348 7.3,1.141 16.653,-1.737 24,-2.439 16.579,-1.584 33.541,-2.355 50,-4.595 9.538,-1.299 24.126,-5.597 32.996,-0.485 4.238,2.442 6.864,6.791 9.258,10.91 6.318,10.873 9.06,23.837 11.626,36 1.07,5.068 2.541,13.165 0.092,17.996 -3.424,6.756 -13.094,9.985 -19.972,11.664 -6.788,1.658 -15.448,4.237 -21.829,0.112 -6.098,-3.942 -8.761,-11.693 -15.21,-15.24 -4.632,-2.547 -10.021,-3.78 -14.961,-5.585 -9.97,-3.644 -19.932,-7.348 -30,-10.695 -7.5,-2.494 -15.982,-7.046 -24,-7.17 -13.653,-0.212 -24.88,9.481 -38,10.357 -3.757,0.251 -7.548,-1.863 -11,-3.099 -7.497,-2.682 -14.996,-6.198 -23,-7.156 -13.119,-1.569 -28.829,7.049 -41,11.356 -10.406,3.683 -23.662,6.403 -32.996,12.303 -10.401,6.574 -12.3,19.216 -27.004,16.832 -9.113,-1.477 -23.981101,-4.013 -29.061701,-12.69 -2.8081,-4.796 -1.2957,-10.776 -0.8519,-15.985 1.0501,-12.325 5.1787,-24.885 10.465601,-36 2.582,-5.429 5.971,-11.483 11.463,-14.427 7.743,-4.152 19.662,-0.238 27.985,0.345 18.053,1.266 35.99,3.45 54,5.251 7.436,0.744 15.542,2.792 23,2.528 4.214,-0.15 7.322,-3.215 10.576,-5.527 7.183,-5.106 16.49,-14.306 25.424,-15.736 m 1,103.56601 c -1.329,9.869 -3.031,27.906 -11.108,34.682 -5.582,4.683 -16.106,1.842 -22.892,2.488 -13.96,1.32799 -27.995,2.515 -42,3.454 -5.488,0.368 -11.526,2.671 -17,1.294 -5.353,-1.346 -9.883,-5.58801 -13,-9.918 h -1 c 0.173,8.13499 2.957,17.475 12,19.452 4.747,1.038 11.128,-0.20801 16,-0.542 16.054,-1.1 31.857,-2.098 48,-1.906 8.129,0.097 17.266,0.777 22.301,8.011 7.102,10.205 9.147,30.694 -5.302,36.243 -3.641,1.398 -8.177,0.7 -11.999,0.746 -5.634,0.067 -11.367,0.519 -17,0.8 -12.031,0.601 -23.986,2.404 -36,3.285 -4.939,0.362 -10.104,1.793 -15,0.258 -5.14,-1.611 -8.711,-6.328 -13,-9.347 0.828,6.518 1.821,14.107 8.043,17.772 6.495,3.825 13.075,0.841 19.957,0.528 14.966,-0.679 30.017,-0.3 45,-0.3 8.593,0 19.458,-1.817 25.301,6.094 7.167,9.705 9.196,32.127 -4.341,37.897 -3.655,1.558 -8.085,0.991 -11.96,1.01 -5.656,0.027 -11.345,0.537 -17,0.744 -10.84,0.397 -22.249,1.268 -33,2.54 -5.584,0.662 -12.894,3.004 -18.424,1.46 -4.904,-1.37 -8.529,-5.906 -12.576,-8.745 0.023,2.707 0.028,5.375 0.789,8 4.815,16.607 26.446,9.168 39.211,8.996 43.277,-0.581 86.717,-1.931 130,-0.035 5.32,0.233 10.694,-0.305 16,0.209 10.542,1.02 22.304,4.29 26.211,-9.17 0.761,-2.625 0.766,-5.294 0.789,-8 -3.926,2.754 -7.309,6.877 -12,8.34699 -6.194,1.942 -13.741,-0.31799 -20,-1.062 -10.782,-1.27999 -22.149,-2.281 -33,-2.69099 -8.19,-0.31 -20.353,1.639 -27.96,-1.60301 -3.991,-1.702 -5.516,-5.25099 -7.115,-8.99099 -4.072,-9.52801 -3.911,-20.21 2.724,-28.907 6.08,-7.97001 16.525,-6.093 25.351,-6.093 14.567,0 29.468,-0.911 44,0.09 7.221,0.497 14.185,3.598 20.96,-0.457 6.368,-3.812 7.186,-10.909 8.04,-17.63299 -4.289,3.019 -7.86,7.73599 -13,9.34699 -4.896,1.53501 -10.061,0.104 -15,-0.25799 -12.651,-0.928 -25.319,-3.015 -38,-3.495 -7.966,-0.301 -19.52,1.536 -26.999,-1.33601 -14.152,-5.435 -12.561,-26.21799 -5.352,-36.243 5.999,-8.34299 16.071,-8.01499 25.351,-8.01499 16.092,0 31.996,1.846 48,2 6.438,0.062 13.114,1.922 18.892,-2.005 5.088,-3.459 6.342,-11.31401 7.108,-16.995 -4.742,3.327 -9.076,8.959 -15,10.18099 -5.886,1.215 -13.122,-1.183 -19,-1.896 -10.862,-1.31599 -22.057,-2.229 -33,-2.286 -4.379,-0.022 -8.636,-0.877 -13,-0.984 -5.461,-0.134 -12.131,1.11201 -16.671,-2.668 -10.451,-8.69999 -4.997,-24.719 -12.329,-34.34699 z"
       id="path55211" />
    <path
       style="fill:#a8a8a0;stroke:#212221;stroke-width:4;stroke-linecap:square;stroke-linejoin:miter;stroke-dasharray:none;stroke-opacity:1"
       d="m 12,464 8,-96 h 60 v 96 z"
       id="path40974"
       sodipodi:nodetypes="ccccc" />
    <path
       style="fill:#a8a8a0;stroke:#212221;stroke-width:4;stroke-linecap:square;stroke-linejoin:miter;stroke-opacity:1;stroke-dasharray:none"
       d="m 84,378 h 34 v 76 H 84 Z"
       id="path42428"
       sodipodi:nodetypes="ccccc" />
    <path
       style="fill:#a8a8a0;stroke:#212221;stroke-width:4;stroke-linecap:square;stroke-linejoin:miter;stroke-opacity:1;stroke-dasharray:none"
       d="m 122,378 h 34 v 76 h -34 z"
       id="path42432"
       sodipodi:nodetypes="ccccc" />
    <path
       style="fill:#a8a8a0;stroke:#212221;stroke-width:4;stroke-linecap:square;stroke-linejoin:miter;stroke-opacity:1;stroke-dasharray:none"
       d="m 160,378 h 34 v 76 h -34 z"
       id="path42434"
       sodipodi:nodetypes="ccccc" />
    <path
       style="fill:#a8a8a0;stroke:#212221;stroke-width:4;stroke-linecap:square;stroke-linejoin:miter;stroke-dasharray:none;stroke-opacity:1"
       d="m 500,464 -8,-96 h -60 v 96 z"
       id="path42436"
       sodipodi:nodetypes="ccccc" />
    <path
       style="fill:#a8a8a0;stroke:#212221;stroke-width:4;stroke-linecap:square;stroke-linejoin:miter;stroke-opacity:1;stroke-dasharray:none"
       d="m 428,378 h -34 v 76 h 34 z"
       id="path42438"
       sodipodi:nodetypes="ccccc" />
    <path
       style="fill:#a8a8a0;stroke:#212221;stroke-width:4;stroke-linecap:square;stroke-linejoin:miter;stroke-opacity:1;stroke-dasharray:none"
       d="m 390,378 h -34 v 76 h 34 z"
       id="path42440"
       sodipodi:nodetypes="ccccc" />
    <path
       style="fill:#a8a8a0;stroke:#212221;stroke-width:4;stroke-linecap:square;stroke-linejoin:miter;stroke-opacity:1;stroke-dasharray:none"
       d="m 352,378 h -34 v 76 h 34 z"
       id="path42442"
       sodipodi:nodetypes="ccccc" />
    <path
       style="fill:#a8a8a0;stroke:#212221;stroke-width:4;stroke-linecap:square;stroke-linejoin:miter;stroke-opacity:1;stroke-dasharray:none"
       d="m 198,464 v -96 h 116 v 96 z"
       id="path43896"
       sodipodi:nodetypes="ccccc" />
    <path
       style="fill:none;stroke:#212221;stroke-width:4;stroke-linecap:square;stroke-linejoin:miter;stroke-dasharray:none;stroke-opacity:1"
       d="m 200,370 c 0,0 17.28666,36.7856 28,54 8.31345,13.35822 28,38 28,38 0,0 19.68655,-24.64178 28,-38 10.71334,-17.2144 28,-54 28,-54 h -10 c 0,0 -16.33364,17.92784 -23,28 -9.13408,13.80063 -23,44 -23,44 0,0 -14.28534,-28.62718 -23,-42 -6.87962,-10.55692 -23,-30 -23,-30 z"
       id="path45381"
       sodipodi:nodetypes="cacaccacacc" />
  </g>
</svg>
