<?xml version="1.0" encoding="UTF-8" standalone="no"?>
<!-- Created with Inkscape (http://www.inkscape.org/) -->

<svg
   width="512px"
   height="512px"
   viewBox="0 0 512 512"
   version="1.1"
   id="SVGRoot"
   sodipodi:docname="Torso Back Shocker.svg"
   inkscape:version="1.2.2 (b0a8486541, 2022-12-01)"
   xmlns:inkscape="http://www.inkscape.org/namespaces/inkscape"
   xmlns:sodipodi="http://sodipodi.sourceforge.net/DTD/sodipodi-0.dtd"
   xmlns="http://www.w3.org/2000/svg"
   xmlns:svg="http://www.w3.org/2000/svg">
  <sodipodi:namedview
     id="namedview35957"
     pagecolor="#ffffff"
     bordercolor="#000000"
     borderopacity="0.25"
     inkscape:showpageshadow="2"
     inkscape:pageopacity="0.0"
     inkscape:pagecheckerboard="0"
     inkscape:deskcolor="#d1d1d1"
     inkscape:document-units="px"
     showgrid="false"
     inkscape:zoom="1.0645786"
     inkscape:cx="229.19867"
     inkscape:cy="304.34577"
     inkscape:window-width="1912"
     inkscape:window-height="1011"
     inkscape:window-x="1924"
     inkscape:window-y="28"
     inkscape:window-maximized="0"
     inkscape:current-layer="layer1" />
  <defs
     id="defs35952" />
  <g
     inkscape:label="Layer 1"
     inkscape:groupmode="layer"
     id="layer1">
    <rect
       style="fill:#ffd40c;stroke:none;stroke-width:32.612;stroke-linecap:square;stroke-linejoin:bevel"
       id="rect36188"
       width="512"
       height="512"
       x="0"
       y="0" />
    <path
       style="fill:#ad5500;fill-opacity:1;stroke:none;stroke-width:4;stroke-linecap:square;stroke-linejoin:miter;stroke-dasharray:none;stroke-opacity:1"
       d="M 72,14 46,34 6,512 H 506 L 466,34 450,14 Z"
       id="path59624"
       sodipodi:nodetypes="ccccccc" />
    <path
       style="fill:#ffd40c;fill-opacity:1;stroke:none;stroke-width:4;stroke-linecap:square;stroke-linejoin:miter;stroke-dasharray:none;stroke-opacity:1"
       d="M 121.37258,26 144,48.627417 166.62742,26 144,3.372583 Z"
       id="path60208"
       sodipodi:nodetypes="ccccc" />
    <path
       style="fill:#ffd40c;fill-opacity:1;stroke:none;stroke-width:4;stroke-linecap:square;stroke-linejoin:miter;stroke-dasharray:none;stroke-opacity:1"
       d="M 169.37258,26 192,48.627417 214.62742,26 192,3.372583 Z"
       id="path60210"
       sodipodi:nodetypes="ccccc" />
    <path
       style="fill:#ffd40c;fill-opacity:1;stroke:none;stroke-width:4;stroke-linecap:square;stroke-linejoin:miter;stroke-dasharray:none;stroke-opacity:1"
       d="M 145.37258,0 168,22.627417 190.62742,0 Z"
       id="path60212"
       sodipodi:nodetypes="cccc" />
    <path
       style="fill:#ffd40c;fill-opacity:1;stroke:none;stroke-width:4;stroke-linecap:square;stroke-linejoin:miter;stroke-dasharray:none;stroke-opacity:1"
       d="M 217.37258,26 240,48.627417 262.62742,26 240,3.372583 Z"
       id="path60214"
       sodipodi:nodetypes="ccccc" />
    <path
       style="fill:#ffd40c;fill-opacity:1;stroke:none;stroke-width:4;stroke-linecap:square;stroke-linejoin:miter;stroke-dasharray:none;stroke-opacity:1"
       d="M 193.37258,0 216,22.627417 238.62742,0 Z"
       id="path60216"
       sodipodi:nodetypes="cccc" />
    <path
       style="fill:#ffd40c;fill-opacity:1;stroke:none;stroke-width:4;stroke-linecap:square;stroke-linejoin:miter;stroke-dasharray:none;stroke-opacity:1"
       d="M 265.37258,26 288,48.627417 310.62742,26 288,3.372583 Z"
       id="path60218"
       sodipodi:nodetypes="ccccc" />
    <path
       style="fill:#ffd40c;fill-opacity:1;stroke:none;stroke-width:4;stroke-linecap:square;stroke-linejoin:miter;stroke-dasharray:none;stroke-opacity:1"
       d="M 241.37258,0 264,22.627417 286.62742,0 Z"
       id="path60220"
       sodipodi:nodetypes="cccc" />
    <path
       style="fill:#ffd40c;fill-opacity:1;stroke:none;stroke-width:4;stroke-linecap:square;stroke-linejoin:miter;stroke-dasharray:none;stroke-opacity:1"
       d="M 313.37258,26 336,48.627417 358.62742,26 336,3.372583 Z"
       id="path60222"
       sodipodi:nodetypes="ccccc" />
    <path
       style="fill:#ffd40c;fill-opacity:1;stroke:none;stroke-width:4;stroke-linecap:square;stroke-linejoin:miter;stroke-dasharray:none;stroke-opacity:1"
       d="M 289.37258,0 312,22.627417 334.62742,0 Z"
       id="path60224"
       sodipodi:nodetypes="cccc" />
    <path
       style="fill:#ffd40c;fill-opacity:1;stroke:none;stroke-width:4;stroke-linecap:square;stroke-linejoin:miter;stroke-dasharray:none;stroke-opacity:1"
       d="M 361.37258,26 384,48.627417 406.62742,26 384,3.372583 Z"
       id="path60226"
       sodipodi:nodetypes="ccccc" />
    <path
       style="fill:#ffd40c;fill-opacity:1;stroke:none;stroke-width:4;stroke-linecap:square;stroke-linejoin:miter;stroke-dasharray:none;stroke-opacity:1"
       d="M 337.37258,0 360,22.627417 382.62742,0 Z"
       id="path60228"
       sodipodi:nodetypes="cccc" />
    <path
       style="fill:#ffd40c;fill-opacity:1;stroke:none;stroke-width:4;stroke-linecap:square;stroke-linejoin:miter;stroke-dasharray:none;stroke-opacity:1"
       d="M 145.37258,52 168,74.627417 190.62742,52 168,29.372583 Z"
       id="path60230"
       sodipodi:nodetypes="ccccc" />
    <path
       style="fill:#ffd40c;fill-opacity:1;stroke:none;stroke-width:4;stroke-linecap:square;stroke-linejoin:miter;stroke-dasharray:none;stroke-opacity:1"
       d="M 193.37258,52 216,74.627417 238.62742,52 216,29.372583 Z"
       id="path60232"
       sodipodi:nodetypes="ccccc" />
    <path
       style="fill:#ffd40c;fill-opacity:1;stroke:none;stroke-width:4;stroke-linecap:square;stroke-linejoin:miter;stroke-dasharray:none;stroke-opacity:1"
       d="M 241.37258,52 264,74.627417 286.62742,52 264,29.372583 Z"
       id="path60234"
       sodipodi:nodetypes="ccccc" />
    <path
       style="fill:#ffd40c;fill-opacity:1;stroke:none;stroke-width:4;stroke-linecap:square;stroke-linejoin:miter;stroke-dasharray:none;stroke-opacity:1"
       d="M 289.37258,52 312,74.627417 334.62742,52 312,29.372583 Z"
       id="path60236"
       sodipodi:nodetypes="ccccc" />
    <path
       style="fill:#ffd40c;fill-opacity:1;stroke:none;stroke-width:4;stroke-linecap:square;stroke-linejoin:miter;stroke-dasharray:none;stroke-opacity:1"
       d="M 337.37258,52 360,74.627417 382.62742,52 360,29.372583 Z"
       id="path60238"
       sodipodi:nodetypes="ccccc" />
    <path
       style="fill:#ffd40c;fill-opacity:1;stroke:none;stroke-width:4;stroke-linecap:square;stroke-linejoin:miter;stroke-dasharray:none;stroke-opacity:1"
       d="M 97.37258,52 120,74.627417 142.62742,52 120,29.372583 Z"
       id="path60240"
       sodipodi:nodetypes="ccccc" />
    <path
       style="fill:#ffd40c;fill-opacity:1;stroke:none;stroke-width:4;stroke-linecap:square;stroke-linejoin:miter;stroke-dasharray:none;stroke-opacity:1"
       d="M 121.37258,78 144,100.62742 166.62742,78 144,55.372583 Z"
       id="path60242"
       sodipodi:nodetypes="ccccc" />
    <path
       style="fill:#ffd40c;fill-opacity:1;stroke:none;stroke-width:4;stroke-linecap:square;stroke-linejoin:miter;stroke-dasharray:none;stroke-opacity:1"
       d="M 169.37258,78 192,100.62742 214.62742,78 192,55.372583 Z"
       id="path60244"
       sodipodi:nodetypes="ccccc" />
    <path
       style="fill:#ffd40c;fill-opacity:1;stroke:none;stroke-width:4;stroke-linecap:square;stroke-linejoin:miter;stroke-dasharray:none;stroke-opacity:1"
       d="M 217.37258,78 240,100.62742 262.62742,78 240,55.372583 Z"
       id="path60246"
       sodipodi:nodetypes="ccccc" />
    <path
       style="fill:#ffd40c;fill-opacity:1;stroke:none;stroke-width:4;stroke-linecap:square;stroke-linejoin:miter;stroke-dasharray:none;stroke-opacity:1"
       d="M 265.37258,78 288,100.62742 310.62742,78 288,55.372583 Z"
       id="path60248"
       sodipodi:nodetypes="ccccc" />
    <path
       style="fill:#ffd40c;fill-opacity:1;stroke:none;stroke-width:4;stroke-linecap:square;stroke-linejoin:miter;stroke-dasharray:none;stroke-opacity:1"
       d="M 313.37258,78 336,100.62742 358.62742,78 336,55.372583 Z"
       id="path60250"
       sodipodi:nodetypes="ccccc" />
    <path
       style="fill:#ffd40c;fill-opacity:1;stroke:none;stroke-width:4;stroke-linecap:square;stroke-linejoin:miter;stroke-dasharray:none;stroke-opacity:1"
       d="M 361.37258,78 384,100.62742 406.62742,78 384,55.372583 Z"
       id="path60252"
       sodipodi:nodetypes="ccccc" />
    <path
       style="fill:#ffd40c;fill-opacity:1;stroke:none;stroke-width:4;stroke-linecap:square;stroke-linejoin:miter;stroke-dasharray:none;stroke-opacity:1"
       d="M 145.37258,104 168,126.62742 190.62742,104 168,81.372583 Z"
       id="path60254"
       sodipodi:nodetypes="ccccc" />
    <path
       style="fill:#ffd40c;fill-opacity:1;stroke:none;stroke-width:4;stroke-linecap:square;stroke-linejoin:miter;stroke-dasharray:none;stroke-opacity:1"
       d="M 193.37258,104 216,126.62742 238.62742,104 216,81.372583 Z"
       id="path60256"
       sodipodi:nodetypes="ccccc" />
    <path
       style="fill:#ffd40c;fill-opacity:1;stroke:none;stroke-width:4;stroke-linecap:square;stroke-linejoin:miter;stroke-dasharray:none;stroke-opacity:1"
       d="M 241.37258,104 264,126.62742 286.62742,104 264,81.372583 Z"
       id="path60258"
       sodipodi:nodetypes="ccccc" />
    <path
       style="fill:#ffd40c;fill-opacity:1;stroke:none;stroke-width:4;stroke-linecap:square;stroke-linejoin:miter;stroke-dasharray:none;stroke-opacity:1"
       d="M 289.37258,104 312,126.62742 334.62742,104 312,81.372583 Z"
       id="path60260"
       sodipodi:nodetypes="ccccc" />
    <path
       style="fill:#ffd40c;fill-opacity:1;stroke:none;stroke-width:4;stroke-linecap:square;stroke-linejoin:miter;stroke-dasharray:none;stroke-opacity:1"
       d="M 337.37258,104 360,126.62742 382.62742,104 360,81.372583 Z"
       id="path60262"
       sodipodi:nodetypes="ccccc" />
    <path
       style="fill:#ffd40c;fill-opacity:1;stroke:none;stroke-width:4;stroke-linecap:square;stroke-linejoin:miter;stroke-dasharray:none;stroke-opacity:1"
       d="M 121.37258,130 144,152.62742 166.62742,130 144,107.37258 Z"
       id="path60266"
       sodipodi:nodetypes="ccccc" />
    <path
       style="fill:#ffd40c;fill-opacity:1;stroke:none;stroke-width:4;stroke-linecap:square;stroke-linejoin:miter;stroke-dasharray:none;stroke-opacity:1"
       d="M 169.37258,130 192,152.62742 214.62742,130 192,107.37258 Z"
       id="path60268"
       sodipodi:nodetypes="ccccc" />
    <path
       style="fill:#ffd40c;fill-opacity:1;stroke:none;stroke-width:4;stroke-linecap:square;stroke-linejoin:miter;stroke-dasharray:none;stroke-opacity:1"
       d="M 217.37258,130 240,152.62742 262.62742,130 240,107.37258 Z"
       id="path60270"
       sodipodi:nodetypes="ccccc" />
    <path
       style="fill:#ffd40c;fill-opacity:1;stroke:none;stroke-width:4;stroke-linecap:square;stroke-linejoin:miter;stroke-dasharray:none;stroke-opacity:1"
       d="M 265.37258,130 288,152.62742 310.62742,130 288,107.37258 Z"
       id="path60272"
       sodipodi:nodetypes="ccccc" />
    <path
       style="fill:#ffd40c;fill-opacity:1;stroke:none;stroke-width:4;stroke-linecap:square;stroke-linejoin:miter;stroke-dasharray:none;stroke-opacity:1"
       d="M 313.37258,130 336,152.62742 358.62742,130 336,107.37258 Z"
       id="path60274"
       sodipodi:nodetypes="ccccc" />
    <path
       style="fill:#ffd40c;fill-opacity:1;stroke:none;stroke-width:4;stroke-linecap:square;stroke-linejoin:miter;stroke-dasharray:none;stroke-opacity:1"
       d="M 145.37258,156 168,178.62742 190.62742,156 168,133.37258 Z"
       id="path60278"
       sodipodi:nodetypes="ccccc" />
    <path
       style="fill:#ffd40c;fill-opacity:1;stroke:none;stroke-width:4;stroke-linecap:square;stroke-linejoin:miter;stroke-dasharray:none;stroke-opacity:1"
       d="M 193.37258,156 216,178.62742 238.62742,156 216,133.37258 Z"
       id="path60280"
       sodipodi:nodetypes="ccccc" />
    <path
       style="fill:#ffd40c;fill-opacity:1;stroke:none;stroke-width:4;stroke-linecap:square;stroke-linejoin:miter;stroke-dasharray:none;stroke-opacity:1"
       d="M 241.37258,156 264,178.62742 286.62742,156 264,133.37258 Z"
       id="path60282"
       sodipodi:nodetypes="ccccc" />
    <path
       style="fill:#ffd40c;fill-opacity:1;stroke:none;stroke-width:4;stroke-linecap:square;stroke-linejoin:miter;stroke-dasharray:none;stroke-opacity:1"
       d="M 289.37258,156 312,178.62742 334.62742,156 312,133.37258 Z"
       id="path60284"
       sodipodi:nodetypes="ccccc" />
    <path
       style="fill:#ffd40c;fill-opacity:1;stroke:none;stroke-width:4;stroke-linecap:square;stroke-linejoin:miter;stroke-dasharray:none;stroke-opacity:1"
       d="M 337.37258,156 360,178.62742 382.62742,156 360,133.37258 Z"
       id="path60286"
       sodipodi:nodetypes="ccccc" />
    <path
       style="fill:#ffd40c;fill-opacity:1;stroke:none;stroke-width:4;stroke-linecap:square;stroke-linejoin:miter;stroke-dasharray:none;stroke-opacity:1"
       d="M 169.37258,182 192,204.62742 214.62742,182 192,159.37258 Z"
       id="path60292"
       sodipodi:nodetypes="ccccc" />
    <path
       style="fill:#ffd40c;fill-opacity:1;stroke:none;stroke-width:4;stroke-linecap:square;stroke-linejoin:miter;stroke-dasharray:none;stroke-opacity:1"
       d="M 217.37258,182 240,204.62742 262.62742,182 240,159.37258 Z"
       id="path60294"
       sodipodi:nodetypes="ccccc" />
    <path
       style="fill:#ffd40c;fill-opacity:1;stroke:none;stroke-width:4;stroke-linecap:square;stroke-linejoin:miter;stroke-dasharray:none;stroke-opacity:1"
       d="M 265.37258,182 288,204.62742 310.62742,182 288,159.37258 Z"
       id="path60296"
       sodipodi:nodetypes="ccccc" />
    <path
       style="fill:#ffd40c;fill-opacity:1;stroke:none;stroke-width:4;stroke-linecap:square;stroke-linejoin:miter;stroke-dasharray:none;stroke-opacity:1"
       d="M 313.37258,182 336,204.62742 358.62742,182 336,159.37258 Z"
       id="path60298"
       sodipodi:nodetypes="ccccc" />
    <path
       style="fill:#ffd40c;fill-opacity:1;stroke:none;stroke-width:4;stroke-linecap:square;stroke-linejoin:miter;stroke-dasharray:none;stroke-opacity:1"
       d="M 145.37258,208 168,230.62742 190.62742,208 168,185.37258 Z"
       id="path60302"
       sodipodi:nodetypes="ccccc" />
    <path
       style="fill:#ffd40c;fill-opacity:1;stroke:none;stroke-width:4;stroke-linecap:square;stroke-linejoin:miter;stroke-dasharray:none;stroke-opacity:1"
       d="M 193.37258,208 216,230.62742 238.62742,208 216,185.37258 Z"
       id="path60304"
       sodipodi:nodetypes="ccccc" />
    <path
       style="fill:#ffd40c;fill-opacity:1;stroke:none;stroke-width:4;stroke-linecap:square;stroke-linejoin:miter;stroke-dasharray:none;stroke-opacity:1"
       d="M 241.37258,208 264,230.62742 286.62742,208 264,185.37258 Z"
       id="path60306"
       sodipodi:nodetypes="ccccc" />
    <path
       style="fill:#ffd40c;fill-opacity:1;stroke:none;stroke-width:4;stroke-linecap:square;stroke-linejoin:miter;stroke-dasharray:none;stroke-opacity:1"
       d="M 289.37258,208 312,230.62742 334.62742,208 312,185.37258 Z"
       id="path60308"
       sodipodi:nodetypes="ccccc" />
    <path
       style="fill:#ffd40c;fill-opacity:1;stroke:none;stroke-width:4;stroke-linecap:square;stroke-linejoin:miter;stroke-dasharray:none;stroke-opacity:1"
       d="M 169.37258,234 192,256.62742 214.62742,234 192,211.37258 Z"
       id="path60316"
       sodipodi:nodetypes="ccccc" />
    <path
       style="fill:#ffd40c;fill-opacity:1;stroke:none;stroke-width:4;stroke-linecap:square;stroke-linejoin:miter;stroke-dasharray:none;stroke-opacity:1"
       d="M 217.37258,234 240,256.62742 262.62742,234 240,211.37258 Z"
       id="path60318"
       sodipodi:nodetypes="ccccc" />
    <path
       style="fill:#ffd40c;fill-opacity:1;stroke:none;stroke-width:4;stroke-linecap:square;stroke-linejoin:miter;stroke-dasharray:none;stroke-opacity:1"
       d="M 265.37258,234 288,256.62742 310.62742,234 288,211.37258 Z"
       id="path60320"
       sodipodi:nodetypes="ccccc" />
    <path
       style="fill:#ffd40c;fill-opacity:1;stroke:none;stroke-width:4;stroke-linecap:square;stroke-linejoin:miter;stroke-dasharray:none;stroke-opacity:1"
       d="M 313.37258,234 336,256.62742 358.62742,234 336,211.37258 Z"
       id="path60322"
       sodipodi:nodetypes="ccccc" />
    <path
       style="fill:#ffd40c;fill-opacity:1;stroke:none;stroke-width:4;stroke-linecap:square;stroke-linejoin:miter;stroke-dasharray:none;stroke-opacity:1"
       d="M 193.37258,260 216,282.62742 238.62742,260 216,237.37258 Z"
       id="path60328"
       sodipodi:nodetypes="ccccc" />
    <path
       style="fill:#ffd40c;fill-opacity:1;stroke:none;stroke-width:4;stroke-linecap:square;stroke-linejoin:miter;stroke-dasharray:none;stroke-opacity:1"
       d="M 241.37258,260 264,282.62742 286.62742,260 264,237.37258 Z"
       id="path60330"
       sodipodi:nodetypes="ccccc" />
    <path
       style="fill:#ffd40c;fill-opacity:1;stroke:none;stroke-width:4;stroke-linecap:square;stroke-linejoin:miter;stroke-dasharray:none;stroke-opacity:1"
       d="M 289.37258,260 312,282.62742 334.62742,260 312,237.37258 Z"
       id="path60332"
       sodipodi:nodetypes="ccccc" />
    <path
       style="fill:#ffd40c;fill-opacity:1;stroke:none;stroke-width:4;stroke-linecap:square;stroke-linejoin:miter;stroke-dasharray:none;stroke-opacity:1"
       d="M 169.37258,286 192,308.62742 214.62742,286 192,263.37258 Z"
       id="path60340"
       sodipodi:nodetypes="ccccc" />
    <path
       style="fill:#ffd40c;fill-opacity:1;stroke:none;stroke-width:4;stroke-linecap:square;stroke-linejoin:miter;stroke-dasharray:none;stroke-opacity:1"
       d="M 217.37258,286 240,308.62742 262.62742,286 240,263.37258 Z"
       id="path60342"
       sodipodi:nodetypes="ccccc" />
    <path
       style="fill:#ffd40c;fill-opacity:1;stroke:none;stroke-width:4;stroke-linecap:square;stroke-linejoin:miter;stroke-dasharray:none;stroke-opacity:1"
       d="M 265.37258,286 288,308.62742 310.62742,286 288,263.37258 Z"
       id="path60344"
       sodipodi:nodetypes="ccccc" />
    <path
       style="fill:#ffd40c;fill-opacity:1;stroke:none;stroke-width:4;stroke-linecap:square;stroke-linejoin:miter;stroke-dasharray:none;stroke-opacity:1"
       d="M 313.37258,286 336,308.62742 358.62742,286 336,263.37258 Z"
       id="path60346"
       sodipodi:nodetypes="ccccc" />
    <path
       style="fill:#ffd40c;fill-opacity:1;stroke:none;stroke-width:4;stroke-linecap:square;stroke-linejoin:miter;stroke-dasharray:none;stroke-opacity:1"
       d="M 193.37258,312 216,334.62742 238.62742,312 216,289.37258 Z"
       id="path60352"
       sodipodi:nodetypes="ccccc" />
    <path
       style="fill:#ffd40c;fill-opacity:1;stroke:none;stroke-width:4;stroke-linecap:square;stroke-linejoin:miter;stroke-dasharray:none;stroke-opacity:1"
       d="M 241.37258,312 264,334.62742 286.62742,312 264,289.37258 Z"
       id="path60354"
       sodipodi:nodetypes="ccccc" />
    <path
       style="fill:#ffd40c;fill-opacity:1;stroke:none;stroke-width:4;stroke-linecap:square;stroke-linejoin:miter;stroke-dasharray:none;stroke-opacity:1"
       d="M 289.37258,312 312,334.62742 334.62742,312 312,289.37258 Z"
       id="path60356"
       sodipodi:nodetypes="ccccc" />
    <path
       style="fill:#ffd40c;fill-opacity:1;stroke:none;stroke-width:4;stroke-linecap:square;stroke-linejoin:miter;stroke-dasharray:none;stroke-opacity:1"
       d="M 169.37258,338 192,360.62742 214.62742,338 192,315.37258 Z"
       id="path60364"
       sodipodi:nodetypes="ccccc" />
    <path
       style="fill:#ffd40c;fill-opacity:1;stroke:none;stroke-width:4;stroke-linecap:square;stroke-linejoin:miter;stroke-dasharray:none;stroke-opacity:1"
       d="M 217.37258,338 240,360.62742 262.62742,338 240,315.37258 Z"
       id="path60366"
       sodipodi:nodetypes="ccccc" />
    <path
       style="fill:#ffd40c;fill-opacity:1;stroke:none;stroke-width:4;stroke-linecap:square;stroke-linejoin:miter;stroke-dasharray:none;stroke-opacity:1"
       d="M 265.37258,338 288,360.62742 310.62742,338 288,315.37258 Z"
       id="path60368"
       sodipodi:nodetypes="ccccc" />
    <path
       style="fill:#ffd40c;fill-opacity:1;stroke:none;stroke-width:4;stroke-linecap:square;stroke-linejoin:miter;stroke-dasharray:none;stroke-opacity:1"
       d="M 193.37258,364 216,386.62742 238.62742,364 216,341.37258 Z"
       id="path60376"
       sodipodi:nodetypes="ccccc" />
    <path
       style="fill:#ffd40c;fill-opacity:1;stroke:none;stroke-width:4;stroke-linecap:square;stroke-linejoin:miter;stroke-dasharray:none;stroke-opacity:1"
       d="M 241.37258,364 264,386.62742 286.62742,364 264,341.37258 Z"
       id="path60378"
       sodipodi:nodetypes="ccccc" />
    <path
       style="fill:#ffd40c;fill-opacity:1;stroke:none;stroke-width:4;stroke-linecap:square;stroke-linejoin:miter;stroke-dasharray:none;stroke-opacity:1"
       d="M 289.37258,364 312,386.62742 334.62742,364 312,341.37258 Z"
       id="path60380"
       sodipodi:nodetypes="ccccc" />
    <path
       style="fill:#ffd40c;fill-opacity:1;stroke:none;stroke-width:4;stroke-linecap:square;stroke-linejoin:miter;stroke-dasharray:none;stroke-opacity:1"
       d="M 241.37258,468 264,490.62742 286.62742,468 264,445.37258 Z"
       id="path60426"
       sodipodi:nodetypes="ccccc" />
    <path
       style="fill:#ffd40c;fill-opacity:1;stroke:none;stroke-width:4;stroke-linecap:square;stroke-linejoin:miter;stroke-dasharray:none;stroke-opacity:1"
       d="m 217.37258,494 17.31371,17.31371 h 10.62742 L 262.62742,494 240,471.37258 Z"
       id="path60434"
       sodipodi:nodetypes="cccccc" />
    <path
       style="fill:#6b0804;stroke:none;stroke-width:16;stroke-linecap:square;stroke-linejoin:bevel"
       d="m 72,14 h 56 L 256,512 384,14 h 66 c 0,0 15.28805,11.492238 16,20 l 40,478 H 6 L 46,34 C 46.911804,23.103938 72,14 72,14 Z"
       id="path37279"
       sodipodi:nodetypes="cccccsccsc" />
    <path
       style="fill:#a8a8a0;stroke:#212221;stroke-width:4;stroke-linecap:square;stroke-linejoin:miter;stroke-dasharray:none;stroke-opacity:1"
       d="m 12,464 8,-96 h 60 v 96 z"
       id="path40974"
       sodipodi:nodetypes="ccccc" />
    <path
       style="fill:#a8a8a0;stroke:#212221;stroke-width:4;stroke-linecap:square;stroke-linejoin:miter;stroke-opacity:1;stroke-dasharray:none"
       d="m 84,378 h 34 v 76 H 84 Z"
       id="path42428"
       sodipodi:nodetypes="ccccc" />
    <path
       style="fill:#a8a8a0;stroke:#212221;stroke-width:4;stroke-linecap:square;stroke-linejoin:miter;stroke-opacity:1;stroke-dasharray:none"
       d="m 122,378 h 34 v 76 h -34 z"
       id="path42432"
       sodipodi:nodetypes="ccccc" />
    <path
       style="fill:#a8a8a0;stroke:#212221;stroke-width:4;stroke-linecap:square;stroke-linejoin:miter;stroke-opacity:1;stroke-dasharray:none"
       d="m 160,378 h 34 v 76 h -34 z"
       id="path42434"
       sodipodi:nodetypes="ccccc" />
    <path
       style="fill:#a8a8a0;stroke:#212221;stroke-width:4;stroke-linecap:square;stroke-linejoin:miter;stroke-dasharray:none;stroke-opacity:1"
       d="m 500,464 -8,-96 h -60 v 96 z"
       id="path42436"
       sodipodi:nodetypes="ccccc" />
    <path
       style="fill:#a8a8a0;stroke:#212221;stroke-width:4;stroke-linecap:square;stroke-linejoin:miter;stroke-opacity:1;stroke-dasharray:none"
       d="m 428,378 h -34 v 76 h 34 z"
       id="path42438"
       sodipodi:nodetypes="ccccc" />
    <path
       style="fill:#a8a8a0;stroke:#212221;stroke-width:4;stroke-linecap:square;stroke-linejoin:miter;stroke-opacity:1;stroke-dasharray:none"
       d="m 390,378 h -34 v 76 h 34 z"
       id="path42440"
       sodipodi:nodetypes="ccccc" />
    <path
       style="fill:#a8a8a0;stroke:#212221;stroke-width:4;stroke-linecap:square;stroke-linejoin:miter;stroke-opacity:1;stroke-dasharray:none"
       d="m 352,378 h -34 v 76 h 34 z"
       id="path42442"
       sodipodi:nodetypes="ccccc" />
    <path
       style="fill:#a8a8a0;stroke:#212221;stroke-width:4;stroke-linecap:square;stroke-linejoin:miter;stroke-dasharray:none;stroke-opacity:1"
       d="m 198,378 h 116 v 76 H 198 Z"
       id="path63860"
       sodipodi:nodetypes="ccccc" />
  </g>
</svg>
