<?xml version="1.0" encoding="UTF-8" standalone="no"?>
<!-- Created with Inkscape (http://www.inkscape.org/) -->

<svg
   width="256"
   height="256"
   viewBox="0 0 67.733332 67.733333"
   version="1.1"
   id="svg1"
   xml:space="preserve"
   inkscape:version="1.1.2 (0a00cf5339, 2022-02-04)"
   sodipodi:docname="Head Front Scout Trooper.svg"
   inkscape:export-filename="Head Front Scout Trooper.png"
   inkscape:export-xdpi="96"
   inkscape:export-ydpi="96"
   xmlns:inkscape="http://www.inkscape.org/namespaces/inkscape"
   xmlns:sodipodi="http://sodipodi.sourceforge.net/DTD/sodipodi-0.dtd"
   xmlns="http://www.w3.org/2000/svg"
   xmlns:svg="http://www.w3.org/2000/svg"><sodipodi:namedview
     id="namedview1"
     pagecolor="#ffffff"
     bordercolor="#111111"
     borderopacity="1"
     inkscape:showpageshadow="0"
     inkscape:pageopacity="0"
     inkscape:pagecheckerboard="1"
     inkscape:deskcolor="#d1d1d1"
     inkscape:document-units="mm"
     inkscape:zoom="11.313709"
     inkscape:cx="130.90314"
     inkscape:cy="173.06438"
     inkscape:window-width="1920"
     inkscape:window-height="996"
     inkscape:window-x="1920"
     inkscape:window-y="0"
     inkscape:window-maximized="1"
     inkscape:current-layer="layer1"
     inkscape:pageshadow="2"
     showgrid="false" /><defs
     id="defs1" /><g
     inkscape:label="Layer 1"
     inkscape:groupmode="layer"
     id="layer1"><rect
       style="display:inline;fill:#f5c798;fill-opacity:1;stroke-width:10.7926;stroke-linejoin:round"
       id="rect1"
       width="67.73333"
       height="67.73333"
       x="0"
       y="0" /><path
       style="display:inline;fill:#212321;fill-opacity:1;stroke-width:1.05833;stroke-linejoin:round"
       d="M 13.229167,47.095833 C 11.842577,46.780053 10.426591,46.078931 9.525,44.979167 8.4641006,43.685078 8.2055445,41.868431 7.9375,40.216667 7.1463777,35.341552 7.4508337,30.314853 7.9375,25.4 8.1147515,23.609933 8.4120504,21.809789 8.9958333,20.108333 9.5078447,18.616057 10.19002,17.154873 11.1125,15.875 11.695928,15.065537 12.396157,14.307616 13.229167,13.758333 14.022168,13.235431 14.925117,12.7 15.875,12.7 h 35.983333 c 0.949883,0 1.852832,0.535431 2.645834,1.058333 0.83301,0.549283 1.533239,1.307205 2.116666,2.116667 0.92248,1.279873 1.604656,2.741057 2.116667,4.233333 0.583783,1.701456 0.881082,3.5016 1.058333,5.291667 0.486666,4.914853 0.791122,9.941552 0,14.816667 -0.268044,1.651764 -0.526601,3.468411 -1.5875,4.7625 -0.901591,1.099764 -2.317577,1.800886 -3.704166,2.116666 -2.413929,0.549744 -5.065906,0.272271 -7.408334,-0.529166 -1.203469,-0.411754 -2.27559,-1.217257 -3.175,-2.116667 l -9.525,-9.525 c -0.249451,-0.249451 -0.808882,-0.249451 -1.058333,0 l -9.525,9.525 c -0.89941,0.89941 -1.971531,1.704913 -3.175,2.116667 -2.342428,0.801437 -4.994405,1.07891 -7.408333,0.529166 z"
       id="path1"
       sodipodi:nodetypes="aaaaaaassaaaaaaaassssaa" /><path
       style="fill:#ffffff;fill-opacity:1;stroke:none;stroke-width:2.11667;stroke-linecap:round;stroke-linejoin:round;stroke-dasharray:none;stroke-opacity:1"
       d="M 58.208333,37.041667 V 34.925 c 0,0 -2.758571,-6.028009 -4.233333,-8.995833 -1.860812,-3.744717 -5.820833,-11.1125 -5.820833,-11.1125 H 47.625 c 0,0 4.250276,8.811351 6.35,13.229166 1.422611,2.993173 4.233333,8.995834 4.233333,8.995834 z"
       id="path3"
       sodipodi:nodetypes="ccaccac" /><path
       style="fill:#ffffff;fill-opacity:1;stroke:none;stroke-width:2.11667;stroke-linecap:round;stroke-linejoin:round;stroke-dasharray:none;stroke-opacity:1"
       d="m 44.45,14.816667 h 1.058333 c 0,0 3.242387,6.317191 4.7625,9.525 C 52.671375,29.407392 57.15,39.6875 57.15,39.6875 l -0.529167,2.645833 c 0,0 -3.439617,-8.504487 -5.291666,-12.7 -1.179111,-2.67108 -2.475029,-5.289067 -3.704167,-7.9375 -1.063169,-2.290817 -3.175,-6.879166 -3.175,-6.879166 z"
       id="path4"
       sodipodi:nodetypes="ccaccaac" /><path
       style="fill:#212321;fill-opacity:1;stroke:none;stroke-width:0.529167;stroke-linecap:round;stroke-linejoin:round;stroke-dasharray:none;stroke-opacity:1"
       d="m 28.839583,45.508334 c -0.622767,0.03278 -1.752189,0.350992 -1.852083,-0.264584 -0.09477,-0.583987 0.996612,-0.764206 1.5875,-0.79375 0,0 3.525574,-0.264583 5.291666,-0.264583 1.766093,0 5.291667,0.264583 5.291667,0.264583 0.590888,0.02954 1.682269,0.209763 1.587501,0.79375 -0.09989,0.615577 -1.229317,0.297361 -1.852084,0.264584 0,0 -3.34907,-0.264584 -5.027084,-0.264584 -1.678013,0 -5.027083,0.264584 -5.027083,0.264584 z"
       id="path5"
       sodipodi:nodetypes="sasasasas" /><path
       style="fill:none;fill-opacity:1;stroke:#212221;stroke-width:1.05833333;stroke-linecap:round;stroke-linejoin:round;stroke-dasharray:none;stroke-opacity:1;stroke-miterlimit:4"
       d="m 31.75,48.683333 h 4.233334"
       id="path6"
       sodipodi:nodetypes="cc" /></g></svg>
