<?xml version="1.0" encoding="UTF-8" standalone="no"?>
<!-- Created with Inkscape (http://www.inkscape.org/) -->

<svg
   width="512"
   height="384"
   viewBox="0 0 512 384"
   version="1.1"
   id="svg1"
   xml:space="preserve"
   sodipodi:docname="Legs Front Scout Trooper.svg"
   inkscape:version="1.1.2 (0a00cf5339, 2022-02-04)"
   xmlns:inkscape="http://www.inkscape.org/namespaces/inkscape"
   xmlns:sodipodi="http://sodipodi.sourceforge.net/DTD/sodipodi-0.dtd"
   xmlns="http://www.w3.org/2000/svg"
   xmlns:svg="http://www.w3.org/2000/svg"><sodipodi:namedview
     id="namedview1"
     pagecolor="#ffffff"
     bordercolor="#111111"
     borderopacity="1"
     inkscape:showpageshadow="0"
     inkscape:pageopacity="0"
     inkscape:pagecheckerboard="1"
     inkscape:deskcolor="#d1d1d1"
     inkscape:document-units="px"
     inkscape:zoom="1.6489951"
     inkscape:cx="280.77706"
     inkscape:cy="195.27044"
     inkscape:window-width="1920"
     inkscape:window-height="996"
     inkscape:window-x="1920"
     inkscape:window-y="0"
     inkscape:window-maximized="1"
     inkscape:current-layer="layer1"
     inkscape:pageshadow="2"
     showgrid="false" /><defs
     id="defs1" /><g
     inkscape:label="Layer 1"
     inkscape:groupmode="layer"
     id="layer1"><rect
       style="fill:#ffffff;fill-opacity:1;stroke-width:67.5248;stroke-linecap:round;stroke-linejoin:round"
       id="rect22"
       width="512"
       height="384"
       x="0"
       y="0" /><rect
       style="display:inline;fill:#001421;fill-opacity:1;stroke-width:101.848;stroke-linecap:round;stroke-linejoin:round"
       id="rect1"
       width="512"
       height="272"
       x="0"
       y="20" /><path
       style="fill:#ffffff;fill-opacity:1;stroke-width:8;stroke-linecap:round;stroke-linejoin:round"
       d="M 24,112 V 96 c 0,0 0.826463,-17.8258 4,-26 2.609837,-6.722258 12,-18 12,-18 h 40 v 60 z"
       id="path1"
       sodipodi:nodetypes="ccacccc" /><path
       style="fill:#ffffff;fill-opacity:1;stroke-width:8;stroke-linecap:round;stroke-linejoin:round"
       d="M 84,82 V 76 L 85.88564,74.13606 86,66 84,64 v -4 l 86,-21 h 12 l 12,5 v 12 z"
       id="path2"
       sodipodi:nodetypes="ccccccccccc" /><path
       style="fill:#ffffff;fill-opacity:1;stroke-width:8;stroke-linecap:round;stroke-linejoin:round"
       d="m 78,158 12,-11 h 70 l 12,11 -22,46 h -50 z"
       id="path3"
       sodipodi:nodetypes="ccccccc" /><path
       style="fill:#ffffff;fill-opacity:1;stroke-width:8;stroke-linecap:round;stroke-linejoin:round"
       d="m 100,210 h 50 l 22,42 H 78 Z"
       id="path4"
       sodipodi:nodetypes="ccccc" /><path
       style="fill:#ffffff;fill-opacity:1;stroke-width:8;stroke-linecap:round;stroke-linejoin:round"
       d="m 76,258 -4,18 h 106 l -4,-18 z"
       id="path5"
       sodipodi:nodetypes="ccccc" /><path
       style="fill:#ffffff;fill-opacity:1;stroke-width:8;stroke-linecap:round;stroke-linejoin:round"
       d="M 94,204 74,162 42,208 Z"
       id="path6"
       sodipodi:nodetypes="cccc" /><path
       style="fill:#ffffff;fill-opacity:1;stroke-width:8;stroke-linecap:round;stroke-linejoin:round"
       d="m 94,210 -54,4 -6,16 38,22 z"
       id="path7"
       sodipodi:nodetypes="ccccc" /><path
       style="fill:#ffffff;fill-opacity:1;stroke-width:8;stroke-linecap:round;stroke-linejoin:round"
       d="m 66,274 4,-16 -38,-22 -4,14 z"
       id="path8"
       sodipodi:nodetypes="ccccc" /><path
       style="fill:#ffffff;fill-opacity:1;stroke-width:8;stroke-linecap:round;stroke-linejoin:round"
       d="m 156,204 20,-42 32,46 z"
       id="path9"
       sodipodi:nodetypes="cccc" /><path
       style="fill:#ffffff;fill-opacity:1;stroke-width:8;stroke-linecap:round;stroke-linejoin:round"
       d="m 156,210 54,4 6,16 -38,22 z"
       id="path10"
       sodipodi:nodetypes="ccccc" /><path
       style="fill:#ffffff;fill-opacity:1;stroke-width:8;stroke-linecap:round;stroke-linejoin:round"
       d="m 184,274 -4,-16 38,-22 4,14 z"
       id="path11"
       sodipodi:nodetypes="ccccc" /><path
       style="fill:#ffffff;fill-opacity:1;stroke-width:8;stroke-linecap:round;stroke-linejoin:round"
       d="m 342,158 12,-11 h 70 l 12,11 -22,46 h -50 z"
       id="path12"
       sodipodi:nodetypes="ccccccc" /><path
       style="fill:#ffffff;fill-opacity:1;stroke-width:8;stroke-linecap:round;stroke-linejoin:round"
       d="m 364,210 h 50 l 22,42 h -94 z"
       id="path13"
       sodipodi:nodetypes="ccccc" /><path
       style="fill:#ffffff;fill-opacity:1;stroke-width:8;stroke-linecap:round;stroke-linejoin:round"
       d="m 340,258 -4,18 h 106 l -4,-18 z"
       id="path14"
       sodipodi:nodetypes="ccccc" /><path
       style="fill:#ffffff;fill-opacity:1;stroke-width:8;stroke-linecap:round;stroke-linejoin:round"
       d="m 358,204 -20,-42 -32,46 z"
       id="path15"
       sodipodi:nodetypes="cccc" /><path
       style="fill:#ffffff;fill-opacity:1;stroke-width:8;stroke-linecap:round;stroke-linejoin:round"
       d="m 358,210 -54,4 -6,16 38,22 z"
       id="path16"
       sodipodi:nodetypes="ccccc" /><path
       style="fill:#ffffff;fill-opacity:1;stroke-width:8;stroke-linecap:round;stroke-linejoin:round"
       d="m 330,274 4,-16 -38,-22 -4,14 z"
       id="path17"
       sodipodi:nodetypes="ccccc" /><path
       style="fill:#ffffff;fill-opacity:1;stroke-width:8;stroke-linecap:round;stroke-linejoin:round"
       d="m 420,204 20,-42 32,46 z"
       id="path18"
       sodipodi:nodetypes="cccc" /><path
       style="fill:#ffffff;fill-opacity:1;stroke-width:8;stroke-linecap:round;stroke-linejoin:round"
       d="m 420,210 54,4 6,16 -38,22 z"
       id="path19"
       sodipodi:nodetypes="ccccc" /><path
       style="fill:#ffffff;fill-opacity:1;stroke-width:8;stroke-linecap:round;stroke-linejoin:round"
       d="m 448,274 -4,-16 38,-22 4,14 z"
       id="path20"
       sodipodi:nodetypes="ccccc" /><path
       style="fill:#ffffff;fill-opacity:1;stroke-width:8;stroke-linecap:round;stroke-linejoin:round"
       d="M 488,112 V 96 c 0,0 -0.82646,-17.8258 -4,-26 -2.60984,-6.722258 -12,-18 -12,-18 h -40 v 60 z"
       id="path21"
       sodipodi:nodetypes="ccacccc" /><path
       style="fill:#ffffff;fill-opacity:1;stroke-width:8;stroke-linecap:round;stroke-linejoin:round"
       d="M 428,82 V 76 L 426.11436,74.13606 426,66 428,64 V 60 L 342,39 h -12 l -12,5 v 12 z"
       id="path22"
       sodipodi:nodetypes="ccccccccccc" /></g></svg>
