<?xml version="1.0" encoding="UTF-8" standalone="no"?>
<!-- Created with Inkscape (http://www.inkscape.org/) -->

<svg
   width="512"
   height="512"
   viewBox="0 0 512 512"
   version="1.1"
   id="svg1"
   xml:space="preserve"
   inkscape:version="1.3.2 (091e20ef0f, 2023-11-25)"
   sodipodi:docname="Torso Back Stormtrooper.svg"
   xmlns:inkscape="http://www.inkscape.org/namespaces/inkscape"
   xmlns:sodipodi="http://sodipodi.sourceforge.net/DTD/sodipodi-0.dtd"
   xmlns:xlink="http://www.w3.org/1999/xlink"
   xmlns="http://www.w3.org/2000/svg"
   xmlns:svg="http://www.w3.org/2000/svg"><sodipodi:namedview
     id="namedview1"
     pagecolor="#ffffff"
     bordercolor="#000000"
     borderopacity="0.25"
     inkscape:showpageshadow="2"
     inkscape:pageopacity="0.0"
     inkscape:pagecheckerboard="0"
     inkscape:deskcolor="#d1d1d1"
     inkscape:document-units="px"
     inkscape:zoom="16"
     inkscape:cx="136.21875"
     inkscape:cy="100.96875"
     inkscape:window-width="1920"
     inkscape:window-height="980"
     inkscape:window-x="1920"
     inkscape:window-y="0"
     inkscape:window-maximized="1"
     inkscape:current-layer="layer1"
     showguides="false" /><defs
     id="defs1"><linearGradient
       id="linearGradient30"
       inkscape:collect="always"><stop
         style="stop-color:#a5a2a5;stop-opacity:1;"
         offset="0.80000001"
         id="stop30" /><stop
         style="stop-color:#a5a2a5;stop-opacity:0;"
         offset="1"
         id="stop31" /></linearGradient><linearGradient
       id="linearGradient23"
       inkscape:collect="always"><stop
         style="stop-color:#a5a2a5;stop-opacity:1;"
         offset="0.5"
         id="stop22" /><stop
         style="stop-color:#a5a2a5;stop-opacity:0;"
         offset="1"
         id="stop23" /></linearGradient><linearGradient
       id="linearGradient21"
       inkscape:collect="always"><stop
         style="stop-color:#a5a2a5;stop-opacity:1;"
         offset="0.5"
         id="stop20" /><stop
         style="stop-color:#a5a2a5;stop-opacity:0;"
         offset="1"
         id="stop21" /></linearGradient><linearGradient
       id="linearGradient19"
       inkscape:collect="always"><stop
         style="stop-color:#a5a2a5;stop-opacity:1;"
         offset="0.5"
         id="stop18" /><stop
         style="stop-color:#a5a2a5;stop-opacity:0;"
         offset="1"
         id="stop19" /></linearGradient><linearGradient
       id="linearGradient17"
       inkscape:collect="always"><stop
         style="stop-color:#a5a2a5;stop-opacity:1;"
         offset="0.5"
         id="stop16" /><stop
         style="stop-color:#a5a2a5;stop-opacity:0;"
         offset="1"
         id="stop17" /></linearGradient><linearGradient
       id="linearGradient9"
       inkscape:collect="always"><stop
         style="stop-color:#a5a2a5;stop-opacity:1;"
         offset="0.5"
         id="stop9" /><stop
         style="stop-color:#a5a2a5;stop-opacity:0;"
         offset="1"
         id="stop10" /></linearGradient><linearGradient
       id="linearGradient6"
       inkscape:collect="always"><stop
         style="stop-color:#a5a2a5;stop-opacity:1;"
         offset="0"
         id="stop6" /><stop
         style="stop-color:#ffffff;stop-opacity:1;"
         offset="0.53584099"
         id="stop7" /></linearGradient><linearGradient
       inkscape:collect="always"
       xlink:href="#linearGradient6"
       id="linearGradient7"
       x1="254.25638"
       y1="479.91492"
       x2="254.25638"
       y2="406.38828"
       gradientUnits="userSpaceOnUse" /><linearGradient
       inkscape:collect="always"
       xlink:href="#linearGradient23"
       id="linearGradient10"
       x1="374"
       y1="195"
       x2="386"
       y2="195"
       gradientUnits="userSpaceOnUse" /><linearGradient
       inkscape:collect="always"
       xlink:href="#linearGradient19"
       id="linearGradient11"
       gradientUnits="userSpaceOnUse"
       x1="374"
       y1="195"
       x2="386"
       y2="195"
       gradientTransform="matrix(-1,0,0,1,504,0)" /><linearGradient
       inkscape:collect="always"
       xlink:href="#linearGradient9"
       id="linearGradient12"
       gradientUnits="userSpaceOnUse"
       x1="374"
       y1="195"
       x2="386"
       y2="195"
       gradientTransform="rotate(-90,287,196)" /><linearGradient
       inkscape:collect="always"
       xlink:href="#linearGradient21"
       id="linearGradient13"
       gradientUnits="userSpaceOnUse"
       gradientTransform="matrix(0,1,1,0,91,-95)"
       x1="374"
       y1="195"
       x2="386"
       y2="195" /><linearGradient
       inkscape:collect="always"
       xlink:href="#linearGradient17"
       id="linearGradient16"
       gradientUnits="userSpaceOnUse"
       gradientTransform="matrix(0,1,1,0,91,-243)"
       x1="374"
       y1="195"
       x2="386"
       y2="195" /><linearGradient
       inkscape:collect="always"
       xlink:href="#linearGradient30"
       id="linearGradient32"
       gradientUnits="userSpaceOnUse"
       gradientTransform="rotate(90,292,212)"
       x1="242"
       y1="196"
       x2="310"
       y2="196" /><linearGradient
       inkscape:collect="always"
       xlink:href="#linearGradient30"
       id="linearGradient33"
       gradientUnits="userSpaceOnUse"
       gradientTransform="rotate(90,276,196)"
       x1="242"
       y1="196"
       x2="310"
       y2="196" /></defs><g
     inkscape:label="Layer 1"
     inkscape:groupmode="layer"
     id="layer1"><rect
       style="display:inline;fill:#ffffff;fill-opacity:1;stroke:none;stroke-width:8.25988"
       id="rect2"
       width="512"
       height="512"
       x="0"
       y="0" /><path
       style="display:inline;fill:#001421;fill-opacity:1;stroke:none;stroke-width:1px;stroke-linecap:butt;stroke-linejoin:miter;stroke-opacity:1"
       d="m 180,40 h 152 c 0,0 1.80213,2.522478 2,4 0.45121,3.369268 0.0634,7.298517 -2,10 -4.52426,5.923394 -12.94988,7.581048 -20,10 -12.8614,4.412847 -26.46879,6.660146 -40,8 -9.28791,0.919684 -18.71584,0.956828 -28,0 -16.25742,-1.675494 -32.92568,-3.685254 -48,-10 -6.6511,-2.786196 -13.62291,-6.269289 -18,-12 -1.27965,-1.675389 -2.48436,-3.948211 -2,-6 0.43323,-1.835176 4,-4 4,-4 z"
       id="path20264"
       sodipodi:nodetypes="ccaaaaaaaac" /><path
       style="fill:#001421;fill-opacity:1;stroke:none"
       d="m 110,43 c -3.29983,-3.299832 -9.63152,-1.641391 -14,0 -3.31697,1.246302 -6.224989,3.93326 -8,7 -1.702858,2.942079 -1.448829,6.645635 -2,10 -3.378682,20.562265 -4.216378,41.50838 -8,62 -3.611233,19.55798 -7.522551,39.19579 -14,58 -2.623526,7.61617 -8.294682,14.12721 -10,22 -1.129065,5.21245 -2.040978,11.07264 0,16 0.721595,1.74208 2.114382,4 4,4 1.885618,0 3.008672,-2.396 4,-4 2.216677,-3.58666 2.386465,-8.10458 4,-12 2.281883,-5.50895 5.686495,-10.50425 8,-16 7.116612,-16.90557 12.770563,-34.41883 18,-52 3.134667,-10.53863 5.544953,-21.28265 8,-32 3.64933,-15.930899 8.32451,-31.742576 10,-48 0.51259,-4.973656 3.53553,-11.464466 0,-15 z"
       id="path1"
       sodipodi:nodetypes="aaaaaaaaaaaaaaaa" /><path
       style="fill:#001421;fill-opacity:1;stroke:none"
       d="m 404,42 c 3.7858,-2.728648 9.88552,-2.202004 14,0 4.23856,2.268411 6.16029,7.55854 8,12 5.20349,12.562346 5.50157,26.63412 8,40 5.71937,30.59702 11.13177,61.25607 16,92 0.73727,4.65603 1.66583,9.29781 2,14 0.2363,3.32495 1.75244,7.1645 0,10 -0.78371,1.26808 -2.52854,2.23879 -4,2 -1.86127,-0.30204 -3.48198,-2.18693 -4,-4 0,0 -30.88233,-92.33005 -40,-140 -1.25865,-6.580629 -2.74244,-13.341346 -2,-20 0.23361,-2.095201 0.28975,-4.767322 2,-6 z"
       id="path2"
       sodipodi:nodetypes="aaaaaaaasaaa" /><path
       style="display:inline;fill:#001421;fill-opacity:1;stroke:none"
       d="m 48,250 c -0.325822,-2.64669 -1.020489,-5.53632 0,-8 0.360797,-0.87104 1.128958,-1.6392 2,-2 1.847759,-0.76537 4.152241,-0.76537 6,0 1.742084,0.72159 3.15236,2.31564 4,4 4.08992,8.12714 2.89127,17.96958 4,27 1.673356,13.62921 3.087851,27.29878 4,41 0.620383,9.31866 -3.053305,19.58615 1,28 1.333779,2.76866 3.928003,6.08533 7,6 0,0 48.07317,-0.0122 72,-2 12.07359,-1.00306 23.9511,-3.73438 36,-5 9.30591,-0.9775 18.65078,-1.61564 28,-2 30.64259,-1.25976 61.374,-2.61353 92,-1 20.10776,1.05938 39.90599,5.70576 60,7 26.6136,1.71416 80,1 80,1 0,0 1.52286,-11.98196 2,-18 2.21556,-27.94403 4,-84 4,-84 0.0709,-1.48902 2.51217,-2.09263 4,-2 2.39906,0.14936 4.69486,1.98149 6,4 6.60553,10.21602 4.41315,23.93841 6,36 2.70832,20.58582 4.06009,41.32761 6,62 0.68798,7.33136 2,22 2,22 0.12443,1.36872 -0.62563,1 -2,1 H 41 c -1.414214,0 -2.458804,-1.69344 -3,-3 -1.020489,-2.46368 -0.427153,-5.36777 0,-8 0.675388,-4.16193 3.580455,-7.80455 4,-12 0,0 6.665009,-53.2336 8,-80 0.06642,-1.33168 0.162911,-2.67666 0,-4 -0.33585,-2.72814 -1.66415,-5.27186 -2,-8 z"
       id="path3"
       sodipodi:nodetypes="aaaaaaaasaaaaacasaaaasssaasaaa" /><path
       style="fill:none;fill-opacity:1;stroke:#a5a2a5;stroke-width:6;stroke-linejoin:round;stroke-dasharray:none;stroke-opacity:1"
       d="M 351,408 V 364 H 157 v 44"
       id="path4"
       sodipodi:nodetypes="cccc" /><rect
       style="fill:url(#linearGradient7);fill-opacity:1;stroke:none;stroke-width:1.996;stroke-linejoin:round;stroke-dasharray:none;stroke-opacity:1"
       id="rect6"
       width="272"
       height="74"
       x="118"
       y="406" /><path
       style="fill:none;fill-opacity:1;stroke:#a5a2a5;stroke-width:6;stroke-linejoin:round;stroke-dasharray:none;stroke-opacity:1"
       d="m 194,480 v -32 h 118 v 32"
       id="path7"
       sodipodi:nodetypes="cccc" /><path
       id="path5"
       style="display:inline;fill:#5f5f63;fill-opacity:1;stroke:#5f5f63;stroke-width:2;stroke-linejoin:round;stroke-dasharray:none;stroke-opacity:1"
       d="m 113,402 v 19 H 33 v 12 h 80 v 51 h 281 v -51 h 84 v -12 h -84 v -19 z m 9,10 h 30 v 24 h 14 v -24 h 178 v 24 h 12 v -24 h 30 v 62 h -30 v -26 h -12 v 26 H 166 v -26 h -14 v 26 h -30 z"
       sodipodi:nodetypes="cccccccccccccccccccccccccccccccccc" /><path
       style="fill:url(#linearGradient10);stroke:none;stroke-width:1.996;stroke-linejoin:round;stroke-dasharray:none;stroke-opacity:1"
       d="M 386,294 374,280 V 108 l 12,-12 z"
       id="path8"
       sodipodi:nodetypes="ccccc" /><path
       style="fill:url(#linearGradient11);fill-opacity:1;stroke:none;stroke-width:1.996;stroke-linejoin:round;stroke-dasharray:none;stroke-opacity:1"
       d="m 118,294 12,-14 V 108 L 118,96 Z"
       id="path10"
       sodipodi:nodetypes="ccccc" /><path
       style="fill:url(#linearGradient12);fill-opacity:1;stroke:none;stroke-width:1.996;stroke-linejoin:round;stroke-dasharray:none;stroke-opacity:1"
       d="m 386,96 -12,12 H 130 L 118,96 Z"
       id="path11"
       sodipodi:nodetypes="ccccc" /><path
       style="fill:url(#linearGradient13);fill-opacity:1;stroke:none;stroke-width:1.996;stroke-linejoin:round;stroke-dasharray:none;stroke-opacity:1"
       d="M 386,294 374,280 H 130 l -12,14 z"
       id="path12"
       sodipodi:nodetypes="ccccc" /><ellipse
       style="fill:none;fill-opacity:1;stroke:#a5a2a5;stroke-width:8;stroke-linejoin:round;stroke-dasharray:none;stroke-opacity:1"
       id="path14"
       cx="216"
       cy="194"
       rx="25"
       ry="27" /><ellipse
       style="fill:#a5a2a5;fill-opacity:1;stroke:none;stroke-width:4.29986;stroke-linejoin:round;stroke-dasharray:none;stroke-opacity:1"
       id="ellipse14"
       cx="216"
       cy="194"
       rx="13"
       ry="15" /><path
       style="fill:#a5a2a5;fill-opacity:1;stroke:none;stroke-width:8;stroke-linejoin:round;stroke-dasharray:none;stroke-opacity:1"
       d="M 152,258 V 130 h 12 l -2,116 H 346 V 130 h 8 v 128 z"
       id="path15"
       sodipodi:nodetypes="ccccccccc" /><path
       style="fill:url(#linearGradient16);fill-opacity:1;stroke:none;stroke-width:1.996;stroke-linejoin:round;stroke-dasharray:none;stroke-opacity:1"
       d="m 346,146 8,-16 H 152 l 12,16 z"
       id="path16"
       sodipodi:nodetypes="ccccc" /><path
       id="path31"
       style="fill:url(#linearGradient32);stroke:none;stroke-width:8;stroke-linejoin:round;stroke-dasharray:none;stroke-opacity:1"
       d="m 320,230 v -54 -14 h -24 v 14 54 z m -8,-14 h -8 v -40 h 8 z"
       sodipodi:nodetypes="cccccccccccc" /><path
       id="path33"
       style="fill:url(#linearGradient33);stroke:none;stroke-width:8;stroke-linejoin:round;stroke-dasharray:none;stroke-opacity:1"
       d="m 288,230 v -54 -14 h -24 v 14 54 z m -8,-14 h -8 v -40 h 8 z"
       sodipodi:nodetypes="cccccccccccc" /></g></svg>
