<?xml version="1.0" encoding="UTF-8" standalone="no"?>
<!-- Created with Inkscape (http://www.inkscape.org/) -->

<svg
   width="512"
   height="512"
   viewBox="0 0 512 512"
   version="1.1"
   id="svg1"
   xml:space="preserve"
   inkscape:version="1.1.2 (0a00cf5339, 2022-02-04)"
   sodipodi:docname="Torso Front Scout Trooper.svg"
   xmlns:inkscape="http://www.inkscape.org/namespaces/inkscape"
   xmlns:sodipodi="http://sodipodi.sourceforge.net/DTD/sodipodi-0.dtd"
   xmlns="http://www.w3.org/2000/svg"
   xmlns:svg="http://www.w3.org/2000/svg"><sodipodi:namedview
     id="namedview1"
     pagecolor="#ffffff"
     bordercolor="#111111"
     borderopacity="1"
     inkscape:showpageshadow="0"
     inkscape:pageopacity="0"
     inkscape:pagecheckerboard="1"
     inkscape:deskcolor="#d1d1d1"
     inkscape:document-units="px"
     inkscape:zoom="1.6489951"
     inkscape:cx="220.13407"
     inkscape:cy="255.91344"
     inkscape:window-width="1920"
     inkscape:window-height="996"
     inkscape:window-x="1920"
     inkscape:window-y="0"
     inkscape:window-maximized="1"
     inkscape:current-layer="layer1"
     inkscape:pageshadow="2"
     showgrid="false" /><defs
     id="defs1" /><g
     inkscape:label="Layer 1"
     inkscape:groupmode="layer"
     id="layer1"><rect
       style="display:inline;fill:#ffffff;stroke-width:24.3573;stroke-linecap:round;stroke-linejoin:round"
       id="rect1"
       width="512"
       height="512"
       x="0"
       y="0" /><path
       style="fill:#5f5f63;fill-opacity:1;stroke:none;stroke-width:8;stroke-linecap:round;stroke-linejoin:round;stroke-opacity:1"
       d="m 154,336 c -1.77003,10.19696 -6.47862,19.76298 -8,30 -2.84371,19.13467 -2,58 -2,58 0,0 2.45086,-18.70005 4,-28 2.34171,-14.05801 5.12052,-28.04222 8,-42 2.48368,-12.0392 8,-36 8,-36 l -8,-6 c 0,0 -0.62704,16.09055 -2,24 z"
       id="path20"
       sodipodi:nodetypes="aacaacca" /><path
       style="fill:#5f5f63;fill-opacity:1;stroke:none;stroke-width:8;stroke-linecap:round;stroke-linejoin:round;stroke-opacity:1"
       d="m 336,348 c 0,0 -10.63555,1.66602 -16,2 -4.65765,0.28997 -9.33561,0.14562 -14,0 -10.68228,-0.3335 -32,-2 -32,-2 -10.72874,-0.67055 21.2711,-3.33204 32,-4 6.65378,-0.41425 13.45362,-1.26072 20,0 3.52533,0.67892 13.56239,3.5547 10,4 z"
       id="path21"
       sodipodi:nodetypes="saasaas" /><path
       style="fill:#5f5f63;fill-opacity:1;stroke:none;stroke-width:8;stroke-linecap:round;stroke-linejoin:round;stroke-opacity:1"
       d="m 176,360 2,-8 c 0,0 17.22966,4.51938 26,6 24.46422,4.13008 98.79901,7.24851 74,8 0,0 -44.08746,4.07001 -66,2 -12.23824,-1.15611 -36,-8 -36,-8 z"
       id="path22"
       sodipodi:nodetypes="ccasac" /><path
       style="fill:#5f5f63;fill-opacity:1;stroke:none;stroke-width:8;stroke-linecap:round;stroke-linejoin:round;stroke-opacity:1"
       d="m 342,390 c 0,0 -10.44995,4.71885 -16,6 -27.40601,6.32626 -112.08782,6.52169 -84,8 0,0 50.72779,6.20699 76,4 8.86072,-0.7738 26,-6 26,-6 z"
       id="path23"
       sodipodi:nodetypes="casacc" /><path
       style="fill:#5f5f63;fill-opacity:1;stroke:none;stroke-width:8;stroke-linecap:round;stroke-linejoin:round;stroke-opacity:1"
       d="m 164,418 c 0,0 59.98336,13.17997 90,10 4.19291,-0.4442 12,-4 12,-4 2,-0.66667 -0.50929,4.50929 -2,6 -2.98142,2.98142 -7.8147,3.48904 -12,4 -25.22487,3.07956 -51.09574,-0.94473 -76,-6 -4.1321,-0.83877 -12,-4 -12,-4 z"
       id="path24"
       sodipodi:nodetypes="casaaacc" /><path
       style="fill:#5f5f63;fill-opacity:1;stroke:none;stroke-width:8;stroke-linecap:round;stroke-linejoin:round;stroke-opacity:1"
       d="m 349,438 c 0,0 -10.03695,1.09854 -15,2 -8.75126,1.58953 -34.89444,6 -26,6 0,0 18.75688,1.29454 28,0 4.80649,-0.67317 14,-4 14,-4 z"
       id="path25"
       sodipodi:nodetypes="casacc" /><path
       style="fill:#5f5f63;fill-opacity:1;stroke:none;stroke-width:8;stroke-linecap:round;stroke-linejoin:round;stroke-opacity:1"
       d="m 348,324 h 6 c 0,0 5.78524,14.51777 8,22 5.049,17.05732 10.57636,34.26817 12,52 0.80207,9.99005 -0.89323,39.9609 -2,30 0,0 -1.30654,-24.23042 -4,-36 -2.68111,-11.71563 -9.23871,-22.303 -12,-34 -1.23488,-5.23106 -0.81104,-10.75831 -2,-16 -1.39904,-6.16788 -6,-18 -6,-18 z"
       id="path26"
       sodipodi:nodetypes="ccaasaaac" /><path
       style="fill:#5f5f63;fill-opacity:1;stroke:none;stroke-width:8;stroke-linecap:round;stroke-linejoin:round;stroke-opacity:1"
       d="m 382,300 c 0,0 -2.92901,14.01123 0,20 6.67917,13.65649 22.17665,21.67338 36,28 3.09099,1.41468 12.47137,4.33407 10,2 0,0 -29.46633,-18.84231 -36,-34 -2.11114,-4.89771 0,-16 0,-16 z"
       id="path27"
       sodipodi:nodetypes="caasacc" /><path
       style="fill:#001421;stroke-width:8;stroke-linecap:round;stroke-linejoin:round;fill-opacity:1"
       d="M 70,162 90,52 c 1.227826,-6.75304 7.236219,11.717276 10,18 2.54667,5.78917 4.98692,11.757111 6,18 1.70861,10.528933 1.9032,21.5045 0,32 -1.01631,5.6046 -3.40317,10.93039 -6,16 -1.095855,2.13936 -2.54854,4.084 -4,6 -3.711443,4.89928 -7.399803,9.92373 -12,14 -1.799031,1.59413 -3.801781,3.02757 -6,4 -2.513759,1.11201 -8.491709,4.7044 -8,2 z"
       id="path1"
       sodipodi:nodetypes="ssaaaaaaas" /><path
       style="fill:#001421;stroke-width:8;stroke-linecap:round;stroke-linejoin:round;fill-opacity:1"
       d="m 152,44 h 210 c 4.66667,0 1.71611,9.66033 0,14 -5.37675,13.596629 -17.57003,24.301069 -30,32 -17.75138,10.99493 -39.34071,14.96786 -60,18 -9.894,1.45213 -20.106,1.45213 -30,0 -20.65929,-3.03214 -42.24862,-7.00507 -60,-18 -12.42997,-7.698931 -24.62325,-18.403371 -30,-32 -1.71611,-4.33967 -4.66667,-14 0,-14 z"
       id="path2"
       sodipodi:nodetypes="ssaaaaaas" /><path
       style="fill:#001421;stroke-width:8;stroke-linecap:round;stroke-linejoin:round;fill-opacity:1"
       d="M 448,162 428,52 c -1.22783,-6.75304 -7.23622,11.717276 -10,18 -2.54667,5.78917 -4.98692,11.757111 -6,18 -1.70861,10.528933 -1.9032,21.5045 0,32 1.01631,5.6046 3.40317,10.93039 6,16 1.09585,2.13936 2.54854,4.084 4,6 3.71144,4.89928 7.3998,9.92373 12,14 1.79903,1.59413 3.80178,3.02757 6,4 2.51376,1.11201 8.49171,4.7044 8,2 z"
       id="path3"
       sodipodi:nodetypes="ssaaaaaaas" /><path
       style="fill:#001421;stroke-width:8;stroke-linecap:round;stroke-linejoin:round;fill-opacity:1"
       d="m 342,138 v 14 h 32 v -14 z"
       id="path4"
       sodipodi:nodetypes="ccccc" /><path
       style="fill:#001421;stroke-width:8;stroke-linecap:round;stroke-linejoin:round;fill-opacity:1"
       d="m 342,168 v 14 h 32 v -14 z"
       id="path5"
       sodipodi:nodetypes="ccccc" /><path
       style="fill:#5f5f63;fill-opacity:1;stroke-width:8;stroke-linecap:round;stroke-linejoin:round"
       d="m 254,138 -8,76 -30,26 H 84 l -14,-16 12,38 h 148 l 24,-24 24,24 h 144 l 14,-38 -12,16 H 292 l -30,-26 z"
       id="path6"
       sodipodi:nodetypes="ccccccccccccccc" /><path
       style="fill:none;stroke:#001421;stroke-width:8;stroke-linecap:round;stroke-linejoin:round;stroke-opacity:1"
       d="m 40,386 c 0,0 -0.671812,-16.02826 0,-24 1.677671,-19.90729 0.36929,-41.60179 10.03047,-59.08825 C 52.186015,299.01028 60,294 60,294 h 88 l -2,30 -12,16 -66,46 z"
       id="path7"
       sodipodi:nodetypes="caacccccc" /><path
       style="fill:#5f5f63;fill-opacity:1;stroke:#001421;stroke-width:8;stroke-linecap:round;stroke-linejoin:round;stroke-opacity:1"
       d="m 32,460 c 0,0 -0.201843,8.59466 2,12 1.30514,2.01851 6,4 6,4 l 114,-2 c 0,0 -11.21095,-2.91627 -16,-6 -6.34152,-4.08339 -16,-16 -16,-16"
       id="path9"
       sodipodi:nodetypes="caccac" /><path
       style="fill:none;stroke:#001421;stroke-width:8;stroke-linecap:round;stroke-linejoin:round;stroke-opacity:1"
       d="m 134,342 c 0,0 0.60318,19.55201 -0.13059,29.28673 C 131.82543,398.40358 122,452 122,452 c 0,0 -20.06668,-1.15288 -30,0 -11.565199,1.34228 -22.434801,6.65772 -34,8 -8.608878,0.99917 -26,0 -26,0 l 2,-60 c 0.169145,-5.07436 6,-14 6,-14"
       id="path8"
       sodipodi:nodetypes="cacaacsc" /><path
       style="fill:none;stroke:#001421;stroke-width:8;stroke-linecap:round;stroke-linejoin:round;stroke-opacity:1"
       d="m 154,474 c 0,0 4.96235,-6.25375 6,-10 3.02525,-10.9221 -1.13887,-22.72403 0,-34 3.35029,-33.17124 20,-98 20,-98 0,0 -5.03379,-20.61197 -12,-28 -5.11338,-5.423 -20,-10 -20,-10"
       id="path10"
       sodipodi:nodetypes="caacac" /><path
       style="fill:none;stroke:#001421;stroke-width:8;stroke-linecap:round;stroke-linejoin:round;stroke-opacity:1"
       d="M 178,336 150,304"
       id="path11"
       sodipodi:nodetypes="cc" /><path
       style="fill:none;stroke:#001421;stroke-width:8;stroke-linecap:round;stroke-linejoin:round;stroke-opacity:1"
       d="m 471.99998,390 c 0,0 0.67181,-16.02826 0,-24 -1.67767,-19.90729 -0.36929,-41.60179 -10.03047,-59.08825 C 459.81397,303.01028 451.99998,298 451.99998,298 h -88 l 2,30 c 0,0 7.20462,11.36872 12,16 19.28911,18.62904 66,46 66,46 z"
       id="path12"
       sodipodi:nodetypes="caacccacc" /><path
       style="fill:#5f5f63;fill-opacity:1;stroke:#001421;stroke-width:8;stroke-linecap:round;stroke-linejoin:round;stroke-opacity:1"
       d="m 479.99998,458 c 0,0 1.13855,12.84307 -2,18 -1.24967,2.05332 -6,4 -6,4 l -116,-4 c 0,0 11.12243,-3.05827 16,-6 6.87426,-4.14597 18,-16 18,-16"
       id="path13"
       sodipodi:nodetypes="caccac" /><path
       style="fill:none;stroke:#001421;stroke-width:8;stroke-linecap:round;stroke-linejoin:round;stroke-opacity:1"
       d="m 377.99998,346 c 0,0 -0.62097,19.55336 0.13059,29.28673 C 380.17334,401.74236 389.99998,454 389.99998,454 c 0,0 20.03811,-0.87225 30,0 11.46459,1.00383 22.50533,5.43688 34,6 8.68186,0.42532 26,-2 26,-2 0,0 1.94763,-36.42557 -2,-54 -1.11273,-4.95375 -6,-14 -6,-14"
       id="path14"
       sodipodi:nodetypes="cacaacac" /><path
       style="fill:none;stroke:#001421;stroke-width:8;stroke-linecap:round;stroke-linejoin:round;stroke-opacity:1"
       d="m 355.99998,476 -4,-8 c 0,0 1.13887,-22.72403 0,-34 -3.35029,-33.17124 -20,-98 -20,-98 0,0 5.03379,-20.61197 12,-28 5.11338,-5.423 20,-10 20,-10"
       id="path15"
       sodipodi:nodetypes="ccacac" /><path
       style="fill:none;stroke:#001421;stroke-width:8;stroke-linecap:round;stroke-linejoin:round;stroke-opacity:1"
       d="m 336,340 28,-32"
       id="path16"
       sodipodi:nodetypes="cc" /><path
       style="fill:none;stroke:#001421;stroke-width:8;stroke-linecap:round;stroke-linejoin:round;stroke-opacity:1"
       d="M 182,332 H 332"
       id="path17"
       sodipodi:nodetypes="cc" /><path
       style="fill:none;stroke:#001421;stroke-width:8;stroke-linecap:round;stroke-linejoin:round;stroke-opacity:1"
       d="m 160,466 192,4"
       id="path18"
       sodipodi:nodetypes="cc" /><path
       style="fill:#5f5f63;fill-opacity:1;stroke:none;stroke-width:8;stroke-linecap:round;stroke-linejoin:round;stroke-opacity:1"
       d="m 66,358 c 0,0 8.232818,1.34475 12,0 17.847238,-6.37081 44,-36 44,-36 0,0 -27.037327,24.76752 -44,30 -3.822279,1.17906 -12,0 -12,0 -2,0 -2,6 0,6 z"
       id="path19"
       sodipodi:nodetypes="sacass" /></g></svg>
