<?xml version="1.0" encoding="UTF-8" standalone="no"?>
<!-- Created with Inkscape (http://www.inkscape.org/) -->

<svg
   width="512px"
   height="512px"
   viewBox="0 0 512 512"
   version="1.1"
   id="SVGRoot"
   sodipodi:docname="Torso Front Count Dooku.svg"
   xml:space="preserve"
   inkscape:version="1.3.2 (091e20ef0f, 2023-11-25)"
   xmlns:inkscape="http://www.inkscape.org/namespaces/inkscape"
   xmlns:sodipodi="http://sodipodi.sourceforge.net/DTD/sodipodi-0.dtd"
   xmlns="http://www.w3.org/2000/svg"
   xmlns:svg="http://www.w3.org/2000/svg"><sodipodi:namedview
     id="namedview6344"
     pagecolor="#ffffff"
     bordercolor="#000000"
     borderopacity="0.25"
     inkscape:showpageshadow="2"
     inkscape:pageopacity="0.0"
     inkscape:pagecheckerboard="0"
     inkscape:deskcolor="#d1d1d1"
     inkscape:document-units="px"
     showgrid="false"
     inkscape:zoom="1.5055415"
     inkscape:cx="283.28678"
     inkscape:cy="316.49742"
     inkscape:window-width="1920"
     inkscape:window-height="980"
     inkscape:window-x="1920"
     inkscape:window-y="0"
     inkscape:window-maximized="1"
     inkscape:current-layer="layer1"
     inkscape:pageshadow="2" /><defs
     id="defs6339" /><g
     inkscape:label="Layer 1"
     inkscape:groupmode="layer"
     id="layer1"><rect
       style="display:inline;fill:#212221;stroke-width:5.57417;stroke-linejoin:round"
       id="rect6589"
       width="512"
       height="512"
       x="0"
       y="0" /><path
       style="display:inline;fill:#733b00;fill-opacity:1;stroke-linejoin:round"
       d="m 138,150 4,-6 v -44 c 0,-16.124515 -6,-48 -6,-48 -0.41345,-3.307593 -9.92843,-3.332565 -10,0 L 125.45662,77.302741 122,52 c -0.72188,-5.284253 -16.61952,-5.29723 -16,0 L 110.16261,87.592827 102,52 C 100.95686,47.451414 92.060933,49.700739 88,52 81.234542,55.830537 78.934814,64.800603 76,72 65.134892,98.653215 56,156 56,156 L 86.926815,151.1495 56,160 c -1.281876,0.36684 -1.314315,4.2244 0,4 z"
       id="path6654"
       sodipodi:nodetypes="ccssscsscsaaccssc" /><path
       style="display:inline;fill:#733b00;fill-opacity:1;stroke-linejoin:round"
       d="m 362,150 -10,-10 v -40 c 0,-16.055459 4,-48 4,-48 h 10 L 368.54338,77.302741 370,52 h 16 L 383.83739,87.592827 390,52 h 12 c 2.10819,0 6.66667,4 6,6 l -1,3 3,-1 c 0,0 6.05515,7.603562 8,12 6.67207,15.082556 12,48 12,48 l -5,3 7,3 6,30 -30.92682,-4.8505 L 438,160 c 1.28188,0.36684 1.31127,4.24155 0,4 z"
       id="path6995"
       sodipodi:nodetypes="ccscccccccssccacccccssc" /><rect
       style="display:inline;fill:#a5a2a5;stroke-width:2.19843;stroke-linejoin:round;fill-opacity:1"
       id="rect7111"
       width="228"
       height="8"
       x="136"
       y="118" /><circle
       style="display:inline;fill:#212221;stroke-width:1.46119;stroke-linejoin:round"
       id="circle7103"
       cx="121"
       cy="125"
       r="21" /><circle
       style="display:inline;fill:#a5a2a5;stroke-width:1.18287;stroke-linejoin:round;fill-opacity:1"
       id="circle7105"
       cx="121"
       cy="125"
       r="17" /><circle
       style="display:inline;fill:#a5a2a5;stroke-width:0.695806;stroke-linejoin:round;fill-opacity:1"
       id="circle7107"
       cx="154"
       cy="122"
       r="10" /><circle
       style="display:inline;fill:#212221;stroke-width:0.417484;stroke-linejoin:round"
       id="circle7109"
       cx="154"
       cy="122"
       r="6" /><circle
       style="display:inline;fill:#a5a2a5;stroke-width:0.695806;stroke-linejoin:round;fill-opacity:1"
       id="circle7114"
       cx="180"
       cy="122"
       r="10" /><circle
       style="display:inline;fill:#212221;stroke-width:0.417484;stroke-linejoin:round"
       id="circle7116"
       cx="180"
       cy="122"
       r="6" /><circle
       style="display:inline;fill:#a5a2a5;stroke-width:0.695806;stroke-linejoin:round;fill-opacity:1"
       id="circle7118"
       cx="208"
       cy="122"
       r="10" /><circle
       style="display:inline;fill:#212221;stroke-width:0.417484;stroke-linejoin:round"
       id="circle7120"
       cx="208"
       cy="122"
       r="6" /><circle
       style="display:inline;fill:#a5a2a5;stroke-width:0.695806;stroke-linejoin:round;fill-opacity:1"
       id="circle7122"
       cx="236"
       cy="122"
       r="10" /><circle
       style="display:inline;fill:#212221;stroke-width:0.417484;stroke-linejoin:round"
       id="circle7124"
       cx="236"
       cy="122"
       r="6" /><circle
       style="display:inline;fill:#a5a2a5;stroke-width:0.695806;stroke-linejoin:round;fill-opacity:1"
       id="circle7126"
       cx="262"
       cy="122"
       r="10" /><circle
       style="display:inline;fill:#212221;stroke-width:0.417484;stroke-linejoin:round"
       id="circle7128"
       cx="262"
       cy="122"
       r="6" /><circle
       style="display:inline;fill:#a5a2a5;stroke-width:0.695806;stroke-linejoin:round;fill-opacity:1"
       id="circle7130"
       cx="288"
       cy="122"
       r="10" /><circle
       style="display:inline;fill:#212221;stroke-width:0.417484;stroke-linejoin:round"
       id="circle7132"
       cx="288"
       cy="122"
       r="6" /><circle
       style="display:inline;fill:#a5a2a5;stroke-width:0.695806;stroke-linejoin:round;fill-opacity:1"
       id="circle7134"
       cx="316"
       cy="122"
       r="10" /><circle
       style="display:inline;fill:#212221;stroke-width:0.417484;stroke-linejoin:round"
       id="circle7136"
       cx="316"
       cy="122"
       r="6" /><circle
       style="display:inline;fill:#a5a2a5;stroke-width:0.695806;stroke-linejoin:round;fill-opacity:1"
       id="circle7138"
       cx="342"
       cy="122"
       r="10" /><circle
       style="display:inline;fill:#212221;stroke-width:0.417484;stroke-linejoin:round"
       id="circle7140"
       cx="342"
       cy="122"
       r="6" /><circle
       style="display:inline;fill:#212221;stroke-width:1.46119;stroke-linejoin:round"
       id="circle7142"
       cx="375"
       cy="125"
       r="21" /><circle
       style="display:inline;fill:#a5a2a5;stroke-width:1.18287;stroke-linejoin:round;fill-opacity:1"
       id="circle7144"
       cx="375"
       cy="125"
       r="17" /><path
       style="fill:#5f5f63;stroke-linejoin:round;fill-opacity:1"
       d="m 242,72 -6,32 -76,-40 4,-6 68,32 6,-20 z"
       id="path7210"
       sodipodi:nodetypes="ccccccc" /><path
       style="fill:#5f5f63;stroke-linejoin:round;fill-opacity:1"
       d="m 250,72 6,32 76,-40 -4,-6 -68,32 -6,-20 z"
       id="path7275"
       sodipodi:nodetypes="ccccccc" /><path
       style="fill:#5f5f63;fill-opacity:1;stroke:none;stroke-width:5;stroke-linecap:round;stroke-linejoin:bevel;stroke-dasharray:none;stroke-opacity:1"
       d="m 50,422 c 4.828299,-2.36144 -2.686506,-10.66918 -2,-16 1.375649,-10.68212 9.96325,-19.42401 12,-30 0.630358,-3.27319 0.630358,-6.72681 0,-10 -0.678917,-3.52533 -1.569103,-7.3581 -4,-10 -1.009375,-1.09699 -2.903011,-3.00938 -4,-2 -2.641898,2.4309 3.321083,6.47467 4,10 0.504287,2.61855 0.572063,5.39542 0,8 -2.047672,9.32299 -9.043628,16.92415 -12,26 -1.052856,3.23219 -2.080868,6.60162 -2,10 0.06539,2.74796 0.6457,5.60805 2,8 1.393563,2.4613 3.459181,7.24267 6,6 z"
       id="path8020"
       sodipodi:nodetypes="aaaaaaaaaaaa" /><path
       style="fill:#5f5f63;fill-opacity:1;stroke:none;stroke-width:5;stroke-linecap:round;stroke-linejoin:bevel;stroke-dasharray:none;stroke-opacity:1"
       d="m 442,422 c -4.8283,-2.36144 2.68651,-10.66918 2,-16 -1.37565,-10.68212 -9.96325,-19.42401 -12,-30 -0.63036,-3.27319 -0.63036,-6.72681 0,-10 0.67892,-3.52533 1.5691,-7.3581 4,-10 1.00938,-1.09699 2.90301,-3.00938 4,-2 2.6419,2.4309 -3.32108,6.47467 -4,10 -0.50429,2.61855 -0.57206,5.39542 0,8 2.04767,9.32299 9.04363,16.92415 12,26 1.05286,3.23219 2.08087,6.60162 2,10 -0.0654,2.74796 -0.6457,5.60805 -2,8 -1.39356,2.4613 -3.45918,7.24267 -6,6 z"
       id="path8085"
       sodipodi:nodetypes="aaaaaaaaaaaa" /><path
       style="fill:#733b00;fill-opacity:1;stroke:none;stroke-width:5;stroke-linecap:round;stroke-linejoin:bevel;stroke-dasharray:none;stroke-opacity:1"
       d="M 52,488 V 438 H 14 L 2,488 Z"
       id="path8087"
       sodipodi:nodetypes="ccccc" /><path
       style="fill:#733b00;fill-opacity:1;stroke:none;stroke-width:5;stroke-linecap:round;stroke-linejoin:bevel;stroke-dasharray:none;stroke-opacity:1"
       d="m 444,488 v -50 h 38 l 12,50 z"
       id="path8089"
       sodipodi:nodetypes="ccccc" /><rect
       style="fill:#733b00;fill-opacity:1;stroke:none;stroke-width:5.88516;stroke-linecap:round;stroke-linejoin:bevel;stroke-dasharray:none;stroke-opacity:1"
       id="rect8143"
       width="176"
       height="50"
       x="162"
       y="438"
       ry="0" /><rect
       style="fill:#733b00;fill-opacity:1;stroke:none;stroke-width:2.03868;stroke-linecap:round;stroke-linejoin:bevel;stroke-dasharray:none;stroke-opacity:1"
       id="rect8145"
       width="88"
       height="12"
       x="61.999996"
       y="436"
       ry="0" /><rect
       style="fill:#733b00;fill-opacity:1;stroke:none;stroke-width:2.03868;stroke-linecap:round;stroke-linejoin:bevel;stroke-dasharray:none;stroke-opacity:1"
       id="rect8153"
       width="88"
       height="12"
       x="61.999996"
       y="478"
       ry="0" /><rect
       style="fill:#733b00;fill-opacity:1;stroke:none;stroke-width:2.03868;stroke-linecap:round;stroke-linejoin:bevel;stroke-dasharray:none;stroke-opacity:1"
       id="rect8155"
       width="88"
       height="12"
       x="61.999996"
       y="464"
       ry="0" /><rect
       style="fill:#733b00;fill-opacity:1;stroke:none;stroke-width:2.03868;stroke-linecap:round;stroke-linejoin:bevel;stroke-dasharray:none;stroke-opacity:1"
       id="rect8157"
       width="88"
       height="12"
       x="61.999996"
       y="450"
       ry="0" /><rect
       style="fill:#733b00;fill-opacity:1;stroke:none;stroke-width:2.03868;stroke-linecap:round;stroke-linejoin:bevel;stroke-dasharray:none;stroke-opacity:1"
       id="rect8159"
       width="88"
       height="12"
       x="348"
       y="436"
       ry="0" /><rect
       style="fill:#733b00;fill-opacity:1;stroke:none;stroke-width:2.03868;stroke-linecap:round;stroke-linejoin:bevel;stroke-dasharray:none;stroke-opacity:1"
       id="rect8161"
       width="88"
       height="12"
       x="348"
       y="478"
       ry="0" /><rect
       style="fill:#733b00;fill-opacity:1;stroke:none;stroke-width:2.03868;stroke-linecap:round;stroke-linejoin:bevel;stroke-dasharray:none;stroke-opacity:1"
       id="rect8163"
       width="88"
       height="12"
       x="348"
       y="464"
       ry="0" /><rect
       style="fill:#733b00;fill-opacity:1;stroke:none;stroke-width:2.03868;stroke-linecap:round;stroke-linejoin:bevel;stroke-dasharray:none;stroke-opacity:1"
       id="rect8165"
       width="88"
       height="12"
       x="348"
       y="450"
       ry="0" /></g></svg>
