<?xml version="1.0" encoding="UTF-8" standalone="no"?>
<!-- Created with Inkscape (http://www.inkscape.org/) -->

<svg
   width="512px"
   height="512px"
   viewBox="0 0 512 512"
   version="1.1"
   id="SVGRoot"
   sodipodi:docname="Torso Front Count Dooku.svg"
   xml:space="preserve"
   inkscape:version="1.2.2 (b0a8486541, 2022-12-01)"
   xmlns:inkscape="http://www.inkscape.org/namespaces/inkscape"
   xmlns:sodipodi="http://sodipodi.sourceforge.net/DTD/sodipodi-0.dtd"
   xmlns="http://www.w3.org/2000/svg"
   xmlns:svg="http://www.w3.org/2000/svg"><sodipodi:namedview
     id="namedview6344"
     pagecolor="#ffffff"
     bordercolor="#000000"
     borderopacity="0.25"
     inkscape:showpageshadow="2"
     inkscape:pageopacity="0.0"
     inkscape:pagecheckerboard="0"
     inkscape:deskcolor="#d1d1d1"
     inkscape:document-units="px"
     showgrid="false"
     inkscape:zoom="1.9666989"
     inkscape:cx="252.19925"
     inkscape:cy="254.99582"
     inkscape:window-width="1920"
     inkscape:window-height="1039"
     inkscape:window-x="0"
     inkscape:window-y="0"
     inkscape:window-maximized="1"
     inkscape:current-layer="layer1"
     inkscape:pageshadow="2" /><defs
     id="defs6339" /><g
     inkscape:label="Layer 1"
     inkscape:groupmode="layer"
     id="layer1"><rect
       style="display:inline;fill:#212221;stroke-width:5.57417;stroke-linejoin:round"
       id="rect6589"
       width="512"
       height="512"
       x="0"
       y="0"
       inkscape:label="background" /><g
       id="g352"
       inkscape:label="cape"><path
         style="display:inline;fill:#633104;fill-opacity:1;stroke-linejoin:round"
         d="m 138,150 4,-6 v -44 c 0,-16.124515 -6,-48 -6,-48 -0.41345,-3.307593 -9.92843,-3.332565 -10,0 L 125.45662,77.302741 122,52 c -0.72188,-5.284253 -16.61952,-5.29723 -16,0 L 110.16261,87.592827 102,52 C 100.95686,47.451414 92.060933,49.700739 88,52 81.234542,55.830537 78.934814,64.800603 76,72 65.134892,98.653215 56,156 56,156 L 86.926815,151.1495 56,160 c -1.281876,0.36684 -1.314315,4.2244 0,4 z"
         id="path6654"
         sodipodi:nodetypes="ccssscsscsaaccssc"
         inkscape:label="capeR" /><path
         style="display:inline;fill:#633104;fill-opacity:1;stroke-linejoin:round"
         d="m 362,150 -10,-10 v -40 c 0,-16.055459 4,-48 4,-48 h 10 L 368.54338,77.302741 370,52 h 16 L 383.83739,87.592827 390,52 h 12 c 2.10819,0 6.66667,4 6,6 l -1,3 3,-1 c 0,0 6.05515,7.603562 8,12 6.67207,15.082556 12,48 12,48 l -5,3 7,3 6,30 -30.92682,-4.8505 L 438,160 c 1.28188,0.36684 1.31127,4.24155 0,4 z"
         id="path6995"
         sodipodi:nodetypes="ccscccccccssccacccccssc"
         inkscape:label="capeL" /></g><g
       id="g348"
       inkscape:label="chain"><path
         id="rect7111"
         style="display:inline;fill:#a5a2a5;stroke-width:2.19843;stroke-linejoin:round;fill-opacity:1"
         d="M 154 112 A 10 10 0 0 0 144.8457 118 L 136 118 L 136 126 L 144.8457 126 A 10 10 0 0 0 154 132 A 10 10 0 0 0 163.1543 126 L 170.8457 126 A 10 10 0 0 0 180 132 A 10 10 0 0 0 189.1543 126 L 198.8457 126 A 10 10 0 0 0 208 132 A 10 10 0 0 0 217.1543 126 L 226.8457 126 A 10 10 0 0 0 236 132 A 10 10 0 0 0 245.1543 126 L 252.8457 126 A 10 10 0 0 0 262 132 A 10 10 0 0 0 271.1543 126 L 278.8457 126 A 10 10 0 0 0 288 132 A 10 10 0 0 0 297.1543 126 L 306.8457 126 A 10 10 0 0 0 316 132 A 10 10 0 0 0 325.1543 126 L 332.8457 126 A 10 10 0 0 0 342 132 A 10 10 0 0 0 351.1543 126 L 364 126 L 364 118 L 351.16211 118 A 10 10 0 0 0 342 112 A 10 10 0 0 0 332.8457 118 L 325.16211 118 A 10 10 0 0 0 316 112 A 10 10 0 0 0 306.8457 118 L 297.16211 118 A 10 10 0 0 0 288 112 A 10 10 0 0 0 278.8457 118 L 271.16211 118 A 10 10 0 0 0 262 112 A 10 10 0 0 0 252.8457 118 L 245.16211 118 A 10 10 0 0 0 236 112 A 10 10 0 0 0 226.8457 118 L 217.16211 118 A 10 10 0 0 0 208 112 A 10 10 0 0 0 198.8457 118 L 189.16211 118 A 10 10 0 0 0 180 112 A 10 10 0 0 0 170.8457 118 L 163.16211 118 A 10 10 0 0 0 154 112 z M 154 116 A 6 6 0 0 1 160 122 A 6 6 0 0 1 154 128 A 6 6 0 0 1 148 122 A 6 6 0 0 1 154 116 z M 180 116 A 6 6 0 0 1 186 122 A 6 6 0 0 1 180 128 A 6 6 0 0 1 174 122 A 6 6 0 0 1 180 116 z M 208 116 A 6 6 0 0 1 214 122 A 6 6 0 0 1 208 128 A 6 6 0 0 1 202 122 A 6 6 0 0 1 208 116 z M 236 116 A 6 6 0 0 1 242 122 A 6 6 0 0 1 236 128 A 6 6 0 0 1 230 122 A 6 6 0 0 1 236 116 z M 262 116 A 6 6 0 0 1 268 122 A 6 6 0 0 1 262 128 A 6 6 0 0 1 256 122 A 6 6 0 0 1 262 116 z M 288 116 A 6 6 0 0 1 294 122 A 6 6 0 0 1 288 128 A 6 6 0 0 1 282 122 A 6 6 0 0 1 288 116 z M 316 116 A 6 6 0 0 1 322 122 A 6 6 0 0 1 316 128 A 6 6 0 0 1 310 122 A 6 6 0 0 1 316 116 z M 342 116 A 6 6 0 0 1 348 122 A 6 6 0 0 1 342 128 A 6 6 0 0 1 336 122 A 6 6 0 0 1 342 116 z "
         inkscape:label="chainmain" /><circle
         style="display:inline;fill:#212221;stroke-width:1.46119;stroke-linejoin:round"
         id="circle7103"
         cx="121"
         cy="125"
         r="21"
         inkscape:label="chainshadowR" /><circle
         style="display:inline;fill:#a5a2a5;stroke-width:1.18287;stroke-linejoin:round;fill-opacity:1"
         id="circle7105"
         cx="121"
         cy="125"
         r="17"
         inkscape:label="chainR" /><circle
         style="display:inline;fill:#212221;stroke-width:1.46119;stroke-linejoin:round"
         id="circle7142"
         cx="373"
         cy="125"
         r="21"
         inkscape:label="chainshadowL" /><circle
         style="display:inline;fill:#a5a2a5;fill-opacity:1;stroke-width:1.18287;stroke-linejoin:round"
         id="circle7144"
         cx="373"
         cy="125"
         r="17"
         inkscape:label="chainL" /></g><g
       id="g334"
       inkscape:label="formshading"><path
         id="path7210"
         style="fill:#5f5f63;stroke-linejoin:round;fill-opacity:1"
         d="M 164 58 L 160 64 L 236 104 L 242 72 L 238 70 L 232 90 L 164 58 z M 328 58 L 260 90 L 254 70 L 250 72 L 256 104 L 332 64 L 328 58 z "
         inkscape:label="formshadingchest" /><path
         id="path8020"
         style="fill:#5f5f63;fill-opacity:1;stroke:none;stroke-width:5;stroke-linecap:round;stroke-linejoin:bevel;stroke-dasharray:none;stroke-opacity:1"
         d="M 52.689453 353.71484 C 52.438834 353.7233 52.205685 353.81074 52 354 C 49.358105 356.4309 55.321084 360.47467 56 364 C 56.504286 366.61855 56.572062 369.39542 56 372 C 53.95233 381.32298 46.956369 388.92416 44 398 C 42.947145 401.23219 41.919132 404.60162 42 408 C 42.06539 410.74796 42.645701 413.60805 44 416 C 45.393562 418.4613 47.459184 423.24267 50 422 C 54.828294 419.63856 47.313495 411.33081 48 406 C 49.375648 395.31789 57.963252 386.57598 60 376 C 60.630357 372.72681 60.630357 369.27319 60 366 C 59.321084 362.47467 58.430895 358.6419 56 356 C 55.179884 355.1087 53.77547 353.6782 52.689453 353.71484 z M 439.31055 353.71484 C 438.22453 353.6782 436.82012 355.1087 436 356 C 433.5691 358.6419 432.67892 362.47467 432 366 C 431.36964 369.27319 431.36964 372.72681 432 376 C 434.03675 386.57598 442.62435 395.31789 444 406 C 444.68651 411.33081 437.1717 419.63856 442 422 C 444.54082 423.24267 446.60644 418.4613 448 416 C 449.3543 413.60805 449.9346 410.74796 450 408 C 450.08087 404.60162 449.05286 401.23219 448 398 C 445.04363 388.92416 438.04767 381.32298 436 372 C 435.42794 369.39542 435.49571 366.61855 436 364 C 436.67892 360.47467 442.6419 356.4309 440 354 C 439.79431 353.81074 439.56117 353.7233 439.31055 353.71484 z "
         inkscape:label="formshadingwaist" /></g><path
       id="path8087"
       style="fill:#633104;fill-opacity:1;stroke:none;stroke-width:5;stroke-linecap:round;stroke-linejoin:bevel;stroke-dasharray:none;stroke-opacity:1"
       d="M 62 436 L 62 448 L 150 448 L 150 436 L 62 436 z M 348 436 L 348 448 L 436 448 L 436 436 L 348 436 z M 14 438 L 2 488 L 52 488 L 52 438 L 14 438 z M 162 438 L 162 488 L 338 488 L 338 438 L 162 438 z M 444 438 L 444 488 L 494 488 L 482 438 L 444 438 z M 62 450 L 62 462 L 150 462 L 150 450 L 62 450 z M 348 450 L 348 462 L 436 462 L 436 450 L 348 450 z M 62 464 L 62 476 L 150 476 L 150 464 L 62 464 z M 348 464 L 348 476 L 436 476 L 436 464 L 348 464 z M 62 478 L 62 490 L 150 490 L 150 478 L 62 478 z M 348 478 L 348 490 L 436 490 L 436 478 L 348 478 z "
       inkscape:label="belt" /></g></svg>
