<?xml version="1.0" encoding="UTF-8" standalone="no"?>
<!-- Created with Inkscape (http://www.inkscape.org/) -->

<svg
   width="256px"
   height="256px"
   viewBox="0 0 256 256"
   version="1.1"
   id="SVGRoot"
   sodipodi:docname="Head Front Zam Wesell.svg"
   xml:space="preserve"
   inkscape:version="1.2.2 (b0a8486541, 2022-12-01)"
   xmlns:inkscape="http://www.inkscape.org/namespaces/inkscape"
   xmlns:sodipodi="http://sodipodi.sourceforge.net/DTD/sodipodi-0.dtd"
   xmlns="http://www.w3.org/2000/svg"
   xmlns:svg="http://www.w3.org/2000/svg"><sodipodi:namedview
     id="namedview21583"
     pagecolor="#ffffff"
     bordercolor="#000000"
     borderopacity="0.25"
     inkscape:showpageshadow="2"
     inkscape:pageopacity="0.0"
     inkscape:pagecheckerboard="0"
     inkscape:deskcolor="#d1d1d1"
     inkscape:document-units="px"
     showgrid="false"
     inkscape:zoom="4.2583144"
     inkscape:cx="138.55248"
     inkscape:cy="140.0789"
     inkscape:window-width="1920"
     inkscape:window-height="1039"
     inkscape:window-x="0"
     inkscape:window-y="0"
     inkscape:window-maximized="1"
     inkscape:current-layer="layer1"
     inkscape:pageshadow="2" /><defs
     id="defs21578" /><g
     inkscape:label="Layer 1"
     inkscape:groupmode="layer"
     id="layer1"><rect
       style="display:inline;fill:#ffc99c;stroke:none;stroke-width:13.5131;stroke-linejoin:round;fill-opacity:1"
       id="rect21774"
       width="256"
       height="256"
       x="0"
       y="0"
       inkscape:label="background" /><path
       style="display:inline;fill:#b596bd;stroke:#212221;stroke-width:4;stroke-linejoin:round;stroke-opacity:1;fill-opacity:1"
       d="m 16,102 c 2.494682,-7.019641 13.040617,4.44709 15.375247,8.6974 5.970849,9.44456 11.490934,20.37539 22.584511,24.6652 13.206015,6.23019 28.264019,9.86255 42.871828,8.0352 12.576674,-2.70989 25.058704,-10.48476 38.251034,-6.11624 10.75248,3.06439 21.40348,8.27439 32.90851,6.48978 15.4127,-1.13234 32.30178,-4.10311 43.80938,-15.23799 8.2594,-9.44323 8.88364,-25.14965 21.19134,-30.924718 7.26806,1.28323 0.55734,14.200828 1.55398,20.147018 -1.84442,14.85714 -4.44809,30.16621 0.0792,44.83594 2.70347,11.65343 6.7484,26.40461 -2.88116,36.04789 -10.21085,8.73967 -24.66274,6.84858 -36.94518,9.9652 -22.73423,3.55746 -45.85156,3.21993 -68.79867,3.77909 -23.48278,-0.60353 -47.16863,-0.1462 -70.400868,-4.07143 -12.076818,-2.9609 -26.804458,-0.80128 -36.211306,-10.44686 -8.493516,-10.37189 -2.420617,-24.23536 1.076317,-35.336 4.652314,-11.40675 4.149423,-23.97693 0.816876,-35.64055 C 19.288686,118.64818 16.803479,110.47417 16,102 Z"
       id="path22317"
       sodipodi:nodetypes="aaaaaaaaaaaaaaaaaaaa"
       inkscape:label="mask" /><path
       id="path22319"
       style="fill:#212221;stroke:none;stroke-width:4;stroke-linejoin:round;stroke-opacity:1"
       d="M 32 136 C 31.333334 136.66667 30.666666 137.33333 30 138 C 31.443469 141.84424 32.963806 145.66031 34.601562 149.42578 C 35.680634 152.07177 36.620853 155.001 38.923828 156.86328 C 40.487608 158.10007 42.234196 159.08454 44 160 L 32 136 z M 222 136 C 219.88202 136.85465 217.78815 137.87303 216.14844 139.50391 C 212.62623 142.79295 209.68172 146.7054 207.49414 150.99805 C 206.85506 152.66757 205.99987 154.26019 204.73828 155.54492 C 202.65035 157.85451 200.34741 159.95881 198 162 C 200.84221 160.55733 203.72123 159.18296 206.53906 157.69531 C 209.26776 155.90139 210.33851 152.65242 212 150 C 213.03016 148.17867 213.74016 146.18879 214.91992 144.44727 C 216.50613 141.75175 218.41847 139.24213 220.75977 137.15625 C 221.16958 136.76689 221.5821 136.38068 222 136 z M 224 144 C 221.61811 146.50477 219.30083 149.07504 217.11328 151.75195 C 213.43858 155.80988 211.42913 160.94789 209.63477 166.03125 C 207.5766 170.988 205.53948 175.96234 203.26758 180.82617 C 200.90383 186.06161 196.49938 189.95948 191.68945 192.91211 C 184.68469 197.90823 176.23079 200.00712 168 202 L 170 204 C 175.12198 203.19191 180.29698 202.30285 185.0625 200.16797 C 189.49084 198.09671 194.24017 196.58616 198.2832 193.78906 C 202.11121 190.41395 205.21361 186.25479 208 182 C 214.83331 170.02216 219.22653 156.88221 224 144 z M 30 150 C 28.763513 153.44779 27.502301 157.10623 28.193359 160.81445 C 29.050094 166.70393 31.691079 172.12034 33.142578 177.86133 C 34.761348 183.61088 36.711607 189.58784 41.113281 193.85938 C 43.670565 196.42057 46.551154 198.76757 50 200 L 50 196 C 46.420315 192.94103 42.74589 189.86185 40 186 C 37.292776 181.70225 36.263266 176.65027 34.771484 171.85938 C 33.701185 167.85336 32.797061 163.8045 31.931641 159.75 C 33.287545 159.8332 34.644095 159.9168 36 160 C 34.000002 156.66667 31.999998 153.33333 30 150 z M 108 174 C 102.24711 180.12307 96.350242 186.29705 89.046875 190.59375 C 86.007021 192.59592 82.634656 194.36454 78.908203 194.43359 C 74.603941 194.70987 70.284947 194.42783 66 194 C 70.687304 197.86307 75.365208 201.77031 80.408203 205.16406 C 83.766785 207.07246 87.630196 208.20662 91.513672 208 L 102 208 L 106 204 C 100.02169 204.32692 93.946918 204.24648 88.134766 202.65039 C 85.944517 202.14507 83.924737 201.13573 82 200 C 88.998238 196.10116 95.943898 191.89396 101.7207 186.28516 C 104.12469 183.77679 106.05264 180.86467 108 178 L 108 174 z M 142 176 C 143.95365 179.60987 145.87083 183.27956 148.41211 186.51953 C 150.47211 189.03169 152.76741 191.48319 155.67773 193.00781 C 158.90782 194.61952 162.49986 195.25243 166 196 C 161.82352 192.9905 157.68971 189.91073 153.83203 186.49609 C 149.84078 183.0509 145.90863 179.53849 142 176 z "
       inkscape:label="wrinkles" /></g></svg>
