<?xml version="1.0" encoding="UTF-8" standalone="no"?>
<!-- Created with Inkscape (http://www.inkscape.org/) -->

<svg
   width="256px"
   height="256px"
   viewBox="0 0 256 256"
   version="1.1"
   id="SVGRoot"
   sodipodi:docname="Head Back Zam Wesell.svg"
   xml:space="preserve"
   inkscape:version="1.1.2 (0a00cf5339, 2022-02-04)"
   xmlns:inkscape="http://www.inkscape.org/namespaces/inkscape"
   xmlns:sodipodi="http://sodipodi.sourceforge.net/DTD/sodipodi-0.dtd"
   xmlns="http://www.w3.org/2000/svg"
   xmlns:svg="http://www.w3.org/2000/svg"><sodipodi:namedview
     id="namedview27066"
     pagecolor="#ffffff"
     bordercolor="#000000"
     borderopacity="0.25"
     inkscape:showpageshadow="2"
     inkscape:pageopacity="0.0"
     inkscape:pagecheckerboard="0"
     inkscape:deskcolor="#d1d1d1"
     inkscape:document-units="px"
     showgrid="false"
     inkscape:zoom="2.5976563"
     inkscape:cx="140.12631"
     inkscape:cy="165.14887"
     inkscape:window-width="1912"
     inkscape:window-height="996"
     inkscape:window-x="1924"
     inkscape:window-y="0"
     inkscape:window-maximized="0"
     inkscape:current-layer="layer1"
     inkscape:pageshadow="2" /><defs
     id="defs27061" /><g
     inkscape:label="Layer 1"
     inkscape:groupmode="layer"
     id="layer1"><rect
       style="display:inline;fill:#ffc79c;fill-opacity:1;stroke-width:25.1935;stroke-linejoin:round"
       id="rect27205"
       width="256"
       height="256"
       x="0"
       y="0" /><path
       style="display:inline;fill:#947552;stroke-width:4;stroke-linejoin:round;fill-opacity:1"
       d="m 12,66 c 0,-4.714045 5.286024,-10.025611 10,-10 l 213.39264,1.159369 C 239.50548,57.181714 244,61.887102 244,66 v 142 c 0,3.77124 -4.22876,8 -8,8 H 20 c -3.771236,0 -8,-4.22876 -8,-8 z"
       id="path27270"
       sodipodi:nodetypes="sssssssss" /><path
       style="fill:#212221;stroke:none;stroke-width:4;stroke-linejoin:round;stroke-dasharray:none;stroke-opacity:1"
       d="m 102,110 c -1.16941,-1.75412 3.94821,-2.48436 6,-2 0.91759,0.21661 2,1.05719 2,2 v 2 c 0,0 1.5286,-0.4714 2,0 0.4714,0.4714 0,2 0,2 l 2,-4 c 0.29814,-0.59628 1.5286,-0.4714 2,0 0.4714,0.4714 0.17796,1.35752 0,2 -1.03765,3.74625 -3.84371,13.23443 -6,10 z"
       id="path28508"
       sodipodi:nodetypes="sascacsaass" /><g
       id="EyeR"><path
         style="fill:#212221;stroke:none;stroke-width:4;stroke-linejoin:round;stroke-dasharray:none;stroke-opacity:1"
         d="m 112,128 -2,10 c -0.29235,1.46176 -1.21629,2.73192 -2,4 -1.75244,2.8355 -4.94591,4.83772 -6,8 -0.63246,1.89737 1.41421,4.58579 0,6 -0.4714,0.4714 -1.38408,0.25512 -2,0 -0.871042,-0.3608 -2.298143,-1.10557 -2,-2 l 2,-6 c 0.4714,-1.41421 1.21316,-2.73386 2,-4 1.04163,-1.67613 2.56188,-3.0254 3.57548,-4.71863 C 106.57042,137.61931 108,135.9371 108,134 v -6 z"
         id="path28543"
         sodipodi:nodetypes="csaaaassaascc" /><path
         style="fill:#212221;stroke:none;stroke-width:4;stroke-linejoin:round;stroke-dasharray:none;stroke-opacity:1"
         d="m 80,86 c -0.894427,-0.298142 1.128958,-1.639203 2,-2 0.61592,-0.255122 1.361939,-0.193189 2,0 2.300563,0.696554 4.409225,2.197998 6,4 2.959671,3.352663 6,12 6,12 h -6 c 0,0 -1.018576,-9.018576 -4,-12 -1.490712,-1.490712 -6,-2 -6,-2 z"
         id="path28506"
         sodipodi:nodetypes="saaaccas" /><path
         style="display:inline;fill:#ffffff;stroke:#212221;stroke-width:4;stroke-linejoin:round;stroke-dasharray:none;stroke-opacity:1"
         d="m 46,128 c -0.651424,-5.65863 3.185821,-11.04774 6,-16 2.109028,-3.71136 4.93476,-7.02905 8,-10 2.39355,-2.31992 4.95698,-4.639434 8,-6 3.103284,-1.38751 6.617197,-1.665037 10,-2 2.653689,-0.262767 5.447755,-0.772758 8,0 2.300563,0.696554 4.300327,2.300327 6,4 l 18,18 v 12 c 0,0 -14.848979,12.57291 -24,14 -12.145919,1.89414 -36,-8 -36,-8 -2.346463,-0.52144 -3.7251,-3.61207 -4,-6 z"
         id="path27272"
         sodipodi:nodetypes="aaaaaasccasa" /><path
         style="fill:#212221;stroke-width:4;stroke-linejoin:round"
         d="m 82,142 v -20 c 0,-1.88562 2.152891,-4.37913 4,-4 3.516792,0.72185 3.321083,6.47467 4,10 0.882502,4.58246 0,14 0,14 z"
         id="path27639"
         sodipodi:nodetypes="csaacc" /></g><g
       id="g881"
       inkscape:label="EyeL"><path
         style="fill:#212221;stroke:none;stroke-width:4;stroke-linejoin:round;stroke-dasharray:none;stroke-opacity:1"
         d="m 154,110 c 0.0599,-0.66397 0.52547,-1.58973 0,-2 -2.16657,-1.69161 -8,-0.74874 -8,2 v 4 l -4,-4 c -0.4714,-0.4714 -1.5286,-0.4714 -2,0 -0.4714,0.4714 -0.0815,1.33833 0,2 0.6717,5.45628 2.66667,10.66667 4,16 0.66667,2.66667 1.04634,5.422 2,8 1.03439,2.79623 1.89181,5.89181 4,8 2.10819,2.10819 9.77463,6.39574 8,4 0,0 -6.01561,-6.19598 -7.5,-10.125 -0.69462,-1.83857 -0.59327,-3.9118 -0.5,-5.875 0.35373,-7.44516 3.33063,-14.57656 4,-22 z"
         id="path28515"
         sodipodi:nodetypes="aascsaaaaasaaa" /><path
         style="fill:#212221;stroke:none;stroke-width:4;stroke-linejoin:round;stroke-dasharray:none;stroke-opacity:1"
         d="m 162,100 c -1.06667,0.8 -0.51024,-2.768161 0,-4 0.72159,-1.742084 2.89746,-2.470307 4,-4 0.87163,-1.209328 0.94591,-2.945907 2,-4 1.05409,-1.054093 2.54917,-1.657505 4,-2 0.64883,-0.153169 1.74488,-0.61592 2,0 0.72159,1.742084 -3.27841,2.257916 -4,4 -0.51024,1.231839 1.06667,3.200001 0,4 z"
         id="path28571"
         sodipodi:nodetypes="saaaaaass" /><path
         style="display:inline;fill:#ffffff;stroke:#222122;stroke-width:4;stroke-linejoin:round;stroke-opacity:1"
         d="m 212,128 c 0.65142,-5.65863 -3.18582,-11.04774 -6,-16 -2.10903,-3.71136 -4.93476,-7.02905 -8,-10 -2.39355,-2.31992 -4.95698,-4.639434 -8,-6 -3.10328,-1.38751 -6.6172,-1.665037 -10,-2 -2.65369,-0.262767 -5.44775,-0.772758 -8,0 -2.30056,0.696554 -4.30033,2.300328 -6,4 l -18,18 v 12 c 0,0 3.71224,3.14323 8.56837,6.46484 4.85612,3.32161 10.85612,6.82161 15.43163,7.53516 6.07296,0.94707 15.07296,-1.05293 22.55472,-3.2897 C 202.03648,136.47354 208,134 208,134 c 2.34646,-0.52144 3.7251,-3.61207 4,-6 z"
         id="path27641"
         sodipodi:nodetypes="aaaaaasccssssa" /><path
         style="fill:#212221;stroke-width:4;stroke-linejoin:round"
         d="m 176,142 v -20 c 0,-1.88562 -2.15289,-4.37913 -4,-4 -3.51679,0.72185 -4,6.40989 -4,10 v 14 z"
         id="path27643"
         sodipodi:nodetypes="csascc" /></g><path
       style="fill:#212221;stroke:none;stroke-width:4;stroke-linejoin:round;stroke-dasharray:none;stroke-opacity:1"
       d="m 34,130 c 1.054093,-1.05409 -1.401054,-2.6349 -2,-4 -2.214169,-5.04645 -5.655184,-9.94704 -5.87474,-15.45349 -0.24988,-6.26697 2.053279,-12.676863 5.264581,-18.064338 C 33.935352,88.211669 38.072092,85.047681 42,82 c 3.071236,-2.382986 6.63381,-4.05581 10,-6 5.943635,-3.432829 11.583234,-7.563562 18,-10 5.746094,-2.181785 11.986157,-2.730561 18,-4 3.326054,-0.702084 6.68347,-1.254224 10,-2 5.36354,-1.20608 11.2161,-1.291401 16,-4 0.82043,-0.464521 2.93553,-2.116941 2,-2 l -16,2 c -12.071582,1.508948 -24.193209,3.067476 -36,6 -2.046019,0.508182 -4.084687,1.11908 -6,2 -3.531663,1.624335 -6.684984,3.969783 -10,6 -5.363412,3.284717 -11.593387,5.512538 -16,10 -2.723638,2.773609 -4.375665,6.468337 -6,10 -1.761839,3.830627 -3.324612,7.838074 -4,12 -0.533941,3.29029 -0.533941,6.70971 0,10 0.337694,2.08096 1.193232,4.05229 2,6 0.570471,1.37724 1.251772,2.71067 2,4 1.206482,2.07899 2.197998,4.40922 4,6 1.117554,0.98656 2.945907,3.05409 4,2 z"
       id="path28581"
       sodipodi:nodetypes="aaaaaaaaaassaaaaaaaaaaa" /><path
       style="fill:#212221;stroke:none;stroke-width:4;stroke-linejoin:round;stroke-dasharray:none;stroke-opacity:1"
       d="m 224,130 c -1.05409,-1.05409 1.40105,-2.6349 2,-4 2.21417,-5.04645 5.65518,-9.94704 5.87474,-15.45349 0.24988,-6.26697 -2.05328,-12.676863 -5.26458,-18.064338 C 224.06465,88.211668 219.92791,85.047681 216,82 c -3.07124,-2.382986 -6.63381,-4.05581 -10,-6 -5.94363,-3.432829 -11.58323,-7.563562 -18,-10 -5.74609,-2.181785 -11.98616,-2.730561 -18,-4 -3.32605,-0.702084 -6.68347,-1.254224 -10,-2 -8.04531,-1.80912 -16.82415,-1.937101 -24,-6 -0.82043,-0.464521 -2.92998,-2.154997 -2,-2 l 24,4 c 12,2 24.19321,3.067476 36,6 2.04602,0.508182 4.08469,1.11908 6,2 3.53166,1.624335 6.68498,3.969783 10,6 5.36341,3.284717 11.59339,5.512538 16,10 2.72364,2.773609 4.37566,6.468337 6,10 1.76184,3.830627 3.32461,7.838074 4,12 0.53394,3.29029 0.53394,6.70971 0,10 -0.33769,2.08096 -1.19323,4.05229 -2,6 -0.57047,1.37724 -1.25177,2.71067 -2,4 -1.20648,2.07899 -2.198,4.40922 -4,6 -1.11755,0.98656 -2.94591,3.05409 -4,2 z"
       id="path28583"
       sodipodi:nodetypes="aaaaaaaaaassaaaaaaaaaaa" /><path
       style="fill:#212221;stroke:none;stroke-width:4;stroke-linejoin:round;stroke-dasharray:none;stroke-opacity:1"
       d="m 92,190 14,-2 h 48 l 6,2 c 1.26491,0.42164 3.29903,1.1342 4,0 0.78371,-1.26808 -0.83718,-3.06722 -2,-4 -6.43239,-5.15988 -15.81557,-4.99245 -24,-6 -7.27839,-0.89601 -14.69165,-0.60486 -22,0 -4.04136,0.33447 -8.27271,0.40259 -12,2 l -14,6 c -0.866578,0.37139 1.066667,2.13333 2,2 z"
       id="path27645"
       sodipodi:nodetypes="sccsaaaasss" /><path
       style="fill:#212221;stroke:none;stroke-width:4;stroke-linejoin:round;stroke-dasharray:none;stroke-opacity:1"
       d="m 108,192 h 6 c 2.74874,0 5.25126,2 8,2 h 22 c 3.59011,0 -6.47467,3.32108 -10,4 -4.58246,0.8825 -9.41754,0.8825 -14,0 -3.52533,-0.67892 -7.00283,-2.02368 -10,-4 -0.7871,-0.51901 -2.94281,-2 -2,-2 z"
       id="path28436"
       sodipodi:nodetypes="ssssaaas" /><path
       style="fill:#212221;stroke:none;stroke-width:4;stroke-linejoin:round;stroke-dasharray:none;stroke-opacity:1"
       d="m 124,162 h 8 c 0,0 -2,-2.50929 -2,-4 V 84 c 0,-2.108185 0.10819,-6 -2,-6 -2.10819,0 -2,3.891815 -2,6 v 74 c 0,1.49071 -2,4 -2,4 z"
       id="path28518"
       sodipodi:nodetypes="ccssassc" /><path
       style="fill:#212221;stroke:none;stroke-width:4;stroke-linejoin:round;stroke-dasharray:none;stroke-opacity:1"
       d="m 122,154 c 0.15317,-0.64883 0.25512,-1.38408 0,-2 -0.3608,-0.87104 -1.12896,-1.6392 -2,-2 -1.84776,-0.76537 -4.94854,-1.7013 -6,0 -0.78371,1.26808 2.4714,2.58579 2,4 -0.4714,1.41421 -2.79067,1.12837 -4,2 -1.52969,1.10254 -2.66667,2.66667 -4,4 -1.33333,1.33333 -4,4 -4,4 0,0 2.66667,-1.33333 4,-2 2.66667,-1.33333 5.09833,-3.31501 8,-4 1.29767,-0.30634 2.8658,0.70097 4,0 1.26808,-0.78371 1.6575,-2.54917 2,-4 z"
       id="path28520"
       sodipodi:nodetypes="aaaaaaacaaaa" /><path
       style="fill:#212221;stroke:none;stroke-width:4;stroke-linejoin:round;stroke-dasharray:none;stroke-opacity:1"
       d="m 134,152 c 0.3608,-0.87104 1.12896,-1.6392 2,-2 0.61592,-0.25512 1.38408,-0.25512 2,0 0.87104,0.3608 1.44873,1.23515 2,2 0.87163,1.20933 0.75965,3.1731 2,4 l 6,4 c 0.5547,0.3698 0.59628,2.29814 0,2 l -8,-4 c -1.19257,-0.59628 -2.76816,0.51024 -4,0 -0.87104,-0.3608 -1.6392,-1.12896 -2,-2 -0.51024,-1.23184 -0.51024,-2.76816 0,-4 z"
       id="path28522"
       sodipodi:nodetypes="aaaassssaaa" /><g
       id="CheekR"><path
         style="fill:#212221;stroke:none;stroke-width:4;stroke-linejoin:round;stroke-dasharray:none;stroke-opacity:1"
         d="m 30,142 c -2.119282,1.13421 -3.414421,3.66872 -4,6 -0.815139,3.2452 0.191565,6.73549 0.960362,9.99198 0.641304,2.71645 1.675506,5.36242 3.011184,7.8132 0.993627,1.82317 2.248489,3.51976 3.670512,5.03273 1.356151,1.44288 2.765473,2.98377 4.573661,3.79093 2.09113,0.93347 4.536002,0.63685 6.795348,1.0104 4.062289,0.67165 8.100204,1.48327 12.152526,2.21265 3.789989,0.68216 7.79115,0.61214 11.374072,2.02353 C 72.033379,181.25246 75.32534,183.36136 78,186 c 1.711155,1.68811 3.303446,3.69944 4,6 0.579568,1.91418 -0.320364,4.02583 0,6 0.337694,2.08096 0.992529,4.14812 2,6 2.039973,3.74976 4.181914,8.09096 8,10 l 12,6 c 1.19257,0.59628 0.94281,-3.05719 0,-4 l -8,-8 c -1.699673,-1.69967 -2.943931,-3.84072 -4,-6 -2.778703,-5.68144 -2.674984,-12.62001 -6,-18 -1.486992,-2.406 -3.593996,-4.51301 -6,-6 -3.586659,-2.21668 -7.915544,-2.95358 -12,-4 -7.220366,-1.84983 -14.779634,-2.15017 -22,-4 -2.042228,-0.52321 -4.206671,-0.89166 -6,-2 -1.604003,-0.99133 -2.955685,-2.42998 -4,-4 -1.949325,-2.93061 -2.794332,-6.46539 -4,-9.77215 -0.746882,-2.04846 -2.012009,-4.04751 -2,-6.22785 0.01161,-2.10815 3.232678,-4.28975 2,-6 -0.389807,-0.54083 -1.412217,-0.31457 -2,0 z"
         id="path28610"
         sodipodi:nodetypes="aaaaaaaaaaaaassssaaaaaaaaaaa" /><path
         style="fill:#212221;stroke:none;stroke-width:4;stroke-linejoin:round;stroke-dasharray:none;stroke-opacity:1"
         d="m 38,174 h 10 l -12,12 c -1.054094,1.05409 -1.657505,2.54917 -2,4 -0.765843,3.24416 -0.765843,6.75584 0,10 0.342495,1.45083 1.128365,2.79067 2,4 1.10254,1.52969 2.491506,2.86863 4,4 l 8,6 c 1.19257,0.89443 -2.945907,3.05409 -4,2 l -4,-4 c -1.054093,-1.05409 -2.790672,-1.12837 -4,-2 -1.529693,-1.10254 -3.008672,-2.396 -4,-4 -1.108339,-1.79333 -1.662306,-3.91904 -2,-6 -0.640729,-3.94835 -0.919012,-8.107 0,-12 0.342495,-1.45083 1.333333,-2.66667 2,-4 0.666667,-1.33333 1.173103,-2.75965 2,-4 z"
         id="path28612"
         sodipodi:nodetypes="ccsaaassssaaaaasc" /><path
         style="fill:#212221;stroke:none;stroke-width:4;stroke-linejoin:round;stroke-dasharray:none;stroke-opacity:1"
         d="m 50,176 -2,2 c -2.357023,2.35702 -4.945907,4.83772 -6,8 -1.47573,4.42719 0,9.33333 0,14 v 4 c 0,0.94281 1.128958,1.6392 2,2 0.61592,0.25512 1.589725,0.52547 2,0 1.691606,-2.16657 -1.66415,-5.27186 -2,-8 -0.325822,-2.64669 -0.612674,-5.40467 0,-8 0.342495,-1.45083 1.128365,-2.79067 2,-4 0.55127,-0.76485 1.333333,-1.33333 2,-2 1.333333,-1.33333 2.114382,-4 4,-4 0.942809,0 2,1.05719 2,2 0,0.94281 -1.639203,1.12896 -2,2 -1.785856,4.31144 -0.570189,9.3683 0,14 0.33585,2.72814 1.231487,5.36088 2,8 0.589423,2.02411 0.289751,4.76732 2,6 0.540828,0.38981 1.38408,-0.25512 2,0 0.871042,0.3608 1.128958,2.3608 2,2 1.847759,-0.76537 0.765367,-4.15224 0,-6 -0.721595,-1.74208 -3.227576,-2.27985 -4,-4 -2.675393,-5.95797 -3.228244,-13.36794 -1.149851,-19.5595 0.12445,-0.37074 0.606502,-0.53342 0.761569,-0.89243 C 56.083478,182.45585 56,181.18975 56,180 v -4 z"
         id="path28614"
         sodipodi:nodetypes="csaasaaaaaaaaaaaaaaaaaascc" /><path
         style="fill:#212221;stroke:none;stroke-width:4;stroke-linejoin:round;stroke-dasharray:none;stroke-opacity:1"
         d="m 58,176 3.707472,8.9582 C 64.405525,191.47739 62.493797,199.10721 64,206 c 0.450058,2.05959 0.891661,4.20667 2,6 0.495664,0.802 1.128958,1.6392 2,2 0.61592,0.25512 1.38408,0.25512 2,0 0.871042,-0.3608 1.639203,-1.12896 2,-2 0.255122,-0.61592 0.350487,-1.4329 0,-2 -0.783714,-1.26808 -3.067221,-0.83718 -4,-2 -1.71996,-2.14413 -2,-5.25127 -2,-8 v -22 z"
         id="path28616"
         sodipodi:nodetypes="csaaaaaaascc" /><path
         style="fill:#212221;stroke:none;stroke-width:4;stroke-linejoin:round;stroke-dasharray:none;stroke-opacity:1"
         d="m 66,178 3,1 7,5 c 5.991988,4.27999 -1.1233,15.33163 2,22 0.399898,0.8538 2,1.05719 2,2 0,0.94281 -1.057191,2 -2,2 -0.942809,0 -1.504336,-1.198 -2,-2 -1.108339,-1.79333 -1.515638,-3.94821 -2,-6 -1.083066,-4.58794 -0.42278,-9.55764 -2,-14 -1.300609,-3.66327 -9.333333,-12 -6,-10 z"
         id="path28618"
         sodipodi:nodetypes="scsaaaaaas" /></g><g
       id="CheekL"><path
         style="fill:#212221;stroke:none;stroke-width:4;stroke-linejoin:round;stroke-dasharray:none;stroke-opacity:1"
         d="m 228,138 c 1.802,1.59078 3.20465,3.7317 4,6 1.32761,3.78631 1.60227,8.0193 1.03964,11.99198 -0.39138,2.76355 -1.86177,5.26974 -3.01119,7.8132 -1.08896,2.40969 -2.00806,4.97635 -3.67051,7.03273 -1.24491,1.53989 -2.76547,2.98377 -4.57366,3.79093 -2.09113,0.93347 -4.52834,0.6866 -6.79535,1.0104 -5.37985,0.76842 -10.78414,1.36777 -16.15252,2.21265 -3.80407,0.59869 -7.79116,0.61214 -11.37408,2.02353 -3.49571,1.37704 -6.78767,3.48594 -9.46233,6.12458 -1.71115,1.68811 -3.30345,3.69944 -4,6 -0.57957,1.91418 0.32036,4.02583 0,6 -0.33769,2.08096 -0.99253,4.14812 -2,6 -2.03997,3.74976 -4.78577,7.19091 -8,10 -2.92701,2.55807 -6.25375,4.96235 -10,6 -1.28495,0.35591 -3.29903,1.1342 -4,0 -0.78371,-1.26808 1.12837,-2.79067 2,-4 2.20508,-3.05939 5.60908,-5.08354 8,-8 1.52392,-1.85888 2.94393,-3.84072 4,-6 2.7787,-5.68144 2.67498,-12.62001 6,-18 1.48699,-2.406 3.594,-4.51301 6,-6 3.58666,-2.21668 7.90169,-3.00923 12,-4 8.52311,-2.06047 17.47689,-1.93953 26,-4 2.04916,-0.49539 4.32461,-0.72035 6,-2 1.91024,-1.45903 2.87244,-3.87717 4,-6 1.65106,-3.10843 3.32055,-6.31865 4,-9.77215 0.52944,-2.69103 0.63012,-5.5586 0,-8.22785 -0.68499,-2.90167 -6.10819,-5.89181 -4,-8 1.05409,-1.05409 2.88245,1.01344 4,2 z"
         id="path28620"
         sodipodi:nodetypes="aaaaaaaaaaaaaaaaaaaaaaaaaaaaa" /><path
         style="fill:#212221;stroke:none;stroke-width:4;stroke-linejoin:round;stroke-dasharray:none;stroke-opacity:1"
         d="m 220,174 h -10 l 12,12 c 1.05409,1.05409 1.6575,2.54917 2,4 0.76584,3.24416 0.76584,6.75584 0,10 -0.3425,1.45083 -1.12837,2.79067 -2,4 -1.10254,1.52969 -2.5755,2.76454 -4,4 -2.51818,2.18401 -8.29935,2.68014 -8,6 0.13387,1.48469 2.52854,2.23879 4,2 1.86127,-0.30204 2.47031,-2.89746 4,-4 1.20933,-0.87163 2.79067,-1.12837 4,-2 1.52969,-1.10254 3.00867,-2.396 4,-4 1.10834,-1.79333 1.66231,-3.91904 2,-6 0.64073,-3.94835 0.91901,-8.107 0,-12 -0.3425,-1.45083 -1.33333,-2.66667 -2,-4 -0.66667,-1.33333 -1.1731,-2.75965 -2,-4 z"
         id="path28622"
         sodipodi:nodetypes="ccsaaaaaaaaaaaasc" /><path
         style="fill:#212221;stroke:none;stroke-width:4;stroke-linejoin:round;stroke-dasharray:none;stroke-opacity:1"
         d="m 208,176 2,2 c 2.35702,2.35702 4.94591,4.83772 6,8 1.89737,5.6921 1.37852,12.16051 0,18 -0.3425,1.45083 -1.12837,2.79067 -2,4 -0.55127,0.76485 -1.12896,1.6392 -2,2 -0.61592,0.25512 -1.64951,0.5671 -2,0 -1.56743,-2.53615 3.31501,-5.09833 4,-8 0.91901,-3.893 1.53073,-8.30448 0,-12 -0.72159,-1.74208 -2.66667,-2.66667 -4,-4 -0.66667,-0.66667 -1.44873,-1.23515 -2,-2 -0.87163,-1.20933 -0.52854,-3.76121 -2,-4 -0.93063,-0.15102 -1.78339,1.08241 -2,2 -0.48436,2.05179 1.66231,3.91904 2,6 0.53394,3.29029 0.40728,6.69164 0,10 -0.33585,2.72814 -1.23149,5.36088 -2,8 -0.58942,2.02411 -0.28975,4.76732 -2,6 -0.54083,0.38981 -1.38408,-0.25512 -2,0 -0.87104,0.3608 -1.12896,2.3608 -2,2 -1.84776,-0.76537 -0.76537,-4.15224 0,-6 0.72159,-1.74208 3.21466,-2.28571 4,-4 2.16602,-4.72811 2.76772,-10.61691 1.14985,-15.5595 -0.12166,-0.37167 -0.61691,-0.5291 -0.76157,-0.89243 C 201.45633,185.20743 202,182.51935 202,180 v -4 z"
         id="path28624"
         sodipodi:nodetypes="csaaaaaaaaaaaaaaaaaaaaascc" /><path
         style="fill:#212221;stroke:none;stroke-width:4;stroke-linejoin:round;stroke-dasharray:none;stroke-opacity:1"
         d="m 198,176 -3.70747,8.9582 C 191.59448,191.47739 193.5062,199.10721 192,206 c -0.45006,2.05959 -0.89166,4.20667 -2,6 -0.49566,0.802 -1.12896,1.6392 -2,2 -0.61592,0.25512 -1.38408,0.25512 -2,0 -0.87104,-0.3608 -1.6392,-1.12896 -2,-2 -0.25512,-0.61592 -0.35049,-1.4329 0,-2 0.78371,-1.26808 3.06722,-0.83718 4,-2 1.71996,-2.14413 2,-5.25127 2,-8 v -22 z"
         id="path28626"
         sodipodi:nodetypes="csaaaaaaascc" /><path
         style="fill:#212221;stroke:none;stroke-width:4;stroke-linejoin:round;stroke-dasharray:none;stroke-opacity:1"
         d="m 190,178 -5,1 -5,5 -2,22 c -0.0854,0.93894 -2,1.05719 -2,2 0,0.94281 1.05719,2 2,2 0.94281,0 1.50434,-1.198 2,-2 1.10834,-1.79333 1.51564,-3.94821 2,-6 1.08307,-4.58794 -0.42535,-9.95774 2,-14 z"
         id="path28628"
         sodipodi:nodetypes="cccsaaaasc" /></g></g></svg>
