<?xml version="1.0" encoding="UTF-8" standalone="no"?>
<!-- Created with Inkscape (http://www.inkscape.org/) -->

<svg
   width="517px"
   height="512px"
   viewBox="0 0 517 512"
   version="1.1"
   id="SVGRoot"
   sodipodi:docname="Torso Front Kaminoan.svg"
   xml:space="preserve"
   inkscape:version="1.2.2 (b0a8486541, 2022-12-01)"
   xmlns:inkscape="http://www.inkscape.org/namespaces/inkscape"
   xmlns:sodipodi="http://sodipodi.sourceforge.net/DTD/sodipodi-0.dtd"
   xmlns="http://www.w3.org/2000/svg"
   xmlns:svg="http://www.w3.org/2000/svg"><sodipodi:namedview
     id="namedview1111"
     pagecolor="#ffffff"
     bordercolor="#111111"
     borderopacity="1"
     inkscape:showpageshadow="0"
     inkscape:pageopacity="0"
     inkscape:pagecheckerboard="1"
     inkscape:deskcolor="#d1d1d1"
     inkscape:document-units="px"
     showgrid="false"
     inkscape:zoom="1.0444209"
     inkscape:cx="235.05849"
     inkscape:cy="231.70735"
     inkscape:window-width="1536"
     inkscape:window-height="793"
     inkscape:window-x="1912"
     inkscape:window-y="-8"
     inkscape:window-maximized="1"
     inkscape:current-layer="layer1" /><defs
     id="defs1106" /><g
     inkscape:label="Layer 1"
     inkscape:groupmode="layer"
     id="layer1"><rect
       style="display:inline;fill:#ffffff;stroke-width:35.4993;stroke-linejoin:round"
       id="rect1250"
       width="517"
       height="512"
       x="0"
       y="0" /><path
       style="fill:#222222;fill-opacity:1;stroke-width:6;stroke-linejoin:round"
       d="m 40,54 c 0.976717,-1.126164 2.549166,-1.657505 4,-2 0.648833,-0.153169 1.370914,-0.220671 2,0 4.028113,1.412986 6.819235,5.153079 10,8 3.512567,3.143898 6.880233,6.465983 10,10 5.030473,5.698431 9.94727,11.569358 14,18 3.974029,6.305763 10,12.54644 10,20 v 318 l -12,6 V 110 c 0,-3.59011 -2.277619,-6.85003 -4,-10 -2.751351,-5.031794 -6.293115,-9.624169 -10,-14 -4.265857,-5.035675 -9.333333,-9.333333 -14,-14 -2.666667,-2.666667 -5.333333,-5.333333 -8,-8 -1.333333,-1.333333 -3.566774,-2.164824 -4,-4 -0.484362,-2.051789 0.618713,-4.407363 2,-6 z"
       id="path1306"
       sodipodi:nodetypes="aaaaaasccsaaaaaa" /><path
       style="fill:#222222;fill-opacity:1;stroke-width:6;stroke-linejoin:round"
       d="m 191,29 c 0,0 19.42185,-0.347074 29,1 2.72195,0.382816 5.33333,1.333333 8,2 5.33333,1.333333 10.7126,2.494797 16,4 4.20763,1.197816 8.17755,3.32526 12.5,4 1.31738,0.205644 2.6853,0.222117 4,0 4.00189,-0.676114 7.61071,-2.839988 11.5,-4 5.26814,-1.571266 10.66667,-2.666667 16,-4 2.66667,-0.666667 5.27783,-1.618747 8,-2 9.90884,-1.387782 30,-1 30,-1 l -18,25 c -6.48318,9.004416 -12.51101,18.35728 -18,28 -7.00586,12.307456 -13.44167,24.97462 -19,38 -3.88984,9.11545 -10,18.08929 -10,28 v 149 c 0,8.7496 4.95895,16.79588 8,25 3.27071,8.82372 7.06046,17.45392 11,26 2.18424,4.73828 4.42935,9.45974 7,14 2.14134,3.78201 4.54692,7.41234 7,11 3.49965,5.11829 7.25079,10.06159 11,15 3.58865,4.72692 6.99458,9.62064 11,14 5.25191,5.74221 11.08886,10.93897 17,16 5.77397,4.94359 11.83361,9.55552 18,14 6.82494,4.91914 13.84351,9.57705 21,14 6.85817,4.23858 13.83316,8.30725 21,12 8.4851,4.37199 17.19197,8.32173 26,12 5.2561,2.19497 10.59749,4.1952 16,6 11.20467,3.74312 22.48599,7.35745 34,10 5.92863,1.36066 11.95657,2.30937 18,3 5.30919,0.60672 10.65631,1.02375 16,1 4.67851,-0.0208 14,-1 14,-1 v 23 H 0 v -23 c 0,0 9.3214899,0.97921 14,1 5.343687,0.0238 10.686058,-0.43646 16,-1 6.703659,-0.71092 13.430007,-1.49015 20,-3 10.891468,-2.50296 21.430628,-6.36995 32,-10 5.38713,-1.85021 10.743902,-3.80503 16,-6 8.80803,-3.67827 17.5149,-7.62801 26,-12 7.16684,-3.69275 14.14183,-7.76142 21,-12 7.15649,-4.42295 14.17506,-9.08086 21,-14 6.16639,-4.44448 12.22603,-9.05641 18,-14 5.91114,-5.06103 11.74809,-10.25779 17,-16 4.00542,-4.37936 7.41135,-9.27308 11,-14 3.74921,-4.93841 7.50035,-9.88171 11,-15 2.45308,-3.58766 4.85866,-7.21799 7,-11 2.57065,-4.54026 4.81576,-9.26172 7,-14 3.93954,-8.54608 7.72929,-17.17628 11,-26 3.04105,-8.20412 8,-16.2504 8,-25 V 148 c 0,-9.91071 -6.11016,-18.88455 -10,-28 -5.55833,-13.02538 -11.99414,-25.692544 -19,-38 -5.48899,-9.64272 -11.51682,-18.995584 -18,-28 z"
       id="path1875"
       sodipodi:nodetypes="caaaaaaaacsaassaaaaaaaaaaaaaaaccccaaaaaaaaaaaaaaassaasc" /><path
       style="fill:#a8a8a0;fill-opacity:1;stroke-width:6;stroke-linejoin:round"
       d="m 237,178 v 23 h 43 v -23 z"
       id="path1893"
       sodipodi:nodetypes="ccccc" /><path
       style="fill:#a8a8a0;fill-opacity:1;stroke-width:6;stroke-linejoin:round"
       d="m 237,216 v 23 h 43 v -23 z"
       id="path1895"
       sodipodi:nodetypes="ccccc" /><path
       style="fill:#a8a8a0;fill-opacity:1;stroke-width:6;stroke-linejoin:round"
       d="m 237,254 v 23 h 43 v -23 z"
       id="path1897"
       sodipodi:nodetypes="ccccc" /><path
       style="fill:none;fill-opacity:1;stroke:#a8a8a0;stroke-width:3;stroke-linejoin:bevel;stroke-dasharray:none;stroke-opacity:1"
       d="m 186,70 -19.5,19 0.5,117.5 12,15 h 49"
       id="path1964"
       sodipodi:nodetypes="ccccc" /><path
       style="fill:none;fill-opacity:1;stroke:#a8a8a0;stroke-width:3;stroke-linejoin:bevel;stroke-dasharray:none;stroke-opacity:1"
       d="m 191.5,77 -14,15.5 V 203 l 10.5,10 h 40"
       id="path2346"
       sodipodi:nodetypes="ccccc" /><path
       style="fill:none;fill-opacity:1;stroke:#a8a8a0;stroke-width:3;stroke-linejoin:bevel;stroke-dasharray:none;stroke-opacity:1"
       d="M 199,89.5 185,103 v 85 l 13,12.5 h 28"
       id="path2348"
       sodipodi:nodetypes="ccccc" /><path
       style="fill:none;fill-opacity:1;stroke:#a8a8a0;stroke-width:3;stroke-linejoin:bevel;stroke-dasharray:none;stroke-opacity:1"
       d="m 204,98 -10.5,10 v 72.5 l 9.5,8.5 h 25"
       id="path2350"
       sodipodi:nodetypes="ccccc" /><path
       style="fill:#a8a8a0;fill-opacity:1;stroke:none;stroke-width:3;stroke-linejoin:bevel;stroke-dasharray:none;stroke-opacity:1"
       d="M 124,30.5 143,30 c 0,0 8.14125,4.439826 12,7 5.55518,3.685707 10.96364,7.631988 16,12 4.98574,4.324111 9.73414,8.964325 14,14 3.70688,4.375831 6.85554,9.204036 10,14 3.19713,4.876304 6.2634,9.851113 9,15 2.58956,4.872232 4.84167,9.922 7,15 1.81611,4.27285 3.49854,8.60669 5,13 2.2509,6.58619 4.25942,13.26095 6,20 1.96203,7.59645 3.67877,15.26631 5,23 1.3577,7.94712 2.35549,15.96355 3,24 0.7466,9.30939 0.83331,18.6622 1,28 0.0773,4.33264 0.15447,8.66942 0,13 -0.16677,4.67558 -0.54302,9.34381 -1,14 -0.78748,8.02371 -1.6423,16.05288 -3,24 -1.32123,7.73369 -2.96875,15.42177 -5,23 -2.26526,8.45128 -4.88531,16.82356 -8,25 -2.33734,6.13579 -5.04785,12.1352 -8,18 -3.95959,7.86621 -8.23566,15.59347 -13,23 -4.90558,7.62611 -10.10939,15.10631 -16,22 -5.20605,6.09256 -11.12004,11.55497 -17,17 -4.50972,4.17614 -9.26624,8.07964 -14,12 -3.28768,2.72276 -6.53331,5.50916 -10,8 -4.50539,3.23716 -9.24695,6.13883 -14,9 -5.24261,3.15587 -10.59514,6.13086 -16,9 -6.583459,3.4948 -13.167782,7.02068 -20,10 -7.83176,3.41519 -15.862442,6.39613 -24,9 -4.928559,1.57705 -9.960366,2.82532 -15,4 -4.965905,1.15749 -9.966822,2.18323 -15,3 -5.305436,0.86095 -10.635548,1.66602 -16,2 -5.323027,0.3314 -16,0 -16,0 v -8 c 0,0 5.3125889,0.99338 8,1 8.393093,0.0207 16.718764,-1.63414 25,-3 6.385887,-1.05325 12.741679,-2.35006 19,-4 7.441333,-1.96183 14.762997,-4.38313 22,-7 5.41359,-1.95753 10.754922,-4.12765 16,-6.5 4.074722,-1.843 8.049925,-3.90312 12,-6 2.70243,-1.43457 5.34518,-2.97913 8,-4.5 4.01818,-2.30189 8.08932,-4.51988 12,-7 5.46569,-3.46629 10.77812,-7.17627 16,-11 4.11975,-3.01669 8.22943,-6.0655 12.08452,-9.4138 6.94174,-6.02917 13.74523,-12.28019 19.83095,-19.1724 4.8057,-5.44255 8.83658,-11.52559 13.08453,-17.4138 3.08359,-4.27425 6.26219,-8.49643 9,-13 3.33069,-5.47883 6.2762,-11.19552 9,-17 2.60335,-5.5478 4.8631,-11.25637 7,-17 2.94046,-7.90347 5.72949,-15.87868 8,-24 2.02485,-7.24262 3.74944,-14.58436 5,-22 1.50583,-8.9293 2.30006,-17.97171 3,-27 0.87687,-11.31042 1.48612,-22.65565 1.5,-34 0.005,-4.00347 -0.11169,-8.01541 -0.5,-12 -0.8505,-8.72729 -2.42953,-17.37315 -4,-26 -1.15917,-6.36751 -2.45996,-12.71373 -4,-19 -2.05916,-8.40528 -4.12262,-16.83853 -7,-25 -1.68815,-4.78831 -3.95505,-9.35285 -6,-14 -2.28336,-5.18895 -4.35454,-10.485974 -7,-15.5 -2.09413,-3.969071 -4.38974,-7.849601 -7,-11.5 -3.02859,-4.235418 -6.5606,-8.090827 -10,-12 -4.20663,-4.781194 -8.26708,-9.739131 -13,-14 -3.71599,-3.345361 -7.85076,-6.210056 -12,-9 -4.83881,-3.253606 -9.78334,-6.394909 -15,-9 -5.15017,-2.57189 -16,-6.5 -16,-6.5 z"
       id="path2352"
       sodipodi:nodetypes="ccaaaaaaaaaaaaaaaaaaaaaaaaaaaaaccaaaaaaaaaaaaaaaaaaaaaaaaaaaaaac" /><path
       style="fill:#222222;fill-opacity:1;stroke-width:6;stroke-linejoin:round"
       d="m 477,54 c -0.97672,-1.126164 -2.54917,-1.657505 -4,-2 -0.64883,-0.153169 -1.37091,-0.220671 -2,0 -4.02811,1.412986 -6.81924,5.153079 -10,8 -3.51257,3.143898 -6.88023,6.465983 -10,10 -5.03047,5.698431 -9.94727,11.569358 -14,18 -3.97403,6.305763 -10,12.54644 -10,20 v 318 l 12,6 V 110 c 0,-3.59011 2.27762,-6.85003 4,-10 2.75135,-5.031794 6.29311,-9.624169 10,-14 4.26586,-5.035675 9.33333,-9.333333 14,-14 2.66667,-2.666667 5.33333,-5.333333 8,-8 1.33333,-1.333333 3.56677,-2.164824 4,-4 0.48436,-2.051789 -0.61871,-4.407363 -2,-6 z"
       id="path2481"
       sodipodi:nodetypes="aaaaaasccsaaaaaa" /><path
       style="fill:none;fill-opacity:1;stroke:#a8a8a0;stroke-width:3;stroke-linejoin:bevel;stroke-dasharray:none;stroke-opacity:1"
       d="m 331,70 19.5,19 -0.5,117.5 -12,15 h -49"
       id="path2483"
       sodipodi:nodetypes="ccccc" /><path
       style="fill:none;fill-opacity:1;stroke:#a8a8a0;stroke-width:3;stroke-linejoin:bevel;stroke-dasharray:none;stroke-opacity:1"
       d="m 325.5,77 14,15.5 V 203 L 329,213 h -40"
       id="path2485"
       sodipodi:nodetypes="ccccc" /><path
       style="fill:none;fill-opacity:1;stroke:#a8a8a0;stroke-width:3;stroke-linejoin:bevel;stroke-dasharray:none;stroke-opacity:1"
       d="m 318,89.5 14,13.5 v 85 l -13,12.5 h -28"
       id="path2487"
       sodipodi:nodetypes="ccccc" /><path
       style="fill:none;fill-opacity:1;stroke:#a8a8a0;stroke-width:3;stroke-linejoin:bevel;stroke-dasharray:none;stroke-opacity:1"
       d="m 313,98 10.5,10 v 72.5 L 314,189 h -25"
       id="path2489"
       sodipodi:nodetypes="ccccc" /><path
       style="fill:#a8a8a0;fill-opacity:1;stroke:none;stroke-width:3;stroke-linejoin:bevel;stroke-dasharray:none;stroke-opacity:1"
       d="M 393,30.5 374,30 c 0,0 -8.14125,4.439826 -12,7 -5.55518,3.685707 -10.96364,7.631988 -16,12 -4.98574,4.324111 -9.73414,8.964325 -14,14 -3.70688,4.375831 -6.85554,9.204036 -10,14 -3.19713,4.876304 -6.2634,9.851113 -9,15 -2.58956,4.872232 -4.84167,9.922 -7,15 -1.81611,4.27285 -3.49854,8.60669 -5,13 -2.2509,6.58619 -4.25942,13.26095 -6,20 -1.96203,7.59645 -3.67877,15.26631 -5,23 -1.3577,7.94712 -2.35549,15.96355 -3,24 -0.7466,9.30939 -0.83331,18.6622 -1,28 -0.0773,4.33264 -0.15447,8.66942 0,13 0.16677,4.67558 0.54302,9.34381 1,14 0.78748,8.02371 1.6423,16.05288 3,24 1.32123,7.73369 2.96875,15.42177 5,23 2.26526,8.45128 4.88531,16.82356 8,25 2.33734,6.13579 5.04785,12.1352 8,18 3.95959,7.86621 8.23566,15.59347 13,23 4.90558,7.62611 10.10939,15.10631 16,22 5.20605,6.09256 11.12004,11.55497 17,17 4.50972,4.17614 9.26624,8.07964 14,12 3.28768,2.72276 6.53331,5.50916 10,8 4.50539,3.23716 9.24695,6.13883 14,9 5.24261,3.15587 10.59514,6.13086 16,9 6.58346,3.4948 13.16778,7.02068 20,10 7.83176,3.41519 15.86244,6.39613 24,9 4.92856,1.57705 9.96037,2.82532 15,4 4.9659,1.15749 9.96682,2.18323 15,3 5.30544,0.86095 10.63555,1.66602 16,2 5.32303,0.3314 16,0 16,0 v -8 c 0,0 -5.31259,0.99338 -8,1 -8.39309,0.0207 -16.71876,-1.63414 -25,-3 -6.38589,-1.05325 -12.74168,-2.35006 -19,-4 -7.44133,-1.96183 -14.763,-4.38313 -22,-7 -5.41359,-1.95753 -10.75492,-4.12765 -16,-6.5 -4.07472,-1.843 -8.04993,-3.90312 -12,-6 -2.70243,-1.43457 -5.34518,-2.97913 -8,-4.5 -4.01818,-2.30189 -8.08932,-4.51988 -12,-7 -5.46569,-3.46629 -10.77812,-7.17627 -16,-11 -4.11975,-3.01669 -8.22943,-6.0655 -12.08452,-9.4138 -6.94174,-6.02917 -13.74523,-12.28019 -19.83095,-19.1724 C 342.27883,369.97125 338.24795,363.88821 334,358 c -3.08359,-4.27425 -6.26219,-8.49643 -9,-13 -3.33069,-5.47883 -6.2762,-11.19552 -9,-17 -2.60335,-5.5478 -4.8631,-11.25637 -7,-17 -2.94046,-7.90347 -5.72949,-15.87868 -8,-24 -2.02485,-7.24262 -3.74944,-14.58436 -5,-22 -1.50583,-8.9293 -2.30006,-17.97171 -3,-27 -0.87687,-11.31042 -1.48612,-22.65565 -1.5,-34 -0.005,-4.00347 0.11169,-8.01541 0.5,-12 0.8505,-8.72729 2.42953,-17.37315 4,-26 1.15917,-6.36751 2.45996,-12.71373 4,-19 2.05916,-8.40528 4.12262,-16.83853 7,-25 1.68815,-4.78831 3.95505,-9.35285 6,-14 2.28336,-5.18895 4.35454,-10.485974 7,-15.5 2.09413,-3.969071 4.38974,-7.849601 7,-11.5 3.02859,-4.235418 6.5606,-8.090827 10,-12 4.20663,-4.781194 8.26708,-9.739131 13,-14 3.71599,-3.345361 7.85076,-6.210056 12,-9 4.83881,-3.253606 9.78334,-6.394909 15,-9 5.15017,-2.57189 16,-6.5 16,-6.5 z"
       id="path2491"
       sodipodi:nodetypes="ccaaaaaaaaaaaaaaaaaaaaaaaaaaaaaccaaaaaaaaaaaaaaaaaaaaaaaaaaaaaac" /></g></svg>
