<?xml version="1.0" encoding="UTF-8" standalone="no"?>
<!-- Created with Inkscape (http://www.inkscape.org/) -->

<svg
   width="384px"
   height="384px"
   viewBox="0 0 384 384"
   version="1.1"
   id="SVGRoot"
   sodipodi:docname="Helmet Clone (Episode III, Swamp).svg"
   xml:space="preserve"
   inkscape:version="1.2.2 (b0a8486541, 2022-12-01)"
   xmlns:inkscape="http://www.inkscape.org/namespaces/inkscape"
   xmlns:sodipodi="http://sodipodi.sourceforge.net/DTD/sodipodi-0.dtd"
   xmlns="http://www.w3.org/2000/svg"
   xmlns:svg="http://www.w3.org/2000/svg"><sodipodi:namedview
     id="namedview137"
     pagecolor="#ffffff"
     bordercolor="#000000"
     borderopacity="0.25"
     inkscape:showpageshadow="2"
     inkscape:pageopacity="0.0"
     inkscape:pagecheckerboard="0"
     inkscape:deskcolor="#d1d1d1"
     inkscape:document-units="px"
     showgrid="false"
     inkscape:zoom="3.011083"
     inkscape:cx="206.23809"
     inkscape:cy="217.69576"
     inkscape:window-width="1920"
     inkscape:window-height="1039"
     inkscape:window-x="0"
     inkscape:window-y="0"
     inkscape:window-maximized="1"
     inkscape:current-layer="layer1" /><defs
     id="defs132" /><g
     inkscape:label="Layer 1"
     inkscape:groupmode="layer"
     id="layer1"><rect
       style="display:inline;fill:#ffffff;stroke-width:1.77925"
       id="rect432"
       width="384"
       height="384"
       x="0"
       y="0" /><rect
       style="fill:#212221;stroke-width:1.0315"
       id="rect538"
       width="198"
       height="20"
       x="90"
       y="122"
       inkscape:label="overvisor" /><path
       id="rect592"
       style="fill:#007f35;stroke-width:1.01751"
       inkscape:label="swampgreen"
       d="M 90 92 L 90 122 L 132 122 L 132 92 L 90 92 z M 286 220 L 286 308 L 338 308 L 338 290 L 308 290 L 308 220 L 286 220 z " /><path
       style="fill:#212221"
       d="m 90,204 h 22 l 18,10 14,8 14,12 -2,2 h -2 L 116,220 H 90 Z"
       id="path872"
       sodipodi:nodetypes="cccccccccc"
       inkscape:label="mouth" /><ellipse
       style="fill:none;fill-opacity:1;stroke:#212221;stroke-width:6;stroke-dasharray:none;stroke-opacity:1"
       id="path991"
       cx="303"
       cy="183"
       rx="25"
       ry="21"
       inkscape:label="ear" /><ellipse
       style="fill:#212221;stroke:none;stroke-width:6.87968;stroke-dasharray:none;stroke-opacity:1"
       id="path5384"
       cx="169"
       cy="311"
       rx="13"
       ry="11"
       inkscape:label="breathing2" /><g
       id="g3798"
       inkscape:label="breathing"><rect
         style="fill:#63635a;stroke:none;stroke-width:5.40043;stroke-dasharray:none;stroke-opacity:1"
         id="rect6178"
         width="12"
         height="24"
         x="38.023846"
         y="315.70401"
         transform="rotate(-27)" /><rect
         style="fill:#63635a;stroke:none;stroke-width:5.40043;stroke-dasharray:none;stroke-opacity:1"
         id="rect6180"
         width="12"
         height="24"
         x="55.911861"
         y="315.83978"
         transform="rotate(-27)" /><rect
         style="fill:#63635a;stroke:none;stroke-width:5.40043;stroke-dasharray:none;stroke-opacity:1"
         id="rect6182"
         width="12"
         height="24"
         x="72.017876"
         y="315.06766"
         transform="rotate(-27)" /><rect
         style="fill:#63635a;stroke:none;stroke-width:5.40043;stroke-dasharray:none;stroke-opacity:1"
         id="rect6184"
         width="12"
         height="24"
         x="99.284752"
         y="313.83926"
         transform="rotate(-25.2)" /><rect
         style="fill:#63635a;stroke:none;stroke-width:5.40043;stroke-dasharray:none;stroke-opacity:1"
         id="rect6186"
         width="12"
         height="24"
         x="156.36403"
         y="297.31226"
         transform="rotate(-18)" /></g><path
       style="fill:#212221;stroke:none;stroke-width:12;stroke-linecap:round;stroke-linejoin:round"
       d="m 82,314 h 28 v -14 h -6 v -14 h -6 v -6 h -4 v 6 h -6 v 14 h -6 z"
       id="path11155"
       sodipodi:nodetypes="ccccccccccccc"
       inkscape:label="chin" /><path
       style="fill:#63635a"
       d="m 238,116 h 48 l 6,-18 c 0.21082,-0.632456 0.25512,-1.38408 0,-2 -0.72159,-1.742084 -4,-4 -4,-4 h -32 c 0,0 -4.10619,1.073766 -6,2 -2.15928,1.056069 -4.40922,2.197998 -6,4 -2.95967,3.35266 -6,7.52786 -6,12 z"
       id="path937-6"
       sodipodi:nodetypes="ccsaccaasc"
       inkscape:label="overvisor2" /></g></svg>
