<?xml version="1.0" encoding="UTF-8" standalone="no"?>
<!-- Created with Inkscape (http://www.inkscape.org/) -->

<svg
   width="384px"
   height="384px"
   viewBox="0 0 384 384"
   version="1.1"
   id="SVGRoot"
   sodipodi:docname="Helmet Clone.svg"
   xml:space="preserve"
   inkscape:version="1.2.2 (b0a8486541, 2022-12-01)"
   xmlns:inkscape="http://www.inkscape.org/namespaces/inkscape"
   xmlns:sodipodi="http://sodipodi.sourceforge.net/DTD/sodipodi-0.dtd"
   xmlns="http://www.w3.org/2000/svg"
   xmlns:svg="http://www.w3.org/2000/svg"><sodipodi:namedview
     id="namedview22192"
     pagecolor="#ffffff"
     bordercolor="#000000"
     borderopacity="0.25"
     inkscape:showpageshadow="2"
     inkscape:pageopacity="0.0"
     inkscape:pagecheckerboard="0"
     inkscape:deskcolor="#d1d1d1"
     inkscape:document-units="px"
     showgrid="false"
     inkscape:zoom="2.8219714"
     inkscape:cx="155.56501"
     inkscape:cy="184.44553"
     inkscape:window-width="1920"
     inkscape:window-height="1039"
     inkscape:window-x="0"
     inkscape:window-y="0"
     inkscape:window-maximized="1"
     inkscape:current-layer="layer1"
     inkscape:pageshadow="2" /><defs
     id="defs22187" /><g
     inkscape:label="Layer 1"
     inkscape:groupmode="layer"
     id="layer1"><rect
       style="display:inline;fill:#ffffff;stroke-width:15.2184;stroke-linejoin:round"
       id="rect26365"
       width="384"
       height="384"
       x="0"
       y="0"
       inkscape:label="background" /><path
       style="fill:#001421;stroke-width:3;stroke-linejoin:round;fill-opacity:1"
       d="M 73,122.5 H 270.25 L 270,141.25 H 73 Z"
       id="path24569"
       sodipodi:nodetypes="ccccc"
       inkscape:label="overvisor1" /><path
       style="fill:#5f5f63;stroke-width:3;stroke-linejoin:round;fill-opacity:1"
       d="m 270,120 h -48.5 c 0,0 1.74231,-9.81715 4.25,-14 1.51495,-2.52695 3.65792,-4.8494 6.25,-6.25 1.79734,-0.971175 6,-1.25 6,-1.25 h 34 c 0,0 3.19408,1.87869 3.5,3.5 0.53969,2.86024 -2.6262,5.22355 -3.5,8 -1.02049,3.24256 -2,10 -2,10 z"
       id="path24571"
       sodipodi:nodetypes="ccaaccaac"
       inkscape:label="overvisor2" /><path
       id="path26257"
       style="display:inline;fill:#a5a2a5;stroke-width:3.61197;stroke-linejoin:round;fill-opacity:1"
       d="M 320 149 A 18 18 0 0 0 302 167 A 18 18 0 0 0 320 185 A 18 18 0 0 0 338 167 A 18 18 0 0 0 320 149 z M 320 153 A 14 14 0 0 1 334 167 A 14 14 0 0 1 320 181 A 14 14 0 0 1 306 167 A 14 14 0 0 1 320 153 z "
       inkscape:label="ear" /><path
       style="fill:#001421;stroke-width:3;stroke-linejoin:round;fill-opacity:1"
       d="m 47.25,230 c 0,0 17.425217,-15.19315 26.75,-22 6.407561,-4.67735 20,-12.9 20,-12.9 0,0 13.58179,8.23727 20,12.9 9.39245,6.82347 27,22 27,22 0,0 -26.39242,-14.93466 -41,-18 -3.914735,-0.82149 -8.086194,-0.82591 -12,0 -14.529493,3.06607 -40.75,18 -40.75,18 z"
       id="path26368"
       sodipodi:nodetypes="cacacaac"
       inkscape:label="mouth" /><path
       style="fill:#001421;stroke-width:3;stroke-linejoin:round;fill-opacity:1"
       d="M 87.25,240 H 101 l 0.1,14 H 87.25 Z"
       id="path26370"
       sodipodi:nodetypes="ccccc"
       inkscape:label="chin" /><path
       id="path26372"
       style="fill:#5f5f63;stroke-width:3;stroke-linejoin:round;fill-opacity:1"
       d="M 202 236 L 202 268.13086 L 210 268.25 L 210 236 L 202 236 z M 216 236 L 216 268.13086 L 224 268.25 L 224 236 L 216 236 z M 230 236 L 230 268.13086 L 238 268.25 L 238 236 L 230 236 z M 244 236 L 244 268.13086 L 252 268.25 L 252 236 L 244 236 z M 258 236 L 258 268.13086 L 266 268.25 L 266 236 L 258 236 z M 272 236 L 272 268.13086 L 280 268.25 L 280 236 L 272 236 z "
       inkscape:label="breathing" /></g></svg>
