<?xml version="1.0" encoding="UTF-8" standalone="no"?>
<!-- Created with Inkscape (http://www.inkscape.org/) -->

<svg
   width="512px"
   height="512px"
   viewBox="0 0 512 512"
   version="1.1"
   id="SVGRoot"
   sodipodi:docname="Torso Qui-Gon Jinn.svg"
   xml:space="preserve"
   inkscape:version="1.2.2 (b0a8486541, 2022-12-01)"
   xmlns:inkscape="http://www.inkscape.org/namespaces/inkscape"
   xmlns:sodipodi="http://sodipodi.sourceforge.net/DTD/sodipodi-0.dtd"
   xmlns:xlink="http://www.w3.org/1999/xlink"
   xmlns="http://www.w3.org/2000/svg"
   xmlns:svg="http://www.w3.org/2000/svg"><sodipodi:namedview
     id="namedview1152"
     pagecolor="#ffffff"
     bordercolor="#000000"
     borderopacity="0.25"
     inkscape:showpageshadow="2"
     inkscape:pageopacity="0.0"
     inkscape:pagecheckerboard="0"
     inkscape:deskcolor="#d1d1d1"
     inkscape:document-units="px"
     showgrid="false"
     inkscape:zoom="1.2988281"
     inkscape:cx="237.13684"
     inkscape:cy="253.30526"
     inkscape:window-width="1912"
     inkscape:window-height="1011"
     inkscape:window-x="1924"
     inkscape:window-y="28"
     inkscape:window-maximized="0"
     inkscape:current-layer="layer1"
     showguides="false" /><defs
     id="defs1147"><linearGradient
       inkscape:collect="always"
       id="linearGradient2765"><stop
         style="stop-color:#212221;stop-opacity:1;"
         offset="0.25"
         id="stop2761" /><stop
         style="stop-color:#212221;stop-opacity:0.1;"
         offset="1"
         id="stop2763" /></linearGradient><linearGradient
       inkscape:collect="always"
       xlink:href="#linearGradient2765"
       id="linearGradient2767"
       x1="44"
       y1="437"
       x2="212"
       y2="437"
       gradientUnits="userSpaceOnUse" /><linearGradient
       inkscape:collect="always"
       xlink:href="#linearGradient2765"
       id="linearGradient2771"
       gradientUnits="userSpaceOnUse"
       x1="44"
       y1="437"
       x2="212"
       y2="437"
       gradientTransform="matrix(-1,0,0,1,524,0)" /></defs><g
     inkscape:label="Layer 1"
     inkscape:groupmode="layer"
     id="layer1"><rect
       style="display:inline;fill:#d6ba84;stroke:none;stroke-width:19.4791;stroke-linecap:square;stroke-linejoin:round;stroke-dasharray:none;stroke-opacity:1"
       id="background"
       width="512"
       height="512"
       x="0"
       y="0" /><path
       style="display:inline;fill:none;stroke:#212221;stroke-width:8;stroke-linecap:butt;stroke-dasharray:none;stroke-opacity:1"
       d="m 146,56 c 6.40459,50.51344 15.26249,96.51878 30,146 14.73751,49.48122 35.79297,100.12322 74,164"
       id="path1354"
       sodipodi:nodetypes="csc" /><path
       style="fill:none;stroke:#212221;stroke-width:8;stroke-linecap:butt;stroke-dasharray:none;stroke-opacity:1"
       d="m 222,400 c 9.605,-10.89279 18.40009,-21.15475 28,-32 18.16439,-20.52075 50.1918,-63.66328 58,-76 16.89579,-26.69482 17.9387,-28.89063 26,-44 31.09382,-58.27944 55.64192,-124.94872 60,-192"
       id="path2699"
       sodipodi:nodetypes="csssc" /><path
       style="fill:none;stroke:#212221;stroke-width:8;stroke-linecap:square;stroke-linejoin:round;stroke-dasharray:none;stroke-opacity:1"
       d="m 42,480 v -72 c 0,-2.55122 121.24228,-9.76666 182,-10 84.76048,-0.32552 254,12 254,12 l 2,70 z"
       id="path2701"
       sodipodi:nodetypes="ccaccc" /><path
       style="display:inline;fill:#ad5500;stroke:#212221;stroke-width:8;stroke-linecap:square;stroke-linejoin:round;stroke-dasharray:none;stroke-opacity:1"
       d="m 36.1,440 c 0.112668,-7.16702 7.9,-20 7.9,-20 l 434,2 c 0,0 6.2109,14.40176 6,22 -0.17548,6.32212 -6,18 -6,18 H 44 c 0,0 -8.022475,-14.20916 -7.9,-22 z"
       id="path2703"
       sodipodi:nodetypes="sccsccs" /><path
       style="fill:url(#linearGradient2767);fill-opacity:1;stroke:none;stroke-width:5;stroke-linecap:square;stroke-linejoin:round;stroke-dasharray:none;stroke-opacity:1"
       d="m 38,444 v -14 h 174 v 14 z"
       id="path2705"
       sodipodi:nodetypes="ccccc" /><path
       style="fill:url(#linearGradient2771);fill-opacity:1;stroke:none;stroke-width:5;stroke-linecap:square;stroke-linejoin:round;stroke-dasharray:none;stroke-opacity:1"
       d="M 482,444 V 430 H 312 v 14 z"
       id="path2769"
       sodipodi:nodetypes="ccccc" /><path
       style="fill:#a8a8a0;stroke:none;stroke-width:5;stroke-linecap:square;stroke-linejoin:round;stroke-dasharray:none;stroke-opacity:1"
       d="M 249.90298,434 250,426 h -22 v 30 h 22 v -8 h -14 v -14 z"
       id="path2836"
       sodipodi:nodetypes="ccccccccc" /><path
       style="fill:#a8a8a0;stroke:none;stroke-width:5;stroke-linecap:square;stroke-linejoin:round;stroke-dasharray:none;stroke-opacity:1"
       d="m 256,426 v 8 h 18 v -8 z"
       id="path2838"
       sodipodi:nodetypes="ccccc" /><path
       style="fill:#a8a8a0;stroke:none;stroke-width:5;stroke-linecap:square;stroke-linejoin:round;stroke-dasharray:none;stroke-opacity:1"
       d="M 280.09702,434 280,426 h 22 v 30 h -22 v -8 h 14 v -14 z"
       id="path2840"
       sodipodi:nodetypes="ccccccccc" /><path
       style="fill:none;stroke:#212221;stroke-width:8;stroke-linecap:butt;stroke-linejoin:round;stroke-dasharray:none;stroke-opacity:1"
       d="m 204.62884,280.74763 c 0,0 47.58469,-47.10011 67.20675,-74.88216 C 304.12518,160.14801 331.04461,111.53979 346,56"
       id="path3012"
       sodipodi:nodetypes="csc" /><path
       style="fill:none;stroke:#212221;stroke-width:8;stroke-linecap:butt;stroke-linejoin:round;stroke-dasharray:none;stroke-opacity:1"
       d="m 270,204 c 0,0 -22.43032,-26.57536 -31.12703,-42.90427 C 221.78345,129.00849 206.03951,89.036239 200,56"
       id="path3140"
       sodipodi:nodetypes="csc" /><path
       style="fill:#f5c798;stroke:none;stroke-width:7.5;stroke-linecap:square;stroke-linejoin:round;stroke-dasharray:none;stroke-opacity:1"
       d="m 226,48 h 74 c -4.50614,28.965128 -19.70018,53.70133 -36,78 -21.85686,-22.7486 -31.3777,-49.86156 -38,-78 z"
       id="path3209"
       sodipodi:nodetypes="cccc" /><path
       style="fill:none;stroke:#212221;stroke-width:8;stroke-linecap:butt;stroke-linejoin:round;stroke-dasharray:none;stroke-opacity:1"
       d="m 238,162 c 0.66448,0.54709 18.38199,-23.64195 26,-34 11.87411,-16.145 35.59627,-65.691394 38,-80"
       id="path3142"
       sodipodi:nodetypes="csc" /><path
       style="fill:none;stroke:#212221;stroke-width:8;stroke-linecap:butt;stroke-linejoin:round;stroke-dasharray:none;stroke-opacity:1"
       d="M 264,128 C 238.14857,101.79244 232.00509,73.851144 228,48"
       id="path3144"
       sodipodi:nodetypes="cc" /><path
       style="fill:none;stroke:#212221;stroke-width:7.5;stroke-linecap:butt;stroke-linejoin:round;stroke-dasharray:none;stroke-opacity:1"
       d="m 94,402 c 0,0 -24.083276,-26.14513 -24,-40 0.518273,-86.22702 5.182474,-189.38452 36,-274"
       id="path3212"
       sodipodi:nodetypes="csc" /><path
       style="fill:none;stroke:#212221;stroke-width:7.5;stroke-linecap:butt;stroke-linejoin:round;stroke-dasharray:none;stroke-opacity:1"
       d="m 432,402 c 0.7681,0.60499 24.13284,-24.65952 24,-40 -0.76953,-88.86885 -5.7143,-193.3305 -34,-274"
       id="path3214"
       sodipodi:nodetypes="csc" /><path
       style="fill:none;stroke:#212221;stroke-width:8;stroke-linecap:butt;stroke-linejoin:round;stroke-dasharray:none;stroke-opacity:1"
       d="m 116,90 c -3.13279,13.63592 -3.59018,90.01307 2,132 5.47926,41.15381 10.01368,83.20084 26,120 6.02228,13.86278 34,32 34,32"
       id="path3216"
       sodipodi:nodetypes="cssc" /><path
       style="fill:none;stroke:#212221;stroke-width:8;stroke-linecap:butt;stroke-linejoin:round;stroke-dasharray:none;stroke-opacity:1"
       d="m 410,90 c 3.13279,13.63592 3.59018,90.01307 -2,132 -5.47926,41.15381 -10.01368,83.20084 -26,120 -6.02228,13.86278 -34,32 -34,32"
       id="path3218"
       sodipodi:nodetypes="cssc" /><path
       style="fill:none;stroke:#212221;stroke-width:5;stroke-linecap:butt;stroke-linejoin:round;stroke-dasharray:none;stroke-opacity:1"
       d="m 218,306 c 35.9132,-29.60464 67.7576,-68.98912 98,-112"
       id="path3220"
       sodipodi:nodetypes="cc" /><path
       style="fill:none;stroke:#212221;stroke-width:5;stroke-linecap:butt;stroke-linejoin:round;stroke-dasharray:none;stroke-opacity:1"
       d="M 252,230 C 237.69317,209.67035 224.77917,188.48837 214,166"
       id="path3222"
       sodipodi:nodetypes="cc" /><path
       style="fill:none;stroke:#212221;stroke-width:5;stroke-linecap:butt;stroke-linejoin:round;stroke-dasharray:none;stroke-opacity:1"
       d="m 251.79008,182 c 12.62257,-12.88587 31.50261,-33.50785 44,-58"
       id="path3224"
       sodipodi:nodetypes="cc" /></g></svg>
