<?xml version="1.0" encoding="UTF-8" standalone="no"?>
<!-- Created with Inkscape (http://www.inkscape.org/) -->

<svg
   width="128"
   height="256"
   viewBox="0 0 128 256"
   version="1.1"
   id="SVGRoot"
   sodipodi:docname="Torso Front Baby Luke.svg"
   inkscape:version="1.2.2 (b0a8486541, 2022-12-01)"
   xmlns:inkscape="http://www.inkscape.org/namespaces/inkscape"
   xmlns:sodipodi="http://sodipodi.sourceforge.net/DTD/sodipodi-0.dtd"
   xmlns="http://www.w3.org/2000/svg"
   xmlns:svg="http://www.w3.org/2000/svg">
  <sodipodi:namedview
     id="namedview8651"
     pagecolor="#ffffff"
     bordercolor="#666666"
     borderopacity="1.0"
     inkscape:pageshadow="2"
     inkscape:pageopacity="0.0"
     inkscape:pagecheckerboard="0"
     inkscape:document-units="px"
     showgrid="false"
     inkscape:zoom="2.174512"
     inkscape:cx="35.870117"
     inkscape:cy="62.772704"
     inkscape:window-width="1920"
     inkscape:window-height="1039"
     inkscape:window-x="0"
     inkscape:window-y="0"
     inkscape:window-maximized="1"
     inkscape:current-layer="layer1"
     inkscape:showpageshadow="2"
     inkscape:deskcolor="#d1d1d1" />
  <defs
     id="defs8646" />
  <g
     inkscape:label="Layer 1"
     inkscape:groupmode="layer"
     id="layer1">
    <rect
       style="display:inline;fill:#4eb4e3;fill-opacity:1;stroke:none;stroke-width:16.9685;stroke-linecap:round;stroke-linejoin:round"
       id="rect13997"
       width="128"
       height="256"
       x="0"
       y="0"
       inkscape:label="background" />
    <path
       id="path8781"
       style="display:inline;fill:#212421;fill-opacity:1;stroke:none;stroke-width:1px;stroke-linecap:butt;stroke-linejoin:miter;stroke-opacity:1"
       d="M 100 7 C 100 7 87.175003 15.432504 82 21 C 81.18176 21.880298 80 24 80 24 C 80 24 63.412778 20.668769 55 20 C 44.366889 19.154727 32.854705 15.918047 23 20 C 22.128959 20.360797 21 21.057192 21 22 L 21 31 C 21 31 30.927469 28.519013 36 28 C 43.578759 27.224554 51.245691 27.49073 58.855469 27.851562 C 65.932322 28.187125 73.051365 28.617641 80 30 C 86.826423 31.358046 93.220407 34.424736 100 36 C 103.94995 36.917785 112 38 112 38 L 86 24 L 100 7 z M 116 74 C 116 74 100.33169 81.1072 92 83 C 80.905347 85.52049 69.377344 86.015089 58 86 C 50.636439 85.9902 43.153405 85.746686 36 84 C 28.3029 82.120557 14 75 14 75 L 12 75 L 10 86 C 10 86 11.198 87.504336 12 88 C 15.586655 90.216675 19.869742 91.152233 24 92 C 31.863777 93.6141 39.972278 94 48 94 C 56.027722 94 64.028004 92.94424 72 92 C 80.707754 90.968614 89.591905 90.488509 98 88 C 105.00998 85.925284 118 79 118 79 C 118 79 118.27584 77.286356 118 76.5 C 117.64675 75.492973 116 74 116 74 z M 10 141 C 10 141 7 144.05635 7 146 L 7 154 C 7 154 25.423257 160.90312 35 163 C 44.511477 165.08259 54.263217 166.52067 64 166.5 C 70.718526 166.4857 77.456549 165.52382 84 164 C 92.932194 161.91989 101.90094 159.30304 110 155 C 114.41549 152.65405 122 146 122 146 L 122.5 143 C 122.5 143 119.45934 143.51891 118 144 C 111.76422 146.05573 106.2745 150.06567 100 152 C 92.877236 154.19583 85.417164 155.26438 78 156 C 68.710761 156.92129 59.295375 157.35716 50 156.5 C 42.546459 155.81268 34.964574 154.7427 28 152 C 21.457382 149.42347 10 141 10 141 z M 5 190 C 5 190 6.7896097 195.422 8 198 C 9.1421436 200.43264 10.313175 202.90791 12 205 C 14.814834 208.4911 18.365781 211.37254 22 214 C 26.355706 217.14908 31.012705 219.99607 36 222 C 42.376361 224.56206 49.132167 226.76548 56 227 C 65.475443 227.32357 75.055557 225.14415 84 222 C 91.880592 219.22982 98.885373 214.37719 106 210 C 111.00066 206.9234 120.5 200 120.5 200 L 121 196 C 121 196 113.6698 199.34025 110 201 C 103.33902 204.01257 96.906772 207.60399 90 210 C 83.507722 212.25222 76.820349 214.16038 70 215 C 64.044961 215.7331 57.938729 215.85523 52 215 C 46.153636 214.15807 40.496533 212.16263 35 210 C 30.838401 208.36261 26.783454 206.38442 23 204 C 16.569364 199.94727 5 190 5 190 z "
       inkscape:label="wrinkles" />
  </g>
</svg>
