<?xml version="1.0" encoding="UTF-8" standalone="no"?>
<!-- Created with Inkscape (http://www.inkscape.org/) -->

<svg
   width="128"
   height="256"
   viewBox="0 0 128 256"
   version="1.1"
   id="SVGRoot"
   sodipodi:docname="Torso Front Baby Luke.svg"
   inkscape:version="1.1.2 (0a00cf5339, 2022-02-04)"
   xmlns:inkscape="http://www.inkscape.org/namespaces/inkscape"
   xmlns:sodipodi="http://sodipodi.sourceforge.net/DTD/sodipodi-0.dtd"
   xmlns="http://www.w3.org/2000/svg"
   xmlns:svg="http://www.w3.org/2000/svg">
  <sodipodi:namedview
     id="namedview8651"
     pagecolor="#ffffff"
     bordercolor="#666666"
     borderopacity="1.0"
     inkscape:pageshadow="2"
     inkscape:pageopacity="0.0"
     inkscape:pagecheckerboard="0"
     inkscape:document-units="px"
     showgrid="false"
     inkscape:zoom="3.0752244"
     inkscape:cx="35.119388"
     inkscape:cy="107.14665"
     inkscape:window-width="1920"
     inkscape:window-height="1048"
     inkscape:window-x="0"
     inkscape:window-y="0"
     inkscape:window-maximized="1"
     inkscape:current-layer="layer1" />
  <defs
     id="defs8646" />
  <g
     inkscape:label="Layer 1"
     inkscape:groupmode="layer"
     id="layer1">
    <rect
       style="display:inline;fill:#4eb4e3;fill-opacity:1;stroke:none;stroke-width:16.9685;stroke-linecap:round;stroke-linejoin:round"
       id="rect13997"
       width="128"
       height="256"
       x="0"
       y="0" />
    <path
       style="display:inline;fill:#212421;fill-opacity:1;stroke:none;stroke-width:1px;stroke-linecap:butt;stroke-linejoin:miter;stroke-opacity:1"
       d="m 21,31 v -9 c 0,-0.942809 1.128958,-1.639203 2,-2 9.854715,-4.081957 21.366878,-0.845274 32,0 8.412786,0.66877 25,4 25,4 0,0 1.181759,-2.119701 2,-3 5.175008,-5.567502 18,-14 18,-14 l -14,17 26,14 c 0,0 -8.05005,-1.082214 -12,-2 C 93.2204,34.424734 86.82643,31.358047 80,30 73.051358,28.61764 65.931376,28.186284 58.854516,27.850721 51.244731,27.489888 43.578767,27.224553 36,28 30.927464,28.519014 21,31 21,31 Z"
       id="path8781"
       sodipodi:nodetypes="csaacacccaaaac" />
    <path
       style="fill:#212421;fill-opacity:1;stroke:none;stroke-width:1px;stroke-linecap:butt;stroke-linejoin:miter;stroke-opacity:1"
       d="m 12,75 -2,11 c 0,0 1.197999,1.504336 2,2 3.586659,2.216677 7.869738,3.152232 12,4 7.863785,1.614102 15.97227,2 24,2 8.02773,0 16.027996,-1.055759 24,-2 8.707763,-1.031387 17.591897,-1.511489 26,-4 7.00999,-2.074718 20,-9 20,-9 0,0 0.27584,-1.713643 0,-2.5 -0.35325,-1.007028 -2,-2.5 -2,-2.5 0,0 -15.6683,7.107198 -24,9 -11.094664,2.520493 -22.622645,3.015089 -34,3 -7.363568,-0.0098 -14.846588,-0.253312 -22,-2 -7.697108,-1.879445 -22,-9 -22,-9 z"
       id="path11769"
       sodipodi:nodetypes="ccaaaaacacaaacc" />
    <path
       style="fill:#212421;fill-opacity:1;stroke:none;stroke-width:1px;stroke-linecap:butt;stroke-linejoin:miter;stroke-opacity:1"
       d="m 10,141 c 0,0 -3,3.05635 -3,5 v 8 c 0,0 18.423247,6.90312 28,9 9.511487,2.08259 19.263207,3.52067 29,3.5 6.718533,-0.0143 13.456542,-0.97618 20,-2.5 8.932203,-2.08011 17.90093,-4.69696 26,-9 4.41549,-2.34595 12,-9 12,-9 l 0.5,-3 c 0,0 -3.04066,0.51891 -4.5,1 -6.23579,2.05573 -11.72549,6.06567 -18,8 -7.122771,2.19583 -14.582829,3.26438 -22,4 -9.289248,0.92129 -18.704616,1.35716 -28,0.5 -7.453548,-0.68732 -15.035419,-1.7573 -22,-4.5 -6.542625,-2.57653 -18,-11 -18,-11 z"
       id="path14134"
       sodipodi:nodetypes="cscaaaaccaaaaac" />
    <path
       style="fill:#212421;fill-opacity:1;stroke:none;stroke-width:1px;stroke-linecap:butt;stroke-linejoin:miter;stroke-opacity:1"
       d="m 5,190 c 0,0 11.569358,9.94727 18,14 3.783458,2.38442 7.838397,4.36261 12,6 5.496538,2.16263 11.15363,4.15807 17,5 5.938735,0.85523 12.044955,0.7331 18,0 6.820356,-0.83962 13.507716,-2.74778 20,-5 6.906779,-2.39601 13.33901,-5.98743 20,-9 3.6698,-1.65975 11,-5 11,-5 l -0.5,4 c 0,0 -9.49933,6.9234 -14.5,10 -7.114634,4.37719 -14.1194,9.22982 -22,12 -8.944452,3.14415 -18.524548,5.32357 -28,5 -6.86784,-0.23452 -13.623633,-2.43794 -20,-5 -4.9873,-2.00393 -9.64429,-4.85092 -14,-8 -3.634223,-2.62746 -7.185163,-5.5089 -10,-9 -1.686827,-2.09209 -2.8578553,-4.56736 -4,-7 -1.2103915,-2.578 -3,-8 -3,-8 z"
       id="path17623"
       sodipodi:nodetypes="caaaaaaccaaaaaaac" />
  </g>
</svg>
