<?xml version="1.0" encoding="UTF-8" standalone="no"?>
<!-- Created with Inkscape (http://www.inkscape.org/) -->

<svg
   width="512"
   height="512"
   viewBox="0 0 512 512"
   version="1.1"
   id="svg5"
   inkscape:version="1.1.2 (0a00cf5339, 2022-02-04)"
   sodipodi:docname="Torso Satipo beta.svg"
   xmlns:inkscape="http://www.inkscape.org/namespaces/inkscape"
   xmlns:sodipodi="http://sodipodi.sourceforge.net/DTD/sodipodi-0.dtd"
   xmlns="http://www.w3.org/2000/svg"
   xmlns:svg="http://www.w3.org/2000/svg">
  <sodipodi:namedview
     id="namedview7"
     pagecolor="#ffffff"
     bordercolor="#666666"
     borderopacity="1.0"
     inkscape:pageshadow="2"
     inkscape:pageopacity="0.0"
     inkscape:pagecheckerboard="0"
     inkscape:document-units="px"
     showgrid="false"
     inkscape:zoom="1.4142136"
     inkscape:cx="152.02796"
     inkscape:cy="235.113"
     inkscape:window-width="1920"
     inkscape:window-height="1048"
     inkscape:window-x="0"
     inkscape:window-y="0"
     inkscape:window-maximized="1"
     inkscape:current-layer="layer1" />
  <defs
     id="defs2" />
  <g
     inkscape:label="Layer 1"
     inkscape:groupmode="layer"
     id="layer1">
    <rect
       style="display:inline;fill:#d5ba84;fill-opacity:1;stroke-width:13.1771;stroke-linecap:round;stroke-linejoin:round"
       id="rect972"
       width="512"
       height="512"
       x="0"
       y="0"
       inkscape:label="background" />
    <path
       style="display:inline;fill:#ffffff;stroke:none;stroke-width:1px;stroke-linecap:butt;stroke-linejoin:miter;stroke-opacity:1"
       d="M 158,52 248,172 342,52 296,479 H 217 Z"
       id="path8487"
       sodipodi:nodetypes="cccccc"
       inkscape:label="undershirt" />
    <path
       style="display:inline;fill:#aa5500;fill-opacity:1;stroke:none;stroke-width:1px;stroke-linecap:butt;stroke-linejoin:miter;stroke-opacity:1"
       d="M 158,52 H 342 L 252,172 Z"
       id="path8877"
       sodipodi:nodetypes="cccc"
       inkscape:label="skin" />
    <path
       id="path1087"
       style="display:inline;fill:#212221;fill-opacity:1;stroke:none;stroke-width:1px;stroke-linecap:butt;stroke-linejoin:miter;stroke-opacity:1"
       d="m 158.5,46 -6.5,2 c 0,0 0.37885,13.021166 1,19.5 1.14047,11.895583 5,35.5 5,35.5 0,0 -20.17077,11.04204 -30,17 -14.42981,8.74658 -42.5,27.5 -42.5,27.5 0,0 7.072906,-28.9826 10.5,-43.5 2.043524,-8.656507 3.671821,-17.415672 6,-26 1.46261,-5.392864 5,-16 5,-16 l -3,-1.5 c -2.68742,-1.343711 -7.779706,-2.245662 -9,0.5 0,0 -2.841797,5.928137 -4,9 -1.971297,5.228404 -3.608698,10.5883 -5,16 -5.420354,21.08337 -11.392567,42.29044 -13,64 -0.468304,6.32479 1,19 1,19 0,0 8.064202,-4.49218 12,-6.90039 11.529987,-7.0549 22.20558,-15.49629 34,-22.09961 13.20026,-7.39041 40.97656,-19.51172 40.97656,-19.51172 L 205.5,480 218,476.5 179,177 c 0,0 4.71394,-2.58714 7,-4 1.53353,-0.94778 4.5,-3 4.5,-3 0,0 21.1499,31.69806 31,48 3.85946,6.38741 7.03851,13.17536 11,19.5 4.19655,6.69992 13.5,19.5 13.5,19.5 0,0 -1.20455,2.26557 -1.5,3.5 -4.78178,19.97905 -3.33298,40.96752 -4,61.5 -0.25975,7.99578 -0.39252,16.00964 0,24 1.08464,22.07981 5.41536,43.92019 6.5,66 0.3271,6.65864 0.1514,13.33505 0,20 -0.25006,11.00852 -1.44646,21.98877 -1.5,33 -0.0227,4.66959 0.5,14 0.5,14 h 6 c 0,0 1.66658,-29.98889 2,-45 0.28127,-12.66354 0.4861,-25.34266 0,-38 -1.00074,-26.0576 -6.29853,-51.9249 -6,-78 0.19175,-16.7487 5,-50 5,-50 0,0 5.19293,5.84922 7.5,9 2.92256,3.99135 5.01415,8.55577 8,12.5 3.634,4.80042 8.00226,8.998 12,13.5 9.17184,10.32874 27.5,31 27.5,31 0,0 -8.80777,67.91467 -12,102 -1.33977,14.30557 -3,43 -3,43 h 11 c 0,0 15.0087,-151.36693 23,-227 3.52359,-33.34876 7.77395,-66.62114 11,-100 0.77228,-7.9905 0.3859,-16.13621 2,-24 0.42388,-2.06513 2,-6 2,-6 0,0 4.05637,0.42258 6,1 5.58036,1.65784 10.94347,4.11549 16,7 6.06688,3.46087 11.16146,8.41644 17,12.25 4.21714,2.76896 8.82266,4.92136 13,7.75 5.90685,3.99975 10.94935,9.22131 17,13 2.2127,1.38185 4.46104,2.90063 7,3.5 1.13546,0.26805 2.47138,0.5505 3.5,0 1.58946,-0.85065 2.44177,-2.78583 3,-4.5 1.23967,-3.80671 0.72853,-8.00306 0.5,-12 -0.67413,-11.79058 -3.40415,-23.37762 -5.5,-35 -1.63,-9.03904 -3.12676,-18.127073 -5.5,-27 -2.45128,-9.164674 -9,-27 -9,-27 0,0 -6.06462,-2.295964 -9,-1.5 -1.25634,0.340672 -3.39468,1.259569 -3,2.5 0,0 5.00757,14.825897 7,22 1.99243,7.174103 3.43755,13.976003 5,21 2.14345,9.63587 4.33801,19.26952 6,29 1.04768,6.13389 2.5,18.5 2.5,18.5 0,0 -3.11248,-1.49043 -4.5,-2.5 -5.53042,-4.02396 -9.57502,-9.83498 -15,-14 -4.98864,-3.83002 -10.70392,-6.60779 -16,-10 -10.74356,-6.8814 -23.52183,-11.46593 -32,-21 -1.23825,-1.39247 -2.6597,-3.14347 -2.5,-5 l 4,-46.5 -7.5,-4 c 0,0 -36.41225,46.004422 -53.69727,69.69727 C 275.1306,134.51108 267.82389,153.02968 254,166 c -0.70872,0.66496 -2.5,1.5 -2.5,1.5 0,0 -7.37249,-13.18272 -11.5,-19.5 -9.66484,-14.79233 -20.07887,-29.10932 -31,-43 C 193.00007,84.649543 158.5,46 158.5,46 Z m 173,32.5 c 0,0 1.92914,-0.12956 2.5,0.5 1.12513,1.240826 0.69276,3.33615 0.5,5 l -9.5,82 -2.5,2 c 0,0 -4.20554,-3.20389 -6.5,-4.5 -3.18261,-1.79781 -6.53565,-3.33406 -10,-4.5 -7.9346,-2.67042 -16.1916,-4.42179 -24.47461,-5.63867 C 279.69926,153.09305 276,153 276,153 c 0,0 17.00341,-24.90522 26,-37 9.49216,-12.76101 29.5,-37.5 29.5,-37.5 z M 169,79 h 2.5 l 22.5,28 19,21 15.5,21 c 0,0 -4.04137,0.0265 -6.02539,0.36133 C 216.84908,150.31065 211.42149,152.22372 206,154 c -5.41288,1.77346 -10.7521,3.78551 -16,6 -2.88504,1.21742 -5.44404,3.31688 -8.5,4 -1.46387,0.32723 -4.5,0 -4.5,0 z m 106,89.5 c 1.89104,-0.18725 3.61652,1.24777 5.5,1.5 8.75517,1.17248 17.75205,-1.22519 26.5,0 2.40325,0.33659 4.71898,1.17185 7,2 3.08587,1.12036 6.29382,2.1414 9,4 0.77717,0.53376 1.74833,1.0914 2,2 0.5503,1.98675 -1.1431,3.96957 -1.5,6 -4.8478,27.5798 -8.63867,83.5625 -8.63867,83.5625 0,0 -6.14902,-3.72756 -8.86133,-6.0625 -7.41796,-6.38587 -13.63057,-14.06791 -20,-21.5 -9.65197,-11.26229 -27.55664,-34.9375 -27.55664,-34.9375 L 261,175.5 c 0,0 8.8079,-6.48588 14,-7 z m -26.5,5.5 c 0,0 1.32114,5.29277 1.5,8 0.15439,2.33678 -0.375,7.01562 -0.375,7.01562 L 242,178 Z m 192.70508,176.54492 c -1.4138,0.05 -3.28806,0.86828 -4.45508,1.45508 -0.79143,0.39794 -1.43842,1.17076 -1.75,2 -0.46897,1.24814 -0.34222,2.71133 0,4 0.34489,1.29869 1.55709,2.23138 2,3.5 0.72257,2.06965 0.92383,4.30917 1,6.5 0.13947,4.01144 -1,12 -1,12 0,0 -29.33696,5.31349 -44,8 -10.83603,1.98534 -32.5,6 -32.5,6 L 353,360 c -0.25889,-1.17364 -0.94036,-2.4329 -2,-3 -1.6164,-0.86507 -3.82756,-0.75104 -5.5,0 -1.8308,0.82215 -4.17714,2.5009 -4,4.5 L 345,401 c 0.26315,2.96979 1.08041,8.60405 4,8 l 29,-6 c 10.69244,-2.21223 21.26815,-4.98763 32,-7 13.76213,-2.58058 41.5,-6.5 41.5,-6.5 1.19874,-0.18775 1.17782,-2.29975 1,-3.5 0,0 -0.89636,-9.08679 -2,-13.5 -1.8033,-7.21097 -7.5,-21 -7.5,-21 -0.2636,-0.73809 -0.94664,-0.98511 -1.79492,-0.95508 z m -382.000002,0.66406 c -0.422187,0.006 -0.829016,0.0932 -1.205078,0.29102 -3.370064,1.77276 -3.208292,6.91789 -4.5,10.5 -2.593911,7.19332 -6.5,22 -6.5,22 -0.550726,1.864 1.120345,4.50535 3,5 0,0 12.624967,3.50072 19,5 17.563966,4.1307 35.24399,7.79379 53,11 8.62908,1.55816 26,4 26,4 l 9.5,-40 c 0.35506,-1.49501 -2.20092,-2.17933 -3.5,-3 -1.38775,-0.87669 -2.85852,-2 -4.5,-2 -1.64148,0 -4.05638,0.41961 -4.5,2 l -8,28.5 c 0,0 -20.07356,-2.57235 -30,-4.5 -15.476527,-3.00544 -46,-11 -46,-11 0,0 -0.800911,-10.06456 0,-15 0.168847,-1.04048 0.487032,-2.07914 1,-3 0.633469,-1.13717 2.056866,-1.77604 2.5,-3 0.4539,-1.2537 0.510245,-2.76816 0,-4 -0.270598,-0.65328 -0.876562,-1.16635 -1.5,-1.5 -1.123919,-0.6015 -2.528362,-1.30901 -3.794922,-1.29102 z"
       inkscape:label="detail" />
    <path
       style="fill:#663200;fill-opacity:1;stroke:none;stroke-width:1px;stroke-linecap:butt;stroke-linejoin:miter;stroke-opacity:1"
       d="m 201,171 c 0,0 0.64438,-2.28034 1.5,-3 1.33165,-1.12004 3.25995,-1.5 5,-1.5 h 15 c 0,0 17.87557,26.99323 27.5,40 10.51269,14.2072 21.56544,28.02365 33,41.5 6.10741,7.19796 12.49381,14.16037 19,21 3.73639,3.92788 11.5,11.5 11.5,11.5 l -0.5,39.5 -2.5,4 c 0,0 -13.80629,-14.26306 -20,-22 -10.69186,-13.35585 -19.48552,-28.129 -29.5,-42 -7.5317,-10.43212 -15.70214,-20.40298 -23,-31 -13.0068,-18.88682 -37,-58 -37,-58 z"
       id="path23607"
       sodipodi:nodetypes="cascaaacccaaac"
       inkscape:label="satchel" />
    <path
       id="path37047"
       style="fill:#212221;fill-opacity:1;stroke:none;stroke-width:1px;stroke-linecap:butt;stroke-linejoin:miter;stroke-opacity:1"
       d="m 251.77148,85.908203 c -0.0997,-0.0033 -0.19146,0.02511 -0.27148,0.0918 0,0 -2.17845,1.490294 -3,2.5 -1.7882,2.197754 -2.8334,4.917981 -4,7.5 -0.58632,1.297693 -1.09127,2.635919 -1.5,4 -1.07928,3.60195 -2.08072,7.26328 -2.5,11 -0.33452,2.98129 -0.48055,6.03874 0,9 0.25327,1.56072 1.5,4.5 1.5,4.5 0.21731,0.65192 1.62321,0.0747 2,-0.5 0.55587,-0.84781 -0.5,-1.98621 -0.5,-3 0,-1.01379 0.4164,-1.98966 0.5,-3 0.21995,-2.65758 -0.4023,-5.36385 0,-8 0.84298,-5.52373 3.61683,-10.586217 5,-16 0.21037,-0.823388 0.099,-1.750721 0.5,-2.5 0.77853,-1.454689 3.5,-3.5 3.5,-3.5 0.5156,-0.515599 -0.53034,-2.068997 -1.22852,-2.091797 z M 235.5,98 c -0.83124,0.05907 -1.14186,1.247552 -1.5,2 -0.59066,1.24097 -0.74764,2.649 -1,4 -0.49346,2.64173 -0.83301,5.31777 -1,8 -0.12427,1.99614 -0.2774,4.01933 0,6 0.33659,2.40325 0.95647,4.80912 2,7 0.87484,1.83672 1.95964,3.67103 3.5,5 0.56435,0.4869 1.25652,0.9472 2,1 0.52572,0.0374 1.75238,-0.0373 1.5,-0.5 0,0 -2.71784,-3.43082 -3,-5.5 0,0 -1.1267,-7.31828 -1.5,-11 -0.25275,-2.49277 -0.4166,-4.99584 -0.5,-7.5 -0.0277,-0.83287 -0.0415,-1.6677 0,-2.5 0.0834,-1.6729 0.5,-5 0.5,-5 0.0469,-0.469065 -0.52978,-1.03342 -1,-1 z m 30.38281,1.919922 c -0.32728,0.0089 -0.63732,0.0328 -0.88281,0.08008 -0.88133,0.16973 -1.77387,0.47247 -2.5,1 -1.05313,0.76509 -1.7212,1.95697 -2.5,3 -1.43812,1.92603 -2.85511,3.88647 -4,6 -1.20914,2.23213 -2.24702,4.57565 -3,7 -0.50414,1.62318 -1,3.30033 -1,5 v 10 h 2 c 0,0 0.89106,-8.75825 2,-13 0.72035,-2.7554 1.56497,-5.53996 3,-8 0,0 1.74652,-4.48791 3.5,-6 0.67971,-0.58614 1.75071,-0.50592 2.5,-1 0.7871,-0.51901 1.44873,-1.23515 2,-2 0.43582,-0.60466 1,-2 1,-2 0,0 -1.13535,-0.106671 -2.11719,-0.08008 z m 5.73828,21.064458 c -0.88774,-0.002 -1.78366,0.22304 -2.62109,0.51562 -1.61991,0.56597 -3.17075,1.41486 -4.5,2.5 -1.19032,0.97172 -2.05251,2.2903 -3,3.5 -1.76811,2.25743 -3.55951,4.52065 -5,7 -1.19879,2.06333 -2.15505,4.26829 -3,6.5 -0.61612,1.62732 -1.37,3.26481 -1.5,5 -0.26414,3.52565 1.5,10.5 1.5,10.5 0,0 1.16892,-8.46468 2.5,-12.5 0.98092,-2.97378 2.19941,-5.93808 4,-8.5 1.76192,-2.5069 4.37099,-4.29632 6.5,-6.5 2.37607,-2.45942 7,-7.5 7,-7.5 0,0 -0.97457,-0.4588 -1.5,-0.5 -0.12634,-0.01 -0.25209,-0.0154 -0.37891,-0.0156 z"
       inkscape:label="chesthair" />
  </g>
</svg>
