<?xml version="1.0" encoding="UTF-8" standalone="no"?>
<!-- Created with Inkscape (http://www.inkscape.org/) -->

<svg
   width="512px"
   height="512px"
   viewBox="0 0 512 512"
   version="1.1"
   id="SVGRoot"
   sodipodi:docname="Torso Front Batman (Demolition Suit).svg"
   inkscape:version="1.1.2 (0a00cf5339, 2022-02-04)"
   xmlns:inkscape="http://www.inkscape.org/namespaces/inkscape"
   xmlns:sodipodi="http://sodipodi.sourceforge.net/DTD/sodipodi-0.dtd"
   xmlns="http://www.w3.org/2000/svg"
   xmlns:svg="http://www.w3.org/2000/svg">
  <sodipodi:namedview
     id="namedview45035"
     pagecolor="#ffffff"
     bordercolor="#666666"
     borderopacity="1.0"
     inkscape:pageshadow="2"
     inkscape:pageopacity="0.0"
     inkscape:pagecheckerboard="0"
     inkscape:document-units="px"
     showgrid="false"
     inkscape:zoom="1.4142136"
     inkscape:cx="247.48737"
     inkscape:cy="299.10617"
     inkscape:window-width="1920"
     inkscape:window-height="1012"
     inkscape:window-x="0"
     inkscape:window-y="0"
     inkscape:window-maximized="1"
     inkscape:current-layer="layer1" />
  <defs
     id="defs45030" />
  <g
     inkscape:label="Layer 1"
     inkscape:groupmode="layer"
     id="layer1">
    <rect
       style="display:inline;fill:#212321;fill-opacity:1;stroke:none;stroke-width:12.8115;stroke-linejoin:round"
       id="rect45530"
       width="512"
       height="512"
       x="0"
       y="0" />
    <path
       style="display:inline;fill:#635f63;fill-opacity:1;stroke:none"
       d="m 252,44 c 2.775,35.1611 -1.989,69.16 -5.833,104 -2.626,23.796 -2.325,46.41 -19.595,64.907 C 215.755,224.491 194.519,216.504 181,213.8 143.82,206.365 85.2563,202.48 68,163 h -1 c -1.1774,9.308 -8.4728,27.335 -1.8519,34.985 6.5591,7.579 16.8387,12.671 25.8519,16.703 2.6014,1.163 9.58,2.073 10.079,5.54 0.747,5.202 -6.9943,8.643 -11.079,8.062 -12.3119,-1.749 -20.1728,-9.713 -31,-14.29 -2.4588,13.252 4.3717,19.745 17,22.334 3.4725,0.712 9.7484,-0.312 11.9568,3.1 3.3862,5.23 -4.7391,16.086 -9.9607,16.843 C 69.5987,257.495 60.4974,250.24 54,246 c -2.2838,17.625 12.5267,21 27,21 -0.186,22.175 -16.8795,18.202 -32,12 0.1318,15.713 13.5957,19.191 27,16 7.973,16.954 40.894,25.696 58,28 0.607,7.631 2.91,15.127 6.259,22 2.089,4.285 6.411,9.038 6.339,14 -0.055,3.828 -2.613,7.254 -3.269,11 -1.623,9.259 -1.456,20.584 -1.325,30 0.082,5.944 4.675,10.381 4.594,16 -0.065,4.471 -3.133,8.464 -3.505,13 -0.921,11.237 3.493,32.864 10.556,41.892 7.761,9.919 35.076,2.97 46.351,2.198 20.14,-1.38 40.81,-0.09 61,-0.09 17.118,0 34.962,-1.452 52,0.17 10.749,1.023 37.656,7.04 45.606,-1.398 7.786,-8.262 12.203,-31.766 11.301,-42.772 -0.37,-4.509 -3.507,-8.556 -3.48,-13 0.035,-5.794 5.367,-9.912 5.558,-16 0.29,-9.284 0.335,-20.869 -1.314,-29.996 -0.75,-4.147 -4.502,-7.701 -4.088,-12.008 0.42,-4.376 4.237,-8.146 6.094,-11.996 3.031,-6.283 3.531,-13.874 6.753,-19.891 2.751,-5.138 11.499,-5.559 16.57,-7.134 9.656,-3.001 19.355,-6.46 28,-11.79 4.906,-3.025 9.353,-8.546 14.576,-10.734 11.656,-4.882 25.019,2.562 25.424,-16.451 -6.945,1.607 -16.782,7.146 -23.96,4.396 -4.31,-1.652 -10.463,-11.576 -6.422,-15.793 2.575,-2.686 8.933,-1.791 12.382,-2.646 10.011,-2.484 13.919,-9.174 14,-18.957 -7.704,1.998 -16.263,11.517 -24.999,9.223 -4.979,-1.307 -13.38,-11.729 -9.358,-16.905 2.641,-3.398 9.508,-2.486 13.357,-3.333 12.745,-2.805 17.306,-10.564 15,-22.985 -10.034,6.631 -18.627,13.532 -31,15.29 -3.934,0.559 -13.035,-3.537 -10.744,-8.86 1.412,-3.281 9.686,-4.54 12.744,-5.858 8.155,-3.516 19.133,-9.489 24.396,-16.858 C 454.302,189.845 447.499,171.728 446,164 h -1 c -5.559,9.985 -13.211,19.913 -23,26.049 -9.294,5.825 -21.474,7.692 -32,10.324 -18.935,4.736 -37.961,8.999 -57,13.277 -10.597,2.382 -26.227,7.417 -37,4.956 -7.48,-1.709 -14.155,-10.537 -18.138,-16.606 -9.72,-14.809 -9.408,-35.798 -10.938,-53 -1.748,-19.655 -6.021,-39.277 -6.885,-59 -0.666,-15.2215 2.199,-31.0407 0.961,-46 h -9 m 1,164.498 c 15.221,-4.097 26.241,16.808 40,19.85 7.735,1.71 18.153,-1.394 26,-2.179 18.326,-1.832 36.648,-3.78 55,-5.255 7.951,-0.639 20.704,-3.798 27.985,0.226 13.857,7.659 19.155,33.577 21.145,47.86 0.715,5.125 2.233,12.125 -0.309,16.96 -2.724,5.181 -9.576,7.919 -14.821,9.684 -6.415,2.16 -16.709,5.654 -22.961,1.614 -6.306,-4.076 -9.066,-12.182 -16.043,-15.458 -13.563,-6.369 -28.791,-9.84 -42.996,-14.47 -11.309,-3.686 -22.938,-8.837 -35,-8.291 -11.869,0.538 -22.329,9.442 -34,9.603 -11.632,0.161 -22.308,-8.695 -34,-9.552 -17.156,-1.257 -36.991,8.222 -53,13.771 -8.732,3.027 -20.206,4.942 -27.961,9.982 -5.691,3.699 -8.243,10.787 -14.043,14.415 -7.522,4.705 -21.871,-0.334 -28.996,-4.083 -19.0465,-10.021 -6.4004,-42.23 0.784,-57.175 2.574,-5.354 5.887,-11.69 11.231,-14.721 8.56,-4.854 25.595,-0.94 34.985,0.297 22.826,3.006 49.015,7.78 72,7.069 13.433,-0.415 22.371,-16.747 35,-20.147 M 219,270.3 c 29.437,-4.158 36.109,29.327 33.13,50.7 -1.083,7.774 -2.36,23.322 -12.131,24.852 -19.511,3.054 -41.21,3.225 -60.999,4.187 -6.61,0.321 -15.814,3.819 -21.91,0.388 -13.166,-7.408 -15.993,-37.117 -7.301,-48.334 4.442,-5.732 12.871,-9.114 19.211,-12.337 15.39,-7.824 32.697,-17.011 50,-19.456 m 68,0.026 c 18.66,-3.088 43.016,12.434 59,20.427 6.713,3.357 14.739,6.543 18.775,13.251 6.814,11.322 3.986,44.347 -11.775,47.587 -5.606,1.153 -12.343,-1.088 -18,-1.502 -15.563,-1.141 -31.554,-1.637 -47,-3.665 -5.863,-0.769 -14.948,1.509 -19.606,-2.858 -5.759,-5.396 -6.782,-17.179 -7.469,-24.566 -1.875,-20.156 1.436,-44.598 26.075,-48.674 m -92,87.959 c 12.224,-1.442 40.053,-4.343 49.957,3.994 9.565,8.05 10.728,38.117 -4.958,40.573 -19.511,3.054 -41.21,3.225 -60.999,4.187 -6.377,0.31 -16.062,3.962 -21.852,0.388 -3.882,-2.396 -3.331,-7.445 -3.058,-11.427 0.603,-8.825 -1.455,-28.517 7.018,-33.91 8.856,-5.638 23.872,-2.622 33.892,-3.805 m 87,0 c 15.894,-1.881 32.126,0.713 48,0.715 6.696,10e-4 17.231,-0.661 22.786,3.703 7.323,5.753 9.17,31.707 6.896,40.254 -0.84,3.158 -3.591,4.995 -6.683,5.634 -5.601,1.158 -12.346,-1.088 -17.999,-1.502 -15.215,-1.116 -30.901,-1.531 -46,-3.513 -5.768,-0.758 -14.921,1.245 -19.786,-2.318 -10.986,-8.046 -10.922,-30.349 -1.109,-38.979 3.824,-3.364 9.077,-3.423 13.895,-3.994 m -87,57 c 12.225,-1.442 40.052,-4.343 49.957,3.994 10.193,8.579 13.523,38.715 -3.961,41.507 -17.933,2.864 -36.864,1.258 -54.996,3.638 -5.657,0.743 -18.61,3.835 -23.721,1.227 -3.663,-1.868 -3.771,-8.126 -4.359,-11.651 -1.561,-9.355 -6.75,-27.074 2.305,-34.297 8.218,-6.555 24.925,-3.255 34.775,-4.418 m 87,0 c 15.894,-1.881 32.126,0.713 48,0.715 6.654,10e-4 17.278,-0.682 22.775,3.703 9.055,7.223 3.866,24.942 2.305,34.297 -0.724,4.343 -0.762,10.95 -6.135,11.852 -7.48,1.255 -16.446,-0.966 -23.945,-1.682 -12.619,-1.206 -25.449,-1.408 -38,-2.885 -5.83,-0.686 -13.541,1.3 -18.812,-1.742 -12.96,-7.479 -9.803,-31.716 -0.083,-40.264 3.824,-3.364 9.077,-3.423 13.895,-3.994 z"
       id="path45300" />
    <rect
       style="display:inline;fill:#212320;fill-opacity:1;stroke:none;stroke-width:5.33064;stroke-linejoin:round;stroke-miterlimit:4;stroke-dasharray:none;stroke-opacity:1"
       id="rect108401"
       width="512"
       height="68"
       x="0"
       y="444" />
    <ellipse
       style="display:inline;fill:#e7ba7b;fill-opacity:1;stroke:#212321;stroke-width:8;stroke-linejoin:round;stroke-miterlimit:4;stroke-dasharray:none;stroke-opacity:1"
       id="path88702"
       cx="255"
       cy="141"
       rx="154"
       ry="89" />
    <path
       style="display:inline;fill:#212321;fill-opacity:1;stroke:none;stroke-width:1px;stroke-linecap:butt;stroke-linejoin:miter;stroke-opacity:1"
       d="m 241,70 9,13 h 12 l 7,-13.457479 c 0,0 -1.20543,20.541819 1,30.457479 1.10232,4.95607 3.15359,9.79575 6,14 1.5857,2.34213 3.38687,4.91761 6,6 4.92736,2.04098 10.7712,1.05074 16,0 5.99261,-1.20422 12.56386,-2.78954 16.91374,-7.08373 3.57976,-3.53392 5.74412,-8.81968 6.00847,-13.842967 0.48625,-9.239681 -8.3182,-26.481707 -8.3182,-26.481707 0,0 7.74229,1.868556 11.39599,3.408404 12.64996,5.331315 25.04066,11.733357 36,20 9.03228,6.81306 18.19848,14.287 24,24 3.5691,5.97545 6,13.0398 6,20 0,6.9602 -2.56155,13.94843 -6,20 -5.36133,9.43578 -13.82097,16.8669 -22,24 -7.94418,6.92828 -26,18 -26,18 l 8,-14 c 2.97683,-5.20946 2.68328,-12.63344 0,-18 -1.49071,-2.98142 -4.67669,-5.74165 -8,-6 -12.04211,-0.93615 -32,17 -32,17 0,0 -4.34156,-8.32206 -8,-11 -3.40228,-2.49044 -7.86227,-4.81053 -12,-4 -6.03173,1.18154 -10.16007,7.20076 -14,12 -6.22472,7.77981 -14,26.40934 -14,26.40934 0,0 -7.77528,-18.62953 -14,-26.40934 -3.83993,-4.79924 -7.96827,-10.81846 -14,-12 -4.13773,-0.81053 -8.59772,1.50956 -12,4 -3.65844,2.67794 -8,11 -8,11 0,0 -19.95789,-17.93615 -32,-17 -3.32331,0.25835 -6.50929,3.01858 -8,6 -2.38514,4.77028 -1.22535,10.80934 0,16 1.36998,5.80334 8,16 8,16 0,0 -18.05582,-11.07172 -26,-18 -8.17903,-7.1331 -16.63867,-14.56422 -22,-24 -3.43845,-6.05157 -6,-13.0398 -6,-20 0,-6.9602 2.4309,-14.02455 6,-20 5.80152,-9.713 14.96772,-17.18694 24,-24 10.95934,-8.266643 23.23168,-14.958728 36,-20 3.83501,-1.514164 12,-3 12,-3 0,0 -8.2477,15.570898 -8,24 0.15818,5.38284 2.46501,10.93751 6,15 3.52821,4.0547 8.80522,6.62045 14,8 5.15466,1.3689 11.07264,2.04098 16,0 2.61313,-1.08239 4.4143,-3.65787 6,-6 2.84641,-4.20425 4.89644,-9.0442 6,-14 2.17478,-9.766342 1,-30 1,-30 z"
       id="path89333"
       sodipodi:nodetypes="ccccaaaaaacaaaaaacsaacaaacaaacaaacaaaaaacaaaaaac" />
    <path
       style="display:inline;fill:#e7ba7b;fill-opacity:1;stroke:none;stroke-width:1px;stroke-linecap:butt;stroke-linejoin:miter;stroke-opacity:1"
       d="m 12,468 v -54 h 488 v 54 z"
       id="path104177"
       sodipodi:nodetypes="ccccc" />
    <path
       style="display:inline;fill:#212321;fill-opacity:1;stroke:none;stroke-width:1px;stroke-linecap:butt;stroke-linejoin:miter;stroke-opacity:1"
       d="m 512,387 h -32 l 13,74 v 27 h 19"
       id="path72831"
       sodipodi:nodetypes="ccccc" />
    <path
       style="display:inline;fill:#212321;fill-opacity:1;stroke:none;stroke-width:1px;stroke-linecap:butt;stroke-linejoin:miter;stroke-opacity:1"
       d="m 0,387 h 32 l -13,74 v 27 H 0"
       id="path70019"
       sodipodi:nodetypes="ccccc" />
    <path
       style="fill:none;stroke:#212321;stroke-width:2;stroke-linecap:butt;stroke-linejoin:miter;stroke-miterlimit:4;stroke-dasharray:none;stroke-opacity:1"
       d="M 12,422 H 500"
       id="path104685"
       sodipodi:nodetypes="cc" />
    <path
       style="display:inline;fill:none;stroke:#212321;stroke-width:2;stroke-linecap:butt;stroke-linejoin:miter;stroke-miterlimit:4;stroke-dasharray:none;stroke-opacity:1"
       d="M 12,462 H 500"
       id="path105245"
       sodipodi:nodetypes="cc" />
    <path
       style="display:inline;fill:#e7ba7b;fill-opacity:1;stroke:#212321;stroke-width:8;stroke-linecap:butt;stroke-linejoin:miter;stroke-miterlimit:4;stroke-dasharray:none;stroke-opacity:1"
       d="m 210,400 h 96 v 82 h -96 z"
       id="path105280"
       sodipodi:nodetypes="ccccc" />
    <path
       style="display:inline;fill:#e7ba7b;fill-opacity:1;stroke:#212321;stroke-width:8;stroke-linecap:butt;stroke-linejoin:round;stroke-miterlimit:4;stroke-dasharray:none;stroke-opacity:1"
       d="m 157,396 c -5.89727,0 -13,6.10273 -13,12 v 68 c 0,5.89727 7.10273,12 13,12 5.89727,0 13,-6.10273 13,-12 v -68 c 0,-5.89727 -7.10273,-12 -13,-12 z"
       id="path106852"
       sodipodi:nodetypes="assassa" />
    <path
       style="display:inline;fill:#e7ba7b;fill-opacity:1;stroke:#212321;stroke-width:8;stroke-linecap:butt;stroke-linejoin:round;stroke-miterlimit:4;stroke-dasharray:none;stroke-opacity:1"
       d="m 75,396 c -5.89727,0 -13,6.10273 -13,12 v 68 c 0,5.89727 7.10273,12 13,12 5.89727,0 13,-6.10273 13,-12 v -68 c 0,-5.89727 -7.10273,-12 -13,-12 z"
       id="path110628"
       sodipodi:nodetypes="assassa" />
    <path
       style="display:inline;fill:#e7ba7b;fill-opacity:1;stroke:#212321;stroke-width:8;stroke-linecap:butt;stroke-linejoin:round;stroke-miterlimit:4;stroke-dasharray:none;stroke-opacity:1"
       d="m 439,396 c -5.89727,0 -13,6.10273 -13,12 v 68 c 0,5.89727 7.10273,12 13,12 5.89727,0 13,-6.10273 13,-12 v -68 c 0,-5.89727 -7.10273,-12 -13,-12 z"
       id="path110630"
       sodipodi:nodetypes="assassa" />
    <path
       style="display:inline;fill:#e7ba7b;fill-opacity:1;stroke:#212321;stroke-width:8;stroke-linecap:butt;stroke-linejoin:round;stroke-miterlimit:4;stroke-dasharray:none;stroke-opacity:1"
       d="m 357,396 c -5.89727,0 -13,6.10273 -13,12 v 68 c 0,5.89727 7.10273,12 13,12 5.89727,0 13,-6.10273 13,-12 v -68 c 0,-5.89727 -7.10273,-12 -13,-12 z"
       id="path110632"
       sodipodi:nodetypes="assassa" />
  </g>
</svg>
