<?xml version="1.0" encoding="UTF-8" standalone="no"?>
<!-- Created with Inkscape (http://www.inkscape.org/) -->

<svg
   width="512px"
   height="512px"
   viewBox="0 0 512 512"
   version="1.1"
   id="SVGRoot"
   sodipodi:docname="Torso Front Batman.svg"
   inkscape:version="1.1.2 (0a00cf5339, 2022-02-04)"
   xmlns:inkscape="http://www.inkscape.org/namespaces/inkscape"
   xmlns:sodipodi="http://sodipodi.sourceforge.net/DTD/sodipodi-0.dtd"
   xmlns="http://www.w3.org/2000/svg"
   xmlns:svg="http://www.w3.org/2000/svg">
  <sodipodi:namedview
     id="namedview45035"
     pagecolor="#ffffff"
     bordercolor="#666666"
     borderopacity="1.0"
     inkscape:pageshadow="2"
     inkscape:pageopacity="0.0"
     inkscape:pagecheckerboard="0"
     inkscape:document-units="px"
     showgrid="false"
     inkscape:zoom="2"
     inkscape:cx="247.25"
     inkscape:cy="103.5"
     inkscape:window-width="1920"
     inkscape:window-height="1012"
     inkscape:window-x="0"
     inkscape:window-y="0"
     inkscape:window-maximized="1"
     inkscape:current-layer="layer1" />
  <defs
     id="defs45030" />
  <g
     inkscape:label="Layer 1"
     inkscape:groupmode="layer"
     id="layer1">
    <rect
       style="display:inline;fill:#a1a1a1;fill-opacity:1;stroke:none;stroke-width:12.8115;stroke-linejoin:round"
       id="rect45530"
       width="512"
       height="512"
       x="0"
       y="0" />
    <path
       style="display:inline;fill:#635f63;fill-opacity:1;stroke:none"
       d="m 252,50 c 2.775,35.1611 -1.989,69.16 -5.833,104 -2.626,23.796 -2.325,46.41 -19.595,64.907 C 215.755,230.491 194.519,222.504 181,219.8 143.82,212.365 85.2563,208.48 68,169 h -1 c -1.1774,9.308 -8.4728,27.335 -1.8519,34.985 6.5591,7.579 16.8387,12.671 25.8519,16.703 2.6014,1.163 9.58,2.073 10.079,5.54 0.747,5.202 -6.9943,8.643 -11.079,8.062 -12.3119,-1.749 -20.1728,-9.713 -31,-14.29 -2.4588,13.252 4.3717,19.745 17,22.334 3.4725,0.712 9.7484,-0.312 11.9568,3.1 3.3862,5.23 -4.7391,16.086 -9.9607,16.843 C 69.5987,263.495 60.4974,256.24 54,252 c -2.2838,17.625 12.5267,21 27,21 -0.186,22.175 -16.8795,18.202 -32,12 0.1318,15.713 13.5957,19.191 27,16 7.973,16.954 40.894,25.696 58,28 0.607,7.631 2.91,15.127 6.259,22 2.089,4.285 6.411,9.038 6.339,14 -0.055,3.828 -2.613,7.254 -3.269,11 -1.623,9.259 -1.456,20.584 -1.325,30 0.082,5.944 4.675,10.381 4.594,16 -0.065,4.471 -3.133,8.464 -3.505,13 -0.921,11.237 3.493,32.864 10.556,41.892 7.761,9.919 35.076,2.97 46.351,2.198 20.14,-1.38 40.81,-0.09 61,-0.09 17.118,0 34.962,-1.452 52,0.17 10.749,1.023 37.656,7.04 45.606,-1.398 7.786,-8.262 12.203,-31.766 11.301,-42.772 -0.37,-4.509 -3.507,-8.556 -3.48,-13 0.035,-5.794 5.367,-9.912 5.558,-16 0.29,-9.284 0.335,-20.869 -1.314,-29.996 -0.75,-4.147 -4.502,-7.701 -4.088,-12.008 0.42,-4.376 4.237,-8.146 6.094,-11.996 3.031,-6.283 3.531,-13.874 6.753,-19.891 2.751,-5.138 11.499,-5.559 16.57,-7.134 9.656,-3.001 19.355,-6.46 28,-11.79 4.906,-3.025 9.353,-8.546 14.576,-10.734 11.656,-4.882 25.019,2.562 25.424,-16.451 -6.945,1.607 -16.782,7.146 -23.96,4.396 -4.31,-1.652 -10.463,-11.576 -6.422,-15.793 2.575,-2.686 8.933,-1.791 12.382,-2.646 10.011,-2.484 13.919,-9.174 14,-18.957 -7.704,1.998 -16.263,11.517 -24.999,9.223 -4.979,-1.307 -13.38,-11.729 -9.358,-16.905 2.641,-3.398 9.508,-2.486 13.357,-3.333 12.745,-2.805 17.306,-10.564 15,-22.985 -10.034,6.631 -18.627,13.532 -31,15.29 -3.934,0.559 -13.035,-3.537 -10.744,-8.86 1.412,-3.281 9.686,-4.54 12.744,-5.858 8.155,-3.516 19.133,-9.489 24.396,-16.858 C 454.302,195.845 447.499,177.728 446,170 h -1 c -5.559,9.985 -13.211,19.913 -23,26.049 -9.294,5.825 -21.474,7.692 -32,10.324 -18.935,4.736 -37.961,8.999 -57,13.277 -10.597,2.382 -26.227,7.417 -37,4.956 -7.48,-1.709 -14.155,-10.537 -18.138,-16.606 -9.72,-14.809 -9.408,-35.798 -10.938,-53 -1.748,-19.655 -6.021,-39.277 -6.885,-59 -0.666,-15.2215 2.199,-31.0407 0.961,-46 h -9 m 1,164.498 c 15.221,-4.097 26.241,16.808 40,19.85 7.735,1.71 18.153,-1.394 26,-2.179 18.326,-1.832 36.648,-3.78 55,-5.255 7.951,-0.639 20.704,-3.798 27.985,0.226 13.857,7.659 19.155,33.577 21.145,47.86 0.715,5.125 2.233,12.125 -0.309,16.96 -2.724,5.181 -9.576,7.919 -14.821,9.684 -6.415,2.16 -16.709,5.654 -22.961,1.614 -6.306,-4.076 -9.066,-12.182 -16.043,-15.458 -13.563,-6.369 -28.791,-9.84 -42.996,-14.47 -11.309,-3.686 -22.938,-8.837 -35,-8.291 -11.869,0.538 -22.329,9.442 -34,9.603 -11.632,0.161 -22.308,-8.695 -34,-9.552 -17.156,-1.257 -36.991,8.222 -53,13.771 -8.732,3.027 -20.206,4.942 -27.961,9.982 -5.691,3.699 -8.243,10.787 -14.043,14.415 -7.522,4.705 -21.871,-0.334 -28.996,-4.083 -19.0465,-10.021 -6.4004,-42.23 0.784,-57.175 2.574,-5.354 5.887,-11.69 11.231,-14.721 8.56,-4.854 25.595,-0.94 34.985,0.297 22.826,3.006 49.015,7.78 72,7.069 13.433,-0.415 22.371,-16.747 35,-20.147 M 219,276.3 c 29.437,-4.158 36.109,29.327 33.13,50.7 -1.083,7.774 -2.36,23.322 -12.131,24.852 -19.511,3.054 -41.21,3.225 -60.999,4.187 -6.61,0.321 -15.814,3.819 -21.91,0.388 -13.166,-7.408 -15.993,-37.117 -7.301,-48.334 4.442,-5.732 12.871,-9.114 19.211,-12.337 15.39,-7.824 32.697,-17.011 50,-19.456 m 68,0.026 c 18.66,-3.088 43.016,12.434 59,20.427 6.713,3.357 14.739,6.543 18.775,13.251 6.814,11.322 3.986,44.347 -11.775,47.587 -5.606,1.153 -12.343,-1.088 -18,-1.502 -15.563,-1.141 -31.554,-1.637 -47,-3.665 -5.863,-0.769 -14.948,1.509 -19.606,-2.858 -5.759,-5.396 -6.782,-17.179 -7.469,-24.566 -1.875,-20.156 1.436,-44.598 26.075,-48.674 m -92,87.959 c 12.224,-1.442 40.053,-4.343 49.957,3.994 9.565,8.05 10.728,38.117 -4.958,40.573 -19.511,3.054 -41.21,3.225 -60.999,4.187 -6.377,0.31 -16.062,3.962 -21.852,0.388 -3.882,-2.396 -3.331,-7.445 -3.058,-11.427 0.603,-8.825 -1.455,-28.517 7.018,-33.91 8.856,-5.638 23.872,-2.622 33.892,-3.805 m 87,0 c 15.894,-1.881 32.126,0.713 48,0.715 6.696,10e-4 17.231,-0.661 22.786,3.703 7.323,5.753 9.17,31.707 6.896,40.254 -0.84,3.158 -3.591,4.995 -6.683,5.634 -5.601,1.158 -12.346,-1.088 -17.999,-1.502 -15.215,-1.116 -30.901,-1.531 -46,-3.513 -5.768,-0.758 -14.921,1.245 -19.786,-2.318 -10.986,-8.046 -10.922,-30.349 -1.109,-38.979 3.824,-3.364 9.077,-3.423 13.895,-3.994 m -87,57 c 12.225,-1.442 40.052,-4.343 49.957,3.994 10.193,8.579 13.523,38.715 -3.961,41.507 -17.933,2.864 -36.864,1.258 -54.996,3.638 -5.657,0.743 -18.61,3.835 -23.721,1.227 -3.663,-1.868 -3.771,-8.126 -4.359,-11.651 -1.561,-9.355 -6.75,-27.074 2.305,-34.297 8.218,-6.555 24.925,-3.255 34.775,-4.418 m 87,0 c 15.894,-1.881 32.126,0.713 48,0.715 6.654,10e-4 17.278,-0.682 22.775,3.703 9.055,7.223 3.866,24.942 2.305,34.297 -0.724,4.343 -0.762,10.95 -6.135,11.852 -7.48,1.255 -16.446,-0.966 -23.945,-1.682 -12.619,-1.206 -25.449,-1.408 -38,-2.885 -5.83,-0.686 -13.541,1.3 -18.812,-1.742 -12.96,-7.479 -9.803,-31.716 -0.083,-40.264 3.824,-3.364 9.077,-3.423 13.895,-3.994 z"
       id="path45300" />
    <path
       style="display:inline;fill:#212321;fill-opacity:1;stroke:none;stroke-width:1px;stroke-linecap:butt;stroke-linejoin:miter;stroke-opacity:1"
       d="m 256,230 c 0,0 3.68285,-19.30607 8,-28 4.44755,-8.95652 9.88758,-18.1529 18,-24 8.55124,-6.16339 19.4643,-9.66812 30,-10 11.71786,-0.36912 34,9 34,9 0,0 -1.06254,-7.49066 0,-11 3.48277,-11.50281 10.52695,-22.60367 20,-30 7.81168,-6.09917 18.10119,-9.51435 28,-10 8.2363,-0.40409 16.29622,3.05861 24,6 6.68619,2.55286 19,10 19,10 0,0 -10.94592,-12.39115 -17,-18 C 406.78675,111.75849 393.42422,99.302573 378,90 360.60935,79.511446 341.62676,71.218706 322,66 c -8.43121,-2.241838 -26,-3 -26,-3 0,0 10.63008,6.11473 14,11 3.1728,4.599515 4.83824,10.414657 5,16 0.11936,4.121378 -0.54539,8.687165 -3,12 -2.31423,3.12337 -6.27439,4.89054 -10,6 -8.31233,2.47536 -26,1 -26,1 L 270,61.96788 262,84 h -12 l -8,-22 -6,47 c 0,0 -17.6523,3.35331 -26,1 -4.62705,-1.30442 -9.2307,-4.07036 -12,-8 -2.37511,-3.370291 -3.34477,-7.891334 -3,-12 0.48678,-5.801029 3.43715,-11.396201 7,-16 3.63227,-4.693492 14,-11 14,-11 0,0 -18.91871,0.624844 -28,3 -19.64784,5.138773 -38.60935,13.511446 -56,24 -15.42422,9.302573 -29.17313,21.35421 -42,34 -5.561799,5.48328 -15,18 -15,18 0,0 10.915201,-7.51053 17,-10 7.632154,-3.12254 15.7637,-6.40409 24,-6 9.89881,0.48565 20.18832,3.90083 28,10 9.47305,7.39633 15.49828,18.85644 20,30 1.39592,3.45547 2,11 2,11 0,0 22.28214,-9.36912 34,-9 10.5357,0.33188 21.44876,3.83661 30,10 8.11242,5.8471 13.55245,15.04348 18,24 4.31715,8.69393 8,28 8,28 z"
       id="path46088"
       sodipodi:nodetypes="caaacaaaacaaacaaaaccccccaaaacaaacaaaacaaac" />
    <path
       style="display:inline;fill:#212221;fill-opacity:1;stroke:#212221;stroke-width:8;stroke-linecap:butt;stroke-linejoin:miter;stroke-miterlimit:4;stroke-dasharray:none;stroke-opacity:1"
       d="m 10,484 v -72 h 492 v 72 z"
       id="path82111"
       sodipodi:nodetypes="ccccc" />
    <path
       style="display:inline;fill:#ffcf25;fill-opacity:1;stroke:#212221;stroke-width:8;stroke-linecap:butt;stroke-linejoin:miter;stroke-miterlimit:4;stroke-dasharray:none;stroke-opacity:1"
       d="m 10,474 v -72 h 492 v 72 z"
       id="path70153"
       sodipodi:nodetypes="ccccc" />
    <path
       style="display:inline;fill:#ffcf25;fill-opacity:1;stroke:#212221;stroke-width:8;stroke-linecap:butt;stroke-linejoin:miter;stroke-miterlimit:4;stroke-dasharray:none;stroke-opacity:1"
       d="m 132,400 c 0,-3.77124 4.22876,-8 8,-8 h 44 c 3.77124,0 8,4.22876 8,8 v 76 c 0,3.33333 -2.66667,8 -6,8 H 138.36948 C 135.45098,484 132,480.91112 132,477.99262 Z"
       id="path74985"
       sodipodi:nodetypes="sssssssss" />
    <path
       style="fill:#212221;fill-opacity:1;stroke:none;stroke-width:1px;stroke-linecap:butt;stroke-linejoin:miter;stroke-opacity:1"
       d="m 136,428 h 19 v 17 h 13 v -17 h 20 v 8 h -16 v 14 h -21 v -14 h -15 z"
       id="path77972"
       sodipodi:nodetypes="ccccccccccccc" />
    <path
       style="display:inline;fill:#ffcf25;fill-opacity:1;stroke:#212221;stroke-width:8;stroke-linecap:butt;stroke-linejoin:miter;stroke-miterlimit:4;stroke-dasharray:none;stroke-opacity:1"
       d="m 72,400 c 0,-3.77124 4.22876,-8 8,-8 h 44 c 3.77124,0 8,4.22876 8,8 v 76 c 0,3.33333 -2.66667,8 -6,8 H 78.36948 C 75.45098,484 72,480.91112 72,477.99262 Z"
       id="path79213"
       sodipodi:nodetypes="sssssssss" />
    <path
       style="fill:#212221;fill-opacity:1;stroke:none;stroke-width:1px;stroke-linecap:butt;stroke-linejoin:miter;stroke-opacity:1"
       d="m 76,434 h 19 v 17 h 13 v -17 h 20 v 8 h -16 v 14 H 91 V 442 H 76 Z"
       id="path79215"
       sodipodi:nodetypes="ccccccccccccc" />
    <path
       style="display:inline;fill:#ffcf25;fill-opacity:1;stroke:#212221;stroke-width:8;stroke-linecap:butt;stroke-linejoin:miter;stroke-miterlimit:4;stroke-dasharray:none;stroke-opacity:1"
       d="m 12,400 c 0,-3.77124 4.22876,-8 8,-8 h 44 c 3.77124,0 8,4.22876 8,8 v 76 c 0,3.33333 -2.66667,8 -6,8 H 18.36948 C 15.45098,484 12,480.91112 12,477.99262 Z"
       id="path79217"
       sodipodi:nodetypes="sssssssss" />
    <path
       style="fill:#212221;fill-opacity:1;stroke:none;stroke-width:1px;stroke-linecap:butt;stroke-linejoin:miter;stroke-opacity:1"
       d="m 16,428 h 19 v 17 h 13 v -17 h 20 v 8 H 52 v 14 H 31 V 436 H 16 Z"
       id="path79219"
       sodipodi:nodetypes="ccccccccccccc" />
    <path
       style="display:inline;fill:#ffcf25;fill-opacity:1;stroke:#212221;stroke-width:8;stroke-linecap:butt;stroke-linejoin:miter;stroke-miterlimit:4;stroke-dasharray:none;stroke-opacity:1"
       d="m 442,400 c 0,-3.77124 4.22876,-8 8,-8 h 44 c 3.77124,0 8,4.22876 8,8 v 76 c 0,3.33333 -2.66667,8 -6,8 H 448.36948 C 445.45098,484 442,480.91112 442,477.99262 Z"
       id="path79221"
       sodipodi:nodetypes="sssssssss" />
    <path
       style="fill:#212221;fill-opacity:1;stroke:none;stroke-width:1px;stroke-linecap:butt;stroke-linejoin:miter;stroke-opacity:1"
       d="m 446,428 h 19 v 17 h 13 v -17 h 20 v 8 h -16 v 14 h -21 v -14 h -15 z"
       id="path79223"
       sodipodi:nodetypes="ccccccccccccc" />
    <path
       style="display:inline;fill:#ffcf25;fill-opacity:1;stroke:#212221;stroke-width:8;stroke-linecap:butt;stroke-linejoin:miter;stroke-miterlimit:4;stroke-dasharray:none;stroke-opacity:1"
       d="m 382,400 c 0,-3.77124 4.22876,-8 8,-8 h 44 c 3.77124,0 8,4.22876 8,8 v 76 c 0,3.33333 -2.66667,8 -6,8 H 388.36948 C 385.45098,484 382,480.91112 382,477.99262 Z"
       id="path79225"
       sodipodi:nodetypes="sssssssss" />
    <path
       style="fill:#212221;fill-opacity:1;stroke:none;stroke-width:1px;stroke-linecap:butt;stroke-linejoin:miter;stroke-opacity:1"
       d="m 386,434 h 19 v 17 h 13 v -17 h 20 v 8 h -16 v 14 h -21 v -14 h -15 z"
       id="path79227"
       sodipodi:nodetypes="ccccccccccccc" />
    <path
       style="display:inline;fill:#ffcf25;fill-opacity:1;stroke:#212221;stroke-width:8;stroke-linecap:butt;stroke-linejoin:miter;stroke-miterlimit:4;stroke-dasharray:none;stroke-opacity:1"
       d="m 322,400 c 0,-3.77124 4.22876,-8 8,-8 h 44 c 3.77124,0 8,4.22876 8,8 v 76 c 0,3.33333 -2.66667,8 -6,8 H 328.36948 C 325.45098,484 322,480.91112 322,477.99262 Z"
       id="path79229"
       sodipodi:nodetypes="sssssssss" />
    <path
       style="fill:#212221;fill-opacity:1;stroke:none;stroke-width:1px;stroke-linecap:butt;stroke-linejoin:miter;stroke-opacity:1"
       d="m 326,428 h 19 v 17 h 13 v -17 h 20 v 8 h -16 v 14 h -21 v -14 h -15 z"
       id="path79231"
       sodipodi:nodetypes="ccccccccccccc" />
    <path
       style="display:inline;fill:#a1a1a1;fill-opacity:1;stroke:none;stroke-width:1px;stroke-linecap:butt;stroke-linejoin:miter;stroke-opacity:1"
       d="m 512,387 h -32 l 13,74 v 27 h 19"
       id="path72831"
       sodipodi:nodetypes="ccccc" />
    <path
       style="display:inline;fill:#a1a1a1;fill-opacity:1;stroke:none;stroke-width:1px;stroke-linecap:butt;stroke-linejoin:miter;stroke-opacity:1"
       d="m 0,387 h 32 l -13,74 v 27 H 0"
       id="path70019"
       sodipodi:nodetypes="ccccc" />
    <path
       style="fill:#ffcf25;fill-opacity:1;stroke:#212221;stroke-width:8;stroke-linecap:butt;stroke-linejoin:miter;stroke-miterlimit:4;stroke-dasharray:none;stroke-opacity:1"
       d="m 212,392 h 90 l -0.0648,89.81215 H 212 Z"
       id="path79266"
       sodipodi:nodetypes="ccccc" />
  </g>
</svg>
