<?xml version="1.0" encoding="UTF-8" standalone="no"?>
<!-- Created with Inkscape (http://www.inkscape.org/) -->

<svg
   width="512px"
   height="512px"
   viewBox="0 0 512 512"
   version="1.1"
   id="SVGRoot"
   sodipodi:docname="Beard Ki-Adi Mundi.svg"
   xml:space="preserve"
   inkscape:version="1.2.2 (b0a8486541, 2022-12-01)"
   xmlns:inkscape="http://www.inkscape.org/namespaces/inkscape"
   xmlns:sodipodi="http://sodipodi.sourceforge.net/DTD/sodipodi-0.dtd"
   xmlns="http://www.w3.org/2000/svg"
   xmlns:svg="http://www.w3.org/2000/svg"><sodipodi:namedview
     id="namedview4707"
     pagecolor="#ffffff"
     bordercolor="#000000"
     borderopacity="0.25"
     inkscape:showpageshadow="2"
     inkscape:pageopacity="0.0"
     inkscape:pagecheckerboard="0"
     inkscape:deskcolor="#d1d1d1"
     inkscape:document-units="px"
     showgrid="false"
     inkscape:zoom="1.5055415"
     inkscape:cx="218.85813"
     inkscape:cy="325.79639"
     inkscape:window-width="1904"
     inkscape:window-height="1040"
     inkscape:window-x="1928"
     inkscape:window-y="32"
     inkscape:window-maximized="0"
     inkscape:current-layer="layer1" /><defs
     id="defs4702" /><g
     inkscape:label="Layer 1"
     inkscape:groupmode="layer"
     id="layer1"><path
       style="fill:#ffffff"
       d="m 164.06543,374.31833 c 4.67554,1.9685 10.56676,-0.99829 14.70051,-3.93899 19.43494,-13.82576 19.3769,-47.52005 40.16178,-59.21866 13.26287,-7.4649 30.38131,-2.15689 45.59997,-2.30217 14.16182,-0.13519 30.17966,-5.71148 42.46653,1.33183 21.48248,12.31459 19.60613,48.19132 39.53036,62.89407 3.43057,2.53153 8.24914,4.46019 12.35469,3.31043 5.01875,-1.40551 9.79538,-6.18881 10.8043,-11.30207 2.2431,-11.36818 -8.50706,-21.55712 -12.67616,-32.36849 -4.49015,-11.64392 -6.08928,-24.80748 -13.28821,-35.00148 -6.40479,-9.06946 -15.80624,-15.95525 -25.39235,-21.5573 -8.15049,-4.76308 -17.13629,-9.37213 -26.5662,-9.81298 -8.84421,-0.41347 -16.81285,6.94013 -25.66614,6.83876 -8.80486,-0.10082 -16.56017,-7.18241 -25.3633,-7.38404 -9.85595,-0.22575 -19.87393,2.6586 -28.7454,6.95833 -8.8682,4.29814 -17.17416,10.49686 -23.26283,18.24586 -7.43948,9.46816 -10.17536,21.83116 -14.93687,32.89099 -5.58759,12.9786 -16.8748,25.15657 -15.99073,39.25918 0.2669,4.25761 2.33834,9.5014 6.27005,11.15673 z"
       id="path4879"
       sodipodi:nodetypes="aaaaaaaaaaaaaaaaaaa" /><path
       style="fill:#ffffff"
       d="m 208.51905,371.90559 h 102.22751 c 7.71626,0 11.01401,3.39678 15.22292,7.0864 4.45673,3.90687 7.76947,9.34497 9.54945,14.99808 1.55962,4.95325 1.62316,10.45949 0.67131,15.5645 -1.50302,8.06104 -0.29378,19.32959 -9.84591,22.54359 l -63.52302,21.37356 -58.64435,-20.47471 c -8.7413,-3.05188 -13.70952,-13.4751 -16.5977,-22.27184 -2.15292,-6.55731 -2.15737,-14.19086 0.12366,-20.70472 1.34447,-3.83937 4.5453,-6.84786 7.55643,-9.58308 3.89037,-3.53391 8.00073,-8.53178 13.2597,-8.53178 z"
       id="path4935"
       sodipodi:nodetypes="ssaaascsaaas" /></g></svg>
