<?xml version="1.0" encoding="UTF-8" standalone="no"?>
<!-- Created with Inkscape (http://www.inkscape.org/) -->

<svg
   width="512px"
   height="128px"
   viewBox="0 0 512 128"
   version="1.1"
   id="SVGRoot"
   sodipodi:docname="Eyebrows Ki-Adi Mundi.svg"
   xml:space="preserve"
   inkscape:version="1.2.2 (b0a8486541, 2022-12-01)"
   xmlns:inkscape="http://www.inkscape.org/namespaces/inkscape"
   xmlns:sodipodi="http://sodipodi.sourceforge.net/DTD/sodipodi-0.dtd"
   xmlns="http://www.w3.org/2000/svg"
   xmlns:svg="http://www.w3.org/2000/svg"><sodipodi:namedview
     id="namedview3554"
     pagecolor="#ffffff"
     bordercolor="#000000"
     borderopacity="0.25"
     inkscape:showpageshadow="2"
     inkscape:pageopacity="0.0"
     inkscape:pagecheckerboard="0"
     inkscape:deskcolor="#d1d1d1"
     inkscape:document-units="px"
     showgrid="true"
     inkscape:zoom="3.011083"
     inkscape:cx="297.06919"
     inkscape:cy="63.266272"
     inkscape:window-width="1904"
     inkscape:window-height="1040"
     inkscape:window-x="1928"
     inkscape:window-y="32"
     inkscape:window-maximized="0"
     inkscape:current-layer="layer1"><inkscape:grid
       type="xygrid"
       id="grid3739" /></sodipodi:namedview><defs
     id="defs3549" /><g
     inkscape:label="Layer 1"
     inkscape:groupmode="layer"
     id="layer1"><path
       style="fill:#ffffff"
       d="m 9.4783301,69.767766 c 1.0987009,-8.54242 16.1900359,-7.050321 22.2011839,-13.21848 1.185221,-1.216178 1.249196,-3.286504 2.492582,-4.443149 8.822857,-8.207361 20.981393,-12.653215 32.722374,-15.364848 18.439939,-4.258788 37.87575,-1.93906 56.76968,-0.849107 25.66401,1.480506 52.66645,0.29932 76.46724,10.013007 5.34343,2.16122 7.72095,8.718359 5.80282,13.501346 -1.16978,2.723566 -5.21389,3.109852 -7.01675,5.462702 -4.78953,4.464663 0.79879,11.108652 -0.55963,13.409908 -4.76724,7.068676 -16.54484,4.497707 -25.04053,5.216028 -6.79123,0.574206 -13.75732,0.625532 -20.43263,-0.74951 C 140.74023,80.244037 130.57616,70.045278 118.19874,69.307024 106.86835,68.63122 96.489489,76.481316 85.209793,77.747385 62.106369,80.340587 36.812248,85.134148 15.489573,75.869352 12.870979,74.731562 9.1141155,72.599541 9.4783301,69.767766 Z"
       id="path4493"
       sodipodi:nodetypes="aaaaaccccaaaaaa" /><path
       style="fill:#ffffff"
       d="m 299.93419,50.82232 c -4.96109,6.671383 -4.80933,18.159886 0,24.941483 2.53039,3.568084 8.07252,3.603265 12.38426,4.34017 8.29703,1.418018 16.89422,1.036684 25.25196,0.03685 15.85995,-1.897322 30.57736,-11.33499 46.55036,-11.37128 8.29515,-0.01885 15.96332,4.822842 24.20127,5.795461 23.48941,2.773292 49.25716,9.409085 70.95769,0 2.54466,-1.103336 6.09436,-3.330146 5.68723,-6.073668 -3.1791,-21.422813 -35.34815,-26.880772 -56.26761,-32.486124 -17.35504,-4.65027 -35.96906,-1.113403 -53.90179,0 -18.37648,1.140954 -37.55396,0.415516 -54.81137,6.832569 -2.00816,0.746721 -3.40961,2.652709 -5.34806,3.565233 -4.63049,2.179795 -11.64995,0.312477 -14.70394,4.419306 z"
       id="path4654"
       sodipodi:nodetypes="aaaaaaaaaaaaa" /></g></svg>
