<?xml version="1.0" encoding="UTF-8" standalone="no"?>
<!-- Created with Inkscape (http://www.inkscape.org/) -->

<svg
   width="512"
   height="512"
   viewBox="0 0 512 512"
   version="1.1"
   id="svg5"
   inkscape:version="1.1.2 (0a00cf5339, 2022-02-04)"
   sodipodi:docname="Head Front Shaak Ti.svg"
   xmlns:inkscape="http://www.inkscape.org/namespaces/inkscape"
   xmlns:sodipodi="http://sodipodi.sourceforge.net/DTD/sodipodi-0.dtd"
   xmlns="http://www.w3.org/2000/svg"
   xmlns:svg="http://www.w3.org/2000/svg">
  <sodipodi:namedview
     id="namedview7"
     pagecolor="#ffffff"
     bordercolor="#666666"
     borderopacity="1.0"
     inkscape:pageshadow="2"
     inkscape:pageopacity="0.0"
     inkscape:pagecheckerboard="0"
     inkscape:document-units="px"
     showgrid="false"
     inkscape:zoom="2.2925728"
     inkscape:cx="235.97942"
     inkscape:cy="184.07267"
     inkscape:window-width="1920"
     inkscape:window-height="1016"
     inkscape:window-x="0"
     inkscape:window-y="0"
     inkscape:window-maximized="1"
     inkscape:current-layer="layer1" />
  <defs
     id="defs2" />
  <g
     inkscape:label="Layer 1"
     inkscape:groupmode="layer"
     id="layer1">
    <rect
       style="display:inline;fill:#d60000;fill-opacity:1;stroke:none;stroke-width:28.6147;stroke-linecap:round;stroke-linejoin:round"
       id="rect880"
       width="512"
       height="512"
       x="0"
       y="0" />
    <path
       id="path4506"
       style="display:inline;fill:#ffffff;stroke:none;stroke-width:1px;stroke-linecap:butt;stroke-linejoin:miter;stroke-opacity:1"
       d="M 295.01562,74.697266 C 290.63819,74.72174 286.25514,75.180534 282,76 c -3.52533,0.678917 -7.00283,2.023677 -10,4 -4.72257,3.114047 -9.21287,7.077406 -12,12 -8.1258,14.3517 -12,31.50758 -12,48 v 164 c 0,6.66667 6.88166,11.72835 12,16 5.72248,4.77585 12.74583,8.28752 20,10 27.25097,6.43308 56.54374,5.49125 84,0 8.49837,-1.69967 17.07667,-4.78668 24,-10 3.41007,-2.56781 6.58701,-5.97189 8,-10 7.7235,-22.01799 2.19268,-46.76992 0,-70 -1.33926,-14.18864 -4.85131,-28.10047 -8,-42 -2.89378,-12.77425 -5.69545,-25.62962 -10,-38 -3.82634,-10.99612 -8.32663,-21.83298 -14,-32 -5.13643,-9.20479 -11.24593,-17.90719 -18,-26 -4.83282,-5.790746 -9.80065,-11.703847 -16,-16 -6.62091,-4.588294 -14.12721,-8.294682 -22,-10 -4.23512,-0.917366 -8.60694,-1.327209 -12.98438,-1.302734 z M 297,131.04297 c 1.7301,0 3.4602,0.31922 5,0.95703 2.61313,1.08239 6,3.17157 6,6 v 56 c 0,3.18431 -4.38206,4.98998 -7.37891,6.06641 -2.54728,0.91495 -5.60673,1.01555 -8.12109,0.0137 C 288.86847,198.63305 284,195.90921 284,192 v -52 c 0,-3.77124 4.51583,-6.55681 8,-8 1.5398,-0.6378 3.2699,-0.95703 5,-0.95703 z" />
    <path
       id="path1067"
       style="display:inline;fill:#ffffff;stroke:none;stroke-width:1px;stroke-linecap:butt;stroke-linejoin:miter;stroke-opacity:1"
       d="M 172.98438,74.697266 C 168.60694,74.672791 164.23512,75.082634 160,76 c -7.87279,1.705318 -15.37909,5.411706 -22,10 -6.19935,4.296153 -11.16718,10.209254 -16,16 -6.75407,8.09281 -12.86357,16.79521 -18,26 -5.673374,10.16702 -10.173657,21.00388 -14,32 -4.304549,12.37038 -7.106216,25.22575 -10,38 -3.148694,13.89953 -6.66074,27.81136 -8,42 -2.192678,23.23008 -7.723495,47.98201 0,70 1.412986,4.02811 4.58993,7.43219 8,10 6.923325,5.21332 15.501634,8.30033 24,10 27.45626,5.49125 56.74903,6.43308 84,0 7.25417,-1.71248 14.27752,-5.22415 20,-10 5.11834,-4.27165 12,-9.33333 12,-16 V 140 c 0,-16.49242 -3.8742,-33.6483 -12,-48 -2.78713,-4.922594 -7.27743,-8.885953 -12,-12 -2.99717,-1.976323 -6.47467,-3.321083 -10,-4 -4.25514,-0.819466 -8.63819,-1.27826 -13.01562,-1.302734 z M 171,131.04297 c 1.7301,0 3.4602,0.31923 5,0.95703 3.48417,1.44319 8,4.22876 8,8 v 52 c 0,3.90921 -4.86847,6.63305 -8.5,8.08008 -2.51436,1.00188 -5.57381,0.90128 -8.12109,-0.0137 C 164.38206,198.98998 160,197.18431 160,194 v -56 c 0,-2.82843 3.38687,-4.91761 6,-6 1.5398,-0.63781 3.2699,-0.95703 5,-0.95703 z" />
  </g>
</svg>
