<?xml version="1.0" encoding="UTF-8" standalone="no"?>
<!-- Created with Inkscape (http://www.inkscape.org/) -->

<svg
   width="256"
   height="256"
   viewBox="0 0 67.73333 67.733335"
   version="1.1"
   id="svg1"
   xml:space="preserve"
   inkscape:version="1.2.2 (b0a8486541, 2022-12-01)"
   sodipodi:docname="Torso Front Luminara.svg"
   xmlns:inkscape="http://www.inkscape.org/namespaces/inkscape"
   xmlns:sodipodi="http://sodipodi.sourceforge.net/DTD/sodipodi-0.dtd"
   xmlns="http://www.w3.org/2000/svg"
   xmlns:svg="http://www.w3.org/2000/svg"><sodipodi:namedview
     id="namedview1"
     pagecolor="#ffffff"
     bordercolor="#000000"
     borderopacity="0.25"
     inkscape:showpageshadow="2"
     inkscape:pageopacity="0.0"
     inkscape:pagecheckerboard="0"
     inkscape:deskcolor="#d1d1d1"
     inkscape:document-units="px"
     inkscape:zoom="4.2280892"
     inkscape:cx="141.67156"
     inkscape:cy="107.96839"
     inkscape:window-width="1920"
     inkscape:window-height="1039"
     inkscape:window-x="0"
     inkscape:window-y="0"
     inkscape:window-maximized="1"
     inkscape:current-layer="layer1"
     showgrid="false" /><defs
     id="defs1" /><g
     inkscape:label="Layer 1"
     inkscape:groupmode="layer"
     id="layer1"><rect
       style="display:inline;fill:#212221;fill-opacity:1;stroke:none;stroke-width:2.88138;stroke-linejoin:round"
       id="rect24"
       width="67.73333"
       height="67.73333"
       x="3.5527137e-15"
       y="0"
       inkscape:label="background" /><path
       id="path14"
       style="fill:#636163;fill-opacity:1;stroke:none;stroke-width:0.264583;stroke-linejoin:round"
       d="M 14.684375 5.2916666 C 14.684375 5.2916666 15.026916 6.3364275 15.08125 6.8791666 C 15.274725 8.8117855 15.13711 10.784337 14.816666 12.7 C 14.300994 15.782789 12.616354 18.602127 12.170833 21.695833 C 11.76856 24.489235 11.681161 27.383085 12.170833 30.1625 C 12.529051 32.195763 13.683542 34.00907 14.2875 35.983333 C 14.713 37.374243 15.345833 40.216666 15.345833 40.216666 C 15.345833 40.216666 15.603372 36.318941 15.345833 34.395833 C 15.078888 32.402487 14.025278 30.568345 13.758333 28.575 C 13.453969 26.302236 13.431484 23.965473 13.758333 21.695833 C 14.203854 18.602132 15.958646 15.793701 16.404166 12.7 C 16.731015 10.43036 16.931003 8.0525449 16.404166 5.8208333 C 16.358858 5.6289002 16.139583 5.2916666 16.139583 5.2916666 L 14.684375 5.2916666 z M 51.86195 5.2916666 C 51.86195 5.2916666 51.642677 5.6289002 51.597367 5.8208333 C 51.07053 8.0525449 51.270518 10.43036 51.597367 12.7 C 52.042887 15.793701 53.797679 18.602132 54.2432 21.695833 C 54.570049 23.965473 54.547564 26.302236 54.2432 28.575 C 53.976255 30.568345 52.922645 32.402487 52.6557 34.395833 C 52.398161 36.318941 52.6557 40.216666 52.6557 40.216666 C 52.6557 40.216666 53.288533 37.374243 53.714033 35.983333 C 54.317991 34.00907 55.472482 32.195763 55.8307 30.1625 C 56.320373 27.383085 56.232974 24.489235 55.8307 21.695833 C 55.385179 18.602127 53.700539 15.782789 53.184867 12.7 C 52.864423 10.784337 52.726809 8.8117855 52.920283 6.8791666 C 52.974617 6.3364275 53.317158 5.2916666 53.317158 5.2916666 L 51.86195 5.2916666 z M 13.229167 42.862499 C 13.229167 42.862499 12.065163 48.531827 11.284066 51.31573 C 10.328734 54.720625 9.2894468 58.11558 7.9374999 61.383333 C 7.6359309 62.112247 6.8791666 63.499999 6.8791666 63.499999 L 6.8791666 64.558333 C 6.8791666 64.558333 9.2925006 62.290991 10.054167 60.854166 C 10.996114 59.077253 11.20187 56.995797 11.641667 55.033333 C 12.307536 52.06209 12.963571 49.070835 13.229167 46.037499 C 13.321476 44.983201 13.229167 42.862499 13.229167 42.862499 z M 21.960416 42.862499 C 21.960416 42.862499 22.028498 48.173684 21.695833 50.799999 C 21.491479 52.413333 21.22391 54.045686 20.6375 55.562499 C 20.381099 56.225708 19.579166 57.414583 19.579166 57.414583 L 19.579166 58.472916 C 19.579166 58.472916 21.580881 56.515703 22.225 55.297916 C 22.525197 54.730353 22.640776 54.077805 22.754166 53.445833 C 22.95725 52.313993 23.00839 51.156117 23.01875 50.006249 C 23.032279 48.504415 23.015816 46.987261 22.754166 45.508333 C 22.593756 44.601637 21.960416 42.862499 21.960416 42.862499 z M 46.041117 42.862499 C 46.041117 42.862499 45.407778 44.601637 45.247367 45.508333 C 44.985717 46.987261 44.969254 48.504415 44.982783 50.006249 C 44.993143 51.156117 45.044283 52.313993 45.247367 53.445833 C 45.360758 54.077805 45.476336 54.730353 45.776533 55.297916 C 46.420652 56.515703 48.422367 58.472916 48.422367 58.472916 L 48.422367 57.414583 C 48.422367 57.414583 47.620435 56.225708 47.364033 55.562499 C 46.777623 54.045686 46.510054 52.413333 46.3057 50.799999 C 45.973035 48.173684 46.041117 42.862499 46.041117 42.862499 z M 54.772367 42.862499 C 54.772367 42.862499 54.680057 44.983201 54.772367 46.037499 C 55.037962 49.070835 55.693997 52.06209 56.359867 55.033333 C 56.799663 56.995797 57.00542 59.077253 57.947367 60.854166 C 58.709033 62.290991 61.122367 64.558333 61.122367 64.558333 L 61.122367 63.499999 C 61.122367 63.499999 60.365602 62.112247 60.064033 61.383333 C 58.712087 58.11558 57.6728 54.720625 56.717468 51.31573 C 55.93637 48.531827 54.772367 42.862499 54.772367 42.862499 z "
       inkscape:label="detail" /><g
       id="g416"
       inkscape:label="brooch"><path
         id="path4"
         style="fill:#a9a8a9;fill-opacity:1;stroke:none;stroke-width:0.264583;stroke-linejoin:round"
         inkscape:label="brooch1"
         d="M 28.575 19.579166 L 28.575 23.01875 C 28.575 23.01875 28.892048 23.8125 29.236458 23.8125 C 29.580868 23.8125 29.897916 23.01875 29.897916 23.01875 L 29.897916 19.579166 L 28.575 19.579166 z M 29.236458 23.8125 C 28.954098 23.8125 28.575 24.341666 28.575 24.341666 L 28.575 26.458333 C 28.575 26.458333 28.954098 26.9875 29.236458 26.9875 C 29.518818 26.9875 29.897916 26.458333 29.897916 26.458333 L 29.897916 24.341666 C 29.897916 24.341666 29.518818 23.8125 29.236458 23.8125 z " /><path
         id="path6"
         style="fill:#a9a8a9;fill-opacity:1;stroke:none;stroke-width:0.264583;stroke-linejoin:round"
         d="M 31.220833 20.6375 L 31.220833 23.01875 C 31.220833 23.01875 31.537882 23.8125 31.882291 23.8125 C 32.226701 23.8125 32.54375 23.01875 32.54375 23.01875 L 32.54375 20.6375 L 31.220833 20.6375 z M 31.882291 23.8125 C 31.599932 23.8125 31.220833 24.341666 31.220833 24.341666 L 31.220833 26.458333 C 31.220833 26.458333 31.599932 26.9875 31.882291 26.9875 C 32.164651 26.9875 32.54375 26.458333 32.54375 26.458333 L 32.54375 24.341666 C 32.54375 24.341666 32.164651 23.8125 31.882291 23.8125 z "
         inkscape:label="brooch2" /><path
         id="path7"
         style="fill:#a9a8a9;fill-opacity:1;stroke:none;stroke-width:0.264583;stroke-linejoin:round"
         d="M 33.602083 20.902083 L 33.602083 23.01875 C 33.602083 23.01875 33.919132 23.8125 34.263541 23.8125 C 34.607951 23.8125 34.925 23.01875 34.925 23.01875 L 34.925 20.902083 L 33.602083 20.902083 z M 34.263541 23.8125 C 33.981182 23.8125 33.602083 24.341666 33.602083 24.341666 L 33.602083 26.458333 C 33.602083 26.458333 33.981182 26.9875 34.263541 26.9875 C 34.545901 26.9875 34.925 26.458333 34.925 26.458333 L 34.925 24.341666 C 34.925 24.341666 34.545901 23.8125 34.263541 23.8125 z "
         inkscape:label="brooch3" /><path
         id="path12"
         style="fill:#a9a8a9;fill-opacity:1;stroke:none;stroke-width:0.264583;stroke-linejoin:round"
         d="M 35.983333 20.6375 L 35.983333 23.01875 C 35.983333 23.01875 36.300382 23.8125 36.644791 23.8125 C 36.989201 23.8125 37.30625 23.01875 37.30625 23.01875 L 37.30625 20.6375 L 35.983333 20.6375 z M 36.644791 23.8125 C 36.362431 23.8125 35.983333 24.341666 35.983333 24.341666 L 35.983333 26.458333 C 35.983333 26.458333 36.362431 26.9875 36.644791 26.9875 C 36.927151 26.9875 37.30625 26.458333 37.30625 26.458333 L 37.30625 24.341666 C 37.30625 24.341666 36.927151 23.8125 36.644791 23.8125 z "
         inkscape:label="brooch4" /><path
         id="path10"
         style="fill:#a9a8a9;fill-opacity:1;stroke:none;stroke-width:0.264583;stroke-linejoin:round"
         d="M 38.629166 19.579166 L 38.629166 23.01875 C 38.629166 23.01875 38.946215 23.8125 39.290625 23.8125 C 39.635034 23.8125 39.952083 23.01875 39.952083 23.01875 L 39.952083 19.579166 L 38.629166 19.579166 z M 39.290625 23.8125 C 39.008265 23.8125 38.629166 24.341666 38.629166 24.341666 L 38.629166 26.458333 C 38.629166 26.458333 39.008265 26.9875 39.290625 26.9875 C 39.572984 26.9875 39.952083 26.458333 39.952083 26.458333 L 39.952083 24.341666 C 39.952083 24.341666 39.572984 23.8125 39.290625 23.8125 z "
         inkscape:label="brooch5" /><path
         style="display:inline;fill:#212221;fill-opacity:1;stroke:none;stroke-width:0.264583;stroke-linejoin:round"
         d="m 31.749999,14.287499 c 1.709197,-0.435835 3.591782,-0.470841 5.291668,0 1.982391,0.54909 5.291667,3.175 5.291667,3.175 0,0 -3.309276,2.62591 -5.291667,3.175001 -1.699886,0.470841 -3.582471,0.435835 -5.291668,0 -2.141617,-0.5461 -5.820834,-3.175001 -5.820834,-3.175001 0,0 3.679217,-2.628901 5.820834,-3.175 z"
         id="path25"
         sodipodi:nodetypes="aacaaca"
         inkscape:label="broochshadow" /><path
         id="path1"
         style="display:inline;fill:#a9a8a9;fill-opacity:1;stroke:none;stroke-width:0.264583;stroke-linejoin:round"
         d="M 34.398417 14.562418 C 33.682504 14.566138 32.965847 14.654563 32.279166 14.816666 C 30.359836 15.269759 26.9875 17.4625 26.9875 17.4625 C 26.9875 17.4625 30.359836 19.655241 32.279166 20.108333 C 33.652528 20.43254 35.146505 20.462298 36.5125 20.108333 C 38.270471 19.652797 41.274999 17.4625 41.274999 17.4625 C 41.274999 17.4625 38.270471 15.272202 36.5125 14.816666 C 35.829502 14.639684 35.11433 14.558699 34.398417 14.562418 z M 32.808333 15.509131 C 32.991435 15.509131 33.174538 15.542917 33.3375 15.610416 C 33.683193 15.753607 33.988059 16.058473 34.13125 16.404166 C 34.367502 16.974534 34.367502 17.685882 34.13125 18.25625 C 33.988059 18.601943 33.683193 18.906809 33.3375 19.05 C 32.767132 19.286254 31.996633 19.396109 31.485416 19.05 C 31.092134 18.783734 31.04606 18.193455 30.95625 17.727083 C 31.059929 17.55933 31.298328 17.40014 31.485416 17.4625 C 31.859593 17.587226 31.678514 18.31438 32.014583 18.520833 C 32.315176 18.705493 32.746986 18.650146 33.072916 18.515149 C 33.30214 18.420207 33.506513 18.22063 33.602083 17.991666 C 33.771941 17.584723 33.784276 17.070323 33.602083 16.66875 C 33.488984 16.419466 33.256912 16.149388 32.984033 16.127698 C 32.811294 16.113966 32.58008 16.234736 32.54375 16.404166 C 32.477073 16.715086 32.980766 16.893573 33.072916 17.197916 C 33.149586 17.451147 33.260005 17.804579 33.072916 17.991666 C 32.885827 18.178755 32.504234 18.130766 32.279166 17.991666 C 31.943657 17.78431 31.84062 17.317199 31.75 16.933333 C 31.68921 16.675828 31.648748 16.384026 31.75 16.139583 C 31.845461 15.90912 32.048703 15.705876 32.279166 15.610416 C 32.442128 15.542917 32.625231 15.509131 32.808333 15.509131 z M 35.983333 15.509131 C 36.166435 15.509131 36.349538 15.542917 36.5125 15.610416 C 36.742961 15.705876 36.946205 15.90912 37.041666 16.139583 C 37.142918 16.384026 37.102456 16.675828 37.041666 16.933333 C 36.951046 17.317199 36.848009 17.78431 36.5125 17.991666 C 36.287432 18.130766 35.905837 18.178755 35.71875 17.991666 C 35.531661 17.804579 35.64208 17.451147 35.71875 17.197916 C 35.810898 16.893573 36.314593 16.715086 36.247916 16.404166 C 36.211576 16.234736 35.980372 16.113966 35.807633 16.127698 C 35.534754 16.149388 35.302682 16.419466 35.189583 16.66875 C 35.00739 17.070323 35.019725 17.584723 35.189583 17.991666 C 35.285153 18.22063 35.489526 18.420207 35.71875 18.515149 C 36.04468 18.650146 36.47649 18.705493 36.777083 18.520833 C 37.113152 18.31438 36.932073 17.587226 37.30625 17.4625 C 37.493336 17.40014 37.731737 17.55933 37.835416 17.727083 C 37.745596 18.193455 37.699532 18.783734 37.30625 19.05 C 36.795033 19.396109 36.024534 19.286254 35.454166 19.05 C 35.108473 18.906809 34.803607 18.601943 34.660416 18.25625 C 34.424162 17.685882 34.424162 16.974534 34.660416 16.404166 C 34.803607 16.058473 35.108473 15.753607 35.454166 15.610416 C 35.617128 15.542917 35.800231 15.509131 35.983333 15.509131 z M 29.897916 16.404166 L 29.897916 18.520833 C 29.897916 18.520833 28.575 18.027218 28.575 17.4625 C 28.575 16.89778 29.897916 16.404166 29.897916 16.404166 z M 38.364583 16.404166 C 38.364583 16.404166 39.6875 16.89778 39.6875 17.4625 C 39.6875 18.027218 38.364583 18.520833 38.364583 18.520833 L 38.364583 16.404166 z "
         inkscape:label="broochmain" /><path
         id="path2"
         style="display:inline;fill:#a9a8a9;fill-opacity:1;stroke:none;stroke-width:0.278186;stroke-linejoin:round"
         d="M 33.3375 10.054167 A 1.5875 1.5875 0 0 0 31.75 11.641667 A 1.5875 1.5875 0 0 0 33.3375 13.229167 L 33.3375 14.022916 L 35.454166 14.022916 L 35.454166 13.229167 A 1.5875 1.5875 0 0 0 37.041666 11.641667 A 1.5875 1.5875 0 0 0 35.454166 10.054167 A 1.5875 1.5875 0 0 0 34.39635 10.45931 A 1.5875 1.5875 0 0 0 33.3375 10.054167 z M 33.3375 11.1125 A 0.52916664 0.52916664 0 0 1 33.866666 11.641667 A 0.52916664 0.52916664 0 0 1 33.3375 12.170833 A 0.52916664 0.52916664 0 0 1 32.808333 11.641667 A 0.52916664 0.52916664 0 0 1 33.3375 11.1125 z M 35.454166 11.1125 A 0.52916664 0.52916664 0 0 1 35.983333 11.641667 A 0.52916664 0.52916664 0 0 1 35.454166 12.170833 A 0.52916664 0.52916664 0 0 1 34.925 11.641667 A 0.52916664 0.52916664 0 0 1 35.454166 11.1125 z "
         inkscape:label="broochtop" /></g></g></svg>
