<?xml version="1.0" encoding="UTF-8" standalone="no"?>
<!-- Created with Inkscape (http://www.inkscape.org/) -->

<svg
   width="320"
   height="256"
   viewBox="0 0 84.666665 67.733333"
   version="1.1"
   id="svg42399"
   xml:space="preserve"
   inkscape:version="1.2.2 (b0a8486541, 2022-12-01)"
   sodipodi:docname="Eye Geno.svg"
   xmlns:inkscape="http://www.inkscape.org/namespaces/inkscape"
   xmlns:sodipodi="http://sodipodi.sourceforge.net/DTD/sodipodi-0.dtd"
   xmlns="http://www.w3.org/2000/svg"
   xmlns:svg="http://www.w3.org/2000/svg"><sodipodi:namedview
     id="namedview42401"
     pagecolor="#ffffff"
     bordercolor="#000000"
     borderopacity="0.25"
     inkscape:showpageshadow="2"
     inkscape:pageopacity="0.0"
     inkscape:pagecheckerboard="0"
     inkscape:deskcolor="#d1d1d1"
     inkscape:document-units="px"
     showgrid="false"
     inkscape:zoom="4.4246155"
     inkscape:cx="141.25521"
     inkscape:cy="127.12969"
     inkscape:window-width="1920"
     inkscape:window-height="1039"
     inkscape:window-x="0"
     inkscape:window-y="0"
     inkscape:window-maximized="1"
     inkscape:current-layer="layer1" /><defs
     id="defs42396" /><g
     inkscape:label="Layer 1"
     inkscape:groupmode="layer"
     id="layer1"><rect
       style="display:inline;fill:#ffffff;stroke:none;stroke-width:2.22225;stroke-linecap:round;stroke-linejoin:round"
       id="rect43015"
       width="84.666664"
       height="67.73333"
       x="0"
       y="-8.8817842e-16"
       inkscape:label="background" /><path
       style="display:inline;fill:#211c1e;stroke:none;stroke-width:0.264583"
       d="M 0,0 V 67.73333 H 84.666664 V 0 H 0 m 31.19702,12.800647 c 13.980318,-1.737995 26.847534,6.792833 36.800895,15.585175 3.616324,3.194579 8.052593,8.770672 6.633633,13.947509 -1.253332,4.572265 -7.022306,7.965017 -11.13155,9.629775 -2.815167,1.140354 -5.976673,2.071952 -8.995833,2.464593 C 40.780492,56.211785 26.234654,51.241852 16.69243,41.010415 14.931204,39.122083 13.163179,37.051454 12.137151,34.660415 6.6445869,21.861461 20.659036,14.110731 31.19702,12.800647 Z"
       id="path42909"
       inkscape:label="shadow" /><ellipse
       style="fill:#942004;fill-opacity:1;stroke:none;stroke-width:1.09014;stroke-linecap:round;stroke-linejoin:round"
       id="path43122"
       cx="57.150002"
       cy="34.924999"
       rx="9.5249996"
       ry="8.4666662"
       inkscape:label="pupil" /></g></svg>
