<?xml version="1.0" encoding="UTF-8" standalone="no"?>
<!-- Created with Inkscape (http://www.inkscape.org/) -->

<svg
   width="512"
   height="512"
   viewBox="0 0 135.46666 135.46667"
   version="1.1"
   id="svg5"
   inkscape:version="1.2.2 (b0a8486541, 2022-12-01)"
   sodipodi:docname="Torso Front Geno.svg"
   xml:space="preserve"
   xmlns:inkscape="http://www.inkscape.org/namespaces/inkscape"
   xmlns:sodipodi="http://sodipodi.sourceforge.net/DTD/sodipodi-0.dtd"
   xmlns="http://www.w3.org/2000/svg"
   xmlns:svg="http://www.w3.org/2000/svg"><sodipodi:namedview
     id="namedview7"
     pagecolor="#ffffff"
     bordercolor="#000000"
     borderopacity="0.25"
     inkscape:showpageshadow="2"
     inkscape:pageopacity="0.0"
     inkscape:pagecheckerboard="0"
     inkscape:deskcolor="#d1d1d1"
     inkscape:document-units="px"
     showgrid="false"
     inkscape:zoom="2.2634764"
     inkscape:cx="229.73511"
     inkscape:cy="137.17837"
     inkscape:window-width="1920"
     inkscape:window-height="1039"
     inkscape:window-x="0"
     inkscape:window-y="0"
     inkscape:window-maximized="1"
     inkscape:current-layer="layer1" /><defs
     id="defs2" /><g
     inkscape:label="Layer 1"
     inkscape:groupmode="layer"
     id="layer1"><rect
       style="opacity:1;fill:#886b46;fill-opacity:1;stroke:none;stroke-width:5.11269;stroke-linecap:round;stroke-linejoin:round"
       id="rect234"
       width="135.46666"
       height="135.46666"
       x="0"
       y="0"
       inkscape:label="background" /><g
       id="g318"
       inkscape:label="chest"><path
         id="path28002"
         style="opacity:1;fill:#222222;fill-opacity:1;stroke:none;stroke-width:2.11667;stroke-linecap:round;stroke-linejoin:round"
         d="m 66.674999,53.975 -23.8125,7.408333 -24.341666,-7.408334 v 2.116667 c 0,0 5.586591,6.874667 9.525,8.466667 7.85642,3.175754 17.047337,2.487241 25.4,1.058333 C 58.127236,64.815809 66.674999,60.325 66.674999,60.325 c 0,0 8.547763,4.490809 13.229167,5.291666 8.352662,1.428908 17.54358,2.117421 25.400004,-1.058333 3.93839,-1.592 9.525,-8.466667 9.525,-8.466667 v -2.116667 l -24.341671,7.408334 z"
         sodipodi:nodetypes="ccccsscsscccc"
         inkscape:label="chestshadow" /><path
         id="path898"
         style="opacity:1;fill:#3e352d;fill-opacity:1;stroke:none;stroke-width:2.11667;stroke-linecap:round;stroke-linejoin:round"
         d="M 66.674999 51.858333 C 66.674999 51.858333 58.481359 56.298473 53.974999 57.149999 C 45.827043 58.689645 37.322942 57.721476 29.104166 56.620833 C 25.499995 56.138169 18.520833 53.974999 18.520833 53.974999 C 18.520833 53.974999 24.107424 60.849666 28.045833 62.441666 C 35.902253 65.61742 45.09317 64.928907 53.445833 63.499999 C 58.127236 62.699142 66.674999 58.208333 66.674999 58.208333 C 66.674999 58.208333 75.222762 62.699142 79.904166 63.499999 C 88.256828 64.928907 97.447746 65.61742 105.30417 62.441666 C 109.24256 60.849666 114.82917 53.974999 114.82917 53.974999 C 114.82917 53.974999 107.85 56.138169 104.24583 56.620833 C 96.027064 57.721476 87.522955 58.689645 79.374999 57.149999 C 74.86864 56.298473 66.674999 51.858333 66.674999 51.858333 z "
         inkscape:label="chestline" /></g><g
       id="g358"
       inkscape:label="cape"><g
         id="g322"
         inkscape:label="capeL"><path
           style="display:inline;fill:#222222;fill-opacity:1;stroke:none;stroke-width:1.05833;stroke-linejoin:round;stroke-dasharray:none;stroke-opacity:1"
           d="m 92.07498,41.804167 c -0.628421,-0.09775 -1.058333,-0.951521 -1.058333,-1.5875 V 26.458334 l 1.5875,-12.7 h 14.816663 c 2.84419,0 3.26966,4.732383 4.23334,7.408333 2.79046,7.748532 4.23333,24.341666 4.23333,24.341666 z"
           id="path22735"
           sodipodi:nodetypes="ssccsacs"
           inkscape:label="capeshadowL" /><path
           style="display:inline;fill:#0059c5;fill-opacity:1;stroke:none;stroke-width:1.05833;stroke-linejoin:round;stroke-dasharray:none;stroke-opacity:1"
           d="M 93.133313,40.745834 C 92.506405,40.638801 92.07498,39.794313 92.07498,39.158334 V 27.516667 c 0,-4.266278 1.5875,-12.7 1.5875,-12.7 h 2.645833 l 0.14377,6.694684 0.914564,-6.694684 h 4.233333 l -1.10136,9.417269 2.15969,-9.417269 h 3.70417 c 2.05703,0 2.3985,3.386827 3.175,5.291667 2.87473,7.051997 5.29167,22.225 5.29167,22.225 l -8.18272,-1.283362 8.18272,2.341695 V 44.45 Z"
           id="path6654"
           sodipodi:nodetypes="ssscccccccsaccccs"
           inkscape:label="capemainL" /><g
           id="g337"
           inkscape:label="capeloopL"><circle
             style="display:inline;fill:#c98621;fill-opacity:1;stroke-width:0.257738;stroke-linejoin:round"
             id="circle7142"
             cx="-35.454159"
             cy="33.866669"
             transform="scale(-1,1)"
             r="3.7041667"
             inkscape:label="capeloopoutL" /><circle
             style="display:inline;fill:#ffd40c;fill-opacity:1;stroke-width:0.184098;stroke-linejoin:round"
             id="circle7144"
             cx="-35.454159"
             cy="33.866669"
             transform="scale(-1,1)"
             r="2.6458333"
             inkscape:label="capeloopinL" /></g></g><g
         id="g326"
         inkscape:label="capeR"><path
           style="display:inline;fill:#222222;fill-opacity:1;stroke:none;stroke-width:1.05833;stroke-linejoin:round;stroke-dasharray:none;stroke-opacity:1"
           d="m 40.216652,41.804167 c 1.230287,-0.205048 2.64583,-1.398577 2.64583,-2.645834 v -12.7 l -1.05833,-12.7 H 27.516669 c -2.258881,0 -3.279236,3.244173 -4.23334,5.291667 -3.798922,8.152428 -5.29166,26.458333 -5.29166,26.458333 z"
           id="path22738"
           sodipodi:nodetypes="ssccsacs"
           inkscape:label="capeshadowR" /><path
           style="display:inline;fill:#0059c5;fill-opacity:1;stroke:none;stroke-width:1.05833;stroke-linejoin:round;stroke-dasharray:none;stroke-opacity:1"
           d="M 39.158319,40.745834 C 40.384938,40.519878 41.804149,39.347257 41.804149,38.1 V 27.516667 c 0,-4.248007 -1.05833,-12.7 -1.05833,-12.7 h -2.64583 l -0.67294,6.694684 -0.3854,-6.694684 h -4.23332 l 0.57219,9.417269 -1.63052,-9.417269 h -3.175 c -0.748355,0 -1.5875,1.5875 -1.5875,1.5875 l 0.26458,0.79375 -0.79375,-0.264583 c 0,0 -1.60209,2.011776 -2.11667,3.175 -1.76532,3.990593 -3.175,12.7 -3.175,12.7 l 1.32292,0.79375 -1.85208,0.79375 -1.5875,7.9375 8.18272,-1.283362 -8.18272,2.341695 V 44.45 Z"
           id="path6995"
           sodipodi:nodetypes="ssscccccccscccacccccccs"
           inkscape:label="capemainR" /><g
           id="g330"
           inkscape:label="capeloopR"><circle
             style="display:inline;fill:#c98621;fill-opacity:1;stroke-width:0.257738;stroke-linejoin:round"
             id="circle7103"
             cx="-98.42498"
             cy="33.866669"
             transform="scale(-1,1)"
             r="3.7041667"
             inkscape:label="capeloopoutR" /><circle
             style="display:inline;fill:#ffd40c;fill-opacity:1;stroke-width:0.184098;stroke-linejoin:round"
             id="circle7105"
             cx="-98.42498"
             cy="33.866669"
             transform="scale(-1,1)"
             r="2.6458333"
             inkscape:label="capeloopinR" /></g></g><path
         style="opacity:1;fill:#ffd40c;fill-opacity:1;stroke:#c98621;stroke-width:1.05833;stroke-linecap:round;stroke-linejoin:round;stroke-dasharray:none;stroke-opacity:1"
         d="m 35.983333,32.279166 c 0,0 9.579806,1.970745 14.419792,2.645833 5.484401,0.764972 10.998963,1.5875 16.536457,1.5875 5.537494,0 11.052056,-0.822528 16.536458,-1.5875 4.839986,-0.675088 14.419792,-2.645833 14.419792,-2.645833 0.625536,-0.114777 1.287408,0.497607 1.5875,1.058334 0.249691,0.466552 0.249691,1.120947 0,1.5875 -0.300092,0.560726 -0.959508,0.957854 -1.5875,1.058333 0,0 -11.004352,1.899202 -16.536458,2.645833 -4.79219,0.64677 -9.584154,1.5875 -14.419792,1.5875 -4.835638,0 -9.627601,-0.94073 -14.419791,-1.5875 -5.532106,-0.746631 -16.536458,-2.645833 -16.536458,-2.645833 -0.627992,-0.100479 -1.287408,-0.497607 -1.5875,-1.058333 -0.249691,-0.466553 -0.249691,-1.120948 0,-1.5875 0.300092,-0.560727 0.961964,-1.173111 1.5875,-1.058334 z"
         id="path42324"
         sodipodi:nodetypes="saaasaasaaasaas"
         inkscape:label="capestring" /></g></g></svg>
